G04 Title: test, layergroup #1 *
G04 Creator: pcb 1.7.1.ALPHA *
G04 CreationDate: Tue Jul 17 09:58:54 2001 UTC *
G04 For: spe *
G04 Format: Gerber/RS-274X *
G04 PCB-Dimensions: 6000 5000 *
G04 PCB-Coordinate-Origin: lower left *
%FSLAX23Y23*%
%MOIN*%
%LNGROUP_0*%
G04 contains layers solder (0) GND-sldr (1) Vcc-sldr (2) *
%IPPOS*%
%LPD*%
%ADD11C,0.025*%
%ADD12C,0.010*%
%ADD13C,0.040*%
%ADD14C,0.055*%
%ADD15R,0.060X0.060*%
%ADD16R,0.090X0.090*%
%ADD17C,0.060*%
%ADD18C,0.090*%
%ADD19C,0.020*%
%ADD20C,0.008*%
%ADD21R,0.050X0.050*%
%ADD22R,0.080X0.080*%
%ADD23C,0.050*%
%ADD24C,0.080*%
%ADD25C,0.120*%
%ADD26C,0.150*%
G01X0Y0D02*
G54D11*X3690Y1250D02*X3680Y1260D01*
G54D12*X3210Y2150D02*X3270Y2200D01*
X2970Y2260D02*X3070Y2010D01*
X3270Y2200D02*Y2410D01*
X3600Y2050D02*X3510Y2150D01*
X3270Y2410D02*X3080D01*
X3070Y2010D02*X3160Y2250D01*
X2690Y2350D02*X2460D01*
X2930Y2260D02*X2560D01*
X2340Y1950D02*X2450D01*
X3600Y1630D02*Y2050D01*
X3350Y1770D02*X3510Y1950D01*
X3150Y1640D02*X3030Y1620D01*
X3320Y1830D02*X3510Y2060D01*
X3210Y1650D02*X3150Y1640D01*
X3390Y1720D02*X3510Y1850D01*
X3430Y1670D02*X3510Y1750D01*
X3460Y1600D02*X3510Y1650D01*
X3030Y1820D02*X3210Y1750D01*
X3320Y1530D02*X3250Y1490D01*
D02*X2390D01*
D02*Y1440D01*
D02*Y1160D01*
X3320Y1830D02*Y1530D01*
X2680Y1330D02*X2640Y1290D01*
D02*Y1250D01*
X3350Y1770D02*Y1510D01*
D02*X3270Y1450D01*
D02*X2480D01*
D02*X2440Y1410D01*
D02*Y1250D01*
X3390Y1720D02*Y1470D01*
D02*X3320Y1410D01*
D02*X2530D01*
D02*X2490Y1370D01*
D02*Y1150D01*
X3430Y1670D02*Y1430D01*
D02*X3370Y1370D01*
D02*X2580D01*
D02*X2540Y1330D01*
D02*Y1250D01*
X3460Y1600D02*Y1380D01*
D02*X3410Y1330D01*
D02*X2680D01*
G54D11*X2940Y1880D02*Y1950D01*
X3110D02*X3210Y2050D01*
X2790Y1950D02*X3110D01*
X2680D02*X2790D01*
G54D12*X3660Y2040D02*Y1980D01*
Y1580D03*
X2520Y1830D02*X2550Y1860D01*
X3220Y2350D02*X2690D01*
X2500Y1560D02*X2360D01*
X4350Y2040D02*X4500D01*
X2450Y1880D02*Y1950D01*
X2970Y2260D02*X2940D01*
X2460Y2350D02*X2450Y2340D01*
X3160Y2250D02*X3210D01*
X2360Y1560D02*X2330Y1530D01*
X3570Y2250D02*X3660Y2160D01*
D02*Y2050D01*
X3510Y2250D02*X3570D01*
X3660Y1580D02*X3600Y1630D01*
X2220Y1850D02*X2240Y1830D01*
D02*X2520D01*
G54D11*X2220Y2260D02*X1690D01*
X2340Y2350D02*X1830D01*
X1690Y1950D02*Y1800D01*
D02*X1650Y1760D01*
X1830Y2050D02*Y1700D01*
D02*X1790Y1660D01*
D02*X1650D01*
X2840Y1250D02*Y1150D01*
X2160Y1730D02*X2090Y1860D01*
Y1870D02*X2010Y1960D01*
X2090Y1860D02*Y1880D01*
X3210Y1850D02*Y1960D01*
X3270Y1790D02*X3210Y1850D01*
X3270Y1610D02*Y1790D01*
X3210Y1550D02*X3270Y1610D01*
X2160Y1730D02*X2650D01*
D02*X2800Y1560D01*
X2790Y1150D02*Y1070D01*
D02*X2760Y1040D01*
D02*X2020D01*
D02*X1960Y1100D01*
D02*Y1530D01*
D02*X2160Y1730D01*
X3190Y1550D02*X2810D01*
X2940Y1250D02*Y1160D01*
X3090Y1150D02*X2790D01*
X3040Y1250D02*Y1160D01*
Y1250D02*X3150D01*
X3090Y1150D02*Y1090D01*
D02*X3140Y1040D01*
D02*X3600D01*
D02*X3690Y1130D01*
D02*Y1250D01*
Y1360D02*X3720Y1390D01*
D02*Y2270D01*
D02*X3660Y2350D01*
D02*X3510D01*
D02*X3500D01*
G54D15*X3690Y1360D03*
G54D17*Y1260D03*
G54D15*X3210Y2350D03*
G54D17*Y2250D03*
Y2150D03*
Y2050D03*
Y1950D03*
Y1850D03*
Y1750D03*
Y1650D03*
Y1550D03*
X3510D03*
Y1650D03*
Y1750D03*
Y1850D03*
Y1950D03*
Y2050D03*
Y2150D03*
Y2250D03*
Y2350D03*
G54D15*X1650Y1660D03*
G54D17*Y1760D03*
G54D21*X3070Y2010D03*
G54D23*Y2410D03*
G54D15*X3030Y1820D03*
G54D17*Y1620D03*
G54D21*X2940Y1860D03*
G54D23*Y2260D03*
G54D21*X2680Y1950D03*
G54D23*Y2350D03*
G54D21*X2560Y1860D03*
G54D23*Y2260D03*
G54D21*X2330Y1530D03*
G54D23*Y1830D03*
G54D21*X2450Y1950D03*
G54D23*Y2350D03*
G54D21*Y1580D03*
G54D23*Y1880D03*
G54D21*X2800Y1950D03*
G54D23*Y2350D03*
G54D21*X1690Y1955D03*
G54D23*Y2255D03*
G54D21*X1830Y2055D03*
G54D23*Y2355D03*
G54D21*X2220Y2260D03*
G54D23*Y1860D03*
G54D21*X2340Y2350D03*
G54D23*Y1950D03*
G54D21*X2100Y1860D03*
G54D23*Y2260D03*
G54D25*X1770Y1200D03*
X3510D03*
G54D17*X2040Y1250D03*
X2090Y1150D03*
X2140Y1250D03*
X2190Y1150D03*
X2240Y1250D03*
X2290Y1150D03*
X2340Y1250D03*
X2390Y1150D03*
X2440Y1250D03*
X2490Y1150D03*
X2540Y1250D03*
X2590Y1150D03*
X2640Y1250D03*
X2690Y1150D03*
X2740Y1250D03*
X2790Y1150D03*
X2840Y1250D03*
X2890Y1150D03*
X2940Y1250D03*
X2990Y1150D03*
X3040Y1250D03*
X3090Y1150D03*
X3140Y1250D03*
X3190Y1150D03*
G54D15*X3240Y1250D03*
G54D21*X2510Y1560D03*
G54D23*X2810D03*
G54D21*X3660Y1980D03*
G54D23*Y1580D03*
G54D21*Y2045D03*
G54D23*Y2345D03*
G54D21*X1990Y1950D03*
G54D23*Y2350D03*
D02*
M02*
