M48
INCH,TZ
T01F00S00C0.020
T02F00S00C0.028
T03F00S00C0.030
T04F00S00C0.100
%
T01
X3070Y2010
X3070Y2410
X3030Y1820
X3030Y1620
X2940Y1860
X2940Y2260
X2680Y1950
X2680Y2350
X2560Y1860
X2560Y2260
X2330Y1530
X2330Y1830
X2450Y1950
X2450Y2350
X2450Y1580
X2450Y1880
X2800Y1950
X2800Y2350
X1690Y1955
X1690Y2255
X1830Y2055
X1830Y2355
X2220Y2260
X2220Y1860
X2340Y2350
X2340Y1950
X2100Y1860
X2100Y2260
X2040Y1250
X2090Y1150
X2140Y1250
X2190Y1150
X2240Y1250
X2290Y1150
X2340Y1250
X2390Y1150
X2440Y1250
X2490Y1150
X2540Y1250
X2590Y1150
X2640Y1250
X2690Y1150
X2740Y1250
X2790Y1150
X2840Y1250
X2890Y1150
X2940Y1250
X2990Y1150
X3040Y1250
X3090Y1150
X3140Y1250
X3190Y1150
X3240Y1250
X2510Y1560
X2810Y1560
X3660Y1980
X3660Y1580
X3660Y2045
X3660Y2345
X1990Y1950
X1990Y2350
T02
X3210Y2350
X3210Y2250
X3210Y2150
X3210Y2050
X3210Y1950
X3210Y1850
X3210Y1750
X3210Y1650
X3210Y1550
X3510Y1550
X3510Y1650
X3510Y1750
X3510Y1850
X3510Y1950
X3510Y2050
X3510Y2150
X3510Y2250
X3510Y2350
T03
X3690Y1360
X3690Y1260
X1650Y1660
X1650Y1760
T04
X1770Y1200
X3510Y1200
M30
