G04 Title: test, solder mask solder side *
G04 Creator: pcb 1.7.1.ALPHA *
G04 CreationDate: Tue Jul 17 09:58:54 2001 UTC *
G04 For: spe *
G04 Format: Gerber/RS-274X *
G04 PCB-Dimensions: 6000 5000 *
G04 PCB-Coordinate-Origin: lower left *
%FSLAX23Y23*%
%MOIN*%
%IPNEG*%
%LPD*%
%ADD11C,0.025*%
%ADD12C,0.010*%
%ADD13C,0.040*%
%ADD14C,0.055*%
%ADD15R,0.060X0.060*%
%ADD16R,0.090X0.090*%
%ADD17C,0.060*%
%ADD18C,0.090*%
%ADD19C,0.020*%
%ADD20C,0.008*%
%ADD21R,0.050X0.050*%
%ADD22R,0.080X0.080*%
%ADD23C,0.050*%
%ADD24C,0.080*%
%ADD25C,0.120*%
%ADD26C,0.150*%
G01X0Y0D02*
G54D16*X3690Y1360D03*
G54D18*Y1260D03*
G54D16*X3210Y2350D03*
G54D18*Y2250D03*
Y2150D03*
Y2050D03*
Y1950D03*
Y1850D03*
Y1750D03*
Y1650D03*
Y1550D03*
X3510D03*
Y1650D03*
Y1750D03*
Y1850D03*
Y1950D03*
Y2050D03*
Y2150D03*
Y2250D03*
Y2350D03*
G54D16*X1650Y1660D03*
G54D18*Y1760D03*
G54D22*X3070Y2010D03*
G54D24*Y2410D03*
G54D16*X3030Y1820D03*
G54D18*Y1620D03*
G54D22*X2940Y1860D03*
G54D24*Y2260D03*
G54D22*X2680Y1950D03*
G54D24*Y2350D03*
G54D22*X2560Y1860D03*
G54D24*Y2260D03*
G54D22*X2330Y1530D03*
G54D24*Y1830D03*
G54D22*X2450Y1950D03*
G54D24*Y2350D03*
G54D22*Y1580D03*
G54D24*Y1880D03*
G54D22*X2800Y1950D03*
G54D24*Y2350D03*
G54D22*X1690Y1955D03*
G54D24*Y2255D03*
G54D22*X1830Y2055D03*
G54D24*Y2355D03*
G54D22*X2220Y2260D03*
G54D24*Y1860D03*
G54D22*X2340Y2350D03*
G54D24*Y1950D03*
G54D22*X2100Y1860D03*
G54D24*Y2260D03*
G54D26*X1770Y1200D03*
X3510D03*
G54D18*X2040Y1250D03*
X2090Y1150D03*
X2140Y1250D03*
X2190Y1150D03*
X2240Y1250D03*
X2290Y1150D03*
X2340Y1250D03*
X2390Y1150D03*
X2440Y1250D03*
X2490Y1150D03*
X2540Y1250D03*
X2590Y1150D03*
X2640Y1250D03*
X2690Y1150D03*
X2740Y1250D03*
X2790Y1150D03*
X2840Y1250D03*
X2890Y1150D03*
X2940Y1250D03*
X2990Y1150D03*
X3040Y1250D03*
X3090Y1150D03*
X3140Y1250D03*
X3190Y1150D03*
G54D16*X3240Y1250D03*
G54D22*X2510Y1560D03*
G54D24*X2810D03*
G54D22*X3660Y1980D03*
G54D24*Y1580D03*
G54D22*Y2045D03*
G54D24*Y2345D03*
G54D22*X1990Y1950D03*
G54D24*Y2350D03*
D02*
M02*
