M48
;Layer_Color=9474304
;FILE_FORMAT=2:3
INCH,TZ
;TYPE=PLATED
T1F00S00C0.028
T2F00S00C0.035
T3F00S00C0.047
T4F00S00C0.055
T5F00S00C0.125
%
T01
X470Y325
X763Y430
X818Y470
X863Y515
X2383Y620
X2388Y695
X2478Y645
X2558
X2633Y640
X2338Y800
X2298Y850
X2395Y1285
X2563Y1490
X2628Y1755
X2658Y1825
X2743
X2703Y1980
X2563Y1880
X2358Y1815
X2193Y1480
X2143Y1520
X2108Y1230
X2065Y1177
X1958Y1095
X1718Y1100
X1645Y1115
X1558Y1225
X1498Y1185
X1493Y945
X1438Y735
X1868Y795
X1908Y850
X1793Y945
X1733Y1225
X1791Y1300
X1593Y1480
X1543Y1525
X1418Y1575
X1358Y1480
X1303Y1525
Y1810
X1373Y1755
X1218Y1750
X1253Y1935
X1323Y1945
X1403
X1458Y1975
X1560Y1950
X1663Y1925
X1600Y2120
X1903Y1975
X1988Y1990
X1718Y1640
X1078Y1840
X1035Y2035
X893Y1700
X943Y1525
X993Y1480
X838Y1390
X883Y1185
X938Y1225
X1143Y1185
X843Y1065
X898Y935
X853Y650
Y590
X743Y1580
X2153Y895
X2245Y920
X633Y855
X290Y955
X330Y1010
X593Y1330
X688Y2180
X528Y2230
T02
X1118Y250
X1218
X1318
X1418
X1518
Y350
X1618
Y250
X1718
X1818
X1918
X2018
X2118
X2218
Y350
X2118
X2018
X1918
X1818
X1718
X1418
X1318
X1218
X1118
X2318
Y250
X1218Y750
X1118
X1018
X918
Y850
X1018
X1118
X1218
X693Y2250
X593
Y2350
X693
X793
Y2250
X893
X993
X1093
X1193
X1293
X1393
Y2350
X1293
X1193
X1093
X993
X893
X1493
Y2250
X1593
X1693
X1793
X1893
X1993
X2093
X2193
Y2350
X2093
X1993
X1893
X1793
X1693
X1593
X2293
Y2250
X2393
X2493
Y2350
X2393
T03
X643Y250
X408Y525
X793Y250
X2618
X2768
X2993Y550
Y700
Y850
Y1000
Y1150
Y1300
Y1450
Y1600
X408Y1575
Y1425
Y1275
Y1125
Y975
Y825
Y675
T04
X2918Y2125
Y2322
T05
X315Y197
X3071
Y1850
X315
M30
