%FSLAX24Y24*%
%MOIN*%
G70*
G01*
G75*
G04 Layer_Color=8421504*
%ADD10R,0.0492X0.0669*%
%ADD11O,0.0787X0.0138*%
%ADD12R,0.0551X0.0472*%
%ADD13R,0.0591X0.0512*%
%ADD14O,0.0236X0.0906*%
%ADD15R,0.0394X0.0551*%
%ADD16R,0.0472X0.0551*%
%ADD17R,0.0551X0.0394*%
%ADD18R,0.0236X0.0591*%
%ADD19R,0.0709X0.0512*%
%ADD20R,0.0598X0.0701*%
%ADD21C,0.0100*%
%ADD22C,0.0120*%
%ADD23C,0.0080*%
%ADD24C,0.1000*%
%ADD25C,0.0500*%
%ADD26C,0.2500*%
%ADD27C,0.0866*%
%ADD28C,0.0591*%
%ADD29R,0.0591X0.0591*%
%ADD30C,0.1270*%
%ADD31C,0.0500*%
%ADD32C,0.0250*%
%ADD33C,0.0098*%
%ADD34C,0.0236*%
%ADD35C,0.0200*%
%ADD36C,0.0079*%
%ADD37C,0.0197*%
%ADD38C,0.0150*%
%ADD39R,0.0750X0.0750*%
D10*
X24232Y18000D02*
D03*
X25630D02*
D03*
D11*
X9789Y18116D02*
D03*
Y18628D02*
D03*
Y18372D02*
D03*
Y18884D02*
D03*
X12073Y18116D02*
D03*
Y18628D02*
D03*
Y18372D02*
D03*
Y18884D02*
D03*
D12*
X13681Y18146D02*
D03*
Y18854D02*
D03*
X8181Y18146D02*
D03*
Y18854D02*
D03*
X12181Y5646D02*
D03*
Y6354D02*
D03*
X11181Y5646D02*
D03*
Y6354D02*
D03*
X10181Y5646D02*
D03*
Y6354D02*
D03*
X9181Y5646D02*
D03*
Y6354D02*
D03*
X15931Y8146D02*
D03*
Y8854D02*
D03*
X16931Y8146D02*
D03*
Y8854D02*
D03*
X17931Y8146D02*
D03*
Y8854D02*
D03*
X6931Y6291D02*
D03*
Y7000D02*
D03*
X22931Y14896D02*
D03*
Y15604D02*
D03*
D13*
X7981Y11615D02*
D03*
Y12285D02*
D03*
X13981Y11765D02*
D03*
Y12435D02*
D03*
X19981Y11765D02*
D03*
Y12435D02*
D03*
D14*
X20931Y10209D02*
D03*
X21431D02*
D03*
X20931Y13791D02*
D03*
X21431D02*
D03*
X22931Y10209D02*
D03*
X23431D02*
D03*
X21931D02*
D03*
X22431D02*
D03*
X23931D02*
D03*
X24431D02*
D03*
X21931Y13791D02*
D03*
X22431D02*
D03*
X24431D02*
D03*
X22931D02*
D03*
X23931D02*
D03*
X23431D02*
D03*
X14931Y10209D02*
D03*
X15431D02*
D03*
X14931Y13791D02*
D03*
X15431D02*
D03*
X16931Y10209D02*
D03*
X17431D02*
D03*
X15931D02*
D03*
X16431D02*
D03*
X17931D02*
D03*
X18431D02*
D03*
X15931Y13791D02*
D03*
X16431D02*
D03*
X18431D02*
D03*
X16931D02*
D03*
X17931D02*
D03*
X17431D02*
D03*
X8931Y10209D02*
D03*
X9431D02*
D03*
X8931Y13791D02*
D03*
X9431D02*
D03*
X10931Y10209D02*
D03*
X11431D02*
D03*
X9931D02*
D03*
X10431D02*
D03*
X11931D02*
D03*
X12431D02*
D03*
X9931Y13791D02*
D03*
X10431D02*
D03*
X12431D02*
D03*
X10931D02*
D03*
X11931D02*
D03*
X11431D02*
D03*
D15*
X20077Y5750D02*
D03*
X20785D02*
D03*
X25431Y20000D02*
D03*
X26140D02*
D03*
D16*
X23931Y20000D02*
D03*
X24640D02*
D03*
X24077Y14750D02*
D03*
X24785D02*
D03*
X17077Y15000D02*
D03*
X17785D02*
D03*
X21827Y5750D02*
D03*
X22535D02*
D03*
D17*
X6931Y7791D02*
D03*
Y8500D02*
D03*
D18*
X24805Y15626D02*
D03*
X24057D02*
D03*
X24431Y16374D02*
D03*
D19*
X25681Y15679D02*
D03*
Y16821D02*
D03*
D20*
X16400Y17250D02*
D03*
Y18250D02*
D03*
X20400D02*
D03*
Y17250D02*
D03*
M02*
