%FSLAX24Y24*%
%MOIN*%
G70*
G01*
G75*
G04 Layer_Color=2752767*
%ADD10R,0.0492X0.0669*%
%ADD11O,0.0787X0.0138*%
%ADD12R,0.0551X0.0472*%
%ADD13R,0.0591X0.0512*%
%ADD14O,0.0236X0.0906*%
%ADD15R,0.0394X0.0551*%
%ADD16R,0.0472X0.0551*%
%ADD17R,0.0551X0.0394*%
%ADD18R,0.0236X0.0591*%
%ADD19R,0.0709X0.0512*%
%ADD20R,0.0598X0.0701*%
%ADD21C,0.0100*%
%ADD22C,0.0120*%
%ADD23C,0.0080*%
%ADD24C,0.1000*%
%ADD25C,0.0500*%
%ADD26C,0.2500*%
%ADD27C,0.0866*%
%ADD28C,0.0591*%
%ADD29R,0.0591X0.0591*%
%ADD30C,0.1270*%
%ADD31C,0.0500*%
%ADD32C,0.0250*%
%ADD33C,0.0098*%
%ADD34C,0.0236*%
%ADD35C,0.0200*%
%ADD36C,0.0079*%
%ADD37C,0.0197*%
%ADD38C,0.0150*%
%ADD39R,0.0750X0.0750*%
%ADD40R,0.0572X0.0749*%
%ADD41O,0.0867X0.0218*%
%ADD42R,0.0631X0.0552*%
%ADD43R,0.0671X0.0592*%
%ADD44O,0.0316X0.0986*%
%ADD45R,0.0474X0.0631*%
%ADD46R,0.0552X0.0631*%
%ADD47R,0.0631X0.0474*%
%ADD48R,0.0316X0.0671*%
%ADD49R,0.0789X0.0592*%
%ADD50R,0.0678X0.0781*%
%ADD51C,0.0946*%
%ADD52C,0.0671*%
%ADD53R,0.0671X0.0671*%
%ADD54C,0.1350*%
%ADD55C,0.0580*%
%ADD56C,0.0050*%
%ADD57C,0.0067*%
D56*
X30509Y1769D02*
Y2169D01*
X30909D01*
Y1769D01*
X30509D01*
X2950D02*
Y2169D01*
X3350D01*
Y1769D01*
X2950D01*
Y18304D02*
Y18704D01*
X3350D01*
Y18304D01*
X2950D01*
X30509D02*
Y18704D01*
X30909D01*
Y18304D01*
X30509D01*
X6931Y22300D02*
X6731Y22700D01*
X7131D01*
X6931Y22300D01*
X5931D02*
X5731Y22700D01*
X6131D01*
X5931Y22300D01*
X8931D02*
X8731Y22700D01*
X9131D01*
X8931Y22300D01*
X7931D02*
X7731Y22700D01*
X8131D01*
X7931Y22300D01*
X13931D02*
X13731Y22700D01*
X14131D01*
X13931Y22300D01*
X12931D02*
X12731Y22700D01*
X13131D01*
X12931Y22300D01*
X9931D02*
X9731Y22700D01*
X10131D01*
X9931Y22300D01*
X11931D02*
X11731Y22700D01*
X12131D01*
X11931Y22300D01*
X10931D02*
X10731Y22700D01*
X11131D01*
X10931Y22300D01*
X6931Y23300D02*
X6731Y23700D01*
X7131D01*
X6931Y23300D01*
X5931D02*
X5731Y23700D01*
X6131D01*
X5931Y23300D01*
X7931D02*
X7731Y23700D01*
X8131D01*
X7931Y23300D01*
X9931D02*
X9731Y23700D01*
X10131D01*
X9931Y23300D01*
X8931D02*
X8731Y23700D01*
X9131D01*
X8931Y23300D01*
X10931D02*
X10731Y23700D01*
X11131D01*
X10931Y23300D01*
X12931D02*
X12731Y23700D01*
X13131D01*
X12931Y23300D01*
X11931D02*
X11731Y23700D01*
X12131D01*
X11931Y23300D01*
X14931D02*
X14731Y23700D01*
X15131D01*
X14931Y23300D01*
X13931D02*
X13731Y23700D01*
X14131D01*
X13931Y23300D01*
X18931Y22300D02*
X18731Y22700D01*
X19131D01*
X18931Y22300D01*
X20931D02*
X20731Y22700D01*
X21131D01*
X20931Y22300D01*
X19931D02*
X19731Y22700D01*
X20131D01*
X19931Y22300D01*
X14931D02*
X14731Y22700D01*
X15131D01*
X14931Y22300D01*
X17931D02*
X17731Y22700D01*
X18131D01*
X17931Y22300D01*
X16931D02*
X16731Y22700D01*
X17131D01*
X16931Y22300D01*
X21931D02*
X21731Y22700D01*
X22131D01*
X21931Y22300D01*
X22931D02*
X22731Y22700D01*
X23131D01*
X22931Y22300D01*
X23931D02*
X23731Y22700D01*
X24131D01*
X23931Y22300D01*
X24931D02*
X24731Y22700D01*
X25131D01*
X24931Y22300D01*
X15931D02*
X15731Y22700D01*
X16131D01*
X15931Y22300D01*
X16931Y23300D02*
X16731Y23700D01*
X17131D01*
X16931Y23300D01*
X15931D02*
X15731Y23700D01*
X16131D01*
X15931Y23300D01*
X17931D02*
X17731Y23700D01*
X18131D01*
X17931Y23300D01*
X19931D02*
X19731Y23700D01*
X20131D01*
X19931Y23300D01*
X18931D02*
X18731Y23700D01*
X19131D01*
X18931Y23300D01*
X23931D02*
X23731Y23700D01*
X24131D01*
X23931Y23300D01*
X24931D02*
X24731Y23700D01*
X25131D01*
X24931Y23300D01*
X20931D02*
X20731Y23700D01*
X21131D01*
X20931Y23300D01*
X22931D02*
X22731Y23700D01*
X23131D01*
X22931Y23300D01*
X21931D02*
X21731Y23700D01*
X22131D01*
X21931Y23300D01*
X11181Y2300D02*
X10981Y2700D01*
X11381D01*
X11181Y2300D01*
X12181D02*
X11981Y2700D01*
X12381D01*
X12181Y2300D01*
X15181D02*
X14981Y2700D01*
X15381D01*
X15181Y2300D01*
X13181D02*
X12981Y2700D01*
X13381D01*
X13181Y2300D01*
X14181D02*
X13981Y2700D01*
X14381D01*
X14181Y2300D01*
X11181Y3300D02*
X10981Y3700D01*
X11381D01*
X11181Y3300D01*
X12181D02*
X11981Y3700D01*
X12381D01*
X12181Y3300D01*
X13181D02*
X12981Y3700D01*
X13381D01*
X13181Y3300D01*
X15181D02*
X14981Y3700D01*
X15381D01*
X15181Y3300D01*
X16181Y2300D02*
X15981Y2700D01*
X16381D01*
X16181Y2300D01*
Y3300D02*
X15981Y3700D01*
X16381D01*
X16181Y3300D01*
X14181D02*
X13981Y3700D01*
X14381D01*
X14181Y3300D01*
X20181Y2300D02*
X19981Y2700D01*
X20381D01*
X20181Y2300D01*
X21181D02*
X20981Y2700D01*
X21381D01*
X21181Y2300D01*
X18181D02*
X17981Y2700D01*
X18381D01*
X18181Y2300D01*
X19181D02*
X18981Y2700D01*
X19381D01*
X19181Y2300D01*
X23181D02*
X22981Y2700D01*
X23381D01*
X23181Y2300D01*
X22181D02*
X21981Y2700D01*
X22381D01*
X22181Y2300D01*
X17181Y3300D02*
X16981Y3700D01*
X17381D01*
X17181Y3300D01*
Y2300D02*
X16981Y2700D01*
X17381D01*
X17181Y2300D01*
X18181Y3300D02*
X17981Y3700D01*
X18381D01*
X18181Y3300D01*
X19181D02*
X18981Y3700D01*
X19381D01*
X19181Y3300D01*
X23181D02*
X22981Y3700D01*
X23381D01*
X23181Y3300D01*
X20181D02*
X19981Y3700D01*
X20381D01*
X20181Y3300D01*
X22181D02*
X21981Y3700D01*
X22381D01*
X22181Y3300D01*
X21181D02*
X20981Y3700D01*
X21381D01*
X21181Y3300D01*
X29181Y21050D02*
X29281Y21150D01*
X29381D01*
X29281Y21250D01*
X29381Y21350D01*
X29281D01*
X29181Y21450D01*
X29081Y21350D01*
X28981D01*
X29081Y21250D01*
X28981Y21150D01*
X29081D01*
X29181Y21050D01*
Y23018D02*
X29281Y23118D01*
X29381D01*
X29281Y23218D01*
X29381Y23318D01*
X29281D01*
X29181Y23418D01*
X29081Y23318D01*
X28981D01*
X29081Y23218D01*
X28981Y23118D01*
X29081D01*
X29181Y23018D01*
X9181Y7300D02*
X8981Y7700D01*
X9381D01*
X9181Y7300D01*
Y8300D02*
X8981Y8700D01*
X9381D01*
X9181Y8300D01*
X10181D02*
X9981Y8700D01*
X10381D01*
X10181Y8300D01*
X11181Y7300D02*
X10981Y7700D01*
X11381D01*
X11181Y7300D01*
X10181D02*
X9981Y7700D01*
X10381D01*
X10181Y7300D01*
X12181D02*
X11981Y7700D01*
X12381D01*
X12181Y7300D01*
Y8300D02*
X11981Y8700D01*
X12381D01*
X12181Y8300D01*
X11181D02*
X10981Y8700D01*
X11381D01*
X11181Y8300D01*
X9731Y14600D02*
X9831Y14800D01*
X9731Y15000D01*
X9931Y14900D01*
X10131Y15000D01*
X10031Y14800D01*
X10131Y14600D01*
X9931Y14700D01*
X9731Y14600D01*
X15731D02*
X15831Y14800D01*
X15731Y15000D01*
X15931Y14900D01*
X16131Y15000D01*
X16031Y14800D01*
X16131Y14600D01*
X15931Y14700D01*
X15731Y14600D01*
X15231Y15050D02*
X15331Y15250D01*
X15231Y15450D01*
X15431Y15350D01*
X15631Y15450D01*
X15531Y15250D01*
X15631Y15050D01*
X15431Y15150D01*
X15231Y15050D01*
X9231D02*
X9331Y15250D01*
X9231Y15450D01*
X9431Y15350D01*
X9631Y15450D01*
X9531Y15250D01*
X9631Y15050D01*
X9431Y15150D01*
X9231Y15050D01*
X21231Y15000D02*
X21331Y15200D01*
X21231Y15400D01*
X21431Y15300D01*
X21631Y15400D01*
X21531Y15200D01*
X21631Y15000D01*
X21431Y15100D01*
X21231Y15000D01*
X11981Y17300D02*
X12081Y17500D01*
X11981Y17700D01*
X12181Y17600D01*
X12381Y17700D01*
X12281Y17500D01*
X12381Y17300D01*
X12181Y17400D01*
X11981Y17300D01*
X10581Y18200D02*
X10681Y18400D01*
X10581Y18600D01*
X10781Y18500D01*
X10981Y18600D01*
X10881Y18400D01*
X10981Y18200D01*
X10781Y18300D01*
X10581Y18200D01*
X12831Y15050D02*
X12931Y15250D01*
X12831Y15450D01*
X13031Y15350D01*
X13231Y15450D01*
X13131Y15250D01*
X13231Y15050D01*
X13031Y15150D01*
X12831Y15050D01*
X13381Y14600D02*
X13481Y14800D01*
X13381Y15000D01*
X13581Y14900D01*
X13781Y15000D01*
X13681Y14800D01*
X13781Y14600D01*
X13581Y14700D01*
X13381Y14600D01*
X7431Y4100D02*
X7531Y4300D01*
X7431Y4500D01*
X7631Y4400D01*
X7831Y4500D01*
X7731Y4300D01*
X7831Y4100D01*
X7631Y4200D01*
X7431Y4100D01*
X7981Y4500D02*
X8081Y4700D01*
X7981Y4900D01*
X8181Y4800D01*
X8381Y4900D01*
X8281Y4700D01*
X8381Y4500D01*
X8181Y4600D01*
X7981Y4500D01*
X8431Y4950D02*
X8531Y5150D01*
X8431Y5350D01*
X8631Y5250D01*
X8831Y5350D01*
X8731Y5150D01*
X8831Y4950D01*
X8631Y5050D01*
X8431Y4950D01*
X8331Y5700D02*
X8431Y5900D01*
X8331Y6100D01*
X8531Y6000D01*
X8731Y6100D01*
X8631Y5900D01*
X8731Y5700D01*
X8531Y5800D01*
X8331Y5700D01*
X14381Y19550D02*
X14481Y19750D01*
X14381Y19950D01*
X14581Y19850D01*
X14781Y19950D01*
X14681Y19750D01*
X14781Y19550D01*
X14581Y19650D01*
X14381Y19550D01*
X8181Y13700D02*
X8281Y13900D01*
X8181Y14100D01*
X8381Y14000D01*
X8581Y14100D01*
X8481Y13900D01*
X8581Y13700D01*
X8381Y13800D01*
X8181Y13700D01*
X23381Y17950D02*
X23481Y18150D01*
X23381Y18350D01*
X23581Y18250D01*
X23781Y18350D01*
X23681Y18150D01*
X23781Y17950D01*
X23581Y18050D01*
X23381Y17950D01*
X13831Y19250D02*
X13931Y19450D01*
X13831Y19650D01*
X14031Y19550D01*
X14231Y19650D01*
X14131Y19450D01*
X14231Y19250D01*
X14031Y19350D01*
X13831Y19250D01*
X18881Y8300D02*
X18981Y8500D01*
X18881Y8700D01*
X19081Y8600D01*
X19281Y8700D01*
X19181Y8500D01*
X19281Y8300D01*
X19081Y8400D01*
X18881Y8300D01*
X23181Y7800D02*
X23281Y8000D01*
X23181Y8200D01*
X23381Y8100D01*
X23581Y8200D01*
X23481Y8000D01*
X23581Y7800D01*
X23381Y7900D01*
X23181Y7800D01*
X22781Y8300D02*
X22881Y8500D01*
X22781Y8700D01*
X22981Y8600D01*
X23181Y8700D01*
X23081Y8500D01*
X23181Y8300D01*
X22981Y8400D01*
X22781Y8300D01*
X18481Y7750D02*
X18581Y7950D01*
X18481Y8150D01*
X18681Y8050D01*
X18881Y8150D01*
X18781Y7950D01*
X18881Y7750D01*
X18681Y7850D01*
X18481Y7750D01*
X16981Y10800D02*
X17081Y11000D01*
X16981Y11200D01*
X17181Y11100D01*
X17381Y11200D01*
X17281Y11000D01*
X17381Y10800D01*
X17181Y10900D01*
X16981Y10800D01*
X19381Y10750D02*
X19481Y10950D01*
X19381Y11150D01*
X19581Y11050D01*
X19781Y11150D01*
X19681Y10950D01*
X19781Y10750D01*
X19581Y10850D01*
X19381Y10750D01*
X8331Y6300D02*
X8431Y6500D01*
X8331Y6700D01*
X8531Y6600D01*
X8731Y6700D01*
X8631Y6500D01*
X8731Y6300D01*
X8531Y6400D01*
X8331Y6300D01*
X14181Y7150D02*
X14281Y7350D01*
X14181Y7550D01*
X14381Y7450D01*
X14581Y7550D01*
X14481Y7350D01*
X14581Y7150D01*
X14381Y7250D01*
X14181Y7150D01*
X13981Y15550D02*
X14081Y15750D01*
X13981Y15950D01*
X14181Y15850D01*
X14381Y15950D01*
X14281Y15750D01*
X14381Y15550D01*
X14181Y15650D01*
X13981Y15550D01*
X7231Y15600D02*
X7331Y15800D01*
X7231Y16000D01*
X7431Y15900D01*
X7631Y16000D01*
X7531Y15800D01*
X7631Y15600D01*
X7431Y15700D01*
X7231Y15600D01*
X5081Y22100D02*
X5181Y22300D01*
X5081Y22500D01*
X5281Y22400D01*
X5481Y22500D01*
X5381Y22300D01*
X5481Y22100D01*
X5281Y22200D01*
X5081Y22100D01*
X14731Y9250D02*
X14831Y9450D01*
X14731Y9650D01*
X14931Y9550D01*
X15131Y9650D01*
X15031Y9450D01*
X15131Y9250D01*
X14931Y9350D01*
X14731Y9250D01*
X17731D02*
X17831Y9450D01*
X17731Y9650D01*
X17931Y9550D01*
X18131Y9650D01*
X18031Y9450D01*
X18131Y9250D01*
X17931Y9350D01*
X17731Y9250D01*
X21331Y8750D02*
X21431Y8950D01*
X21331Y9150D01*
X21531Y9050D01*
X21731Y9150D01*
X21631Y8950D01*
X21731Y8750D01*
X21531Y8850D01*
X21331Y8750D01*
X8781Y9150D02*
X8881Y9350D01*
X8781Y9550D01*
X8981Y9450D01*
X9181Y9550D01*
X9081Y9350D01*
X9181Y9150D01*
X8981Y9250D01*
X8781Y9150D01*
X6131Y8350D02*
X6231Y8550D01*
X6131Y8750D01*
X6331Y8650D01*
X6531Y8750D01*
X6431Y8550D01*
X6531Y8350D01*
X6331Y8450D01*
X6131Y8350D01*
X26131Y6200D02*
X26231Y6400D01*
X26131Y6600D01*
X26331Y6500D01*
X26531Y6600D01*
X26431Y6400D01*
X26531Y6200D01*
X26331Y6300D01*
X26131Y6200D01*
X19681Y19700D02*
X19781Y19900D01*
X19681Y20100D01*
X19881Y20000D01*
X20081Y20100D01*
X19981Y19900D01*
X20081Y19700D01*
X19881Y19800D01*
X19681Y19700D01*
X24581Y6250D02*
X24681Y6450D01*
X24581Y6650D01*
X24781Y6550D01*
X24981Y6650D01*
X24881Y6450D01*
X24981Y6250D01*
X24781Y6350D01*
X24581Y6250D01*
X26381Y18050D02*
X26481Y18250D01*
X26381Y18450D01*
X26581Y18350D01*
X26781Y18450D01*
X26681Y18250D01*
X26781Y18050D01*
X26581Y18150D01*
X26381Y18050D01*
X16431Y19050D02*
X16531Y19250D01*
X16431Y19450D01*
X16631Y19350D01*
X16831Y19450D01*
X16731Y19250D01*
X16831Y19050D01*
X16631Y19150D01*
X16431Y19050D01*
X23631Y6000D02*
X23731Y6200D01*
X23631Y6400D01*
X23831Y6300D01*
X24031Y6400D01*
X23931Y6200D01*
X24031Y6000D01*
X23831Y6100D01*
X23631Y6000D01*
X26081Y17350D02*
X26181Y17550D01*
X26081Y17750D01*
X26281Y17650D01*
X26481Y17750D01*
X26381Y17550D01*
X26481Y17350D01*
X26281Y17450D01*
X26081Y17350D01*
X13031Y19250D02*
X13131Y19450D01*
X13031Y19650D01*
X13231Y19550D01*
X13431Y19650D01*
X13331Y19450D01*
X13431Y19250D01*
X13231Y19350D01*
X13031Y19250D01*
X12831Y17900D02*
X12931Y18100D01*
X12831Y18300D01*
X13031Y18200D01*
X13231Y18300D01*
X13131Y18100D01*
X13231Y17900D01*
X13031Y18000D01*
X12831Y17900D01*
X12331Y19150D02*
X12431Y19350D01*
X12331Y19550D01*
X12531Y19450D01*
X12731Y19550D01*
X12631Y19350D01*
X12731Y19150D01*
X12531Y19250D01*
X12331Y19150D01*
X13531Y17350D02*
X13631Y17550D01*
X13531Y17750D01*
X13731Y17650D01*
X13931Y17750D01*
X13831Y17550D01*
X13931Y17350D01*
X13731Y17450D01*
X13531Y17350D01*
X8731Y16800D02*
X8831Y17000D01*
X8731Y17200D01*
X8931Y17100D01*
X9131Y17200D01*
X9031Y17000D01*
X9131Y16800D01*
X8931Y16900D01*
X8731Y16800D01*
X23681Y6750D02*
X23781Y6950D01*
X23681Y7150D01*
X23881Y7050D01*
X24081Y7150D01*
X23981Y6950D01*
X24081Y6750D01*
X23881Y6850D01*
X23681Y6750D01*
X25431Y14700D02*
X25531Y14900D01*
X25431Y15100D01*
X25631Y15000D01*
X25831Y15100D01*
X25731Y14900D01*
X25831Y14700D01*
X25631Y14800D01*
X25431Y14700D01*
X21731Y14600D02*
X21831Y14800D01*
X21731Y15000D01*
X21931Y14900D01*
X22131Y15000D01*
X22031Y14800D01*
X22131Y14600D01*
X21931Y14700D01*
X21731Y14600D01*
X16981Y16200D02*
X17081Y16400D01*
X16981Y16600D01*
X17181Y16500D01*
X17381Y16600D01*
X17281Y16400D01*
X17381Y16200D01*
X17181Y16300D01*
X16981Y16200D01*
X8231Y10450D02*
X8331Y10650D01*
X8231Y10850D01*
X8431Y10750D01*
X8631Y10850D01*
X8531Y10650D01*
X8631Y10450D01*
X8431Y10550D01*
X8231Y10450D01*
X9181Y12050D02*
X9281Y12250D01*
X9181Y12450D01*
X9381Y12350D01*
X9581Y12450D01*
X9481Y12250D01*
X9581Y12050D01*
X9381Y12150D01*
X9181Y12050D01*
X20881Y12100D02*
X20981Y12300D01*
X20881Y12500D01*
X21081Y12400D01*
X21281Y12500D01*
X21181Y12300D01*
X21281Y12100D01*
X21081Y12200D01*
X20881Y12100D01*
X15381Y12050D02*
X15481Y12250D01*
X15381Y12450D01*
X15581Y12350D01*
X15781Y12450D01*
X15681Y12250D01*
X15781Y12050D01*
X15581Y12150D01*
X15381Y12050D01*
X17131D02*
X17231Y12250D01*
X17131Y12450D01*
X17331Y12350D01*
X17531Y12450D01*
X17431Y12250D01*
X17531Y12050D01*
X17331Y12150D01*
X17131Y12050D01*
X27231Y18050D02*
X27331Y18250D01*
X27231Y18450D01*
X27431Y18350D01*
X27631Y18450D01*
X27531Y18250D01*
X27631Y18050D01*
X27431Y18150D01*
X27231Y18050D01*
X26831Y19600D02*
X26931Y19800D01*
X26831Y20000D01*
X27031Y19900D01*
X27231Y20000D01*
X27131Y19800D01*
X27231Y19600D01*
X27031Y19700D01*
X26831Y19600D01*
X25431Y18600D02*
X25531Y18800D01*
X25431Y19000D01*
X25631Y18900D01*
X25831Y19000D01*
X25731Y18800D01*
X25831Y18600D01*
X25631Y18700D01*
X25431Y18600D01*
X20446Y11565D02*
X20546Y11765D01*
X20446Y11965D01*
X20646Y11865D01*
X20846Y11965D01*
X20746Y11765D01*
X20846Y11565D01*
X20646Y11665D01*
X20446Y11565D01*
X14781Y11650D02*
X14881Y11850D01*
X14781Y12050D01*
X14981Y11950D01*
X15181Y12050D01*
X15081Y11850D01*
X15181Y11650D01*
X14981Y11750D01*
X14781Y11650D01*
X11231D02*
X11331Y11850D01*
X11231Y12050D01*
X11431Y11950D01*
X11631Y12050D01*
X11531Y11850D01*
X11631Y11650D01*
X11431Y11750D01*
X11231Y11650D01*
X8631D02*
X8731Y11850D01*
X8631Y12050D01*
X8831Y11950D01*
X9031Y12050D01*
X8931Y11850D01*
X9031Y11650D01*
X8831Y11750D01*
X8631Y11650D01*
X6681Y21600D02*
X6781Y21800D01*
X6681Y22000D01*
X6881Y21900D01*
X7081Y22000D01*
X6981Y21800D01*
X7081Y21600D01*
X6881Y21700D01*
X6681Y21600D01*
X5731Y13100D02*
X5831Y13300D01*
X5731Y13500D01*
X5931Y13400D01*
X6131Y13500D01*
X6031Y13300D01*
X6131Y13100D01*
X5931Y13200D01*
X5731Y13100D01*
X18831Y19550D02*
X18931Y19750D01*
X18831Y19950D01*
X19031Y19850D01*
X19231Y19950D01*
X19131Y19750D01*
X19231Y19550D01*
X19031Y19650D01*
X18831Y19550D01*
X25381Y6250D02*
X25481Y6450D01*
X25381Y6650D01*
X25581Y6550D01*
X25781Y6650D01*
X25681Y6450D01*
X25781Y6250D01*
X25581Y6350D01*
X25381Y6250D01*
X22250Y9000D02*
X22350Y9200D01*
X22250Y9400D01*
X22450Y9300D01*
X22650Y9400D01*
X22550Y9200D01*
X22650Y9000D01*
X22450Y9100D01*
X22250Y9000D01*
X16250Y10950D02*
X16350Y11150D01*
X16250Y11350D01*
X16450Y11250D01*
X16650Y11350D01*
X16550Y11150D01*
X16650Y10950D01*
X16450Y11050D01*
X16250Y10950D01*
X17712Y12800D02*
X17812Y13000D01*
X17712Y13200D01*
X17912Y13100D01*
X18112Y13200D01*
X18012Y13000D01*
X18112Y12800D01*
X17912Y12900D01*
X17712Y12800D01*
X2700Y9350D02*
X2800Y9550D01*
X2700Y9750D01*
X2900Y9650D01*
X3100Y9750D01*
X3000Y9550D01*
X3100Y9350D01*
X2900Y9450D01*
X2700Y9350D01*
X23750Y12650D02*
X23850Y12850D01*
X23750Y13050D01*
X23950Y12950D01*
X24150Y13050D01*
X24050Y12850D01*
X24150Y12650D01*
X23950Y12750D01*
X23750Y12650D01*
X3100Y9900D02*
X3200Y10100D01*
X3100Y10300D01*
X3300Y10200D01*
X3500Y10300D01*
X3400Y10100D01*
X3500Y9900D01*
X3300Y10000D01*
X3100Y9900D01*
X4500Y3050D02*
X4600Y3250D01*
X4500Y3450D01*
X4700Y3350D01*
X4900Y3450D01*
X4800Y3250D01*
X4900Y3050D01*
X4700Y3150D01*
X4500Y3050D01*
X15800Y21000D02*
X15900Y21200D01*
X15800Y21400D01*
X16000Y21300D01*
X16200Y21400D01*
X16100Y21200D01*
X16200Y21000D01*
X16000Y21100D01*
X15800Y21000D01*
X15400Y19300D02*
X15500Y19500D01*
X15400Y19700D01*
X15600Y19600D01*
X15800Y19700D01*
X15700Y19500D01*
X15800Y19300D01*
X15600Y19400D01*
X15400Y19300D01*
X10150Y20150D02*
X10250Y20350D01*
X10150Y20550D01*
X10350Y20450D01*
X10550Y20550D01*
X10450Y20350D01*
X10550Y20150D01*
X10350Y20250D01*
X10150Y20150D01*
D57*
X4281Y15750D02*
G03*
X4281Y15750I-200J0D01*
G01*
Y14250D02*
G03*
X4281Y14250I-200J0D01*
G01*
Y5250D02*
G03*
X4281Y5250I-200J0D01*
G01*
Y6750D02*
G03*
X4281Y6750I-200J0D01*
G01*
Y8250D02*
G03*
X4281Y8250I-200J0D01*
G01*
Y9750D02*
G03*
X4281Y9750I-200J0D01*
G01*
Y11250D02*
G03*
X4281Y11250I-200J0D01*
G01*
Y12750D02*
G03*
X4281Y12750I-200J0D01*
G01*
X8131Y2500D02*
G03*
X8131Y2500I-200J0D01*
G01*
X6631D02*
G03*
X6631Y2500I-200J0D01*
G01*
X27881D02*
G03*
X27881Y2500I-200J0D01*
G01*
X26381D02*
G03*
X26381Y2500I-200J0D01*
G01*
X30131Y8500D02*
G03*
X30131Y8500I-200J0D01*
G01*
Y10000D02*
G03*
X30131Y10000I-200J0D01*
G01*
Y11500D02*
G03*
X30131Y11500I-200J0D01*
G01*
Y13000D02*
G03*
X30131Y13000I-200J0D01*
G01*
Y14500D02*
G03*
X30131Y14500I-200J0D01*
G01*
Y16000D02*
G03*
X30131Y16000I-200J0D01*
G01*
Y7000D02*
G03*
X30131Y7000I-200J0D01*
G01*
Y5500D02*
G03*
X30131Y5500I-200J0D01*
G01*
M02*
