M48
INCH,TZ
T13C0.028
%
T13
X000665Y023500
X000685Y021500
X000705Y019500
X000725Y017500
X000745Y015500
X000765Y013500
X000785Y011500
X000805Y009500
X000825Y007500
X000845Y005500
X000865Y003500
X000885Y001500
X002725Y017500
X002745Y015500
X002765Y013500
X002785Y011500
X002805Y009500
X002825Y007500
X002845Y005500
X002865Y003500
X002885Y001500
X004665Y023500
X004685Y021500
X004705Y019500
X004725Y017500
X004745Y015500
X004765Y013500
X004785Y011500
X004805Y009500
X004825Y007500
X004845Y005500
X004865Y003500
X004885Y001500
X006665Y023500
X006685Y021500
X006705Y019500
X006725Y017500
X006745Y015500
X006765Y013500
X006785Y011500
X006805Y009500
X006825Y007500
X006845Y005500
X006865Y003500
X006885Y001500
X008705Y019500
X008725Y017500
X008745Y015500
X008765Y013500
X008785Y011500
X008805Y009500
X008825Y007500
X008845Y005500
X008865Y003500
X008885Y001500
X000645Y025500
X002645Y025500
X002605Y029500
X002625Y027500
X002665Y023500
X002685Y021500
X002705Y019500
X006585Y031500
X006605Y029500
X006625Y027500
X006645Y025500
X008585Y031500
X008605Y029500
X008625Y027500
X008645Y025500
X008665Y023500
X008685Y021500
X010645Y025500
X010665Y023500
X010685Y021500
X010705Y019500
X010725Y017500
X010745Y015500
X010765Y013500
X010785Y011500
X010805Y009500
X010825Y007500
X010845Y005500
X010865Y003500
X010885Y001500
X012705Y019500
X012725Y017500
X012745Y015500
X012765Y013500
X012785Y011500
X012805Y009500
X012825Y007500
X012845Y005500
X012865Y003500
X012885Y001500
X014665Y023500
X014685Y021500
X014705Y019500
X014725Y017500
X014745Y015500
X014765Y013500
X014785Y011500
X014805Y009500
X014825Y007500
X014845Y005500
X014865Y003500
X014885Y001500
X016665Y023500
X016685Y021500
X016705Y019500
X016725Y017500
X016745Y015500
X016765Y013500
X016785Y011500
X016805Y009500
X016825Y007500
X016845Y005500
X016865Y003500
X016885Y001500
X010565Y033500
X010585Y031500
X010605Y029500
X010625Y027500
X012605Y029500
X012625Y027500
X012645Y025500
X012665Y023500
X012685Y021500
X018665Y023500
X018685Y021500
X018705Y019500
X018725Y017500
X018745Y015500
X018765Y013500
X018785Y011500
X018805Y009500
X018825Y007500
X018845Y005500
X018865Y003500
X018885Y001500
X018585Y031500
X018605Y029500
X018625Y027500
X018645Y025500
X020545Y035500
X020565Y033500
X020585Y031500
X020605Y029500
X020625Y027500
X020645Y025500
X020665Y023500
X020685Y021500
X020705Y019500
X020725Y017500
X020745Y015500
X020765Y013500
X020785Y011500
X020805Y009500
X020825Y007500
X020845Y005500
X020865Y003500
X020885Y001500
X000565Y033500
X000585Y031500
X000605Y029500
X000625Y027500
X000505Y039500
X000525Y037500
X000545Y035500
X002545Y035500
X002565Y033500
X002585Y031500
X002505Y039500
X004505Y039500
X004545Y035500
X004565Y033500
X004585Y031500
X004605Y029500
X004625Y027500
X004645Y025500
X002525Y037500
X004525Y037500
X006505Y039500
X006525Y037500
X006545Y035500
X006565Y033500
X008505Y039500
X008525Y037500
X008545Y035500
X008565Y033500
X010505Y039500
X010525Y037500
X010545Y035500
X012505Y039500
X012525Y037500
X014525Y037500
X012545Y035500
X012565Y033500
X012585Y031500
X014505Y039500
X014545Y035500
X014565Y033500
X014585Y031500
X014605Y029500
X014625Y027500
X014645Y025500
X016505Y039500
X016525Y037500
X016545Y035500
X016565Y033500
X016585Y031500
X016605Y029500
X016625Y027500
X016645Y025500
X018505Y039500
X018525Y037500
X018545Y035500
X018565Y033500
X020505Y039500
X020525Y037500
X022505Y039500
X022525Y037500
X022545Y035500
X022565Y033500
X022585Y031500
X022605Y029500
X022625Y027500
X022645Y025500
X022665Y023500
X024505Y039500
X024525Y037500
X024545Y035500
X026505Y039500
X026525Y037500
X028505Y039500
X022685Y021500
X022705Y019500
X022725Y017500
X022745Y015500
X022765Y013500
X022785Y011500
X022805Y009500
X022825Y007500
X022845Y005500
X022865Y003500
X022885Y001500
X024665Y023500
X024685Y021500
X024705Y019500
X024725Y017500
X024745Y015500
X024765Y013500
X024785Y011500
X024805Y009500
X024825Y007500
X024845Y005500
X024865Y003500
X024885Y001500
X026705Y019500
X026725Y017500
X026745Y015500
X026765Y013500
X026785Y011500
X026805Y009500
X026825Y007500
X026845Y005500
X026865Y003500
X026885Y001500
X024565Y033500
X024585Y031500
X024605Y029500
X024625Y027500
X024645Y025500
X026645Y025500
X026605Y029500
X026625Y027500
X026665Y023500
X026685Y021500
X026545Y035500
X026565Y033500
X026585Y031500
X028585Y031500
X028605Y029500
X028625Y027500
X028645Y025500
X028665Y023500
X028525Y037500
X028545Y035500
X028565Y033500
X030505Y039500
X030525Y037500
X030545Y035500
X032505Y039500
X032525Y037500
X034525Y037500
X030565Y033500
X030585Y031500
X030605Y029500
X030625Y027500
X032605Y029500
X032625Y027500
X032645Y025500
X032665Y023500
X032685Y021500
X032545Y035500
X032565Y033500
X032585Y031500
X034505Y039500
X034545Y035500
X034565Y033500
X034585Y031500
X034605Y029500
X034625Y027500
X034645Y025500
X034665Y023500
X034685Y021500
X034705Y019500
X034725Y017500
X034745Y015500
X034765Y013500
X034785Y011500
X034805Y009500
X034825Y007500
X034845Y005500
X034865Y003500
X034885Y001500
X028685Y021500
X028705Y019500
X028725Y017500
X028745Y015500
X028765Y013500
X028785Y011500
X028805Y009500
X028825Y007500
X028845Y005500
X028865Y003500
X028885Y001500
X030645Y025500
X030665Y023500
X030685Y021500
X030705Y019500
X030725Y017500
X030745Y015500
X030765Y013500
X030785Y011500
X030805Y009500
X030825Y007500
X030845Y005500
X030865Y003500
X030885Y001500
X032705Y019500
X032725Y017500
X032745Y015500
X032765Y013500
X032785Y011500
X032805Y009500
X032825Y007500
X032845Y005500
X032865Y003500
X032885Y001500
M30
