M48
;Layer_Color=9474304
;FILE_FORMAT=2:3
INCH,TZ
;TYPE=PLATED
T1F00S00C0.028
T2F00S00C0.031
T3F00S00C0.035
T4F00S00C0.040
T5F00S00C0.047
T6F00S00C0.098
T7F00S00C0.118
%
T01
X870Y405
X1250Y330
Y530
X1535Y435
X1595Y485
X1535Y325
X1710
X2135Y900
X2095Y940
X2080Y865
X2020Y830
X1560Y820
X1385Y710
X1250Y770
X1210Y840
X1215Y1000
X1230Y1070
X1290Y1075
X1364Y1078
X1420Y1090
X1335Y1260
X1275Y1280
X1205Y1265
X1165Y1345
X930Y1220
X870Y1235
X825Y1295
X760Y1315
X730Y1365
X675Y1340
X765Y1015
X935Y935
X1075Y980
X1015Y1115
X925Y610
X1660Y1060
X1805Y1235
X1465Y1480
X1305Y1575
X415Y1565
X340Y1465
T02
X115Y420
Y520
Y620
Y720
Y820
Y920
T03
X1890Y1004
Y1102
Y1201
Y1299
Y1398
Y1496
X190Y1450
Y1350
Y1250
Y1150
Y1050
X90
Y1150
Y1250
Y1350
Y1450
Y1550
X190
Y1650
X90
T04
X1025Y1350
Y1450
Y1550
T05
X1292Y207
X1442
X1592
X1742
X2155Y367
Y517
Y667
Y817
Y1076
Y1226
Y1376
Y1526
X1739Y1692
X1589
X1439
X1289
T06
X1850Y550
T07
X394Y157
X1969
Y1732
X394
M30
