%FSLAX24Y24*%
%MOIN*%
G70*
G01*
G75*
G04 Layer_Color=8421504*
%ADD10R,0.0512X0.0591*%
%ADD11R,0.0453X0.0118*%
%ADD12R,0.0709X0.0512*%
%ADD13R,0.0551X0.0472*%
%ADD14R,0.0591X0.0512*%
G04:AMPARAMS|DCode=15|XSize=33.5mil|YSize=15.7mil|CornerRadius=0mil|HoleSize=0mil|Usage=FLASHONLY|Rotation=225.000|XOffset=0mil|YOffset=0mil|HoleType=Round|Shape=Rectangle|*
%AMROTATEDRECTD15*
4,1,4,0.0063,0.0174,0.0174,0.0063,-0.0063,-0.0174,-0.0174,-0.0063,0.0063,0.0174,0.0*
%
%ADD15ROTATEDRECTD15*%

%ADD16O,0.0098X0.0610*%
%ADD17O,0.0610X0.0098*%
%ADD18R,0.1000X0.0600*%
%ADD19R,0.0600X0.1000*%
%ADD20R,0.0906X0.0906*%
%ADD21R,0.0472X0.0551*%
%ADD22R,0.0591X0.0236*%
%ADD23R,0.0512X0.0709*%
%ADD24C,0.0120*%
%ADD25C,0.0200*%
%ADD26C,0.0080*%
%ADD27C,0.0500*%
%ADD28C,0.0250*%
%ADD29C,0.0400*%
%ADD30R,0.1260X0.2756*%
%ADD31C,0.0591*%
%ADD32R,0.0591X0.0591*%
%ADD33C,0.2362*%
%ADD34C,0.0866*%
%ADD35C,0.0630*%
%ADD36O,0.1200X0.0600*%
%ADD37C,0.0500*%
%ADD38C,0.0098*%
%ADD39C,0.0079*%
%ADD40C,0.0236*%
%ADD41C,0.0100*%
D10*
X13835Y7750D02*
D03*
X13165D02*
D03*
X13835Y14750D02*
D03*
X13165D02*
D03*
X14085Y6350D02*
D03*
X13415D02*
D03*
X11835Y4600D02*
D03*
X11165D02*
D03*
D11*
X19593Y4093D02*
D03*
Y4348D02*
D03*
Y4604D02*
D03*
Y4860D02*
D03*
Y5116D02*
D03*
Y5372D02*
D03*
Y5628D02*
D03*
Y5884D02*
D03*
Y6140D02*
D03*
Y6396D02*
D03*
Y6652D02*
D03*
Y6907D02*
D03*
X17407Y4093D02*
D03*
Y4348D02*
D03*
Y4604D02*
D03*
Y4860D02*
D03*
Y5116D02*
D03*
Y5372D02*
D03*
Y5628D02*
D03*
Y5884D02*
D03*
Y6140D02*
D03*
Y6396D02*
D03*
Y6652D02*
D03*
Y6907D02*
D03*
D12*
X17250Y12321D02*
D03*
Y11179D02*
D03*
D13*
X17750Y14396D02*
D03*
Y15104D02*
D03*
X16750Y15104D02*
D03*
Y14396D02*
D03*
X11200Y7754D02*
D03*
Y7046D02*
D03*
X12300Y15754D02*
D03*
Y15046D02*
D03*
X11550D02*
D03*
Y15754D02*
D03*
D14*
X10138Y11825D02*
D03*
Y12494D02*
D03*
X11200Y5465D02*
D03*
Y6135D02*
D03*
X2300Y9185D02*
D03*
Y8515D02*
D03*
D15*
X3650Y15500D02*
D03*
X3469Y15681D02*
D03*
X3288Y15862D02*
D03*
X2773Y15347D02*
D03*
X2954Y15166D02*
D03*
X3135Y14985D02*
D03*
D16*
X15075Y13470D02*
D03*
X14878D02*
D03*
X14681D02*
D03*
X14484D02*
D03*
X14287D02*
D03*
X14091D02*
D03*
X13894D02*
D03*
X13697Y13470D02*
D03*
X13500D02*
D03*
X13303D02*
D03*
X13106Y13470D02*
D03*
X12909D02*
D03*
X12713D02*
D03*
X12516D02*
D03*
X12319D02*
D03*
X12122D02*
D03*
Y9120D02*
D03*
X12319D02*
D03*
X12516D02*
D03*
X12713D02*
D03*
X12909D02*
D03*
X13106D02*
D03*
X13303Y9120D02*
D03*
X13500D02*
D03*
X13697D02*
D03*
X13894Y9120D02*
D03*
X14091D02*
D03*
X14287D02*
D03*
X14484D02*
D03*
X14681D02*
D03*
X14878D02*
D03*
X15075D02*
D03*
D17*
X11423Y12772D02*
D03*
Y12575D02*
D03*
Y12378D02*
D03*
Y12181D02*
D03*
Y11984D02*
D03*
Y11787D02*
D03*
Y11591D02*
D03*
X11423Y11394D02*
D03*
Y11197D02*
D03*
Y11000D02*
D03*
X11423Y10803D02*
D03*
Y10606D02*
D03*
Y10409D02*
D03*
Y10213D02*
D03*
Y10016D02*
D03*
Y9819D02*
D03*
X15774D02*
D03*
Y10016D02*
D03*
Y10213D02*
D03*
Y10409D02*
D03*
Y10606D02*
D03*
Y10803D02*
D03*
X15774Y11000D02*
D03*
Y11197D02*
D03*
Y11394D02*
D03*
X15774Y11591D02*
D03*
Y11787D02*
D03*
Y11984D02*
D03*
Y12181D02*
D03*
Y12378D02*
D03*
Y12575D02*
D03*
Y12772D02*
D03*
D18*
X3650Y4100D02*
D03*
Y5100D02*
D03*
Y6100D02*
D03*
Y7100D02*
D03*
X10150D02*
D03*
Y6100D02*
D03*
Y5100D02*
D03*
Y4100D02*
D03*
D19*
X5650Y15650D02*
D03*
X6650D02*
D03*
X7650D02*
D03*
X8650D02*
D03*
Y9150D02*
D03*
X7650D02*
D03*
X6650D02*
D03*
X5650D02*
D03*
D20*
X9786Y17400D02*
D03*
X8014D02*
D03*
D21*
X14504Y15700D02*
D03*
X13796D02*
D03*
X16746Y9700D02*
D03*
X17454D02*
D03*
X15196Y7550D02*
D03*
X15904D02*
D03*
X15904Y6650D02*
D03*
X15196D02*
D03*
X13396Y5450D02*
D03*
X14104D02*
D03*
X11146Y3600D02*
D03*
X11854D02*
D03*
X9946Y8800D02*
D03*
X10654D02*
D03*
D22*
X17174Y8550D02*
D03*
X16426Y8176D02*
D03*
Y8924D02*
D03*
D23*
X17779Y3250D02*
D03*
X18921D02*
D03*
M02*
