%FSLAX24Y24*%
%MOIN*%
G70*
G01*
G75*
G04 Layer_Physical_Order=2*
G04 Layer_Color=16711680*
%ADD10R,0.0512X0.0591*%
%ADD11R,0.0453X0.0118*%
%ADD12R,0.0709X0.0512*%
%ADD13R,0.0551X0.0472*%
%ADD14R,0.0591X0.0512*%
G04:AMPARAMS|DCode=15|XSize=33.5mil|YSize=15.7mil|CornerRadius=0mil|HoleSize=0mil|Usage=FLASHONLY|Rotation=225.000|XOffset=0mil|YOffset=0mil|HoleType=Round|Shape=Rectangle|*
%AMROTATEDRECTD15*
4,1,4,0.0063,0.0174,0.0174,0.0063,-0.0063,-0.0174,-0.0174,-0.0063,0.0063,0.0174,0.0*
%
%ADD15ROTATEDRECTD15*%

%ADD16O,0.0098X0.0610*%
%ADD17O,0.0610X0.0098*%
%ADD18R,0.1000X0.0600*%
%ADD19R,0.0600X0.1000*%
%ADD20R,0.0906X0.0906*%
%ADD21R,0.0472X0.0551*%
%ADD22R,0.0591X0.0236*%
%ADD23R,0.0512X0.0709*%
%ADD24C,0.0120*%
%ADD25C,0.0200*%
%ADD26C,0.0080*%
%ADD27C,0.0500*%
%ADD28C,0.0250*%
%ADD29C,0.0400*%
%ADD30R,0.1260X0.2756*%
%ADD31C,0.0591*%
%ADD32R,0.0591X0.0591*%
%ADD33C,0.2362*%
%ADD34C,0.0866*%
%ADD35C,0.0630*%
%ADD36O,0.1200X0.0600*%
%ADD37C,0.0500*%
G36*
X23000Y18000D02*
Y1000D01*
X22500Y500D01*
X20399D01*
X20385Y548D01*
X20417Y568D01*
X20565Y694D01*
X20692Y843D01*
X20794Y1010D01*
X20869Y1190D01*
X20915Y1380D01*
X20930Y1575D01*
X20915Y1770D01*
X20869Y1960D01*
X20794Y2140D01*
X20692Y2307D01*
X20565Y2455D01*
X20417Y2582D01*
X20250Y2684D01*
X20070Y2759D01*
X19880Y2804D01*
X19685Y2820D01*
X19490Y2804D01*
X19300Y2759D01*
X19120Y2684D01*
X18953Y2582D01*
X18805Y2455D01*
X18678Y2307D01*
X18576Y2140D01*
X18501Y1960D01*
X18455Y1770D01*
X18440Y1575D01*
X18455Y1380D01*
X18501Y1190D01*
X18576Y1010D01*
X18678Y843D01*
X18805Y694D01*
X18953Y568D01*
X18985Y548D01*
X18972Y500D01*
X4651D01*
X4637Y548D01*
X4669Y568D01*
X4817Y694D01*
X4944Y843D01*
X5046Y1010D01*
X5121Y1190D01*
X5167Y1380D01*
X5182Y1575D01*
X5167Y1770D01*
X5121Y1960D01*
X5046Y2140D01*
X4944Y2307D01*
X4817Y2455D01*
X4669Y2582D01*
X4502Y2684D01*
X4322Y2759D01*
X4132Y2804D01*
X3937Y2820D01*
X3742Y2804D01*
X3552Y2759D01*
X3372Y2684D01*
X3205Y2582D01*
X3057Y2455D01*
X2930Y2307D01*
X2828Y2140D01*
X2753Y1960D01*
X2707Y1770D01*
X2692Y1575D01*
X2707Y1380D01*
X2753Y1190D01*
X2828Y1010D01*
X2930Y843D01*
X3057Y694D01*
X3205Y568D01*
X3237Y548D01*
X3223Y500D01*
X1050D01*
X500Y1050D01*
Y10433D01*
X550Y10437D01*
X554Y10407D01*
X590Y10321D01*
X647Y10247D01*
X721Y10190D01*
X807Y10154D01*
X900Y10142D01*
X993Y10154D01*
X1074Y10187D01*
X1726D01*
X1807Y10154D01*
X1900Y10142D01*
X1993Y10154D01*
X2079Y10190D01*
X2153Y10247D01*
X2210Y10321D01*
X2246Y10407D01*
X2258Y10500D01*
X2246Y10593D01*
X2213Y10674D01*
Y11187D01*
X4058D01*
X4058Y11187D01*
X4139Y11198D01*
X4214Y11229D01*
X4279Y11279D01*
X6388Y13388D01*
X6441Y13370D01*
X6448Y13319D01*
X6479Y13244D01*
X6529Y13179D01*
X6594Y13129D01*
X6648Y13107D01*
Y13100D01*
X6656Y13061D01*
X6678Y13028D01*
X8348Y11358D01*
X8381Y11336D01*
X8420Y11328D01*
X9935D01*
X9974Y11336D01*
X10007Y11358D01*
X10047Y11398D01*
X11908D01*
X12198Y11108D01*
Y10993D01*
X12144Y10971D01*
X12079Y10921D01*
X12029Y10856D01*
X11998Y10781D01*
X11987Y10700D01*
X11998Y10619D01*
X12029Y10544D01*
X12079Y10479D01*
X12144Y10429D01*
X12219Y10398D01*
X12300Y10387D01*
X12381Y10398D01*
X12456Y10429D01*
X12521Y10479D01*
X12571Y10544D01*
X12583Y10574D01*
X12595Y10579D01*
X12640Y10580D01*
X12679Y10529D01*
X12744Y10479D01*
X12819Y10448D01*
X12900Y10437D01*
X12981Y10448D01*
X13056Y10479D01*
X13121Y10529D01*
X13171Y10594D01*
X13202Y10669D01*
X13213Y10750D01*
X13202Y10831D01*
X13171Y10906D01*
X13121Y10971D01*
X13056Y11021D01*
X12981Y11052D01*
X12900Y11063D01*
X12819Y11052D01*
X12765Y11029D01*
X12162Y11632D01*
X12181Y11678D01*
X12299D01*
X12549Y11428D01*
X12582Y11406D01*
X12621Y11398D01*
X12874D01*
X13361Y10912D01*
X13338Y10857D01*
X13327Y10777D01*
X13338Y10696D01*
X13369Y10620D01*
X13419Y10555D01*
X13484Y10506D01*
X13559Y10474D01*
X13640Y10464D01*
X13721Y10474D01*
X13796Y10506D01*
X13861Y10555D01*
X13911Y10620D01*
X13928Y10663D01*
X13954Y10671D01*
X13987Y10673D01*
X14044Y10629D01*
X14119Y10598D01*
X14200Y10587D01*
X14281Y10598D01*
X14356Y10629D01*
X14421Y10679D01*
X14471Y10744D01*
X14502Y10819D01*
X14513Y10900D01*
X14502Y10981D01*
X14471Y11056D01*
X14421Y11121D01*
X14356Y11171D01*
X14281Y11202D01*
X14200Y11213D01*
X14119Y11202D01*
X14065Y11179D01*
X13663Y11581D01*
X13682Y11628D01*
X18121D01*
X18575Y11173D01*
X18552Y11116D01*
X18539Y11024D01*
X18552Y10931D01*
X18587Y10844D01*
X18644Y10770D01*
X18718Y10713D01*
X18805Y10677D01*
X18898Y10665D01*
X18990Y10677D01*
X19077Y10713D01*
X19151Y10770D01*
X19208Y10844D01*
X19244Y10931D01*
X19256Y11024D01*
X19244Y11116D01*
X19208Y11203D01*
X19151Y11277D01*
X19077Y11334D01*
X18990Y11370D01*
X18898Y11382D01*
X18805Y11370D01*
X18748Y11346D01*
X18287Y11808D01*
X18307Y11858D01*
X18575D01*
X18587Y11829D01*
X18644Y11754D01*
X18718Y11698D01*
X18805Y11662D01*
X18898Y11650D01*
X18990Y11662D01*
X19077Y11698D01*
X19151Y11754D01*
X19208Y11829D01*
X19244Y11915D01*
X19256Y12008D01*
X19244Y12101D01*
X19208Y12187D01*
X19151Y12261D01*
X19077Y12318D01*
X18990Y12354D01*
X18898Y12366D01*
X18805Y12354D01*
X18718Y12318D01*
X18644Y12261D01*
X18587Y12187D01*
X18552Y12102D01*
X18314D01*
X18289Y12152D01*
X18321Y12194D01*
X18352Y12269D01*
X18363Y12350D01*
X18352Y12431D01*
X18321Y12506D01*
X18271Y12571D01*
X18206Y12621D01*
X18131Y12652D01*
X18050Y12663D01*
X17969Y12652D01*
X17894Y12621D01*
X17829Y12571D01*
X17779Y12506D01*
X17757Y12452D01*
X14192D01*
X12492Y14152D01*
X12459Y14174D01*
X12420Y14182D01*
X11130D01*
X11091Y14174D01*
X11058Y14152D01*
X10724Y13818D01*
X10644Y13851D01*
X10550Y13863D01*
X9950D01*
X9856Y13851D01*
X9768Y13814D01*
X9693Y13757D01*
X9636Y13682D01*
X9599Y13594D01*
X9587Y13500D01*
X9599Y13406D01*
X9636Y13318D01*
X9687Y13252D01*
X9672Y13202D01*
X9450D01*
X9411Y13194D01*
X9378Y13172D01*
X8835Y12629D01*
X8781Y12652D01*
X8700Y12663D01*
X8619Y12652D01*
X8544Y12621D01*
X8479Y12571D01*
X8429Y12506D01*
X8402Y12441D01*
X8352Y12450D01*
Y12657D01*
X8406Y12679D01*
X8471Y12729D01*
X8521Y12794D01*
X8552Y12869D01*
X8563Y12950D01*
X8552Y13031D01*
X8521Y13106D01*
X8471Y13171D01*
X8406Y13221D01*
X8331Y13252D01*
X8250Y13263D01*
X8169Y13252D01*
X8094Y13221D01*
X8029Y13171D01*
X7979Y13106D01*
X7948Y13031D01*
X7937Y12950D01*
X7948Y12869D01*
X7979Y12794D01*
X8029Y12729D01*
X8094Y12679D01*
X8148Y12657D01*
Y12419D01*
X8102Y12399D01*
X7702Y12799D01*
Y12857D01*
X7756Y12879D01*
X7821Y12929D01*
X7871Y12994D01*
X7902Y13069D01*
X7913Y13150D01*
X7902Y13231D01*
X7871Y13306D01*
X7821Y13371D01*
X7756Y13421D01*
X7681Y13452D01*
X7609Y13461D01*
X7599Y13470D01*
X7592Y13480D01*
X7578Y13510D01*
X7602Y13569D01*
X7613Y13650D01*
X7602Y13731D01*
X7571Y13806D01*
X7521Y13871D01*
X7456Y13921D01*
X7381Y13952D01*
X7300Y13963D01*
X7219Y13952D01*
X7144Y13921D01*
X7079Y13871D01*
X7029Y13806D01*
X6998Y13731D01*
X6990Y13670D01*
X6946Y13647D01*
X6938Y13646D01*
X6906Y13671D01*
X6831Y13702D01*
X6780Y13709D01*
X6762Y13762D01*
X7188Y14187D01*
X9766D01*
X9768Y14186D01*
X9856Y14149D01*
X9950Y14137D01*
X10550D01*
X10644Y14149D01*
X10732Y14186D01*
X10807Y14243D01*
X10864Y14318D01*
X10872Y14337D01*
X12550D01*
X12612Y14349D01*
X12665Y14385D01*
X13518Y15237D01*
X15872D01*
X15935Y15249D01*
X15988Y15285D01*
X17179Y16476D01*
X17265Y16441D01*
X17394Y16424D01*
X17522Y16441D01*
X17642Y16491D01*
X17745Y16570D01*
X17824Y16673D01*
X17874Y16793D01*
X17891Y16921D01*
X17874Y17050D01*
X17824Y17170D01*
X17745Y17273D01*
X17642Y17352D01*
X17522Y17402D01*
X17394Y17419D01*
X17265Y17402D01*
X17145Y17352D01*
X17042Y17273D01*
X16963Y17170D01*
X16913Y17050D01*
X16896Y16921D01*
X16913Y16793D01*
X16949Y16707D01*
X15805Y15563D01*
X13450D01*
X13388Y15551D01*
X13335Y15515D01*
X12482Y14663D01*
X10872D01*
X10864Y14682D01*
X10807Y14757D01*
X10732Y14814D01*
X10644Y14851D01*
X10550Y14863D01*
X9950D01*
X9856Y14851D01*
X9768Y14814D01*
X9766Y14813D01*
X7058D01*
X7058Y14813D01*
X7018Y14807D01*
X6977Y14802D01*
X6939Y14786D01*
X6902Y14771D01*
X6865Y14743D01*
X6837Y14721D01*
X6837Y14721D01*
X3929Y11813D01*
X2074D01*
X1993Y11846D01*
X1900Y11858D01*
X1807Y11846D01*
X1726Y11813D01*
X1074D01*
X993Y11846D01*
X900Y11858D01*
X807Y11846D01*
X721Y11810D01*
X647Y11753D01*
X590Y11679D01*
X554Y11593D01*
X550Y11563D01*
X500Y11567D01*
Y14433D01*
X550Y14437D01*
X554Y14407D01*
X590Y14321D01*
X647Y14247D01*
X721Y14190D01*
X807Y14154D01*
X900Y14142D01*
X993Y14154D01*
X1079Y14190D01*
X1153Y14247D01*
X1210Y14321D01*
X1246Y14407D01*
X1258Y14500D01*
X1246Y14593D01*
X1210Y14679D01*
X1153Y14753D01*
X1079Y14810D01*
X993Y14846D01*
X900Y14858D01*
X807Y14846D01*
X721Y14810D01*
X647Y14753D01*
X590Y14679D01*
X554Y14593D01*
X550Y14563D01*
X500Y14567D01*
Y15433D01*
X550Y15437D01*
X554Y15407D01*
X590Y15321D01*
X647Y15247D01*
X721Y15190D01*
X807Y15154D01*
X900Y15142D01*
X993Y15154D01*
X1079Y15190D01*
X1153Y15247D01*
X1210Y15321D01*
X1246Y15407D01*
X1258Y15500D01*
X1246Y15593D01*
X1210Y15679D01*
X1153Y15753D01*
X1079Y15810D01*
X993Y15846D01*
X900Y15858D01*
X807Y15846D01*
X721Y15810D01*
X647Y15753D01*
X590Y15679D01*
X554Y15593D01*
X550Y15563D01*
X500Y15567D01*
Y16132D01*
X545Y16145D01*
X550Y16145D01*
X1255D01*
Y16855D01*
X550D01*
X545Y16855D01*
X500Y16868D01*
Y18500D01*
X3408D01*
X3417Y18451D01*
X3372Y18432D01*
X3205Y18330D01*
X3057Y18203D01*
X2930Y18055D01*
X2828Y17888D01*
X2753Y17708D01*
X2707Y17518D01*
X2692Y17323D01*
X2707Y17128D01*
X2753Y16938D01*
X2828Y16758D01*
X2930Y16591D01*
X3057Y16443D01*
X3205Y16316D01*
X3372Y16214D01*
X3552Y16139D01*
X3742Y16093D01*
X3937Y16078D01*
X4132Y16093D01*
X4322Y16139D01*
X4502Y16214D01*
X4669Y16316D01*
X4817Y16443D01*
X4944Y16591D01*
X5046Y16758D01*
X5121Y16938D01*
X5167Y17128D01*
X5182Y17323D01*
X5167Y17518D01*
X5121Y17708D01*
X5046Y17888D01*
X4944Y18055D01*
X4817Y18203D01*
X4669Y18330D01*
X4502Y18432D01*
X4457Y18451D01*
X4466Y18500D01*
X19156D01*
X19165Y18451D01*
X19120Y18432D01*
X18953Y18330D01*
X18805Y18203D01*
X18678Y18055D01*
X18576Y17888D01*
X18501Y17708D01*
X18455Y17518D01*
X18440Y17323D01*
X18455Y17128D01*
X18501Y16938D01*
X18576Y16758D01*
X18678Y16591D01*
X18805Y16443D01*
X18953Y16316D01*
X19120Y16214D01*
X19300Y16139D01*
X19490Y16093D01*
X19685Y16078D01*
X19880Y16093D01*
X20070Y16139D01*
X20250Y16214D01*
X20417Y16316D01*
X20565Y16443D01*
X20692Y16591D01*
X20794Y16758D01*
X20869Y16938D01*
X20915Y17128D01*
X20930Y17323D01*
X20915Y17518D01*
X20869Y17708D01*
X20794Y17888D01*
X20692Y18055D01*
X20565Y18203D01*
X20417Y18330D01*
X20250Y18432D01*
X20205Y18451D01*
X20214Y18500D01*
X22500D01*
X23000Y18000D01*
D02*
G37*
%LPC*%
G36*
X1150Y7578D02*
X1052Y7565D01*
X961Y7528D01*
X883Y7467D01*
X822Y7389D01*
X785Y7298D01*
X772Y7200D01*
X785Y7102D01*
X822Y7011D01*
X883Y6933D01*
X961Y6872D01*
X1052Y6835D01*
X1150Y6822D01*
X1248Y6835D01*
X1339Y6872D01*
X1417Y6933D01*
X1478Y7011D01*
X1515Y7102D01*
X1528Y7200D01*
X1515Y7298D01*
X1478Y7389D01*
X1417Y7467D01*
X1339Y7528D01*
X1248Y7565D01*
X1150Y7578D01*
D02*
G37*
G36*
X21547Y7167D02*
X21419Y7150D01*
X21299Y7100D01*
X21196Y7021D01*
X21117Y6918D01*
X21067Y6798D01*
X21050Y6669D01*
X21067Y6541D01*
X21117Y6421D01*
X21196Y6318D01*
X21299Y6239D01*
X21419Y6189D01*
X21547Y6172D01*
X21676Y6189D01*
X21796Y6239D01*
X21899Y6318D01*
X21978Y6421D01*
X22028Y6541D01*
X22045Y6669D01*
X22028Y6798D01*
X21978Y6918D01*
X21899Y7021D01*
X21796Y7100D01*
X21676Y7150D01*
X21547Y7167D01*
D02*
G37*
G36*
X1150Y5578D02*
X1052Y5565D01*
X961Y5528D01*
X883Y5467D01*
X822Y5389D01*
X785Y5298D01*
X772Y5200D01*
X785Y5102D01*
X822Y5011D01*
X883Y4933D01*
X961Y4872D01*
X1052Y4835D01*
X1150Y4822D01*
X1248Y4835D01*
X1339Y4872D01*
X1417Y4933D01*
X1478Y5011D01*
X1515Y5102D01*
X1528Y5200D01*
X1515Y5298D01*
X1478Y5389D01*
X1417Y5467D01*
X1339Y5528D01*
X1248Y5565D01*
X1150Y5578D01*
D02*
G37*
G36*
X9350Y9663D02*
X9269Y9652D01*
X9194Y9621D01*
X9129Y9571D01*
X9079Y9506D01*
X9048Y9431D01*
X9037Y9350D01*
X9048Y9269D01*
X9071Y9215D01*
X4158Y4302D01*
X1514D01*
X1478Y4389D01*
X1417Y4467D01*
X1339Y4528D01*
X1248Y4565D01*
X1150Y4578D01*
X1052Y4565D01*
X961Y4528D01*
X883Y4467D01*
X822Y4389D01*
X785Y4298D01*
X772Y4200D01*
X785Y4102D01*
X822Y4011D01*
X883Y3933D01*
X961Y3872D01*
X1052Y3835D01*
X1150Y3822D01*
X1248Y3835D01*
X1339Y3872D01*
X1417Y3933D01*
X1478Y4011D01*
X1514Y4098D01*
X4200D01*
X4239Y4106D01*
X4272Y4128D01*
X9215Y9071D01*
X9269Y9048D01*
X9350Y9037D01*
X9431Y9048D01*
X9506Y9079D01*
X9571Y9129D01*
X9621Y9194D01*
X9652Y9269D01*
X9663Y9350D01*
X9652Y9431D01*
X9621Y9506D01*
X9571Y9571D01*
X9506Y9621D01*
X9431Y9652D01*
X9350Y9663D01*
D02*
G37*
G36*
X1150Y9578D02*
X1052Y9565D01*
X961Y9528D01*
X883Y9467D01*
X822Y9389D01*
X785Y9298D01*
X772Y9200D01*
X785Y9102D01*
X822Y9011D01*
X883Y8933D01*
X961Y8872D01*
X1052Y8835D01*
X1150Y8822D01*
X1248Y8835D01*
X1339Y8872D01*
X1417Y8933D01*
X1478Y9011D01*
X1515Y9102D01*
X1528Y9200D01*
X1515Y9298D01*
X1478Y9389D01*
X1417Y9467D01*
X1339Y9528D01*
X1248Y9565D01*
X1150Y9578D01*
D02*
G37*
G36*
X16600Y10913D02*
X16519Y10902D01*
X16444Y10871D01*
X16379Y10821D01*
X16329Y10756D01*
X16298Y10681D01*
X16287Y10600D01*
X16298Y10519D01*
X16329Y10444D01*
X16379Y10379D01*
X16444Y10329D01*
X16519Y10298D01*
X16600Y10287D01*
X16681Y10298D01*
X16735Y10321D01*
X17908Y9148D01*
X17889Y9102D01*
X13192D01*
X12429Y9865D01*
X12452Y9919D01*
X12463Y10000D01*
X12452Y10081D01*
X12421Y10156D01*
X12371Y10221D01*
X12306Y10271D01*
X12231Y10302D01*
X12150Y10313D01*
X12069Y10302D01*
X12015Y10280D01*
X11772Y10522D01*
X11739Y10544D01*
X11700Y10552D01*
X9600D01*
X9561Y10544D01*
X9528Y10522D01*
X5308Y6302D01*
X1514D01*
X1478Y6389D01*
X1417Y6467D01*
X1339Y6528D01*
X1248Y6565D01*
X1150Y6578D01*
X1052Y6565D01*
X961Y6528D01*
X883Y6467D01*
X822Y6389D01*
X785Y6298D01*
X772Y6200D01*
X785Y6102D01*
X822Y6011D01*
X883Y5933D01*
X961Y5872D01*
X1052Y5835D01*
X1150Y5822D01*
X1248Y5835D01*
X1339Y5872D01*
X1417Y5933D01*
X1478Y6011D01*
X1514Y6098D01*
X5350D01*
X5389Y6106D01*
X5422Y6128D01*
X9642Y10348D01*
X11658D01*
X11870Y10135D01*
X11848Y10081D01*
X11837Y10000D01*
X11848Y9919D01*
X11879Y9844D01*
X11929Y9779D01*
X11994Y9729D01*
X12069Y9698D01*
X12150Y9687D01*
X12231Y9698D01*
X12285Y9721D01*
X13008Y8998D01*
X12989Y8952D01*
X12550D01*
X12511Y8944D01*
X12478Y8922D01*
X12235Y8680D01*
X12181Y8702D01*
X12100Y8713D01*
X12019Y8702D01*
X11944Y8671D01*
X11879Y8621D01*
X11829Y8556D01*
X11798Y8481D01*
X11787Y8400D01*
X11798Y8319D01*
X11829Y8244D01*
X11879Y8179D01*
X11944Y8129D01*
X12019Y8098D01*
X12100Y8087D01*
X12181Y8098D01*
X12256Y8129D01*
X12321Y8179D01*
X12371Y8244D01*
X12402Y8319D01*
X12413Y8400D01*
X12402Y8481D01*
X12379Y8535D01*
X12592Y8748D01*
X13339D01*
X13358Y8702D01*
X12635Y7980D01*
X12581Y8002D01*
X12500Y8013D01*
X12419Y8002D01*
X12344Y7971D01*
X12279Y7921D01*
X12229Y7856D01*
X12198Y7781D01*
X12187Y7700D01*
X12198Y7619D01*
X12229Y7544D01*
X12279Y7479D01*
X12344Y7429D01*
X12419Y7398D01*
X12500Y7387D01*
X12581Y7398D01*
X12656Y7429D01*
X12721Y7479D01*
X12771Y7544D01*
X12802Y7619D01*
X12813Y7700D01*
X12802Y7781D01*
X12780Y7835D01*
X13542Y8598D01*
X19658D01*
X19895Y8361D01*
X19887Y8300D01*
X19898Y8219D01*
X19929Y8144D01*
X19979Y8079D01*
X20044Y8029D01*
X20119Y7998D01*
X20200Y7987D01*
X20281Y7998D01*
X20356Y8029D01*
X20421Y8079D01*
X20471Y8144D01*
X20502Y8219D01*
X20513Y8300D01*
X20502Y8381D01*
X20471Y8456D01*
X20421Y8521D01*
X20356Y8571D01*
X20281Y8602D01*
X20200Y8613D01*
X20119Y8602D01*
X20044Y8571D01*
X20004Y8540D01*
X19842Y8702D01*
X19861Y8748D01*
X20308D01*
X20478Y8578D01*
X20501Y8563D01*
X20529Y8494D01*
X20579Y8429D01*
X20644Y8379D01*
X20719Y8348D01*
X20800Y8337D01*
X20881Y8348D01*
X20956Y8379D01*
X21021Y8429D01*
X21071Y8494D01*
X21102Y8569D01*
X21113Y8650D01*
X21102Y8731D01*
X21099Y8739D01*
X21140Y8771D01*
X21194Y8729D01*
X21269Y8698D01*
X21350Y8687D01*
X21392Y8693D01*
X21405Y8644D01*
X21299Y8600D01*
X21196Y8521D01*
X21117Y8418D01*
X21067Y8298D01*
X21050Y8169D01*
X21067Y8041D01*
X21117Y7921D01*
X21196Y7818D01*
X21299Y7739D01*
X21419Y7689D01*
X21547Y7672D01*
X21676Y7689D01*
X21796Y7739D01*
X21899Y7818D01*
X21978Y7921D01*
X22028Y8041D01*
X22045Y8169D01*
X22028Y8298D01*
X21978Y8418D01*
X21899Y8521D01*
X21796Y8600D01*
X21676Y8650D01*
X21547Y8667D01*
X21457Y8655D01*
X21444Y8703D01*
X21506Y8729D01*
X21571Y8779D01*
X21621Y8844D01*
X21652Y8919D01*
X21663Y9000D01*
X21652Y9081D01*
X21621Y9156D01*
X21571Y9221D01*
X21506Y9271D01*
X21431Y9302D01*
X21350Y9313D01*
X21298Y9306D01*
X21297Y9306D01*
X21256Y9347D01*
X21256Y9348D01*
X21263Y9400D01*
X21252Y9481D01*
X21221Y9556D01*
X21171Y9621D01*
X21106Y9671D01*
X21031Y9702D01*
X20950Y9713D01*
X20869Y9702D01*
X20794Y9671D01*
X20729Y9621D01*
X20679Y9556D01*
X20648Y9481D01*
X20637Y9400D01*
X20648Y9319D01*
X20655Y9302D01*
X20622Y9252D01*
X18092D01*
X16880Y10465D01*
X16902Y10519D01*
X16913Y10600D01*
X16902Y10681D01*
X16871Y10756D01*
X16821Y10821D01*
X16756Y10871D01*
X16681Y10902D01*
X16600Y10913D01*
D02*
G37*
G36*
X21547Y5667D02*
X21419Y5650D01*
X21299Y5600D01*
X21196Y5521D01*
X21117Y5418D01*
X21067Y5298D01*
X21050Y5169D01*
X21067Y5041D01*
X21117Y4921D01*
X21196Y4818D01*
X21299Y4739D01*
X21419Y4689D01*
X21547Y4672D01*
X21676Y4689D01*
X21796Y4739D01*
X21899Y4818D01*
X21978Y4921D01*
X22028Y5041D01*
X22045Y5169D01*
X22028Y5298D01*
X21978Y5418D01*
X21899Y5521D01*
X21796Y5600D01*
X21676Y5650D01*
X21547Y5667D01*
D02*
G37*
G36*
X15921Y2572D02*
X15793Y2555D01*
X15673Y2506D01*
X15570Y2426D01*
X15491Y2323D01*
X15441Y2204D01*
X15424Y2075D01*
X15441Y1946D01*
X15491Y1826D01*
X15570Y1723D01*
X15673Y1644D01*
X15793Y1594D01*
X15921Y1577D01*
X16050Y1594D01*
X16170Y1644D01*
X16273Y1723D01*
X16352Y1826D01*
X16402Y1946D01*
X16419Y2075D01*
X16402Y2204D01*
X16352Y2323D01*
X16273Y2426D01*
X16170Y2506D01*
X16050Y2555D01*
X15921Y2572D01*
D02*
G37*
G36*
X14421D02*
X14293Y2555D01*
X14173Y2506D01*
X14070Y2426D01*
X13991Y2323D01*
X13941Y2204D01*
X13924Y2075D01*
X13941Y1946D01*
X13991Y1826D01*
X14070Y1723D01*
X14173Y1644D01*
X14293Y1594D01*
X14421Y1577D01*
X14550Y1594D01*
X14670Y1644D01*
X14773Y1723D01*
X14852Y1826D01*
X14902Y1946D01*
X14919Y2075D01*
X14902Y2204D01*
X14852Y2323D01*
X14773Y2426D01*
X14670Y2506D01*
X14550Y2555D01*
X14421Y2572D01*
D02*
G37*
G36*
X12921D02*
X12793Y2555D01*
X12673Y2506D01*
X12570Y2426D01*
X12491Y2323D01*
X12441Y2204D01*
X12424Y2075D01*
X12441Y1946D01*
X12491Y1826D01*
X12570Y1723D01*
X12673Y1644D01*
X12793Y1594D01*
X12921Y1577D01*
X13050Y1594D01*
X13170Y1644D01*
X13273Y1723D01*
X13352Y1826D01*
X13402Y1946D01*
X13419Y2075D01*
X13402Y2204D01*
X13352Y2323D01*
X13273Y2426D01*
X13170Y2506D01*
X13050Y2555D01*
X12921Y2572D01*
D02*
G37*
G36*
X10750Y10113D02*
X10669Y10102D01*
X10594Y10071D01*
X10529Y10021D01*
X10479Y9956D01*
X10448Y9881D01*
X10437Y9800D01*
X10448Y9719D01*
X10479Y9644D01*
X10529Y9579D01*
X10594Y9529D01*
X10628Y9515D01*
Y6450D01*
X10637Y6403D01*
X10663Y6363D01*
X12763Y4263D01*
X12803Y4237D01*
X12850Y4228D01*
X15065D01*
X15079Y4194D01*
X15111Y4152D01*
X15087Y4102D01*
X9006D01*
X9002Y4131D01*
X8971Y4206D01*
X8921Y4271D01*
X8856Y4321D01*
X8781Y4352D01*
X8700Y4363D01*
X8619Y4352D01*
X8544Y4321D01*
X8479Y4271D01*
X8429Y4206D01*
X8398Y4131D01*
X8387Y4050D01*
X8398Y3969D01*
X8429Y3894D01*
X8479Y3829D01*
X8544Y3779D01*
X8619Y3748D01*
X8700Y3737D01*
X8781Y3748D01*
X8856Y3779D01*
X8921Y3829D01*
X8971Y3894D01*
X8973Y3898D01*
X15750D01*
X15789Y3906D01*
X15822Y3928D01*
X16022Y4128D01*
X16044Y4161D01*
X16052Y4200D01*
Y4557D01*
X16106Y4579D01*
X16171Y4629D01*
X16221Y4694D01*
X16252Y4769D01*
X16263Y4850D01*
X16252Y4931D01*
X16221Y5006D01*
X16171Y5071D01*
X16106Y5121D01*
X16031Y5152D01*
X15950Y5163D01*
X15869Y5152D01*
X15794Y5121D01*
X15729Y5071D01*
X15679Y5006D01*
X15665Y4972D01*
X13001D01*
X12788Y5185D01*
X12802Y5219D01*
X12813Y5300D01*
X12802Y5381D01*
X12771Y5456D01*
X12721Y5521D01*
X12656Y5571D01*
X12581Y5602D01*
X12500Y5613D01*
X12419Y5602D01*
X12344Y5571D01*
X12279Y5521D01*
X12229Y5456D01*
X12198Y5381D01*
X12187Y5300D01*
X12194Y5250D01*
X12147Y5226D01*
X10872Y6501D01*
Y9515D01*
X10906Y9529D01*
X10971Y9579D01*
X11021Y9644D01*
X11052Y9719D01*
X11063Y9800D01*
X11052Y9881D01*
X11021Y9956D01*
X10971Y10021D01*
X10906Y10071D01*
X10831Y10102D01*
X10750Y10113D01*
D02*
G37*
G36*
X12500Y3613D02*
X12419Y3602D01*
X12344Y3571D01*
X12279Y3521D01*
X12229Y3456D01*
X12198Y3381D01*
X12187Y3300D01*
X12198Y3219D01*
X12229Y3144D01*
X12279Y3079D01*
X12344Y3029D01*
X12419Y2998D01*
X12500Y2987D01*
X12581Y2998D01*
X12656Y3029D01*
X12721Y3079D01*
X12766Y3137D01*
X15061D01*
X15079Y3094D01*
X15129Y3029D01*
X15194Y2979D01*
X15269Y2948D01*
X15350Y2937D01*
X15431Y2948D01*
X15506Y2979D01*
X15571Y3029D01*
X15616Y3087D01*
X16834D01*
X16879Y3029D01*
X16944Y2979D01*
X17019Y2948D01*
X17100Y2937D01*
X17181Y2948D01*
X17256Y2979D01*
X17321Y3029D01*
X17371Y3094D01*
X17402Y3169D01*
X17413Y3250D01*
X17402Y3331D01*
X17371Y3406D01*
X17321Y3471D01*
X17256Y3521D01*
X17181Y3552D01*
X17100Y3563D01*
X17019Y3552D01*
X16944Y3521D01*
X16879Y3471D01*
X16834Y3413D01*
X15616D01*
X15571Y3471D01*
X15506Y3521D01*
X15431Y3552D01*
X15350Y3563D01*
X15269Y3552D01*
X15194Y3521D01*
X15129Y3471D01*
X15123Y3463D01*
X12766D01*
X12721Y3521D01*
X12656Y3571D01*
X12581Y3602D01*
X12500Y3613D01*
D02*
G37*
G36*
X17421Y2572D02*
X17293Y2555D01*
X17173Y2506D01*
X17070Y2426D01*
X16991Y2323D01*
X16941Y2204D01*
X16924Y2075D01*
X16941Y1946D01*
X16991Y1826D01*
X17070Y1723D01*
X17173Y1644D01*
X17293Y1594D01*
X17421Y1577D01*
X17550Y1594D01*
X17670Y1644D01*
X17773Y1723D01*
X17852Y1826D01*
X17902Y1946D01*
X17919Y2075D01*
X17902Y2204D01*
X17852Y2323D01*
X17773Y2426D01*
X17670Y2506D01*
X17550Y2555D01*
X17421Y2572D01*
D02*
G37*
G36*
X10550Y15863D02*
X9950D01*
X9856Y15851D01*
X9768Y15814D01*
X9693Y15757D01*
X9636Y15682D01*
X9599Y15594D01*
X9587Y15500D01*
X9599Y15406D01*
X9636Y15318D01*
X9693Y15243D01*
X9768Y15186D01*
X9856Y15149D01*
X9950Y15137D01*
X10550D01*
X10644Y15149D01*
X10732Y15186D01*
X10807Y15243D01*
X10864Y15318D01*
X10901Y15406D01*
X10913Y15500D01*
X10901Y15594D01*
X10864Y15682D01*
X10807Y15757D01*
X10732Y15814D01*
X10644Y15851D01*
X10550Y15863D01*
D02*
G37*
G36*
X21547Y15753D02*
X21419Y15736D01*
X21299Y15687D01*
X21196Y15608D01*
X21117Y15505D01*
X21067Y15385D01*
X21050Y15256D01*
X21067Y15127D01*
X21117Y15007D01*
X21196Y14904D01*
X21299Y14825D01*
X21419Y14776D01*
X21547Y14759D01*
X21676Y14776D01*
X21796Y14825D01*
X21899Y14904D01*
X21978Y15007D01*
X22028Y15127D01*
X22045Y15256D01*
X22028Y15385D01*
X21978Y15505D01*
X21899Y15608D01*
X21796Y15687D01*
X21676Y15736D01*
X21547Y15753D01*
D02*
G37*
G36*
X19253Y15316D02*
X18542D01*
Y14605D01*
X19253D01*
Y15316D01*
D02*
G37*
G36*
X15894Y17419D02*
X15765Y17402D01*
X15645Y17352D01*
X15542Y17273D01*
X15463Y17170D01*
X15413Y17050D01*
X15396Y16921D01*
X15413Y16793D01*
X15463Y16673D01*
X15467Y16667D01*
X14672Y15872D01*
X13335D01*
X13321Y15906D01*
X13271Y15971D01*
X13206Y16021D01*
X13131Y16052D01*
X13050Y16063D01*
X12969Y16052D01*
X12894Y16021D01*
X12829Y15971D01*
X12779Y15906D01*
X12748Y15831D01*
X12737Y15750D01*
X12748Y15669D01*
X12779Y15594D01*
X12829Y15529D01*
X12894Y15479D01*
X12969Y15448D01*
X13050Y15437D01*
X13131Y15448D01*
X13206Y15479D01*
X13271Y15529D01*
X13321Y15594D01*
X13335Y15628D01*
X14722D01*
X14769Y15637D01*
X14809Y15663D01*
X15640Y16494D01*
X15645Y16491D01*
X15765Y16441D01*
X15894Y16424D01*
X16022Y16441D01*
X16142Y16491D01*
X16245Y16570D01*
X16324Y16673D01*
X16374Y16793D01*
X16391Y16921D01*
X16374Y17050D01*
X16324Y17170D01*
X16245Y17273D01*
X16142Y17352D01*
X16022Y17402D01*
X15894Y17419D01*
D02*
G37*
G36*
X14394D02*
X14265Y17402D01*
X14145Y17352D01*
X14042Y17273D01*
X13963Y17170D01*
X13913Y17050D01*
X13896Y16921D01*
X13913Y16793D01*
X13963Y16673D01*
X14042Y16570D01*
X14145Y16491D01*
X14265Y16441D01*
X14394Y16424D01*
X14522Y16441D01*
X14642Y16491D01*
X14745Y16570D01*
X14824Y16673D01*
X14874Y16793D01*
X14891Y16921D01*
X14874Y17050D01*
X14824Y17170D01*
X14745Y17273D01*
X14642Y17352D01*
X14522Y17402D01*
X14394Y17419D01*
D02*
G37*
G36*
X1900Y16858D02*
X1807Y16846D01*
X1721Y16810D01*
X1647Y16753D01*
X1590Y16679D01*
X1554Y16593D01*
X1542Y16500D01*
X1554Y16407D01*
X1590Y16321D01*
X1647Y16247D01*
X1721Y16190D01*
X1807Y16154D01*
X1900Y16142D01*
X1993Y16154D01*
X2079Y16190D01*
X2153Y16247D01*
X2210Y16321D01*
X2246Y16407D01*
X2258Y16500D01*
X2246Y16593D01*
X2210Y16679D01*
X2153Y16753D01*
X2079Y16810D01*
X1993Y16846D01*
X1900Y16858D01*
D02*
G37*
G36*
Y15858D02*
X1807Y15846D01*
X1721Y15810D01*
X1647Y15753D01*
X1590Y15679D01*
X1554Y15593D01*
X1542Y15500D01*
X1554Y15407D01*
X1590Y15321D01*
X1647Y15247D01*
X1721Y15190D01*
X1807Y15154D01*
X1900Y15142D01*
X1993Y15154D01*
X2079Y15190D01*
X2153Y15247D01*
X2210Y15321D01*
X2242Y15398D01*
X2508D01*
X3121Y14785D01*
X3098Y14731D01*
X3087Y14650D01*
X3098Y14569D01*
X3129Y14494D01*
X3179Y14429D01*
X3244Y14379D01*
X3319Y14348D01*
X3400Y14337D01*
X3481Y14348D01*
X3556Y14379D01*
X3621Y14429D01*
X3671Y14494D01*
X3702Y14569D01*
X3713Y14650D01*
X3702Y14731D01*
X3671Y14806D01*
X3621Y14871D01*
X3556Y14921D01*
X3481Y14952D01*
X3400Y14963D01*
X3319Y14952D01*
X3265Y14929D01*
X2622Y15572D01*
X2589Y15594D01*
X2550Y15602D01*
X2242D01*
X2210Y15679D01*
X2153Y15753D01*
X2079Y15810D01*
X1993Y15846D01*
X1900Y15858D01*
D02*
G37*
G36*
X21547Y12753D02*
X21419Y12736D01*
X21299Y12687D01*
X21196Y12608D01*
X21117Y12505D01*
X21067Y12385D01*
X21050Y12256D01*
X21067Y12127D01*
X21117Y12007D01*
X21196Y11904D01*
X21299Y11825D01*
X21419Y11776D01*
X21547Y11759D01*
X21676Y11776D01*
X21796Y11825D01*
X21899Y11904D01*
X21978Y12007D01*
X22028Y12127D01*
X22045Y12256D01*
X22028Y12385D01*
X21978Y12505D01*
X21899Y12608D01*
X21796Y12687D01*
X21676Y12736D01*
X21547Y12753D01*
D02*
G37*
G36*
Y11253D02*
X21419Y11236D01*
X21299Y11187D01*
X21196Y11108D01*
X21117Y11005D01*
X21067Y10885D01*
X21050Y10756D01*
X21067Y10627D01*
X21117Y10507D01*
X21196Y10404D01*
X21299Y10325D01*
X21419Y10276D01*
X21547Y10259D01*
X21676Y10276D01*
X21796Y10325D01*
X21899Y10404D01*
X21978Y10507D01*
X22028Y10627D01*
X22045Y10756D01*
X22028Y10885D01*
X21978Y11005D01*
X21899Y11108D01*
X21796Y11187D01*
X21676Y11236D01*
X21547Y11253D01*
D02*
G37*
G36*
X18898Y10398D02*
X18805Y10386D01*
X18718Y10350D01*
X18644Y10293D01*
X18587Y10219D01*
X18552Y10132D01*
X18539Y10039D01*
X18552Y9947D01*
X18587Y9860D01*
X18644Y9786D01*
X18718Y9729D01*
X18805Y9693D01*
X18898Y9681D01*
X18990Y9693D01*
X19077Y9729D01*
X19151Y9786D01*
X19208Y9860D01*
X19244Y9947D01*
X19256Y10039D01*
X19244Y10132D01*
X19208Y10219D01*
X19151Y10293D01*
X19077Y10350D01*
X18990Y10386D01*
X18898Y10398D01*
D02*
G37*
G36*
X1900Y14858D02*
X1807Y14846D01*
X1721Y14810D01*
X1647Y14753D01*
X1590Y14679D01*
X1554Y14593D01*
X1542Y14500D01*
X1554Y14407D01*
X1590Y14321D01*
X1647Y14247D01*
X1721Y14190D01*
X1807Y14154D01*
X1900Y14142D01*
X1993Y14154D01*
X2079Y14190D01*
X2153Y14247D01*
X2210Y14321D01*
X2246Y14407D01*
X2258Y14500D01*
X2246Y14593D01*
X2210Y14679D01*
X2153Y14753D01*
X2079Y14810D01*
X1993Y14846D01*
X1900Y14858D01*
D02*
G37*
G36*
X18898Y14335D02*
X18805Y14323D01*
X18718Y14287D01*
X18644Y14230D01*
X18587Y14156D01*
X18552Y14069D01*
X18539Y13976D01*
X18552Y13884D01*
X18587Y13797D01*
X18644Y13723D01*
X18718Y13666D01*
X18805Y13630D01*
X18898Y13618D01*
X18990Y13630D01*
X19077Y13666D01*
X19151Y13723D01*
X19208Y13797D01*
X19244Y13884D01*
X19256Y13976D01*
X19244Y14069D01*
X19208Y14156D01*
X19151Y14230D01*
X19077Y14287D01*
X18990Y14323D01*
X18898Y14335D01*
D02*
G37*
G36*
X21547Y14253D02*
X21419Y14236D01*
X21299Y14187D01*
X21196Y14108D01*
X21117Y14005D01*
X21067Y13885D01*
X21050Y13756D01*
X21067Y13627D01*
X21117Y13507D01*
X21196Y13404D01*
X21299Y13325D01*
X21419Y13276D01*
X21547Y13259D01*
X21676Y13276D01*
X21796Y13325D01*
X21899Y13404D01*
X21978Y13507D01*
X22028Y13627D01*
X22045Y13756D01*
X22028Y13885D01*
X21978Y14005D01*
X21899Y14108D01*
X21796Y14187D01*
X21676Y14236D01*
X21547Y14253D01*
D02*
G37*
%LPD*%
D24*
X10750Y6450D02*
Y9800D01*
Y6450D02*
X12850Y4350D01*
X15350D01*
X13050Y15750D02*
X14722D01*
X15894Y16921D01*
X18870Y11980D02*
X18898Y12008D01*
X18171Y11750D02*
X18898Y11024D01*
X13576Y11750D02*
X18171D01*
X12820Y11980D02*
X18870D01*
X12745Y11800D02*
X13526D01*
X13576Y11750D01*
X12150Y12650D02*
X12820Y11980D01*
X12050Y12650D02*
X12150D01*
X12500Y5300D02*
X12950Y4850D01*
X15950D01*
X11650Y12527D02*
Y13450D01*
Y12527D02*
X12097Y12080D01*
X12465D01*
X12745Y11800D01*
D25*
X12500Y3300D02*
X15300D01*
X15350Y3250D01*
X10250Y14500D02*
X12550D01*
X13450Y15400D01*
X15872D01*
X17394Y16921D01*
X15350Y3250D02*
X17100D01*
D26*
X5350Y6200D02*
X9600Y10450D01*
X1150Y6200D02*
X5350D01*
X4200Y4200D02*
X9350Y9350D01*
X1150Y4200D02*
X4200D01*
X12679Y11640D02*
X13460D01*
X14200Y10900D01*
X12621Y11500D02*
X12917D01*
X13640Y10777D01*
X13200Y12450D02*
X13350Y12600D01*
X12605Y12450D02*
X13200D01*
X12400Y12655D02*
X12605Y12450D01*
X12400Y12655D02*
Y13195D01*
X12750Y12800D02*
Y13043D01*
X11853Y13940D02*
X12750Y13043D01*
X11795Y13800D02*
X12400Y13195D01*
X8700Y12350D02*
X9450Y13100D01*
X10716D01*
X11160Y13544D01*
Y13653D01*
X11447Y13940D01*
X11853D01*
X11505Y13800D02*
X11795D01*
X11300Y13595D02*
X11505Y13800D01*
X11300Y13486D02*
Y13595D01*
X10774Y12960D02*
X11300Y13486D01*
X10760Y12960D02*
X10774D01*
X10650Y12850D02*
X10760Y12960D01*
X9950Y12850D02*
X10650D01*
X9300Y12200D02*
X9950Y12850D01*
X10250Y13500D02*
X10550D01*
X11130Y14080D01*
X12420D01*
X14150Y12350D01*
X18050D01*
X12100Y8400D02*
X12550Y8850D01*
X20350D01*
X16600Y10600D02*
X18050Y9150D01*
X12500Y7700D02*
X13500Y8700D01*
X15950Y4200D02*
Y4850D01*
X15750Y4000D02*
X15950Y4200D01*
X8700Y4050D02*
X8750Y4000D01*
X15750D01*
X20350Y8850D02*
X20550Y8650D01*
X13500Y8700D02*
X19700D01*
X18050Y9150D02*
X20700D01*
X20950Y9400D01*
X20550Y8650D02*
X20800D01*
X19700Y8700D02*
X20100Y8300D01*
X20200D01*
X9600Y10450D02*
X11700D01*
X13150Y9000D01*
X21350D01*
X7250Y12800D02*
Y13600D01*
X7300Y13650D01*
X6750Y13100D02*
Y13400D01*
X8250Y12305D02*
Y12950D01*
X9445Y11850D02*
X9515Y11920D01*
X7600Y12757D02*
Y13150D01*
X9503Y11710D02*
X9573Y11780D01*
X9561Y11570D02*
X9631Y11640D01*
X6750Y13100D02*
X8420Y11430D01*
X9935D01*
X10005Y11500D01*
X7250Y12800D02*
X8480Y11570D01*
X9561D01*
X7600Y12757D02*
X8647Y11710D01*
X9503D01*
X8250Y12305D02*
X8705Y11850D01*
X9445D01*
X10005Y11500D02*
X11950D01*
X12300Y11150D01*
Y10700D02*
Y11150D01*
X9515Y11920D02*
X12399D01*
X12679Y11640D01*
X9573Y11780D02*
X12341D01*
X12621Y11500D01*
X9631Y11640D02*
X12010D01*
X12900Y10750D01*
X2550Y15500D02*
X3400Y14650D01*
X1900Y15500D02*
X2550D01*
D27*
X900Y11500D02*
X1900D01*
X900Y10500D02*
X1900D01*
Y11500D01*
X4058D01*
X7058Y14500D01*
X10250D01*
D30*
X18500Y5500D02*
D03*
D31*
X18898Y10039D02*
D03*
Y11024D02*
D03*
Y12008D02*
D03*
Y12992D02*
D03*
Y13976D02*
D03*
X1900Y10500D02*
D03*
X900D02*
D03*
X1900Y11500D02*
D03*
X900D02*
D03*
X1900Y12500D02*
D03*
X900D02*
D03*
X1900Y13500D02*
D03*
X900D02*
D03*
X1900Y14500D02*
D03*
X900D02*
D03*
X1900Y15500D02*
D03*
X900D02*
D03*
X1900Y16500D02*
D03*
D32*
X18898Y14961D02*
D03*
X900Y16500D02*
D03*
D33*
X3937Y17323D02*
D03*
Y1575D02*
D03*
X19685Y17323D02*
D03*
Y1575D02*
D03*
D34*
X21547Y10756D02*
D03*
Y12256D02*
D03*
Y13756D02*
D03*
Y15256D02*
D03*
X12921Y2075D02*
D03*
X14421D02*
D03*
X15921D02*
D03*
X17421D02*
D03*
X21547Y3669D02*
D03*
Y5169D02*
D03*
Y6669D02*
D03*
Y8169D02*
D03*
X17394Y16921D02*
D03*
X15894D02*
D03*
X14394D02*
D03*
X12894D02*
D03*
D35*
X1150Y4200D02*
D03*
Y5200D02*
D03*
Y6200D02*
D03*
Y7200D02*
D03*
Y8200D02*
D03*
Y9200D02*
D03*
D36*
X10250Y15500D02*
D03*
Y14500D02*
D03*
Y13500D02*
D03*
D37*
X12500Y3300D02*
D03*
X10750Y9800D02*
D03*
X10150Y11150D02*
D03*
X11650Y13450D02*
D03*
X12500Y5300D02*
D03*
X12100Y8400D02*
D03*
X12500Y7700D02*
D03*
X21350Y9000D02*
D03*
X16600Y10600D02*
D03*
X20950Y9400D02*
D03*
X15950Y4850D02*
D03*
X15350Y4350D02*
D03*
Y3250D02*
D03*
X14650Y14800D02*
D03*
X13050Y15750D02*
D03*
X7650Y10150D02*
D03*
X9250Y6100D02*
D03*
X13850Y7100D02*
D03*
X9350Y9350D02*
D03*
X14200Y10900D02*
D03*
X13640Y10777D02*
D03*
X7600Y13150D02*
D03*
X15600Y8200D02*
D03*
X18050Y12350D02*
D03*
X9300Y12200D02*
D03*
X8700Y12350D02*
D03*
X8250Y12950D02*
D03*
X12750Y12800D02*
D03*
X13350Y12600D02*
D03*
X12050Y12650D02*
D03*
X8700Y4050D02*
D03*
X20800Y8650D02*
D03*
X20200Y8300D02*
D03*
X12150Y10000D02*
D03*
X6750Y13400D02*
D03*
X7300Y13650D02*
D03*
X12900Y10750D02*
D03*
X12300Y10700D02*
D03*
X17100Y3250D02*
D03*
X4150Y15650D02*
D03*
X3400Y14650D02*
D03*
M02*
