%FSLAX24Y24*%
%MOIN*%
G70*
G01*
G75*
G04 Layer_Color=65535*
%ADD10R,0.0512X0.0591*%
%ADD11R,0.0453X0.0118*%
%ADD12R,0.0709X0.0512*%
%ADD13R,0.0551X0.0472*%
%ADD14R,0.0591X0.0512*%
G04:AMPARAMS|DCode=15|XSize=33.5mil|YSize=15.7mil|CornerRadius=0mil|HoleSize=0mil|Usage=FLASHONLY|Rotation=225.000|XOffset=0mil|YOffset=0mil|HoleType=Round|Shape=Rectangle|*
%AMROTATEDRECTD15*
4,1,4,0.0063,0.0174,0.0174,0.0063,-0.0063,-0.0174,-0.0174,-0.0063,0.0063,0.0174,0.0*
%
%ADD15ROTATEDRECTD15*%

%ADD16O,0.0098X0.0610*%
%ADD17O,0.0610X0.0098*%
%ADD18R,0.1000X0.0600*%
%ADD19R,0.0600X0.1000*%
%ADD20R,0.0906X0.0906*%
%ADD21R,0.0472X0.0551*%
%ADD22R,0.0591X0.0236*%
%ADD23R,0.0512X0.0709*%
%ADD24C,0.0120*%
%ADD25C,0.0200*%
%ADD26C,0.0080*%
%ADD27C,0.0500*%
%ADD28C,0.0250*%
%ADD29C,0.0400*%
%ADD30R,0.1260X0.2756*%
%ADD31C,0.0591*%
%ADD32R,0.0591X0.0591*%
%ADD33C,0.2362*%
%ADD34C,0.0866*%
%ADD35C,0.0630*%
%ADD36O,0.1200X0.0600*%
%ADD37C,0.0500*%
%ADD38C,0.0098*%
%ADD39C,0.0079*%
%ADD40C,0.0236*%
%ADD41C,0.0100*%
G36*
X20600Y14500D02*
X19650Y15000D01*
X20600Y15600D01*
Y14500D01*
D02*
G37*
D24*
X0Y0D02*
Y18898D01*
Y0D02*
X23622D01*
Y18898D01*
X0D02*
X23622D01*
X24720Y9806D02*
Y10256D01*
Y10556D02*
Y11006D01*
Y11306D02*
Y11756D01*
Y12056D02*
Y12506D01*
Y12806D02*
Y13256D01*
Y13556D02*
Y14006D01*
Y14306D02*
Y14756D01*
Y15056D02*
Y15506D01*
Y15756D02*
Y16206D01*
X11971Y-1098D02*
X12421D01*
X12721D02*
X13171D01*
X13471D02*
X13921D01*
X14221D02*
X14671D01*
X14971D02*
X15421D01*
X15721D02*
X16171D01*
X16471D02*
X16921D01*
X17221D02*
X17671D01*
X17921D02*
X18371D01*
X24720Y2719D02*
Y3169D01*
Y3469D02*
Y3919D01*
Y4219D02*
Y4669D01*
Y4969D02*
Y5419D01*
Y5719D02*
Y6169D01*
Y6469D02*
Y6919D01*
Y7219D02*
Y7669D01*
Y7969D02*
Y8419D01*
Y8669D02*
Y9119D01*
X17894Y20094D02*
X18344D01*
X17144D02*
X17594D01*
X16394D02*
X16844D01*
X15644D02*
X16094D01*
X14894D02*
X15344D01*
X14144D02*
X14594D01*
X13394D02*
X13844D01*
X12644D02*
X13094D01*
X11944D02*
X12394D01*
D26*
X600Y17400D02*
Y17233D01*
Y17317D01*
X1100D01*
X1017Y17400D01*
D29*
X9800Y2900D02*
G03*
X9800Y2900I-250J0D01*
G01*
X4700Y9750D02*
G03*
X4700Y9750I-250J0D01*
G01*
D38*
X19642Y3817D02*
G03*
X19642Y3817I-49J0D01*
G01*
X15390Y13470D02*
G03*
X15390Y13470I-49J0D01*
G01*
X16475Y9259D02*
G03*
X16475Y9259I-49J0D01*
G01*
D39*
X18703Y3827D02*
G03*
X18297Y3827I-203J0D01*
G01*
X18703D02*
X19287D01*
X17713D02*
X18297D01*
X17713Y7173D02*
X19287D01*
Y3827D02*
Y7173D01*
X17713Y3827D02*
Y7173D01*
X17565Y11593D02*
Y11907D01*
X16935Y11593D02*
Y11907D01*
X19390Y9547D02*
Y15461D01*
X18398D02*
X19390D01*
X18398Y9547D02*
Y15461D01*
X17514Y14750D02*
X17986D01*
X16514D02*
X16986D01*
X10964Y7400D02*
X11436D01*
X12064Y15400D02*
X12536D01*
X11886Y13008D02*
X15311D01*
X11886Y9583D02*
X15311D01*
Y13008D01*
X11886Y9583D02*
Y13008D01*
X400Y10000D02*
Y17000D01*
X2400Y10000D02*
Y17000D01*
X400D02*
X2400D01*
X400Y10000D02*
X2400D01*
X10396Y16790D02*
Y18010D01*
X7286Y17833D02*
X7463Y18010D01*
X7286Y16967D02*
X7463Y16790D01*
X7286Y16967D02*
Y17833D01*
X9372Y18010D02*
X10396D01*
X9372Y16790D02*
X10396D01*
X7463D02*
X8428D01*
X7463Y18010D02*
X8428D01*
X11314Y15400D02*
X11786D01*
X14150Y15464D02*
Y15936D01*
X17100Y9464D02*
Y9936D01*
X17076Y7959D02*
Y8274D01*
X16879Y7959D02*
X17076D01*
Y8826D02*
Y9141D01*
X16879D02*
X17076D01*
X15550Y7314D02*
Y7786D01*
Y6414D02*
Y6886D01*
X13750Y5214D02*
Y5686D01*
X11500Y3364D02*
Y3836D01*
X10300Y8564D02*
Y9036D01*
X18193Y3565D02*
X18507D01*
X18193Y2935D02*
X18507D01*
D40*
X15035Y12614D02*
G03*
X15035Y12614I-118J0D01*
G01*
D41*
X18398Y9547D02*
X19390D01*
X3754Y15396D02*
X3789Y15361D01*
X3274Y14846D02*
X3789Y15361D01*
X3239Y14881D02*
X3274Y14846D01*
X3142Y15994D02*
X3177Y15959D01*
X2627Y15479D02*
X3142Y15994D01*
X2627Y15479D02*
X2662Y15444D01*
X3406Y15396D02*
X3615Y15187D01*
X3351Y15340D02*
X3406Y15396D01*
X3351Y15340D02*
X3560Y15131D01*
X3580Y15222D02*
X3754Y15396D01*
X21161Y9806D02*
X23524D01*
X21161D02*
Y16206D01*
X23524D01*
X11971Y98D02*
Y2461D01*
X18371D01*
Y98D02*
Y2461D01*
X21161Y2719D02*
X23524D01*
X21161D02*
Y9119D01*
X23524D01*
X18344Y16535D02*
Y18898D01*
X11944Y16535D02*
X18344D01*
X11944D02*
Y18898D01*
X9150Y4100D02*
Y8100D01*
X8150Y3100D02*
X9150Y4100D01*
X4650Y3100D02*
X8150D01*
X4650D02*
Y8100D01*
X9150D01*
X5650Y10150D02*
X9650D01*
X4650Y11150D02*
X5650Y10150D01*
X4650Y11150D02*
Y14650D01*
X9650D01*
Y10150D02*
Y14650D01*
X19800Y3700D02*
Y3200D01*
X19900Y3100D01*
X20100D01*
X20200Y3200D01*
Y3700D01*
X20400Y3600D02*
X20500Y3700D01*
X20700D01*
X20800Y3600D01*
Y3500D01*
X20700Y3400D01*
X20600D01*
X20700D01*
X20800Y3300D01*
Y3200D01*
X20700Y3100D01*
X20500D01*
X20400Y3200D01*
X2676Y13624D02*
X3029Y13271D01*
X3171D01*
X3312Y13412D01*
Y13553D01*
X2959Y13907D01*
X3807D02*
X3524Y13624D01*
Y14190D01*
X3453Y14260D01*
X3312D01*
X3171Y14119D01*
Y13978D01*
X15600Y13900D02*
Y13400D01*
X15700Y13300D01*
X15900D01*
X16000Y13400D01*
Y13900D01*
X16200Y13300D02*
X16400D01*
X16300D01*
Y13900D01*
X16200Y13800D01*
X11700Y6750D02*
Y7350D01*
X12000D01*
X12100Y7250D01*
Y7050D01*
X12000Y6950D01*
X11700D01*
X11900D02*
X12100Y6750D01*
X12300Y6850D02*
X12400Y6750D01*
X12600D01*
X12700Y6850D01*
Y7250D01*
X12600Y7350D01*
X12400D01*
X12300Y7250D01*
Y7150D01*
X12400Y7050D01*
X12700D01*
X11750Y14000D02*
Y14600D01*
X12050D01*
X12150Y14500D01*
Y14300D01*
X12050Y14200D01*
X11750D01*
X11950D02*
X12150Y14000D01*
X12350Y14500D02*
X12450Y14600D01*
X12650D01*
X12750Y14500D01*
Y14400D01*
X12650Y14300D01*
X12750Y14200D01*
Y14100D01*
X12650Y14000D01*
X12450D01*
X12350Y14100D01*
Y14200D01*
X12450Y14300D01*
X12350Y14400D01*
Y14500D01*
X12450Y14300D02*
X12650D01*
X16050Y15550D02*
Y16150D01*
X16350D01*
X16450Y16050D01*
Y15850D01*
X16350Y15750D01*
X16050D01*
X16250D02*
X16450Y15550D01*
X17050D02*
X16650D01*
X17050Y15950D01*
Y16050D01*
X16950Y16150D01*
X16750D01*
X16650Y16050D01*
X17250Y15600D02*
Y16200D01*
X17550D01*
X17650Y16100D01*
Y15900D01*
X17550Y15800D01*
X17250D01*
X17450D02*
X17650Y15600D01*
X17850D02*
X18050D01*
X17950D01*
Y16200D01*
X17850Y16100D01*
X21170Y16570D02*
Y17170D01*
X21470D01*
X21570Y17070D01*
Y16870D01*
X21470Y16770D01*
X21170D01*
X21770Y17170D02*
X22170D01*
Y17070D01*
X21770Y16670D01*
Y16570D01*
X13300Y2850D02*
Y3450D01*
X13600D01*
X13700Y3350D01*
Y3150D01*
X13600Y3050D01*
X13300D01*
X14300Y3450D02*
X14100Y3350D01*
X13900Y3150D01*
Y2950D01*
X14000Y2850D01*
X14200D01*
X14300Y2950D01*
Y3050D01*
X14200Y3150D01*
X13900D01*
X21500Y1850D02*
Y2450D01*
X21800D01*
X21900Y2350D01*
Y2150D01*
X21800Y2050D01*
X21500D01*
X22400Y1850D02*
Y2450D01*
X22100Y2150D01*
X22500D01*
X10700Y17750D02*
Y18350D01*
X11000D01*
X11100Y18250D01*
Y18050D01*
X11000Y17950D01*
X10700D01*
X11300Y18250D02*
X11400Y18350D01*
X11600D01*
X11700Y18250D01*
Y18150D01*
X11600Y18050D01*
X11500D01*
X11600D01*
X11700Y17950D01*
Y17850D01*
X11600Y17750D01*
X11400D01*
X11300Y17850D01*
X18450Y15600D02*
Y16200D01*
X18750D01*
X18850Y16100D01*
Y15900D01*
X18750Y15800D01*
X18450D01*
X19050Y15600D02*
X19250D01*
X19150D01*
Y16200D01*
X19050Y16100D01*
X14600Y14400D02*
X14500Y14500D01*
X14300D01*
X14200Y14400D01*
Y14000D01*
X14300Y13900D01*
X14500D01*
X14600Y14000D01*
X15200Y14500D02*
X14800D01*
Y14200D01*
X15000Y14300D01*
X15100D01*
X15200Y14200D01*
Y14000D01*
X15100Y13900D01*
X14900D01*
X14800Y14000D01*
X14600Y8450D02*
X14500Y8550D01*
X14300D01*
X14200Y8450D01*
Y8050D01*
X14300Y7950D01*
X14500D01*
X14600Y8050D01*
X15100Y7950D02*
Y8550D01*
X14800Y8250D01*
X15200D01*
X10000Y10200D02*
X9900Y10100D01*
Y9900D01*
X10000Y9800D01*
X10400D01*
X10500Y9900D01*
Y10100D01*
X10400Y10200D01*
X10000Y10400D02*
X9900Y10500D01*
Y10700D01*
X10000Y10800D01*
X10100D01*
X10200Y10700D01*
Y10600D01*
Y10700D01*
X10300Y10800D01*
X10400D01*
X10500Y10700D01*
Y10500D01*
X10400Y10400D01*
X17300Y13400D02*
X17200Y13500D01*
X17000D01*
X16900Y13400D01*
Y13000D01*
X17000Y12900D01*
X17200D01*
X17300Y13000D01*
X17500Y12900D02*
X17700D01*
X17600D01*
Y13500D01*
X17500Y13400D01*
X12650Y4650D02*
X12550Y4750D01*
X12350D01*
X12250Y4650D01*
Y4250D01*
X12350Y4150D01*
X12550D01*
X12650Y4250D01*
X13250Y4150D02*
X12850D01*
X13250Y4550D01*
Y4650D01*
X13150Y4750D01*
X12950D01*
X12850Y4650D01*
X12400Y6450D02*
X12300Y6550D01*
X12100D01*
X12000Y6450D01*
Y6050D01*
X12100Y5950D01*
X12300D01*
X12400Y6050D01*
X13000Y6550D02*
X12800Y6450D01*
X12600Y6250D01*
Y6050D01*
X12700Y5950D01*
X12900D01*
X13000Y6050D01*
Y6150D01*
X12900Y6250D01*
X12600D01*
X6300Y17450D02*
Y16850D01*
X6600D01*
X6700Y16950D01*
Y17350D01*
X6600Y17450D01*
X6300D01*
X6900Y16850D02*
X7100D01*
X7000D01*
Y17450D01*
X6900Y17350D01*
X1400Y17450D02*
Y18050D01*
X1700D01*
X1800Y17950D01*
Y17750D01*
X1700Y17650D01*
X1400D01*
X2400Y17450D02*
X2000D01*
X2400Y17850D01*
Y17950D01*
X2300Y18050D01*
X2100D01*
X2000Y17950D01*
X18050Y8550D02*
Y8950D01*
X17950Y9050D01*
X17750D01*
X17650Y8950D01*
Y8550D01*
X17750Y8450D01*
X17950D01*
X17850Y8650D02*
X18050Y8450D01*
X17950D02*
X18050Y8550D01*
X18650Y8450D02*
X18250D01*
X18650Y8850D01*
Y8950D01*
X18550Y9050D01*
X18350D01*
X18250Y8950D01*
X15500Y5600D02*
Y6200D01*
X15800D01*
X15900Y6100D01*
Y5900D01*
X15800Y5800D01*
X15500D01*
X15700D02*
X15900Y5600D01*
X16100Y6100D02*
X16200Y6200D01*
X16400D01*
X16500Y6100D01*
Y6000D01*
X16400Y5900D01*
X16300D01*
X16400D01*
X16500Y5800D01*
Y5700D01*
X16400Y5600D01*
X16200D01*
X16100Y5700D01*
X16400Y7300D02*
Y7900D01*
X16700D01*
X16800Y7800D01*
Y7600D01*
X16700Y7500D01*
X16400D01*
X16600D02*
X16800Y7300D01*
X17300D02*
Y7900D01*
X17000Y7600D01*
X17400D01*
X14850Y15200D02*
Y15800D01*
X15150D01*
X15250Y15700D01*
Y15500D01*
X15150Y15400D01*
X14850D01*
X15050D02*
X15250Y15200D01*
X15850Y15800D02*
X15450D01*
Y15500D01*
X15650Y15600D01*
X15750D01*
X15850Y15500D01*
Y15300D01*
X15750Y15200D01*
X15550D01*
X15450Y15300D01*
X10650Y16250D02*
Y16850D01*
X10950D01*
X11050Y16750D01*
Y16550D01*
X10950Y16450D01*
X10650D01*
X10850D02*
X11050Y16250D01*
X11650Y16850D02*
X11450Y16750D01*
X11250Y16550D01*
Y16350D01*
X11350Y16250D01*
X11550D01*
X11650Y16350D01*
Y16450D01*
X11550Y16550D01*
X11250D01*
X17350Y10100D02*
Y10700D01*
X17650D01*
X17750Y10600D01*
Y10400D01*
X17650Y10300D01*
X17350D01*
X17550D02*
X17750Y10100D01*
X17950Y10700D02*
X18350D01*
Y10600D01*
X17950Y10200D01*
Y10100D01*
X10550Y2550D02*
Y3150D01*
X10850D01*
X10950Y3050D01*
Y2850D01*
X10850Y2750D01*
X10550D01*
X10750D02*
X10950Y2550D01*
X11150D02*
X11350D01*
X11250D01*
Y3150D01*
X11150Y3050D01*
X11650D02*
X11750Y3150D01*
X11950D01*
X12050Y3050D01*
Y2650D01*
X11950Y2550D01*
X11750D01*
X11650Y2650D01*
Y3050D01*
X13600Y4400D02*
Y5000D01*
X13900D01*
X14000Y4900D01*
Y4700D01*
X13900Y4600D01*
X13600D01*
X13800D02*
X14000Y4400D01*
X14200D02*
X14400D01*
X14300D01*
Y5000D01*
X14200Y4900D01*
X14700Y4400D02*
X14900D01*
X14800D01*
Y5000D01*
X14700Y4900D01*
X9300Y7800D02*
Y8400D01*
X9600D01*
X9700Y8300D01*
Y8100D01*
X9600Y8000D01*
X9300D01*
X9500D02*
X9700Y7800D01*
X9900D02*
X10100D01*
X10000D01*
Y8400D01*
X9900Y8300D01*
X10800Y7800D02*
X10400D01*
X10800Y8200D01*
Y8300D01*
X10700Y8400D01*
X10500D01*
X10400Y8300D01*
X7850Y2900D02*
Y2400D01*
X7950Y2300D01*
X8150D01*
X8250Y2400D01*
Y2900D01*
X8750Y2300D02*
Y2900D01*
X8450Y2600D01*
X8850D01*
X3450Y11050D02*
Y10550D01*
X3550Y10450D01*
X3750D01*
X3850Y10550D01*
Y11050D01*
X4450D02*
X4050D01*
Y10750D01*
X4250Y10850D01*
X4350D01*
X4450Y10750D01*
Y10550D01*
X4350Y10450D01*
X4150D01*
X4050Y10550D01*
X3200Y9100D02*
X3100Y9200D01*
X2900D01*
X2800Y9100D01*
Y8700D01*
X2900Y8600D01*
X3100D01*
X3200Y8700D01*
X3400Y9200D02*
X3800D01*
Y9100D01*
X3400Y8700D01*
Y8600D01*
X8300Y5800D02*
X8200Y5700D01*
Y5500D01*
X8300Y5400D01*
X8700D01*
X8800Y5500D01*
Y5700D01*
X8700Y5800D01*
X8300Y6000D02*
X8200Y6100D01*
Y6300D01*
X8300Y6400D01*
X8400D01*
X8500Y6300D01*
X8600Y6400D01*
X8700D01*
X8800Y6300D01*
Y6100D01*
X8700Y6000D01*
X8600D01*
X8500Y6100D01*
X8400Y6000D01*
X8300D01*
X8500Y6100D02*
Y6300D01*
X16350Y4050D02*
X16250Y4150D01*
X16050D01*
X15950Y4050D01*
Y3650D01*
X16050Y3550D01*
X16250D01*
X16350Y3650D01*
X16550D02*
X16650Y3550D01*
X16850D01*
X16950Y3650D01*
Y4050D01*
X16850Y4150D01*
X16650D01*
X16550Y4050D01*
Y3950D01*
X16650Y3850D01*
X16950D01*
M02*
