%FSLAX23Y23*%
%MOIN*%
G70*
G01*
G75*
G04 Layer_Color=65535*
%ADD10C,0.013*%
%ADD11R,0.024X0.080*%
%ADD12O,0.024X0.080*%
%ADD13R,0.039X0.071*%
%ADD14R,0.057X0.035*%
%ADD15R,0.035X0.057*%
%ADD16R,0.036X0.036*%
%ADD17R,0.060X0.052*%
%ADD18O,0.030X0.020*%
%ADD19O,0.030X0.059*%
%ADD20O,0.028X0.059*%
%ADD21R,0.071X0.126*%
%ADD22R,0.036X0.050*%
%ADD23R,0.050X0.036*%
%ADD24R,0.095X0.091*%
%ADD25R,0.071X0.039*%
%ADD26R,0.079X0.079*%
%ADD27R,0.051X0.079*%
%ADD28R,0.052X0.060*%
%ADD29O,0.059X0.028*%
%ADD30O,0.059X0.030*%
%ADD31O,0.020X0.030*%
%ADD32R,0.063X0.071*%
%ADD33O,0.013X0.055*%
%ADD34R,0.013X0.055*%
%ADD35O,0.080X0.024*%
%ADD36R,0.037X0.037*%
%ADD37R,0.033X0.037*%
%ADD38R,0.114X0.095*%
%ADD39O,0.067X0.047*%
%ADD40O,0.031X0.043*%
%ADD41O,0.047X0.067*%
%ADD42O,0.043X0.031*%
%ADD43R,0.060X0.100*%
%ADD44C,0.050*%
%ADD45R,0.060X0.060*%
%ADD46R,0.050X0.060*%
%ADD47R,0.079X0.051*%
%ADD48C,0.016*%
%ADD49C,0.024*%
%ADD50C,0.010*%
%ADD51C,0.032*%
%ADD52C,0.020*%
%ADD53C,0.008*%
%ADD54C,0.080*%
%ADD55C,0.050*%
%ADD56C,0.100*%
%ADD57C,0.040*%
%ADD58C,0.005*%
%ADD59C,0.118*%
%ADD60C,0.150*%
%ADD61C,0.060*%
%ADD62R,0.062X0.062*%
%ADD63C,0.062*%
%ADD64R,0.064X0.064*%
%ADD65C,0.064*%
%ADD66R,0.050X0.040*%
%ADD67R,0.100X0.100*%
%ADD68C,0.100*%
%ADD69C,0.047*%
%ADD70O,0.060X0.079*%
%ADD71R,0.070X0.070*%
%ADD72C,0.070*%
%ADD73C,0.180*%
%ADD74C,0.022*%
%ADD75C,0.016*%
%ADD76C,0.028*%
%ADD77C,0.032*%
%ADD78R,0.071X0.063*%
%ADD79C,0.008*%
%ADD80C,0.010*%
%ADD81C,0.012*%
%ADD82C,0.004*%
D50*
X2281Y2655D02*
G03*
X2281Y2605I0J-25D01*
G01*
X1040Y1885D02*
G03*
X1040Y1935I0J25D01*
G01*
X3611Y1313D02*
G03*
X3611Y1313I0J0D01*
G01*
X3527Y1523D02*
G03*
X3527Y1523I0J0D01*
G01*
X3840Y2047D02*
G03*
X3840Y2047I-60J0D01*
G01*
Y3937D02*
G03*
X3840Y3937I-60J0D01*
G01*
Y3740D02*
G03*
X3840Y3740I-60J0D01*
G01*
Y1850D02*
G03*
X3840Y1850I-60J0D01*
G01*
Y3543D02*
G03*
X3840Y3543I-60J0D01*
G01*
Y1654D02*
G03*
X3840Y1654I-60J0D01*
G01*
Y3346D02*
G03*
X3840Y3346I-60J0D01*
G01*
Y1457D02*
G03*
X3840Y1457I-60J0D01*
G01*
Y3150D02*
G03*
X3840Y3150I-60J0D01*
G01*
Y1260D02*
G03*
X3840Y1260I-60J0D01*
G01*
Y2953D02*
G03*
X3840Y2953I-60J0D01*
G01*
Y1063D02*
G03*
X3840Y1063I-60J0D01*
G01*
Y2756D02*
G03*
X3840Y2756I-60J0D01*
G01*
Y866D02*
G03*
X3840Y866I-60J0D01*
G01*
Y2559D02*
G03*
X3840Y2559I-60J0D01*
G01*
Y669D02*
G03*
X3840Y669I-60J0D01*
G01*
Y2362D02*
G03*
X3840Y2362I-60J0D01*
G01*
Y472D02*
G03*
X3840Y472I-60J0D01*
G01*
X3105Y694D02*
G03*
X3105Y694I-35J0D01*
G01*
X3135D02*
G03*
X3135Y694I-65J0D01*
G01*
X1330Y1465D02*
G03*
X1330Y1465I-70J0D01*
G01*
X3612Y528D02*
G03*
X3612Y528I0J0D01*
G01*
Y733D02*
G03*
X3612Y733I0J0D01*
G01*
Y928D02*
G03*
X3612Y928I0J0D01*
G01*
X3611Y1133D02*
G03*
X3611Y1133I0J0D01*
G01*
X865Y1294D02*
G03*
X865Y1294I-35J0D01*
G01*
X895D02*
G03*
X895Y1294I-65J0D01*
G01*
X2287Y3530D02*
G03*
X2287Y3530I0J0D01*
G01*
X3607Y2423D02*
G03*
X3607Y2423I0J0D01*
G01*
X1992Y3530D02*
G03*
X1992Y3530I0J0D01*
G01*
X3607Y2623D02*
G03*
X3607Y2623I0J0D01*
G01*
X1630Y3399D02*
G03*
X1630Y3399I0J0D01*
G01*
X1500Y3452D02*
G03*
X1500Y3452I0J0D01*
G01*
X3607Y2823D02*
G03*
X3607Y2823I0J0D01*
G01*
X1236Y3477D02*
G03*
X1236Y3477I0J0D01*
G01*
X3607Y3023D02*
G03*
X3607Y3023I0J0D01*
G01*
Y3213D02*
G03*
X3607Y3213I0J0D01*
G01*
X3527Y3413D02*
G03*
X3527Y3413I0J0D01*
G01*
X2159Y2900D02*
G03*
X2159Y2900I-11J0D01*
G01*
X3425Y2134D02*
G03*
X3475Y2134I25J0D01*
G01*
X1171Y2854D02*
G03*
X1171Y2854I-4J0D01*
G01*
X2531Y2864D02*
G03*
X2531Y2864I-4J0D01*
G01*
X1730Y197D02*
G03*
X1730Y197I-60J0D01*
G01*
X1147Y3480D02*
G03*
X1147Y3480I0J0D01*
G01*
X633Y1382D02*
G03*
X633Y1382I0J0D01*
G01*
X1057Y3480D02*
G03*
X1057Y3480I0J0D01*
G01*
X1207Y3900D02*
G03*
X1207Y3900I0J0D01*
G01*
X645Y467D02*
G03*
X695Y467I25J0D01*
G01*
G03*
X745Y467I25J0D01*
G01*
G03*
X795Y467I25J0D01*
G01*
G03*
X845Y467I25J0D01*
G01*
X1080Y342D02*
G03*
X1080Y342I-10J0D01*
G01*
Y242D02*
G03*
X1080Y242I-10J0D01*
G01*
X845Y467D02*
G03*
X895Y467I25J0D01*
G01*
X3092Y2537D02*
G03*
X3092Y2537I-65J0D01*
G01*
X3062D02*
G03*
X3062Y2537I-35J0D01*
G01*
X2281Y2655D02*
Y2760D01*
Y2500D02*
Y2605D01*
X1581Y2500D02*
Y2760D01*
Y2500D02*
X2281D01*
X1581Y2760D02*
X2281D01*
X1040Y1860D02*
X1440D01*
X1040Y1960D02*
X1440D01*
Y1860D02*
Y1960D01*
X1040Y1935D02*
Y1960D01*
Y1860D02*
Y1885D01*
X3070Y664D02*
Y729D01*
X3035Y694D02*
X3105D01*
X2980Y604D02*
Y784D01*
X3163D01*
Y604D02*
Y784D01*
X2980Y604D02*
X3163D01*
X1210Y1515D02*
X1310D01*
X1260Y1505D02*
Y1515D01*
Y1505D02*
X1320Y1445D01*
X1200D02*
X1320D01*
X1200D02*
X1260Y1505D01*
X2980Y969D02*
Y1104D01*
X3120Y969D02*
Y1104D01*
X3100D02*
Y1174D01*
X3000Y1104D02*
Y1174D01*
Y899D02*
Y969D01*
X3100Y899D02*
Y969D01*
X2980Y1104D02*
X3120D01*
X2980Y969D02*
X3120D01*
X3080Y1104D02*
X3120Y1064D01*
X3070Y1104D02*
X3120Y1054D01*
X830Y1264D02*
Y1329D01*
X795Y1294D02*
X865D01*
X740Y1204D02*
Y1384D01*
X923D01*
Y1204D02*
Y1384D01*
X740Y1204D02*
X923D01*
X2940Y2789D02*
Y2924D01*
X3080Y2789D02*
Y2924D01*
X3060D02*
Y2994D01*
X2960Y2924D02*
Y2994D01*
Y2719D02*
Y2789D01*
X3060Y2719D02*
Y2789D01*
X2940Y2924D02*
X3080D01*
X2940Y2789D02*
X3080D01*
X3040Y2924D02*
X3080Y2884D01*
X3030Y2924D02*
X3080Y2874D01*
X3400Y1934D02*
Y2134D01*
X3500Y1934D02*
Y2134D01*
X3400Y1934D02*
X3500D01*
X3475Y2134D02*
X3500D01*
X3400D02*
X3425D01*
X5Y4001D02*
X190D01*
X5Y3951D02*
X190D01*
X5Y4071D02*
X365D01*
X366Y3583D01*
X4D02*
X5Y4071D01*
X190Y3951D02*
Y4001D01*
X5Y3801D02*
X190D01*
X5Y3851D02*
X190D01*
Y3801D02*
Y3851D01*
X5Y3651D02*
X190D01*
X5Y3701D02*
X190D01*
X5Y3581D02*
X365D01*
X190Y3651D02*
Y3701D01*
X-255Y1064D02*
X-19D01*
X-255D02*
Y2566D01*
X-19D01*
X-219Y787D02*
X-19D01*
X-219D02*
Y987D01*
X-19D01*
X-219Y2641D02*
X-19D01*
X-219D02*
Y2841D01*
X-19D01*
X-220Y822D02*
X-19D01*
X-220Y952D02*
X-20D01*
X-220Y2676D02*
X-19D01*
X-220Y2806D02*
X-20D01*
X-17Y761D02*
X-16Y2869D01*
X24Y761D02*
X567D01*
X24D02*
Y2869D01*
X-1Y2868D02*
X567D01*
X1090Y909D02*
Y1044D01*
X1230Y909D02*
Y1044D01*
X1210D02*
Y1114D01*
X1110Y1044D02*
Y1114D01*
Y839D02*
Y909D01*
X1210Y839D02*
Y909D01*
X1090Y1044D02*
X1230D01*
X1090Y909D02*
X1230D01*
X1190Y1044D02*
X1230Y1004D01*
X1180Y1044D02*
X1230Y994D01*
X595Y467D02*
X645D01*
X1070Y342D02*
Y442D01*
X1020Y317D02*
X1070Y267D01*
X970Y317D02*
X1020D01*
X1070Y192D02*
Y242D01*
X895Y467D02*
X945D01*
X470Y317D02*
X970D01*
X470Y217D02*
Y417D01*
X1170Y117D02*
Y517D01*
X370Y117D02*
X1170D01*
X370D02*
Y517D01*
X1170D01*
X2938Y2444D02*
Y2627D01*
Y2444D02*
X3118D01*
Y2627D01*
X2938D02*
X3118D01*
X3027Y2502D02*
Y2572D01*
X2997Y2537D02*
X3062D01*
X-390Y6020D02*
X-343D01*
X-367D01*
Y5950D01*
X-308D02*
X-285D01*
X-273Y5962D01*
Y5985D01*
X-285Y5997D01*
X-308D01*
X-320Y5985D01*
Y5962D01*
X-308Y5950D01*
X-250Y5927D02*
Y5997D01*
X-215D01*
X-203Y5985D01*
Y5962D01*
X-215Y5950D01*
X-250D01*
X-75Y6020D02*
X-98D01*
X-110Y6008D01*
Y5962D01*
X-98Y5950D01*
X-75D01*
X-63Y5962D01*
Y6008D01*
X-75Y6020D01*
X-40Y5997D02*
X-17Y5950D01*
X7Y5997D01*
X65Y5950D02*
X42D01*
X30Y5962D01*
Y5985D01*
X42Y5997D01*
X65D01*
X77Y5985D01*
Y5973D01*
X30D01*
X100Y5997D02*
Y5950D01*
Y5973D01*
X112Y5985D01*
X123Y5997D01*
X135D01*
X170Y5950D02*
X193D01*
X181D01*
Y6020D01*
X170D01*
X240Y5997D02*
X263D01*
X275Y5985D01*
Y5950D01*
X240D01*
X228Y5962D01*
X240Y5973D01*
X275D01*
X298Y5997D02*
Y5962D01*
X310Y5950D01*
X345D01*
Y5938D01*
X333Y5927D01*
X321D01*
X345Y5950D02*
Y5997D01*
D53*
X3548Y3301D02*
Y3391D01*
Y1412D02*
Y1502D01*
Y1609D02*
Y1699D01*
X3555Y1730D02*
Y1820D01*
X2101Y3549D02*
X2191D01*
X1955Y3940D02*
X2045D01*
X1540Y3518D02*
Y3608D01*
X1717Y3489D02*
X1807D01*
X1305Y4000D02*
X1395D01*
X865Y3702D02*
X955D01*
X3548Y3498D02*
Y3588D01*
Y3695D02*
Y3785D01*
X-17Y761D02*
X567D01*
Y2324D01*
X24Y2869D02*
X567D01*
Y761D02*
Y2869D01*
X433Y3717D02*
Y4032D01*
Y3717D02*
X570D01*
Y4032D01*
X433D02*
X570D01*
D58*
X3493Y3291D02*
G03*
X3493Y3291I0J0D01*
G01*
G03*
X3493Y3291I0J0D01*
G01*
Y3301D02*
G03*
X3493Y3301I0J0D01*
G01*
G03*
X3493Y3301I0J0D01*
G01*
X3668Y3306D02*
G03*
X3668Y3306I0J0D01*
G01*
G03*
X3668Y3306I0J0D01*
G01*
Y1417D02*
G03*
X3668Y1417I0J0D01*
G01*
G03*
X3668Y1417I0J0D01*
G01*
X3493Y1412D02*
G03*
X3493Y1412I0J0D01*
G01*
G03*
X3493Y1412I0J0D01*
G01*
Y1402D02*
G03*
X3493Y1402I0J0D01*
G01*
G03*
X3493Y1402I0J0D01*
G01*
X3668Y1614D02*
G03*
X3668Y1614I0J0D01*
G01*
G03*
X3668Y1614I0J0D01*
G01*
X3493Y1609D02*
G03*
X3493Y1609I0J0D01*
G01*
G03*
X3493Y1609I0J0D01*
G01*
Y1599D02*
G03*
X3493Y1599I0J0D01*
G01*
G03*
X3493Y1599I0J0D01*
G01*
X3675Y1735D02*
G03*
X3675Y1735I0J0D01*
G01*
G03*
X3675Y1735I0J0D01*
G01*
X3500Y1730D02*
G03*
X3500Y1730I0J0D01*
G01*
G03*
X3500Y1730I0J0D01*
G01*
Y1720D02*
G03*
X3500Y1720I0J0D01*
G01*
G03*
X3500Y1720I0J0D01*
G01*
X2106Y3429D02*
G03*
X2106Y3429I0J0D01*
G01*
G03*
X2106Y3429I0J0D01*
G01*
X2101Y3604D02*
G03*
X2101Y3604I0J0D01*
G01*
G03*
X2101Y3604I0J0D01*
G01*
X2091D02*
G03*
X2091Y3604I0J0D01*
G01*
G03*
X2091Y3604I0J0D01*
G01*
X2040Y4060D02*
G03*
X2040Y4060I0J0D01*
G01*
G03*
X2040Y4060I0J0D01*
G01*
X2045Y3885D02*
G03*
X2045Y3885I0J0D01*
G01*
G03*
X2045Y3885I0J0D01*
G01*
X2055D02*
G03*
X2055Y3885I0J0D01*
G01*
G03*
X2055Y3885I0J0D01*
G01*
X1660Y3523D02*
G03*
X1660Y3523I0J0D01*
G01*
G03*
X1660Y3523I0J0D01*
G01*
X1485Y3518D02*
G03*
X1485Y3518I0J0D01*
G01*
G03*
X1485Y3518I0J0D01*
G01*
Y3508D02*
G03*
X1485Y3508I0J0D01*
G01*
G03*
X1485Y3508I0J0D01*
G01*
X1802Y3609D02*
G03*
X1802Y3609I0J0D01*
G01*
G03*
X1802Y3609I0J0D01*
G01*
X1807Y3434D02*
G03*
X1807Y3434I0J0D01*
G01*
G03*
X1807Y3434I0J0D01*
G01*
X1817D02*
G03*
X1817Y3434I0J0D01*
G01*
G03*
X1817Y3434I0J0D01*
G01*
X1310Y3880D02*
G03*
X1310Y3880I0J0D01*
G01*
G03*
X1310Y3880I0J0D01*
G01*
X1305Y4055D02*
G03*
X1305Y4055I0J0D01*
G01*
G03*
X1305Y4055I0J0D01*
G01*
X1295D02*
G03*
X1295Y4055I0J0D01*
G01*
G03*
X1295Y4055I0J0D01*
G01*
X950Y3822D02*
G03*
X950Y3822I0J0D01*
G01*
G03*
X950Y3822I0J0D01*
G01*
X955Y3647D02*
G03*
X955Y3647I0J0D01*
G01*
G03*
X955Y3647I0J0D01*
G01*
X965D02*
G03*
X965Y3647I0J0D01*
G01*
G03*
X965Y3647I0J0D01*
G01*
X3668Y3503D02*
G03*
X3668Y3503I0J0D01*
G01*
G03*
X3668Y3503I0J0D01*
G01*
X3493Y3498D02*
G03*
X3493Y3498I0J0D01*
G01*
G03*
X3493Y3498I0J0D01*
G01*
Y3488D02*
G03*
X3493Y3488I0J0D01*
G01*
G03*
X3493Y3488I0J0D01*
G01*
X3668Y3700D02*
G03*
X3668Y3700I0J0D01*
G01*
G03*
X3668Y3700I0J0D01*
G01*
X3493Y3695D02*
G03*
X3493Y3695I0J0D01*
G01*
G03*
X3493Y3695I0J0D01*
G01*
Y3685D02*
G03*
X3493Y3685I0J0D01*
G01*
G03*
X3493Y3685I0J0D01*
G01*
X2174Y2848D02*
G03*
X2174Y2801I24J-24D01*
G01*
X3622Y1321D02*
Y1372D01*
X3544Y1321D02*
X3622D01*
X3544D02*
Y1372D01*
X3622D01*
X3610Y1321D02*
Y1372D01*
X3558Y1321D02*
Y1372D01*
X3605Y1338D02*
X3610Y1333D01*
X3563Y1338D02*
X3605D01*
X3559Y1334D02*
X3563Y1338D01*
X3605Y1355D02*
X3610Y1360D01*
X3563Y1355D02*
X3605D01*
X3559Y1359D02*
X3563Y1355D01*
X3493Y3401D02*
X3668D01*
X3493Y3376D02*
Y3401D01*
X3668Y3376D02*
Y3401D01*
X3493Y3291D02*
X3668D01*
X3493D02*
Y3316D01*
X3668Y3291D02*
Y3316D01*
X3538Y1531D02*
Y1582D01*
X3460Y1531D02*
X3538D01*
X3460D02*
Y1582D01*
X3538D01*
X3526Y1531D02*
Y1582D01*
X3474Y1531D02*
Y1582D01*
X3521Y1548D02*
X3526Y1543D01*
X3479Y1548D02*
X3521D01*
X3475Y1544D02*
X3479Y1548D01*
X3521Y1565D02*
X3526Y1570D01*
X3479Y1565D02*
X3521D01*
X3475Y1569D02*
X3479Y1565D01*
X3560Y574D02*
X3564Y570D01*
X3606D01*
X3611Y575D01*
X3560Y549D02*
X3564Y553D01*
X3606D01*
X3611Y548D01*
X3559Y536D02*
Y587D01*
X3611Y536D02*
Y587D01*
X3545D02*
X3623D01*
X3545Y536D02*
Y587D01*
Y536D02*
X3623D01*
Y587D01*
X3039Y502D02*
Y518D01*
X3056Y400D02*
Y526D01*
X3016Y400D02*
Y526D01*
X3245Y400D02*
Y526D01*
X3031Y510D02*
X3047D01*
X3017Y526D02*
X3245D01*
X3016Y400D02*
X3245D01*
X3461Y552D02*
Y568D01*
X3444Y544D02*
Y670D01*
X3484Y544D02*
Y670D01*
X3255Y544D02*
Y670D01*
X3453Y560D02*
X3469D01*
X3255Y544D02*
X3483D01*
X3255Y670D02*
X3484D01*
X3560Y779D02*
X3564Y775D01*
X3606D01*
X3611Y780D01*
X3560Y754D02*
X3564Y758D01*
X3606D01*
X3611Y753D01*
X3559Y741D02*
Y792D01*
X3611Y741D02*
Y792D01*
X3545D02*
X3623D01*
X3545Y741D02*
Y792D01*
Y741D02*
X3623D01*
Y792D01*
X3560Y974D02*
X3564Y970D01*
X3606D01*
X3611Y975D01*
X3560Y949D02*
X3564Y953D01*
X3606D01*
X3611Y948D01*
X3559Y936D02*
Y987D01*
X3611Y936D02*
Y987D01*
X3545D02*
X3623D01*
X3545Y936D02*
Y987D01*
Y936D02*
X3623D01*
Y987D01*
X3559Y1179D02*
X3563Y1175D01*
X3605D01*
X3610Y1180D01*
X3559Y1154D02*
X3563Y1158D01*
X3605D01*
X3610Y1153D01*
X3558Y1141D02*
Y1192D01*
X3610Y1141D02*
Y1192D01*
X3544D02*
X3622D01*
X3544Y1141D02*
Y1192D01*
Y1141D02*
X3622D01*
Y1192D01*
X3668Y1402D02*
Y1427D01*
X3493Y1402D02*
Y1427D01*
Y1402D02*
X3668D01*
Y1487D02*
Y1512D01*
X3493Y1487D02*
Y1512D01*
X3668D01*
Y1599D02*
Y1624D01*
X3493Y1599D02*
Y1624D01*
Y1599D02*
X3668D01*
Y1684D02*
Y1709D01*
X3493Y1684D02*
Y1709D01*
X3668D01*
X3675Y1720D02*
Y1745D01*
X3500Y1720D02*
Y1745D01*
Y1720D02*
X3675D01*
Y1805D02*
Y1830D01*
X3500Y1805D02*
Y1830D01*
X3675D01*
X2091Y3429D02*
X2116D01*
X2091Y3604D02*
X2116D01*
X2091Y3429D02*
Y3604D01*
X2176Y3429D02*
X2201D01*
X2176Y3604D02*
X2201D01*
Y3429D02*
Y3604D01*
X2030Y4060D02*
X2055D01*
X2030Y3885D02*
X2055D01*
Y4060D01*
X1945D02*
X1970D01*
X1945Y3885D02*
X1970D01*
X1945D02*
Y4060D01*
X2242Y3479D02*
X2246Y3483D01*
Y3525D01*
X2241Y3530D02*
X2246Y3525D01*
X2263Y3483D02*
X2267Y3479D01*
X2263Y3483D02*
Y3525D01*
X2268Y3530D01*
X2228Y3478D02*
X2280D01*
X2228Y3530D02*
X2280D01*
X2228Y3464D02*
Y3542D01*
Y3464D02*
X2280D01*
Y3542D01*
X2228D02*
X2280D01*
X3555Y2469D02*
X3559Y2465D01*
X3601D01*
X3606Y2470D01*
X3555Y2444D02*
X3559Y2448D01*
X3601D01*
X3606Y2443D01*
X3554Y2431D02*
Y2482D01*
X3606Y2431D02*
Y2482D01*
X3540D02*
X3618D01*
X3540Y2431D02*
Y2482D01*
Y2431D02*
X3618D01*
Y2482D01*
X1947Y3479D02*
X1951Y3483D01*
Y3525D01*
X1946Y3530D02*
X1951Y3525D01*
X1968Y3483D02*
X1971Y3479D01*
X1968Y3483D02*
Y3525D01*
X1972Y3530D01*
X1933Y3478D02*
X1984D01*
X1933Y3530D02*
X1984D01*
X1933Y3464D02*
Y3542D01*
Y3464D02*
X1984D01*
Y3542D01*
X1933D02*
X1984D01*
X3079Y2386D02*
Y2402D01*
X3096Y2284D02*
Y2410D01*
X3056Y2284D02*
Y2410D01*
X3285Y2284D02*
Y2410D01*
X3071Y2394D02*
X3087D01*
X3057Y2410D02*
X3285D01*
X3056Y2284D02*
X3285D01*
X3441Y2442D02*
Y2458D01*
X3424Y2434D02*
Y2560D01*
X3464Y2434D02*
Y2560D01*
X3235Y2434D02*
Y2560D01*
X3433Y2450D02*
X3449D01*
X3235Y2434D02*
X3463D01*
X3235Y2560D02*
X3464D01*
X3555Y2669D02*
X3559Y2665D01*
X3601D01*
X3606Y2670D01*
X3555Y2644D02*
X3559Y2648D01*
X3601D01*
X3606Y2643D01*
X3554Y2631D02*
Y2682D01*
X3606Y2631D02*
Y2682D01*
X3540D02*
X3618D01*
X3540Y2631D02*
Y2682D01*
Y2631D02*
X3618D01*
Y2682D01*
X1671Y3446D02*
X1675Y3450D01*
X1671Y3405D02*
Y3446D01*
Y3405D02*
X1676Y3400D01*
X1651Y3450D02*
X1655Y3446D01*
Y3405D02*
Y3446D01*
X1650Y3400D02*
X1655Y3405D01*
X1638Y3451D02*
X1689D01*
X1638Y3400D02*
X1689D01*
Y3387D02*
Y3466D01*
X1638D02*
X1689D01*
X1638Y3387D02*
Y3466D01*
Y3387D02*
X1689D01*
X1455Y3401D02*
X1459Y3405D01*
Y3446D01*
X1454Y3451D02*
X1459Y3446D01*
X1475Y3405D02*
X1479Y3401D01*
X1475Y3405D02*
Y3446D01*
X1480Y3451D01*
X1441Y3400D02*
X1492D01*
X1441Y3451D02*
X1492D01*
X1441Y3385D02*
Y3464D01*
Y3385D02*
X1492D01*
Y3464D01*
X1441D02*
X1492D01*
X3555Y2869D02*
X3559Y2865D01*
X3601D01*
X3606Y2870D01*
X3555Y2844D02*
X3559Y2848D01*
X3601D01*
X3606Y2843D01*
X3554Y2831D02*
Y2882D01*
X3606Y2831D02*
Y2882D01*
X3540D02*
X3618D01*
X3540Y2831D02*
Y2882D01*
Y2831D02*
X3618D01*
Y2882D01*
X1278Y3525D02*
X1281Y3529D01*
X1278Y3483D02*
Y3525D01*
Y3483D02*
X1282Y3478D01*
X1257Y3529D02*
X1261Y3525D01*
Y3483D02*
Y3525D01*
X1256Y3478D02*
X1261Y3483D01*
X1244Y3530D02*
X1295D01*
X1244Y3478D02*
X1295D01*
Y3466D02*
Y3544D01*
X1244D02*
X1295D01*
X1244Y3466D02*
Y3544D01*
Y3466D02*
X1295D01*
X3555Y3069D02*
X3559Y3065D01*
X3601D01*
X3606Y3070D01*
X3555Y3044D02*
X3559Y3048D01*
X3601D01*
X3606Y3043D01*
X3554Y3031D02*
Y3082D01*
X3606Y3031D02*
Y3082D01*
X3540D02*
X3618D01*
X3540Y3031D02*
Y3082D01*
Y3031D02*
X3618D01*
Y3082D01*
X1660Y3508D02*
Y3533D01*
X1485Y3508D02*
Y3533D01*
Y3508D02*
X1660D01*
Y3593D02*
Y3618D01*
X1485Y3593D02*
Y3618D01*
X1660D01*
X1792Y3609D02*
X1817D01*
X1792Y3434D02*
X1817D01*
Y3609D01*
X1707D02*
X1732D01*
X1707Y3434D02*
X1732D01*
X1707D02*
Y3609D01*
X1295Y3880D02*
X1320D01*
X1295Y4055D02*
X1320D01*
X1295Y3880D02*
Y4055D01*
X1380Y3880D02*
X1405D01*
X1380Y4055D02*
X1405D01*
Y3880D02*
Y4055D01*
X3555Y3259D02*
X3559Y3255D01*
X3601D01*
X3606Y3260D01*
X3555Y3234D02*
X3559Y3238D01*
X3601D01*
X3606Y3233D01*
X3554Y3221D02*
Y3272D01*
X3606Y3221D02*
Y3272D01*
X3540D02*
X3618D01*
X3540Y3221D02*
Y3272D01*
Y3221D02*
X3618D01*
Y3272D01*
X3475Y3459D02*
X3479Y3455D01*
X3521D01*
X3526Y3460D01*
X3475Y3434D02*
X3479Y3438D01*
X3521D01*
X3526Y3433D01*
X3474Y3421D02*
Y3472D01*
X3526Y3421D02*
Y3472D01*
X3460D02*
X3538D01*
X3460Y3421D02*
Y3472D01*
Y3421D02*
X3538D01*
Y3472D01*
X940Y3822D02*
X965D01*
X940Y3647D02*
X965D01*
Y3822D01*
X855D02*
X880D01*
X855Y3647D02*
X880D01*
X855D02*
Y3822D01*
X3668Y3488D02*
Y3513D01*
X3493Y3488D02*
Y3513D01*
Y3488D02*
X3668D01*
Y3573D02*
Y3598D01*
X3493Y3573D02*
Y3598D01*
X3668D01*
Y3685D02*
Y3710D01*
X3493Y3685D02*
Y3710D01*
Y3685D02*
X3668D01*
Y3770D02*
Y3795D01*
X3493Y3770D02*
Y3795D01*
X3668D01*
X1423Y2370D02*
X1557D01*
X1423Y2260D02*
X1557D01*
X1539Y2275D02*
X1551D01*
X1423Y2260D02*
Y2370D01*
X1557Y2260D02*
Y2370D01*
X1533Y2260D02*
Y2370D01*
X1545Y2268D02*
Y2282D01*
X2063Y2330D02*
X2197D01*
X2063Y2220D02*
X2197D01*
X2179Y2235D02*
X2191D01*
X2063Y2220D02*
Y2330D01*
X2197Y2220D02*
Y2330D01*
X2173Y2220D02*
Y2330D01*
X2185Y2228D02*
Y2242D01*
X2174Y2844D02*
X2179Y2849D01*
Y2925D01*
X2174Y2805D02*
X2179Y2801D01*
Y2725D02*
Y2801D01*
X1774Y2925D02*
X2179D01*
X1774Y2725D02*
Y2925D01*
Y2725D02*
X2179D01*
X2473Y2070D02*
X2607D01*
X2473Y2180D02*
X2607D01*
X2479Y2165D02*
X2491D01*
X2607Y2070D02*
Y2180D01*
X2473Y2070D02*
Y2180D01*
X2497Y2070D02*
Y2180D01*
X2485Y2158D02*
Y2172D01*
X2617Y1723D02*
Y2010D01*
X2785Y1723D02*
Y2010D01*
X2760Y1975D02*
Y1995D01*
X2617Y1723D02*
X2785D01*
X2617Y2010D02*
X2785D01*
X2617Y1960D02*
X2785D01*
X2749Y1985D02*
X2770D01*
X3551Y2170D02*
Y2186D01*
X3534Y2162D02*
Y2288D01*
X3574Y2162D02*
Y2288D01*
X3345Y2162D02*
Y2288D01*
X3543Y2178D02*
X3559D01*
X3345Y2162D02*
X3573D01*
X3345Y2288D02*
X3574D01*
X2458Y1640D02*
X2592D01*
X2458Y1750D02*
X2592D01*
X2464Y1735D02*
X2476D01*
X2592Y1640D02*
Y1750D01*
X2458Y1640D02*
Y1750D01*
X2482Y1640D02*
Y1750D01*
X2470Y1728D02*
Y1742D01*
X1153Y2657D02*
X1181D01*
X1153D02*
Y2697D01*
X1181D01*
Y2511D02*
X1259D01*
X1133Y2500D02*
X1271D01*
X1153Y2598D02*
X1181D01*
X1153D02*
Y2637D01*
X1181D01*
X1153Y2539D02*
X1181D01*
X1153D02*
Y2578D01*
X1181D01*
Y2511D02*
Y2665D01*
X1259Y2511D02*
Y2689D01*
X1271Y2500D02*
Y2677D01*
X1133Y2500D02*
Y2677D01*
X1153Y2834D02*
X1181D01*
X1153D02*
Y2874D01*
X1181D01*
X1153Y2775D02*
X1181D01*
X1153D02*
Y2815D01*
X1181D01*
Y2901D02*
X1259D01*
X1181Y2665D02*
Y2901D01*
X1259Y2689D02*
Y2901D01*
X1200Y2905D02*
Y2913D01*
Y2905D02*
X1240D01*
Y2913D01*
X1220D02*
X1271D01*
Y2677D02*
Y2913D01*
X1133Y2677D02*
Y2913D01*
X1220D01*
X1153Y2716D02*
X1181D01*
X1153D02*
Y2756D01*
X1181D01*
X2513Y2667D02*
X2541D01*
X2513D02*
Y2707D01*
X2541D01*
Y2521D02*
X2619D01*
X2493Y2510D02*
X2631D01*
X2513Y2608D02*
X2541D01*
X2513D02*
Y2647D01*
X2541D01*
X2513Y2549D02*
X2541D01*
X2513D02*
Y2588D01*
X2541D01*
Y2521D02*
Y2675D01*
X2619Y2521D02*
Y2699D01*
X2631Y2510D02*
Y2687D01*
X2493Y2510D02*
Y2687D01*
X2513Y2844D02*
X2541D01*
X2513D02*
Y2884D01*
X2541D01*
X2513Y2785D02*
X2541D01*
X2513D02*
Y2825D01*
X2541D01*
Y2911D02*
X2619D01*
X2541Y2675D02*
Y2911D01*
X2619Y2699D02*
Y2911D01*
X2560Y2915D02*
Y2923D01*
Y2915D02*
X2600D01*
Y2923D01*
X2580D02*
X2631D01*
Y2687D02*
Y2923D01*
X2493Y2687D02*
Y2923D01*
X2580D01*
X2513Y2726D02*
X2541D01*
X2513D02*
Y2766D01*
X2541D01*
X883Y3536D02*
Y3567D01*
X937Y3536D02*
Y3567D01*
X879Y3454D02*
X941D01*
Y3467D01*
X937D02*
X941D01*
X937D02*
Y3496D01*
X941D01*
Y3516D01*
X879Y3580D02*
X941D01*
Y3567D02*
Y3580D01*
X937Y3567D02*
X941D01*
X937Y3536D02*
X941D01*
Y3516D02*
Y3536D01*
X879Y3454D02*
Y3467D01*
X883D01*
Y3496D01*
X879D02*
X883D01*
X879D02*
Y3516D01*
Y3567D02*
Y3580D01*
Y3567D02*
X883D01*
X879Y3536D02*
X883D01*
X879Y3516D02*
Y3536D01*
X883Y3467D02*
X941D01*
X882Y3567D02*
X939D01*
X883Y3536D02*
X938D01*
X882Y3496D02*
X937D01*
X810Y3880D02*
X841D01*
X810Y3933D02*
X841D01*
X923Y3875D02*
Y3938D01*
X910D02*
X923D01*
X910Y3933D02*
Y3938D01*
X881Y3933D02*
X910D01*
X881D02*
Y3938D01*
X861D02*
X881D01*
X797Y3875D02*
Y3938D01*
X810D01*
X810Y3933D02*
X810Y3938D01*
X841Y3933D02*
Y3938D01*
X861D01*
X910Y3875D02*
X923D01*
X910D02*
Y3880D01*
X881D02*
X910D01*
X881Y3875D02*
Y3880D01*
X861Y3875D02*
X881D01*
X797D02*
X810D01*
X810Y3880D02*
X810Y3875D01*
X841D02*
Y3880D01*
Y3875D02*
X861D01*
X910Y3880D02*
Y3938D01*
X810Y3879D02*
Y3935D01*
X841Y3880D02*
Y3934D01*
X881Y3879D02*
Y3933D01*
X1188Y3528D02*
X1192Y3531D01*
X1188Y3486D02*
Y3528D01*
Y3486D02*
X1193Y3481D01*
X1167Y3531D02*
X1171Y3528D01*
Y3486D02*
Y3528D01*
X1166Y3481D02*
X1171Y3486D01*
X1154Y3532D02*
X1206D01*
X1154Y3481D02*
X1206D01*
Y3468D02*
Y3547D01*
X1154D02*
X1206D01*
X1154Y3468D02*
Y3547D01*
Y3468D02*
X1206D01*
X621Y1323D02*
Y1374D01*
X700D01*
Y1323D02*
Y1374D01*
X621Y1323D02*
X700D01*
X634D02*
Y1374D01*
X685Y1323D02*
Y1374D01*
X634Y1362D02*
X639Y1357D01*
X680D01*
X684Y1361D01*
X634Y1336D02*
X639Y1341D01*
X680D01*
X684Y1337D01*
X1098Y3528D02*
X1102Y3531D01*
X1098Y3486D02*
Y3528D01*
Y3486D02*
X1103Y3481D01*
X1077Y3531D02*
X1081Y3528D01*
Y3486D02*
Y3528D01*
X1076Y3481D02*
X1081Y3486D01*
X1064Y3532D02*
X1116D01*
X1064Y3481D02*
X1116D01*
Y3468D02*
Y3547D01*
X1064D02*
X1116D01*
X1064Y3468D02*
Y3547D01*
Y3468D02*
X1116D01*
X1248Y3948D02*
X1252Y3951D01*
X1248Y3906D02*
Y3948D01*
Y3906D02*
X1253Y3901D01*
X1227Y3951D02*
X1231Y3948D01*
Y3906D02*
Y3948D01*
X1226Y3901D02*
X1231Y3906D01*
X1214Y3952D02*
X1266D01*
X1214Y3901D02*
X1266D01*
Y3888D02*
Y3967D01*
X1214D02*
X1266D01*
X1214Y3888D02*
Y3967D01*
Y3888D02*
X1266D01*
X1104Y2074D02*
Y2137D01*
Y2074D02*
X1167D01*
Y2137D01*
X1104D02*
X1167D01*
D79*
X1902Y3406D02*
G03*
X1902Y3209I0J-98D01*
G01*
X2158D02*
G03*
X2158Y3406I0J98D01*
G01*
X1902Y3406D02*
X2158D01*
X1902Y3209D02*
X2158D01*
X1011Y747D02*
Y845D01*
X649D02*
X1011D01*
X649Y648D02*
Y845D01*
Y648D02*
X1011D01*
Y747D01*
D80*
X1004Y3248D02*
G03*
X1004Y3248I-118J0D01*
G01*
X3465Y3937D02*
G03*
X3465Y3937I-118J0D01*
G01*
X2953Y394D02*
G03*
X2953Y394I-118J0D01*
G01*
X315D02*
G03*
X315Y394I-118J0D01*
G01*
X768Y3248D02*
X1004D01*
X886Y3130D02*
Y3366D01*
X3228Y3937D02*
X3465D01*
X3346Y3819D02*
Y4055D01*
X2717Y394D02*
X2953D01*
X2835Y276D02*
Y512D01*
X79Y394D02*
X315D01*
X197Y276D02*
Y512D01*
X3083Y1335D02*
Y1435D01*
X3088Y1335D02*
Y1435D01*
X3143Y3208D02*
Y3308D01*
X3148Y3208D02*
Y3308D01*
X3167Y1127D02*
Y1227D01*
X3162Y1127D02*
Y1227D01*
X3018Y3011D02*
Y3111D01*
X3013Y3011D02*
Y3111D01*
X1013Y1067D02*
Y1167D01*
X1018Y1067D02*
Y1167D01*
X676Y1426D02*
Y1526D01*
X671Y1426D02*
Y1526D01*
X646Y1554D02*
Y1654D01*
X641Y1554D02*
Y1654D01*
X3189Y754D02*
X3289D01*
X3189Y749D02*
X3289D01*
X3129Y2634D02*
X3229D01*
X3129Y2629D02*
X3229D01*
X1573Y2155D02*
Y2255D01*
X1578Y2155D02*
Y2255D01*
X1510Y1982D02*
X1610D01*
X1510Y1977D02*
X1610D01*
X2277Y2045D02*
Y2145D01*
X2272Y2045D02*
Y2145D01*
X1910Y1512D02*
X2010D01*
X1910Y1507D02*
X2010D01*
X2287Y2235D02*
Y2335D01*
X2282Y2235D02*
Y2335D01*
X2030Y2052D02*
X2130D01*
X2030Y2047D02*
X2130D01*
X2020Y1637D02*
X2120D01*
X2020Y1642D02*
X2120D01*
X3210Y1707D02*
X3310D01*
X3210Y1702D02*
X3310D01*
X2310Y1652D02*
X2410D01*
X2310Y1647D02*
X2410D01*
X2700Y1262D02*
X2800D01*
X2700Y1257D02*
X2800D01*
X2540Y982D02*
X2640D01*
X2540Y977D02*
X2640D01*
X1770Y1847D02*
X1870D01*
X1770Y1852D02*
X1870D01*
X1810Y1512D02*
X1910D01*
X1810Y1507D02*
X1910D01*
X1620Y1892D02*
X1720D01*
X1620Y1887D02*
X1720D01*
X1710Y1512D02*
X1810D01*
X1710Y1507D02*
X1810D01*
X2467Y1525D02*
Y1625D01*
X2462Y1525D02*
Y1625D01*
X3333Y1565D02*
Y1665D01*
X3338Y1565D02*
Y1665D01*
X2593Y1425D02*
Y1525D01*
X2598Y1425D02*
Y1525D01*
X1930Y2082D02*
X2030D01*
X1930Y2077D02*
X2030D01*
X620Y2137D02*
X820D01*
X620Y1837D02*
X820D01*
X620Y1887D02*
X665D01*
Y2087D01*
X620D02*
X665D01*
X620Y1837D02*
Y2137D01*
X820Y1837D02*
Y2137D01*
X2960Y667D02*
Y1167D01*
X2760Y667D02*
Y1167D01*
X2805Y717D02*
Y1117D01*
X2760Y717D02*
X2805D01*
X2760Y667D02*
X2960D01*
X2760Y1117D02*
X2805D01*
X2760Y1167D02*
X2960D01*
X2460Y347D02*
Y847D01*
X2660Y347D02*
Y847D01*
X2615Y397D02*
Y797D01*
X2660D01*
X2460Y847D02*
X2660D01*
X2615Y397D02*
X2660D01*
X2460Y347D02*
X2660D01*
X2915Y2588D02*
Y3088D01*
X2715Y2588D02*
Y3088D01*
X2760Y2638D02*
Y3038D01*
X2715Y2638D02*
X2760D01*
X2715Y2588D02*
X2915D01*
X2715Y3038D02*
X2760D01*
X2715Y3088D02*
X2915D01*
X1570Y1347D02*
X1770D01*
X1570Y1297D02*
X1615D01*
Y897D02*
Y1297D01*
X1570Y847D02*
Y1347D01*
X1770Y847D02*
Y1347D01*
X1570Y347D02*
X1770D01*
X1570Y397D02*
X1615D01*
Y892D01*
X1570Y347D02*
Y847D01*
X1770Y347D02*
Y847D01*
X2160Y1347D02*
X2360D01*
X2160Y1297D02*
X2205D01*
Y897D02*
Y1297D01*
X2160Y847D02*
Y1347D01*
X2360Y847D02*
Y1347D01*
X2160Y347D02*
X2360D01*
X2160Y397D02*
X2205D01*
Y892D01*
X2160Y347D02*
Y847D01*
X2360Y347D02*
Y847D01*
X1280Y1347D02*
X1480D01*
X1280Y1297D02*
X1325D01*
Y897D02*
Y1297D01*
X1280Y847D02*
Y1347D01*
X1480Y847D02*
Y1347D01*
X1280Y347D02*
X1480D01*
X1280Y397D02*
X1325D01*
Y892D01*
X1280Y347D02*
Y847D01*
X1480Y347D02*
Y847D01*
X2070Y347D02*
Y847D01*
X1870Y347D02*
Y847D01*
X1915Y397D02*
Y892D01*
X1870Y397D02*
X1915D01*
X1870Y347D02*
X2070D01*
Y847D02*
Y1347D01*
X1870Y847D02*
Y1347D01*
X1915Y897D02*
Y1297D01*
X1870D02*
X1915D01*
X1870Y1347D02*
X2070D01*
X3890Y1207D02*
Y1707D01*
X4090Y1207D02*
Y1707D01*
X4045Y1162D02*
Y1657D01*
X4090D01*
X3890Y1707D02*
X4090D01*
X3890Y707D02*
Y1207D01*
X4090Y707D02*
Y1207D01*
X4045Y757D02*
Y1157D01*
Y757D02*
X4090D01*
X3890Y707D02*
X4090D01*
X190Y3200D02*
Y3500D01*
X390Y3200D02*
Y3500D01*
X345Y3250D02*
X390D01*
X345D02*
Y3450D01*
X390D01*
X190Y3500D02*
X390D01*
X190Y3200D02*
X390D01*
X620Y2207D02*
Y2507D01*
X820Y2207D02*
Y2507D01*
X775Y2257D02*
X820D01*
X775D02*
Y2457D01*
X820D01*
X620Y2507D02*
X820D01*
X620Y2207D02*
X820D01*
X3890Y3097D02*
Y3597D01*
X4090Y3097D02*
Y3597D01*
X4045Y3052D02*
Y3547D01*
X4090D01*
X3890Y3597D02*
X4090D01*
X3890Y2597D02*
Y3097D01*
X4090Y2597D02*
Y3097D01*
X4045Y2647D02*
Y3047D01*
Y2647D02*
X4090D01*
X3890Y2597D02*
X4090D01*
X803Y537D02*
Y637D01*
X808Y537D02*
Y637D01*
X1200Y154D02*
X1300D01*
X1200Y149D02*
X1300D01*
X2357Y1350D02*
Y1450D01*
X2362Y1350D02*
Y1450D01*
X820Y867D02*
Y1167D01*
X620Y867D02*
Y1167D01*
Y1117D02*
X665D01*
Y917D02*
Y1117D01*
X620Y917D02*
X665D01*
X620Y867D02*
X820D01*
X620Y1167D02*
X820D01*
D81*
X2918Y1335D02*
Y1435D01*
X3123Y1335D02*
Y1435D01*
X2918D02*
X2993D01*
X2918Y1335D02*
X2993D01*
X3048D02*
X3123D01*
X3048Y1435D02*
X3123D01*
X2978Y3208D02*
Y3308D01*
X3183Y3208D02*
Y3308D01*
X2978D02*
X3053D01*
X2978Y3208D02*
X3053D01*
X3108D02*
X3183D01*
X3108Y3308D02*
X3183D01*
X3332Y1127D02*
Y1227D01*
X3127Y1127D02*
Y1227D01*
X3257Y1127D02*
X3332D01*
X3257Y1227D02*
X3332D01*
X3127D02*
X3202D01*
X3127Y1127D02*
X3202D01*
X3183Y3011D02*
Y3111D01*
X2978Y3011D02*
Y3111D01*
X3108Y3011D02*
X3183D01*
X3108Y3111D02*
X3183D01*
X2978D02*
X3053D01*
X2978Y3011D02*
X3053D01*
X925Y1985D02*
X1015D01*
X925Y1825D02*
X1015D01*
Y1925D02*
Y1985D01*
X925Y1925D02*
Y1985D01*
Y1825D02*
Y1885D01*
X1015Y1825D02*
Y1885D01*
X1715Y2175D02*
X1805D01*
X1715Y2335D02*
X1805D01*
X1715Y2175D02*
Y2235D01*
X1805Y2175D02*
Y2235D01*
Y2275D02*
Y2335D01*
X1715Y2275D02*
Y2335D01*
X1625Y2175D02*
X1715D01*
X1625Y2335D02*
X1715D01*
X1625Y2175D02*
Y2235D01*
X1715Y2175D02*
Y2235D01*
Y2275D02*
Y2335D01*
X1625Y2275D02*
Y2335D01*
X2795Y1675D02*
X2885D01*
X2795Y1835D02*
X2885D01*
X2795Y1675D02*
Y1735D01*
X2885Y1675D02*
Y1735D01*
Y1775D02*
Y1835D01*
X2795Y1775D02*
Y1835D01*
X2955Y2160D02*
X3045D01*
X2955Y2000D02*
X3045D01*
Y2100D02*
Y2160D01*
X2955Y2100D02*
Y2160D01*
Y2000D02*
Y2060D01*
X3045Y2000D02*
Y2060D01*
X3160Y1540D02*
Y1630D01*
X3000Y1540D02*
Y1630D01*
X3100Y1540D02*
X3160D01*
X3100Y1630D02*
X3160D01*
X3000D02*
X3060D01*
X3000Y1540D02*
X3060D01*
X2830Y2025D02*
X2920D01*
X2830Y2185D02*
X2920D01*
X2830Y2025D02*
Y2085D01*
X2920Y2025D02*
Y2085D01*
Y2125D02*
Y2185D01*
X2830Y2125D02*
Y2185D01*
X1255Y620D02*
Y680D01*
X1165Y620D02*
Y680D01*
Y720D02*
Y780D01*
X1255Y720D02*
Y780D01*
X1165Y620D02*
X1255D01*
X1165Y780D02*
X1255D01*
X848Y1067D02*
Y1167D01*
X1053Y1067D02*
Y1167D01*
X848D02*
X923D01*
X848Y1067D02*
X923D01*
X978D02*
X1053D01*
X978Y1167D02*
X1053D01*
X770Y3972D02*
X830D01*
X770Y4062D02*
X830D01*
X870D02*
X930D01*
X870Y3972D02*
X930D01*
X770D02*
Y4062D01*
X930Y3972D02*
Y4062D01*
X1075Y717D02*
Y777D01*
X1165Y717D02*
Y777D01*
Y617D02*
Y677D01*
X1075Y617D02*
Y677D01*
Y777D02*
X1165D01*
X1075Y617D02*
X1165D01*
X1548Y1422D02*
Y1467D01*
X1433Y1422D02*
Y1467D01*
X1528Y1422D02*
X1548D01*
X1488Y1512D02*
X1493D01*
X1433Y1422D02*
X1453D01*
X1088Y1277D02*
X1163D01*
X1088Y1177D02*
X1163D01*
X958D02*
X1033D01*
X958Y1277D02*
X1033D01*
X1163Y1177D02*
Y1277D01*
X958Y1177D02*
Y1277D01*
X1060Y1370D02*
X1120D01*
X1060Y1280D02*
X1120D01*
X960D02*
X1020D01*
X960Y1370D02*
X1020D01*
X1120Y1280D02*
Y1370D01*
X960Y1280D02*
Y1370D01*
X1260Y1580D02*
X1320D01*
X1260Y1670D02*
X1320D01*
X1360D02*
X1420D01*
X1360Y1580D02*
X1420D01*
X1260D02*
Y1670D01*
X1420Y1580D02*
Y1670D01*
X955Y1610D02*
X1015D01*
X955Y1520D02*
X1015D01*
X855D02*
X915D01*
X855Y1610D02*
X915D01*
X1015Y1520D02*
Y1610D01*
X855Y1520D02*
Y1610D01*
X1108Y1544D02*
Y1604D01*
X1018Y1544D02*
Y1604D01*
Y1644D02*
Y1704D01*
X1108Y1644D02*
Y1704D01*
X1018Y1544D02*
X1108D01*
X1018Y1704D02*
X1108D01*
X1068Y1399D02*
X1113D01*
X1068Y1514D02*
X1113D01*
X1068Y1399D02*
Y1419D01*
X1158Y1454D02*
Y1459D01*
X1068Y1494D02*
Y1514D01*
X841Y1426D02*
Y1526D01*
X636Y1426D02*
Y1526D01*
X766Y1426D02*
X841D01*
X766Y1526D02*
X841D01*
X636D02*
X711D01*
X636Y1426D02*
X711D01*
X811Y1554D02*
Y1654D01*
X606Y1554D02*
Y1654D01*
X736Y1554D02*
X811D01*
X736Y1654D02*
X811D01*
X606D02*
X681D01*
X606Y1554D02*
X681D01*
X3293Y422D02*
X3368D01*
X3293Y522D02*
X3368D01*
X3423D02*
X3498D01*
X3423Y422D02*
X3498D01*
X3293D02*
Y522D01*
X3498Y422D02*
Y522D01*
X955Y1521D02*
X1015D01*
X955Y1431D02*
X1015D01*
X855D02*
X915D01*
X855Y1521D02*
X915D01*
X1015Y1431D02*
Y1521D01*
X855Y1431D02*
Y1521D01*
X955Y1708D02*
X1015D01*
X955Y1618D02*
X1015D01*
X855D02*
X915D01*
X855Y1708D02*
X915D01*
X1015Y1618D02*
Y1708D01*
X855Y1618D02*
Y1708D01*
X3476Y714D02*
Y789D01*
X3376Y714D02*
Y789D01*
Y844D02*
Y919D01*
X3476Y844D02*
Y919D01*
X3376Y714D02*
X3476D01*
X3376Y919D02*
X3476D01*
Y921D02*
Y996D01*
X3376Y921D02*
Y996D01*
Y1051D02*
Y1126D01*
X3476Y1051D02*
Y1126D01*
X3376Y921D02*
X3476D01*
X3376Y1126D02*
X3476D01*
X3378Y921D02*
Y996D01*
X3278Y921D02*
Y996D01*
Y1051D02*
Y1126D01*
X3378Y1051D02*
Y1126D01*
X3278Y921D02*
X3378D01*
X3278Y1126D02*
X3378D01*
X3327Y1127D02*
X3402D01*
X3327Y1227D02*
X3402D01*
X3457D02*
X3532D01*
X3457Y1127D02*
X3532D01*
X3327D02*
Y1227D01*
X3532Y1127D02*
Y1227D01*
X3186Y1229D02*
X3261D01*
X3186Y1329D02*
X3261D01*
X3316D02*
X3391D01*
X3316Y1229D02*
X3391D01*
X3186D02*
Y1329D01*
X3391Y1229D02*
Y1329D01*
X3278Y844D02*
Y919D01*
X3378Y844D02*
Y919D01*
Y714D02*
Y789D01*
X3278Y714D02*
Y789D01*
Y919D02*
X3378D01*
X3278Y714D02*
X3378D01*
X3189Y919D02*
X3289D01*
X3189Y714D02*
X3289D01*
Y844D02*
Y919D01*
X3189Y844D02*
Y919D01*
Y714D02*
Y789D01*
X3289Y714D02*
Y789D01*
X3127Y1335D02*
X3202D01*
X3127Y1435D02*
X3202D01*
X3257D02*
X3332D01*
X3257Y1335D02*
X3332D01*
X3127D02*
Y1435D01*
X3332Y1335D02*
Y1435D01*
X3180Y1054D02*
Y1129D01*
X3280Y1054D02*
Y1129D01*
Y924D02*
Y999D01*
X3180Y924D02*
Y999D01*
Y1129D02*
X3280D01*
X3180Y924D02*
X3280D01*
X3048Y1337D02*
X3123D01*
X3048Y1237D02*
X3123D01*
X2918D02*
X2993D01*
X2918Y1337D02*
X2993D01*
X3123Y1237D02*
Y1337D01*
X2918Y1237D02*
Y1337D01*
X3048Y1535D02*
X3123D01*
X3048Y1435D02*
X3123D01*
X2918D02*
X2993D01*
X2918Y1535D02*
X2993D01*
X3123Y1435D02*
Y1535D01*
X2918Y1435D02*
Y1535D01*
X3333Y2302D02*
X3408D01*
X3333Y2402D02*
X3408D01*
X3463D02*
X3538D01*
X3463Y2302D02*
X3538D01*
X3333D02*
Y2402D01*
X3538Y2302D02*
Y2402D01*
X3426Y2594D02*
Y2669D01*
X3326Y2594D02*
Y2669D01*
Y2724D02*
Y2799D01*
X3426Y2724D02*
Y2799D01*
X3326Y2594D02*
X3426D01*
X3326Y2799D02*
X3426D01*
Y2801D02*
Y2876D01*
X3326Y2801D02*
Y2876D01*
Y2931D02*
Y3006D01*
X3426Y2931D02*
Y3006D01*
X3326Y2801D02*
X3426D01*
X3326Y3006D02*
X3426D01*
X3328Y2801D02*
Y2876D01*
X3228Y2801D02*
Y2876D01*
Y2931D02*
Y3006D01*
X3328Y2931D02*
Y3006D01*
X3228Y2801D02*
X3328D01*
X3228Y3006D02*
X3328D01*
X3195Y3011D02*
X3270D01*
X3195Y3111D02*
X3270D01*
X3325D02*
X3400D01*
X3325Y3011D02*
X3400D01*
X3195D02*
Y3111D01*
X3400Y3011D02*
Y3111D01*
X3195Y3109D02*
X3270D01*
X3195Y3209D02*
X3270D01*
X3325D02*
X3400D01*
X3325Y3109D02*
X3400D01*
X3195D02*
Y3209D01*
X3400Y3109D02*
Y3209D01*
X3328Y2594D02*
Y2669D01*
X3228Y2594D02*
Y2669D01*
Y2724D02*
Y2799D01*
X3328Y2724D02*
Y2799D01*
X3228Y2594D02*
X3328D01*
X3228Y2799D02*
X3328D01*
X3129D02*
X3229D01*
X3129Y2594D02*
X3229D01*
Y2724D02*
Y2799D01*
X3129Y2724D02*
Y2799D01*
Y2594D02*
Y2669D01*
X3229Y2594D02*
Y2669D01*
X3328Y3307D02*
X3403D01*
X3328Y3207D02*
X3403D01*
X3198D02*
X3273D01*
X3198Y3307D02*
X3273D01*
X3403Y3207D02*
Y3307D01*
X3198Y3207D02*
Y3307D01*
X3129Y2931D02*
Y3006D01*
X3229Y2931D02*
Y3006D01*
Y2801D02*
Y2876D01*
X3129Y2801D02*
Y2876D01*
Y3006D02*
X3229D01*
X3129Y2801D02*
X3229D01*
X2959Y3109D02*
X3034D01*
X2959Y3209D02*
X3034D01*
X3089D02*
X3164D01*
X3089Y3109D02*
X3164D01*
X2959D02*
Y3209D01*
X3164Y3109D02*
Y3209D01*
X2963Y3106D02*
Y3181D01*
X2863Y3106D02*
Y3181D01*
Y3236D02*
Y3311D01*
X2963Y3236D02*
Y3311D01*
X2863Y3106D02*
X2963D01*
X2863Y3311D02*
X2963D01*
X2385Y2714D02*
Y2774D01*
X2475Y2714D02*
Y2774D01*
Y2614D02*
Y2674D01*
X2385Y2614D02*
Y2674D01*
Y2774D02*
X2475D01*
X2385Y2614D02*
X2475D01*
X1408Y2155D02*
Y2255D01*
X1613Y2155D02*
Y2255D01*
X1408D02*
X1483D01*
X1408Y2155D02*
X1483D01*
X1538D02*
X1613D01*
X1538Y2255D02*
X1613D01*
X1315Y2799D02*
X1375D01*
X1315Y2889D02*
X1375D01*
X1415D02*
X1475D01*
X1415Y2799D02*
X1475D01*
X1315D02*
Y2889D01*
X1475Y2799D02*
Y2889D01*
X1315Y2434D02*
X1375D01*
X1315Y2524D02*
X1375D01*
X1415D02*
X1475D01*
X1415Y2434D02*
X1475D01*
X1315D02*
Y2524D01*
X1475Y2434D02*
Y2524D01*
X1315Y2889D02*
X1375D01*
X1315Y2979D02*
X1375D01*
X1415D02*
X1475D01*
X1415Y2889D02*
X1475D01*
X1315D02*
Y2979D01*
X1475Y2889D02*
Y2979D01*
X1315Y2709D02*
X1375D01*
X1315Y2799D02*
X1375D01*
X1415D02*
X1475D01*
X1415Y2709D02*
X1475D01*
X1315D02*
Y2799D01*
X1475Y2709D02*
Y2799D01*
Y2650D02*
Y2710D01*
X1565Y2650D02*
Y2710D01*
Y2550D02*
Y2610D01*
X1475Y2550D02*
Y2610D01*
Y2710D02*
X1565D01*
X1475Y2550D02*
X1565D01*
X2310Y2789D02*
X2370D01*
X2310Y2879D02*
X2370D01*
X2410D02*
X2470D01*
X2410Y2789D02*
X2470D01*
X2310D02*
Y2879D01*
X2470Y2789D02*
Y2879D01*
X1510Y2147D02*
X1610D01*
X1510Y1942D02*
X1610D01*
Y2072D02*
Y2147D01*
X1510Y2072D02*
Y2147D01*
Y1942D02*
Y2017D01*
X1610Y1942D02*
Y2017D01*
X2230Y2040D02*
X2290D01*
X2230Y1950D02*
X2290D01*
X2130D02*
X2190D01*
X2130Y2040D02*
X2190D01*
X2290Y1950D02*
Y2040D01*
X2130Y1950D02*
Y2040D01*
X2380Y2230D02*
X2440D01*
X2380Y2140D02*
X2440D01*
X2280D02*
X2340D01*
X2280Y2230D02*
X2340D01*
X2440Y2140D02*
Y2230D01*
X2280Y2140D02*
Y2230D01*
X2230Y1950D02*
X2290D01*
X2230Y1860D02*
X2290D01*
X2130D02*
X2190D01*
X2130Y1950D02*
X2190D01*
X2290Y1860D02*
Y1950D01*
X2130Y1860D02*
Y1950D01*
X2442Y2045D02*
Y2145D01*
X2237Y2045D02*
Y2145D01*
X2367Y2045D02*
X2442D01*
X2367Y2145D02*
X2442D01*
X2237D02*
X2312D01*
X2237Y2045D02*
X2312D01*
X2505Y2197D02*
X2550D01*
X2505Y2312D02*
X2550D01*
X2505Y2197D02*
Y2217D01*
X2595Y2252D02*
Y2257D01*
X2505Y2292D02*
Y2312D01*
X2035Y1785D02*
Y1845D01*
X2125Y1785D02*
Y1845D01*
Y1685D02*
Y1745D01*
X2035Y1685D02*
Y1745D01*
Y1845D02*
X2125D01*
X2035Y1685D02*
X2125D01*
Y2155D02*
Y2215D01*
X2215Y2155D02*
Y2215D01*
Y2055D02*
Y2115D01*
X2125Y2055D02*
Y2115D01*
Y2215D02*
X2215D01*
X2125Y2055D02*
X2215D01*
X1910Y1677D02*
X2010D01*
X1910Y1472D02*
X2010D01*
Y1602D02*
Y1677D01*
X1910Y1602D02*
Y1677D01*
Y1472D02*
Y1547D01*
X2010Y1472D02*
Y1547D01*
X1640Y2982D02*
X1700D01*
X1640Y2892D02*
X1700D01*
X1540D02*
X1600D01*
X1540Y2982D02*
X1600D01*
X1700Y2892D02*
Y2982D01*
X1540Y2892D02*
Y2982D01*
X1680Y3079D02*
X1740D01*
X1680Y2989D02*
X1740D01*
X1580D02*
X1640D01*
X1580Y3079D02*
X1640D01*
X1740Y2989D02*
Y3079D01*
X1580Y2989D02*
Y3079D01*
X2035Y1955D02*
Y2015D01*
X2125Y1955D02*
Y2015D01*
Y1855D02*
Y1915D01*
X2035Y1855D02*
Y1915D01*
Y2015D02*
X2125D01*
X2035Y1855D02*
X2125D01*
X1680Y3172D02*
X1740D01*
X1680Y3082D02*
X1740D01*
X1580D02*
X1640D01*
X1580Y3172D02*
X1640D01*
X1740Y3082D02*
Y3172D01*
X1580Y3082D02*
Y3172D01*
X2452Y2235D02*
Y2335D01*
X2247Y2235D02*
Y2335D01*
X2377Y2235D02*
X2452D01*
X2377Y2335D02*
X2452D01*
X2247D02*
X2322D01*
X2247Y2235D02*
X2322D01*
X2380Y2469D02*
X2440D01*
X2380Y2379D02*
X2440D01*
X2280D02*
X2340D01*
X2280Y2469D02*
X2340D01*
X2440Y2379D02*
Y2469D01*
X2280Y2379D02*
Y2469D01*
X2310Y2879D02*
X2370D01*
X2310Y2969D02*
X2370D01*
X2410D02*
X2470D01*
X2410Y2879D02*
X2470D01*
X2310D02*
Y2969D01*
X2470Y2879D02*
Y2969D01*
X2030Y2217D02*
X2130D01*
X2030Y2012D02*
X2130D01*
Y2142D02*
Y2217D01*
X2030Y2142D02*
Y2217D01*
Y2012D02*
Y2087D01*
X2130Y2012D02*
Y2087D01*
X1875Y3104D02*
Y3164D01*
X1965Y3104D02*
Y3164D01*
Y3004D02*
Y3064D01*
X1875Y3004D02*
Y3064D01*
Y3164D02*
X1965D01*
X1875Y3004D02*
X1965D01*
X1582Y3173D02*
X1642D01*
X1582Y3263D02*
X1642D01*
X1682D02*
X1742D01*
X1682Y3173D02*
X1742D01*
X1582D02*
Y3263D01*
X1742Y3173D02*
Y3263D01*
X2135Y3007D02*
Y3067D01*
X2045Y3007D02*
Y3067D01*
Y3107D02*
Y3167D01*
X2135Y3107D02*
Y3167D01*
X2045Y3007D02*
X2135D01*
X2045Y3167D02*
X2135D01*
X2305Y1445D02*
Y1505D01*
X2215Y1445D02*
Y1505D01*
Y1545D02*
Y1605D01*
X2305Y1545D02*
Y1605D01*
X2215Y1445D02*
X2305D01*
X2215Y1605D02*
X2305D01*
X2230Y1860D02*
X2290D01*
X2230Y1770D02*
X2290D01*
X2130D02*
X2190D01*
X2130Y1860D02*
X2190D01*
X2290Y1770D02*
Y1860D01*
X2130Y1770D02*
Y1860D01*
X2020Y1472D02*
X2120D01*
X2020Y1677D02*
X2120D01*
X2020Y1472D02*
Y1547D01*
X2120Y1472D02*
Y1547D01*
Y1602D02*
Y1677D01*
X2020Y1602D02*
Y1677D01*
X2305Y1545D02*
Y1605D01*
X2395Y1545D02*
Y1605D01*
Y1445D02*
Y1505D01*
X2305Y1445D02*
Y1505D01*
Y1605D02*
X2395D01*
X2305Y1445D02*
X2395D01*
X2278Y3012D02*
Y3057D01*
X2163Y3012D02*
Y3057D01*
X2258Y3012D02*
X2278D01*
X2218Y3102D02*
X2223D01*
X2163Y3012D02*
X2183D01*
X2125Y1545D02*
Y1605D01*
X2215Y1545D02*
Y1605D01*
Y1445D02*
Y1505D01*
X2125Y1445D02*
Y1505D01*
Y1605D02*
X2215D01*
X2125Y1445D02*
X2215D01*
X2125Y1705D02*
Y1765D01*
X2215Y1705D02*
Y1765D01*
Y1605D02*
Y1665D01*
X2125Y1605D02*
Y1665D01*
Y1765D02*
X2215D01*
X2125Y1605D02*
X2215D01*
Y1705D02*
Y1765D01*
X2305Y1705D02*
Y1765D01*
Y1605D02*
Y1665D01*
X2215Y1605D02*
Y1665D01*
Y1765D02*
X2305D01*
X2215Y1605D02*
X2305D01*
X3210Y1872D02*
X3310D01*
X3210Y1667D02*
X3310D01*
Y1797D02*
Y1872D01*
X3210Y1797D02*
Y1872D01*
Y1667D02*
Y1742D01*
X3310Y1667D02*
Y1742D01*
X2550Y2060D02*
X2610D01*
X2550Y1970D02*
X2610D01*
X2450D02*
X2510D01*
X2450Y2060D02*
X2510D01*
X2610Y1970D02*
Y2060D01*
X2450Y1970D02*
Y2060D01*
X2310Y1817D02*
X2410D01*
X2310Y1612D02*
X2410D01*
Y1742D02*
Y1817D01*
X2310Y1742D02*
Y1817D01*
Y1612D02*
Y1687D01*
X2410Y1612D02*
Y1687D01*
X2782Y1890D02*
X2802D01*
X2837Y1980D02*
X2842D01*
X2877Y1890D02*
X2897D01*
X2782D02*
Y1935D01*
X2897Y1890D02*
Y1935D01*
X2955Y1547D02*
Y1567D01*
X2865Y1602D02*
Y1607D01*
X2955Y1642D02*
Y1662D01*
X2910Y1547D02*
X2955D01*
X2910Y1662D02*
X2955D01*
X3447Y1890D02*
X3467D01*
X3408Y1800D02*
X3412D01*
X3352Y1890D02*
X3372D01*
X3467Y1845D02*
Y1890D01*
X3352Y1845D02*
Y1890D01*
X2407Y1865D02*
X2482D01*
X2407Y1965D02*
X2482D01*
X2537D02*
X2612D01*
X2537Y1865D02*
X2612D01*
X2407D02*
Y1965D01*
X2612Y1865D02*
Y1965D01*
X2990Y1770D02*
X3050D01*
X2990Y1680D02*
X3050D01*
X2890D02*
X2950D01*
X2890Y1770D02*
X2950D01*
X3050Y1680D02*
Y1770D01*
X2890Y1680D02*
Y1770D01*
X2990Y1860D02*
X3050D01*
X2990Y1770D02*
X3050D01*
X2890D02*
X2950D01*
X2890Y1860D02*
X2950D01*
X3050Y1770D02*
Y1860D01*
X2890Y1770D02*
Y1860D01*
X3150Y1970D02*
X3210D01*
X3150Y1880D02*
X3210D01*
X3050D02*
X3110D01*
X3050Y1970D02*
X3110D01*
X3210Y1880D02*
Y1970D01*
X3050Y1880D02*
Y1970D01*
X3080Y2250D02*
X3140D01*
X3080Y2160D02*
X3140D01*
X2980D02*
X3040D01*
X2980Y2250D02*
X3040D01*
X3140Y2160D02*
Y2250D01*
X2980Y2160D02*
Y2250D01*
X3150Y1860D02*
X3210D01*
X3150Y1770D02*
X3210D01*
X3050D02*
X3110D01*
X3050Y1860D02*
X3110D01*
X3210Y1770D02*
Y1860D01*
X3050Y1770D02*
Y1860D01*
X3150Y2060D02*
X3210D01*
X3150Y1970D02*
X3210D01*
X3050D02*
X3110D01*
X3050Y2060D02*
X3110D01*
X3210Y1970D02*
Y2060D01*
X3050Y1970D02*
Y2060D01*
X3615Y2015D02*
Y2075D01*
X3705Y2015D02*
Y2075D01*
Y1915D02*
Y1975D01*
X3615Y1915D02*
Y1975D01*
Y2075D02*
X3705D01*
X3615Y1915D02*
X3705D01*
X3410Y1765D02*
X3470D01*
X3410Y1675D02*
X3470D01*
X3310D02*
X3370D01*
X3310Y1765D02*
X3370D01*
X3470Y1675D02*
Y1765D01*
X3310Y1675D02*
Y1765D01*
X3250Y2252D02*
X3310D01*
X3250Y2162D02*
X3310D01*
X3150D02*
X3210D01*
X3150Y2252D02*
X3210D01*
X3310Y2162D02*
Y2252D01*
X3150Y2162D02*
Y2252D01*
X2630Y1250D02*
X2690D01*
X2630Y1160D02*
X2690D01*
X2530D02*
X2590D01*
X2530Y1250D02*
X2590D01*
X2690Y1160D02*
Y1250D01*
X2530Y1160D02*
Y1250D01*
X1970Y1950D02*
X2030D01*
X1970Y1860D02*
X2030D01*
X1870D02*
X1930D01*
X1870Y1950D02*
X1930D01*
X2030Y1860D02*
Y1950D01*
X1870Y1860D02*
Y1950D01*
X1710Y1770D02*
X1770D01*
X1710Y1680D02*
X1770D01*
X1610D02*
X1670D01*
X1610Y1770D02*
X1670D01*
X1770Y1680D02*
Y1770D01*
X1610Y1680D02*
Y1770D01*
X2525Y1105D02*
Y1165D01*
X2435Y1105D02*
Y1165D01*
Y1205D02*
Y1265D01*
X2525Y1205D02*
Y1265D01*
X2435Y1105D02*
X2525D01*
X2435Y1265D02*
X2525D01*
X2525Y1365D02*
Y1425D01*
X2615Y1365D02*
Y1425D01*
Y1265D02*
Y1325D01*
X2525Y1265D02*
Y1325D01*
Y1425D02*
X2615D01*
X2525Y1265D02*
X2615D01*
X1870Y1680D02*
X1930D01*
X1870Y1770D02*
X1930D01*
X1970D02*
X2030D01*
X1970Y1680D02*
X2030D01*
X1870D02*
Y1770D01*
X2030Y1680D02*
Y1770D01*
X1970Y2040D02*
X2030D01*
X1970Y1950D02*
X2030D01*
X1870D02*
X1930D01*
X1870Y2040D02*
X1930D01*
X2030Y1950D02*
Y2040D01*
X1870Y1950D02*
Y2040D01*
X1705Y1515D02*
Y1575D01*
X1615Y1515D02*
Y1575D01*
Y1615D02*
Y1675D01*
X1705Y1615D02*
Y1675D01*
X1615Y1515D02*
X1705D01*
X1615Y1675D02*
X1705D01*
X1515Y1875D02*
Y1935D01*
X1605Y1875D02*
Y1935D01*
Y1775D02*
Y1835D01*
X1515Y1775D02*
Y1835D01*
Y1935D02*
X1605D01*
X1515Y1775D02*
X1605D01*
X2310Y2519D02*
X2370D01*
X2310Y2609D02*
X2370D01*
X2410D02*
X2470D01*
X2410Y2519D02*
X2470D01*
X2310D02*
Y2609D01*
X2470Y2519D02*
Y2609D01*
X1315Y2524D02*
X1375D01*
X1315Y2614D02*
X1375D01*
X1415D02*
X1475D01*
X1415Y2524D02*
X1475D01*
X1315D02*
Y2614D01*
X1475Y2524D02*
Y2614D01*
X1315Y2619D02*
X1375D01*
X1315Y2709D02*
X1375D01*
X1415D02*
X1475D01*
X1415Y2619D02*
X1475D01*
X1315D02*
Y2709D01*
X1475Y2619D02*
Y2709D01*
X2305Y2714D02*
Y2774D01*
X2395Y2714D02*
Y2774D01*
Y2614D02*
Y2674D01*
X2305Y2614D02*
Y2674D01*
Y2774D02*
X2395D01*
X2305Y2614D02*
X2395D01*
X2550Y1850D02*
X2610D01*
X2550Y1760D02*
X2610D01*
X2450D02*
X2510D01*
X2450Y1850D02*
X2510D01*
X2610Y1760D02*
Y1850D01*
X2450Y1760D02*
Y1850D01*
X3150Y2150D02*
X3210D01*
X3150Y2060D02*
X3210D01*
X3050D02*
X3110D01*
X3050Y2150D02*
X3110D01*
X3210Y2060D02*
Y2150D01*
X3050Y2060D02*
Y2150D01*
X3150Y1770D02*
X3210D01*
X3150Y1680D02*
X3210D01*
X3050D02*
X3110D01*
X3050Y1770D02*
X3110D01*
X3210Y1680D02*
Y1770D01*
X3050Y1680D02*
Y1770D01*
X2615Y1365D02*
Y1425D01*
X2705Y1365D02*
Y1425D01*
Y1265D02*
Y1325D01*
X2615Y1265D02*
Y1325D01*
Y1425D02*
X2705D01*
X2615Y1265D02*
X2705D01*
X1770Y2050D02*
X1830D01*
X1770Y2140D02*
X1830D01*
X1870D02*
X1930D01*
X1870Y2050D02*
X1930D01*
X1770D02*
Y2140D01*
X1930Y2050D02*
Y2140D01*
X1450Y1685D02*
X1510D01*
X1450Y1775D02*
X1510D01*
X1550D02*
X1610D01*
X1550Y1685D02*
X1610D01*
X1450D02*
Y1775D01*
X1610Y1685D02*
Y1775D01*
X2700Y1427D02*
X2800D01*
X2700Y1222D02*
X2800D01*
Y1352D02*
Y1427D01*
X2700Y1352D02*
Y1427D01*
Y1222D02*
Y1297D01*
X2800Y1222D02*
Y1297D01*
X2540Y1147D02*
X2640D01*
X2540Y942D02*
X2640D01*
Y1072D02*
Y1147D01*
X2540Y1072D02*
Y1147D01*
Y942D02*
Y1017D01*
X2640Y942D02*
Y1017D01*
X1770Y1682D02*
X1870D01*
X1770Y1887D02*
X1870D01*
X1770Y1682D02*
Y1757D01*
X1870Y1682D02*
Y1757D01*
Y1812D02*
Y1887D01*
X1770Y1812D02*
Y1887D01*
X1810Y1677D02*
X1910D01*
X1810Y1472D02*
X1910D01*
Y1602D02*
Y1677D01*
X1810Y1602D02*
Y1677D01*
Y1472D02*
Y1547D01*
X1910Y1472D02*
Y1547D01*
X1620Y2057D02*
X1720D01*
X1620Y1852D02*
X1720D01*
Y1982D02*
Y2057D01*
X1620Y1982D02*
Y2057D01*
Y1852D02*
Y1927D01*
X1720Y1852D02*
Y1927D01*
X1710Y1677D02*
X1810D01*
X1710Y1472D02*
X1810D01*
Y1602D02*
Y1677D01*
X1710Y1602D02*
Y1677D01*
Y1472D02*
Y1547D01*
X1810Y1472D02*
Y1547D01*
X2632Y1525D02*
Y1625D01*
X2427Y1525D02*
Y1625D01*
X2557Y1525D02*
X2632D01*
X2557Y1625D02*
X2632D01*
X2427D02*
X2502D01*
X2427Y1525D02*
X2502D01*
X3168Y1565D02*
Y1665D01*
X3373Y1565D02*
Y1665D01*
X3168D02*
X3243D01*
X3168Y1565D02*
X3243D01*
X3298D02*
X3373D01*
X3298Y1665D02*
X3373D01*
X2665Y1557D02*
X2710D01*
X2665Y1672D02*
X2710D01*
X2665Y1557D02*
Y1577D01*
X2755Y1612D02*
Y1617D01*
X2665Y1652D02*
Y1672D01*
X1812Y2214D02*
Y2259D01*
X1927Y2214D02*
Y2259D01*
X1812D02*
X1832D01*
X1867Y2169D02*
X1872D01*
X1907Y2259D02*
X1927D01*
X1642Y2120D02*
Y2165D01*
X1757Y2120D02*
Y2165D01*
X1642D02*
X1662D01*
X1697Y2075D02*
X1702D01*
X1737Y2165D02*
X1757D01*
X2428Y1425D02*
Y1525D01*
X2633Y1425D02*
Y1525D01*
X2428D02*
X2503D01*
X2428Y1425D02*
X2503D01*
X2558D02*
X2633D01*
X2558Y1525D02*
X2633D01*
X1930Y2247D02*
X2030D01*
X1930Y2042D02*
X2030D01*
Y2172D02*
Y2247D01*
X1930Y2172D02*
Y2247D01*
Y2042D02*
Y2117D01*
X2030Y2042D02*
Y2117D01*
X3295Y1985D02*
Y2045D01*
X3205Y1985D02*
Y2045D01*
Y2085D02*
Y2145D01*
X3295Y2085D02*
Y2145D01*
X3205Y1985D02*
X3295D01*
X3205Y2145D02*
X3295D01*
X2750Y2140D02*
X2810D01*
X2750Y2050D02*
X2810D01*
X2650D02*
X2710D01*
X2650Y2140D02*
X2710D01*
X2810Y2050D02*
Y2140D01*
X2650Y2050D02*
Y2140D01*
X2730Y1520D02*
X2790D01*
X2730Y1430D02*
X2790D01*
X2630D02*
X2690D01*
X2630Y1520D02*
X2690D01*
X2790Y1430D02*
Y1520D01*
X2630Y1430D02*
Y1520D01*
X1550Y1685D02*
X1610D01*
X1550Y1595D02*
X1610D01*
X1450D02*
X1510D01*
X1450Y1685D02*
X1510D01*
X1610Y1595D02*
Y1685D01*
X1450Y1595D02*
Y1685D01*
X2435Y1365D02*
Y1425D01*
X2525Y1365D02*
Y1425D01*
Y1265D02*
Y1325D01*
X2435Y1265D02*
Y1325D01*
Y1425D02*
X2525D01*
X2435Y1265D02*
X2525D01*
X1970Y1860D02*
X2030D01*
X1970Y1770D02*
X2030D01*
X1870D02*
X1930D01*
X1870Y1860D02*
X1930D01*
X2030Y1770D02*
Y1860D01*
X1870Y1770D02*
Y1860D01*
X3615Y2235D02*
Y2295D01*
X3705Y2235D02*
Y2295D01*
Y2135D02*
Y2195D01*
X3615Y2135D02*
Y2195D01*
Y2295D02*
X3705D01*
X3615Y2135D02*
X3705D01*
X1710Y1860D02*
X1770D01*
X1710Y1770D02*
X1770D01*
X1610D02*
X1670D01*
X1610Y1860D02*
X1670D01*
X1770Y1770D02*
Y1860D01*
X1610Y1770D02*
Y1860D01*
X1228Y1669D02*
X1248D01*
X1188Y1579D02*
X1193D01*
X1133Y1669D02*
X1153D01*
X1248Y1624D02*
Y1669D01*
X1133Y1624D02*
Y1669D01*
X3702Y427D02*
Y517D01*
X3542Y427D02*
Y517D01*
X3642Y427D02*
X3702D01*
X3642Y517D02*
X3702D01*
X3542D02*
X3602D01*
X3542Y427D02*
X3602D01*
X3702Y624D02*
Y714D01*
X3542Y624D02*
Y714D01*
X3642Y624D02*
X3702D01*
X3642Y714D02*
X3702D01*
X3542D02*
X3602D01*
X3542Y624D02*
X3602D01*
X3702Y821D02*
Y911D01*
X3542Y821D02*
Y911D01*
X3642Y821D02*
X3702D01*
X3642Y911D02*
X3702D01*
X3542D02*
X3602D01*
X3542Y821D02*
X3602D01*
X3702Y1018D02*
Y1108D01*
X3542Y1018D02*
Y1108D01*
X3642Y1018D02*
X3702D01*
X3642Y1108D02*
X3702D01*
X3542D02*
X3602D01*
X3542Y1018D02*
X3602D01*
X3702Y1215D02*
Y1305D01*
X3542Y1215D02*
Y1305D01*
X3642Y1215D02*
X3702D01*
X3642Y1305D02*
X3702D01*
X3542D02*
X3602D01*
X3542Y1215D02*
X3602D01*
X3702Y2307D02*
Y2397D01*
X3542Y2307D02*
Y2397D01*
X3642Y2307D02*
X3702D01*
X3642Y2397D02*
X3702D01*
X3542D02*
X3602D01*
X3542Y2307D02*
X3602D01*
X3702Y2514D02*
Y2604D01*
X3542Y2514D02*
Y2604D01*
X3642Y2514D02*
X3702D01*
X3642Y2604D02*
X3702D01*
X3542D02*
X3602D01*
X3542Y2514D02*
X3602D01*
X3702Y2711D02*
Y2801D01*
X3542Y2711D02*
Y2801D01*
X3642Y2711D02*
X3702D01*
X3642Y2801D02*
X3702D01*
X3542D02*
X3602D01*
X3542Y2711D02*
X3602D01*
X3702Y2908D02*
Y2998D01*
X3542Y2908D02*
Y2998D01*
X3642Y2908D02*
X3702D01*
X3642Y2998D02*
X3702D01*
X3542D02*
X3602D01*
X3542Y2908D02*
X3602D01*
X3702Y3105D02*
Y3195D01*
X3542Y3105D02*
Y3195D01*
X3642Y3105D02*
X3702D01*
X3642Y3195D02*
X3702D01*
X3542D02*
X3602D01*
X3542Y3105D02*
X3602D01*
X1825Y3604D02*
X1915D01*
X1825Y3444D02*
X1915D01*
Y3544D02*
Y3604D01*
X1825Y3544D02*
Y3604D01*
Y3444D02*
Y3504D01*
X1915Y3444D02*
Y3504D01*
X2065Y3885D02*
X2155D01*
X2065Y4045D02*
X2155D01*
X2065Y3885D02*
Y3945D01*
X2155Y3885D02*
Y3945D01*
Y3985D02*
Y4045D01*
X2065Y3985D02*
Y4045D01*
X1325Y3447D02*
X1415D01*
X1325Y3607D02*
X1415D01*
X1325Y3447D02*
Y3507D01*
X1415Y3447D02*
Y3507D01*
Y3547D02*
Y3607D01*
X1325Y3547D02*
Y3607D01*
X1415Y4045D02*
X1505D01*
X1415Y3885D02*
X1505D01*
Y3985D02*
Y4045D01*
X1415Y3985D02*
Y4045D01*
Y3885D02*
Y3945D01*
X1505Y3885D02*
Y3945D01*
X609Y1668D02*
X669D01*
X609Y1758D02*
X669D01*
X709D02*
X769D01*
X709Y1668D02*
X769D01*
X609D02*
Y1758D01*
X769Y1668D02*
Y1758D01*
X2435Y1034D02*
Y1094D01*
X2525Y1034D02*
Y1094D01*
Y934D02*
Y994D01*
X2435Y934D02*
Y994D01*
Y1094D02*
X2525D01*
X2435Y934D02*
X2525D01*
X445Y3640D02*
Y3700D01*
X535Y3640D02*
Y3700D01*
Y3540D02*
Y3600D01*
X445Y3540D02*
Y3600D01*
Y3700D02*
X535D01*
X445Y3540D02*
X535D01*
X535Y547D02*
Y607D01*
X445Y547D02*
Y607D01*
Y647D02*
Y707D01*
X535Y647D02*
Y707D01*
X445Y547D02*
X535D01*
X445Y707D02*
X535D01*
X625Y547D02*
Y607D01*
X535Y547D02*
Y607D01*
Y647D02*
Y707D01*
X625Y647D02*
Y707D01*
X535Y547D02*
X625D01*
X535Y707D02*
X625D01*
X315Y664D02*
Y684D01*
X405Y624D02*
Y629D01*
X315Y569D02*
Y589D01*
Y684D02*
X360D01*
X315Y569D02*
X360D01*
X638Y537D02*
Y637D01*
X843Y537D02*
Y637D01*
X638D02*
X713D01*
X638Y537D02*
X713D01*
X768D02*
X843D01*
X768Y637D02*
X843D01*
X960Y632D02*
X1020D01*
X960Y542D02*
X1020D01*
X860D02*
X920D01*
X860Y632D02*
X920D01*
X1020Y542D02*
Y632D01*
X860Y542D02*
Y632D01*
X1200Y319D02*
X1300D01*
X1200Y114D02*
X1300D01*
Y244D02*
Y319D01*
X1200Y244D02*
Y319D01*
Y114D02*
Y189D01*
X1300Y114D02*
Y189D01*
X1515Y117D02*
Y177D01*
X1425Y117D02*
Y177D01*
Y217D02*
Y277D01*
X1515Y217D02*
Y277D01*
X1425Y117D02*
X1515D01*
X1425Y277D02*
X1515D01*
X990Y1062D02*
X1050D01*
X990Y972D02*
X1050D01*
X890D02*
X950D01*
X890Y1062D02*
X950D01*
X1050Y972D02*
Y1062D01*
X890Y972D02*
Y1062D01*
X1425Y117D02*
Y177D01*
X1335Y117D02*
Y177D01*
Y217D02*
Y277D01*
X1425Y217D02*
Y277D01*
X1335Y117D02*
X1425D01*
X1335Y277D02*
X1425D01*
X2162Y1350D02*
Y1450D01*
X2397Y1350D02*
Y1450D01*
X2162D02*
X2237D01*
X2162Y1350D02*
X2237D01*
X2322D02*
X2397D01*
X2322Y1450D02*
X2397D01*
X1865Y3842D02*
X1955D01*
X1865Y4032D02*
X1955D01*
X1865Y3842D02*
Y3917D01*
X1955Y3842D02*
Y3917D01*
Y3957D02*
Y4032D01*
X1865Y3957D02*
Y4032D01*
X1995Y3602D02*
X2085D01*
X1995Y3412D02*
X2085D01*
Y3527D02*
Y3602D01*
X1995Y3527D02*
Y3602D01*
Y3412D02*
Y3487D01*
X2085Y3412D02*
Y3487D01*
X1525Y3515D02*
X1615D01*
X1525Y3325D02*
X1615D01*
Y3440D02*
Y3515D01*
X1525Y3440D02*
Y3515D01*
Y3325D02*
Y3400D01*
X1615Y3325D02*
Y3400D01*
X1080Y2137D02*
X1280D01*
Y2437D01*
X1080Y2137D02*
Y2437D01*
X1280D01*
X1080Y2337D02*
X1180D01*
Y2437D01*
X1475Y2707D02*
X1565D01*
X1475Y2867D02*
X1565D01*
X1475Y2707D02*
Y2767D01*
X1565Y2707D02*
Y2767D01*
Y2807D02*
Y2867D01*
X1475Y2807D02*
Y2867D01*
X3037Y1885D02*
Y1930D01*
X2922Y1885D02*
Y1930D01*
X3017Y1885D02*
X3037D01*
X2977Y1975D02*
X2982D01*
X2922Y1885D02*
X2942D01*
X1775Y2045D02*
X1865D01*
X1775Y1885D02*
X1865D01*
Y1985D02*
Y2045D01*
X1775Y1985D02*
Y2045D01*
Y1885D02*
Y1945D01*
X1865Y1885D02*
Y1945D01*
D82*
X-396Y6436D02*
Y6411D01*
Y6423D01*
X-379D01*
Y6436D01*
Y6411D01*
X-354Y6436D02*
X-371D01*
Y6411D01*
X-354D01*
X-371Y6423D02*
X-363D01*
X-346Y6411D02*
Y6428D01*
X-338Y6436D01*
X-329Y6428D01*
Y6411D01*
Y6423D01*
X-346D01*
X-321Y6436D02*
Y6411D01*
X-309D01*
X-304Y6415D01*
Y6432D01*
X-309Y6436D01*
X-321D01*
X767Y3420D02*
X784D01*
Y3416D01*
X767Y3399D01*
Y3395D01*
X784D01*
X792Y3420D02*
Y3395D01*
X804D01*
X809Y3399D01*
Y3403D01*
X804Y3408D01*
X792D01*
X804D01*
X809Y3412D01*
Y3416D01*
X804Y3420D01*
X792D01*
X829Y3395D02*
Y3420D01*
X817Y3408D01*
X834D01*
X3228Y4109D02*
X3244D01*
Y4105D01*
X3228Y4088D01*
Y4084D01*
X3244D01*
X3253Y4109D02*
Y4084D01*
X3265D01*
X3269Y4088D01*
Y4093D01*
X3265Y4097D01*
X3253D01*
X3265D01*
X3269Y4101D01*
Y4105D01*
X3265Y4109D01*
X3253D01*
X3278Y4105D02*
X3282Y4109D01*
X3290D01*
X3294Y4105D01*
Y4101D01*
X3290Y4097D01*
X3286D01*
X3290D01*
X3294Y4093D01*
Y4088D01*
X3290Y4084D01*
X3282D01*
X3278Y4088D01*
X2799Y491D02*
X2816D01*
Y487D01*
X2799Y471D01*
Y466D01*
X2816D01*
X2824Y491D02*
Y466D01*
X2837D01*
X2841Y471D01*
Y475D01*
X2837Y479D01*
X2824D01*
X2837D01*
X2841Y483D01*
Y487D01*
X2837Y491D01*
X2824D01*
X2866Y466D02*
X2849D01*
X2866Y483D01*
Y487D01*
X2862Y491D01*
X2854D01*
X2849Y487D01*
X78Y566D02*
X95D01*
Y562D01*
X78Y545D01*
Y541D01*
X95D01*
X103Y566D02*
Y541D01*
X115D01*
X120Y545D01*
Y549D01*
X115Y553D01*
X103D01*
X115D01*
X120Y557D01*
Y562D01*
X115Y566D01*
X103D01*
X128Y541D02*
X136D01*
X132D01*
Y566D01*
X128Y562D01*
X1093Y1900D02*
Y1880D01*
X1097Y1875D01*
X1105D01*
X1109Y1880D01*
Y1900D01*
X1134Y1875D02*
X1118D01*
X1134Y1892D01*
Y1896D01*
X1130Y1900D01*
X1122D01*
X1118Y1896D01*
X1143D02*
X1147Y1900D01*
X1155D01*
X1159Y1896D01*
Y1880D01*
X1155Y1875D01*
X1147D01*
X1143Y1880D01*
Y1896D01*
X1184Y1875D02*
X1168D01*
X1184Y1892D01*
Y1896D01*
X1180Y1900D01*
X1172D01*
X1168Y1896D01*
X2883Y2060D02*
X2858D01*
Y2073D01*
X2862Y2077D01*
X2870D01*
X2874Y2073D01*
Y2060D01*
Y2069D02*
X2883Y2077D01*
Y2102D02*
Y2085D01*
X2866Y2102D01*
X2862D01*
X2858Y2098D01*
Y2089D01*
X2862Y2085D01*
X2858Y2127D02*
X2862Y2119D01*
X2870Y2110D01*
X2879D01*
X2883Y2114D01*
Y2123D01*
X2879Y2127D01*
X2874D01*
X2870Y2123D01*
Y2110D01*
X2862Y2135D02*
X2858Y2139D01*
Y2148D01*
X2862Y2152D01*
X2879D01*
X2883Y2148D01*
Y2139D01*
X2879Y2135D01*
X2862D01*
X3045Y1575D02*
Y1600D01*
X3057D01*
X3062Y1595D01*
Y1587D01*
X3057Y1583D01*
X3045D01*
X3053D02*
X3062Y1575D01*
X3087D02*
X3070D01*
X3087Y1591D01*
Y1595D01*
X3082Y1600D01*
X3074D01*
X3070Y1595D01*
X3112Y1600D02*
X3095D01*
Y1587D01*
X3103Y1591D01*
X3107D01*
X3112Y1587D01*
Y1579D01*
X3107Y1575D01*
X3099D01*
X3095Y1579D01*
X3120D02*
X3124Y1575D01*
X3132D01*
X3137Y1579D01*
Y1595D01*
X3132Y1600D01*
X3124D01*
X3120Y1595D01*
Y1591D01*
X3124Y1587D01*
X3137D01*
X3005Y2035D02*
X2980D01*
Y2047D01*
X2984Y2052D01*
X2993D01*
X2997Y2047D01*
Y2035D01*
Y2043D02*
X3005Y2052D01*
Y2077D02*
Y2060D01*
X2988Y2077D01*
X2984D01*
X2980Y2072D01*
Y2064D01*
X2984Y2060D01*
X2980Y2102D02*
Y2085D01*
X2993D01*
X2988Y2093D01*
Y2097D01*
X2993Y2102D01*
X3001D01*
X3005Y2097D01*
Y2089D01*
X3001Y2085D01*
X2984Y2110D02*
X2980Y2114D01*
Y2122D01*
X2984Y2127D01*
X2988D01*
X2993Y2122D01*
X2997Y2127D01*
X3001D01*
X3005Y2122D01*
Y2114D01*
X3001Y2110D01*
X2997D01*
X2993Y2114D01*
X2988Y2110D01*
X2984D01*
X2993Y2114D02*
Y2122D01*
X2859Y1715D02*
X2834D01*
Y1727D01*
X2838Y1732D01*
X2847D01*
X2851Y1727D01*
Y1715D01*
Y1723D02*
X2859Y1732D01*
Y1757D02*
Y1740D01*
X2843Y1757D01*
X2838D01*
X2834Y1752D01*
Y1744D01*
X2838Y1740D01*
X2834Y1782D02*
Y1765D01*
X2847D01*
X2843Y1773D01*
Y1777D01*
X2847Y1782D01*
X2855D01*
X2859Y1777D01*
Y1769D01*
X2855Y1765D01*
X2834Y1790D02*
Y1807D01*
X2838D01*
X2855Y1790D01*
X2859D01*
X1678Y2210D02*
X1653D01*
Y2222D01*
X1657Y2226D01*
X1666D01*
X1670Y2222D01*
Y2210D01*
Y2218D02*
X1678Y2226D01*
Y2251D02*
Y2235D01*
X1661Y2251D01*
X1657D01*
X1653Y2247D01*
Y2239D01*
X1657Y2235D01*
X1653Y2276D02*
Y2260D01*
X1666D01*
X1661Y2268D01*
Y2272D01*
X1666Y2276D01*
X1674D01*
X1678Y2272D01*
Y2264D01*
X1674Y2260D01*
X1653Y2301D02*
X1657Y2293D01*
X1666Y2285D01*
X1674D01*
X1678Y2289D01*
Y2297D01*
X1674Y2301D01*
X1670D01*
X1666Y2297D01*
Y2285D01*
X1774Y2210D02*
X1749D01*
Y2222D01*
X1754Y2226D01*
X1762D01*
X1766Y2222D01*
Y2210D01*
Y2218D02*
X1774Y2226D01*
Y2251D02*
Y2235D01*
X1758Y2251D01*
X1754D01*
X1749Y2247D01*
Y2239D01*
X1754Y2235D01*
X1749Y2276D02*
Y2260D01*
X1762D01*
X1758Y2268D01*
Y2272D01*
X1762Y2276D01*
X1770D01*
X1774Y2272D01*
Y2264D01*
X1770Y2260D01*
X1749Y2301D02*
Y2285D01*
X1762D01*
X1758Y2293D01*
Y2297D01*
X1762Y2301D01*
X1770D01*
X1774Y2297D01*
Y2289D01*
X1770Y2285D01*
X969Y1886D02*
X965Y1882D01*
Y1874D01*
X969Y1870D01*
X986D01*
X990Y1874D01*
Y1882D01*
X986Y1886D01*
X990Y1911D02*
Y1895D01*
X973Y1911D01*
X969D01*
X965Y1907D01*
Y1899D01*
X969Y1895D01*
X990Y1920D02*
Y1928D01*
Y1924D01*
X965D01*
X969Y1920D01*
X990Y1953D02*
X965D01*
X978Y1940D01*
Y1957D01*
X1918Y2590D02*
Y2570D01*
X1922Y2565D01*
X1930D01*
X1934Y2570D01*
Y2590D01*
X1959Y2565D02*
X1943D01*
X1959Y2582D01*
Y2586D01*
X1955Y2590D01*
X1947D01*
X1943Y2586D01*
X1968D02*
X1972Y2590D01*
X1980D01*
X1984Y2586D01*
Y2570D01*
X1980Y2565D01*
X1972D01*
X1968Y2570D01*
Y2586D01*
X1993D02*
X1997Y2590D01*
X2005D01*
X2009Y2586D01*
Y2570D01*
X2005Y2565D01*
X1997D01*
X1993Y2570D01*
Y2586D01*
X2905Y3182D02*
X2901Y3178D01*
Y3169D01*
X2905Y3165D01*
X2921D01*
X2926Y3169D01*
Y3178D01*
X2921Y3182D01*
X2926Y3190D02*
Y3199D01*
Y3194D01*
X2901D01*
X2905Y3190D01*
Y3211D02*
X2901Y3215D01*
Y3224D01*
X2905Y3228D01*
X2921D01*
X2926Y3224D01*
Y3215D01*
X2921Y3211D01*
X2905D01*
Y3236D02*
X2901Y3240D01*
Y3249D01*
X2905Y3253D01*
X2921D01*
X2926Y3249D01*
Y3240D01*
X2921Y3236D01*
X2905D01*
X3269Y2674D02*
X3265Y2670D01*
Y2662D01*
X3269Y2657D01*
X3286D01*
X3290Y2662D01*
Y2670D01*
X3286Y2674D01*
X3290Y2682D02*
Y2691D01*
Y2687D01*
X3265D01*
X3269Y2682D01*
Y2703D02*
X3265Y2707D01*
Y2716D01*
X3269Y2720D01*
X3286D01*
X3290Y2716D01*
Y2707D01*
X3286Y2703D01*
X3269D01*
X3290Y2728D02*
Y2737D01*
Y2732D01*
X3265D01*
X3269Y2728D01*
X3269Y2877D02*
X3265Y2873D01*
Y2864D01*
X3269Y2860D01*
X3286D01*
X3290Y2864D01*
Y2873D01*
X3286Y2877D01*
X3290Y2885D02*
Y2893D01*
Y2889D01*
X3265D01*
X3269Y2885D01*
Y2906D02*
X3265Y2910D01*
Y2918D01*
X3269Y2923D01*
X3286D01*
X3290Y2918D01*
Y2910D01*
X3286Y2906D01*
X3269D01*
X3290Y2948D02*
Y2931D01*
X3273Y2948D01*
X3269D01*
X3265Y2943D01*
Y2935D01*
X3269Y2931D01*
X2977Y1495D02*
X2972Y1500D01*
X2964D01*
X2960Y1495D01*
Y1479D01*
X2964Y1475D01*
X2972D01*
X2977Y1479D01*
X2985Y1475D02*
X2993D01*
X2989D01*
Y1500D01*
X2985Y1495D01*
X3006D02*
X3010Y1500D01*
X3018D01*
X3022Y1495D01*
Y1479D01*
X3018Y1475D01*
X3010D01*
X3006Y1479D01*
Y1495D01*
X3031D02*
X3035Y1500D01*
X3043D01*
X3047Y1495D01*
Y1491D01*
X3043Y1487D01*
X3039D01*
X3043D01*
X3047Y1483D01*
Y1479D01*
X3043Y1475D01*
X3035D01*
X3031Y1479D01*
X3320Y790D02*
X3316Y786D01*
Y777D01*
X3320Y773D01*
X3336D01*
X3340Y777D01*
Y786D01*
X3336Y790D01*
X3340Y798D02*
Y806D01*
Y802D01*
X3316D01*
X3320Y798D01*
Y819D02*
X3316Y823D01*
Y831D01*
X3320Y836D01*
X3336D01*
X3340Y831D01*
Y823D01*
X3336Y819D01*
X3320D01*
X3340Y856D02*
X3316D01*
X3328Y844D01*
Y861D01*
X3320Y997D02*
X3315Y993D01*
Y984D01*
X3320Y980D01*
X3336D01*
X3340Y984D01*
Y993D01*
X3336Y997D01*
X3340Y1005D02*
Y1014D01*
Y1009D01*
X3315D01*
X3320Y1005D01*
Y1026D02*
X3315Y1030D01*
Y1039D01*
X3320Y1043D01*
X3336D01*
X3340Y1039D01*
Y1030D01*
X3336Y1026D01*
X3320D01*
X3315Y1068D02*
Y1051D01*
X3328D01*
X3324Y1059D01*
Y1064D01*
X3328Y1068D01*
X3336D01*
X3340Y1064D01*
Y1055D01*
X3336Y1051D01*
X3284Y3161D02*
X3280Y3165D01*
X3272D01*
X3268Y3161D01*
Y3144D01*
X3272Y3140D01*
X3280D01*
X3284Y3144D01*
X3293Y3140D02*
X3301D01*
X3297D01*
Y3165D01*
X3293Y3161D01*
X3314D02*
X3318Y3165D01*
X3326D01*
X3330Y3161D01*
Y3144D01*
X3326Y3140D01*
X3318D01*
X3314Y3144D01*
Y3161D01*
X3355Y3165D02*
X3347Y3161D01*
X3339Y3152D01*
Y3144D01*
X3343Y3140D01*
X3351D01*
X3355Y3144D01*
Y3148D01*
X3351Y3152D01*
X3339D01*
X3284Y3072D02*
X3280Y3076D01*
X3272D01*
X3268Y3072D01*
Y3055D01*
X3272Y3051D01*
X3280D01*
X3284Y3055D01*
X3293Y3051D02*
X3301D01*
X3297D01*
Y3076D01*
X3293Y3072D01*
X3314D02*
X3318Y3076D01*
X3326D01*
X3330Y3072D01*
Y3055D01*
X3326Y3051D01*
X3318D01*
X3314Y3055D01*
Y3072D01*
X3339Y3076D02*
X3355D01*
Y3072D01*
X3339Y3055D01*
Y3051D01*
X3412Y2363D02*
X3408Y2368D01*
X3400D01*
X3396Y2363D01*
Y2347D01*
X3400Y2343D01*
X3408D01*
X3412Y2347D01*
X3421Y2343D02*
X3429D01*
X3425D01*
Y2368D01*
X3421Y2363D01*
X3441D02*
X3446Y2368D01*
X3454D01*
X3458Y2363D01*
Y2347D01*
X3454Y2343D01*
X3446D01*
X3441Y2347D01*
Y2363D01*
X3466D02*
X3471Y2368D01*
X3479D01*
X3483Y2363D01*
Y2359D01*
X3479Y2355D01*
X3483Y2351D01*
Y2347D01*
X3479Y2343D01*
X3471D01*
X3466Y2347D01*
Y2351D01*
X3471Y2355D01*
X3466Y2359D01*
Y2363D01*
X3471Y2355D02*
X3479D01*
X3275Y1281D02*
X3271Y1285D01*
X3263D01*
X3259Y1281D01*
Y1264D01*
X3263Y1260D01*
X3271D01*
X3275Y1264D01*
X3284Y1260D02*
X3292D01*
X3288D01*
Y1285D01*
X3284Y1281D01*
X3305D02*
X3309Y1285D01*
X3317D01*
X3321Y1281D01*
Y1264D01*
X3317Y1260D01*
X3309D01*
X3305Y1264D01*
Y1281D01*
X3330Y1264D02*
X3334Y1260D01*
X3342D01*
X3346Y1264D01*
Y1281D01*
X3342Y1285D01*
X3334D01*
X3330Y1281D01*
Y1276D01*
X3334Y1272D01*
X3346D01*
X3427Y1188D02*
X3423Y1192D01*
X3414D01*
X3410Y1188D01*
Y1171D01*
X3414Y1167D01*
X3423D01*
X3427Y1171D01*
X3435Y1167D02*
X3444D01*
X3439D01*
Y1192D01*
X3435Y1188D01*
X3456Y1167D02*
X3464D01*
X3460D01*
Y1192D01*
X3456Y1188D01*
X3477D02*
X3481Y1192D01*
X3489D01*
X3494Y1188D01*
Y1171D01*
X3489Y1167D01*
X3481D01*
X3477Y1171D01*
Y1188D01*
X3375Y481D02*
X3371Y485D01*
X3363D01*
X3359Y481D01*
Y464D01*
X3363Y460D01*
X3371D01*
X3375Y464D01*
X3384Y460D02*
X3392D01*
X3388D01*
Y485D01*
X3384Y481D01*
X3404Y460D02*
X3413D01*
X3409D01*
Y485D01*
X3404Y481D01*
X3425Y460D02*
X3434D01*
X3429D01*
Y485D01*
X3425Y481D01*
X912Y1576D02*
X908Y1580D01*
X900D01*
X896Y1576D01*
Y1559D01*
X900Y1555D01*
X908D01*
X912Y1559D01*
X921Y1555D02*
X929D01*
X925D01*
Y1580D01*
X921Y1576D01*
X941Y1555D02*
X950D01*
X946D01*
Y1580D01*
X941Y1576D01*
X979Y1555D02*
X962D01*
X979Y1572D01*
Y1576D01*
X975Y1580D01*
X966D01*
X962Y1576D01*
X1055Y1599D02*
X1051Y1595D01*
Y1586D01*
X1055Y1582D01*
X1072D01*
X1076Y1586D01*
Y1595D01*
X1072Y1599D01*
X1076Y1607D02*
Y1616D01*
Y1611D01*
X1051D01*
X1055Y1607D01*
X1076Y1628D02*
Y1636D01*
Y1632D01*
X1051D01*
X1055Y1628D01*
Y1649D02*
X1051Y1653D01*
Y1661D01*
X1055Y1665D01*
X1059D01*
X1063Y1661D01*
Y1657D01*
Y1661D01*
X1067Y1665D01*
X1072D01*
X1076Y1661D01*
Y1653D01*
X1072Y1649D01*
X827Y4028D02*
X822Y4032D01*
X814D01*
X810Y4028D01*
Y4011D01*
X814Y4007D01*
X822D01*
X827Y4011D01*
X835Y4007D02*
X843D01*
X839D01*
Y4032D01*
X835Y4028D01*
X856Y4007D02*
X864D01*
X860D01*
Y4032D01*
X856Y4028D01*
X889Y4007D02*
Y4032D01*
X877Y4019D01*
X893D01*
X1202Y675D02*
X1197Y670D01*
Y662D01*
X1202Y658D01*
X1218D01*
X1222Y662D01*
Y670D01*
X1218Y675D01*
X1222Y683D02*
Y691D01*
Y687D01*
X1197D01*
X1202Y683D01*
X1222Y704D02*
Y712D01*
Y708D01*
X1197D01*
X1202Y704D01*
X1197Y741D02*
Y725D01*
X1210D01*
X1206Y733D01*
Y737D01*
X1210Y741D01*
X1218D01*
X1222Y737D01*
Y729D01*
X1218Y725D01*
X2264Y1496D02*
X2260Y1492D01*
Y1484D01*
X2264Y1480D01*
X2281D01*
X2285Y1484D01*
Y1492D01*
X2281Y1496D01*
X2285Y1521D02*
Y1505D01*
X2268Y1521D01*
X2264D01*
X2260Y1517D01*
Y1509D01*
X2264Y1505D01*
Y1530D02*
X2260Y1534D01*
Y1542D01*
X2264Y1546D01*
X2281D01*
X2285Y1542D01*
Y1534D01*
X2281Y1530D01*
X2264D01*
X2285Y1555D02*
Y1563D01*
Y1559D01*
X2260D01*
X2264Y1555D01*
X2181Y2003D02*
X2177Y2007D01*
X2169D01*
X2164Y2003D01*
Y1986D01*
X2169Y1982D01*
X2177D01*
X2181Y1986D01*
X2206Y1982D02*
X2189D01*
X2206Y1999D01*
Y2003D01*
X2202Y2007D01*
X2194D01*
X2189Y2003D01*
X2214D02*
X2219Y2007D01*
X2227D01*
X2231Y2003D01*
Y1986D01*
X2227Y1982D01*
X2219D01*
X2214Y1986D01*
Y2003D01*
X2256Y1982D02*
X2239D01*
X2256Y1999D01*
Y2003D01*
X2252Y2007D01*
X2244D01*
X2239Y2003D01*
X2181Y1823D02*
X2177Y1827D01*
X2169D01*
X2164Y1823D01*
Y1806D01*
X2169Y1802D01*
X2177D01*
X2181Y1806D01*
X2206Y1802D02*
X2189D01*
X2206Y1819D01*
Y1823D01*
X2202Y1827D01*
X2194D01*
X2189Y1823D01*
X2214D02*
X2219Y1827D01*
X2227D01*
X2231Y1823D01*
Y1806D01*
X2227Y1802D01*
X2219D01*
X2214Y1806D01*
Y1823D01*
X2239Y1827D02*
X2256D01*
Y1823D01*
X2239Y1806D01*
Y1802D01*
X2333Y2195D02*
X2328Y2199D01*
X2320D01*
X2316Y2195D01*
Y2178D01*
X2320Y2174D01*
X2328D01*
X2333Y2178D01*
X2358Y2174D02*
X2341D01*
X2358Y2191D01*
Y2195D01*
X2353Y2199D01*
X2345D01*
X2341Y2195D01*
X2366D02*
X2370Y2199D01*
X2378D01*
X2383Y2195D01*
Y2178D01*
X2378Y2174D01*
X2370D01*
X2366Y2178D01*
Y2195D01*
X2391D02*
X2395Y2199D01*
X2403D01*
X2408Y2195D01*
Y2191D01*
X2403Y2186D01*
X2408Y2182D01*
Y2178D01*
X2403Y2174D01*
X2395D01*
X2391Y2178D01*
Y2182D01*
X2395Y2186D01*
X2391Y2191D01*
Y2195D01*
X2395Y2186D02*
X2403D01*
X2077Y3062D02*
X2073Y3057D01*
Y3049D01*
X2077Y3045D01*
X2094D01*
X2098Y3049D01*
Y3057D01*
X2094Y3062D01*
X2098Y3087D02*
Y3070D01*
X2081Y3087D01*
X2077D01*
X2073Y3082D01*
Y3074D01*
X2077Y3070D01*
X2098Y3095D02*
Y3103D01*
Y3099D01*
X2073D01*
X2077Y3095D01*
X2098Y3132D02*
Y3116D01*
X2081Y3132D01*
X2077D01*
X2073Y3128D01*
Y3120D01*
X2077Y3116D01*
X1635Y3226D02*
X1631Y3230D01*
X1623D01*
X1618Y3226D01*
Y3210D01*
X1623Y3205D01*
X1631D01*
X1635Y3210D01*
X1660Y3205D02*
X1643D01*
X1660Y3222D01*
Y3226D01*
X1656Y3230D01*
X1648D01*
X1643Y3226D01*
X1668Y3205D02*
X1677D01*
X1673D01*
Y3230D01*
X1668Y3226D01*
X1689D02*
X1693Y3230D01*
X1702D01*
X1706Y3226D01*
Y3222D01*
X1702Y3218D01*
X1698D01*
X1702D01*
X1706Y3214D01*
Y3210D01*
X1702Y3205D01*
X1693D01*
X1689Y3210D01*
X3167Y2641D02*
X3192D01*
Y2653D01*
X3188Y2657D01*
X3171D01*
X3167Y2653D01*
Y2641D01*
X3171Y2682D02*
X3167Y2678D01*
Y2670D01*
X3171Y2666D01*
X3175D01*
X3180Y2670D01*
Y2678D01*
X3184Y2682D01*
X3188D01*
X3192Y2678D01*
Y2670D01*
X3188Y2666D01*
X3192Y2691D02*
Y2699D01*
Y2695D01*
X3167D01*
X3171Y2691D01*
Y2712D02*
X3167Y2716D01*
Y2724D01*
X3171Y2728D01*
X3188D01*
X3192Y2724D01*
Y2716D01*
X3188Y2712D01*
X3171D01*
Y2737D02*
X3167Y2741D01*
Y2749D01*
X3171Y2753D01*
X3188D01*
X3192Y2749D01*
Y2741D01*
X3188Y2737D01*
X3171D01*
X3227Y764D02*
X3252D01*
Y777D01*
X3248Y781D01*
X3231D01*
X3227Y777D01*
Y764D01*
X3231Y806D02*
X3227Y802D01*
Y794D01*
X3231Y789D01*
X3235D01*
X3240Y794D01*
Y802D01*
X3244Y806D01*
X3248D01*
X3252Y802D01*
Y794D01*
X3248Y789D01*
X3252Y814D02*
Y823D01*
Y819D01*
X3227D01*
X3231Y814D01*
Y835D02*
X3227Y839D01*
Y848D01*
X3231Y852D01*
X3248D01*
X3252Y848D01*
Y839D01*
X3248Y835D01*
X3231D01*
X3252Y860D02*
Y869D01*
Y864D01*
X3227D01*
X3231Y860D01*
X699Y1482D02*
Y1457D01*
X711D01*
X715Y1461D01*
Y1478D01*
X711Y1482D01*
X699D01*
X740Y1478D02*
X736Y1482D01*
X728D01*
X724Y1478D01*
Y1473D01*
X728Y1469D01*
X736D01*
X740Y1465D01*
Y1461D01*
X736Y1457D01*
X728D01*
X724Y1461D01*
X749Y1457D02*
X757D01*
X753D01*
Y1482D01*
X749Y1478D01*
X770D02*
X774Y1482D01*
X782D01*
X786Y1478D01*
Y1461D01*
X782Y1457D01*
X774D01*
X770Y1461D01*
Y1478D01*
X811Y1457D02*
X795D01*
X811Y1473D01*
Y1478D01*
X807Y1482D01*
X799D01*
X795Y1478D01*
X652Y1617D02*
Y1592D01*
X665D01*
X669Y1596D01*
Y1613D01*
X665Y1617D01*
X652D01*
X694Y1613D02*
X690Y1617D01*
X681D01*
X677Y1613D01*
Y1608D01*
X681Y1604D01*
X690D01*
X694Y1600D01*
Y1596D01*
X690Y1592D01*
X681D01*
X677Y1596D01*
X702Y1592D02*
X710D01*
X706D01*
Y1617D01*
X702Y1613D01*
X723D02*
X727Y1617D01*
X735D01*
X740Y1613D01*
Y1596D01*
X735Y1592D01*
X727D01*
X723Y1596D01*
Y1613D01*
X748D02*
X752Y1617D01*
X760D01*
X765Y1613D01*
Y1608D01*
X760Y1604D01*
X756D01*
X760D01*
X765Y1600D01*
Y1596D01*
X760Y1592D01*
X752D01*
X748Y1596D01*
X1132Y1619D02*
Y1594D01*
X1144D01*
X1149Y1599D01*
Y1615D01*
X1144Y1619D01*
X1132D01*
X1174Y1615D02*
X1169Y1619D01*
X1161D01*
X1157Y1615D01*
Y1611D01*
X1161Y1607D01*
X1169D01*
X1174Y1603D01*
Y1599D01*
X1169Y1594D01*
X1161D01*
X1157Y1599D01*
X1182Y1594D02*
X1190D01*
X1186D01*
Y1619D01*
X1182Y1615D01*
X1203D02*
X1207Y1619D01*
X1215D01*
X1219Y1615D01*
Y1599D01*
X1215Y1594D01*
X1207D01*
X1203Y1599D01*
Y1615D01*
X1244Y1619D02*
X1228D01*
Y1607D01*
X1236Y1611D01*
X1240D01*
X1244Y1607D01*
Y1599D01*
X1240Y1594D01*
X1232D01*
X1228Y1599D01*
X1107Y1398D02*
X1132D01*
Y1410D01*
X1128Y1414D01*
X1111D01*
X1107Y1410D01*
Y1398D01*
X1111Y1439D02*
X1107Y1435D01*
Y1427D01*
X1111Y1423D01*
X1115D01*
X1119Y1427D01*
Y1435D01*
X1124Y1439D01*
X1128D01*
X1132Y1435D01*
Y1427D01*
X1128Y1423D01*
X1132Y1448D02*
Y1456D01*
Y1452D01*
X1107D01*
X1111Y1448D01*
Y1468D02*
X1107Y1473D01*
Y1481D01*
X1111Y1485D01*
X1128D01*
X1132Y1481D01*
Y1473D01*
X1128Y1468D01*
X1111D01*
X1107Y1510D02*
X1111Y1502D01*
X1119Y1493D01*
X1128D01*
X1132Y1498D01*
Y1506D01*
X1128Y1510D01*
X1124D01*
X1119Y1506D01*
Y1493D01*
X1475Y1459D02*
X1500D01*
Y1471D01*
X1496Y1475D01*
X1479D01*
X1475Y1471D01*
Y1459D01*
X1479Y1500D02*
X1475Y1496D01*
Y1488D01*
X1479Y1484D01*
X1483D01*
X1488Y1488D01*
Y1496D01*
X1492Y1500D01*
X1496D01*
X1500Y1496D01*
Y1488D01*
X1496Y1484D01*
X1500Y1509D02*
Y1517D01*
Y1513D01*
X1475D01*
X1479Y1509D01*
Y1529D02*
X1475Y1534D01*
Y1542D01*
X1479Y1546D01*
X1496D01*
X1500Y1542D01*
Y1534D01*
X1496Y1529D01*
X1479D01*
X1475Y1554D02*
Y1571D01*
X1479D01*
X1496Y1554D01*
X1500D01*
X2345Y1685D02*
X2370D01*
Y1697D01*
X2366Y1701D01*
X2349D01*
X2345Y1697D01*
Y1685D01*
X2349Y1726D02*
X2345Y1722D01*
Y1714D01*
X2349Y1710D01*
X2353D01*
X2358Y1714D01*
Y1722D01*
X2362Y1726D01*
X2366D01*
X2370Y1722D01*
Y1714D01*
X2366Y1710D01*
X2370Y1751D02*
Y1735D01*
X2353Y1751D01*
X2349D01*
X2345Y1747D01*
Y1739D01*
X2349Y1735D01*
Y1760D02*
X2345Y1764D01*
Y1772D01*
X2349Y1776D01*
X2366D01*
X2370Y1772D01*
Y1764D01*
X2366Y1760D01*
X2349D01*
Y1785D02*
X2345Y1789D01*
Y1797D01*
X2349Y1801D01*
X2366D01*
X2370Y1797D01*
Y1789D01*
X2366Y1785D01*
X2349D01*
X2060Y2080D02*
X2085D01*
Y2092D01*
X2081Y2096D01*
X2064D01*
X2060Y2092D01*
Y2080D01*
X2064Y2121D02*
X2060Y2117D01*
Y2109D01*
X2064Y2105D01*
X2068D01*
X2073Y2109D01*
Y2117D01*
X2077Y2121D01*
X2081D01*
X2085Y2117D01*
Y2109D01*
X2081Y2105D01*
X2085Y2146D02*
Y2130D01*
X2068Y2146D01*
X2064D01*
X2060Y2142D01*
Y2134D01*
X2064Y2130D01*
Y2155D02*
X2060Y2159D01*
Y2167D01*
X2064Y2171D01*
X2081D01*
X2085Y2167D01*
Y2159D01*
X2081Y2155D01*
X2064D01*
X2085Y2180D02*
Y2188D01*
Y2184D01*
X2060D01*
X2064Y2180D01*
X1542Y2008D02*
X1567D01*
Y2020D01*
X1563Y2024D01*
X1546D01*
X1542Y2020D01*
Y2008D01*
X1546Y2049D02*
X1542Y2045D01*
Y2037D01*
X1546Y2033D01*
X1550D01*
X1555Y2037D01*
Y2045D01*
X1559Y2049D01*
X1563D01*
X1567Y2045D01*
Y2037D01*
X1563Y2033D01*
X1567Y2074D02*
Y2058D01*
X1550Y2074D01*
X1546D01*
X1542Y2070D01*
Y2062D01*
X1546Y2058D01*
Y2083D02*
X1542Y2087D01*
Y2095D01*
X1546Y2099D01*
X1563D01*
X1567Y2095D01*
Y2087D01*
X1563Y2083D01*
X1546D01*
X1567Y2124D02*
Y2108D01*
X1550Y2124D01*
X1546D01*
X1542Y2120D01*
Y2112D01*
X1546Y2108D01*
X2159Y3155D02*
Y3130D01*
X2172D01*
X2176Y3134D01*
Y3151D01*
X2172Y3155D01*
X2159D01*
X2201Y3151D02*
X2197Y3155D01*
X2189D01*
X2184Y3151D01*
Y3147D01*
X2189Y3142D01*
X2197D01*
X2201Y3138D01*
Y3134D01*
X2197Y3130D01*
X2189D01*
X2184Y3134D01*
X2226Y3130D02*
X2209D01*
X2226Y3147D01*
Y3151D01*
X2222Y3155D01*
X2214D01*
X2209Y3151D01*
X2234D02*
X2239Y3155D01*
X2247D01*
X2251Y3151D01*
Y3134D01*
X2247Y3130D01*
X2239D01*
X2234Y3134D01*
Y3151D01*
X2276Y3155D02*
X2259D01*
Y3142D01*
X2268Y3147D01*
X2272D01*
X2276Y3142D01*
Y3134D01*
X2272Y3130D01*
X2264D01*
X2259Y3134D01*
X2501Y2349D02*
Y2324D01*
X2513D01*
X2518Y2328D01*
Y2344D01*
X2513Y2349D01*
X2501D01*
X2543Y2344D02*
X2538Y2349D01*
X2530D01*
X2526Y2344D01*
Y2340D01*
X2530Y2336D01*
X2538D01*
X2543Y2332D01*
Y2328D01*
X2538Y2324D01*
X2530D01*
X2526Y2328D01*
X2568Y2324D02*
X2551D01*
X2568Y2340D01*
Y2344D01*
X2563Y2349D01*
X2555D01*
X2551Y2344D01*
X2576D02*
X2580Y2349D01*
X2588D01*
X2593Y2344D01*
Y2328D01*
X2588Y2324D01*
X2580D01*
X2576Y2328D01*
Y2344D01*
X2618Y2349D02*
X2609Y2344D01*
X2601Y2336D01*
Y2328D01*
X2605Y2324D01*
X2613D01*
X2618Y2328D01*
Y2332D01*
X2613Y2336D01*
X2601D01*
X3553Y3352D02*
Y3327D01*
X3566D01*
X3570Y3331D01*
Y3348D01*
X3566Y3352D01*
X3553D01*
X3578D02*
X3595D01*
X3586D01*
Y3327D01*
X3603D02*
X3611D01*
X3607D01*
Y3352D01*
X3603Y3348D01*
X3624D02*
X3628Y3352D01*
X3636D01*
X3641Y3348D01*
Y3331D01*
X3636Y3327D01*
X3628D01*
X3624Y3331D01*
Y3348D01*
X3649D02*
X3653Y3352D01*
X3661D01*
X3666Y3348D01*
Y3331D01*
X3661Y3327D01*
X3653D01*
X3649Y3331D01*
Y3348D01*
X3553Y3549D02*
Y3524D01*
X3566D01*
X3570Y3528D01*
Y3544D01*
X3566Y3549D01*
X3553D01*
X3578D02*
X3595D01*
X3586D01*
Y3524D01*
X3603D02*
X3611D01*
X3607D01*
Y3549D01*
X3603Y3544D01*
X3624D02*
X3628Y3549D01*
X3636D01*
X3641Y3544D01*
Y3528D01*
X3636Y3524D01*
X3628D01*
X3624Y3528D01*
Y3544D01*
X3649Y3524D02*
X3657D01*
X3653D01*
Y3549D01*
X3649Y3544D01*
X3543Y3745D02*
Y3720D01*
X3556D01*
X3560Y3725D01*
Y3741D01*
X3556Y3745D01*
X3543D01*
X3568D02*
X3585D01*
X3577D01*
Y3720D01*
X3593D02*
X3602D01*
X3597D01*
Y3745D01*
X3593Y3741D01*
X3614D02*
X3618Y3745D01*
X3627D01*
X3631Y3741D01*
Y3725D01*
X3627Y3720D01*
X3618D01*
X3614Y3725D01*
Y3741D01*
X3656Y3720D02*
X3639D01*
X3656Y3737D01*
Y3741D01*
X3652Y3745D01*
X3643D01*
X3639Y3741D01*
X853Y3749D02*
Y3724D01*
X866D01*
X870Y3728D01*
Y3745D01*
X866Y3749D01*
X853D01*
X878D02*
X895D01*
X887D01*
Y3724D01*
X903D02*
X912D01*
X908D01*
Y3749D01*
X903Y3745D01*
X924D02*
X928Y3749D01*
X937D01*
X941Y3745D01*
Y3728D01*
X937Y3724D01*
X928D01*
X924Y3728D01*
Y3745D01*
X949D02*
X953Y3749D01*
X962D01*
X966Y3745D01*
Y3741D01*
X962Y3737D01*
X958D01*
X962D01*
X966Y3732D01*
Y3728D01*
X962Y3724D01*
X953D01*
X949Y3728D01*
X1338Y3908D02*
X1362D01*
Y3921D01*
X1358Y3925D01*
X1342D01*
X1338Y3921D01*
Y3908D01*
Y3933D02*
Y3950D01*
Y3941D01*
X1362D01*
Y3958D02*
Y3966D01*
Y3962D01*
X1338D01*
X1342Y3958D01*
Y3979D02*
X1338Y3983D01*
Y3991D01*
X1342Y3996D01*
X1358D01*
X1362Y3991D01*
Y3983D01*
X1358Y3979D01*
X1342D01*
X1362Y4016D02*
X1338D01*
X1350Y4004D01*
Y4021D01*
X1747Y3465D02*
X1772D01*
Y3477D01*
X1767Y3481D01*
X1751D01*
X1747Y3477D01*
Y3465D01*
Y3490D02*
Y3506D01*
Y3498D01*
X1772D01*
Y3515D02*
Y3523D01*
Y3519D01*
X1747D01*
X1751Y3515D01*
Y3535D02*
X1747Y3540D01*
Y3548D01*
X1751Y3552D01*
X1767D01*
X1772Y3548D01*
Y3540D01*
X1767Y3535D01*
X1751D01*
X1747Y3577D02*
Y3560D01*
X1759D01*
X1755Y3569D01*
Y3573D01*
X1759Y3577D01*
X1767D01*
X1772Y3573D01*
Y3565D01*
X1767Y3560D01*
X3553Y1462D02*
Y1437D01*
X3566D01*
X3570Y1441D01*
Y1458D01*
X3566Y1462D01*
X3553D01*
X3578D02*
X3595D01*
X3586D01*
Y1437D01*
X3603D02*
X3611D01*
X3607D01*
Y1462D01*
X3603Y1458D01*
X3624D02*
X3628Y1462D01*
X3636D01*
X3641Y1458D01*
Y1441D01*
X3636Y1437D01*
X3628D01*
X3624Y1441D01*
Y1458D01*
X3666Y1462D02*
X3657Y1458D01*
X3649Y1450D01*
Y1441D01*
X3653Y1437D01*
X3661D01*
X3666Y1441D01*
Y1445D01*
X3661Y1450D01*
X3649D01*
X3553Y1659D02*
Y1634D01*
X3566D01*
X3570Y1638D01*
Y1655D01*
X3566Y1659D01*
X3553D01*
X3578D02*
X3595D01*
X3586D01*
Y1634D01*
X3603D02*
X3611D01*
X3607D01*
Y1659D01*
X3603Y1655D01*
X3624D02*
X3628Y1659D01*
X3636D01*
X3641Y1655D01*
Y1638D01*
X3636Y1634D01*
X3628D01*
X3624Y1638D01*
Y1655D01*
X3649Y1659D02*
X3666D01*
Y1655D01*
X3649Y1638D01*
Y1634D01*
X3560Y1780D02*
Y1755D01*
X3573D01*
X3577Y1759D01*
Y1776D01*
X3573Y1780D01*
X3560D01*
X3585D02*
X3602D01*
X3594D01*
Y1755D01*
X3610D02*
X3619D01*
X3615D01*
Y1780D01*
X3610Y1776D01*
X3631D02*
X3635Y1780D01*
X3644D01*
X3648Y1776D01*
Y1759D01*
X3644Y1755D01*
X3635D01*
X3631Y1759D01*
Y1776D01*
X3656D02*
X3660Y1780D01*
X3669D01*
X3673Y1776D01*
Y1772D01*
X3669Y1767D01*
X3673Y1763D01*
Y1759D01*
X3669Y1755D01*
X3660D01*
X3656Y1759D01*
Y1763D01*
X3660Y1767D01*
X3656Y1772D01*
Y1776D01*
X3660Y1767D02*
X3669D01*
X1519Y3580D02*
Y3555D01*
X1532D01*
X1536Y3559D01*
Y3576D01*
X1532Y3580D01*
X1519D01*
X1544D02*
X1561D01*
X1553D01*
Y3555D01*
X1569D02*
X1578D01*
X1574D01*
Y3580D01*
X1569Y3576D01*
X1590D02*
X1594Y3580D01*
X1603D01*
X1607Y3576D01*
Y3559D01*
X1603Y3555D01*
X1594D01*
X1590Y3559D01*
Y3576D01*
X1615Y3559D02*
X1619Y3555D01*
X1628D01*
X1632Y3559D01*
Y3576D01*
X1628Y3580D01*
X1619D01*
X1615Y3576D01*
Y3572D01*
X1619Y3567D01*
X1632D01*
X2140Y3435D02*
X2165D01*
Y3448D01*
X2161Y3452D01*
X2145D01*
X2140Y3448D01*
Y3435D01*
Y3460D02*
Y3477D01*
Y3468D01*
X2165D01*
Y3485D02*
Y3493D01*
Y3489D01*
X2140D01*
X2145Y3485D01*
X2165Y3506D02*
Y3514D01*
Y3510D01*
X2140D01*
X2145Y3506D01*
Y3527D02*
X2140Y3531D01*
Y3539D01*
X2145Y3543D01*
X2161D01*
X2165Y3539D01*
Y3531D01*
X2161Y3527D01*
X2145D01*
X1991Y3945D02*
X2015D01*
Y3957D01*
X2011Y3962D01*
X1995D01*
X1991Y3957D01*
Y3945D01*
Y3970D02*
Y3987D01*
Y3978D01*
X2015D01*
Y3995D02*
Y4003D01*
Y3999D01*
X1991D01*
X1995Y3995D01*
X2015Y4016D02*
Y4024D01*
Y4020D01*
X1991D01*
X1995Y4016D01*
X2015Y4037D02*
Y4045D01*
Y4041D01*
X1991D01*
X1995Y4037D01*
X3041Y3056D02*
Y3031D01*
X3054D01*
X3058Y3036D01*
Y3052D01*
X3054Y3056D01*
X3041D01*
X3066D02*
X3083D01*
Y3052D01*
X3066Y3036D01*
Y3031D01*
X3083D01*
X3091D02*
X3100D01*
X3095D01*
Y3056D01*
X3091Y3052D01*
X3112D02*
X3116Y3056D01*
X3125D01*
X3129Y3052D01*
Y3036D01*
X3125Y3031D01*
X3116D01*
X3112Y3036D01*
Y3052D01*
X3137D02*
X3141Y3056D01*
X3150D01*
X3154Y3052D01*
Y3036D01*
X3150Y3031D01*
X3141D01*
X3137Y3036D01*
Y3052D01*
X3191Y1182D02*
Y1157D01*
X3203D01*
X3207Y1161D01*
Y1178D01*
X3203Y1182D01*
X3191D01*
X3216D02*
X3232D01*
Y1178D01*
X3216Y1161D01*
Y1157D01*
X3232D01*
X3241D02*
X3249D01*
X3245D01*
Y1182D01*
X3241Y1178D01*
X3261D02*
X3266Y1182D01*
X3274D01*
X3278Y1178D01*
Y1161D01*
X3274Y1157D01*
X3266D01*
X3261Y1161D01*
Y1178D01*
X3286Y1157D02*
X3295D01*
X3291D01*
Y1182D01*
X3286Y1178D01*
X3031Y3273D02*
Y3248D01*
X3044D01*
X3048Y3252D01*
Y3269D01*
X3044Y3273D01*
X3031D01*
X3056D02*
X3073D01*
Y3269D01*
X3056Y3252D01*
Y3248D01*
X3073D01*
X3081D02*
X3090D01*
X3086D01*
Y3273D01*
X3081Y3269D01*
X3102D02*
X3106Y3273D01*
X3115D01*
X3119Y3269D01*
Y3252D01*
X3115Y3248D01*
X3106D01*
X3102Y3252D01*
Y3269D01*
X3144Y3248D02*
X3127D01*
X3144Y3265D01*
Y3269D01*
X3140Y3273D01*
X3131D01*
X3127Y3269D01*
X2951Y1400D02*
Y1375D01*
X2964D01*
X2968Y1379D01*
Y1396D01*
X2964Y1400D01*
X2951D01*
X2976D02*
X2993D01*
Y1396D01*
X2976Y1379D01*
Y1375D01*
X2993D01*
X3001D02*
X3009D01*
X3005D01*
Y1400D01*
X3001Y1396D01*
X3022D02*
X3026Y1400D01*
X3034D01*
X3039Y1396D01*
Y1379D01*
X3034Y1375D01*
X3026D01*
X3022Y1379D01*
Y1396D01*
X3047D02*
X3051Y1400D01*
X3059D01*
X3064Y1396D01*
Y1391D01*
X3059Y1387D01*
X3055D01*
X3059D01*
X3064Y1383D01*
Y1379D01*
X3059Y1375D01*
X3051D01*
X3047Y1379D01*
X875Y1130D02*
Y1105D01*
X887D01*
X892Y1109D01*
Y1126D01*
X887Y1130D01*
X875D01*
X900D02*
X917D01*
Y1126D01*
X900Y1109D01*
Y1105D01*
X917D01*
X925D02*
X933D01*
X929D01*
Y1130D01*
X925Y1126D01*
X946D02*
X950Y1130D01*
X958D01*
X962Y1126D01*
Y1109D01*
X958Y1105D01*
X950D01*
X946Y1109D01*
Y1126D01*
X983Y1105D02*
Y1130D01*
X971Y1117D01*
X987D01*
X3240Y1735D02*
X3265D01*
Y1747D01*
X3261Y1752D01*
X3244D01*
X3240Y1747D01*
Y1735D01*
Y1760D02*
Y1777D01*
X3244D01*
X3261Y1760D01*
X3265D01*
Y1777D01*
Y1802D02*
Y1785D01*
X3248Y1802D01*
X3244D01*
X3240Y1797D01*
Y1789D01*
X3244Y1785D01*
Y1810D02*
X3240Y1814D01*
Y1822D01*
X3244Y1827D01*
X3261D01*
X3265Y1822D01*
Y1814D01*
X3261Y1810D01*
X3244D01*
Y1835D02*
X3240Y1839D01*
Y1847D01*
X3244Y1852D01*
X3261D01*
X3265Y1847D01*
Y1839D01*
X3261Y1835D01*
X3244D01*
X2304Y2298D02*
Y2273D01*
X2316D01*
X2321Y2277D01*
Y2294D01*
X2316Y2298D01*
X2304D01*
X2329D02*
X2346D01*
Y2294D01*
X2329Y2277D01*
Y2273D01*
X2346D01*
X2371D02*
X2354D01*
X2371Y2290D01*
Y2294D01*
X2366Y2298D01*
X2358D01*
X2354Y2294D01*
X2379D02*
X2383Y2298D01*
X2391D01*
X2396Y2294D01*
Y2277D01*
X2391Y2273D01*
X2383D01*
X2379Y2277D01*
Y2294D01*
X2404D02*
X2408Y2298D01*
X2416D01*
X2421Y2294D01*
Y2290D01*
X2416Y2285D01*
X2412D01*
X2416D01*
X2421Y2281D01*
Y2277D01*
X2416Y2273D01*
X2408D01*
X2404Y2277D01*
X1451Y2217D02*
Y2192D01*
X1464D01*
X1468Y2196D01*
Y2213D01*
X1464Y2217D01*
X1451D01*
X1476D02*
X1493D01*
Y2213D01*
X1476Y2196D01*
Y2192D01*
X1493D01*
X1518D02*
X1501D01*
X1518Y2209D01*
Y2213D01*
X1514Y2217D01*
X1506D01*
X1501Y2213D01*
X1526D02*
X1531Y2217D01*
X1539D01*
X1543Y2213D01*
Y2196D01*
X1539Y2192D01*
X1531D01*
X1526Y2196D01*
Y2213D01*
X1564Y2192D02*
Y2217D01*
X1551Y2205D01*
X1568D01*
X2052Y1500D02*
X2077D01*
Y1512D01*
X2073Y1517D01*
X2056D01*
X2052Y1512D01*
Y1500D01*
Y1525D02*
Y1542D01*
X2056D01*
X2073Y1525D01*
X2077D01*
Y1542D01*
Y1566D02*
Y1550D01*
X2060Y1566D01*
X2056D01*
X2052Y1562D01*
Y1554D01*
X2056Y1550D01*
Y1575D02*
X2052Y1579D01*
Y1587D01*
X2056Y1591D01*
X2073D01*
X2077Y1587D01*
Y1579D01*
X2073Y1575D01*
X2056D01*
X2052Y1600D02*
Y1616D01*
X2056D01*
X2073Y1600D01*
X2077D01*
X1945Y1530D02*
X1970D01*
Y1542D01*
X1966Y1546D01*
X1949D01*
X1945Y1542D01*
Y1530D01*
Y1555D02*
Y1571D01*
X1949D01*
X1966Y1555D01*
X1970D01*
Y1571D01*
Y1596D02*
Y1580D01*
X1953Y1596D01*
X1949D01*
X1945Y1592D01*
Y1584D01*
X1949Y1580D01*
Y1605D02*
X1945Y1609D01*
Y1617D01*
X1949Y1621D01*
X1966D01*
X1970Y1617D01*
Y1609D01*
X1966Y1605D01*
X1949D01*
Y1630D02*
X1945Y1634D01*
Y1642D01*
X1949Y1646D01*
X1953D01*
X1958Y1642D01*
X1962Y1646D01*
X1966D01*
X1970Y1642D01*
Y1634D01*
X1966Y1630D01*
X1962D01*
X1958Y1634D01*
X1953Y1630D01*
X1949D01*
X1958Y1634D02*
Y1642D01*
X2281Y2107D02*
Y2082D01*
X2294D01*
X2298Y2086D01*
Y2103D01*
X2294Y2107D01*
X2281D01*
X2306D02*
X2323D01*
Y2103D01*
X2306Y2086D01*
Y2082D01*
X2323D01*
X2348D02*
X2331D01*
X2348Y2099D01*
Y2103D01*
X2344Y2107D01*
X2336D01*
X2331Y2103D01*
X2356D02*
X2361Y2107D01*
X2369D01*
X2373Y2103D01*
Y2086D01*
X2369Y2082D01*
X2361D01*
X2356Y2086D01*
Y2103D01*
X2381Y2086D02*
X2386Y2082D01*
X2394D01*
X2398Y2086D01*
Y2103D01*
X2394Y2107D01*
X2386D01*
X2381Y2103D01*
Y2099D01*
X2386Y2095D01*
X2398D01*
X3157Y2352D02*
X3140D01*
Y2327D01*
X3157D01*
X3140Y2340D02*
X3149D01*
X3165Y2327D02*
X3174D01*
X3170D01*
Y2352D01*
X3165Y2348D01*
X3186D02*
X3190Y2352D01*
X3199D01*
X3203Y2348D01*
Y2331D01*
X3199Y2327D01*
X3190D01*
X3186Y2331D01*
Y2348D01*
X3211D02*
X3215Y2352D01*
X3224D01*
X3228Y2348D01*
Y2331D01*
X3224Y2327D01*
X3215D01*
X3211Y2331D01*
Y2348D01*
X3327Y2512D02*
X3311D01*
Y2487D01*
X3327D01*
X3311Y2500D02*
X3319D01*
X3336Y2487D02*
X3344D01*
X3340D01*
Y2512D01*
X3336Y2508D01*
X3356D02*
X3361Y2512D01*
X3369D01*
X3373Y2508D01*
Y2491D01*
X3369Y2487D01*
X3361D01*
X3356Y2491D01*
Y2508D01*
X3381Y2487D02*
X3390D01*
X3386D01*
Y2512D01*
X3381Y2508D01*
X3117Y478D02*
X3100D01*
Y453D01*
X3117D01*
X3100Y465D02*
X3109D01*
X3125Y453D02*
X3134D01*
X3130D01*
Y478D01*
X3125Y474D01*
X3146D02*
X3150Y478D01*
X3159D01*
X3163Y474D01*
Y457D01*
X3159Y453D01*
X3150D01*
X3146Y457D01*
Y474D01*
X3188Y453D02*
X3171D01*
X3188Y469D01*
Y474D01*
X3184Y478D01*
X3175D01*
X3171Y474D01*
X3328Y632D02*
X3311D01*
Y607D01*
X3328D01*
X3311Y619D02*
X3319D01*
X3336Y607D02*
X3344D01*
X3340D01*
Y632D01*
X3336Y628D01*
X3357D02*
X3361Y632D01*
X3369D01*
X3373Y628D01*
Y611D01*
X3369Y607D01*
X3361D01*
X3357Y611D01*
Y628D01*
X3382D02*
X3386Y632D01*
X3394D01*
X3398Y628D01*
Y624D01*
X3394Y619D01*
X3390D01*
X3394D01*
X3398Y615D01*
Y611D01*
X3394Y607D01*
X3386D01*
X3382Y611D01*
X2511Y2137D02*
X2494D01*
Y2112D01*
X2511D01*
X2494Y2125D02*
X2503D01*
X2536Y2112D02*
X2519D01*
X2536Y2129D01*
Y2133D01*
X2532Y2137D01*
X2524D01*
X2519Y2133D01*
X2544D02*
X2549Y2137D01*
X2557D01*
X2561Y2133D01*
Y2116D01*
X2557Y2112D01*
X2549D01*
X2544Y2116D01*
Y2133D01*
X2569D02*
X2574Y2137D01*
X2582D01*
X2586Y2133D01*
Y2116D01*
X2582Y2112D01*
X2574D01*
X2569Y2116D01*
Y2133D01*
X2101Y2283D02*
X2084D01*
Y2258D01*
X2101D01*
X2084Y2270D02*
X2092D01*
X2126Y2258D02*
X2109D01*
X2126Y2275D01*
Y2279D01*
X2121Y2283D01*
X2113D01*
X2109Y2279D01*
X2134D02*
X2138Y2283D01*
X2146D01*
X2151Y2279D01*
Y2262D01*
X2146Y2258D01*
X2138D01*
X2134Y2262D01*
Y2279D01*
X2176Y2258D02*
X2159D01*
X2176Y2275D01*
Y2279D01*
X2171Y2283D01*
X2163D01*
X2159Y2279D01*
X1461Y2327D02*
X1445D01*
Y2302D01*
X1461D01*
X1445Y2314D02*
X1453D01*
X1486Y2302D02*
X1470D01*
X1486Y2319D01*
Y2323D01*
X1482Y2327D01*
X1474D01*
X1470Y2323D01*
X1495D02*
X1499Y2327D01*
X1507D01*
X1511Y2323D01*
Y2306D01*
X1507Y2302D01*
X1499D01*
X1495Y2306D01*
Y2323D01*
X1520D02*
X1524Y2327D01*
X1532D01*
X1536Y2323D01*
Y2319D01*
X1532Y2314D01*
X1528D01*
X1532D01*
X1536Y2310D01*
Y2306D01*
X1532Y2302D01*
X1524D01*
X1520Y2306D01*
X833Y3919D02*
X816D01*
Y3907D01*
X825D01*
X816D01*
Y3894D01*
X841D02*
X850D01*
X846D01*
Y3919D01*
X841Y3915D01*
X862D02*
X866Y3919D01*
X875D01*
X879Y3915D01*
Y3898D01*
X875Y3894D01*
X866D01*
X862Y3898D01*
Y3915D01*
X887D02*
X891Y3919D01*
X900D01*
X904Y3915D01*
Y3898D01*
X900Y3894D01*
X891D01*
X887Y3898D01*
Y3915D01*
X964Y3510D02*
Y3493D01*
X977D01*
Y3501D01*
Y3493D01*
X989D01*
Y3518D02*
Y3526D01*
Y3522D01*
X964D01*
X968Y3518D01*
Y3539D02*
X964Y3543D01*
Y3551D01*
X968Y3555D01*
X985D01*
X989Y3551D01*
Y3543D01*
X985Y3539D01*
X968D01*
X989Y3564D02*
Y3572D01*
Y3568D01*
X964D01*
X968Y3564D01*
X3576Y3452D02*
X3559D01*
Y3440D01*
X3567D01*
X3559D01*
Y3427D01*
X3584D02*
X3592D01*
X3588D01*
Y3452D01*
X3584Y3448D01*
X3605D02*
X3609Y3452D01*
X3617D01*
X3622Y3448D01*
Y3431D01*
X3617Y3427D01*
X3609D01*
X3605Y3431D01*
Y3448D01*
X3647Y3427D02*
X3630D01*
X3647Y3444D01*
Y3448D01*
X3642Y3452D01*
X3634D01*
X3630Y3448D01*
X3457Y3251D02*
X3440D01*
Y3239D01*
X3448D01*
X3440D01*
Y3226D01*
X3465D02*
X3473D01*
X3469D01*
Y3251D01*
X3465Y3247D01*
X3486D02*
X3490Y3251D01*
X3498D01*
X3502Y3247D01*
Y3230D01*
X3498Y3226D01*
X3490D01*
X3486Y3230D01*
Y3247D01*
X3511D02*
X3515Y3251D01*
X3523D01*
X3527Y3247D01*
Y3243D01*
X3523Y3239D01*
X3519D01*
X3523D01*
X3527Y3234D01*
Y3230D01*
X3523Y3226D01*
X3515D01*
X3511Y3230D01*
X637Y1413D02*
X620D01*
Y1400D01*
X628D01*
X620D01*
Y1388D01*
X645D02*
X653D01*
X649D01*
Y1413D01*
X645Y1409D01*
X666D02*
X670Y1413D01*
X678D01*
X683Y1409D01*
Y1392D01*
X678Y1388D01*
X670D01*
X666Y1392D01*
Y1409D01*
X703Y1388D02*
Y1413D01*
X691Y1400D01*
X708D01*
X3457Y3065D02*
X3440D01*
Y3052D01*
X3448D01*
X3440D01*
Y3040D01*
X3465D02*
X3473D01*
X3469D01*
Y3065D01*
X3465Y3061D01*
X3486D02*
X3490Y3065D01*
X3498D01*
X3502Y3061D01*
Y3044D01*
X3498Y3040D01*
X3490D01*
X3486Y3044D01*
Y3061D01*
X3527Y3065D02*
X3511D01*
Y3052D01*
X3519Y3057D01*
X3523D01*
X3527Y3052D01*
Y3044D01*
X3523Y3040D01*
X3515D01*
X3511Y3044D01*
X3456Y2870D02*
X3439D01*
Y2857D01*
X3448D01*
X3439D01*
Y2845D01*
X3464D02*
X3473D01*
X3469D01*
Y2870D01*
X3464Y2866D01*
X3485D02*
X3489Y2870D01*
X3498D01*
X3502Y2866D01*
Y2849D01*
X3498Y2845D01*
X3489D01*
X3485Y2849D01*
Y2866D01*
X3527Y2870D02*
X3519Y2866D01*
X3510Y2857D01*
Y2849D01*
X3514Y2845D01*
X3523D01*
X3527Y2849D01*
Y2853D01*
X3523Y2857D01*
X3510D01*
X3456Y2665D02*
X3439D01*
Y2652D01*
X3448D01*
X3439D01*
Y2640D01*
X3464D02*
X3473D01*
X3469D01*
Y2665D01*
X3464Y2661D01*
X3485D02*
X3489Y2665D01*
X3498D01*
X3502Y2661D01*
Y2644D01*
X3498Y2640D01*
X3489D01*
X3485Y2644D01*
Y2661D01*
X3510Y2665D02*
X3527D01*
Y2661D01*
X3510Y2644D01*
Y2640D01*
X3662Y2445D02*
X3645D01*
Y2432D01*
X3653D01*
X3645D01*
Y2420D01*
X3670D02*
X3678D01*
X3674D01*
Y2445D01*
X3670Y2441D01*
X3691D02*
X3695Y2445D01*
X3703D01*
X3707Y2441D01*
Y2424D01*
X3703Y2420D01*
X3695D01*
X3691Y2424D01*
Y2441D01*
X3716D02*
X3720Y2445D01*
X3728D01*
X3732Y2441D01*
Y2437D01*
X3728Y2432D01*
X3732Y2428D01*
Y2424D01*
X3728Y2420D01*
X3720D01*
X3716Y2424D01*
Y2428D01*
X3720Y2432D01*
X3716Y2437D01*
Y2441D01*
X3720Y2432D02*
X3728D01*
X3576Y1562D02*
X3559D01*
Y1550D01*
X3567D01*
X3559D01*
Y1537D01*
X3584D02*
X3592D01*
X3588D01*
Y1562D01*
X3584Y1558D01*
X3605D02*
X3609Y1562D01*
X3617D01*
X3622Y1558D01*
Y1541D01*
X3617Y1537D01*
X3609D01*
X3605Y1541D01*
Y1558D01*
X3630Y1541D02*
X3634Y1537D01*
X3642D01*
X3647Y1541D01*
Y1558D01*
X3642Y1562D01*
X3634D01*
X3630Y1558D01*
Y1554D01*
X3634Y1550D01*
X3647D01*
X3462Y1360D02*
X3445D01*
Y1347D01*
X3453D01*
X3445D01*
Y1335D01*
X3470D02*
X3478D01*
X3474D01*
Y1360D01*
X3470Y1356D01*
X3491Y1335D02*
X3499D01*
X3495D01*
Y1360D01*
X3491Y1356D01*
X3512D02*
X3516Y1360D01*
X3524D01*
X3528Y1356D01*
Y1339D01*
X3524Y1335D01*
X3516D01*
X3512Y1339D01*
Y1356D01*
X3664Y1150D02*
X3647D01*
Y1137D01*
X3656D01*
X3647D01*
Y1125D01*
X3672D02*
X3681D01*
X3677D01*
Y1150D01*
X3672Y1146D01*
X3693Y1125D02*
X3702D01*
X3697D01*
Y1150D01*
X3693Y1146D01*
X3714Y1125D02*
X3722D01*
X3718D01*
Y1150D01*
X3714Y1146D01*
X3652Y955D02*
X3635D01*
Y942D01*
X3643D01*
X3635D01*
Y930D01*
X3660D02*
X3668D01*
X3664D01*
Y955D01*
X3660Y951D01*
X3681Y930D02*
X3689D01*
X3685D01*
Y955D01*
X3681Y951D01*
X3718Y930D02*
X3702D01*
X3718Y947D01*
Y951D01*
X3714Y955D01*
X3706D01*
X3702Y951D01*
X3662Y757D02*
X3645D01*
Y744D01*
X3653D01*
X3645D01*
Y732D01*
X3670D02*
X3678D01*
X3674D01*
Y757D01*
X3670Y753D01*
X3691Y732D02*
X3699D01*
X3695D01*
Y757D01*
X3691Y753D01*
X3712D02*
X3716Y757D01*
X3724D01*
X3728Y753D01*
Y749D01*
X3724Y744D01*
X3720D01*
X3724D01*
X3728Y740D01*
Y736D01*
X3724Y732D01*
X3716D01*
X3712Y736D01*
X3662Y560D02*
X3645D01*
Y547D01*
X3653D01*
X3645D01*
Y535D01*
X3670D02*
X3678D01*
X3674D01*
Y560D01*
X3670Y556D01*
X3691Y535D02*
X3699D01*
X3695D01*
Y560D01*
X3691Y556D01*
X3724Y535D02*
Y560D01*
X3712Y547D01*
X3728D01*
X1257Y3431D02*
X1240D01*
Y3418D01*
X1248D01*
X1240D01*
Y3406D01*
X1265D02*
X1273D01*
X1269D01*
Y3431D01*
X1265Y3426D01*
X1286Y3406D02*
X1294D01*
X1290D01*
Y3431D01*
X1286Y3426D01*
X1323Y3431D02*
X1315Y3426D01*
X1307Y3418D01*
Y3410D01*
X1311Y3406D01*
X1319D01*
X1323Y3410D01*
Y3414D01*
X1319Y3418D01*
X1307D01*
X1435Y3501D02*
Y3484D01*
X1448D01*
Y3492D01*
Y3484D01*
X1460D01*
Y3509D02*
Y3517D01*
Y3513D01*
X1435D01*
X1439Y3509D01*
X1460Y3530D02*
Y3538D01*
Y3534D01*
X1435D01*
X1439Y3530D01*
X1435Y3551D02*
Y3567D01*
X1439D01*
X1456Y3551D01*
X1460D01*
X1671Y3497D02*
Y3480D01*
X1683D01*
Y3488D01*
Y3480D01*
X1695D01*
Y3505D02*
Y3513D01*
Y3509D01*
X1671D01*
X1675Y3505D01*
X1695Y3526D02*
Y3534D01*
Y3530D01*
X1671D01*
X1675Y3526D01*
Y3547D02*
X1671Y3551D01*
Y3559D01*
X1675Y3563D01*
X1679D01*
X1683Y3559D01*
X1687Y3563D01*
X1691D01*
X1695Y3559D01*
Y3551D01*
X1691Y3547D01*
X1687D01*
X1683Y3551D01*
X1679Y3547D01*
X1675D01*
X1683Y3551D02*
Y3559D01*
X1550Y3397D02*
Y3380D01*
X1563D01*
Y3388D01*
Y3380D01*
X1575D01*
Y3405D02*
Y3413D01*
Y3409D01*
X1550D01*
X1554Y3405D01*
X1575Y3426D02*
Y3434D01*
Y3430D01*
X1550D01*
X1554Y3426D01*
X1571Y3447D02*
X1575Y3451D01*
Y3459D01*
X1571Y3463D01*
X1554D01*
X1550Y3459D01*
Y3451D01*
X1554Y3447D01*
X1558D01*
X1563Y3451D01*
Y3463D01*
X1950Y3565D02*
Y3548D01*
X1963D01*
Y3556D01*
Y3548D01*
X1975D01*
Y3573D02*
Y3581D01*
Y3577D01*
X1950D01*
X1954Y3573D01*
X1975Y3610D02*
Y3594D01*
X1958Y3610D01*
X1954D01*
X1950Y3606D01*
Y3598D01*
X1954Y3594D01*
Y3619D02*
X1950Y3623D01*
Y3631D01*
X1954Y3635D01*
X1971D01*
X1975Y3631D01*
Y3623D01*
X1971Y3619D01*
X1954D01*
X2030Y3484D02*
Y3467D01*
X2043D01*
Y3475D01*
Y3467D01*
X2055D01*
Y3492D02*
Y3500D01*
Y3496D01*
X2030D01*
X2034Y3492D01*
X2055Y3529D02*
Y3513D01*
X2038Y3529D01*
X2034D01*
X2030Y3525D01*
Y3517D01*
X2034Y3513D01*
X2055Y3538D02*
Y3546D01*
Y3542D01*
X2030D01*
X2034Y3538D01*
X1900Y3924D02*
Y3907D01*
X1913D01*
Y3915D01*
Y3907D01*
X1925D01*
Y3932D02*
Y3940D01*
Y3936D01*
X1900D01*
X1904Y3932D01*
X1925Y3969D02*
Y3953D01*
X1908Y3969D01*
X1904D01*
X1900Y3965D01*
Y3957D01*
X1904Y3953D01*
X1925Y3994D02*
Y3978D01*
X1908Y3994D01*
X1904D01*
X1900Y3990D01*
Y3982D01*
X1904Y3978D01*
X2288Y3481D02*
Y3465D01*
X2300D01*
Y3473D01*
Y3465D01*
X2313D01*
Y3490D02*
Y3498D01*
Y3494D01*
X2288D01*
X2292Y3490D01*
X2313Y3527D02*
Y3510D01*
X2296Y3527D01*
X2292D01*
X2288Y3523D01*
Y3515D01*
X2292Y3510D01*
Y3535D02*
X2288Y3540D01*
Y3548D01*
X2292Y3552D01*
X2296D01*
X2300Y3548D01*
Y3544D01*
Y3548D01*
X2305Y3552D01*
X2309D01*
X2313Y3548D01*
Y3540D01*
X2309Y3535D01*
X1355Y1397D02*
X1380D01*
Y1414D01*
X1355Y1439D02*
Y1422D01*
X1380D01*
Y1439D01*
X1368Y1422D02*
Y1430D01*
X1355Y1447D02*
X1380D01*
Y1459D01*
X1376Y1463D01*
X1359D01*
X1355Y1459D01*
Y1447D01*
X1380Y1488D02*
Y1472D01*
X1363Y1488D01*
X1359D01*
X1355Y1484D01*
Y1476D01*
X1359Y1472D01*
Y1497D02*
X1355Y1501D01*
Y1509D01*
X1359Y1513D01*
X1376D01*
X1380Y1509D01*
Y1501D01*
X1376Y1497D01*
X1359D01*
Y1522D02*
X1355Y1526D01*
Y1534D01*
X1359Y1538D01*
X1376D01*
X1380Y1534D01*
Y1526D01*
X1376Y1522D01*
X1359D01*
X2940Y2636D02*
Y2661D01*
X2952D01*
X2957Y2657D01*
Y2648D01*
X2952Y2644D01*
X2940D01*
X2965Y2636D02*
X2973D01*
X2969D01*
Y2661D01*
X2965Y2657D01*
X2986D02*
X2990Y2661D01*
X2998D01*
X3002Y2657D01*
Y2640D01*
X2998Y2636D01*
X2990D01*
X2986Y2640D01*
Y2657D01*
X3011D02*
X3015Y2661D01*
X3023D01*
X3027Y2657D01*
Y2640D01*
X3023Y2636D01*
X3015D01*
X3011Y2640D01*
Y2657D01*
X3020Y828D02*
Y853D01*
X3032D01*
X3037Y849D01*
Y840D01*
X3032Y836D01*
X3020D01*
X3045Y828D02*
X3053D01*
X3049D01*
Y853D01*
X3045Y849D01*
X3066D02*
X3070Y853D01*
X3078D01*
X3082Y849D01*
Y832D01*
X3078Y828D01*
X3070D01*
X3066Y832D01*
Y849D01*
X3091Y828D02*
X3099D01*
X3095D01*
Y853D01*
X3091Y849D01*
X646Y1207D02*
Y1232D01*
X658D01*
X663Y1228D01*
Y1219D01*
X658Y1215D01*
X646D01*
X671Y1207D02*
X679D01*
X675D01*
Y1232D01*
X671Y1228D01*
X692D02*
X696Y1232D01*
X704D01*
X708Y1228D01*
Y1211D01*
X704Y1207D01*
X696D01*
X692Y1211D01*
Y1228D01*
X733Y1207D02*
X717D01*
X733Y1224D01*
Y1228D01*
X729Y1232D01*
X721D01*
X717Y1228D01*
X2000Y3300D02*
Y3316D01*
X1996Y3321D01*
X1988D01*
X1983Y3316D01*
Y3300D01*
X1988Y3296D01*
X1996D01*
X1992Y3304D02*
X2000Y3296D01*
X1996D02*
X2000Y3300D01*
X2025Y3296D02*
X2008D01*
X2025Y3312D01*
Y3316D01*
X2021Y3321D01*
X2013D01*
X2008Y3316D01*
X2033D02*
X2038Y3321D01*
X2046D01*
X2050Y3316D01*
Y3300D01*
X2046Y3296D01*
X2038D01*
X2033Y3300D01*
Y3316D01*
X2058D02*
X2063Y3321D01*
X2071D01*
X2075Y3316D01*
Y3300D01*
X2071Y3296D01*
X2063D01*
X2058Y3300D01*
Y3316D01*
X3041Y3150D02*
Y3175D01*
X3054D01*
X3058Y3170D01*
Y3162D01*
X3054Y3158D01*
X3041D01*
X3050D02*
X3058Y3150D01*
X3066D02*
X3075D01*
X3070D01*
Y3175D01*
X3066Y3170D01*
X3087D02*
X3091Y3175D01*
X3100D01*
X3104Y3170D01*
Y3154D01*
X3100Y3150D01*
X3091D01*
X3087Y3154D01*
Y3170D01*
X3112D02*
X3116Y3175D01*
X3125D01*
X3129Y3170D01*
Y3154D01*
X3125Y3150D01*
X3116D01*
X3112Y3154D01*
Y3170D01*
X3059Y1307D02*
Y1282D01*
X3047D01*
X3043Y1286D01*
Y1294D01*
X3047Y1298D01*
X3059D01*
X3051D02*
X3043Y1307D01*
X3034D02*
X3026D01*
X3030D01*
Y1282D01*
X3034Y1286D01*
X3014D02*
X3009Y1282D01*
X3001D01*
X2997Y1286D01*
Y1302D01*
X3001Y1307D01*
X3009D01*
X3014Y1302D01*
Y1286D01*
X2989Y1307D02*
X2980D01*
X2984D01*
Y1282D01*
X2989Y1286D01*
X3192Y2860D02*
X3167D01*
Y2872D01*
X3171Y2877D01*
X3180D01*
X3184Y2872D01*
Y2860D01*
Y2868D02*
X3192Y2877D01*
Y2885D02*
Y2893D01*
Y2889D01*
X3167D01*
X3171Y2885D01*
Y2906D02*
X3167Y2910D01*
Y2918D01*
X3171Y2922D01*
X3188D01*
X3192Y2918D01*
Y2910D01*
X3188Y2906D01*
X3171D01*
X3192Y2947D02*
Y2931D01*
X3175Y2947D01*
X3171D01*
X3167Y2943D01*
Y2935D01*
X3171Y2931D01*
X3242Y983D02*
X3218D01*
Y996D01*
X3222Y1000D01*
X3230D01*
X3234Y996D01*
Y983D01*
Y991D02*
X3242Y1000D01*
Y1008D02*
Y1016D01*
Y1012D01*
X3218D01*
X3222Y1008D01*
Y1029D02*
X3218Y1033D01*
Y1041D01*
X3222Y1046D01*
X3238D01*
X3242Y1041D01*
Y1033D01*
X3238Y1029D01*
X3222D01*
Y1054D02*
X3218Y1058D01*
Y1066D01*
X3222Y1071D01*
X3226D01*
X3230Y1066D01*
Y1062D01*
Y1066D01*
X3234Y1071D01*
X3238D01*
X3242Y1066D01*
Y1058D01*
X3238Y1054D01*
X3255Y3244D02*
Y3269D01*
X3267D01*
X3272Y3265D01*
Y3256D01*
X3267Y3252D01*
X3255D01*
X3263D02*
X3272Y3244D01*
X3280D02*
X3288D01*
X3284D01*
Y3269D01*
X3280Y3265D01*
X3301D02*
X3305Y3269D01*
X3313D01*
X3317Y3265D01*
Y3248D01*
X3313Y3244D01*
X3305D01*
X3301Y3248D01*
Y3265D01*
X3338Y3244D02*
Y3269D01*
X3326Y3256D01*
X3342D01*
X3191Y1375D02*
Y1400D01*
X3203D01*
X3207Y1396D01*
Y1387D01*
X3203Y1383D01*
X3191D01*
X3199D02*
X3207Y1375D01*
X3216D02*
X3224D01*
X3220D01*
Y1400D01*
X3216Y1396D01*
X3236D02*
X3241Y1400D01*
X3249D01*
X3253Y1396D01*
Y1379D01*
X3249Y1375D01*
X3241D01*
X3236Y1379D01*
Y1396D01*
X3278Y1400D02*
X3261D01*
Y1387D01*
X3270Y1391D01*
X3274D01*
X3278Y1387D01*
Y1379D01*
X3274Y1375D01*
X3266D01*
X3261Y1379D01*
X3388Y2860D02*
X3363D01*
Y2873D01*
X3368Y2877D01*
X3376D01*
X3380Y2873D01*
Y2860D01*
Y2869D02*
X3388Y2877D01*
Y2885D02*
Y2894D01*
Y2889D01*
X3363D01*
X3368Y2885D01*
Y2906D02*
X3363Y2910D01*
Y2919D01*
X3368Y2923D01*
X3384D01*
X3388Y2919D01*
Y2910D01*
X3384Y2906D01*
X3368D01*
X3363Y2948D02*
X3368Y2939D01*
X3376Y2931D01*
X3384D01*
X3388Y2935D01*
Y2944D01*
X3384Y2948D01*
X3380D01*
X3376Y2944D01*
Y2931D01*
X3386Y2657D02*
X3361D01*
Y2670D01*
X3365Y2674D01*
X3373D01*
X3377Y2670D01*
Y2657D01*
Y2666D02*
X3386Y2674D01*
Y2682D02*
Y2691D01*
Y2687D01*
X3361D01*
X3365Y2682D01*
Y2703D02*
X3361Y2707D01*
Y2716D01*
X3365Y2720D01*
X3382D01*
X3386Y2716D01*
Y2707D01*
X3382Y2703D01*
X3365D01*
X3361Y2728D02*
Y2745D01*
X3365D01*
X3382Y2728D01*
X3386D01*
X3438Y980D02*
X3413D01*
Y992D01*
X3418Y997D01*
X3426D01*
X3430Y992D01*
Y980D01*
Y988D02*
X3438Y997D01*
Y1005D02*
Y1013D01*
Y1009D01*
X3413D01*
X3418Y1005D01*
Y1026D02*
X3413Y1030D01*
Y1038D01*
X3418Y1042D01*
X3434D01*
X3438Y1038D01*
Y1030D01*
X3434Y1026D01*
X3418D01*
Y1051D02*
X3413Y1055D01*
Y1063D01*
X3418Y1067D01*
X3422D01*
X3426Y1063D01*
X3430Y1067D01*
X3434D01*
X3438Y1063D01*
Y1055D01*
X3434Y1051D01*
X3430D01*
X3426Y1055D01*
X3422Y1051D01*
X3418D01*
X3426Y1055D02*
Y1063D01*
X3438Y773D02*
X3414D01*
Y786D01*
X3418Y790D01*
X3426D01*
X3430Y786D01*
Y773D01*
Y782D02*
X3438Y790D01*
Y798D02*
Y807D01*
Y803D01*
X3414D01*
X3418Y798D01*
Y819D02*
X3414Y823D01*
Y832D01*
X3418Y836D01*
X3434D01*
X3438Y832D01*
Y823D01*
X3434Y819D01*
X3418D01*
X3434Y844D02*
X3438Y848D01*
Y857D01*
X3434Y861D01*
X3418D01*
X3414Y857D01*
Y848D01*
X3418Y844D01*
X3422D01*
X3426Y848D01*
Y861D01*
X896Y1457D02*
Y1482D01*
X908D01*
X912Y1478D01*
Y1469D01*
X908Y1465D01*
X896D01*
X904D02*
X912Y1457D01*
X921D02*
X929D01*
X925D01*
Y1482D01*
X921Y1478D01*
X941Y1457D02*
X950D01*
X946D01*
Y1482D01*
X941Y1478D01*
X962D02*
X966Y1482D01*
X975D01*
X979Y1478D01*
Y1461D01*
X975Y1457D01*
X966D01*
X962Y1461D01*
Y1478D01*
X898Y1655D02*
Y1680D01*
X910D01*
X915Y1676D01*
Y1667D01*
X910Y1663D01*
X898D01*
X906D02*
X915Y1655D01*
X923D02*
X931D01*
X927D01*
Y1680D01*
X923Y1676D01*
X944Y1655D02*
X952D01*
X948D01*
Y1680D01*
X944Y1676D01*
X965Y1655D02*
X973D01*
X969D01*
Y1680D01*
X965Y1676D01*
X1133Y655D02*
X1108D01*
Y667D01*
X1112Y671D01*
X1120D01*
X1124Y667D01*
Y655D01*
Y663D02*
X1133Y671D01*
Y680D02*
Y688D01*
Y684D01*
X1108D01*
X1112Y680D01*
X1133Y701D02*
Y709D01*
Y705D01*
X1108D01*
X1112Y701D01*
X1133Y738D02*
Y721D01*
X1116Y738D01*
X1112D01*
X1108Y734D01*
Y726D01*
X1112Y721D01*
X1300Y1610D02*
Y1635D01*
X1312D01*
X1317Y1630D01*
Y1622D01*
X1312Y1618D01*
X1300D01*
X1308D02*
X1317Y1610D01*
X1325D02*
X1333D01*
X1329D01*
Y1635D01*
X1325Y1630D01*
X1346Y1610D02*
X1354D01*
X1350D01*
Y1635D01*
X1346Y1630D01*
X1367D02*
X1371Y1635D01*
X1379D01*
X1383Y1630D01*
Y1626D01*
X1379Y1622D01*
X1375D01*
X1379D01*
X1383Y1618D01*
Y1614D01*
X1379Y1610D01*
X1371D01*
X1367Y1614D01*
X1011Y1217D02*
Y1242D01*
X1023D01*
X1027Y1238D01*
Y1230D01*
X1023Y1225D01*
X1011D01*
X1019D02*
X1027Y1217D01*
X1036D02*
X1044D01*
X1040D01*
Y1242D01*
X1036Y1238D01*
X1057Y1217D02*
X1065D01*
X1061D01*
Y1242D01*
X1057Y1238D01*
X1090Y1217D02*
Y1242D01*
X1077Y1230D01*
X1094D01*
X990Y1310D02*
Y1335D01*
X1003D01*
X1007Y1331D01*
Y1323D01*
X1003Y1319D01*
X990D01*
X998D02*
X1007Y1310D01*
X1015D02*
X1023D01*
X1019D01*
Y1335D01*
X1015Y1331D01*
X1036Y1310D02*
X1044D01*
X1040D01*
Y1335D01*
X1036Y1331D01*
X1073Y1335D02*
X1057D01*
Y1323D01*
X1065Y1327D01*
X1069D01*
X1073Y1323D01*
Y1315D01*
X1069Y1310D01*
X1061D01*
X1057Y1315D01*
X787Y748D02*
Y773D01*
X800D01*
X804Y769D01*
Y761D01*
X800Y756D01*
X787D01*
X796D02*
X804Y748D01*
X812D02*
X821D01*
X817D01*
Y773D01*
X812Y769D01*
X833Y748D02*
X842D01*
X837D01*
Y773D01*
X833Y769D01*
X871Y773D02*
X862Y769D01*
X854Y761D01*
Y752D01*
X858Y748D01*
X867D01*
X871Y752D01*
Y756D01*
X867Y761D01*
X854D01*
X2270Y1655D02*
X2245D01*
Y1667D01*
X2249Y1671D01*
X2258D01*
X2262Y1667D01*
Y1655D01*
Y1663D02*
X2270Y1671D01*
Y1696D02*
Y1680D01*
X2253Y1696D01*
X2249D01*
X2245Y1692D01*
Y1684D01*
X2249Y1680D01*
Y1705D02*
X2245Y1709D01*
Y1717D01*
X2249Y1721D01*
X2266D01*
X2270Y1717D01*
Y1709D01*
X2266Y1705D01*
X2249D01*
Y1730D02*
X2245Y1734D01*
Y1742D01*
X2249Y1746D01*
X2266D01*
X2270Y1742D01*
Y1734D01*
X2266Y1730D01*
X2249D01*
X2180Y1645D02*
X2155D01*
Y1657D01*
X2159Y1661D01*
X2168D01*
X2172Y1657D01*
Y1645D01*
Y1653D02*
X2180Y1661D01*
Y1686D02*
Y1670D01*
X2163Y1686D01*
X2159D01*
X2155Y1682D01*
Y1674D01*
X2159Y1670D01*
Y1695D02*
X2155Y1699D01*
Y1707D01*
X2159Y1711D01*
X2176D01*
X2180Y1707D01*
Y1699D01*
X2176Y1695D01*
X2159D01*
X2180Y1720D02*
Y1728D01*
Y1724D01*
X2155D01*
X2159Y1720D01*
X2180Y2105D02*
X2155D01*
Y2117D01*
X2159Y2121D01*
X2168D01*
X2172Y2117D01*
Y2105D01*
Y2113D02*
X2180Y2121D01*
Y2146D02*
Y2130D01*
X2163Y2146D01*
X2159D01*
X2155Y2142D01*
Y2134D01*
X2159Y2130D01*
Y2155D02*
X2155Y2159D01*
Y2167D01*
X2159Y2171D01*
X2176D01*
X2180Y2167D01*
Y2159D01*
X2176Y2155D01*
X2159D01*
X2180Y2196D02*
Y2180D01*
X2163Y2196D01*
X2159D01*
X2155Y2192D01*
Y2184D01*
X2159Y2180D01*
X2484Y2002D02*
Y2027D01*
X2497D01*
X2501Y2023D01*
Y2015D01*
X2497Y2010D01*
X2484D01*
X2493D02*
X2501Y2002D01*
X2526D02*
X2509D01*
X2526Y2019D01*
Y2023D01*
X2522Y2027D01*
X2514D01*
X2509Y2023D01*
X2534D02*
X2539Y2027D01*
X2547D01*
X2551Y2023D01*
Y2006D01*
X2547Y2002D01*
X2539D01*
X2534Y2006D01*
Y2023D01*
X2559Y2027D02*
X2576D01*
Y2023D01*
X2559Y2006D01*
Y2002D01*
X2314Y2412D02*
Y2437D01*
X2327D01*
X2331Y2432D01*
Y2424D01*
X2327Y2420D01*
X2314D01*
X2323D02*
X2331Y2412D01*
X2356D02*
X2339D01*
X2356Y2428D01*
Y2432D01*
X2352Y2437D01*
X2344D01*
X2339Y2432D01*
X2364D02*
X2369Y2437D01*
X2377D01*
X2381Y2432D01*
Y2416D01*
X2377Y2412D01*
X2369D01*
X2364Y2416D01*
Y2432D01*
X2389D02*
X2394Y2437D01*
X2402D01*
X2406Y2432D01*
Y2428D01*
X2402Y2424D01*
X2406Y2420D01*
Y2416D01*
X2402Y2412D01*
X2394D01*
X2389Y2416D01*
Y2420D01*
X2394Y2424D01*
X2389Y2428D01*
Y2432D01*
X2394Y2424D02*
X2402D01*
X1535Y2580D02*
X1510D01*
Y2592D01*
X1514Y2597D01*
X1523D01*
X1527Y2592D01*
Y2580D01*
Y2588D02*
X1535Y2597D01*
Y2622D02*
Y2605D01*
X1518Y2622D01*
X1514D01*
X1510Y2617D01*
Y2609D01*
X1514Y2605D01*
Y2630D02*
X1510Y2634D01*
Y2642D01*
X1514Y2647D01*
X1531D01*
X1535Y2642D01*
Y2634D01*
X1531Y2630D01*
X1514D01*
X1531Y2655D02*
X1535Y2659D01*
Y2667D01*
X1531Y2672D01*
X1514D01*
X1510Y2667D01*
Y2659D01*
X1514Y2655D01*
X1518D01*
X1523Y2659D01*
Y2672D01*
X2180Y1490D02*
X2155D01*
Y1502D01*
X2159Y1506D01*
X2168D01*
X2172Y1502D01*
Y1490D01*
Y1498D02*
X2180Y1506D01*
Y1531D02*
Y1515D01*
X2163Y1531D01*
X2159D01*
X2155Y1527D01*
Y1519D01*
X2159Y1515D01*
X2180Y1540D02*
Y1548D01*
Y1544D01*
X2155D01*
X2159Y1540D01*
Y1560D02*
X2155Y1565D01*
Y1573D01*
X2159Y1577D01*
X2163D01*
X2168Y1573D01*
Y1569D01*
Y1573D01*
X2172Y1577D01*
X2176D01*
X2180Y1573D01*
Y1565D01*
X2176Y1560D01*
X1933Y3041D02*
X1908D01*
Y3053D01*
X1912Y3058D01*
X1921D01*
X1925Y3053D01*
Y3041D01*
Y3049D02*
X1933Y3058D01*
Y3083D02*
Y3066D01*
X1916Y3083D01*
X1912D01*
X1908Y3078D01*
Y3070D01*
X1912Y3066D01*
X1933Y3091D02*
Y3099D01*
Y3095D01*
X1908D01*
X1912Y3091D01*
X1933Y3124D02*
X1908D01*
X1921Y3112D01*
Y3128D01*
X2346Y2822D02*
Y2847D01*
X2358D01*
X2363Y2843D01*
Y2834D01*
X2358Y2830D01*
X2346D01*
X2354D02*
X2363Y2822D01*
X2388D02*
X2371D01*
X2388Y2838D01*
Y2843D01*
X2383Y2847D01*
X2375D01*
X2371Y2843D01*
X2396Y2822D02*
X2404D01*
X2400D01*
Y2847D01*
X2396Y2843D01*
X2433Y2847D02*
X2417D01*
Y2834D01*
X2425Y2838D01*
X2429D01*
X2433Y2834D01*
Y2826D01*
X2429Y2822D01*
X2421D01*
X2417Y2826D01*
X1351Y2921D02*
Y2946D01*
X1363D01*
X1368Y2942D01*
Y2934D01*
X1363Y2930D01*
X1351D01*
X1359D02*
X1368Y2921D01*
X1393D02*
X1376D01*
X1393Y2938D01*
Y2942D01*
X1388Y2946D01*
X1380D01*
X1376Y2942D01*
X1401Y2921D02*
X1409D01*
X1405D01*
Y2946D01*
X1401Y2942D01*
X1438Y2946D02*
X1430Y2942D01*
X1422Y2934D01*
Y2926D01*
X1426Y2921D01*
X1434D01*
X1438Y2926D01*
Y2930D01*
X1434Y2934D01*
X1422D01*
X1351Y2831D02*
Y2856D01*
X1363D01*
X1368Y2852D01*
Y2844D01*
X1363Y2839D01*
X1351D01*
X1359D02*
X1368Y2831D01*
X1393D02*
X1376D01*
X1393Y2848D01*
Y2852D01*
X1388Y2856D01*
X1380D01*
X1376Y2852D01*
X1401Y2831D02*
X1409D01*
X1405D01*
Y2856D01*
X1401Y2852D01*
X1422Y2856D02*
X1438D01*
Y2852D01*
X1422Y2835D01*
Y2831D01*
X2450Y2651D02*
X2425D01*
Y2664D01*
X2429Y2668D01*
X2438D01*
X2442Y2664D01*
Y2651D01*
Y2659D02*
X2450Y2668D01*
Y2693D02*
Y2676D01*
X2433Y2693D01*
X2429D01*
X2425Y2689D01*
Y2680D01*
X2429Y2676D01*
X2450Y2701D02*
Y2709D01*
Y2705D01*
X2425D01*
X2429Y2701D01*
Y2722D02*
X2425Y2726D01*
Y2734D01*
X2429Y2738D01*
X2433D01*
X2438Y2734D01*
X2442Y2738D01*
X2446D01*
X2450Y2734D01*
Y2726D01*
X2446Y2722D01*
X2442D01*
X2438Y2726D01*
X2433Y2722D01*
X2429D01*
X2438Y2726D02*
Y2734D01*
X2360Y1485D02*
X2335D01*
Y1497D01*
X2339Y1501D01*
X2348D01*
X2352Y1497D01*
Y1485D01*
Y1493D02*
X2360Y1501D01*
Y1526D02*
Y1510D01*
X2343Y1526D01*
X2339D01*
X2335Y1522D01*
Y1514D01*
X2339Y1510D01*
X2360Y1551D02*
Y1535D01*
X2343Y1551D01*
X2339D01*
X2335Y1547D01*
Y1539D01*
X2339Y1535D01*
Y1560D02*
X2335Y1564D01*
Y1572D01*
X2339Y1576D01*
X2343D01*
X2348Y1572D01*
Y1568D01*
Y1572D01*
X2352Y1576D01*
X2356D01*
X2360Y1572D01*
Y1564D01*
X2356Y1560D01*
X2344Y2912D02*
Y2937D01*
X2357D01*
X2361Y2932D01*
Y2924D01*
X2357Y2920D01*
X2344D01*
X2353D02*
X2361Y2912D01*
X2386D02*
X2369D01*
X2386Y2928D01*
Y2932D01*
X2382Y2937D01*
X2374D01*
X2369Y2932D01*
X2411Y2912D02*
X2394D01*
X2411Y2928D01*
Y2932D01*
X2407Y2937D01*
X2399D01*
X2394Y2932D01*
X2432Y2912D02*
Y2937D01*
X2419Y2924D01*
X2436D01*
X1614Y3114D02*
Y3139D01*
X1627D01*
X1631Y3135D01*
Y3127D01*
X1627Y3123D01*
X1614D01*
X1623D02*
X1631Y3114D01*
X1656D02*
X1639D01*
X1656Y3131D01*
Y3135D01*
X1652Y3139D01*
X1644D01*
X1639Y3135D01*
X1681Y3114D02*
X1664D01*
X1681Y3131D01*
Y3135D01*
X1677Y3139D01*
X1669D01*
X1664Y3135D01*
X1706Y3139D02*
X1689D01*
Y3127D01*
X1698Y3131D01*
X1702D01*
X1706Y3127D01*
Y3119D01*
X1702Y3114D01*
X1694D01*
X1689Y3119D01*
X1614Y3022D02*
Y3047D01*
X1627D01*
X1631Y3042D01*
Y3034D01*
X1627Y3030D01*
X1614D01*
X1623D02*
X1631Y3022D01*
X1656D02*
X1639D01*
X1656Y3038D01*
Y3042D01*
X1652Y3047D01*
X1644D01*
X1639Y3042D01*
X1681Y3022D02*
X1664D01*
X1681Y3038D01*
Y3042D01*
X1677Y3047D01*
X1669D01*
X1664Y3042D01*
X1706Y3047D02*
X1698Y3042D01*
X1689Y3034D01*
Y3026D01*
X1694Y3022D01*
X1702D01*
X1706Y3026D01*
Y3030D01*
X1702Y3034D01*
X1689D01*
X1574Y2924D02*
Y2949D01*
X1587D01*
X1591Y2945D01*
Y2937D01*
X1587Y2933D01*
X1574D01*
X1583D02*
X1591Y2924D01*
X1616D02*
X1599D01*
X1616Y2941D01*
Y2945D01*
X1612Y2949D01*
X1604D01*
X1599Y2945D01*
X1641Y2924D02*
X1624D01*
X1641Y2941D01*
Y2945D01*
X1637Y2949D01*
X1629D01*
X1624Y2945D01*
X1649Y2949D02*
X1666D01*
Y2945D01*
X1649Y2929D01*
Y2924D01*
X2095Y1895D02*
X2070D01*
Y1907D01*
X2074Y1911D01*
X2083D01*
X2087Y1907D01*
Y1895D01*
Y1903D02*
X2095Y1911D01*
Y1936D02*
Y1920D01*
X2078Y1936D01*
X2074D01*
X2070Y1932D01*
Y1924D01*
X2074Y1920D01*
X2095Y1961D02*
Y1945D01*
X2078Y1961D01*
X2074D01*
X2070Y1957D01*
Y1949D01*
X2074Y1945D01*
X2091Y1970D02*
X2095Y1974D01*
Y1982D01*
X2091Y1986D01*
X2074D01*
X2070Y1982D01*
Y1974D01*
X2074Y1970D01*
X2078D01*
X2083Y1974D01*
Y1986D01*
X2091Y1707D02*
X2066D01*
Y1719D01*
X2070Y1724D01*
X2079D01*
X2083Y1719D01*
Y1707D01*
Y1715D02*
X2091Y1724D01*
Y1749D02*
Y1732D01*
X2074Y1749D01*
X2070D01*
X2066Y1744D01*
Y1736D01*
X2070Y1732D01*
Y1757D02*
X2066Y1761D01*
Y1769D01*
X2070Y1773D01*
X2074D01*
X2079Y1769D01*
Y1765D01*
Y1769D01*
X2083Y1773D01*
X2087D01*
X2091Y1769D01*
Y1761D01*
X2087Y1757D01*
X2066Y1798D02*
X2070Y1790D01*
X2079Y1782D01*
X2087D01*
X2091Y1786D01*
Y1794D01*
X2087Y1798D01*
X2083D01*
X2079Y1794D01*
Y1782D01*
X2164Y1892D02*
Y1917D01*
X2177D01*
X2181Y1913D01*
Y1905D01*
X2177Y1900D01*
X2164D01*
X2173D02*
X2181Y1892D01*
X2206D02*
X2189D01*
X2206Y1909D01*
Y1913D01*
X2202Y1917D01*
X2194D01*
X2189Y1913D01*
X2214D02*
X2219Y1917D01*
X2227D01*
X2231Y1913D01*
Y1909D01*
X2227Y1905D01*
X2223D01*
X2227D01*
X2231Y1900D01*
Y1896D01*
X2227Y1892D01*
X2219D01*
X2214Y1896D01*
X2239Y1917D02*
X2256D01*
Y1913D01*
X2239Y1896D01*
Y1892D01*
X1353Y2741D02*
Y2766D01*
X1365D01*
X1370Y2762D01*
Y2754D01*
X1365Y2749D01*
X1353D01*
X1361D02*
X1370Y2741D01*
X1395D02*
X1378D01*
X1395Y2758D01*
Y2762D01*
X1390Y2766D01*
X1382D01*
X1378Y2762D01*
X1415Y2741D02*
Y2766D01*
X1403Y2754D01*
X1420D01*
X1428Y2741D02*
X1436D01*
X1432D01*
Y2766D01*
X1428Y2762D01*
X1349Y2466D02*
Y2491D01*
X1361D01*
X1366Y2487D01*
Y2479D01*
X1361Y2475D01*
X1349D01*
X1357D02*
X1366Y2466D01*
X1391D02*
X1374D01*
X1391Y2483D01*
Y2487D01*
X1386Y2491D01*
X1378D01*
X1374Y2487D01*
X1411Y2466D02*
Y2491D01*
X1399Y2479D01*
X1416D01*
X1441Y2466D02*
X1424D01*
X1441Y2483D01*
Y2487D01*
X1436Y2491D01*
X1428D01*
X1424Y2487D01*
X1472Y3908D02*
X1448D01*
Y3921D01*
X1452Y3925D01*
X1460D01*
X1464Y3921D01*
Y3908D01*
Y3916D02*
X1472Y3925D01*
X1448Y3933D02*
X1464D01*
X1472Y3941D01*
X1464Y3950D01*
X1448D01*
X1472Y3958D02*
Y3966D01*
Y3962D01*
X1448D01*
X1452Y3958D01*
Y3979D02*
X1448Y3983D01*
Y3991D01*
X1452Y3996D01*
X1468D01*
X1472Y3991D01*
Y3983D01*
X1468Y3979D01*
X1452D01*
Y4004D02*
X1448Y4008D01*
Y4016D01*
X1452Y4021D01*
X1468D01*
X1472Y4016D01*
Y4008D01*
X1468Y4004D01*
X1452D01*
X1382Y3474D02*
X1358D01*
Y3487D01*
X1362Y3491D01*
X1370D01*
X1374Y3487D01*
Y3474D01*
Y3483D02*
X1382Y3491D01*
X1358Y3499D02*
X1374D01*
X1382Y3508D01*
X1374Y3516D01*
X1358D01*
X1382Y3524D02*
Y3533D01*
Y3528D01*
X1358D01*
X1362Y3524D01*
Y3545D02*
X1358Y3549D01*
Y3558D01*
X1362Y3562D01*
X1378D01*
X1382Y3558D01*
Y3549D01*
X1378Y3545D01*
X1362D01*
X1382Y3570D02*
Y3578D01*
Y3574D01*
X1358D01*
X1362Y3570D01*
X2122Y3908D02*
X2098D01*
Y3921D01*
X2102Y3925D01*
X2110D01*
X2114Y3921D01*
Y3908D01*
Y3916D02*
X2122Y3925D01*
X2098Y3933D02*
X2114D01*
X2122Y3941D01*
X2114Y3950D01*
X2098D01*
X2122Y3958D02*
Y3966D01*
Y3962D01*
X2098D01*
X2102Y3958D01*
Y3979D02*
X2098Y3983D01*
Y3991D01*
X2102Y3996D01*
X2118D01*
X2122Y3991D01*
Y3983D01*
X2118Y3979D01*
X2102D01*
X2122Y4021D02*
Y4004D01*
X2106Y4021D01*
X2102D01*
X2098Y4016D01*
Y4008D01*
X2102Y4004D01*
X1883Y3467D02*
X1858D01*
Y3480D01*
X1862Y3484D01*
X1870D01*
X1874Y3480D01*
Y3467D01*
Y3475D02*
X1883Y3484D01*
X1858Y3492D02*
X1874D01*
X1883Y3500D01*
X1874Y3509D01*
X1858D01*
X1883Y3517D02*
Y3525D01*
Y3521D01*
X1858D01*
X1862Y3517D01*
Y3538D02*
X1858Y3542D01*
Y3550D01*
X1862Y3555D01*
X1878D01*
X1883Y3550D01*
Y3542D01*
X1878Y3538D01*
X1862D01*
Y3563D02*
X1858Y3567D01*
Y3575D01*
X1862Y3580D01*
X1866D01*
X1870Y3575D01*
Y3571D01*
Y3575D01*
X1874Y3580D01*
X1878D01*
X1883Y3575D01*
Y3567D01*
X1878Y3563D01*
X3573Y3130D02*
Y3155D01*
X3585D01*
X3589Y3151D01*
Y3142D01*
X3585Y3138D01*
X3573D01*
X3581D02*
X3589Y3130D01*
X3598Y3155D02*
Y3138D01*
X3606Y3130D01*
X3614Y3138D01*
Y3155D01*
X3623Y3130D02*
X3631D01*
X3627D01*
Y3155D01*
X3623Y3151D01*
X3644D02*
X3648Y3155D01*
X3656D01*
X3660Y3151D01*
Y3134D01*
X3656Y3130D01*
X3648D01*
X3644Y3134D01*
Y3151D01*
X3681Y3130D02*
Y3155D01*
X3669Y3142D01*
X3685D01*
X3563Y2933D02*
Y2958D01*
X3575D01*
X3580Y2954D01*
Y2946D01*
X3575Y2941D01*
X3563D01*
X3571D02*
X3580Y2933D01*
X3588Y2958D02*
Y2941D01*
X3596Y2933D01*
X3605Y2941D01*
Y2958D01*
X3613Y2933D02*
X3621D01*
X3617D01*
Y2958D01*
X3613Y2954D01*
X3634D02*
X3638Y2958D01*
X3646D01*
X3650Y2954D01*
Y2937D01*
X3646Y2933D01*
X3638D01*
X3634Y2937D01*
Y2954D01*
X3675Y2958D02*
X3659D01*
Y2946D01*
X3667Y2950D01*
X3671D01*
X3675Y2946D01*
Y2937D01*
X3671Y2933D01*
X3663D01*
X3659Y2937D01*
X3573Y2736D02*
Y2761D01*
X3585D01*
X3589Y2757D01*
Y2749D01*
X3585Y2745D01*
X3573D01*
X3581D02*
X3589Y2736D01*
X3598Y2761D02*
Y2745D01*
X3606Y2736D01*
X3614Y2745D01*
Y2761D01*
X3623Y2736D02*
X3631D01*
X3627D01*
Y2761D01*
X3623Y2757D01*
X3644D02*
X3648Y2761D01*
X3656D01*
X3660Y2757D01*
Y2740D01*
X3656Y2736D01*
X3648D01*
X3644Y2740D01*
Y2757D01*
X3685Y2761D02*
X3677Y2757D01*
X3669Y2749D01*
Y2740D01*
X3673Y2736D01*
X3681D01*
X3685Y2740D01*
Y2745D01*
X3681Y2749D01*
X3669D01*
X3573Y2539D02*
Y2564D01*
X3585D01*
X3589Y2560D01*
Y2552D01*
X3585Y2548D01*
X3573D01*
X3581D02*
X3589Y2539D01*
X3598Y2564D02*
Y2548D01*
X3606Y2539D01*
X3614Y2548D01*
Y2564D01*
X3623Y2539D02*
X3631D01*
X3627D01*
Y2564D01*
X3623Y2560D01*
X3644D02*
X3648Y2564D01*
X3656D01*
X3660Y2560D01*
Y2544D01*
X3656Y2539D01*
X3648D01*
X3644Y2544D01*
Y2560D01*
X3669Y2564D02*
X3685D01*
Y2560D01*
X3669Y2544D01*
Y2539D01*
X3573Y2333D02*
Y2358D01*
X3585D01*
X3589Y2354D01*
Y2345D01*
X3585Y2341D01*
X3573D01*
X3581D02*
X3589Y2333D01*
X3598Y2358D02*
Y2341D01*
X3606Y2333D01*
X3614Y2341D01*
Y2358D01*
X3623Y2333D02*
X3631D01*
X3627D01*
Y2358D01*
X3623Y2354D01*
X3644D02*
X3648Y2358D01*
X3656D01*
X3660Y2354D01*
Y2337D01*
X3656Y2333D01*
X3648D01*
X3644Y2337D01*
Y2354D01*
X3669D02*
X3673Y2358D01*
X3681D01*
X3685Y2354D01*
Y2349D01*
X3681Y2345D01*
X3685Y2341D01*
Y2337D01*
X3681Y2333D01*
X3673D01*
X3669Y2337D01*
Y2341D01*
X3673Y2345D01*
X3669Y2349D01*
Y2354D01*
X3673Y2345D02*
X3681D01*
X3566Y1248D02*
Y1273D01*
X3578D01*
X3582Y1268D01*
Y1260D01*
X3578Y1256D01*
X3566D01*
X3574D02*
X3582Y1248D01*
X3591Y1273D02*
Y1256D01*
X3599Y1248D01*
X3607Y1256D01*
Y1273D01*
X3616Y1248D02*
X3624D01*
X3620D01*
Y1273D01*
X3616Y1268D01*
X3637D02*
X3641Y1273D01*
X3649D01*
X3653Y1268D01*
Y1252D01*
X3649Y1248D01*
X3641D01*
X3637Y1252D01*
Y1268D01*
X3662Y1252D02*
X3666Y1248D01*
X3674D01*
X3678Y1252D01*
Y1268D01*
X3674Y1273D01*
X3666D01*
X3662Y1268D01*
Y1264D01*
X3666Y1260D01*
X3678D01*
X3568Y1051D02*
Y1076D01*
X3580D01*
X3584Y1071D01*
Y1063D01*
X3580Y1059D01*
X3568D01*
X3576D02*
X3584Y1051D01*
X3593Y1076D02*
Y1059D01*
X3601Y1051D01*
X3609Y1059D01*
Y1076D01*
X3618Y1051D02*
X3626D01*
X3622D01*
Y1076D01*
X3618Y1071D01*
X3638Y1051D02*
X3647D01*
X3643D01*
Y1076D01*
X3638Y1071D01*
X3659D02*
X3663Y1076D01*
X3672D01*
X3676Y1071D01*
Y1055D01*
X3672Y1051D01*
X3663D01*
X3659Y1055D01*
Y1071D01*
X3572Y853D02*
Y878D01*
X3584D01*
X3588Y874D01*
Y866D01*
X3584Y861D01*
X3572D01*
X3580D02*
X3588Y853D01*
X3597Y878D02*
Y861D01*
X3605Y853D01*
X3613Y861D01*
Y878D01*
X3622Y853D02*
X3630D01*
X3626D01*
Y878D01*
X3622Y874D01*
X3643Y853D02*
X3651D01*
X3647D01*
Y878D01*
X3643Y874D01*
X3663Y853D02*
X3672D01*
X3668D01*
Y878D01*
X3663Y874D01*
X3568Y657D02*
Y682D01*
X3581D01*
X3585Y678D01*
Y670D01*
X3581Y665D01*
X3568D01*
X3577D02*
X3585Y657D01*
X3593Y682D02*
Y665D01*
X3602Y657D01*
X3610Y665D01*
Y682D01*
X3618Y657D02*
X3627D01*
X3622D01*
Y682D01*
X3618Y678D01*
X3639Y657D02*
X3647D01*
X3643D01*
Y682D01*
X3639Y678D01*
X3677Y657D02*
X3660D01*
X3677Y674D01*
Y678D01*
X3672Y682D01*
X3664D01*
X3660Y678D01*
X3568Y460D02*
Y485D01*
X3580D01*
X3585Y481D01*
Y472D01*
X3580Y468D01*
X3568D01*
X3576D02*
X3585Y460D01*
X3593Y485D02*
Y468D01*
X3601Y460D01*
X3610Y468D01*
Y485D01*
X3618Y460D02*
X3626D01*
X3622D01*
Y485D01*
X3618Y481D01*
X3639Y460D02*
X3647D01*
X3643D01*
Y485D01*
X3639Y481D01*
X3660D02*
X3664Y485D01*
X3672D01*
X3676Y481D01*
Y476D01*
X3672Y472D01*
X3668D01*
X3672D01*
X3676Y468D01*
Y464D01*
X3672Y460D01*
X3664D01*
X3660Y464D01*
X2998Y2814D02*
X3018D01*
X3023Y2818D01*
Y2826D01*
X3018Y2830D01*
X2998D01*
X3023Y2838D02*
Y2847D01*
Y2843D01*
X2998D01*
X3002Y2838D01*
Y2859D02*
X2998Y2863D01*
Y2872D01*
X3002Y2876D01*
X3018D01*
X3023Y2872D01*
Y2863D01*
X3018Y2859D01*
X3002D01*
Y2884D02*
X2998Y2888D01*
Y2897D01*
X3002Y2901D01*
X3018D01*
X3023Y2897D01*
Y2888D01*
X3018Y2884D01*
X3002D01*
X3038Y998D02*
X3058D01*
X3063Y1002D01*
Y1010D01*
X3058Y1014D01*
X3038D01*
X3063Y1023D02*
Y1031D01*
Y1027D01*
X3038D01*
X3042Y1023D01*
Y1043D02*
X3038Y1048D01*
Y1056D01*
X3042Y1060D01*
X3058D01*
X3063Y1056D01*
Y1048D01*
X3058Y1043D01*
X3042D01*
X3063Y1068D02*
Y1077D01*
Y1073D01*
X3038D01*
X3042Y1068D01*
X1930Y2837D02*
Y2816D01*
X1935Y2812D01*
X1943D01*
X1947Y2816D01*
Y2837D01*
X1972Y2812D02*
X1955D01*
X1972Y2829D01*
Y2833D01*
X1968Y2837D01*
X1960D01*
X1955Y2833D01*
X1980D02*
X1985Y2837D01*
X1993D01*
X1997Y2833D01*
Y2816D01*
X1993Y2812D01*
X1985D01*
X1980Y2816D01*
Y2833D01*
X2005D02*
X2010Y2837D01*
X2018D01*
X2022Y2833D01*
Y2816D01*
X2018Y2812D01*
X2010D01*
X2005Y2816D01*
Y2833D01*
X234Y4112D02*
X251Y4087D01*
Y4112D02*
X234Y4087D01*
X259D02*
X267D01*
X263D01*
Y4112D01*
X259Y4108D01*
X280D02*
X284Y4112D01*
X292D01*
X296Y4108D01*
Y4091D01*
X292Y4087D01*
X284D01*
X280Y4091D01*
Y4108D01*
X305D02*
X309Y4112D01*
X317D01*
X321Y4108D01*
Y4091D01*
X317Y4087D01*
X309D01*
X305Y4091D01*
Y4108D01*
X1922Y324D02*
X1939Y299D01*
Y324D02*
X1922Y299D01*
X1947D02*
X1956D01*
X1952D01*
Y324D01*
X1947Y320D01*
X1968D02*
X1972Y324D01*
X1981D01*
X1985Y320D01*
Y303D01*
X1981Y299D01*
X1972D01*
X1968Y303D01*
Y320D01*
X1993Y299D02*
X2002D01*
X1997D01*
Y324D01*
X1993Y320D01*
X90Y730D02*
X107Y705D01*
Y730D02*
X90Y705D01*
X115D02*
X123D01*
X119D01*
Y730D01*
X115Y726D01*
X136D02*
X140Y730D01*
X148D01*
X152Y726D01*
Y709D01*
X148Y705D01*
X140D01*
X136Y709D01*
Y726D01*
X173Y705D02*
Y730D01*
X161Y717D01*
X177D01*
X2720Y3125D02*
X2737Y3100D01*
Y3125D02*
X2720Y3100D01*
X2745D02*
X2753D01*
X2749D01*
Y3125D01*
X2745Y3121D01*
X2766D02*
X2770Y3125D01*
X2778D01*
X2782Y3121D01*
Y3104D01*
X2778Y3100D01*
X2770D01*
X2766Y3104D01*
Y3121D01*
X2807Y3125D02*
X2791D01*
Y3112D01*
X2799Y3117D01*
X2803D01*
X2807Y3112D01*
Y3104D01*
X2803Y3100D01*
X2795D01*
X2791Y3104D01*
X2521Y335D02*
X2538Y310D01*
Y335D02*
X2521Y310D01*
X2546D02*
X2554D01*
X2550D01*
Y335D01*
X2546Y331D01*
X2567D02*
X2571Y335D01*
X2579D01*
X2583Y331D01*
Y315D01*
X2579Y310D01*
X2571D01*
X2567Y315D01*
Y331D01*
X2608Y335D02*
X2600Y331D01*
X2592Y323D01*
Y315D01*
X2596Y310D01*
X2604D01*
X2608Y315D01*
Y319D01*
X2604Y323D01*
X2592D01*
X2825Y1205D02*
X2842Y1180D01*
Y1205D02*
X2825Y1180D01*
X2850D02*
X2858D01*
X2854D01*
Y1205D01*
X2850Y1201D01*
X2871D02*
X2875Y1205D01*
X2883D01*
X2887Y1201D01*
Y1184D01*
X2883Y1180D01*
X2875D01*
X2871Y1184D01*
Y1201D01*
X2896Y1205D02*
X2912D01*
Y1201D01*
X2896Y1184D01*
Y1180D01*
X1339Y319D02*
X1356Y294D01*
Y319D02*
X1339Y294D01*
X1381D02*
X1364D01*
X1381Y311D01*
Y315D01*
X1376Y319D01*
X1368D01*
X1364Y315D01*
X1389D02*
X1393Y319D01*
X1401D01*
X1406Y315D01*
Y298D01*
X1401Y294D01*
X1393D01*
X1389Y298D01*
Y315D01*
X1414D02*
X1418Y319D01*
X1426D01*
X1431Y315D01*
Y298D01*
X1426Y294D01*
X1418D01*
X1414Y298D01*
Y315D01*
X835Y897D02*
X860Y914D01*
X835D02*
X860Y897D01*
X835Y922D02*
Y930D01*
Y926D01*
X860D01*
Y922D01*
Y930D01*
Y943D02*
X843D01*
X835Y951D01*
X843Y959D01*
X860D01*
X848D01*
Y943D01*
X860Y968D02*
Y976D01*
Y972D01*
X835D01*
X839Y968D01*
Y988D02*
X835Y993D01*
Y1001D01*
X839Y1005D01*
X856D01*
X860Y1001D01*
Y993D01*
X856Y988D01*
X839D01*
Y1013D02*
X835Y1018D01*
Y1026D01*
X839Y1030D01*
X856D01*
X860Y1026D01*
Y1018D01*
X856Y1013D01*
X839D01*
X833Y1927D02*
X858Y1944D01*
X833D02*
X858Y1927D01*
X833Y1952D02*
Y1960D01*
Y1956D01*
X858D01*
Y1952D01*
Y1960D01*
Y1973D02*
X841D01*
X833Y1981D01*
X841Y1989D01*
X858D01*
X846D01*
Y1973D01*
X858Y1998D02*
Y2006D01*
Y2002D01*
X833D01*
X837Y1998D01*
Y2018D02*
X833Y2023D01*
Y2031D01*
X837Y2035D01*
X854D01*
X858Y2031D01*
Y2023D01*
X854Y2018D01*
X837D01*
X858Y2043D02*
Y2052D01*
Y2048D01*
X833D01*
X837Y2043D01*
X2500Y2965D02*
X2517Y2940D01*
Y2965D02*
X2500Y2940D01*
X2525Y2965D02*
X2533D01*
X2529D01*
Y2940D01*
X2525D01*
X2533D01*
X2562Y2961D02*
X2558Y2965D01*
X2550D01*
X2546Y2961D01*
Y2944D01*
X2550Y2940D01*
X2558D01*
X2562Y2944D01*
X2571Y2965D02*
Y2940D01*
X2583D01*
X2587Y2944D01*
Y2961D01*
X2583Y2965D01*
X2571D01*
X2612Y2940D02*
X2596D01*
X2612Y2957D01*
Y2961D01*
X2608Y2965D01*
X2600D01*
X2596Y2961D01*
X2621D02*
X2625Y2965D01*
X2633D01*
X2637Y2961D01*
Y2944D01*
X2633Y2940D01*
X2625D01*
X2621Y2944D01*
Y2961D01*
X2646D02*
X2650Y2965D01*
X2658D01*
X2662Y2961D01*
Y2944D01*
X2658Y2940D01*
X2650D01*
X2646Y2944D01*
Y2961D01*
X3720Y1973D02*
X3737Y1948D01*
Y1973D02*
X3720Y1948D01*
X3745D02*
Y1973D01*
X3757D01*
X3762Y1969D01*
Y1960D01*
X3757Y1956D01*
X3745D01*
X3770Y1948D02*
X3778D01*
X3774D01*
Y1973D01*
X3770Y1969D01*
X3791D02*
X3795Y1973D01*
X3803D01*
X3807Y1969D01*
Y1952D01*
X3803Y1948D01*
X3795D01*
X3791Y1952D01*
Y1969D01*
X3816D02*
X3820Y1973D01*
X3828D01*
X3832Y1969D01*
Y1952D01*
X3828Y1948D01*
X3820D01*
X3816Y1952D01*
Y1969D01*
X3727Y3865D02*
X3744Y3840D01*
Y3865D02*
X3727Y3840D01*
X3752D02*
Y3865D01*
X3765D01*
X3769Y3861D01*
Y3852D01*
X3765Y3848D01*
X3752D01*
X3777Y3840D02*
X3786D01*
X3782D01*
Y3865D01*
X3777Y3861D01*
X3798D02*
X3802Y3865D01*
X3811D01*
X3815Y3861D01*
Y3844D01*
X3811Y3840D01*
X3802D01*
X3798Y3844D01*
Y3861D01*
X3823Y3840D02*
X3832D01*
X3827D01*
Y3865D01*
X3823Y3861D01*
X3720Y3667D02*
X3737Y3642D01*
Y3667D02*
X3720Y3642D01*
X3745D02*
Y3667D01*
X3757D01*
X3762Y3663D01*
Y3655D01*
X3757Y3650D01*
X3745D01*
X3770Y3642D02*
X3778D01*
X3774D01*
Y3667D01*
X3770Y3663D01*
X3791D02*
X3795Y3667D01*
X3803D01*
X3807Y3663D01*
Y3646D01*
X3803Y3642D01*
X3795D01*
X3791Y3646D01*
Y3663D01*
X3832Y3642D02*
X3816D01*
X3832Y3659D01*
Y3663D01*
X3828Y3667D01*
X3820D01*
X3816Y3663D01*
X3711Y1775D02*
X3728Y1750D01*
Y1775D02*
X3711Y1750D01*
X3736D02*
Y1775D01*
X3749D01*
X3753Y1771D01*
Y1762D01*
X3749Y1758D01*
X3736D01*
X3761Y1750D02*
X3770D01*
X3766D01*
Y1775D01*
X3761Y1771D01*
X3782D02*
X3786Y1775D01*
X3795D01*
X3799Y1771D01*
Y1754D01*
X3795Y1750D01*
X3786D01*
X3782Y1754D01*
Y1771D01*
X3807D02*
X3811Y1775D01*
X3820D01*
X3824Y1771D01*
Y1767D01*
X3820Y1762D01*
X3816D01*
X3820D01*
X3824Y1758D01*
Y1754D01*
X3820Y1750D01*
X3811D01*
X3807Y1754D01*
X3715Y3475D02*
X3732Y3450D01*
Y3475D02*
X3715Y3450D01*
X3740D02*
Y3475D01*
X3752D01*
X3757Y3471D01*
Y3463D01*
X3752Y3458D01*
X3740D01*
X3765Y3450D02*
X3773D01*
X3769D01*
Y3475D01*
X3765Y3471D01*
X3786D02*
X3790Y3475D01*
X3798D01*
X3802Y3471D01*
Y3454D01*
X3798Y3450D01*
X3790D01*
X3786Y3454D01*
Y3471D01*
X3823Y3450D02*
Y3475D01*
X3811Y3463D01*
X3827D01*
X3720Y1585D02*
X3737Y1560D01*
Y1585D02*
X3720Y1560D01*
X3745D02*
Y1585D01*
X3757D01*
X3762Y1581D01*
Y1572D01*
X3757Y1568D01*
X3745D01*
X3770Y1560D02*
X3778D01*
X3774D01*
Y1585D01*
X3770Y1581D01*
X3791D02*
X3795Y1585D01*
X3803D01*
X3807Y1581D01*
Y1564D01*
X3803Y1560D01*
X3795D01*
X3791Y1564D01*
Y1581D01*
X3832Y1585D02*
X3816D01*
Y1572D01*
X3824Y1577D01*
X3828D01*
X3832Y1572D01*
Y1564D01*
X3828Y1560D01*
X3820D01*
X3816Y1564D01*
X3715Y3275D02*
X3732Y3250D01*
Y3275D02*
X3715Y3250D01*
X3740D02*
Y3275D01*
X3752D01*
X3757Y3271D01*
Y3262D01*
X3752Y3258D01*
X3740D01*
X3765Y3250D02*
X3773D01*
X3769D01*
Y3275D01*
X3765Y3271D01*
X3786D02*
X3790Y3275D01*
X3798D01*
X3802Y3271D01*
Y3254D01*
X3798Y3250D01*
X3790D01*
X3786Y3254D01*
Y3271D01*
X3827Y3275D02*
X3819Y3271D01*
X3811Y3262D01*
Y3254D01*
X3815Y3250D01*
X3823D01*
X3827Y3254D01*
Y3258D01*
X3823Y3262D01*
X3811D01*
X3727Y1385D02*
X3744Y1360D01*
Y1385D02*
X3727Y1360D01*
X3752D02*
Y1385D01*
X3765D01*
X3769Y1381D01*
Y1372D01*
X3765Y1368D01*
X3752D01*
X3777Y1360D02*
X3786D01*
X3782D01*
Y1385D01*
X3777Y1381D01*
X3798D02*
X3802Y1385D01*
X3811D01*
X3815Y1381D01*
Y1364D01*
X3811Y1360D01*
X3802D01*
X3798Y1364D01*
Y1381D01*
X3823Y1385D02*
X3840D01*
Y1381D01*
X3823Y1364D01*
Y1360D01*
X3720Y3075D02*
X3737Y3050D01*
Y3075D02*
X3720Y3050D01*
X3745D02*
Y3075D01*
X3757D01*
X3762Y3071D01*
Y3063D01*
X3757Y3058D01*
X3745D01*
X3770Y3050D02*
X3778D01*
X3774D01*
Y3075D01*
X3770Y3071D01*
X3791D02*
X3795Y3075D01*
X3803D01*
X3807Y3071D01*
Y3054D01*
X3803Y3050D01*
X3795D01*
X3791Y3054D01*
Y3071D01*
X3816D02*
X3820Y3075D01*
X3828D01*
X3832Y3071D01*
Y3067D01*
X3828Y3063D01*
X3832Y3058D01*
Y3054D01*
X3828Y3050D01*
X3820D01*
X3816Y3054D01*
Y3058D01*
X3820Y3063D01*
X3816Y3067D01*
Y3071D01*
X3820Y3063D02*
X3828D01*
X3720Y1189D02*
X3737Y1164D01*
Y1189D02*
X3720Y1164D01*
X3745D02*
Y1189D01*
X3757D01*
X3762Y1185D01*
Y1176D01*
X3757Y1172D01*
X3745D01*
X3770Y1164D02*
X3778D01*
X3774D01*
Y1189D01*
X3770Y1185D01*
X3791D02*
X3795Y1189D01*
X3803D01*
X3807Y1185D01*
Y1168D01*
X3803Y1164D01*
X3795D01*
X3791Y1168D01*
Y1185D01*
X3816Y1168D02*
X3820Y1164D01*
X3828D01*
X3832Y1168D01*
Y1185D01*
X3828Y1189D01*
X3820D01*
X3816Y1185D01*
Y1181D01*
X3820Y1176D01*
X3832D01*
X3720Y2883D02*
X3737Y2858D01*
Y2883D02*
X3720Y2858D01*
X3745D02*
Y2883D01*
X3757D01*
X3762Y2879D01*
Y2871D01*
X3757Y2866D01*
X3745D01*
X3770Y2858D02*
X3778D01*
X3774D01*
Y2883D01*
X3770Y2879D01*
X3791Y2858D02*
X3799D01*
X3795D01*
Y2883D01*
X3791Y2879D01*
X3812D02*
X3816Y2883D01*
X3824D01*
X3828Y2879D01*
Y2862D01*
X3824Y2858D01*
X3816D01*
X3812Y2862D01*
Y2879D01*
X3720Y990D02*
X3737Y965D01*
Y990D02*
X3720Y965D01*
X3745D02*
Y990D01*
X3757D01*
X3762Y986D01*
Y977D01*
X3757Y973D01*
X3745D01*
X3770Y965D02*
X3778D01*
X3774D01*
Y990D01*
X3770Y986D01*
X3791Y965D02*
X3799D01*
X3795D01*
Y990D01*
X3791Y986D01*
X3812Y965D02*
X3820D01*
X3816D01*
Y990D01*
X3812Y986D01*
X3727Y2685D02*
X3744Y2660D01*
Y2685D02*
X3727Y2660D01*
X3752D02*
Y2685D01*
X3765D01*
X3769Y2681D01*
Y2672D01*
X3765Y2668D01*
X3752D01*
X3777Y2660D02*
X3786D01*
X3782D01*
Y2685D01*
X3777Y2681D01*
X3798Y2660D02*
X3807D01*
X3802D01*
Y2685D01*
X3798Y2681D01*
X3836Y2660D02*
X3819D01*
X3836Y2677D01*
Y2681D01*
X3832Y2685D01*
X3823D01*
X3819Y2681D01*
X3720Y789D02*
X3737Y764D01*
Y789D02*
X3720Y764D01*
X3745D02*
Y789D01*
X3757D01*
X3762Y785D01*
Y776D01*
X3757Y772D01*
X3745D01*
X3770Y764D02*
X3778D01*
X3774D01*
Y789D01*
X3770Y785D01*
X3791Y764D02*
X3799D01*
X3795D01*
Y789D01*
X3791Y785D01*
X3812D02*
X3816Y789D01*
X3824D01*
X3828Y785D01*
Y781D01*
X3824Y776D01*
X3820D01*
X3824D01*
X3828Y772D01*
Y768D01*
X3824Y764D01*
X3816D01*
X3812Y768D01*
X3720Y2485D02*
X3737Y2460D01*
Y2485D02*
X3720Y2460D01*
X3745D02*
Y2485D01*
X3757D01*
X3762Y2481D01*
Y2472D01*
X3757Y2468D01*
X3745D01*
X3770Y2460D02*
X3778D01*
X3774D01*
Y2485D01*
X3770Y2481D01*
X3791Y2460D02*
X3799D01*
X3795D01*
Y2485D01*
X3791Y2481D01*
X3824Y2460D02*
Y2485D01*
X3812Y2472D01*
X3828D01*
X3725Y597D02*
X3742Y572D01*
Y597D02*
X3725Y572D01*
X3750D02*
Y597D01*
X3762D01*
X3767Y593D01*
Y584D01*
X3762Y580D01*
X3750D01*
X3775Y572D02*
X3783D01*
X3779D01*
Y597D01*
X3775Y593D01*
X3796Y572D02*
X3804D01*
X3800D01*
Y597D01*
X3796Y593D01*
X3833Y597D02*
X3817D01*
Y584D01*
X3825Y589D01*
X3829D01*
X3833Y584D01*
Y576D01*
X3829Y572D01*
X3821D01*
X3817Y576D01*
X3727Y2285D02*
X3744Y2260D01*
Y2285D02*
X3727Y2260D01*
X3752D02*
Y2285D01*
X3765D01*
X3769Y2281D01*
Y2272D01*
X3765Y2268D01*
X3752D01*
X3777Y2260D02*
X3786D01*
X3782D01*
Y2285D01*
X3777Y2281D01*
X3798Y2260D02*
X3807D01*
X3802D01*
Y2285D01*
X3798Y2281D01*
X3836Y2285D02*
X3827Y2281D01*
X3819Y2272D01*
Y2264D01*
X3823Y2260D01*
X3832D01*
X3836Y2264D01*
Y2268D01*
X3832Y2272D01*
X3819D01*
X3730Y405D02*
X3747Y380D01*
Y405D02*
X3730Y380D01*
X3755D02*
Y405D01*
X3767D01*
X3772Y401D01*
Y392D01*
X3767Y388D01*
X3755D01*
X3780Y380D02*
X3788D01*
X3784D01*
Y405D01*
X3780Y401D01*
X3801Y380D02*
X3809D01*
X3805D01*
Y405D01*
X3801Y401D01*
X3822Y405D02*
X3838D01*
Y401D01*
X3822Y384D01*
Y380D01*
X1128Y2960D02*
X1145Y2935D01*
Y2960D02*
X1128Y2935D01*
X1170Y2956D02*
X1165Y2960D01*
X1157D01*
X1153Y2956D01*
Y2952D01*
X1157Y2947D01*
X1165D01*
X1170Y2943D01*
Y2939D01*
X1165Y2935D01*
X1157D01*
X1153Y2939D01*
X1178Y2960D02*
X1195D01*
X1186D01*
Y2935D01*
X1220D02*
X1203D01*
X1220Y2952D01*
Y2956D01*
X1215Y2960D01*
X1207D01*
X1203Y2956D01*
X1228D02*
X1232Y2960D01*
X1240D01*
X1245Y2956D01*
Y2939D01*
X1240Y2935D01*
X1232D01*
X1228Y2939D01*
Y2956D01*
X1253D02*
X1257Y2960D01*
X1265D01*
X1270Y2956D01*
Y2939D01*
X1265Y2935D01*
X1257D01*
X1253Y2939D01*
Y2956D01*
X2227Y329D02*
X2244Y304D01*
Y329D02*
X2227Y304D01*
X2269D02*
X2252D01*
X2269Y321D01*
Y325D01*
X2264Y329D01*
X2256D01*
X2252Y325D01*
X2277D02*
X2281Y329D01*
X2289D01*
X2293Y325D01*
Y308D01*
X2289Y304D01*
X2281D01*
X2277Y308D01*
Y325D01*
X2302Y304D02*
X2310D01*
X2306D01*
Y329D01*
X2302Y325D01*
X1628Y324D02*
X1645Y299D01*
Y324D02*
X1628Y299D01*
X1653D02*
X1662D01*
X1657D01*
Y324D01*
X1653Y320D01*
X1674D02*
X1678Y324D01*
X1687D01*
X1691Y320D01*
Y303D01*
X1687Y299D01*
X1678D01*
X1674Y303D01*
Y320D01*
X1716Y299D02*
X1699D01*
X1716Y316D01*
Y320D01*
X1711Y324D01*
X1703D01*
X1699Y320D01*
X3405Y2050D02*
Y2029D01*
X3409Y2025D01*
X3417D01*
X3422Y2029D01*
Y2050D01*
X3447Y2025D02*
X3430D01*
X3447Y2041D01*
Y2045D01*
X3442Y2050D01*
X3434D01*
X3430Y2045D01*
X3455D02*
X3459Y2050D01*
X3467D01*
X3472Y2045D01*
Y2029D01*
X3467Y2025D01*
X3459D01*
X3455Y2029D01*
Y2045D01*
X3480Y2025D02*
X3488D01*
X3484D01*
Y2050D01*
X3480Y2045D01*
X2794Y1943D02*
X2811D01*
X2803D01*
Y1918D01*
X2836D02*
X2819D01*
X2836Y1935D01*
Y1939D01*
X2832Y1943D01*
X2824D01*
X2819Y1939D01*
X2844D02*
X2849Y1943D01*
X2857D01*
X2861Y1939D01*
Y1922D01*
X2857Y1918D01*
X2849D01*
X2844Y1922D01*
Y1939D01*
X2869D02*
X2874Y1943D01*
X2882D01*
X2886Y1939D01*
Y1935D01*
X2882Y1931D01*
X2878D01*
X2882D01*
X2886Y1926D01*
Y1922D01*
X2882Y1918D01*
X2874D01*
X2869Y1922D01*
X2934Y1938D02*
X2951D01*
X2943D01*
Y1913D01*
X2976D02*
X2959D01*
X2976Y1930D01*
Y1934D01*
X2972Y1938D01*
X2964D01*
X2959Y1934D01*
X2984D02*
X2989Y1938D01*
X2997D01*
X3001Y1934D01*
Y1918D01*
X2997Y1913D01*
X2989D01*
X2984Y1918D01*
Y1934D01*
X3026Y1913D02*
X3009D01*
X3026Y1930D01*
Y1934D01*
X3022Y1938D01*
X3014D01*
X3009Y1934D01*
X2871Y1617D02*
X2888D01*
X2880D01*
Y1592D01*
X2913D02*
X2896D01*
X2913Y1609D01*
Y1613D01*
X2909Y1617D01*
X2901D01*
X2896Y1613D01*
X2921D02*
X2926Y1617D01*
X2934D01*
X2938Y1613D01*
Y1596D01*
X2934Y1592D01*
X2926D01*
X2921Y1596D01*
Y1613D01*
X2946Y1592D02*
X2955D01*
X2951D01*
Y1617D01*
X2946Y1613D01*
X3364Y1857D02*
X3381D01*
X3372D01*
Y1832D01*
X3406D02*
X3389D01*
X3406Y1849D01*
Y1853D01*
X3401Y1857D01*
X3393D01*
X3389Y1853D01*
X3414D02*
X3418Y1857D01*
X3426D01*
X3431Y1853D01*
Y1836D01*
X3426Y1832D01*
X3418D01*
X3414Y1836D01*
Y1853D01*
X3439D02*
X3443Y1857D01*
X3451D01*
X3456Y1853D01*
Y1836D01*
X3451Y1832D01*
X3443D01*
X3439Y1836D01*
Y1853D01*
X2464Y1902D02*
Y1927D01*
X2477D01*
X2481Y1923D01*
Y1915D01*
X2477Y1910D01*
X2464D01*
X2473D02*
X2481Y1902D01*
X2506D02*
X2489D01*
X2506Y1919D01*
Y1923D01*
X2502Y1927D01*
X2494D01*
X2489Y1923D01*
X2531Y1927D02*
X2514D01*
Y1915D01*
X2523Y1919D01*
X2527D01*
X2531Y1915D01*
Y1906D01*
X2527Y1902D01*
X2519D01*
X2514Y1906D01*
X2539Y1923D02*
X2544Y1927D01*
X2552D01*
X2556Y1923D01*
Y1919D01*
X2552Y1915D01*
X2548D01*
X2552D01*
X2556Y1910D01*
Y1906D01*
X2552Y1902D01*
X2544D01*
X2539Y1906D01*
X2928Y1712D02*
Y1737D01*
X2941D01*
X2945Y1733D01*
Y1725D01*
X2941Y1720D01*
X2928D01*
X2937D02*
X2945Y1712D01*
X2970D02*
X2953D01*
X2970Y1729D01*
Y1733D01*
X2966Y1737D01*
X2958D01*
X2953Y1733D01*
X2995Y1737D02*
X2978D01*
Y1725D01*
X2987Y1729D01*
X2991D01*
X2995Y1725D01*
Y1716D01*
X2991Y1712D01*
X2983D01*
X2978Y1716D01*
X3003Y1712D02*
X3012D01*
X3008D01*
Y1737D01*
X3003Y1733D01*
X2924Y1802D02*
Y1827D01*
X2937D01*
X2941Y1823D01*
Y1815D01*
X2937Y1810D01*
X2924D01*
X2933D02*
X2941Y1802D01*
X2966D02*
X2949D01*
X2966Y1819D01*
Y1823D01*
X2962Y1827D01*
X2954D01*
X2949Y1823D01*
X2991Y1827D02*
X2974D01*
Y1815D01*
X2983Y1819D01*
X2987D01*
X2991Y1815D01*
Y1806D01*
X2987Y1802D01*
X2979D01*
X2974Y1806D01*
X2999Y1823D02*
X3004Y1827D01*
X3012D01*
X3016Y1823D01*
Y1806D01*
X3012Y1802D01*
X3004D01*
X2999Y1806D01*
Y1823D01*
X3084Y1912D02*
Y1937D01*
X3097D01*
X3101Y1933D01*
Y1925D01*
X3097Y1920D01*
X3084D01*
X3093D02*
X3101Y1912D01*
X3126D02*
X3109D01*
X3126Y1929D01*
Y1933D01*
X3122Y1937D01*
X3114D01*
X3109Y1933D01*
X3147Y1912D02*
Y1937D01*
X3134Y1925D01*
X3151D01*
X3159Y1916D02*
X3164Y1912D01*
X3172D01*
X3176Y1916D01*
Y1933D01*
X3172Y1937D01*
X3164D01*
X3159Y1933D01*
Y1929D01*
X3164Y1925D01*
X3176D01*
X3014Y2192D02*
Y2217D01*
X3027D01*
X3031Y2213D01*
Y2205D01*
X3027Y2200D01*
X3014D01*
X3023D02*
X3031Y2192D01*
X3056D02*
X3039D01*
X3056Y2209D01*
Y2213D01*
X3052Y2217D01*
X3044D01*
X3039Y2213D01*
X3077Y2192D02*
Y2217D01*
X3064Y2205D01*
X3081D01*
X3089Y2213D02*
X3094Y2217D01*
X3102D01*
X3106Y2213D01*
Y2209D01*
X3102Y2205D01*
X3106Y2200D01*
Y2196D01*
X3102Y2192D01*
X3094D01*
X3089Y2196D01*
Y2200D01*
X3094Y2205D01*
X3089Y2209D01*
Y2213D01*
X3094Y2205D02*
X3102D01*
X3084Y1802D02*
Y1827D01*
X3097D01*
X3101Y1823D01*
Y1815D01*
X3097Y1810D01*
X3084D01*
X3093D02*
X3101Y1802D01*
X3126D02*
X3109D01*
X3126Y1819D01*
Y1823D01*
X3122Y1827D01*
X3114D01*
X3109Y1823D01*
X3147Y1802D02*
Y1827D01*
X3134Y1815D01*
X3151D01*
X3159Y1827D02*
X3176D01*
Y1823D01*
X3159Y1806D01*
Y1802D01*
X3084Y2002D02*
Y2027D01*
X3097D01*
X3101Y2023D01*
Y2015D01*
X3097Y2010D01*
X3084D01*
X3093D02*
X3101Y2002D01*
X3126D02*
X3109D01*
X3126Y2019D01*
Y2023D01*
X3122Y2027D01*
X3114D01*
X3109Y2023D01*
X3147Y2002D02*
Y2027D01*
X3134Y2015D01*
X3151D01*
X3176Y2027D02*
X3168Y2023D01*
X3159Y2015D01*
Y2006D01*
X3164Y2002D01*
X3172D01*
X3176Y2006D01*
Y2010D01*
X3172Y2015D01*
X3159D01*
X3670Y1960D02*
X3645D01*
Y1972D01*
X3649Y1976D01*
X3658D01*
X3662Y1972D01*
Y1960D01*
Y1968D02*
X3670Y1976D01*
Y2001D02*
Y1985D01*
X3653Y2001D01*
X3649D01*
X3645Y1997D01*
Y1989D01*
X3649Y1985D01*
X3670Y2022D02*
X3645D01*
X3658Y2010D01*
Y2026D01*
X3645Y2051D02*
Y2035D01*
X3658D01*
X3653Y2043D01*
Y2047D01*
X3658Y2051D01*
X3666D01*
X3670Y2047D01*
Y2039D01*
X3666Y2035D01*
X3344Y1707D02*
Y1732D01*
X3357D01*
X3361Y1728D01*
Y1720D01*
X3357Y1716D01*
X3344D01*
X3353D02*
X3361Y1707D01*
X3386D02*
X3369D01*
X3386Y1724D01*
Y1728D01*
X3382Y1732D01*
X3374D01*
X3369Y1728D01*
X3407Y1707D02*
Y1732D01*
X3394Y1720D01*
X3411D01*
X3432Y1707D02*
Y1732D01*
X3419Y1720D01*
X3436D01*
X3184Y2194D02*
Y2219D01*
X3197D01*
X3201Y2215D01*
Y2207D01*
X3197Y2202D01*
X3184D01*
X3193D02*
X3201Y2194D01*
X3226D02*
X3209D01*
X3226Y2211D01*
Y2215D01*
X3222Y2219D01*
X3214D01*
X3209Y2215D01*
X3247Y2194D02*
Y2219D01*
X3234Y2207D01*
X3251D01*
X3259Y2215D02*
X3264Y2219D01*
X3272D01*
X3276Y2215D01*
Y2211D01*
X3272Y2207D01*
X3268D01*
X3272D01*
X3276Y2202D01*
Y2198D01*
X3272Y2194D01*
X3264D01*
X3259Y2198D01*
X2564Y1192D02*
Y1217D01*
X2577D01*
X2581Y1213D01*
Y1205D01*
X2577Y1200D01*
X2564D01*
X2573D02*
X2581Y1192D01*
X2606D02*
X2589D01*
X2606Y1209D01*
Y1213D01*
X2602Y1217D01*
X2594D01*
X2589Y1213D01*
X2627Y1192D02*
Y1217D01*
X2614Y1205D01*
X2631D01*
X2639Y1213D02*
X2644Y1217D01*
X2652D01*
X2656Y1213D01*
Y1196D01*
X2652Y1192D01*
X2644D01*
X2639Y1196D01*
Y1213D01*
X1904Y1892D02*
Y1917D01*
X1917D01*
X1921Y1913D01*
Y1905D01*
X1917Y1900D01*
X1904D01*
X1913D02*
X1921Y1892D01*
X1946D02*
X1929D01*
X1946Y1909D01*
Y1913D01*
X1942Y1917D01*
X1934D01*
X1929Y1913D01*
X1954D02*
X1959Y1917D01*
X1967D01*
X1971Y1913D01*
Y1909D01*
X1967Y1905D01*
X1963D01*
X1967D01*
X1971Y1900D01*
Y1896D01*
X1967Y1892D01*
X1959D01*
X1954Y1896D01*
X1979D02*
X1984Y1892D01*
X1992D01*
X1996Y1896D01*
Y1913D01*
X1992Y1917D01*
X1984D01*
X1979Y1913D01*
Y1909D01*
X1984Y1905D01*
X1996D01*
X1644Y1712D02*
Y1737D01*
X1657D01*
X1661Y1733D01*
Y1725D01*
X1657Y1720D01*
X1644D01*
X1653D02*
X1661Y1712D01*
X1686D02*
X1669D01*
X1686Y1729D01*
Y1733D01*
X1682Y1737D01*
X1674D01*
X1669Y1733D01*
X1694D02*
X1699Y1737D01*
X1707D01*
X1711Y1733D01*
Y1729D01*
X1707Y1725D01*
X1703D01*
X1707D01*
X1711Y1720D01*
Y1716D01*
X1707Y1712D01*
X1699D01*
X1694Y1716D01*
X1719Y1733D02*
X1724Y1737D01*
X1732D01*
X1736Y1733D01*
Y1729D01*
X1732Y1725D01*
X1736Y1720D01*
Y1716D01*
X1732Y1712D01*
X1724D01*
X1719Y1716D01*
Y1720D01*
X1724Y1725D01*
X1719Y1729D01*
Y1733D01*
X1724Y1725D02*
X1732D01*
X2490Y1140D02*
X2465D01*
Y1152D01*
X2469Y1156D01*
X2478D01*
X2482Y1152D01*
Y1140D01*
Y1148D02*
X2490Y1156D01*
Y1181D02*
Y1165D01*
X2473Y1181D01*
X2469D01*
X2465Y1177D01*
Y1169D01*
X2469Y1165D01*
Y1190D02*
X2465Y1194D01*
Y1202D01*
X2469Y1206D01*
X2473D01*
X2478Y1202D01*
Y1198D01*
Y1202D01*
X2482Y1206D01*
X2486D01*
X2490Y1202D01*
Y1194D01*
X2486Y1190D01*
X2465Y1231D02*
Y1215D01*
X2478D01*
X2473Y1223D01*
Y1227D01*
X2478Y1231D01*
X2486D01*
X2490Y1227D01*
Y1219D01*
X2486Y1215D01*
X2580Y1300D02*
X2555D01*
Y1312D01*
X2559Y1316D01*
X2568D01*
X2572Y1312D01*
Y1300D01*
Y1308D02*
X2580Y1316D01*
Y1341D02*
Y1325D01*
X2563Y1341D01*
X2559D01*
X2555Y1337D01*
Y1329D01*
X2559Y1325D01*
Y1350D02*
X2555Y1354D01*
Y1362D01*
X2559Y1366D01*
X2563D01*
X2568Y1362D01*
Y1358D01*
Y1362D01*
X2572Y1366D01*
X2576D01*
X2580Y1362D01*
Y1354D01*
X2576Y1350D01*
X2580Y1387D02*
X2555D01*
X2568Y1375D01*
Y1391D01*
X1904Y1712D02*
Y1737D01*
X1917D01*
X1921Y1733D01*
Y1725D01*
X1917Y1720D01*
X1904D01*
X1913D02*
X1921Y1712D01*
X1946D02*
X1929D01*
X1946Y1729D01*
Y1733D01*
X1942Y1737D01*
X1934D01*
X1929Y1733D01*
X1954D02*
X1959Y1737D01*
X1967D01*
X1971Y1733D01*
Y1729D01*
X1967Y1725D01*
X1963D01*
X1967D01*
X1971Y1720D01*
Y1716D01*
X1967Y1712D01*
X1959D01*
X1954Y1716D01*
X1979Y1733D02*
X1984Y1737D01*
X1992D01*
X1996Y1733D01*
Y1729D01*
X1992Y1725D01*
X1988D01*
X1992D01*
X1996Y1720D01*
Y1716D01*
X1992Y1712D01*
X1984D01*
X1979Y1716D01*
X1904Y1982D02*
Y2007D01*
X1917D01*
X1921Y2003D01*
Y1995D01*
X1917Y1990D01*
X1904D01*
X1913D02*
X1921Y1982D01*
X1946D02*
X1929D01*
X1946Y1999D01*
Y2003D01*
X1942Y2007D01*
X1934D01*
X1929Y2003D01*
X1954D02*
X1959Y2007D01*
X1967D01*
X1971Y2003D01*
Y1999D01*
X1967Y1995D01*
X1963D01*
X1967D01*
X1971Y1990D01*
Y1986D01*
X1967Y1982D01*
X1959D01*
X1954Y1986D01*
X1996Y1982D02*
X1979D01*
X1996Y1999D01*
Y2003D01*
X1992Y2007D01*
X1984D01*
X1979Y2003D01*
X1679Y1555D02*
X1655D01*
Y1567D01*
X1659Y1572D01*
X1667D01*
X1671Y1567D01*
Y1555D01*
Y1563D02*
X1679Y1572D01*
Y1597D02*
Y1580D01*
X1663Y1597D01*
X1659D01*
X1655Y1592D01*
Y1584D01*
X1659Y1580D01*
Y1605D02*
X1655Y1609D01*
Y1617D01*
X1659Y1622D01*
X1663D01*
X1667Y1617D01*
Y1613D01*
Y1617D01*
X1671Y1622D01*
X1675D01*
X1679Y1617D01*
Y1609D01*
X1675Y1605D01*
X1679Y1630D02*
Y1638D01*
Y1634D01*
X1655D01*
X1659Y1630D01*
X1578Y1812D02*
X1553D01*
Y1824D01*
X1557Y1828D01*
X1566D01*
X1570Y1824D01*
Y1812D01*
Y1820D02*
X1578Y1828D01*
Y1853D02*
Y1837D01*
X1561Y1853D01*
X1557D01*
X1553Y1849D01*
Y1841D01*
X1557Y1837D01*
Y1862D02*
X1553Y1866D01*
Y1874D01*
X1557Y1878D01*
X1561D01*
X1566Y1874D01*
Y1870D01*
Y1874D01*
X1570Y1878D01*
X1574D01*
X1578Y1874D01*
Y1866D01*
X1574Y1862D01*
X1557Y1887D02*
X1553Y1891D01*
Y1899D01*
X1557Y1903D01*
X1574D01*
X1578Y1899D01*
Y1891D01*
X1574Y1887D01*
X1557D01*
X2344Y2552D02*
Y2577D01*
X2356D01*
X2361Y2572D01*
Y2564D01*
X2356Y2560D01*
X2344D01*
X2352D02*
X2361Y2552D01*
X2386D02*
X2369D01*
X2386Y2568D01*
Y2572D01*
X2381Y2577D01*
X2373D01*
X2369Y2572D01*
X2411Y2552D02*
X2394D01*
X2411Y2568D01*
Y2572D01*
X2406Y2577D01*
X2398D01*
X2394Y2572D01*
X2436Y2552D02*
X2419D01*
X2436Y2568D01*
Y2572D01*
X2431Y2577D01*
X2423D01*
X2419Y2572D01*
X1353Y2557D02*
Y2582D01*
X1365D01*
X1370Y2578D01*
Y2569D01*
X1365Y2565D01*
X1353D01*
X1361D02*
X1370Y2557D01*
X1395D02*
X1378D01*
X1395Y2573D01*
Y2578D01*
X1390Y2582D01*
X1382D01*
X1378Y2578D01*
X1420Y2557D02*
X1403D01*
X1420Y2573D01*
Y2578D01*
X1415Y2582D01*
X1407D01*
X1403Y2578D01*
X1428Y2557D02*
X1436D01*
X1432D01*
Y2582D01*
X1428Y2578D01*
X1350Y2654D02*
Y2679D01*
X1362D01*
X1367Y2675D01*
Y2667D01*
X1362Y2662D01*
X1350D01*
X1358D02*
X1367Y2654D01*
X1392D02*
X1375D01*
X1392Y2671D01*
Y2675D01*
X1387Y2679D01*
X1379D01*
X1375Y2675D01*
X1417Y2654D02*
X1400D01*
X1417Y2671D01*
Y2675D01*
X1412Y2679D01*
X1404D01*
X1400Y2675D01*
X1425D02*
X1429Y2679D01*
X1437D01*
X1442Y2675D01*
Y2658D01*
X1437Y2654D01*
X1429D01*
X1425Y2658D01*
Y2675D01*
X2350Y2656D02*
X2325D01*
Y2669D01*
X2329Y2673D01*
X2337D01*
X2342Y2669D01*
Y2656D01*
Y2664D02*
X2350Y2673D01*
Y2698D02*
Y2681D01*
X2333Y2698D01*
X2329D01*
X2325Y2694D01*
Y2685D01*
X2329Y2681D01*
X2350Y2706D02*
Y2714D01*
Y2710D01*
X2325D01*
X2329Y2706D01*
X2346Y2727D02*
X2350Y2731D01*
Y2739D01*
X2346Y2743D01*
X2329D01*
X2325Y2739D01*
Y2731D01*
X2329Y2727D01*
X2333D01*
X2337Y2731D01*
Y2743D01*
X2486Y1792D02*
Y1817D01*
X2499D01*
X2503Y1813D01*
Y1805D01*
X2499Y1800D01*
X2486D01*
X2495D02*
X2503Y1792D01*
X2528D02*
X2511D01*
X2528Y1809D01*
Y1813D01*
X2524Y1817D01*
X2516D01*
X2511Y1813D01*
X2536Y1792D02*
X2545D01*
X2541D01*
Y1817D01*
X2536Y1813D01*
X2574Y1792D02*
X2557D01*
X2574Y1809D01*
Y1813D01*
X2570Y1817D01*
X2561D01*
X2557Y1813D01*
X3090Y2092D02*
Y2117D01*
X3103D01*
X3107Y2113D01*
Y2105D01*
X3103Y2100D01*
X3090D01*
X3099D02*
X3107Y2092D01*
X3132D02*
X3115D01*
X3132Y2109D01*
Y2113D01*
X3128Y2117D01*
X3120D01*
X3115Y2113D01*
X3140Y2092D02*
X3149D01*
X3145D01*
Y2117D01*
X3140Y2113D01*
X3161Y2092D02*
X3170D01*
X3165D01*
Y2117D01*
X3161Y2113D01*
X3084Y1712D02*
Y1737D01*
X3097D01*
X3101Y1733D01*
Y1725D01*
X3097Y1720D01*
X3084D01*
X3093D02*
X3101Y1712D01*
X3126D02*
X3109D01*
X3126Y1729D01*
Y1733D01*
X3122Y1737D01*
X3114D01*
X3109Y1733D01*
X3134D02*
X3139Y1737D01*
X3147D01*
X3151Y1733D01*
Y1716D01*
X3147Y1712D01*
X3139D01*
X3134Y1716D01*
Y1733D01*
X3176Y1737D02*
X3168Y1733D01*
X3159Y1725D01*
Y1716D01*
X3164Y1712D01*
X3172D01*
X3176Y1716D01*
Y1720D01*
X3172Y1725D01*
X3159D01*
X2665Y1295D02*
X2640D01*
Y1307D01*
X2644Y1311D01*
X2653D01*
X2657Y1307D01*
Y1295D01*
Y1303D02*
X2665Y1311D01*
Y1336D02*
Y1320D01*
X2648Y1336D01*
X2644D01*
X2640Y1332D01*
Y1324D01*
X2644Y1320D01*
Y1345D02*
X2640Y1349D01*
Y1357D01*
X2644Y1361D01*
X2661D01*
X2665Y1357D01*
Y1349D01*
X2661Y1345D01*
X2644D01*
X2640Y1386D02*
Y1370D01*
X2653D01*
X2648Y1378D01*
Y1382D01*
X2653Y1386D01*
X2661D01*
X2665Y1382D01*
Y1374D01*
X2661Y1370D01*
X1805Y2081D02*
Y2106D01*
X1817D01*
X1822Y2101D01*
Y2093D01*
X1817Y2089D01*
X1805D01*
X1813D02*
X1822Y2081D01*
X1847D02*
X1830D01*
X1847Y2097D01*
Y2101D01*
X1842Y2106D01*
X1834D01*
X1830Y2101D01*
X1855D02*
X1859Y2106D01*
X1867D01*
X1872Y2101D01*
Y2085D01*
X1867Y2081D01*
X1859D01*
X1855Y2085D01*
Y2101D01*
X1892Y2081D02*
Y2106D01*
X1880Y2093D01*
X1897D01*
X1484Y1717D02*
Y1742D01*
X1497D01*
X1501Y1738D01*
Y1730D01*
X1497Y1725D01*
X1484D01*
X1493D02*
X1501Y1717D01*
X1526D02*
X1509D01*
X1526Y1734D01*
Y1738D01*
X1522Y1742D01*
X1514D01*
X1509Y1738D01*
X1534D02*
X1539Y1742D01*
X1547D01*
X1551Y1738D01*
Y1721D01*
X1547Y1717D01*
X1539D01*
X1534Y1721D01*
Y1738D01*
X1559D02*
X1564Y1742D01*
X1572D01*
X1576Y1738D01*
Y1734D01*
X1572Y1730D01*
X1568D01*
X1572D01*
X1576Y1725D01*
Y1721D01*
X1572Y1717D01*
X1564D01*
X1559Y1721D01*
X2700Y1836D02*
Y1820D01*
X2725D01*
Y1836D01*
X2713Y1820D02*
Y1828D01*
X2700Y1861D02*
X2704Y1853D01*
X2713Y1845D01*
X2721D01*
X2725Y1849D01*
Y1857D01*
X2721Y1861D01*
X2717D01*
X2713Y1857D01*
Y1845D01*
X2704Y1870D02*
X2700Y1874D01*
Y1882D01*
X2704Y1886D01*
X2721D01*
X2725Y1882D01*
Y1874D01*
X2721Y1870D01*
X2704D01*
Y1895D02*
X2700Y1899D01*
Y1907D01*
X2704Y1911D01*
X2708D01*
X2713Y1907D01*
Y1903D01*
Y1907D01*
X2717Y1911D01*
X2721D01*
X2725Y1907D01*
Y1899D01*
X2721Y1895D01*
X3431Y2237D02*
X3414D01*
Y2212D01*
X3431D01*
X3414Y2225D02*
X3423D01*
X3456Y2212D02*
X3439D01*
X3456Y2229D01*
Y2233D01*
X3452Y2237D01*
X3444D01*
X3439Y2233D01*
X3464D02*
X3469Y2237D01*
X3477D01*
X3481Y2233D01*
Y2216D01*
X3477Y2212D01*
X3469D01*
X3464Y2216D01*
Y2233D01*
X3506Y2237D02*
X3498Y2233D01*
X3489Y2225D01*
Y2216D01*
X3494Y2212D01*
X3502D01*
X3506Y2216D01*
Y2220D01*
X3502Y2225D01*
X3489D01*
X2496Y1707D02*
X2479D01*
Y1682D01*
X2496D01*
X2479Y1695D02*
X2488D01*
X2521Y1682D02*
X2504D01*
X2521Y1699D01*
Y1703D01*
X2517Y1707D01*
X2509D01*
X2504Y1703D01*
X2529D02*
X2534Y1707D01*
X2542D01*
X2546Y1703D01*
Y1687D01*
X2542Y1682D01*
X2534D01*
X2529Y1687D01*
Y1703D01*
X2571Y1707D02*
X2554D01*
Y1695D01*
X2563Y1699D01*
X2567D01*
X2571Y1695D01*
Y1687D01*
X2567Y1682D01*
X2559D01*
X2554Y1687D01*
X2735Y1285D02*
X2760D01*
Y1297D01*
X2756Y1301D01*
X2739D01*
X2735Y1297D01*
Y1285D01*
Y1310D02*
Y1326D01*
X2739D01*
X2756Y1310D01*
X2760D01*
Y1326D01*
Y1351D02*
Y1335D01*
X2743Y1351D01*
X2739D01*
X2735Y1347D01*
Y1339D01*
X2739Y1335D01*
X2760Y1360D02*
Y1368D01*
Y1364D01*
X2735D01*
X2739Y1360D01*
X2735Y1397D02*
Y1380D01*
X2748D01*
X2743Y1389D01*
Y1393D01*
X2748Y1397D01*
X2756D01*
X2760Y1393D01*
Y1385D01*
X2756Y1380D01*
X2580Y1010D02*
X2605D01*
Y1022D01*
X2601Y1026D01*
X2584D01*
X2580Y1022D01*
Y1010D01*
Y1035D02*
Y1051D01*
X2584D01*
X2601Y1035D01*
X2605D01*
Y1051D01*
Y1076D02*
Y1060D01*
X2588Y1076D01*
X2584D01*
X2580Y1072D01*
Y1064D01*
X2584Y1060D01*
X2605Y1085D02*
Y1093D01*
Y1089D01*
X2580D01*
X2584Y1085D01*
X2605Y1118D02*
X2580D01*
X2593Y1105D01*
Y1122D01*
X1809Y1715D02*
X1834D01*
Y1727D01*
X1830Y1732D01*
X1813D01*
X1809Y1727D01*
Y1715D01*
Y1740D02*
Y1757D01*
X1813D01*
X1830Y1740D01*
X1834D01*
Y1757D01*
Y1781D02*
Y1765D01*
X1817Y1781D01*
X1813D01*
X1809Y1777D01*
Y1769D01*
X1813Y1765D01*
X1834Y1790D02*
Y1798D01*
Y1794D01*
X1809D01*
X1813Y1790D01*
Y1811D02*
X1809Y1815D01*
Y1823D01*
X1813Y1827D01*
X1817D01*
X1822Y1823D01*
Y1819D01*
Y1823D01*
X1826Y1827D01*
X1830D01*
X1834Y1823D01*
Y1815D01*
X1830Y1811D01*
X1840Y1545D02*
X1865D01*
Y1557D01*
X1861Y1561D01*
X1844D01*
X1840Y1557D01*
Y1545D01*
Y1570D02*
Y1586D01*
X1844D01*
X1861Y1570D01*
X1865D01*
Y1586D01*
Y1611D02*
Y1595D01*
X1848Y1611D01*
X1844D01*
X1840Y1607D01*
Y1599D01*
X1844Y1595D01*
X1865Y1620D02*
Y1628D01*
Y1624D01*
X1840D01*
X1844Y1620D01*
X1865Y1657D02*
Y1640D01*
X1848Y1657D01*
X1844D01*
X1840Y1653D01*
Y1645D01*
X1844Y1640D01*
X1666Y1924D02*
X1691D01*
Y1936D01*
X1687Y1941D01*
X1670D01*
X1666Y1936D01*
Y1924D01*
Y1949D02*
Y1966D01*
X1670D01*
X1687Y1949D01*
X1691D01*
Y1966D01*
Y1990D02*
Y1974D01*
X1674Y1990D01*
X1670D01*
X1666Y1986D01*
Y1978D01*
X1670Y1974D01*
X1691Y1999D02*
Y2007D01*
Y2003D01*
X1666D01*
X1670Y1999D01*
X1691Y2020D02*
Y2028D01*
Y2024D01*
X1666D01*
X1670Y2020D01*
X1740Y1535D02*
X1765D01*
Y1547D01*
X1761Y1551D01*
X1744D01*
X1740Y1547D01*
Y1535D01*
Y1560D02*
Y1576D01*
X1744D01*
X1761Y1560D01*
X1765D01*
Y1576D01*
Y1601D02*
Y1585D01*
X1748Y1601D01*
X1744D01*
X1740Y1597D01*
Y1589D01*
X1744Y1585D01*
X1765Y1610D02*
Y1618D01*
Y1614D01*
X1740D01*
X1744Y1610D01*
Y1630D02*
X1740Y1635D01*
Y1643D01*
X1744Y1647D01*
X1761D01*
X1765Y1643D01*
Y1635D01*
X1761Y1630D01*
X1744D01*
X2471Y1587D02*
Y1562D01*
X2484D01*
X2488Y1566D01*
Y1583D01*
X2484Y1587D01*
X2471D01*
X2496D02*
X2513D01*
Y1583D01*
X2496Y1566D01*
Y1562D01*
X2513D01*
X2538D02*
X2521D01*
X2538Y1579D01*
Y1583D01*
X2534Y1587D01*
X2526D01*
X2521Y1583D01*
X2546D02*
X2551Y1587D01*
X2559D01*
X2563Y1583D01*
Y1566D01*
X2559Y1562D01*
X2551D01*
X2546Y1566D01*
Y1583D01*
X2588Y1587D02*
X2580Y1583D01*
X2571Y1575D01*
Y1566D01*
X2576Y1562D01*
X2584D01*
X2588Y1566D01*
Y1570D01*
X2584Y1575D01*
X2571D01*
X3215Y1627D02*
Y1602D01*
X3228D01*
X3232Y1606D01*
Y1623D01*
X3228Y1627D01*
X3215D01*
X3240D02*
X3257D01*
Y1623D01*
X3240Y1606D01*
Y1602D01*
X3257D01*
X3282D02*
X3265D01*
X3282Y1619D01*
Y1623D01*
X3278Y1627D01*
X3270D01*
X3265Y1623D01*
X3290D02*
X3295Y1627D01*
X3303D01*
X3307Y1623D01*
Y1606D01*
X3303Y1602D01*
X3295D01*
X3290Y1606D01*
Y1623D01*
X3315Y1602D02*
X3324D01*
X3320D01*
Y1627D01*
X3315Y1623D01*
X2670Y1710D02*
Y1685D01*
X2682D01*
X2687Y1689D01*
Y1705D01*
X2682Y1710D01*
X2670D01*
X2712Y1705D02*
X2707Y1710D01*
X2699D01*
X2695Y1705D01*
Y1701D01*
X2699Y1697D01*
X2707D01*
X2712Y1693D01*
Y1689D01*
X2707Y1685D01*
X2699D01*
X2695Y1689D01*
X2737Y1685D02*
X2720D01*
X2737Y1701D01*
Y1705D01*
X2732Y1710D01*
X2724D01*
X2720Y1705D01*
X2745D02*
X2749Y1710D01*
X2757D01*
X2762Y1705D01*
Y1689D01*
X2757Y1685D01*
X2749D01*
X2745Y1689D01*
Y1705D01*
X2770Y1689D02*
X2774Y1685D01*
X2782D01*
X2787Y1689D01*
Y1705D01*
X2782Y1710D01*
X2774D01*
X2770Y1705D01*
Y1701D01*
X2774Y1697D01*
X2787D01*
X1815Y2295D02*
Y2270D01*
X1827D01*
X1832Y2274D01*
Y2291D01*
X1827Y2295D01*
X1815D01*
X1857Y2291D02*
X1852Y2295D01*
X1844D01*
X1840Y2291D01*
Y2287D01*
X1844Y2282D01*
X1852D01*
X1857Y2278D01*
Y2274D01*
X1852Y2270D01*
X1844D01*
X1840Y2274D01*
X1882Y2270D02*
X1865D01*
X1882Y2287D01*
Y2291D01*
X1877Y2295D01*
X1869D01*
X1865Y2291D01*
X1890D02*
X1894Y2295D01*
X1902D01*
X1907Y2291D01*
Y2274D01*
X1902Y2270D01*
X1894D01*
X1890Y2274D01*
Y2291D01*
X1915D02*
X1919Y2295D01*
X1927D01*
X1932Y2291D01*
Y2287D01*
X1927Y2282D01*
X1932Y2278D01*
Y2274D01*
X1927Y2270D01*
X1919D01*
X1915Y2274D01*
Y2278D01*
X1919Y2282D01*
X1915Y2287D01*
Y2291D01*
X1919Y2282D02*
X1927D01*
X1640Y2130D02*
Y2105D01*
X1652D01*
X1657Y2109D01*
Y2126D01*
X1652Y2130D01*
X1640D01*
X1682Y2126D02*
X1677Y2130D01*
X1669D01*
X1665Y2126D01*
Y2122D01*
X1669Y2117D01*
X1677D01*
X1682Y2113D01*
Y2109D01*
X1677Y2105D01*
X1669D01*
X1665Y2109D01*
X1707Y2105D02*
X1690D01*
X1707Y2122D01*
Y2126D01*
X1702Y2130D01*
X1694D01*
X1690Y2126D01*
X1715D02*
X1719Y2130D01*
X1727D01*
X1732Y2126D01*
Y2109D01*
X1727Y2105D01*
X1719D01*
X1715Y2109D01*
Y2126D01*
X1740Y2130D02*
X1757D01*
Y2126D01*
X1740Y2109D01*
Y2105D01*
X2471Y1487D02*
Y1462D01*
X2484D01*
X2488Y1466D01*
Y1483D01*
X2484Y1487D01*
X2471D01*
X2513Y1483D02*
X2509Y1487D01*
X2501D01*
X2496Y1483D01*
Y1479D01*
X2501Y1475D01*
X2509D01*
X2513Y1470D01*
Y1466D01*
X2509Y1462D01*
X2501D01*
X2496Y1466D01*
X2538Y1462D02*
X2521D01*
X2538Y1479D01*
Y1483D01*
X2534Y1487D01*
X2526D01*
X2521Y1483D01*
X2546D02*
X2551Y1487D01*
X2559D01*
X2563Y1483D01*
Y1466D01*
X2559Y1462D01*
X2551D01*
X2546Y1466D01*
Y1483D01*
X2584Y1462D02*
Y1487D01*
X2571Y1475D01*
X2588D01*
X1974Y2106D02*
X1999D01*
Y2118D01*
X1995Y2122D01*
X1978D01*
X1974Y2118D01*
Y2106D01*
X1978Y2147D02*
X1974Y2143D01*
Y2135D01*
X1978Y2131D01*
X1982D01*
X1987Y2135D01*
Y2143D01*
X1991Y2147D01*
X1995D01*
X1999Y2143D01*
Y2135D01*
X1995Y2131D01*
X1999Y2172D02*
Y2156D01*
X1982Y2172D01*
X1978D01*
X1974Y2168D01*
Y2160D01*
X1978Y2156D01*
Y2181D02*
X1974Y2185D01*
Y2193D01*
X1978Y2197D01*
X1995D01*
X1999Y2193D01*
Y2185D01*
X1995Y2181D01*
X1978D01*
Y2206D02*
X1974Y2210D01*
Y2218D01*
X1978Y2222D01*
X1982D01*
X1987Y2218D01*
Y2214D01*
Y2218D01*
X1991Y2222D01*
X1995D01*
X1999Y2218D01*
Y2210D01*
X1995Y2206D01*
X3239Y2031D02*
X3235Y2027D01*
Y2019D01*
X3239Y2015D01*
X3256D01*
X3260Y2019D01*
Y2027D01*
X3256Y2031D01*
X3235Y2056D02*
X3239Y2048D01*
X3248Y2040D01*
X3256D01*
X3260Y2044D01*
Y2052D01*
X3256Y2056D01*
X3252D01*
X3248Y2052D01*
Y2040D01*
X3260Y2065D02*
Y2073D01*
Y2069D01*
X3235D01*
X3239Y2065D01*
X3256Y2085D02*
X3260Y2090D01*
Y2098D01*
X3256Y2102D01*
X3239D01*
X3235Y2098D01*
Y2090D01*
X3239Y2085D01*
X3243D01*
X3248Y2090D01*
Y2102D01*
X2712Y2105D02*
X2707Y2110D01*
X2699D01*
X2695Y2105D01*
Y2089D01*
X2699Y2085D01*
X2707D01*
X2712Y2089D01*
X2737Y2110D02*
X2728Y2105D01*
X2720Y2097D01*
Y2089D01*
X2724Y2085D01*
X2732D01*
X2737Y2089D01*
Y2093D01*
X2732Y2097D01*
X2720D01*
X2745Y2085D02*
X2753D01*
X2749D01*
Y2110D01*
X2745Y2105D01*
X2766D02*
X2770Y2110D01*
X2778D01*
X2782Y2105D01*
Y2089D01*
X2778Y2085D01*
X2770D01*
X2766Y2089D01*
Y2105D01*
X2687Y1483D02*
X2683Y1487D01*
X2675D01*
X2670Y1483D01*
Y1466D01*
X2675Y1462D01*
X2683D01*
X2687Y1466D01*
X2712Y1462D02*
X2695D01*
X2712Y1479D01*
Y1483D01*
X2708Y1487D01*
X2700D01*
X2695Y1483D01*
X2720Y1462D02*
X2729D01*
X2725D01*
Y1487D01*
X2720Y1483D01*
X2741Y1462D02*
X2750D01*
X2745D01*
Y1487D01*
X2741Y1483D01*
X1816Y1942D02*
X1812Y1937D01*
Y1929D01*
X1816Y1925D01*
X1833D01*
X1837Y1929D01*
Y1937D01*
X1833Y1942D01*
X1837Y1967D02*
Y1950D01*
X1820Y1967D01*
X1816D01*
X1812Y1962D01*
Y1954D01*
X1816Y1950D01*
X1837Y1975D02*
Y1983D01*
Y1979D01*
X1812D01*
X1816Y1975D01*
Y1996D02*
X1812Y2000D01*
Y2008D01*
X1816Y2012D01*
X1833D01*
X1837Y2008D01*
Y2000D01*
X1833Y1996D01*
X1816D01*
X1501Y1648D02*
X1497Y1652D01*
X1489D01*
X1484Y1648D01*
Y1631D01*
X1489Y1627D01*
X1497D01*
X1501Y1631D01*
X1526Y1627D02*
X1509D01*
X1526Y1644D01*
Y1648D01*
X1522Y1652D01*
X1514D01*
X1509Y1648D01*
X1534D02*
X1539Y1652D01*
X1547D01*
X1551Y1648D01*
Y1631D01*
X1547Y1627D01*
X1539D01*
X1534Y1631D01*
Y1648D01*
X1559Y1631D02*
X1564Y1627D01*
X1572D01*
X1576Y1631D01*
Y1648D01*
X1572Y1652D01*
X1564D01*
X1559Y1648D01*
Y1644D01*
X1564Y1640D01*
X1576D01*
X2464Y1326D02*
X2460Y1322D01*
Y1314D01*
X2464Y1310D01*
X2481D01*
X2485Y1314D01*
Y1322D01*
X2481Y1326D01*
X2485Y1351D02*
Y1335D01*
X2468Y1351D01*
X2464D01*
X2460Y1347D01*
Y1339D01*
X2464Y1335D01*
Y1360D02*
X2460Y1364D01*
Y1372D01*
X2464Y1376D01*
X2481D01*
X2485Y1372D01*
Y1364D01*
X2481Y1360D01*
X2464D01*
X2460Y1401D02*
X2464Y1393D01*
X2473Y1385D01*
X2481D01*
X2485Y1389D01*
Y1397D01*
X2481Y1401D01*
X2477D01*
X2473Y1397D01*
Y1385D01*
X1921Y1823D02*
X1917Y1827D01*
X1909D01*
X1904Y1823D01*
Y1806D01*
X1909Y1802D01*
X1917D01*
X1921Y1806D01*
X1946Y1802D02*
X1929D01*
X1946Y1819D01*
Y1823D01*
X1942Y1827D01*
X1934D01*
X1929Y1823D01*
X1954D02*
X1959Y1827D01*
X1967D01*
X1971Y1823D01*
Y1806D01*
X1967Y1802D01*
X1959D01*
X1954Y1806D01*
Y1823D01*
X1996Y1827D02*
X1979D01*
Y1815D01*
X1988Y1819D01*
X1992D01*
X1996Y1815D01*
Y1806D01*
X1992Y1802D01*
X1984D01*
X1979Y1806D01*
X3654Y2182D02*
X3650Y2177D01*
Y2169D01*
X3654Y2165D01*
X3671D01*
X3675Y2169D01*
Y2177D01*
X3671Y2182D01*
X3675Y2207D02*
Y2190D01*
X3658Y2207D01*
X3654D01*
X3650Y2202D01*
Y2194D01*
X3654Y2190D01*
Y2215D02*
X3650Y2219D01*
Y2227D01*
X3654Y2232D01*
X3671D01*
X3675Y2227D01*
Y2219D01*
X3671Y2215D01*
X3654D01*
X3675Y2252D02*
X3650D01*
X3663Y2240D01*
Y2257D01*
X1661Y1823D02*
X1657Y1827D01*
X1649D01*
X1644Y1823D01*
Y1806D01*
X1649Y1802D01*
X1657D01*
X1661Y1806D01*
X1686Y1802D02*
X1669D01*
X1686Y1819D01*
Y1823D01*
X1682Y1827D01*
X1674D01*
X1669Y1823D01*
X1694D02*
X1699Y1827D01*
X1707D01*
X1711Y1823D01*
Y1806D01*
X1707Y1802D01*
X1699D01*
X1694Y1806D01*
Y1823D01*
X1719D02*
X1724Y1827D01*
X1732D01*
X1736Y1823D01*
Y1819D01*
X1732Y1815D01*
X1728D01*
X1732D01*
X1736Y1810D01*
Y1806D01*
X1732Y1802D01*
X1724D01*
X1719Y1806D01*
X1157Y3591D02*
X1141D01*
Y3578D01*
X1149D01*
X1141D01*
Y3566D01*
X1166D02*
X1174D01*
X1170D01*
Y3591D01*
X1166Y3587D01*
X1186Y3566D02*
X1195D01*
X1191D01*
Y3591D01*
X1186Y3587D01*
X1224Y3591D02*
X1207D01*
Y3578D01*
X1216Y3583D01*
X1220D01*
X1224Y3578D01*
Y3570D01*
X1220Y3566D01*
X1211D01*
X1207Y3570D01*
X651Y1713D02*
Y1738D01*
X663D01*
X668Y1733D01*
Y1725D01*
X663Y1721D01*
X651D01*
X659D02*
X668Y1713D01*
X693D02*
X676D01*
X693Y1729D01*
Y1733D01*
X688Y1738D01*
X680D01*
X676Y1733D01*
X718Y1738D02*
X701D01*
Y1725D01*
X709Y1729D01*
X713D01*
X718Y1725D01*
Y1717D01*
X713Y1713D01*
X705D01*
X701Y1717D01*
X743Y1713D02*
X726D01*
X743Y1729D01*
Y1733D01*
X738Y1738D01*
X730D01*
X726Y1733D01*
X2490Y965D02*
X2465D01*
Y977D01*
X2469Y981D01*
X2478D01*
X2482Y977D01*
Y965D01*
Y973D02*
X2490Y981D01*
Y1006D02*
Y990D01*
X2473Y1006D01*
X2469D01*
X2465Y1002D01*
Y994D01*
X2469Y990D01*
X2465Y1031D02*
Y1015D01*
X2478D01*
X2473Y1023D01*
Y1027D01*
X2478Y1031D01*
X2486D01*
X2490Y1027D01*
Y1019D01*
X2486Y1015D01*
X2490Y1052D02*
X2465D01*
X2478Y1040D01*
Y1056D01*
X1620Y122D02*
X1637Y97D01*
Y122D02*
X1620Y97D01*
X1645D02*
Y122D01*
X1657D01*
X1662Y118D01*
Y109D01*
X1657Y105D01*
X1645D01*
X1687Y97D02*
X1670D01*
X1687Y114D01*
Y118D01*
X1682Y122D01*
X1674D01*
X1670Y118D01*
X1695D02*
X1699Y122D01*
X1707D01*
X1712Y118D01*
Y101D01*
X1707Y97D01*
X1699D01*
X1695Y101D01*
Y118D01*
X1720D02*
X1724Y122D01*
X1732D01*
X1737Y118D01*
Y101D01*
X1732Y97D01*
X1724D01*
X1720Y101D01*
Y118D01*
X937Y1028D02*
X932Y1032D01*
X924D01*
X920Y1028D01*
Y1011D01*
X924Y1007D01*
X932D01*
X937Y1011D01*
X945Y1007D02*
X953D01*
X949D01*
Y1032D01*
X945Y1028D01*
X966Y1007D02*
X974D01*
X970D01*
Y1032D01*
X966Y1028D01*
X1003Y1032D02*
X995Y1028D01*
X987Y1019D01*
Y1011D01*
X991Y1007D01*
X999D01*
X1003Y1011D01*
Y1015D01*
X999Y1019D01*
X987D01*
X917Y593D02*
X912Y597D01*
X904D01*
X900Y593D01*
Y576D01*
X904Y572D01*
X912D01*
X917Y576D01*
X925Y572D02*
X933D01*
X929D01*
Y597D01*
X925Y593D01*
X946Y572D02*
X954D01*
X950D01*
Y597D01*
X946Y593D01*
X967Y597D02*
X983D01*
Y593D01*
X967Y576D01*
Y572D01*
X1360Y173D02*
X1356Y169D01*
Y160D01*
X1360Y156D01*
X1376D01*
X1381Y160D01*
Y169D01*
X1376Y173D01*
X1381Y181D02*
Y189D01*
Y185D01*
X1356D01*
X1360Y181D01*
X1381Y202D02*
Y210D01*
Y206D01*
X1356D01*
X1360Y202D01*
Y223D02*
X1356Y227D01*
Y235D01*
X1360Y239D01*
X1364D01*
X1368Y235D01*
X1372Y239D01*
X1376D01*
X1381Y235D01*
Y227D01*
X1376Y223D01*
X1372D01*
X1368Y227D01*
X1364Y223D01*
X1360D01*
X1368Y227D02*
Y235D01*
X489Y3592D02*
X485Y3587D01*
Y3579D01*
X489Y3575D01*
X506D01*
X510Y3579D01*
Y3587D01*
X506Y3592D01*
X510Y3617D02*
Y3600D01*
X493Y3617D01*
X489D01*
X485Y3612D01*
Y3604D01*
X489Y3600D01*
X510Y3625D02*
Y3633D01*
Y3629D01*
X485D01*
X489Y3625D01*
X485Y3662D02*
Y3646D01*
X498D01*
X493Y3654D01*
Y3658D01*
X498Y3662D01*
X506D01*
X510Y3658D01*
Y3650D01*
X506Y3646D01*
X695Y597D02*
Y572D01*
X707D01*
X712Y576D01*
Y593D01*
X707Y597D01*
X695D01*
X720Y572D02*
X728D01*
X724D01*
Y597D01*
X720Y593D01*
X741D02*
X745Y597D01*
X753D01*
X757Y593D01*
Y576D01*
X753Y572D01*
X745D01*
X741Y576D01*
Y593D01*
X766D02*
X770Y597D01*
X778D01*
X782Y593D01*
Y576D01*
X778Y572D01*
X770D01*
X766Y576D01*
Y593D01*
X1235Y157D02*
X1260D01*
Y170D01*
X1256Y174D01*
X1239D01*
X1235Y170D01*
Y157D01*
Y182D02*
Y199D01*
X1239D01*
X1256Y182D01*
X1260D01*
Y199D01*
Y207D02*
Y216D01*
Y212D01*
X1235D01*
X1239Y207D01*
Y228D02*
X1235Y232D01*
Y241D01*
X1239Y245D01*
X1256D01*
X1260Y241D01*
Y232D01*
X1256Y228D01*
X1239D01*
X1235Y270D02*
Y253D01*
X1247D01*
X1243Y262D01*
Y266D01*
X1247Y270D01*
X1256D01*
X1260Y266D01*
Y257D01*
X1256Y253D01*
X2210Y1405D02*
Y1380D01*
X2222D01*
X2227Y1384D01*
Y1401D01*
X2222Y1405D01*
X2210D01*
X2235D02*
X2252D01*
Y1401D01*
X2235Y1384D01*
Y1380D01*
X2252D01*
X2277D02*
X2260D01*
X2277Y1397D01*
Y1401D01*
X2272Y1405D01*
X2264D01*
X2260Y1401D01*
X2285D02*
X2289Y1405D01*
X2297D01*
X2302Y1401D01*
Y1384D01*
X2297Y1380D01*
X2289D01*
X2285Y1384D01*
Y1401D01*
X2327Y1380D02*
X2310D01*
X2327Y1397D01*
Y1401D01*
X2322Y1405D01*
X2314D01*
X2310Y1401D01*
X1165Y3894D02*
Y3877D01*
X1178D01*
Y3885D01*
Y3877D01*
X1190D01*
Y3902D02*
Y3910D01*
Y3906D01*
X1165D01*
X1169Y3902D01*
X1190Y3939D02*
Y3923D01*
X1173Y3939D01*
X1169D01*
X1165Y3935D01*
Y3927D01*
X1169Y3923D01*
X1165Y3964D02*
Y3948D01*
X1178D01*
X1173Y3956D01*
Y3960D01*
X1178Y3964D01*
X1186D01*
X1190Y3960D01*
Y3952D01*
X1186Y3948D01*
X997Y3467D02*
Y3450D01*
X1009D01*
Y3459D01*
Y3450D01*
X1021D01*
Y3475D02*
Y3484D01*
Y3480D01*
X997D01*
X1001Y3475D01*
X1021Y3513D02*
Y3496D01*
X1005Y3513D01*
X1001D01*
X997Y3509D01*
Y3500D01*
X1001Y3496D01*
X997Y3538D02*
X1001Y3529D01*
X1009Y3521D01*
X1017D01*
X1021Y3525D01*
Y3534D01*
X1017Y3538D01*
X1013D01*
X1009Y3534D01*
Y3521D01*
X515Y3810D02*
X540D01*
Y3827D01*
Y3852D02*
Y3835D01*
X523Y3852D01*
X519D01*
X515Y3847D01*
Y3839D01*
X519Y3835D01*
Y3860D02*
X515Y3864D01*
Y3872D01*
X519Y3877D01*
X536D01*
X540Y3872D01*
Y3864D01*
X536Y3860D01*
X519D01*
Y3885D02*
X515Y3889D01*
Y3897D01*
X519Y3902D01*
X536D01*
X540Y3897D01*
Y3889D01*
X536Y3885D01*
X519D01*
X985Y2090D02*
Y2115D01*
X993Y2107D01*
X1002Y2115D01*
Y2090D01*
X1010D02*
Y2115D01*
X1022D01*
X1027Y2111D01*
Y2102D01*
X1022Y2098D01*
X1010D01*
X1035Y2090D02*
X1043D01*
X1039D01*
Y2115D01*
X1035Y2111D01*
X1056D02*
X1060Y2115D01*
X1068D01*
X1072Y2111D01*
Y2094D01*
X1068Y2090D01*
X1060D01*
X1056Y2094D01*
Y2111D01*
X1081D02*
X1085Y2115D01*
X1093D01*
X1097Y2111D01*
Y2094D01*
X1093Y2090D01*
X1085D01*
X1081Y2094D01*
Y2111D01*
X1496Y157D02*
X1471D01*
Y170D01*
X1475Y174D01*
X1484D01*
X1488Y170D01*
Y157D01*
Y166D02*
X1496Y174D01*
Y182D02*
Y191D01*
Y187D01*
X1471D01*
X1475Y182D01*
X1496Y203D02*
Y212D01*
Y207D01*
X1471D01*
X1475Y203D01*
X1471Y224D02*
Y241D01*
X1475D01*
X1492Y224D01*
X1496D01*
X585Y572D02*
X560D01*
Y584D01*
X564Y589D01*
X573D01*
X577Y584D01*
Y572D01*
Y580D02*
X585Y589D01*
Y597D02*
Y605D01*
Y601D01*
X560D01*
X564Y597D01*
X585Y618D02*
Y626D01*
Y622D01*
X560D01*
X564Y618D01*
Y638D02*
X560Y643D01*
Y651D01*
X564Y655D01*
X568D01*
X573Y651D01*
X577Y655D01*
X581D01*
X585Y651D01*
Y643D01*
X581Y638D01*
X577D01*
X573Y643D01*
X568Y638D01*
X564D01*
X573Y643D02*
Y651D01*
X500Y577D02*
X475D01*
Y589D01*
X479Y594D01*
X488D01*
X492Y589D01*
Y577D01*
Y585D02*
X500Y594D01*
Y602D02*
Y610D01*
Y606D01*
X475D01*
X479Y602D01*
X500Y623D02*
Y631D01*
Y627D01*
X475D01*
X479Y623D01*
X496Y643D02*
X500Y648D01*
Y656D01*
X496Y660D01*
X479D01*
X475Y656D01*
Y648D01*
X479Y643D01*
X483D01*
X488Y648D01*
Y660D01*
X1040Y532D02*
Y557D01*
X1052D01*
X1057Y553D01*
Y544D01*
X1052Y540D01*
X1040D01*
X1048D02*
X1057Y532D01*
X1065Y557D02*
Y532D01*
X1082D01*
X1090D02*
X1098D01*
X1094D01*
Y557D01*
X1090Y553D01*
X1111D02*
X1115Y557D01*
X1123D01*
X1127Y553D01*
Y536D01*
X1123Y532D01*
X1115D01*
X1111Y536D01*
Y553D01*
X1136D02*
X1140Y557D01*
X1148D01*
X1152Y553D01*
Y536D01*
X1148Y532D01*
X1140D01*
X1136Y536D01*
Y553D01*
X242Y567D02*
Y584D01*
Y576D01*
X266D01*
Y592D02*
Y601D01*
Y597D01*
X242D01*
X246Y592D01*
Y613D02*
X242Y617D01*
Y626D01*
X246Y630D01*
X262D01*
X266Y626D01*
Y617D01*
X262Y613D01*
X246D01*
Y638D02*
X242Y642D01*
Y651D01*
X246Y655D01*
X262D01*
X266Y651D01*
Y642D01*
X262Y638D01*
X246D01*
X1110Y995D02*
Y974D01*
X1114Y970D01*
X1123D01*
X1127Y974D01*
Y995D01*
X1152Y970D02*
X1135D01*
X1152Y987D01*
Y991D01*
X1147Y995D01*
X1139D01*
X1135Y991D01*
X1160D02*
X1164Y995D01*
X1172D01*
X1177Y991D01*
Y974D01*
X1172Y970D01*
X1164D01*
X1160Y974D01*
Y991D01*
X1185D02*
X1189Y995D01*
X1197D01*
X1202Y991D01*
Y987D01*
X1197Y983D01*
X1193D01*
X1197D01*
X1202Y978D01*
Y974D01*
X1197Y970D01*
X1189D01*
X1185Y974D01*
X3935Y2563D02*
X3952Y2538D01*
Y2563D02*
X3935Y2538D01*
X3977D02*
X3960D01*
X3977Y2555D01*
Y2559D01*
X3972Y2563D01*
X3964D01*
X3960Y2559D01*
X3985D02*
X3989Y2563D01*
X3997D01*
X4002Y2559D01*
Y2542D01*
X3997Y2538D01*
X3989D01*
X3985Y2542D01*
Y2559D01*
X4027Y2538D02*
X4010D01*
X4027Y2555D01*
Y2559D01*
X4022Y2563D01*
X4014D01*
X4010Y2559D01*
X3935Y685D02*
X3952Y660D01*
Y685D02*
X3935Y660D01*
X3977D02*
X3960D01*
X3977Y677D01*
Y681D01*
X3973Y685D01*
X3965D01*
X3960Y681D01*
X3985D02*
X3990Y685D01*
X3998D01*
X4002Y681D01*
Y664D01*
X3998Y660D01*
X3990D01*
X3985Y664D01*
Y681D01*
X4010D02*
X4015Y685D01*
X4023D01*
X4027Y681D01*
Y677D01*
X4023Y672D01*
X4019D01*
X4023D01*
X4027Y668D01*
Y664D01*
X4023Y660D01*
X4015D01*
X4010Y664D01*
X835Y2277D02*
X860Y2294D01*
X835D02*
X860Y2277D01*
X835Y2302D02*
Y2310D01*
Y2306D01*
X860D01*
Y2302D01*
Y2310D01*
Y2323D02*
X843D01*
X835Y2331D01*
X843Y2339D01*
X860D01*
X848D01*
Y2323D01*
X860Y2348D02*
Y2356D01*
Y2352D01*
X835D01*
X839Y2348D01*
Y2368D02*
X835Y2373D01*
Y2381D01*
X839Y2385D01*
X856D01*
X860Y2381D01*
Y2373D01*
X856Y2368D01*
X839D01*
X860Y2410D02*
Y2393D01*
X843Y2410D01*
X839D01*
X835Y2406D01*
Y2398D01*
X839Y2393D01*
X205Y3540D02*
X222Y3515D01*
Y3540D02*
X205Y3515D01*
X230Y3540D02*
X238D01*
X234D01*
Y3515D01*
X230D01*
X238D01*
X251D02*
Y3532D01*
X259Y3540D01*
X267Y3532D01*
Y3515D01*
Y3527D01*
X251D01*
X276Y3515D02*
X284D01*
X280D01*
Y3540D01*
X276Y3536D01*
X297D02*
X301Y3540D01*
X309D01*
X313Y3536D01*
Y3519D01*
X309Y3515D01*
X301D01*
X297Y3519D01*
Y3536D01*
X322D02*
X326Y3540D01*
X334D01*
X338Y3536D01*
Y3532D01*
X334Y3527D01*
X338Y3523D01*
Y3519D01*
X334Y3515D01*
X326D01*
X322Y3519D01*
Y3523D01*
X326Y3527D01*
X322Y3532D01*
Y3536D01*
X326Y3527D02*
X334D01*
X1125Y2475D02*
X1142Y2450D01*
Y2475D02*
X1125Y2450D01*
X1150D02*
X1158D01*
X1154D01*
Y2475D01*
X1150Y2471D01*
X1171D02*
X1175Y2475D01*
X1183D01*
X1187Y2471D01*
Y2454D01*
X1183Y2450D01*
X1175D01*
X1171Y2454D01*
Y2471D01*
X1196D02*
X1200Y2475D01*
X1208D01*
X1212Y2471D01*
Y2467D01*
X1208Y2462D01*
X1212Y2458D01*
Y2454D01*
X1208Y2450D01*
X1200D01*
X1196Y2454D01*
Y2458D01*
X1200Y2462D01*
X1196Y2467D01*
Y2471D01*
X1200Y2462D02*
X1208D01*
X1536Y2741D02*
X1511D01*
Y2753D01*
X1515Y2758D01*
X1524D01*
X1528Y2753D01*
Y2741D01*
Y2749D02*
X1536Y2758D01*
Y2783D02*
Y2766D01*
X1519Y2783D01*
X1515D01*
X1511Y2778D01*
Y2770D01*
X1515Y2766D01*
X1536Y2807D02*
Y2791D01*
X1519Y2807D01*
X1515D01*
X1511Y2803D01*
Y2795D01*
X1515Y2791D01*
Y2816D02*
X1511Y2820D01*
Y2828D01*
X1515Y2832D01*
X1519D01*
X1524Y2828D01*
X1528Y2832D01*
X1532D01*
X1536Y2828D01*
Y2820D01*
X1532Y2816D01*
X1528D01*
X1524Y2820D01*
X1519Y2816D01*
X1515D01*
X1524Y2820D02*
Y2828D01*
M02*
