%FSLAX23Y23*%
%MOIN*%
G70*
G01*
G75*
G04 Layer_Color=16751055*
%ADD10C,0.013*%
%ADD11R,0.024X0.080*%
%ADD12O,0.024X0.080*%
%ADD13R,0.039X0.071*%
%ADD14R,0.057X0.035*%
%ADD15R,0.035X0.057*%
%ADD16R,0.036X0.036*%
%ADD17R,0.060X0.052*%
%ADD18O,0.030X0.020*%
%ADD19O,0.030X0.059*%
%ADD20O,0.028X0.059*%
%ADD21R,0.071X0.126*%
%ADD22R,0.036X0.050*%
%ADD23R,0.050X0.036*%
%ADD24R,0.095X0.091*%
%ADD25R,0.071X0.039*%
%ADD26R,0.079X0.079*%
%ADD27R,0.051X0.079*%
%ADD28R,0.052X0.060*%
%ADD29O,0.059X0.028*%
%ADD30O,0.059X0.030*%
%ADD31O,0.020X0.030*%
%ADD32R,0.063X0.071*%
%ADD33O,0.013X0.055*%
%ADD34R,0.013X0.055*%
%ADD35O,0.080X0.024*%
%ADD36R,0.037X0.037*%
%ADD37R,0.033X0.037*%
%ADD38R,0.114X0.095*%
%ADD39O,0.067X0.047*%
%ADD40O,0.031X0.043*%
%ADD41O,0.047X0.067*%
%ADD42O,0.043X0.031*%
%ADD43R,0.060X0.100*%
%ADD44C,0.050*%
%ADD45R,0.060X0.060*%
%ADD46R,0.050X0.060*%
%ADD47R,0.079X0.051*%
%ADD48C,0.016*%
%ADD49C,0.024*%
%ADD50C,0.010*%
%ADD51C,0.032*%
%ADD52C,0.020*%
%ADD53C,0.008*%
%ADD54C,0.080*%
%ADD55C,0.050*%
%ADD56C,0.100*%
%ADD57C,0.040*%
%ADD58C,0.005*%
%ADD59C,0.118*%
%ADD60C,0.150*%
%ADD61C,0.060*%
%ADD62R,0.062X0.062*%
%ADD63C,0.062*%
%ADD64R,0.064X0.064*%
%ADD65C,0.064*%
%ADD66R,0.050X0.040*%
%ADD67R,0.100X0.100*%
%ADD68C,0.100*%
%ADD69C,0.047*%
%ADD70O,0.060X0.079*%
%ADD71R,0.070X0.070*%
%ADD72C,0.070*%
%ADD73C,0.180*%
%ADD74C,0.022*%
%ADD75C,0.016*%
%ADD76C,0.028*%
%ADD77C,0.032*%
%ADD78R,0.071X0.063*%
%ADD79C,0.008*%
%ADD80C,0.010*%
%ADD81C,0.012*%
%ADD82C,0.004*%
D50*
X-390Y5860D02*
Y5790D01*
X-355D01*
X-343Y5802D01*
Y5813D01*
X-355Y5825D01*
X-390D01*
X-355D01*
X-343Y5837D01*
Y5848D01*
X-355Y5860D01*
X-390D01*
X-308Y5790D02*
X-285D01*
X-273Y5802D01*
Y5825D01*
X-285Y5837D01*
X-308D01*
X-320Y5825D01*
Y5802D01*
X-308Y5790D01*
X-238Y5848D02*
Y5837D01*
X-250D01*
X-227D01*
X-238D01*
Y5802D01*
X-227Y5790D01*
X-180Y5848D02*
Y5837D01*
X-192D01*
X-168D01*
X-180D01*
Y5802D01*
X-168Y5790D01*
X-122D02*
X-98D01*
X-87Y5802D01*
Y5825D01*
X-98Y5837D01*
X-122D01*
X-133Y5825D01*
Y5802D01*
X-122Y5790D01*
X-63D02*
Y5837D01*
X-52D01*
X-40Y5825D01*
Y5790D01*
Y5825D01*
X-28Y5837D01*
X-17Y5825D01*
Y5790D01*
X112Y5860D02*
X88D01*
X77Y5848D01*
Y5802D01*
X88Y5790D01*
X112D01*
X123Y5802D01*
Y5848D01*
X112Y5860D01*
X146Y5837D02*
X170Y5790D01*
X193Y5837D01*
X251Y5790D02*
X228D01*
X216Y5802D01*
Y5825D01*
X228Y5837D01*
X251D01*
X263Y5825D01*
Y5813D01*
X216D01*
X286Y5837D02*
Y5790D01*
Y5813D01*
X298Y5825D01*
X310Y5837D01*
X321D01*
X356Y5790D02*
X380D01*
X368D01*
Y5860D01*
X356D01*
X426Y5837D02*
X450D01*
X461Y5825D01*
Y5790D01*
X426D01*
X415Y5802D01*
X426Y5813D01*
X461D01*
X485Y5837D02*
Y5802D01*
X496Y5790D01*
X531D01*
Y5778D01*
X520Y5767D01*
X508D01*
X531Y5790D02*
Y5837D01*
D58*
X1985Y2420D02*
Y2554D01*
X1875Y2420D02*
Y2554D01*
X1890Y2536D02*
Y2548D01*
X1875Y2420D02*
X1985D01*
X1875Y2554D02*
X1985D01*
X1875Y2530D02*
X1985D01*
X1883Y2542D02*
X1897D01*
D79*
X630Y3976D02*
X2717D01*
Y3504D02*
Y3976D01*
X630Y3504D02*
X2717D01*
X630D02*
Y3976D01*
Y3504D02*
Y3976D01*
D81*
X1715Y2557D02*
X1805D01*
X1715Y2397D02*
X1805D01*
X1715Y2497D02*
Y2557D01*
X1805Y2497D02*
Y2557D01*
Y2397D02*
Y2457D01*
X1715Y2397D02*
Y2457D01*
D82*
X1776Y2447D02*
X1780Y2442D01*
Y2434D01*
X1776Y2430D01*
X1760D01*
X1756Y2434D01*
Y2442D01*
X1760Y2447D01*
X1756Y2472D02*
Y2455D01*
X1772Y2472D01*
X1776D01*
X1780Y2467D01*
Y2459D01*
X1776Y2455D01*
Y2480D02*
X1780Y2484D01*
Y2492D01*
X1776Y2497D01*
X1760D01*
X1756Y2492D01*
Y2484D01*
X1760Y2480D01*
X1776D01*
Y2505D02*
X1780Y2509D01*
Y2517D01*
X1776Y2522D01*
X1760D01*
X1756Y2517D01*
Y2509D01*
X1760Y2505D01*
X1776D01*
X1950Y2472D02*
Y2455D01*
X1925D01*
Y2472D01*
X1937Y2455D02*
Y2463D01*
X1925Y2497D02*
Y2480D01*
X1942Y2497D01*
X1946D01*
X1950Y2492D01*
Y2484D01*
X1946Y2480D01*
Y2505D02*
X1950Y2509D01*
Y2517D01*
X1946Y2522D01*
X1929D01*
X1925Y2517D01*
Y2509D01*
X1929Y2505D01*
X1946D01*
X1925Y2530D02*
Y2538D01*
Y2534D01*
X1950D01*
X1946Y2530D01*
X1775Y3480D02*
X1758Y3455D01*
Y3480D02*
X1775Y3455D01*
X1750D02*
X1742D01*
X1746D01*
Y3480D01*
X1750Y3476D01*
X1729D02*
X1725Y3480D01*
X1717D01*
X1713Y3476D01*
Y3459D01*
X1717Y3455D01*
X1725D01*
X1729Y3459D01*
Y3476D01*
X1704D02*
X1700Y3480D01*
X1692D01*
X1688Y3476D01*
Y3472D01*
X1692Y3467D01*
X1696D01*
X1692D01*
X1688Y3463D01*
Y3459D01*
X1692Y3455D01*
X1700D01*
X1704Y3459D01*
M02*
