%FSLAX23Y23*%
%MOIN*%
G70*
G01*
G75*
G04 Layer_Physical_Order=5*
G04 Layer_Color=16711680*
%ADD10C,0.013*%
%ADD11R,0.024X0.080*%
%ADD12O,0.024X0.080*%
%ADD13R,0.039X0.071*%
%ADD14R,0.057X0.035*%
%ADD15R,0.035X0.057*%
%ADD16R,0.036X0.036*%
%ADD17R,0.060X0.052*%
%ADD18O,0.030X0.020*%
%ADD19O,0.030X0.059*%
%ADD20O,0.028X0.059*%
%ADD21R,0.071X0.126*%
%ADD22R,0.036X0.050*%
%ADD23R,0.050X0.036*%
%ADD24R,0.095X0.091*%
%ADD25R,0.071X0.039*%
%ADD26R,0.079X0.079*%
%ADD27R,0.051X0.079*%
%ADD28R,0.052X0.060*%
%ADD29O,0.059X0.028*%
%ADD30O,0.059X0.030*%
%ADD31O,0.020X0.030*%
%ADD32R,0.063X0.071*%
%ADD33O,0.013X0.055*%
%ADD34R,0.013X0.055*%
%ADD35O,0.080X0.024*%
%ADD36R,0.037X0.037*%
%ADD37R,0.033X0.037*%
%ADD38R,0.114X0.095*%
%ADD39O,0.067X0.047*%
%ADD40O,0.031X0.043*%
%ADD41O,0.047X0.067*%
%ADD42O,0.043X0.031*%
%ADD43R,0.060X0.100*%
%ADD44C,0.050*%
%ADD45R,0.060X0.060*%
%ADD46R,0.050X0.060*%
%ADD47R,0.079X0.051*%
%ADD48C,0.016*%
%ADD49C,0.024*%
%ADD50C,0.010*%
%ADD51C,0.032*%
%ADD52C,0.020*%
%ADD53C,0.008*%
%ADD54C,0.080*%
%ADD55C,0.050*%
%ADD56C,0.100*%
%ADD57C,0.040*%
%ADD58C,0.005*%
%ADD59C,0.118*%
%ADD60C,0.150*%
%ADD61C,0.060*%
%ADD62R,0.062X0.062*%
%ADD63C,0.062*%
%ADD64R,0.064X0.064*%
%ADD65C,0.064*%
%ADD66R,0.050X0.040*%
%ADD67R,0.100X0.100*%
%ADD68C,0.100*%
%ADD69C,0.047*%
%ADD70O,0.060X0.079*%
%ADD71R,0.070X0.070*%
%ADD72C,0.070*%
%ADD73C,0.180*%
%ADD74C,0.022*%
%ADD75C,0.016*%
%ADD76C,0.028*%
%ADD77C,0.032*%
%ADD78R,0.071X0.063*%
D10*
X4043Y3447D02*
G03*
X4012Y3494I-52J0D01*
G01*
X3852Y3937D02*
G03*
X3852Y3937I-72J0D01*
G01*
Y3740D02*
G03*
X3852Y3740I-72J0D01*
G01*
Y3543D02*
G03*
X3852Y3543I-72J0D01*
G01*
X3707Y3480D02*
G03*
X3694Y3514I-47J0D01*
G01*
X3707Y3480D02*
G03*
X3694Y3514I-47J0D01*
G01*
X4006Y3397D02*
G03*
X4043Y3447I-16J50D01*
G01*
X3968Y3494D02*
G03*
X3974Y3397I22J-47D01*
G01*
X4043Y3347D02*
G03*
X4006Y3397I-52J0D01*
G01*
Y3297D02*
G03*
X4043Y3347I-16J50D01*
G01*
X3974Y3397D02*
G03*
X3974Y3297I16J-50D01*
G01*
X4043Y3247D02*
G03*
X4006Y3297I-52J0D01*
G01*
X3974D02*
G03*
X3974Y3197I16J-50D01*
G01*
X4006D02*
G03*
X4043Y3247I-16J50D01*
G01*
Y3147D02*
G03*
X4006Y3197I-52J0D01*
G01*
Y3097D02*
G03*
X4043Y3147I-16J50D01*
G01*
Y3047D02*
G03*
X4006Y3097I-52J0D01*
G01*
X3974Y3197D02*
G03*
X3974Y3097I16J-50D01*
G01*
G03*
X3974Y2997I16J-50D01*
G01*
X3852Y3346D02*
G03*
X3707Y3355I-72J0D01*
G01*
Y3338D02*
G03*
X3852Y3346I72J8D01*
G01*
Y3150D02*
G03*
X3707Y3158I-72J0D01*
G01*
Y3141D02*
G03*
X3852Y3150I72J8D01*
G01*
X3428Y3937D02*
G03*
X3428Y3937I-82J0D01*
G01*
X3529Y3679D02*
G03*
X3495Y3693I-34J-34D01*
G01*
X3529Y3679D02*
G03*
X3495Y3693I-34J-34D01*
G01*
X3406Y3138D02*
G03*
X3457Y3185I4J47D01*
G01*
X3463Y3061D02*
G03*
X3382Y3096I-47J0D01*
G01*
X3457Y3185D02*
G03*
X3363Y3192I-47J0D01*
G01*
X3356Y3611D02*
G03*
X3390Y3598I34J34D01*
G01*
X3356Y3611D02*
G03*
X3390Y3598I34J34D01*
G01*
X4006Y2997D02*
G03*
X4043Y3047I-16J50D01*
G01*
Y2947D02*
G03*
X4006Y2997I-52J0D01*
G01*
Y2897D02*
G03*
X4043Y2947I-16J50D01*
G01*
X3974Y2997D02*
G03*
X3974Y2897I16J-50D01*
G01*
X4043Y2847D02*
G03*
X4006Y2897I-52J0D01*
G01*
X3974D02*
G03*
X3974Y2797I16J-50D01*
G01*
X4006D02*
G03*
X4043Y2847I-16J50D01*
G01*
Y2747D02*
G03*
X4006Y2797I-52J0D01*
G01*
Y2697D02*
G03*
X4043Y2747I-16J50D01*
G01*
X3974Y2797D02*
G03*
X3974Y2697I16J-50D01*
G01*
X3852Y2953D02*
G03*
X3707Y2961I-72J0D01*
G01*
Y2944D02*
G03*
X3852Y2953I72J8D01*
G01*
X3382Y3027D02*
G03*
X3463Y3061I33J34D01*
G01*
X3852Y2756D02*
G03*
X3707Y2764I-72J0D01*
G01*
X4043Y2647D02*
G03*
X4006Y2697I-52J0D01*
G01*
X3974D02*
G03*
X4043Y2647I16J-50D01*
G01*
X3707Y2748D02*
G03*
X3852Y2756I72J8D01*
G01*
Y2559D02*
G03*
X3707Y2567I-72J0D01*
G01*
Y2551D02*
G03*
X3852Y2559I72J8D01*
G01*
Y2362D02*
G03*
X3707Y2370I-72J0D01*
G01*
Y2354D02*
G03*
X3852Y2362I72J8D01*
G01*
X3694Y2216D02*
G03*
X3707Y2250I-34J34D01*
G01*
X3694Y2216D02*
G03*
X3707Y2250I-34J34D01*
G01*
X3374Y2325D02*
G03*
X3366Y2346I-29J0D01*
G01*
X3230Y2901D02*
G03*
X3254Y2911I0J34D01*
G01*
X3230Y2901D02*
G03*
X3254Y2911I0J34D01*
G01*
X3159Y2585D02*
G03*
X3151Y2606I-29J0D01*
G01*
X3159Y2585D02*
G03*
X3151Y2606I-29J0D01*
G01*
X3091Y2665D02*
G03*
X3050Y2624I-31J-10D01*
G01*
X2867Y3034D02*
G03*
X2867Y3038I-52J4D01*
G01*
X2867Y2931D02*
G03*
X2867Y2938I-52J7D01*
G01*
X2799Y2988D02*
G03*
X2789Y2984I16J-50D01*
G01*
X2867Y3038D02*
G03*
X2799Y2988I-52J0D01*
G01*
X2789Y2984D02*
G03*
X2743Y2997I-29J-14D01*
G01*
X2867Y2938D02*
G03*
X2862Y2961I-52J0D01*
G01*
X2762Y2938D02*
G03*
X2799Y2888I52J0D01*
G01*
G03*
X2799Y2788I16J-50D01*
G01*
X2837Y2690D02*
G03*
X2867Y2738I-22J47D01*
G01*
X2901Y2530D02*
G03*
X2857Y2557I-31J0D01*
G01*
X2831Y2788D02*
G03*
X2867Y2833I-16J50D01*
G01*
X2867Y2738D02*
G03*
X2831Y2788I-52J0D01*
G01*
X2799D02*
G03*
X2793Y2690I16J-50D01*
G01*
X3276Y2436D02*
G03*
X3255Y2444I-21J-21D01*
G01*
X3276Y2436D02*
G03*
X3255Y2444I-21J-21D01*
G01*
X3195D02*
G03*
X3159Y2440I-15J-29D01*
G01*
X3374Y2325D02*
G03*
X3366Y2346I-29J0D01*
G01*
X3279Y2270D02*
G03*
X3223Y2305I-38J0D01*
G01*
Y2236D02*
G03*
X3279Y2270I17J34D01*
G01*
X2857Y2503D02*
G03*
X2901Y2530I13J27D01*
G01*
X2832Y2480D02*
G03*
X2823Y2503I-32J0D01*
G01*
X2783Y2453D02*
G03*
X2832Y2480I17J27D01*
G01*
X3129Y2359D02*
G03*
X3150Y2351I21J21D01*
G01*
X3101Y2400D02*
G03*
X3109Y2379I29J0D01*
G01*
X3101Y2400D02*
G03*
X3109Y2379I29J0D01*
G01*
X3129Y2359D02*
G03*
X3150Y2351I21J21D01*
G01*
X2858Y2370D02*
G03*
X2808Y2398I-32J0D01*
G01*
Y2342D02*
G03*
X2858Y2370I17J27D01*
G01*
X2753Y3890D02*
G03*
X2769Y3928I-36J38D01*
G01*
Y3852D02*
G03*
X2753Y3890I-52J0D01*
G01*
X2769Y3946D02*
G03*
X2664Y3946I-52J0D01*
G01*
Y3928D02*
G03*
X2680Y3890I52J0D01*
G01*
G03*
X2664Y3852I36J-38D01*
G01*
Y3833D02*
G03*
X2769Y3833I52J0D01*
G01*
Y3651D02*
G03*
X2683Y3691I-52J0D01*
G01*
G03*
X2696Y3740I-84J49D01*
G01*
X2669Y3672D02*
G03*
X2664Y3651I48J-21D01*
G01*
X2381Y3795D02*
G03*
X2381Y3795I-54J0D01*
G01*
X2272D02*
G03*
X2272Y3795I-54J0D01*
G01*
X2751Y3593D02*
G03*
X2769Y3632I-34J40D01*
G01*
Y3553D02*
G03*
X2751Y3593I-52J0D01*
G01*
X2664Y3632D02*
G03*
X2682Y3593I52J0D01*
G01*
G03*
X2664Y3553I34J-40D01*
G01*
X2696Y3740D02*
G03*
X2669Y3672I-97J0D01*
G01*
X2743Y2943D02*
G03*
X2762Y2938I17J27D01*
G01*
X2712Y2997D02*
G03*
X2713Y3005I-32J7D01*
G01*
X2664Y3534D02*
G03*
X2769Y3534I52J0D01*
G01*
X2713Y3005D02*
G03*
X2663Y3033I-32J0D01*
G01*
X2607D02*
G03*
X2563Y2987I-17J-27D01*
G01*
G03*
X2590Y2938I27J-18D01*
G01*
X2260Y3394D02*
G03*
X2283Y3425I-10J31D01*
G01*
X2327Y3685D02*
G03*
X2327Y3685I-54J0D01*
G01*
X2283Y3425D02*
G03*
X2219Y3435I-32J0D01*
G01*
X2297Y3005D02*
G03*
X2248Y3033I-32J0D01*
G01*
X2205Y3351D02*
G03*
X2226Y3359I0J29D01*
G01*
X2248Y2977D02*
G03*
X2297Y3005I17J27D01*
G01*
X2205Y3351D02*
G03*
X2226Y3359I0J29D01*
G01*
X2159Y3275D02*
G03*
X2173Y3308I-32J33D01*
G01*
X2148Y3174D02*
G03*
X2159Y3198I-21J25D01*
G01*
X2148Y3174D02*
G03*
X2159Y3198I-21J25D01*
G01*
X2163Y3795D02*
G03*
X2163Y3795I-54J0D01*
G01*
X2054D02*
G03*
X2054Y3795I-54J0D01*
G01*
X2218Y3685D02*
G03*
X2218Y3685I-54J0D01*
G01*
X2109D02*
G03*
X2109Y3685I-54J0D01*
G01*
X2000D02*
G03*
X2000Y3685I-54J0D01*
G01*
X1945Y3795D02*
G03*
X1945Y3795I-54J0D01*
G01*
X1933Y3430D02*
G03*
X1885Y3459I-32J0D01*
G01*
X1875D02*
G03*
X1854Y3451I0J-29D01*
G01*
X1891Y3685D02*
G03*
X1891Y3685I-54J0D01*
G01*
X1875Y3459D02*
G03*
X1854Y3451I0J-29D01*
G01*
X2173Y3308D02*
G03*
X2142Y3351I-46J0D01*
G01*
X2111D02*
G03*
X2094Y3275I16J-43D01*
G01*
X1980Y3308D02*
G03*
X1950Y3351I-46J0D01*
G01*
X2084Y3205D02*
G03*
X2127Y3156I6J-38D01*
G01*
X2087Y3033D02*
G03*
X2087Y2977I-17J-27D01*
G01*
X1925Y3409D02*
G03*
X1933Y3430I-25J21D01*
G01*
X1952Y3265D02*
G03*
X1980Y3308I-18J42D01*
G01*
X1890Y3319D02*
G03*
X1889Y3302I45J-11D01*
G01*
G03*
X1887Y3293I31J-8D01*
G01*
X1889Y3302D02*
G03*
X1887Y3293I31J-8D01*
G01*
X1760Y3286D02*
G03*
X1781Y3294I0J29D01*
G01*
X1760Y3286D02*
G03*
X1781Y3294I0J29D01*
G01*
X1959Y3167D02*
G03*
X1952Y3187I-38J0D01*
G01*
X1887Y3187D02*
G03*
X1959Y3167I33J-21D01*
G01*
X1765Y3206D02*
G03*
X1786Y3214I0J29D01*
G01*
X1765Y3206D02*
G03*
X1786Y3214I0J29D01*
G01*
X2710Y2943D02*
G03*
X2693Y2938I0J-32D01*
G01*
X2743Y2910D02*
G03*
X2710Y2943I-32J0D01*
G01*
X2693Y2882D02*
G03*
X2743Y2910I17J27D01*
G01*
X2590Y2938D02*
G03*
X2607Y2943I0J32D01*
G01*
X2322Y2670D02*
G03*
X2318Y2687I-32J0D01*
G01*
X2449Y2659D02*
G03*
X2430Y2668I-19J-19D01*
G01*
X2449Y2659D02*
G03*
X2430Y2668I-19J-19D01*
G01*
X2707Y2435D02*
G03*
X2702Y2453I-32J0D01*
G01*
X2658Y2408D02*
G03*
X2707Y2435I17J27D01*
G01*
X2536Y2416D02*
G03*
X2555Y2408I19J19D01*
G01*
X2536Y2416D02*
G03*
X2555Y2408I19J19D01*
G01*
X2708Y2312D02*
G03*
X2757Y2340I17J27D01*
G01*
X2782Y2305D02*
G03*
X2782Y2236I-17J-34D01*
G01*
X2672Y2295D02*
G03*
X2667Y2312I-32J0D01*
G01*
X2553Y2342D02*
G03*
X2567Y2301I37J-11D01*
G01*
X2650Y2264D02*
G03*
X2672Y2295I-10J31D01*
G01*
X2465Y2398D02*
G03*
X2478Y2427I-25J29D01*
G01*
X2465Y2398D02*
G03*
X2478Y2427I-25J29D01*
G01*
X2401D02*
G03*
X2431Y2390I38J0D01*
G01*
X2401Y2427D02*
G03*
X2431Y2390I38J0D01*
G01*
X2415Y2307D02*
G03*
X2434Y2316I0J27D01*
G01*
X2415Y2307D02*
G03*
X2434Y2316I0J27D01*
G01*
X2318Y2750D02*
G03*
X2309Y2769I-27J0D01*
G01*
X2318Y2750D02*
G03*
X2309Y2769I-27J0D01*
G01*
X2257Y2478D02*
G03*
X2263Y2495I-27J17D01*
G01*
X2192Y2463D02*
G03*
X2203Y2468I-7J32D01*
G01*
X2089Y2797D02*
G03*
X2057Y2748I-4J-32D01*
G01*
X2165Y2447D02*
G03*
X2184Y2456I0J27D01*
G01*
X2165Y2447D02*
G03*
X2184Y2456I0J27D01*
G01*
X2249Y2421D02*
G03*
X2257Y2440I-19J19D01*
G01*
X2249Y2421D02*
G03*
X2257Y2440I-19J19D01*
G01*
X2021Y2855D02*
G03*
X2038Y2848I21J25D01*
G01*
X2020Y2938D02*
G03*
X2001Y2929I0J-27D01*
G01*
X2020Y2938D02*
G03*
X2001Y2929I0J-27D01*
G01*
X1976Y2904D02*
G03*
X1969Y2895I19J-19D01*
G01*
G03*
X2021Y2855I26J-20D01*
G01*
X1976Y2904D02*
G03*
X1969Y2895I19J-19D01*
G01*
X1755Y2703D02*
G03*
X1738Y2697I0J-27D01*
G01*
X1755Y2703D02*
G03*
X1738Y2697I0J-27D01*
G01*
X1838Y2550D02*
G03*
X1821Y2546I0J-38D01*
G01*
X1838Y2550D02*
G03*
X1821Y2546I0J-38D01*
G01*
X2141Y2389D02*
G03*
X2132Y2370I19J-19D01*
G01*
X2141Y2389D02*
G03*
X2132Y2370I19J-19D01*
G01*
X2242Y2362D02*
G03*
X2242Y2307I-17J-27D01*
G01*
X2179Y2316D02*
G03*
X2188Y2335I-19J19D01*
G01*
X2179Y2316D02*
G03*
X2188Y2335I-19J19D01*
G01*
X2277Y2230D02*
G03*
X2213Y2237I-32J0D01*
G01*
X2252Y2198D02*
G03*
X2277Y2230I-7J32D01*
G01*
X2201Y2224D02*
G03*
X2193Y2205I19J-19D01*
G01*
X2135Y2283D02*
G03*
X2154Y2291I0J27D01*
G01*
X2135Y2283D02*
G03*
X2154Y2291I0J27D01*
G01*
X2201Y2224D02*
G03*
X2193Y2205I19J-19D01*
G01*
X2128Y2360D02*
G03*
X2068Y2378I-32J0D01*
G01*
X2118Y2338D02*
G03*
X2128Y2360I-23J23D01*
G01*
X2068Y2199D02*
G03*
X2076Y2219I-19J19D01*
G01*
X2068Y2199D02*
G03*
X2076Y2219I-19J19D01*
G01*
X2035Y2178D02*
G03*
X2054Y2186I0J27D01*
G01*
X2035Y2178D02*
G03*
X2054Y2186I0J27D01*
G01*
X1838Y2207D02*
G03*
X1887Y2178I32J-2D01*
G01*
X3852Y2047D02*
G03*
X3852Y2047I-72J0D01*
G01*
Y1850D02*
G03*
X3852Y1850I-72J0D01*
G01*
X3531Y2189D02*
G03*
X3599Y2121I34J-34D01*
G01*
X3531Y2189D02*
G03*
X3599Y2121I34J-34D01*
G01*
X3466Y2074D02*
G03*
X3492Y2110I-12J36D01*
G01*
X3454Y1670D02*
G03*
X3450Y1687I-38J0D01*
G01*
X4043Y1557D02*
G03*
X4012Y1604I-52J0D01*
G01*
X4006Y1507D02*
G03*
X4043Y1557I-16J50D01*
G01*
X3968Y1604D02*
G03*
X3974Y1507I22J-47D01*
G01*
X4043Y1457D02*
G03*
X4006Y1507I-52J0D01*
G01*
Y1407D02*
G03*
X4043Y1457I-16J50D01*
G01*
X3974Y1507D02*
G03*
X3974Y1407I16J-50D01*
G01*
X4043Y1357D02*
G03*
X4006Y1407I-52J0D01*
G01*
X3974D02*
G03*
X3974Y1307I16J-50D01*
G01*
X4006D02*
G03*
X4043Y1357I-16J50D01*
G01*
X3852Y1654D02*
G03*
X3852Y1654I-72J0D01*
G01*
Y1457D02*
G03*
X3852Y1457I-72J0D01*
G01*
Y1260D02*
G03*
X3852Y1260I-72J0D01*
G01*
X3492Y2110D02*
G03*
X3417Y2122I-38J0D01*
G01*
X3391Y2096D02*
G03*
X3381Y2072I24J-24D01*
G01*
X3391Y2096D02*
G03*
X3381Y2072I24J-24D01*
G01*
X3162Y1865D02*
G03*
X3115Y1894I-32J0D01*
G01*
Y1836D02*
G03*
X3162Y1865I15J29D01*
G01*
X2959Y1844D02*
G03*
X2980Y1836I21J21D01*
G01*
X2959Y1844D02*
G03*
X2980Y1836I21J21D01*
G01*
X3381Y1687D02*
G03*
X3454Y1670I34J-17D01*
G01*
X3366Y1614D02*
G03*
X3374Y1635I-21J21D01*
G01*
X3366Y1614D02*
G03*
X3374Y1635I-21J21D01*
G01*
X3285Y1631D02*
G03*
X3306Y1639I0J29D01*
G01*
X3285Y1631D02*
G03*
X3306Y1639I0J29D01*
G01*
X3448Y1315D02*
G03*
X3378Y1294I-38J0D01*
G01*
X3260Y1591D02*
G03*
X3301Y1550I10J-31D01*
G01*
X3239Y1487D02*
G03*
X3247Y1515I-38J28D01*
G01*
X3050Y1689D02*
G03*
X3050Y1631I-15J-29D01*
G01*
X3247Y1515D02*
G03*
X3161Y1487I-47J0D01*
G01*
X3226Y1377D02*
G03*
X3239Y1405I-26J28D01*
G01*
X3226Y1377D02*
G03*
X3239Y1405I-26J28D01*
G01*
X4043Y1257D02*
G03*
X4006Y1307I-52J0D01*
G01*
Y1207D02*
G03*
X4043Y1257I-16J50D01*
G01*
Y1157D02*
G03*
X4006Y1207I-52J0D01*
G01*
X3974Y1307D02*
G03*
X3974Y1207I16J-50D01*
G01*
X4006Y1107D02*
G03*
X4043Y1157I-16J50D01*
G01*
X3974Y1207D02*
G03*
X3974Y1107I16J-50D01*
G01*
X4043Y1057D02*
G03*
X4006Y1107I-52J0D01*
G01*
Y1007D02*
G03*
X4043Y1057I-16J50D01*
G01*
X3974Y1107D02*
G03*
X3974Y1007I16J-50D01*
G01*
X4043Y957D02*
G03*
X4006Y1007I-52J0D01*
G01*
X3443Y1294D02*
G03*
X3448Y1315I-32J21D01*
G01*
X3497Y1214D02*
G03*
X3503Y1235I-32J21D01*
G01*
G03*
X3443Y1266I-38J0D01*
G01*
X3488Y1152D02*
G03*
X3497Y1175I-23J23D01*
G01*
X3488Y1152D02*
G03*
X3497Y1175I-23J23D01*
G01*
X3852Y1063D02*
G03*
X3852Y1063I-72J0D01*
G01*
X4006Y907D02*
G03*
X4043Y957I-16J50D01*
G01*
Y857D02*
G03*
X4006Y907I-52J0D01*
G01*
Y807D02*
G03*
X4043Y857I-16J50D01*
G01*
X3974Y1007D02*
G03*
X3974Y907I16J-50D01*
G01*
X4043Y757D02*
G03*
X4006Y807I-52J0D01*
G01*
X3974D02*
G03*
X4043Y757I16J-50D01*
G01*
X3974Y907D02*
G03*
X3974Y807I16J-50D01*
G01*
X3852Y866D02*
G03*
X3852Y866I-72J0D01*
G01*
Y669D02*
G03*
X3852Y669I-72J0D01*
G01*
Y472D02*
G03*
X3852Y472I-72J0D01*
G01*
X3297Y1084D02*
G03*
X3320Y1094I0J32D01*
G01*
X3297Y1084D02*
G03*
X3320Y1094I0J32D01*
G01*
X3207Y884D02*
G03*
X3230Y894I0J32D01*
G01*
X3207Y884D02*
G03*
X3230Y894I0J32D01*
G01*
X2991Y1149D02*
G03*
X2993Y1156I-45J16D01*
G01*
X2940Y1212D02*
G03*
X2901Y1150I6J-47D01*
G01*
G03*
X2844Y1067I-41J-33D01*
G01*
X2912Y1017D02*
G03*
X2876Y1067I-52J0D01*
G01*
Y967D02*
G03*
X2912Y1017I-16J50D01*
G01*
X2876Y1067D02*
G03*
X2901Y1084I-16J50D01*
G01*
Y949D02*
G03*
X2876Y967I-41J-32D01*
G01*
X3194Y695D02*
G03*
X3134Y728I-38J0D01*
G01*
Y663D02*
G03*
X3194Y695I21J32D01*
G01*
X3025Y728D02*
G03*
X3002Y718I0J-32D01*
G01*
X3025Y728D02*
G03*
X3002Y718I0J-32D01*
G01*
X2993Y856D02*
G03*
X2984Y884I-47J0D01*
G01*
X2984Y828D02*
G03*
X2993Y856I-38J28D01*
G01*
X2994Y710D02*
G03*
X2987Y700I23J-23D01*
G01*
X3030Y657D02*
G03*
X3038Y663I-14J30D01*
G01*
X2900Y539D02*
G03*
X2922Y548I0J31D01*
G01*
X2900Y539D02*
G03*
X2922Y548I0J31D01*
G01*
X2916Y394D02*
G03*
X2916Y394I-82J0D01*
G01*
X2856Y2030D02*
G03*
X2815Y1989I-31J-10D01*
G01*
X2638Y1948D02*
G03*
X2642Y1965I-27J17D01*
G01*
G03*
X2582Y1948I-32J0D01*
G01*
Y1735D02*
G03*
X2591Y1716I27J0D01*
G01*
X2697Y1675D02*
G03*
X2689Y1694I-27J0D01*
G01*
X2582Y1735D02*
G03*
X2591Y1716I27J0D01*
G01*
X2703Y1560D02*
G03*
X2697Y1577I-32J0D01*
G01*
Y1675D02*
G03*
X2689Y1694I-27J0D01*
G01*
X2642Y1577D02*
G03*
X2703Y1560I27J-17D01*
G01*
X2445Y2112D02*
G03*
X2464Y2121I0J27D01*
G01*
X2445Y2112D02*
G03*
X2464Y2121I0J27D01*
G01*
X2377Y2168D02*
G03*
X2377Y2112I-17J-27D01*
G01*
X2395Y1820D02*
G03*
X2326Y1820I-34J0D01*
G01*
X2322Y1875D02*
G03*
X2258Y1882I-32J0D01*
G01*
X2297Y1843D02*
G03*
X2322Y1875I-7J32D01*
G01*
X2562Y1345D02*
G03*
X2559Y1360I-32J0D01*
G01*
X2501D02*
G03*
X2562Y1345I29J-15D01*
G01*
X2844Y1067D02*
G03*
X2844Y967I16J-50D01*
G01*
X2448Y1047D02*
G03*
X2439Y1072I-38J0D01*
G01*
X2381D02*
G03*
X2448Y1047I29J-25D01*
G01*
X2384Y1216D02*
G03*
X2395Y1240I-24J24D01*
G01*
X2384Y1216D02*
G03*
X2395Y1240I-24J24D01*
G01*
X2276Y1247D02*
G03*
X2312Y1297I-16J50D01*
G01*
X2300Y1231D02*
G03*
X2276Y1247I-40J-34D01*
G01*
X2381Y1171D02*
G03*
X2360Y1179I-21J-21D01*
G01*
X2381Y1171D02*
G03*
X2360Y1179I-21J-21D01*
G01*
X2439Y1100D02*
G03*
X2431Y1121I-29J0D01*
G01*
X2439Y1100D02*
G03*
X2431Y1121I-29J0D01*
G01*
X2312Y1097D02*
G03*
X2307Y1121I-52J0D01*
G01*
X2276Y1047D02*
G03*
X2312Y1097I-16J50D01*
G01*
X2253Y2060D02*
G03*
X2247Y2077I-32J0D01*
G01*
X2193D02*
G03*
X2253Y2060I27J-17D01*
G01*
X2244Y1635D02*
G03*
X2243Y1644I-29J0D01*
G01*
X2196Y1819D02*
G03*
X2188Y1800I19J-19D01*
G01*
X2196Y1819D02*
G03*
X2188Y1800I19J-19D01*
G01*
X2236Y1539D02*
G03*
X2244Y1560I-21J21D01*
G01*
X2236Y1539D02*
G03*
X2244Y1560I-21J21D01*
G01*
X1969Y2128D02*
G03*
X1972Y2140I-34J12D01*
G01*
X1945Y2101D02*
G03*
X1969Y2128I-10J33D01*
G01*
X1972Y2140D02*
G03*
X1902Y2156I-36J0D01*
G01*
X1910Y2080D02*
G03*
X1934Y2091I0J34D01*
G01*
X1910Y2080D02*
G03*
X1934Y2091I0J34D01*
G01*
X2057Y1950D02*
G03*
X2008Y1977I-32J0D01*
G01*
Y1923D02*
G03*
X2057Y1950I17J27D01*
G01*
X2188Y1644D02*
G03*
X2186Y1635I27J-9D01*
G01*
X2124Y1511D02*
G03*
X2116Y1490I21J-21D01*
G01*
X2124Y1511D02*
G03*
X2116Y1490I21J-21D01*
G01*
X1842Y1675D02*
G03*
X1795Y1704I-32J0D01*
G01*
Y1646D02*
G03*
X1842Y1675I15J29D01*
G01*
X2166Y1379D02*
G03*
X2174Y1400I-21J21D01*
G01*
X2166Y1379D02*
G03*
X2174Y1400I-21J21D01*
G01*
X2312Y1297D02*
G03*
X2244Y1247I-52J0D01*
G01*
G03*
X2220Y1230I16J-50D01*
G01*
X2105Y1331D02*
G03*
X2126Y1339I0J29D01*
G01*
X2105Y1331D02*
G03*
X2126Y1339I0J29D01*
G01*
X1933Y1405D02*
G03*
X1885Y1434I-32J0D01*
G01*
X1928Y1389D02*
G03*
X1933Y1405I-28J16D01*
G01*
X1831Y1460D02*
G03*
X1790Y1419I-31J-10D01*
G01*
X2023Y1297D02*
G03*
X2010Y1331I-52J0D01*
G01*
X1986Y1247D02*
G03*
X2023Y1297I-16J50D01*
G01*
X1930Y1331D02*
G03*
X1954Y1247I40J-34D01*
G01*
X2010Y1230D02*
G03*
X1986Y1247I-40J-34D01*
G01*
X1954D02*
G03*
X1921Y1179I16J-50D01*
G01*
X2844Y967D02*
G03*
X2844Y867I16J-50D01*
G01*
G03*
X2838Y769I16J-50D01*
G01*
X2828Y664D02*
G03*
X2814Y600I27J-39D01*
G01*
X2645D02*
G03*
X2623Y592I0J-31D01*
G01*
X2645Y600D02*
G03*
X2623Y592I0J-31D01*
G01*
X2612Y697D02*
G03*
X2582Y744I-52J0D01*
G01*
X2538D02*
G03*
X2544Y647I22J-47D01*
G01*
X2312Y997D02*
G03*
X2276Y1047I-52J0D01*
G01*
Y947D02*
G03*
X2312Y997I-16J50D01*
G01*
X2576Y647D02*
G03*
X2612Y697I-16J50D01*
G01*
X2544Y647D02*
G03*
X2517Y627I16J-50D01*
G01*
X2612Y597D02*
G03*
X2576Y647I-52J0D01*
G01*
X2608Y577D02*
G03*
X2612Y597I-48J20D01*
G01*
X2357Y708D02*
G03*
X2335Y717I-22J-22D01*
G01*
X2357Y708D02*
G03*
X2335Y717I-22J-22D01*
G01*
X2576Y447D02*
G03*
X2612Y494I-16J50D01*
G01*
X2517Y466D02*
G03*
X2544Y447I43J31D01*
G01*
X2612Y397D02*
G03*
X2576Y447I-52J0D01*
G01*
X2544D02*
G03*
X2612Y397I16J-50D01*
G01*
X2413Y475D02*
G03*
X2435Y466I22J22D01*
G01*
X2413Y475D02*
G03*
X2435Y466I22J22D01*
G01*
X2282Y449D02*
G03*
X2312Y497I-22J47D01*
G01*
X2445Y356D02*
G03*
X2499Y392I15J36D01*
G01*
G03*
X2431Y417I-38J0D01*
G01*
X2312Y897D02*
G03*
X2276Y947I-52J0D01*
G01*
X2209Y1007D02*
G03*
X2244Y947I51J-10D01*
G01*
X2276Y847D02*
G03*
X2312Y897I-16J50D01*
G01*
X2244Y947D02*
G03*
X2244Y847I16J-50D01*
G01*
X2312Y797D02*
G03*
X2276Y847I-52J0D01*
G01*
X2244D02*
G03*
X2214Y822I16J-50D01*
G01*
X2276Y747D02*
G03*
X2312Y797I-16J50D01*
G01*
X2221Y761D02*
G03*
X2244Y747I39J35D01*
G01*
X2308Y717D02*
G03*
X2276Y747I-48J-21D01*
G01*
X2244D02*
G03*
X2244Y647I16J-50D01*
G01*
X2118Y770D02*
G03*
X2140Y761I22J22D01*
G01*
X2118Y770D02*
G03*
X2140Y761I22J22D01*
G01*
X2023Y997D02*
G03*
X2017Y1021I-52J0D01*
G01*
X1986Y947D02*
G03*
X2023Y997I-16J50D01*
G01*
Y897D02*
G03*
X1986Y947I-52J0D01*
G01*
X1923Y1021D02*
G03*
X1954Y947I47J-24D01*
G01*
X2107Y868D02*
G03*
X2085Y877I-22J-22D01*
G01*
X2107Y868D02*
G03*
X2085Y877I-22J-22D01*
G01*
X2019D02*
G03*
X2023Y897I-49J19D01*
G01*
Y797D02*
G03*
X2019Y816I-52J0D01*
G01*
X1986Y747D02*
G03*
X2023Y797I-16J50D01*
G01*
X1954Y947D02*
G03*
X1921Y877I16J-50D01*
G01*
X1921Y816D02*
G03*
X1954Y747I49J-20D01*
G01*
X2023Y697D02*
G03*
X1986Y747I-52J0D01*
G01*
X1748Y825D02*
G03*
X1770Y816I22J22D01*
G01*
X1748Y825D02*
G03*
X1770Y816I22J22D01*
G01*
X2276Y547D02*
G03*
X2293Y556I-16J50D01*
G01*
X2244Y647D02*
G03*
X2244Y547I16J-50D01*
G01*
X2312Y497D02*
G03*
X2276Y547I-52J0D01*
G01*
X1986Y647D02*
G03*
X2023Y697I-16J50D01*
G01*
Y597D02*
G03*
X1986Y647I-52J0D01*
G01*
Y547D02*
G03*
X2023Y597I-16J50D01*
G01*
X2244Y547D02*
G03*
X2238Y449I16J-50D01*
G01*
X2023Y497D02*
G03*
X1986Y547I-52J0D01*
G01*
X1954Y747D02*
G03*
X1954Y647I16J-50D01*
G01*
G03*
X1954Y547I16J-50D01*
G01*
X1992Y449D02*
G03*
X2023Y497I-22J47D01*
G01*
X1954Y547D02*
G03*
X1948Y449I16J-50D01*
G01*
X2004Y295D02*
G03*
X2017Y329I-34J34D01*
G01*
X2004Y295D02*
G03*
X2017Y329I-34J34D01*
G01*
X1946Y257D02*
G03*
X1980Y271I0J47D01*
G01*
X1946Y257D02*
G03*
X1980Y271I0J47D01*
G01*
X1836Y3795D02*
G03*
X1836Y3795I-54J0D01*
G01*
X1727D02*
G03*
X1727Y3795I-54J0D01*
G01*
X1618D02*
G03*
X1618Y3795I-54J0D01*
G01*
X1357Y3943D02*
G03*
X1362Y3960I-27J17D01*
G01*
X1509Y3795D02*
G03*
X1509Y3795I-54J0D01*
G01*
X1349Y3911D02*
G03*
X1357Y3930I-19J19D01*
G01*
X1362Y3960D02*
G03*
X1303Y3943I-32J0D01*
G01*
X1349Y3911D02*
G03*
X1357Y3930I-19J19D01*
G01*
X1400Y3795D02*
G03*
X1400Y3795I-54J0D01*
G01*
X1782Y3685D02*
G03*
X1782Y3685I-54J0D01*
G01*
X1699Y3350D02*
G03*
X1689Y3374I-34J0D01*
G01*
X1699Y3344D02*
G03*
X1699Y3350I-34J6D01*
G01*
X1673Y3685D02*
G03*
X1673Y3685I-54J0D01*
G01*
X1684Y3379D02*
G03*
X1660Y3389I-24J-24D01*
G01*
X1684Y3379D02*
G03*
X1660Y3389I-24J-24D01*
G01*
X1564Y3685D02*
G03*
X1564Y3685I-54J0D01*
G01*
X1455D02*
G03*
X1455Y3685I-54J0D01*
G01*
X1405Y3389D02*
G03*
X1381Y3379I0J-34D01*
G01*
X1405Y3389D02*
G03*
X1381Y3379I0J-34D01*
G01*
X1430Y3264D02*
G03*
X1417Y3261I0J-29D01*
G01*
X1430Y3264D02*
G03*
X1417Y3261I0J-29D01*
G01*
X1275Y3848D02*
G03*
X1294Y3856I0J27D01*
G01*
X1275Y3914D02*
G03*
X1278Y3930I-35J16D01*
G01*
X1275Y3914D02*
G03*
X1278Y3930I-35J16D01*
G01*
Y4000D02*
G03*
X1261Y4032I-38J0D01*
G01*
X1219D02*
G03*
X1202Y4000I21J-32D01*
G01*
X1275Y3848D02*
G03*
X1294Y3856I0J27D01*
G01*
X1291Y3795D02*
G03*
X1248Y3848I-54J0D01*
G01*
X1226D02*
G03*
X1291Y3795I11J-52D01*
G01*
X1182D02*
G03*
X1139Y3848I-54J0D01*
G01*
X1117D02*
G03*
X1182Y3795I11J-52D01*
G01*
X920Y3948D02*
G03*
X893Y3937I0J-38D01*
G01*
X920Y3948D02*
G03*
X893Y3937I0J-38D01*
G01*
X1346Y3685D02*
G03*
X1346Y3685I-54J0D01*
G01*
X1312Y3385D02*
G03*
X1265Y3414I-32J0D01*
G01*
X1237Y3685D02*
G03*
X1237Y3685I-54J0D01*
G01*
X1265Y3356D02*
G03*
X1312Y3385I15J29D01*
G01*
X1205Y3299D02*
G03*
X1181Y3289I0J-34D01*
G01*
X1205Y3299D02*
G03*
X1181Y3289I0J-34D01*
G01*
X1185Y3414D02*
G03*
X1164Y3406I0J-29D01*
G01*
X1185Y3414D02*
G03*
X1164Y3406I0J-29D01*
G01*
X1128Y3685D02*
G03*
X1128Y3685I-54J0D01*
G01*
X954Y3526D02*
G03*
X962Y3545I-19J19D01*
G01*
X954Y3526D02*
G03*
X962Y3545I-19J19D01*
G01*
X967Y3248D02*
G03*
X967Y3248I-82J0D01*
G01*
X1617Y2840D02*
G03*
X1609Y2859I-26J0D01*
G01*
X1617Y2840D02*
G03*
X1609Y2859I-26J0D01*
G01*
X1622Y2735D02*
G03*
X1617Y2754I-32J0D01*
G01*
X1607Y2860D02*
G03*
X1564Y2825I-32J-5D01*
G01*
Y2754D02*
G03*
X1622Y2735I26J-19D01*
G01*
X1738Y2697D02*
G03*
X1728Y2638I7J-32D01*
G01*
X1677D02*
G03*
X1677Y2582I-17J-27D01*
G01*
X1508Y2749D02*
G03*
X1443Y2756I-32J0D01*
G01*
X1375Y3151D02*
G03*
X1396Y3159I0J29D01*
G01*
X1375Y3151D02*
G03*
X1396Y3159I0J29D01*
G01*
X1310Y2878D02*
G03*
X1286Y2889I-24J-24D01*
G01*
X1310Y2878D02*
G03*
X1286Y2889I-24J-24D01*
G01*
X1344Y2830D02*
G03*
X1334Y2854I-34J0D01*
G01*
X1344Y2830D02*
G03*
X1334Y2854I-34J0D01*
G01*
X1482Y2717D02*
G03*
X1508Y2749I-7J32D01*
G01*
X1376Y2688D02*
G03*
X1367Y2669I19J-19D01*
G01*
X1376Y2688D02*
G03*
X1367Y2669I19J-19D01*
G01*
X1428Y2620D02*
G03*
X1423Y2637I-32J0D01*
G01*
X1349Y2727D02*
G03*
X1344Y2744I-38J-0D01*
G01*
X1349Y2727D02*
G03*
X1344Y2744I-38J0D01*
G01*
X1367Y2637D02*
G03*
X1428Y2620I27J-17D01*
G01*
X1577Y2425D02*
G03*
X1568Y2447I-32J0D01*
G01*
X1528Y2398D02*
G03*
X1577Y2425I17J27D01*
G01*
X1637Y2368D02*
G03*
X1582Y2338I-32J-7D01*
G01*
X1758Y2340D02*
G03*
X1708Y2368I-32J0D01*
G01*
X1537Y2283D02*
G03*
X1553Y2228I23J-23D01*
G01*
X1566Y2216D02*
G03*
X1585Y2207I19J19D01*
G01*
X1566Y2216D02*
G03*
X1585Y2207I19J19D01*
G01*
X1327Y2359D02*
G03*
X1346Y2367I0J27D01*
G01*
X1327Y2359D02*
G03*
X1346Y2367I0J27D01*
G01*
X1480Y2338D02*
G03*
X1461Y2329I0J-27D01*
G01*
X1480Y2338D02*
G03*
X1461Y2329I0J-27D01*
G01*
X1357Y2159D02*
G03*
X1376Y2167I0J27D01*
G01*
X1368Y2109D02*
G03*
X1372Y2125I-28J16D01*
G01*
X1357Y2159D02*
G03*
X1376Y2167I0J27D01*
G01*
X1372Y2125D02*
G03*
X1325Y2154I-32J0D01*
G01*
X1276Y2744D02*
G03*
X1271Y2727I34J-17D01*
G01*
X1276Y2744D02*
G03*
X1271Y2727I34J-17D01*
G01*
X900Y3071D02*
G03*
X921Y3079I0J29D01*
G01*
X900Y3071D02*
G03*
X921Y3079I0J29D01*
G01*
X1040Y2926D02*
G03*
X1061Y2934I0J29D01*
G01*
X1040Y2926D02*
G03*
X1061Y2934I0J29D01*
G01*
X1271Y2479D02*
G03*
X1284Y2450I38J0D01*
G01*
G03*
X1273Y2426I21J-25D01*
G01*
X1258Y2337D02*
G03*
X1280Y2359I-28J50D01*
G01*
X1288Y2287D02*
G03*
X1258Y2337I-58J0D01*
G01*
X1277Y2154D02*
G03*
X1280Y2159I-47J33D01*
G01*
X1258Y2237D02*
G03*
X1288Y2287I-28J50D01*
G01*
X1273Y2426D02*
G03*
X1188Y2426I-43J-39D01*
G01*
X1280Y2214D02*
G03*
X1258Y2237I-50J-27D01*
G01*
X1074Y2276D02*
G03*
X1102Y2237I56J11D01*
G01*
G03*
X1077Y2164I28J-50D01*
G01*
X868Y3912D02*
G03*
X857Y3885I27J-27D01*
G01*
X868Y3912D02*
G03*
X857Y3885I27J-27D01*
G01*
X682Y3946D02*
G03*
X613Y3996I-52J0D01*
G01*
X666Y3890D02*
G03*
X682Y3928I-36J38D01*
G01*
Y3852D02*
G03*
X666Y3890I-52J0D01*
G01*
X846Y3740D02*
G03*
X664Y3691I-97J0D01*
G01*
X678Y3672D02*
G03*
X846Y3740I70J68D01*
G01*
X577Y3833D02*
G03*
X682Y3833I52J0D01*
G01*
X521Y4039D02*
G03*
X515Y4031I34J-34D01*
G01*
X521Y4039D02*
G03*
X515Y4031I34J-34D01*
G01*
X682Y3651D02*
G03*
X678Y3672I-52J0D01*
G01*
X664Y3593D02*
G03*
X682Y3632I-34J40D01*
G01*
X525Y3768D02*
G03*
X523Y3781I-54J0D01*
G01*
X664Y3691D02*
G03*
X577Y3651I-34J-40D01*
G01*
Y3632D02*
G03*
X596Y3593I52J0D01*
G01*
X682Y3553D02*
G03*
X664Y3593I-52J0D01*
G01*
X656Y3489D02*
G03*
X682Y3534I-26J45D01*
G01*
X596Y3593D02*
G03*
X577Y3553I34J-40D01*
G01*
Y3534D02*
G03*
X604Y3489I52J0D01*
G01*
X550Y3132D02*
G03*
X569Y3141I0J27D01*
G01*
X550Y3132D02*
G03*
X569Y3141I0J27D01*
G01*
X525Y3129D02*
G03*
X532Y3132I-10J31D01*
G01*
Y3188D02*
G03*
X505Y3129I-17J-27D01*
G01*
X436Y3829D02*
G03*
X423Y3795I34J-34D01*
G01*
G03*
X525Y3768I47J-27D01*
G01*
X387Y3826D02*
G03*
X387Y3826I-72J0D01*
G01*
Y3676D02*
G03*
X387Y3676I-72J0D01*
G01*
X343Y3350D02*
G03*
X312Y3398I-52J0D01*
G01*
X306Y3300D02*
G03*
X343Y3350I-16J50D01*
G01*
Y3250D02*
G03*
X306Y3300I-52J0D01*
G01*
X274D02*
G03*
X343Y3250I16J-50D01*
G01*
X268Y3398D02*
G03*
X274Y3300I22J-47D01*
G01*
X135Y3129D02*
G03*
X114Y3121I0J-29D01*
G01*
X135Y3129D02*
G03*
X114Y3121I0J-29D01*
G01*
X79Y3086D02*
G03*
X71Y3065I21J-21D01*
G01*
X79Y3086D02*
G03*
X71Y3065I21J-21D01*
G01*
X797Y2416D02*
G03*
X781Y2411I0J-29D01*
G01*
X797Y2416D02*
G03*
X781Y2411I0J-29D01*
G01*
G03*
X772Y2407I9J-31D01*
G01*
G03*
X768Y2404I18J-27D01*
G01*
G03*
X760Y2391I22J-24D01*
G01*
G03*
X742Y2404I-40J-35D01*
G01*
X546Y2469D02*
G03*
X546Y2469I-54J0D01*
G01*
X698Y2404D02*
G03*
X673Y2334I22J-47D01*
G01*
X610D02*
G03*
X589Y2326I0J-29D01*
G01*
X610Y2334D02*
G03*
X589Y2326I0J-29D01*
G01*
X559Y2296D02*
G03*
X551Y2275I21J-21D01*
G01*
X559Y2296D02*
G03*
X551Y2275I21J-21D01*
G01*
X772Y2257D02*
G03*
X769Y2276I-52J0D01*
G01*
X671D02*
G03*
X772Y2257I49J-19D01*
G01*
X825Y2164D02*
G03*
X803Y2103I-15J-29D01*
G01*
X546Y2360D02*
G03*
X546Y2360I-54J0D01*
G01*
Y2251D02*
G03*
X546Y2251I-54J0D01*
G01*
Y2142D02*
G03*
X546Y2142I-54J0D01*
G01*
X446Y2088D02*
G03*
X351Y2123I-54J0D01*
G01*
X200Y3065D02*
G03*
X176Y3054I0J-34D01*
G01*
X200Y3065D02*
G03*
X176Y3054I0J-34D01*
G01*
X151Y3029D02*
G03*
X140Y3005I24J-24D01*
G01*
X151Y3029D02*
G03*
X140Y3005I24J-24D01*
G01*
X555Y2744D02*
G03*
X555Y2744I-112J0D01*
G01*
X298Y2420D02*
G03*
X294Y2435I-32J0D01*
G01*
X446Y2415D02*
G03*
X446Y2415I-54J0D01*
G01*
Y2306D02*
G03*
X346Y2334I-54J0D01*
G01*
X268Y2388D02*
G03*
X298Y2420I-3J32D01*
G01*
X278Y2365D02*
G03*
X268Y2388I-32J0D01*
G01*
X140Y2370D02*
G03*
X151Y2346I34J0D01*
G01*
X140Y2370D02*
G03*
X151Y2346I34J0D01*
G01*
X255Y2334D02*
G03*
X278Y2365I-10J31D01*
G01*
X348Y2276D02*
G03*
X446Y2306I44J30D01*
G01*
Y2197D02*
G03*
X446Y2197I-54J0D01*
G01*
X121Y2339D02*
G03*
X129Y2360I-21J21D01*
G01*
X121Y2339D02*
G03*
X129Y2360I-21J21D01*
G01*
X54Y2356D02*
G03*
X46Y2335I21J-21D01*
G01*
X54Y2356D02*
G03*
X46Y2335I21J-21D01*
G01*
X130Y2334D02*
G03*
X118Y2337I-15J-29D01*
G01*
X104Y2274D02*
G03*
X130Y2276I11J31D01*
G01*
X144Y2220D02*
G03*
X136Y2241I-29J0D01*
G01*
X144Y2220D02*
G03*
X136Y2241I-29J0D01*
G01*
X46Y2260D02*
G03*
X54Y2239I29J0D01*
G01*
X46Y2260D02*
G03*
X54Y2239I29J0D01*
G01*
X1762Y2149D02*
G03*
X1762Y2080I-17J-34D01*
G01*
X1538Y2030D02*
G03*
X1490Y2059I-32J0D01*
G01*
X1650Y1977D02*
G03*
X1613Y1933I-30J-13D01*
G01*
X1490Y2001D02*
G03*
X1538Y2030I15J29D01*
G01*
X1616Y1931D02*
G03*
X1635Y1923I19J19D01*
G01*
X1616Y1931D02*
G03*
X1635Y1923I19J19D01*
G01*
X1440Y2059D02*
G03*
X1447Y2080I-25J21D01*
G01*
G03*
X1400Y2109I-32J0D01*
G01*
X1487Y1935D02*
G03*
X1436Y1962I-32J0D01*
G01*
X1439Y1907D02*
G03*
X1487Y1935I16J28D01*
G01*
X1389Y1654D02*
G03*
X1410Y1646I21J21D01*
G01*
X1389Y1654D02*
G03*
X1410Y1646I21J21D01*
G01*
X1294Y1700D02*
G03*
X1286Y1721I-29J0D01*
G01*
X1294Y1700D02*
G03*
X1286Y1721I-29J0D01*
G01*
Y1644D02*
G03*
X1294Y1665I-21J21D01*
G01*
X1286Y1644D02*
G03*
X1294Y1665I-21J21D01*
G01*
X1556Y1437D02*
G03*
X1515Y1396I-31J-10D01*
G01*
X1722Y1297D02*
G03*
X1710Y1331I-52J0D01*
G01*
X1686Y1247D02*
G03*
X1722Y1297I-16J50D01*
G01*
X1572Y1339D02*
G03*
X1592Y1331I21J21D01*
G01*
X1572Y1339D02*
G03*
X1592Y1331I21J21D01*
G01*
X1630D02*
G03*
X1654Y1247I40J-34D01*
G01*
X1416Y1442D02*
G03*
X1389Y1454I-27J-27D01*
G01*
X1416Y1442D02*
G03*
X1389Y1454I-27J-27D01*
G01*
X1473Y1277D02*
G03*
X1465Y1278I-8J-32D01*
G01*
X1433Y1297D02*
G03*
X1424Y1325I-52J0D01*
G01*
X1473Y1277D02*
G03*
X1465Y1278I-8J-32D01*
G01*
X1429D02*
G03*
X1433Y1297I-49J19D01*
G01*
X1408Y1341D02*
G03*
X1331Y1278I-28J-44D01*
G01*
X1286Y1841D02*
G03*
X1265Y1849I-21J-21D01*
G01*
X1286Y1841D02*
G03*
X1265Y1849I-21J-21D01*
G01*
X1181Y1965D02*
G03*
X1135Y1984I-31J-10D01*
G01*
X1208Y1962D02*
G03*
X1181Y1965I-17J-27D01*
G01*
X1160Y1924D02*
G03*
X1208Y1907I31J10D01*
G01*
X1261Y1746D02*
G03*
X1246Y1753I-21J-21D01*
G01*
G03*
X1207Y1702I-16J-28D01*
G01*
X1261Y1746D02*
G03*
X1246Y1753I-21J-21D01*
G01*
X1207Y1702D02*
G03*
X1198Y1679I23J-23D01*
G01*
X1135Y1926D02*
G03*
X1160Y1924I15J29D01*
G01*
X1059Y2009D02*
G03*
X1080Y2001I21J21D01*
G01*
X1059Y2009D02*
G03*
X1080Y2001I21J21D01*
G01*
X1044Y2017D02*
G03*
X1044Y2025I-47J0D01*
G01*
X1031Y1984D02*
G03*
X1044Y2017I-34J33D01*
G01*
X1036Y1916D02*
G03*
X1015Y1924I-21J-21D01*
G01*
X1036Y1916D02*
G03*
X1015Y1924I-21J-21D01*
G01*
X1069Y1799D02*
G03*
X1090Y1791I21J21D01*
G01*
X1069Y1799D02*
G03*
X1090Y1791I21J21D01*
G01*
X1039Y1733D02*
G03*
X962Y1733I-38J0D01*
G01*
X1039D02*
G03*
X962Y1733I-38J0D01*
G01*
X1313Y1515D02*
G03*
X1224Y1553I-52J0D01*
G01*
X1276Y1465D02*
G03*
X1313Y1515I-16J50D01*
G01*
X1149Y1631D02*
G03*
X1141Y1610I21J-21D01*
G01*
X1149Y1631D02*
G03*
X1141Y1610I21J-21D01*
G01*
X1296Y1454D02*
G03*
X1276Y1465I-36J-38D01*
G01*
X1224Y1377D02*
G03*
X1296Y1377I36J38D01*
G01*
X1250Y1278D02*
G03*
X1224Y1265I0J-32D01*
G01*
X1250Y1278D02*
G03*
X1224Y1265I0J-32D01*
G01*
X1135Y1573D02*
G03*
X1124Y1600I-38J0D01*
G01*
X1135Y1573D02*
G03*
X1124Y1600I-38J0D01*
G01*
X962Y1669D02*
G03*
X974Y1642I38J0D01*
G01*
X962Y1669D02*
G03*
X974Y1642I38J0D01*
G01*
X1124Y1502D02*
G03*
X1135Y1529I-27J27D01*
G01*
X1124Y1502D02*
G03*
X1135Y1529I-27J27D01*
G01*
X1109Y1270D02*
G03*
X1101Y1291I-29J0D01*
G01*
X1109Y1270D02*
G03*
X1101Y1291I-29J0D01*
G01*
X1059Y1537D02*
G03*
X1123Y1501I38J-9D01*
G01*
X1059Y1537D02*
G03*
X1123Y1501I38J-9D01*
G01*
X1719Y1179D02*
G03*
X1722Y1197I-49J18D01*
G01*
X1723Y1179D02*
G03*
X1719Y1179I0J-29D01*
G01*
X1723Y1179D02*
G03*
X1719Y1179I0J-29D01*
G01*
X1722Y997D02*
G03*
X1717Y1021I-52J0D01*
G01*
X1722Y1197D02*
G03*
X1686Y1247I-52J0D01*
G01*
X1654D02*
G03*
X1634Y1235I16J-50D01*
G01*
X1686Y947D02*
G03*
X1722Y997I-16J50D01*
G01*
X1623Y1021D02*
G03*
X1654Y947I47J-24D01*
G01*
X1742Y918D02*
G03*
X1720Y927I-22J-22D01*
G01*
X1742Y918D02*
G03*
X1720Y927I-22J-22D01*
G01*
X1713D02*
G03*
X1686Y947I-43J-31D01*
G01*
Y847D02*
G03*
X1710Y863I-16J50D01*
G01*
X1654Y947D02*
G03*
X1654Y847I16J-50D01*
G01*
X1722Y797D02*
G03*
X1686Y847I-52J0D01*
G01*
Y747D02*
G03*
X1722Y797I-16J50D01*
G01*
X1654Y847D02*
G03*
X1654Y747I16J-50D01*
G01*
X1581Y897D02*
G03*
X1533Y926I-32J0D01*
G01*
X1433Y997D02*
G03*
X1427Y1021I-52J0D01*
G01*
X1533Y868D02*
G03*
X1581Y897I15J29D01*
G01*
X1409Y853D02*
G03*
X1424Y868I-29J44D01*
G01*
X1462Y755D02*
G03*
X1432Y791I-36J0D01*
G01*
X1428Y719D02*
G03*
X1462Y755I-2J36D01*
G01*
X1433Y797D02*
G03*
X1409Y841I-52J0D01*
G01*
X1432Y791D02*
G03*
X1433Y797I-52J6D01*
G01*
X1722Y697D02*
G03*
X1686Y747I-52J0D01*
G01*
Y647D02*
G03*
X1722Y697I-16J50D01*
G01*
Y597D02*
G03*
X1686Y647I-52J0D01*
G01*
X1654Y747D02*
G03*
X1654Y647I16J-50D01*
G01*
X1686Y547D02*
G03*
X1722Y597I-16J50D01*
G01*
Y497D02*
G03*
X1686Y547I-52J0D01*
G01*
X1654Y647D02*
G03*
X1654Y547I16J-50D01*
G01*
G03*
X1618Y496I16J-50D01*
G01*
X1742Y197D02*
G03*
X1710Y257I-72J0D01*
G01*
X1692Y449D02*
G03*
X1722Y497I-22J47D01*
G01*
X1630Y257D02*
G03*
X1742Y197I40J-61D01*
G01*
X1544Y569D02*
G03*
X1508Y577I-24J-24D01*
G01*
X1433Y697D02*
G03*
X1428Y719I-52J0D01*
G01*
X1429Y577D02*
G03*
X1433Y597I-49J19D01*
G01*
X1438Y271D02*
G03*
X1472Y257I34J34D01*
G01*
X1438Y271D02*
G03*
X1472Y257I34J34D01*
G01*
X1396Y947D02*
G03*
X1433Y997I-16J50D01*
G01*
X1336Y968D02*
G03*
X1364Y947I44J29D01*
G01*
X1233Y976D02*
G03*
X1253Y968I21J21D01*
G01*
X1233Y976D02*
G03*
X1253Y968I21J21D01*
G01*
X1141Y1080D02*
G03*
X1149Y1059I29J0D01*
G01*
X1141Y1080D02*
G03*
X1149Y1059I29J0D01*
G01*
X1424Y926D02*
G03*
X1396Y947I-44J-29D01*
G01*
X1364D02*
G03*
X1351Y853I16J-50D01*
G01*
X1396Y647D02*
G03*
X1433Y697I-16J50D01*
G01*
Y597D02*
G03*
X1396Y647I-52J0D01*
G01*
X1351Y841D02*
G03*
X1333Y774I29J-44D01*
G01*
X1226Y796D02*
G03*
X1205Y804I-21J-21D01*
G01*
X1226Y796D02*
G03*
X1205Y804I-21J-21D01*
G01*
X1021Y973D02*
G03*
X973Y945I-16J-28D01*
G01*
X1132Y804D02*
G03*
X1109Y812I-22J-24D01*
G01*
X1021Y973D02*
G03*
X973Y945I-16J-28D01*
G01*
Y675D02*
G03*
X982Y652I32J0D01*
G01*
X973Y675D02*
G03*
X982Y652I32J0D01*
G01*
X1135Y340D02*
G03*
X1157Y348I0J31D01*
G01*
X1135Y340D02*
G03*
X1157Y348I0J31D01*
G01*
X1122Y468D02*
G03*
X1133Y466I11J29D01*
G01*
X1122Y468D02*
G03*
X1133Y466I11J29D01*
G01*
X925Y495D02*
G03*
X1018Y444I45J-28D01*
G01*
X1122Y167D02*
G03*
X1122Y167I-52J0D01*
G01*
X954Y2036D02*
G03*
X963Y1984I43J-19D01*
G01*
X890D02*
G03*
X865Y1924I-15J-29D01*
G01*
X803Y2103D02*
G03*
X808Y2082I32J-3D01*
G01*
G03*
X850Y2036I27J-18D01*
G01*
X736Y2037D02*
G03*
X772Y2087I-16J50D01*
G01*
G03*
X704Y2037I-52J0D01*
G01*
X772Y1987D02*
G03*
X736Y2037I-52J0D01*
G01*
X885Y1924D02*
G03*
X890Y1926I-10J31D01*
G01*
X742Y1939D02*
G03*
X772Y1987I-22J47D01*
G01*
X795Y1924D02*
G03*
X772Y1927I-15J-29D01*
G01*
Y1863D02*
G03*
X795Y1866I7J32D01*
G01*
X704Y2037D02*
G03*
X698Y1939I16J-50D01*
G01*
X959Y1785D02*
G03*
X951Y1806I-29J0D01*
G01*
X941Y1816D02*
G03*
X920Y1824I-21J-21D01*
G01*
X941Y1816D02*
G03*
X920Y1824I-21J-21D01*
G01*
X959Y1785D02*
G03*
X951Y1806I-29J0D01*
G01*
X871Y1766D02*
G03*
X859Y1729I20J-26D01*
G01*
X825Y1824D02*
G03*
X825Y1766I-15J-29D01*
G01*
X775Y1419D02*
G03*
X731Y1375I-30J-14D01*
G01*
X546Y1815D02*
G03*
X447Y1844I-54J0D01*
G01*
Y1786D02*
G03*
X546Y1815I45J29D01*
G01*
X448Y1567D02*
G03*
X546Y1597I44J30D01*
G01*
Y2033D02*
G03*
X546Y2033I-54J0D01*
G01*
Y1924D02*
G03*
X546Y1924I-54J0D01*
G01*
X351Y2054D02*
G03*
X446Y2088I41J34D01*
G01*
Y1979D02*
G03*
X446Y1979I-54J0D01*
G01*
X439Y1844D02*
G03*
X446Y1870I-47J26D01*
G01*
Y1761D02*
G03*
X439Y1786I-54J0D01*
G01*
X446Y1870D02*
G03*
X345Y1844I-54J0D01*
G01*
X345Y1786D02*
G03*
X446Y1761I47J-25D01*
G01*
X177Y2064D02*
G03*
X202Y2054I24J24D01*
G01*
X210Y2123D02*
G03*
X176Y2066I-10J-33D01*
G01*
X177Y2064D02*
G03*
X202Y2054I24J24D01*
G01*
X251Y1788D02*
G03*
X260Y1786I9J28D01*
G01*
X276Y1844D02*
G03*
X251Y1788I-21J-24D01*
G01*
G03*
X260Y1786I9J28D01*
G01*
X546Y1706D02*
G03*
X546Y1706I-54J0D01*
G01*
X436Y1622D02*
G03*
X446Y1652I-44J30D01*
G01*
X546Y1597D02*
G03*
X445Y1622I-54J0D01*
G01*
X446Y1652D02*
G03*
X348Y1622I-54J0D01*
G01*
X446Y1543D02*
G03*
X440Y1567I-54J0D01*
G01*
X344D02*
G03*
X345Y1519I48J-24D01*
G01*
X546Y1488D02*
G03*
X448Y1519I-54J0D01*
G01*
X440D02*
G03*
X446Y1543I-48J24D01*
G01*
X448Y1458D02*
G03*
X546Y1488I44J31D01*
G01*
X446Y1433D02*
G03*
X440Y1458I-54J0D01*
G01*
X345D02*
G03*
X345Y1408I48J-24D01*
G01*
X147Y1635D02*
G03*
X144Y1650I-32J0D01*
G01*
X145Y1622D02*
G03*
X147Y1635I-30J13D01*
G01*
X86Y1650D02*
G03*
X85Y1622I29J-15D01*
G01*
X52D02*
G03*
X39Y1627I-17J-27D01*
G01*
X130Y1519D02*
G03*
X120Y1458I-15J-29D01*
G01*
X39Y1563D02*
G03*
X52Y1567I-4J32D01*
G01*
X859Y1415D02*
G03*
X868Y1393I31J0D01*
G01*
X859Y1415D02*
G03*
X868Y1393I31J0D01*
G01*
X811Y1370D02*
G03*
X802Y1392I-31J0D01*
G01*
X811Y1370D02*
G03*
X802Y1392I-31J0D01*
G01*
X749Y1160D02*
G03*
X704Y1067I-30J-43D01*
G01*
G03*
X698Y969I16J-50D01*
G01*
X863Y503D02*
G03*
X885Y495I22J22D01*
G01*
X863Y503D02*
G03*
X885Y495I22J22D01*
G01*
X749Y630D02*
G03*
X758Y608I31J0D01*
G01*
X749Y630D02*
G03*
X758Y608I31J0D01*
G01*
X613Y740D02*
G03*
X609Y755I-32J0D01*
G01*
X551D02*
G03*
X613Y740I29J-15D01*
G01*
X623Y467D02*
G03*
X520Y483I-52J0D01*
G01*
X565Y415D02*
G03*
X623Y467I5J52D01*
G01*
X545Y348D02*
G03*
X567Y340I22J22D01*
G01*
X545Y348D02*
G03*
X567Y340I22J22D01*
G01*
X546Y1379D02*
G03*
X447Y1408I-54J0D01*
G01*
Y1350D02*
G03*
X546Y1379I45J29D01*
G01*
X439Y1408D02*
G03*
X446Y1433I-47J25D01*
G01*
Y1325D02*
G03*
X439Y1350I-54J0D01*
G01*
X345D02*
G03*
X446Y1325I47J-25D01*
G01*
X546Y1270D02*
G03*
X546Y1270I-54J0D01*
G01*
X446Y1216D02*
G03*
X349Y1247I-54J0D01*
G01*
X428Y1100D02*
G03*
X397Y1132I-32J0D01*
G01*
X384Y1069D02*
G03*
X428Y1100I11J31D01*
G01*
X393Y1132D02*
G03*
X384Y1130I2J-32D01*
G01*
X269Y1408D02*
G03*
X269Y1350I0J-29D01*
G01*
X70Y1247D02*
G03*
X39Y1226I0J-32D01*
G01*
X70Y1247D02*
G03*
X39Y1226I0J-32D01*
G01*
Y1204D02*
G03*
X70Y1183I31J11D01*
G01*
X39Y1204D02*
G03*
X70Y1183I31J11D01*
G01*
X187D02*
G03*
X196Y1130I23J-23D01*
G01*
X224D02*
G03*
X227Y1132I-14J30D01*
G01*
X118Y1078D02*
G03*
X140Y1069I22J22D01*
G01*
X118Y1078D02*
G03*
X140Y1069I22J22D01*
G01*
X145Y1139D02*
G03*
X101Y1095I-30J-14D01*
G01*
X551Y915D02*
G03*
X551Y858I-109J-28D01*
G01*
X520Y483D02*
G03*
X479Y415I-50J-16D01*
G01*
X522Y167D02*
G03*
X522Y167I-52J0D01*
G01*
X278Y394D02*
G03*
X278Y394I-82J0D01*
G01*
X211Y1161D02*
X492D01*
X210Y1160D02*
X211Y1161D01*
X1875Y3430D02*
X1900D01*
X220Y2390D02*
X245Y2365D01*
X260Y1815D02*
X492D01*
X255Y1820D02*
X260Y1815D01*
X1410Y1675D02*
X1810D01*
X1845Y1405D02*
X1900D01*
X1800Y1450D02*
X1845Y1405D01*
X797Y2387D02*
X1130D01*
X780Y1895D02*
X1015D01*
X790Y2380D02*
X797Y2387D01*
X1253Y997D02*
X1380D01*
X1230Y1670D02*
Y1680D01*
Y1725D02*
X1240D01*
X2257Y997D02*
X2260D01*
X1380Y1097D02*
X1427Y1050D01*
X2207D02*
X2260Y997D01*
X1223Y1097D02*
X1380D01*
X875Y1955D02*
X1150D01*
X1185Y3385D02*
X1280D01*
X115Y1635D02*
Y2220D01*
X2205Y3380D02*
X2250Y3425D01*
X265Y2420D02*
Y2915D01*
X269Y1379D02*
X492D01*
X391Y2305D02*
X392Y2306D01*
X115Y2305D02*
X391D01*
X3270Y1560D02*
X3345Y1635D01*
X3180Y2415D02*
X3255D01*
X3060Y2655D02*
Y2655D01*
X3035Y1660D02*
X3285D01*
X1144Y597D02*
X1380D01*
X835Y2100D02*
X1070D01*
X1090Y2080D02*
X1415D01*
X1380Y897D02*
X1548D01*
X1380Y797D02*
Y897D01*
X1080Y2030D02*
X1505D01*
X835Y2065D02*
X1045D01*
X2825Y2020D02*
X2980Y1865D01*
X3130D01*
X2530Y2185D02*
X2640Y2295D01*
X2530Y1345D02*
Y2185D01*
X2410Y1047D02*
Y1100D01*
X1670Y1097D02*
X1723Y1150D01*
X1525Y1427D02*
X1592Y1360D01*
X1110Y780D02*
X1115Y775D01*
X1415Y745D02*
X1425Y755D01*
X1112Y2305D02*
X1130Y2287D01*
X580Y740D02*
Y2275D01*
X1100Y2125D02*
X1340D01*
X810Y2135D02*
X1090D01*
X810Y1795D02*
X920D01*
X1128Y697D02*
X1380D01*
X3851Y3946D02*
X4094D01*
X3851Y3926D02*
X4094D01*
X3852Y3746D02*
X4094D01*
X4031Y3599D02*
Y4096D01*
X4011Y3599D02*
Y4096D01*
X3851Y3726D02*
X4094D01*
X3991Y3599D02*
Y4096D01*
X3938Y3599D02*
X4043D01*
Y3494D02*
Y3599D01*
X3971D02*
Y4096D01*
X3951Y3599D02*
Y4096D01*
X3990Y3547D02*
Y3593D01*
X3833Y3986D02*
X4094D01*
X3801Y4006D02*
X4094D01*
X3846Y3966D02*
X4094D01*
X3845Y3906D02*
X4094D01*
X3831Y3886D02*
X4094D01*
X3795Y3866D02*
X4094D01*
X3836Y3786D02*
X4094D01*
X3810Y3806D02*
X4094D01*
X3847Y3766D02*
X4094D01*
X3844Y3706D02*
X4094D01*
X3828Y3686D02*
X4094D01*
X3816Y3606D02*
X4094D01*
X4043Y3586D02*
X4094D01*
X4043Y3566D02*
X4094D01*
X4043Y3546D02*
X4094D01*
X4043Y3526D02*
X4094D01*
X4043Y3506D02*
X4094D01*
X4012Y3494D02*
X4043D01*
X4039Y3466D02*
X4094D01*
X4025Y3486D02*
X4094D01*
X4042Y3446D02*
X4094D01*
X4031Y3479D02*
Y3494D01*
X4038Y3426D02*
X4094D01*
X3990Y3547D02*
X4036D01*
X3838Y3586D02*
X3938D01*
X3944Y3547D02*
X3990D01*
X3852Y3546D02*
X3938D01*
X3848Y3566D02*
X3938D01*
X3850Y3526D02*
X3938D01*
X3951Y3483D02*
Y3494D01*
X3938D02*
X3968D01*
X3824Y3486D02*
X3955D01*
X3707Y3466D02*
X3941D01*
X3707Y3426D02*
X3942D01*
X3851Y3946D02*
Y4096D01*
X3831Y3988D02*
Y4096D01*
X3811Y4002D02*
Y4096D01*
X3791Y4009D02*
Y4096D01*
X3771Y4009D02*
Y4096D01*
X3751Y4004D02*
Y4096D01*
X3851Y3749D02*
Y3928D01*
X3780Y3937D02*
X3846D01*
X3831Y3791D02*
Y3886D01*
X3780Y3937D02*
Y4003D01*
Y3871D02*
Y3937D01*
X3811Y3805D02*
Y3872D01*
X3714Y3937D02*
X3780D01*
X3751Y3807D02*
Y3870D01*
X3731Y3991D02*
Y4096D01*
X3711Y3962D02*
Y4096D01*
X3731Y3794D02*
Y3883D01*
X3691Y3516D02*
Y4096D01*
X3671Y3536D02*
Y4096D01*
X3711Y3765D02*
Y3912D01*
X3651Y3556D02*
Y4096D01*
X3631Y3576D02*
Y4096D01*
X3611Y3596D02*
Y4096D01*
X3811Y3608D02*
Y3675D01*
X3791Y3812D02*
Y3866D01*
Y3615D02*
Y3669D01*
X3771Y3812D02*
Y3865D01*
X3751Y3610D02*
Y3673D01*
X3771Y3615D02*
Y3668D01*
X3938Y3494D02*
Y3599D01*
X3851Y3552D02*
Y3731D01*
X3842Y3506D02*
X3938D01*
X3831Y3594D02*
Y3690D01*
X3711Y3568D02*
Y3715D01*
X3731Y3598D02*
Y3686D01*
X3621Y3586D02*
X3721D01*
X3700Y3506D02*
X3717D01*
X3661Y3546D02*
X3707D01*
X3641Y3566D02*
X3711D01*
X3681Y3526D02*
X3709D01*
X3707Y3486D02*
X3735D01*
X3707Y3446D02*
X3938D01*
X4025Y3386D02*
X4094D01*
X4023Y3406D02*
X4094D01*
X4039Y3366D02*
X4094D01*
X4031Y3379D02*
Y3415D01*
X4011Y3395D02*
Y3399D01*
X4042Y3346D02*
X4094D01*
X4038Y3326D02*
X4094D01*
X4023Y3306D02*
X4094D01*
X4031Y3279D02*
Y3315D01*
X4011Y3295D02*
Y3299D01*
X4025Y3286D02*
X4094D01*
X3821Y3406D02*
X3957D01*
X3951Y3383D02*
Y3411D01*
X3840Y3386D02*
X3955D01*
X3840Y3306D02*
X3957D01*
X3951Y3283D02*
Y3311D01*
X3820Y3286D02*
X3955D01*
X4042Y3246D02*
X4094D01*
X4039Y3266D02*
X4094D01*
X4038Y3226D02*
X4094D01*
X4023Y3206D02*
X4094D01*
X4011Y3195D02*
Y3199D01*
X4025Y3186D02*
X4094D01*
X4042Y3146D02*
X4094D01*
X4039Y3166D02*
X4094D01*
X4038Y3126D02*
X4094D01*
X4031Y3179D02*
Y3215D01*
Y3079D02*
Y3115D01*
X4023Y3106D02*
X4094D01*
X3825Y3206D02*
X3957D01*
X3951Y3183D02*
Y3211D01*
X3842Y3186D02*
X3955D01*
X3838Y3106D02*
X3957D01*
X4011Y3095D02*
Y3099D01*
X3831Y3397D02*
Y3493D01*
X3811Y3412D02*
Y3478D01*
X3791Y3418D02*
Y3472D01*
X3751Y3413D02*
Y3476D01*
X3731Y3401D02*
Y3489D01*
X3771Y3419D02*
Y3471D01*
X3852Y3346D02*
X3938D01*
X3849Y3366D02*
X3941D01*
X3849Y3326D02*
X3942D01*
X3851Y3355D02*
Y3535D01*
Y3158D02*
Y3338D01*
X3831Y3200D02*
Y3296D01*
X3707Y3406D02*
X3738D01*
X3707Y3386D02*
X3719D01*
X3711Y3372D02*
Y3518D01*
X3707Y3355D02*
Y3480D01*
Y3306D02*
X3719D01*
X3711Y3175D02*
Y3321D01*
X3731Y3204D02*
Y3292D01*
X3612Y2270D02*
Y3460D01*
X3707Y3158D02*
Y3338D01*
X3850Y3166D02*
X3941D01*
X3811Y3215D02*
Y3281D01*
X3852Y3146D02*
X3938D01*
X3791Y3221D02*
Y3275D01*
X3751Y3216D02*
Y3280D01*
X3771Y3222D02*
Y3274D01*
X3851Y2962D02*
Y3141D01*
X3848Y3126D02*
X3942D01*
X3951Y3083D02*
Y3111D01*
X3831Y3003D02*
Y3099D01*
X3711Y2978D02*
Y3125D01*
X3731Y3007D02*
Y3095D01*
X3707Y3266D02*
X3941D01*
X3707Y3246D02*
X3938D01*
X3707Y3226D02*
X3942D01*
X3707Y3286D02*
X3739D01*
X3707Y3206D02*
X3734D01*
X3707Y3186D02*
X3717D01*
X3707Y3106D02*
X3722D01*
X3707Y2961D02*
Y3141D01*
Y3126D02*
X3711D01*
X3423Y3966D02*
X3713D01*
X3412Y3986D02*
X3726D01*
X3427Y3946D02*
X3708D01*
X3491Y3693D02*
Y4096D01*
X3411Y3986D02*
Y4096D01*
X3391Y4005D02*
Y4096D01*
X3551Y3656D02*
Y4096D01*
X3531Y3676D02*
Y4096D01*
X3511Y3690D02*
Y4096D01*
X3471Y3693D02*
Y4096D01*
X3451Y3693D02*
Y4096D01*
X3431Y3693D02*
Y4096D01*
X3016Y4086D02*
X4094D01*
X3006Y4096D02*
X4094D01*
X3036Y4066D02*
X4094D01*
X3351Y4018D02*
Y4096D01*
X3056Y4046D02*
X4094D01*
X3076Y4026D02*
X4094D01*
X3390Y4006D02*
X3758D01*
X3346Y3937D02*
X3422D01*
X3371Y4015D02*
Y4096D01*
X3006D02*
X3410Y3693D01*
X3346Y3937D02*
Y4012D01*
X3422Y3906D02*
X3714D01*
X3410Y3886D02*
X3728D01*
X3396Y3706D02*
X3716D01*
X3427Y3926D02*
X3708D01*
X3411Y3693D02*
Y3888D01*
X3391Y3711D02*
Y3869D01*
X3541Y3666D02*
X4094D01*
X3519Y3686D02*
X3731D01*
X3561Y3646D02*
X4094D01*
X3410Y3693D02*
X3495D01*
X3387Y3866D02*
X3764D01*
X3256Y3846D02*
X4094D01*
X3276Y3826D02*
X4094D01*
X3296Y3806D02*
X3749D01*
X3271Y3937D02*
X3346D01*
X3316Y3786D02*
X3723D01*
X3356Y3746D02*
X3707D01*
X3336Y3766D02*
X3712D01*
X3376Y3726D02*
X3708D01*
X3371Y3731D02*
Y3859D01*
X3351Y3751D02*
Y3856D01*
X3331Y4017D02*
Y4096D01*
X3311Y4011D02*
Y4096D01*
X3291Y3997D02*
Y4096D01*
X3271Y3969D02*
Y4096D01*
X3151Y3951D02*
Y4096D01*
X3136Y3966D02*
X3270D01*
X3251Y3851D02*
Y4096D01*
X3231Y3871D02*
Y4096D01*
X3156Y3946D02*
X3265D01*
X3211Y3891D02*
Y4096D01*
X3191Y3911D02*
Y4096D01*
X3171Y3931D02*
Y4096D01*
X3091Y4011D02*
Y4096D01*
X3071Y4031D02*
Y4096D01*
X3096Y4006D02*
X3303D01*
X3051Y4051D02*
Y4096D01*
X3031Y4071D02*
Y4096D01*
X3011Y4091D02*
Y4096D01*
X3131Y3971D02*
Y4096D01*
X3111Y3991D02*
Y4096D01*
X3116Y3986D02*
X3281D01*
X2765Y3966D02*
X3002D01*
X2751Y3986D02*
X2982D01*
X2769Y3946D02*
X3022D01*
X3216Y3886D02*
X3283D01*
X3196Y3906D02*
X3271D01*
X3236Y3866D02*
X3306D01*
X3176Y3926D02*
X3266D01*
X2769D02*
X3042D01*
X2767Y3866D02*
X3102D01*
X3346Y3862D02*
Y3937D01*
X3311Y3791D02*
Y3863D01*
X3331Y3771D02*
Y3857D01*
X3291Y3811D02*
Y3877D01*
X3271Y3831D02*
Y3905D01*
X2769Y3846D02*
X3122D01*
X2762Y3806D02*
X3162D01*
X2740Y3786D02*
X3182D01*
X2692Y3766D02*
X3202D01*
X2764Y3906D02*
X3062D01*
X2756Y3886D02*
X3082D01*
X2769Y3826D02*
X3142D01*
X2756Y3686D02*
X3282D01*
X2690Y3706D02*
X3262D01*
X2767Y3666D02*
X3302D01*
X2696Y3746D02*
X3222D01*
X2695Y3726D02*
X3242D01*
X3581Y3626D02*
X4094D01*
X3529Y3679D02*
X3694Y3514D01*
X3601Y3606D02*
X3743D01*
X3591Y3616D02*
Y4096D01*
X3571Y3636D02*
Y4096D01*
X3475Y3598D02*
X3612Y3460D01*
X3591Y2249D02*
Y3481D01*
X3571Y2229D02*
Y3501D01*
X3611Y2269D02*
Y3461D01*
X3531Y2189D02*
Y3541D01*
X3451Y3208D02*
Y3598D01*
X3551Y2209D02*
Y3521D01*
X2769Y3546D02*
X3527D01*
X2768Y3526D02*
X3547D01*
X2761Y3506D02*
X3567D01*
X3390Y3598D02*
X3475D01*
X2757Y3586D02*
X3487D01*
X2767Y3566D02*
X3507D01*
X2282Y3426D02*
X3612D01*
X2275Y3446D02*
X3612D01*
X2276Y3406D02*
X3612D01*
X3431Y3227D02*
Y3598D01*
X3411Y3232D02*
Y3598D01*
X2738Y3486D02*
X3587D01*
X3453Y3206D02*
X3612D01*
X3434Y3226D02*
X3612D01*
X3457Y3186D02*
X3612D01*
X3454Y3166D02*
X3612D01*
X3437Y3146D02*
X3612D01*
X3395Y3126D02*
X3612D01*
X3430Y3106D02*
X3612D01*
X3451Y3091D02*
Y3162D01*
X3431Y3106D02*
Y3143D01*
X3411Y3108D02*
Y3138D01*
X2252Y3386D02*
X3612D01*
X2232Y3366D02*
X3612D01*
X2152Y3346D02*
X3612D01*
X2173Y3306D02*
X3612D01*
X2169Y3326D02*
X3612D01*
X2167Y3286D02*
X3612D01*
X2159Y3266D02*
X3612D01*
X2159Y3246D02*
X3612D01*
X3364Y3096D02*
X3406Y3138D01*
X3375Y3106D02*
X3400D01*
X3191Y3030D02*
Y3776D01*
X3171Y3030D02*
Y3796D01*
X3211Y3040D02*
Y3756D01*
X3131Y3030D02*
Y3836D01*
X3111Y3030D02*
Y3856D01*
X3151Y3030D02*
Y3816D01*
X3071Y3030D02*
Y3896D01*
X3051Y3030D02*
Y3916D01*
X3091Y3030D02*
Y3876D01*
X3011Y3030D02*
Y3956D01*
X2991Y3030D02*
Y3976D01*
X3031Y3030D02*
Y3936D01*
X2935Y4032D02*
X3356Y3611D01*
X2851Y3075D02*
Y4032D01*
X2971Y3030D02*
Y3996D01*
X2831Y3088D02*
Y4032D01*
X2811Y3090D02*
Y4032D01*
X2791Y3085D02*
Y4032D01*
X2931Y3030D02*
Y4032D01*
X2911Y3030D02*
Y4032D01*
X2951Y3030D02*
Y4016D01*
X2891Y3030D02*
Y4032D01*
X2871Y3030D02*
Y4032D01*
X3391Y3229D02*
Y3598D01*
X3351Y3180D02*
Y3616D01*
X3331Y3160D02*
Y3636D01*
X3371Y3213D02*
Y3601D01*
X3391Y3102D02*
Y3123D01*
X3371Y3096D02*
Y3103D01*
X3364Y3096D02*
X3382D01*
X3291Y3120D02*
Y3676D01*
X3271Y3100D02*
Y3696D01*
X3311Y3140D02*
Y3656D01*
X2762Y3606D02*
X3363D01*
X2159Y3226D02*
X3386D01*
X2159Y3206D02*
X3367D01*
X2769Y3646D02*
X3322D01*
X2769Y3626D02*
X3342D01*
X2157Y3186D02*
X3357D01*
X3201Y3030D02*
X3363Y3192D01*
X2139Y3166D02*
X3337D01*
X2122Y3146D02*
X3317D01*
X3231Y3060D02*
Y3736D01*
X3251Y3080D02*
Y3716D01*
X4039Y3066D02*
X4094D01*
X4025Y3086D02*
X4094D01*
X4042Y3046D02*
X4094D01*
X4038Y3026D02*
X4094D01*
X4023Y3006D02*
X4094D01*
X4025Y2986D02*
X4094D01*
X4042Y2946D02*
X4094D01*
X4039Y2966D02*
X4094D01*
X4038Y2926D02*
X4094D01*
X4031Y2979D02*
Y3015D01*
Y2879D02*
Y2915D01*
X4023Y2906D02*
X4094D01*
X3829Y3006D02*
X3957D01*
X4011Y2995D02*
Y2999D01*
X3951Y2983D02*
Y3011D01*
X3815Y3086D02*
X3955D01*
X3844Y2986D02*
X3955D01*
X4011Y2895D02*
Y2899D01*
X3951Y2883D02*
Y2911D01*
X3835Y2906D02*
X3957D01*
X4039Y2866D02*
X4094D01*
X4025Y2886D02*
X4094D01*
X4042Y2846D02*
X4094D01*
X4038Y2826D02*
X4094D01*
X4023Y2806D02*
X4094D01*
X4011Y2795D02*
Y2799D01*
X4039Y2766D02*
X4094D01*
X4025Y2786D02*
X4094D01*
X4042Y2746D02*
X4094D01*
X4038Y2726D02*
X4094D01*
X4031Y2779D02*
Y2815D01*
X4023Y2706D02*
X4094D01*
X3832Y2806D02*
X3957D01*
X3808Y2886D02*
X3955D01*
X3845Y2786D02*
X3955D01*
X4011Y2695D02*
Y2699D01*
X3832Y2706D02*
X3957D01*
X3707Y3066D02*
X3941D01*
X3707Y3046D02*
X3938D01*
X3707Y3026D02*
X3942D01*
X3791Y3024D02*
Y3078D01*
X3707Y3086D02*
X3744D01*
X3771Y3025D02*
Y3078D01*
X3852Y2946D02*
X3938D01*
X3851Y2966D02*
X3941D01*
X3847Y2926D02*
X3942D01*
X3811Y3018D02*
Y3085D01*
X3751Y3020D02*
Y3083D01*
X3851Y2765D02*
Y2944D01*
X3462Y3066D02*
X3612D01*
X3455Y3086D02*
X3612D01*
X3460Y3046D02*
X3612D01*
X3447Y3026D02*
X3612D01*
X3370D02*
X3383D01*
X3370Y3027D02*
X3382D01*
X3707Y3006D02*
X3730D01*
X3707Y2986D02*
X3715D01*
X3707Y2764D02*
Y2944D01*
X3811Y2821D02*
Y2888D01*
X3791Y2827D02*
Y2881D01*
X3798Y2826D02*
X3942D01*
X3751Y2823D02*
Y2886D01*
X3731Y2810D02*
Y2898D01*
X3771Y2828D02*
Y2881D01*
X3951Y2783D02*
Y2811D01*
X3851Y2766D02*
X3941D01*
X3846Y2726D02*
X3942D01*
X3831Y2806D02*
Y2902D01*
X3711Y2781D02*
Y2928D01*
X3851Y2746D02*
X3938D01*
X3707Y2866D02*
X3941D01*
X3707Y2846D02*
X3938D01*
X3707Y2826D02*
X3762D01*
X3707Y2926D02*
X3712D01*
X3707Y2906D02*
X3724D01*
X3707Y2886D02*
X3751D01*
X3707Y2806D02*
X3727D01*
X3707Y2706D02*
X3727D01*
X3707Y2786D02*
X3714D01*
X3707Y2726D02*
X3713D01*
X4039Y2666D02*
X4094D01*
X4025Y2686D02*
X4094D01*
X4042Y2646D02*
X4094D01*
X4031Y2679D02*
Y2715D01*
X3951Y2683D02*
Y2711D01*
X4038Y2626D02*
X4094D01*
X4023Y2606D02*
X4094D01*
X3990Y2647D02*
X4036D01*
X3944D02*
X3990D01*
Y2601D02*
Y2647D01*
X3799Y2686D02*
X3955D01*
X3707Y2666D02*
X3941D01*
X3835Y2606D02*
X3957D01*
X3707Y2646D02*
X3938D01*
X3807Y2626D02*
X3942D01*
X3851Y2568D02*
Y2747D01*
X3847Y2586D02*
X4094D01*
X3852Y2566D02*
X4094D01*
X3851Y2371D02*
Y2550D01*
X3851Y2546D02*
X4094D01*
X3844Y2526D02*
X4094D01*
X3829Y2506D02*
X4094D01*
X3707Y2486D02*
X4094D01*
X3707Y2466D02*
X4094D01*
X3814Y2426D02*
X4094D01*
X3848Y2386D02*
X4094D01*
X3837Y2406D02*
X4094D01*
X3852Y2366D02*
X4094D01*
X3850Y2346D02*
X4094D01*
X3842Y2326D02*
X4094D01*
X3825Y2306D02*
X4094D01*
X3707Y2446D02*
X4094D01*
X3707Y2286D02*
X4094D01*
X3707Y2266D02*
X4094D01*
X3707Y2246D02*
X4094D01*
X3701Y2226D02*
X4094D01*
X3683Y2206D02*
X4094D01*
X3663Y2186D02*
X4094D01*
X3643Y2166D02*
X4094D01*
X3623Y2146D02*
X4094D01*
X3831Y2610D02*
Y2705D01*
X3811Y2624D02*
Y2691D01*
X3791Y2631D02*
Y2684D01*
X3751Y2626D02*
Y2689D01*
X3731Y2613D02*
Y2702D01*
X3771Y2631D02*
Y2684D01*
X3831Y2413D02*
Y2509D01*
X3811Y2427D02*
Y2494D01*
X3791Y2434D02*
Y2488D01*
X3731Y2417D02*
Y2505D01*
X3711Y2584D02*
Y2731D01*
X3751Y2429D02*
Y2492D01*
X3707Y2686D02*
X3760D01*
X3707Y2626D02*
X3752D01*
X3707Y2606D02*
X3724D01*
X3707Y2567D02*
Y2748D01*
Y2586D02*
X3712D01*
X3707Y2526D02*
X3715D01*
X3711Y2387D02*
Y2534D01*
X3707Y2370D02*
Y2551D01*
Y2506D02*
X3730D01*
X3451Y2148D02*
Y3031D01*
X3371Y2337D02*
Y3027D01*
X3771Y2434D02*
Y2487D01*
X3707Y2426D02*
X3745D01*
X3707Y2406D02*
X3722D01*
X3707Y2386D02*
X3711D01*
X3707Y2326D02*
X3717D01*
X3374D02*
X3612D01*
X3707Y2250D02*
Y2354D01*
Y2306D02*
X3734D01*
X3531Y2189D02*
X3612Y2270D01*
X3467Y2146D02*
X3518D01*
X3374Y2306D02*
X3612D01*
X3365Y2346D02*
X3612D01*
X3374Y2286D02*
X3612D01*
X3374Y2266D02*
X3609D01*
X3374Y2246D02*
X3589D01*
X3374Y2226D02*
X3569D01*
X3374Y2206D02*
X3549D01*
X3374Y2186D02*
X3529D01*
X3374Y2166D02*
X3519D01*
X3374Y2146D02*
X3440D01*
X3350Y3006D02*
X3612D01*
X3330Y2986D02*
X3612D01*
X3310Y2966D02*
X3612D01*
X3290Y2946D02*
X3612D01*
X3254Y2911D02*
X3370Y3027D01*
X3270Y2926D02*
X3612D01*
X3249Y2906D02*
X3612D01*
X3151Y2604D02*
Y2901D01*
X3131Y2625D02*
Y2901D01*
X3111Y2645D02*
Y2901D01*
X2859Y3066D02*
X3237D01*
X2835Y3086D02*
X3257D01*
X2920Y2886D02*
X3612D01*
X2872Y3030D02*
X3201D01*
X2867Y3046D02*
X3217D01*
X2934Y2901D02*
X3230D01*
X2900Y2866D02*
X3612D01*
X2880Y2846D02*
X3612D01*
X2866Y2826D02*
X3612D01*
X3091Y2665D02*
Y2901D01*
X2857Y2806D02*
X3612D01*
X2835Y2786D02*
X3612D01*
X3110Y2646D02*
X3612D01*
X3091Y2666D02*
X3612D01*
X3130Y2626D02*
X3612D01*
X3150Y2606D02*
X3612D01*
X3091Y2665D02*
X3151Y2606D01*
X3159Y2586D02*
X3612D01*
X3159Y2566D02*
X3612D01*
X3159Y2546D02*
X3612D01*
X3159Y2526D02*
X3612D01*
X3159Y2506D02*
X3612D01*
X2867Y2746D02*
X3612D01*
X2859Y2766D02*
X3612D01*
X2866Y2726D02*
X3612D01*
X3069Y2686D02*
X3612D01*
X2857Y2706D02*
X3612D01*
X3050Y2624D02*
X3101Y2573D01*
X2628Y2566D02*
X3101D01*
X2896Y2546D02*
X3101D01*
X2867Y2586D02*
X3088D01*
X2900Y2526D02*
X3101D01*
X2891Y2955D02*
Y2961D01*
X2867Y2931D02*
X2896Y2959D01*
X2867Y2946D02*
X2882D01*
X2867Y3034D02*
X2872Y3030D01*
X2871Y2935D02*
Y2961D01*
X3071Y2685D02*
Y2901D01*
X3051Y2686D02*
Y2901D01*
X3031Y2671D02*
Y2901D01*
X2867Y2833D02*
X2934Y2901D01*
X2891Y2552D02*
Y2858D01*
X2862Y2961D02*
X2897D01*
X2791Y2985D02*
Y2991D01*
X2788Y2986D02*
X2794D01*
X2815Y2938D02*
X2861D01*
X2769D02*
X2815D01*
X2732Y2886D02*
X2794D01*
X2867Y2686D02*
X3051D01*
X2867Y2666D02*
X3029D01*
X2867Y2646D02*
X3029D01*
X2851Y2775D02*
Y2800D01*
Y2690D02*
Y2700D01*
X2867Y2626D02*
X3045D01*
X2867Y2606D02*
X3068D01*
X2871Y2560D02*
Y2838D01*
X2867Y2585D02*
Y2690D01*
X2851Y2557D02*
Y2585D01*
X2837Y2690D02*
X2867D01*
X2815Y2738D02*
X2861D01*
X2628Y2786D02*
X2794D01*
X2769Y2738D02*
X2815D01*
X2831Y2557D02*
Y2585D01*
X2762D02*
X2867D01*
X2628Y2557D02*
X2857D01*
X2811D02*
Y2585D01*
X3291Y2420D02*
Y2948D01*
X3285Y2426D02*
X3612D01*
X3305Y2406D02*
X3612D01*
X3271Y2439D02*
Y2928D01*
X3325Y2386D02*
X3612D01*
X3276Y2436D02*
X3366Y2346D01*
X3345Y2366D02*
X3612D01*
X3351Y2360D02*
Y3008D01*
X3331Y2380D02*
Y2988D01*
X3311Y2400D02*
Y2968D01*
X3159Y2486D02*
X3612D01*
X3159Y2466D02*
X3612D01*
X3189Y2446D02*
X3612D01*
X3251Y2444D02*
Y2908D01*
X3171Y2446D02*
Y2901D01*
X3159Y2446D02*
X3171D01*
X3231Y2444D02*
Y2901D01*
X3195Y2444D02*
X3255D01*
X3243Y2351D02*
X3291Y2303D01*
X3211Y2444D02*
Y2901D01*
X3191Y2445D02*
Y2901D01*
X3251Y2307D02*
Y2342D01*
X3253Y2306D02*
X3288D01*
X3231Y2308D02*
Y2351D01*
X3211Y2305D02*
Y2351D01*
X3191Y2305D02*
Y2351D01*
X3278Y2266D02*
X3291D01*
X3275Y2286D02*
X3291D01*
X3270Y2246D02*
X3291D01*
X3271Y2292D02*
Y2322D01*
X3150Y2351D02*
X3243D01*
X2847Y2346D02*
X3248D01*
X2754Y2326D02*
X3268D01*
X2782Y2305D02*
X3223D01*
X2778Y2306D02*
X3227D01*
X2782Y2236D02*
X3223D01*
X2612Y2226D02*
X3291D01*
X2592Y2206D02*
X3291D01*
X2572Y2186D02*
X3291D01*
X2559Y2166D02*
X3291D01*
X2559Y2146D02*
X3291D01*
X3159Y2440D02*
Y2585D01*
X3091Y2305D02*
Y2582D01*
X3101Y2400D02*
Y2573D01*
X3051Y2305D02*
Y2622D01*
X3031Y2305D02*
Y2639D01*
X3071Y2305D02*
Y2602D01*
X3011Y2305D02*
Y2901D01*
X2991Y2305D02*
Y2901D01*
X2971Y2305D02*
Y2901D01*
X2951Y2305D02*
Y2901D01*
X2931Y2305D02*
Y2898D01*
X2911Y2305D02*
Y2878D01*
X2889Y2506D02*
X3101D01*
X2832Y2486D02*
X3101D01*
X2823Y2503D02*
X2857D01*
X2831Y2488D02*
Y2503D01*
X2891Y2305D02*
Y2508D01*
X2851Y2389D02*
Y2503D01*
X2871Y2305D02*
Y2500D01*
X2831Y2402D02*
Y2472D01*
X3109Y2379D02*
X3129Y2359D01*
X2857Y2366D02*
X3123D01*
X2853Y2386D02*
X3105D01*
X3171Y2305D02*
Y2351D01*
X3151Y2305D02*
Y2351D01*
X3131Y2305D02*
Y2358D01*
X3111Y2305D02*
Y2377D01*
X2851Y2305D02*
Y2351D01*
X2829Y2466D02*
X3101D01*
X2706Y2446D02*
X3101D01*
X2706Y2426D02*
X3101D01*
X2811Y2400D02*
Y2450D01*
X2690Y2406D02*
X3101D01*
X2465Y2398D02*
X2808D01*
X2831Y2305D02*
Y2338D01*
X2757Y2342D02*
X2808D01*
X2811Y2305D02*
Y2340D01*
X2751Y3986D02*
Y4032D01*
X2731Y3997D02*
Y4032D01*
X2717Y3937D02*
Y3992D01*
X2711Y3999D02*
Y4032D01*
X2691Y3993D02*
Y4032D01*
X2671Y3973D02*
Y4032D01*
X2769Y3928D02*
Y3946D01*
X2717Y3937D02*
X2763D01*
X2671Y3879D02*
Y3901D01*
X2769Y3833D02*
Y3852D01*
X2671Y3937D02*
X2717D01*
X2664Y3928D02*
Y3946D01*
X2611Y3837D02*
Y4032D01*
X2651Y3822D02*
Y4032D01*
X2631Y3832D02*
Y4032D01*
X2664Y3833D02*
Y3852D01*
X2591Y3837D02*
Y4032D01*
X2571Y3834D02*
Y4032D01*
X2551Y3826D02*
Y4032D01*
X2717Y3843D02*
X2763D01*
X2671D02*
X2717D01*
Y3787D02*
Y3843D01*
X2691Y3769D02*
Y3787D01*
X2684Y3786D02*
X2693D01*
X2751Y3690D02*
Y3794D01*
X2731Y3701D02*
Y3783D01*
X2711Y3703D02*
Y3781D01*
X2691Y3697D02*
Y3711D01*
X2644Y3826D02*
X2665D01*
X2343Y3846D02*
X2664D01*
X2598Y3740D02*
X2689D01*
X2598D02*
Y3831D01*
X2371Y3826D02*
X2552D01*
X2507Y3740D02*
X2598D01*
X2662Y3666D02*
X2666D01*
X2624Y3646D02*
X2664D01*
X2598Y3649D02*
Y3740D01*
X2310Y3646D02*
X2573D01*
X2531Y3811D02*
Y4032D01*
X2371Y3825D02*
Y4032D01*
X2351Y3843D02*
Y4032D01*
X2331Y3848D02*
Y4032D01*
X2311Y3846D02*
Y4032D01*
X2291Y3835D02*
Y4032D01*
X2511Y3784D02*
Y4032D01*
X2380Y3806D02*
X2527D01*
X2380Y3786D02*
X2512D01*
X2271Y3800D02*
Y4032D01*
X2271Y3806D02*
X2275D01*
X2251Y3837D02*
Y4032D01*
X2234Y3846D02*
X2311D01*
X2262Y3826D02*
X2284D01*
X2231Y3847D02*
Y4032D01*
X2211Y3848D02*
Y4032D01*
X2191Y3841D02*
Y4032D01*
X2153Y3826D02*
X2175D01*
X2271Y3739D02*
Y3790D01*
X2171Y3821D02*
Y4032D01*
X2151Y3828D02*
Y4032D01*
X2162Y3806D02*
X2166D01*
X2372Y3766D02*
X2504D01*
X2349Y3746D02*
X2501D01*
X2240D02*
X2306D01*
X2271Y3786D02*
X2275D01*
X2263Y3766D02*
X2282D01*
X2291Y3735D02*
Y3755D01*
X2327Y3686D02*
X2517D01*
X2322Y3706D02*
X2507D01*
X2323Y3666D02*
X2535D01*
X2311Y3723D02*
Y3744D01*
X2251Y3734D02*
Y3753D01*
X2308Y3726D02*
X2502D01*
X2191Y3731D02*
Y3749D01*
X2154Y3766D02*
X2173D01*
X2199Y3726D02*
X2239D01*
X2171Y3738D02*
Y3769D01*
X2162Y3786D02*
X2166D01*
X2151Y3737D02*
Y3762D01*
X2231Y3719D02*
Y3743D01*
X2213Y3706D02*
X2224D01*
X2201Y3646D02*
X2237D01*
X2211Y3710D02*
Y3742D01*
X2214Y3666D02*
X2223D01*
X2769Y3632D02*
Y3651D01*
X2717Y3642D02*
X2763D01*
X2717D02*
Y3697D01*
X2664Y3632D02*
Y3651D01*
X2671Y3642D02*
X2717D01*
X2771Y3067D02*
Y4032D01*
X2769Y3534D02*
Y3553D01*
X2671Y3580D02*
Y3605D01*
X2651Y3033D02*
Y3658D01*
X2631Y3033D02*
Y3648D01*
X2611Y3033D02*
Y3644D01*
X2571Y3032D02*
Y3646D01*
X2591Y3037D02*
Y3643D01*
X2531Y2938D02*
Y3669D01*
X2511Y2938D02*
Y3696D01*
X2551Y2938D02*
Y3655D01*
X2491Y2938D02*
Y4032D01*
X2471Y2938D02*
Y4032D01*
X2451Y2938D02*
Y4032D01*
X2717Y3543D02*
X2763D01*
X2705Y3026D02*
X2764D01*
X2712Y3006D02*
X2773D01*
X2717Y3488D02*
Y3543D01*
X2691Y3035D02*
Y3488D01*
X2711Y3013D02*
Y3482D01*
X2771Y3000D02*
Y3008D01*
X2751Y3001D02*
Y3495D01*
X2731Y2997D02*
Y3484D01*
X2712Y2997D02*
X2743D01*
X2671Y3543D02*
X2717D01*
X2671Y3036D02*
Y3507D01*
X2664Y3534D02*
Y3553D01*
X2607Y3033D02*
X2663D01*
X2290Y3026D02*
X2565D01*
X2297Y3006D02*
X2558D01*
X2291Y2986D02*
X2562D01*
X2431Y2938D02*
Y4032D01*
X2291Y3024D02*
Y3635D01*
X2271Y3449D02*
Y3632D01*
X2251Y3457D02*
Y3636D01*
X2271Y3037D02*
Y3401D01*
X2411Y2938D02*
Y4032D01*
X2391Y2938D02*
Y4032D01*
X2371Y2938D02*
Y3765D01*
X2351Y2938D02*
Y3747D01*
X2331Y2938D02*
Y3742D01*
X2311Y2938D02*
Y3648D01*
X2231Y3452D02*
Y3652D01*
X2211Y3428D02*
Y3660D01*
X2191Y3409D02*
Y3639D01*
X2193Y3409D02*
X2219Y3435D01*
X2251Y3035D02*
Y3385D01*
X2226Y3359D02*
X2260Y3394D01*
X2231Y3033D02*
Y3365D01*
X2151Y3409D02*
Y3633D01*
X2171Y3409D02*
Y3632D01*
X2211Y3033D02*
Y3352D01*
X2191Y3033D02*
Y3351D01*
X2291Y2938D02*
Y2986D01*
X2251Y2938D02*
Y2975D01*
X2271Y2938D02*
Y2973D01*
X2231Y2938D02*
Y2977D01*
X2211Y2938D02*
Y2977D01*
X2191Y2938D02*
Y2977D01*
X2171Y3318D02*
Y3351D01*
X2142D02*
X2205D01*
X2159Y3198D02*
Y3275D01*
X2151Y3346D02*
Y3351D01*
X2171Y3033D02*
Y3298D01*
Y2938D02*
Y2977D01*
X2151Y3033D02*
Y3178D01*
Y2938D02*
Y2977D01*
X2131Y3844D02*
Y4032D01*
X2111Y3849D02*
Y4032D01*
X2125Y3846D02*
X2202D01*
X2091Y3846D02*
Y4032D01*
X2071Y3833D02*
Y4032D01*
X2044Y3826D02*
X2066D01*
X2053Y3806D02*
X2057D01*
X2071Y3736D02*
Y3757D01*
X2053Y3786D02*
X2057D01*
X2051Y3811D02*
Y4032D01*
Y3739D02*
Y3780D01*
X2031Y3839D02*
Y4032D01*
X2011Y3847D02*
Y4032D01*
X2016Y3846D02*
X2093D01*
X1991Y3848D02*
Y4032D01*
X1971Y3840D02*
Y4032D01*
X1907Y3846D02*
X1984D01*
X1935Y3826D02*
X1957D01*
X2045Y3766D02*
X2064D01*
X1951Y3817D02*
Y4032D01*
Y3738D02*
Y3773D01*
X1936Y3766D02*
X1955D01*
X2131Y3727D02*
Y3746D01*
X2131Y3746D02*
X2197D01*
X2090Y3726D02*
X2130D01*
X2091Y3725D02*
Y3745D01*
X2031Y3733D02*
Y3752D01*
X2022Y3746D02*
X2088D01*
X2104Y3706D02*
X2115D01*
X2092Y3646D02*
X2128D01*
X2111Y3694D02*
Y3742D01*
X2011Y3716D02*
Y3743D01*
X2105Y3666D02*
X2114D01*
X1995Y3706D02*
X2006D01*
X1981Y3726D02*
X2021D01*
X1996Y3666D02*
X2005D01*
X1971Y3732D02*
Y3750D01*
X1913Y3746D02*
X1979D01*
X1991Y3714D02*
Y3742D01*
X1928Y3446D02*
X2225D01*
X1932Y3426D02*
X2210D01*
X1983Y3646D02*
X2019D01*
X1931Y3830D02*
Y4032D01*
X1911Y3845D02*
Y4032D01*
X1944Y3806D02*
X1948D01*
X1891Y3849D02*
Y4032D01*
X1871Y3845D02*
Y4032D01*
X1851Y3831D02*
Y4032D01*
X1944Y3786D02*
X1948D01*
X1931Y3737D02*
Y3760D01*
X1851Y3737D02*
Y3759D01*
X1835Y3806D02*
X1839D01*
X1911Y3726D02*
Y3746D01*
X1811Y3840D02*
Y4032D01*
X1798Y3846D02*
X1875D01*
X1826Y3826D02*
X1848D01*
X1791Y3848D02*
Y4032D01*
X1771Y3848D02*
Y4032D01*
X1751Y3839D02*
Y4032D01*
X1835Y3786D02*
X1839D01*
X1831Y3816D02*
Y4032D01*
X1827Y3766D02*
X1846D01*
X1831Y3738D02*
Y3774D01*
X1811Y3732D02*
Y3750D01*
X1751Y3733D02*
Y3751D01*
X1874Y3646D02*
X1910D01*
X1872Y3726D02*
X1912D01*
X1911Y3460D02*
Y3644D01*
X1886Y3706D02*
X1897D01*
X1871Y3726D02*
Y3745D01*
X1887Y3666D02*
X1896D01*
X1931Y3438D02*
Y3634D01*
X1891Y3461D02*
Y3742D01*
X1875Y3459D02*
X1885D01*
X1871Y3459D02*
Y3644D01*
X1804Y3746D02*
X1870D01*
X1791Y3713D02*
Y3742D01*
X1763Y3726D02*
X1803D01*
X1777Y3706D02*
X1788D01*
X1771Y3717D02*
Y3743D01*
X1778Y3666D02*
X1787D01*
X1851Y3448D02*
Y3634D01*
X1765Y3646D02*
X1801D01*
X1831Y3428D02*
Y3632D01*
X2111Y3409D02*
Y3676D01*
X2091Y3409D02*
Y3646D01*
X2131Y3409D02*
Y3643D01*
X2071Y3409D02*
Y3634D01*
X2031Y3409D02*
Y3637D01*
X2051Y3409D02*
Y3632D01*
X2091Y3338D02*
Y3351D01*
X2071Y3201D02*
Y3351D01*
X2051Y3032D02*
Y3351D01*
X2091Y3211D02*
Y3278D01*
X1950Y3351D02*
X2111D01*
X1925Y3409D02*
X2193D01*
X1960Y3346D02*
X2101D01*
X2011Y3409D02*
Y3654D01*
X1991Y3409D02*
Y3657D01*
X1977Y3326D02*
X2084D01*
X2031Y2938D02*
Y3351D01*
X1980Y3306D02*
X2080D01*
X1975Y3286D02*
X2086D01*
X2011Y2936D02*
Y3351D01*
X1991Y2920D02*
Y3351D01*
X2131Y3033D02*
Y3160D01*
X2127Y3156D02*
X2148Y3174D01*
X2111Y3033D02*
Y3135D01*
X2094Y3213D02*
Y3275D01*
X2084Y3205D02*
X2094Y3213D01*
X2071Y3037D02*
Y3133D01*
X2087Y3033D02*
X2248D01*
X2087Y2977D02*
X2248D01*
X2131Y2938D02*
Y2977D01*
X2111Y2938D02*
Y2977D01*
X2091Y3033D02*
Y3128D01*
Y2938D02*
Y2977D01*
X1955Y3266D02*
X2094D01*
X1952Y3246D02*
X2094D01*
X1952Y3226D02*
X2094D01*
X1952Y3206D02*
X2086D01*
X1953Y3186D02*
X2057D01*
X1958Y3166D02*
X2052D01*
X2071Y2938D02*
Y2973D01*
X1952Y3146D02*
X2058D01*
X2051Y2938D02*
Y2978D01*
X1971Y3409D02*
Y3638D01*
X1951Y3409D02*
Y3632D01*
X1971Y3335D02*
Y3351D01*
X1931Y3409D02*
Y3422D01*
X1877Y3306D02*
X1888D01*
X1871Y2703D02*
Y3300D01*
X1887Y3293D02*
X1887Y3187D01*
X1811Y3408D02*
Y3638D01*
X1748Y3344D02*
X1854Y3451D01*
X1781Y3294D02*
X1886Y3400D01*
X1791Y3388D02*
Y3657D01*
X1771Y3368D02*
Y3654D01*
X1751Y3348D02*
Y3637D01*
X1786Y3214D02*
X1890Y3319D01*
X1753Y3264D02*
X1889Y3400D01*
X1771Y3283D02*
Y3288D01*
X1971Y2899D02*
Y3280D01*
X1857Y3286D02*
X1887D01*
X1837Y3266D02*
X1887D01*
X1952Y3265D02*
X1952Y3187D01*
X1951Y2703D02*
Y3145D01*
X1931Y2703D02*
Y3130D01*
X1911Y2703D02*
Y3129D01*
X1851Y2703D02*
Y3280D01*
X1831Y2703D02*
Y3260D01*
X1891Y2703D02*
Y3141D01*
X1817Y3246D02*
X1887D01*
X1797Y3226D02*
X1887D01*
X1768Y3206D02*
X1887D01*
X1763Y3286D02*
X1775D01*
X1751Y3264D02*
Y3286D01*
X1811Y2703D02*
Y3240D01*
X1791Y2703D02*
Y3220D01*
X1771Y2703D02*
Y3207D01*
X1751Y2702D02*
Y3206D01*
X2731Y2934D02*
Y2943D01*
X2710D02*
X2743D01*
X2738Y2926D02*
X2764D01*
X2691Y2938D02*
Y2943D01*
X2671Y2938D02*
Y2943D01*
X2771Y2867D02*
Y2908D01*
X2742Y2906D02*
X2773D01*
X2791Y2885D02*
Y2891D01*
X2771Y2767D02*
Y2808D01*
X2607Y2943D02*
X2710D01*
X2590Y2938D02*
X2693D01*
X2628Y2866D02*
X2771D01*
X2651Y2938D02*
Y2943D01*
X2631Y2938D02*
Y2943D01*
X2628Y2882D02*
X2693D01*
X2628Y2847D02*
Y2882D01*
Y2846D02*
X2763D01*
X2628Y2826D02*
X2764D01*
X2628Y2822D02*
Y2847D01*
Y2822D02*
Y2847D01*
Y2788D02*
Y2822D01*
X2791Y2785D02*
Y2791D01*
X2628Y2806D02*
X2773D01*
X2628Y2766D02*
X2771D01*
X2628Y2762D02*
Y2788D01*
Y2762D02*
Y2788D01*
Y2746D02*
X2763D01*
X2771Y2690D02*
Y2708D01*
X2762Y2690D02*
X2793D01*
X2762Y2585D02*
Y2690D01*
X2628Y2729D02*
Y2762D01*
Y2703D02*
Y2729D01*
Y2703D02*
Y2729D01*
Y2726D02*
X2764D01*
X2628Y2706D02*
X2773D01*
X2628Y2686D02*
X2762D01*
X2628Y2670D02*
Y2703D01*
Y2666D02*
X2762D01*
X2628Y2646D02*
X2762D01*
X2628Y2626D02*
X2762D01*
X2628Y2606D02*
X2762D01*
X2628Y2586D02*
X2762D01*
X2628Y2644D02*
Y2670D01*
Y2644D02*
Y2670D01*
X2611Y2938D02*
Y2943D01*
X2571Y2938D02*
Y2943D01*
X2533Y2847D02*
Y2882D01*
Y2822D02*
Y2847D01*
Y2822D02*
Y2847D01*
Y2788D02*
Y2822D01*
Y2762D02*
Y2788D01*
X2580Y2746D02*
X2621D01*
X2533Y2762D02*
Y2788D01*
X2511Y2597D02*
Y2882D01*
X2533Y2729D02*
Y2762D01*
X2431Y2667D02*
Y2882D01*
X2411Y2668D02*
Y2882D01*
X2312Y2766D02*
X2533D01*
X2391Y2668D02*
Y2882D01*
X2311Y2767D02*
Y2882D01*
X2318Y2687D02*
Y2750D01*
X2491Y2617D02*
Y2882D01*
X2471Y2637D02*
Y2882D01*
X2451Y2657D02*
Y2882D01*
X2371Y2668D02*
Y2882D01*
X2351Y2668D02*
Y2882D01*
X2331Y2668D02*
Y2882D01*
X2539Y2746D02*
X2580D01*
X2533Y2703D02*
Y2729D01*
Y2703D02*
Y2729D01*
Y2670D02*
Y2703D01*
Y2644D02*
Y2670D01*
Y2644D02*
Y2670D01*
X2628Y2611D02*
Y2644D01*
Y2585D02*
Y2611D01*
Y2585D02*
Y2611D01*
X2533D02*
Y2644D01*
Y2585D02*
Y2611D01*
X2503Y2606D02*
X2533D01*
X2318Y2746D02*
X2533D01*
X2318Y2726D02*
X2533D01*
X2318Y2706D02*
X2533D01*
X2318Y2686D02*
X2533D01*
X2439Y2666D02*
X2533D01*
X2463Y2646D02*
X2533D01*
X2483Y2626D02*
X2533D01*
X2322Y2668D02*
X2430D01*
X2791Y2557D02*
Y2585D01*
X2771Y2557D02*
Y2585D01*
X2702Y2453D02*
X2783D01*
X2751Y2557D02*
Y2939D01*
X2731Y2557D02*
Y2886D01*
X2711Y2557D02*
Y2878D01*
X2771Y2398D02*
Y2453D01*
X2751Y2398D02*
Y2453D01*
X2791Y2398D02*
Y2449D01*
X2731Y2398D02*
Y2453D01*
X2711Y2398D02*
Y2453D01*
X2691Y2557D02*
Y2882D01*
X2671Y2557D02*
Y2882D01*
X2555Y2408D02*
X2658D01*
X2651Y2557D02*
Y2882D01*
X2631Y2557D02*
Y2882D01*
X2628Y2557D02*
Y2585D01*
X2691Y2398D02*
Y2407D01*
X2651Y2398D02*
Y2408D01*
X2631Y2398D02*
Y2408D01*
X2771Y2308D02*
Y2342D01*
X2751Y2306D02*
Y2321D01*
X2671Y2398D02*
Y2403D01*
X2667Y2312D02*
X2708D01*
X2671Y2306D02*
X2752D01*
X2791Y2305D02*
Y2342D01*
X2731Y2289D02*
Y2308D01*
X2671Y2303D02*
Y2312D01*
X2671Y2286D02*
X2730D01*
X2611Y2398D02*
Y2408D01*
X2591Y2398D02*
Y2408D01*
X2472Y2406D02*
X2660D01*
X2571Y2398D02*
Y2408D01*
X2551Y2398D02*
Y2408D01*
X2655Y2266D02*
X2727D01*
X2632Y2246D02*
X2735D01*
X2434Y2168D02*
X2567Y2301D01*
X2559Y2173D02*
X2650Y2264D01*
X2531Y2577D02*
Y2882D01*
X2533Y2585D02*
Y2611D01*
X2523Y2586D02*
X2533D01*
Y2576D02*
Y2585D01*
X2478Y2473D02*
X2500Y2451D01*
X2478Y2466D02*
X2485D01*
X2511Y2398D02*
Y2440D01*
X2500Y2451D02*
X2536Y2416D01*
X2478Y2426D02*
X2525D01*
X2491Y2398D02*
Y2460D01*
X2478Y2427D02*
Y2470D01*
Y2446D02*
X2505D01*
X2449Y2659D02*
X2533Y2576D01*
X2401Y2427D02*
Y2454D01*
X2359Y2497D02*
X2401Y2454D01*
X2391Y2362D02*
Y2464D01*
X2371Y2362D02*
Y2484D01*
X2351Y2362D02*
Y2497D01*
X2331Y2362D02*
Y2497D01*
X2551Y2285D02*
Y2342D01*
X2461D02*
X2553D01*
X2445Y2326D02*
X2552D01*
X2531Y2398D02*
Y2420D01*
X2471Y2398D02*
Y2405D01*
X2434Y2316D02*
X2461Y2342D01*
X2531Y2265D02*
Y2342D01*
X2511Y2245D02*
Y2342D01*
X2490Y2146D02*
X2501D01*
X2491Y2225D02*
Y2342D01*
X2471Y2205D02*
Y2342D01*
X2451Y2185D02*
Y2333D01*
X2404Y2362D02*
X2431Y2389D01*
X2431Y2168D02*
Y2313D01*
X2411Y2370D02*
Y2401D01*
X2351Y2171D02*
Y2307D01*
X2411Y2168D02*
Y2307D01*
X2391Y2168D02*
Y2307D01*
X2377Y2168D02*
X2434D01*
X2371Y2170D02*
Y2307D01*
X2331Y2156D02*
Y2307D01*
X2273Y2806D02*
X2533D01*
X2253Y2826D02*
X2533D01*
X2293Y2786D02*
X2533D01*
X2291Y2787D02*
Y2882D01*
X2271Y2807D02*
Y2882D01*
X2262Y2497D02*
X2359D01*
X2261Y2486D02*
X2369D01*
X2257Y2466D02*
X2389D01*
X2257Y2440D02*
Y2478D01*
X2196Y2882D02*
X2533D01*
X2020Y2938D02*
X2590D01*
X2213Y2866D02*
X2533D01*
X2231Y2847D02*
Y2882D01*
X2211Y2867D02*
Y2882D01*
X2233Y2846D02*
X2533D01*
X2251Y2827D02*
Y2882D01*
X2196D02*
X2309Y2769D01*
X2071Y2795D02*
Y2815D01*
X2038Y2848D02*
X2089Y2797D01*
X2203Y2451D02*
Y2468D01*
X2184Y2456D02*
X2192Y2463D01*
X2257Y2446D02*
X2401D01*
X2191Y2440D02*
Y2463D01*
X2254Y2426D02*
X2402D01*
X2235Y2406D02*
X2408D01*
X2215Y2386D02*
X2427D01*
X2171Y2420D02*
Y2448D01*
X1988Y2446D02*
X2197D01*
X1988Y2447D02*
X2165D01*
X1988Y2426D02*
X2177D01*
X2151Y2400D02*
Y2447D01*
X2091Y2392D02*
Y2447D01*
X1988Y2406D02*
X2157D01*
X2141Y2389D02*
X2203Y2451D01*
X2111Y2388D02*
Y2447D01*
X2114Y2386D02*
X2138D01*
X2071Y2382D02*
Y2447D01*
X1988Y2386D02*
X2076D01*
X2010Y2846D02*
X2040D01*
X2057Y2726D02*
Y2748D01*
X1976Y2904D02*
X2001Y2929D01*
X2051Y2720D02*
Y2835D01*
X2031Y2703D02*
Y2849D01*
X2034Y2703D02*
X2057Y2726D01*
X2011Y2703D02*
Y2847D01*
X1971Y2703D02*
Y2853D01*
X1991Y2703D02*
Y2843D01*
X1755Y2703D02*
X2034D01*
X1872Y2550D02*
Y2582D01*
X1871Y2550D02*
Y2582D01*
X1851Y2550D02*
Y2582D01*
X1831Y2550D02*
Y2582D01*
X1811Y2546D02*
Y2582D01*
X1930Y2424D02*
X1981D01*
X1838Y2550D02*
X1872D01*
X1878Y2424D02*
X1930D01*
X1811Y2546D02*
Y2555D01*
X2051Y2378D02*
Y2447D01*
X2031Y2378D02*
Y2447D01*
X1988Y2378D02*
X2068D01*
X2011D02*
Y2447D01*
X1991Y2378D02*
Y2447D01*
X1988Y2378D02*
Y2447D01*
X1811Y2546D02*
X1821D01*
X1811Y2446D02*
X1872D01*
X1811Y2447D02*
X1872D01*
X1791Y2555D02*
Y2582D01*
X1771Y2555D02*
Y2582D01*
X1751Y2555D02*
Y2582D01*
X1811Y2399D02*
Y2447D01*
Y2426D02*
X1872D01*
X1811Y2406D02*
X1872D01*
X1760Y2439D02*
X1805D01*
X1760Y2405D02*
Y2439D01*
X2311Y2362D02*
Y2497D01*
X2291Y2362D02*
Y2497D01*
X2234Y2366D02*
X2407D01*
X2271Y2362D02*
Y2497D01*
X2231Y2367D02*
Y2403D01*
X2211Y2365D02*
Y2383D01*
X2242Y2362D02*
X2404D01*
X2240Y2306D02*
X2561D01*
X2242Y2307D02*
X2415D01*
X2271Y2249D02*
Y2307D01*
X2251Y2362D02*
Y2423D01*
Y2262D02*
Y2307D01*
X2195Y2366D02*
X2216D01*
X2188Y2359D02*
X2249Y2421D01*
X2188Y2346D02*
X2194D01*
X2188Y2335D02*
Y2359D01*
X2186Y2326D02*
X2194D01*
X2170Y2306D02*
X2210D01*
X2154Y2291D02*
X2179Y2316D01*
X2273Y2246D02*
X2512D01*
X2277Y2226D02*
X2492D01*
X2231Y2260D02*
Y2303D01*
X2211Y2235D02*
Y2305D01*
X2201Y2224D02*
X2213Y2237D01*
X2267Y2206D02*
X2472D01*
X2247Y2186D02*
X2452D01*
X2247Y2166D02*
X2341D01*
X2247Y2194D02*
X2252Y2198D01*
X2149Y2286D02*
X2552D01*
X2076Y2266D02*
X2532D01*
X2076Y2246D02*
X2217D01*
X2091Y2283D02*
X2135D01*
X2076Y2226D02*
X2202D01*
X2073Y2206D02*
X2193D01*
X2055Y2186D02*
X2193D01*
X1960Y2166D02*
X2193D01*
X2131Y2345D02*
Y2447D01*
X2132Y2346D02*
Y2370D01*
X2127Y2366D02*
X2132D01*
X1930Y2376D02*
Y2424D01*
X1931Y2360D02*
Y2370D01*
X2124Y2346D02*
X2132D01*
X2124Y2338D02*
X2132Y2346D01*
X1911Y2340D02*
Y2370D01*
X1909Y2338D02*
X1941Y2369D01*
X1891Y2338D02*
Y2370D01*
X1872D02*
X1941D01*
X1744Y2366D02*
X1937D01*
X1757Y2346D02*
X1917D01*
X1872Y2370D02*
Y2447D01*
X1871Y2338D02*
Y2447D01*
X1751Y2359D02*
Y2399D01*
X1851Y2338D02*
Y2447D01*
X1831Y2338D02*
Y2447D01*
X1811Y2338D02*
Y2447D01*
X1791Y2338D02*
Y2399D01*
X1771Y2338D02*
Y2399D01*
X2118Y2338D02*
X2124D01*
X2076Y2268D02*
X2091Y2283D01*
X2076Y2219D02*
Y2268D01*
X2054Y2186D02*
X2068Y2199D01*
X1951Y2173D02*
Y2178D01*
X1911Y2168D02*
Y2178D01*
X1891Y2149D02*
Y2178D01*
X1896Y2149D02*
X1902Y2156D01*
X1757Y2338D02*
X1909D01*
X1887Y2178D02*
X2035D01*
X1851Y2149D02*
Y2178D01*
X1751Y2153D02*
Y2207D01*
X1871Y2149D02*
Y2173D01*
X1831Y2149D02*
Y2207D01*
X1811Y2149D02*
Y2207D01*
X1762Y2149D02*
X1896D01*
X1791D02*
Y2207D01*
X1771Y2149D02*
Y2207D01*
X3850Y2066D02*
X4094D01*
X3841Y2086D02*
X4094D01*
X3852Y2046D02*
X4094D01*
X3851Y2056D02*
Y2353D01*
X3849Y2026D02*
X4094D01*
X3839Y2006D02*
X4094D01*
X4031Y1709D02*
Y2615D01*
X4011Y1709D02*
Y2599D01*
X3991Y1709D02*
Y2594D01*
X3971Y1709D02*
Y2598D01*
X3951Y1709D02*
Y2611D01*
X3851Y1859D02*
Y2038D01*
X3822Y2106D02*
X4094D01*
X3603Y2126D02*
X4094D01*
X3819Y1986D02*
X4094D01*
X3831Y2098D02*
Y2312D01*
X3811Y2112D02*
Y2297D01*
X3780Y2047D02*
X3846D01*
X3450Y1966D02*
X4094D01*
X3450Y1946D02*
X4094D01*
X3450Y1926D02*
X4094D01*
X3831Y1901D02*
Y1997D01*
X3811Y1915D02*
Y1982D01*
X3852Y1846D02*
X4094D01*
X3850Y1866D02*
X4094D01*
X3848Y1826D02*
X4094D01*
X4043Y1706D02*
X4094D01*
X3938Y1709D02*
X4043D01*
Y1686D02*
X4094D01*
X4043Y1666D02*
X4094D01*
X3990Y1657D02*
Y1703D01*
Y1657D02*
X4036D01*
X3851Y1662D02*
Y1842D01*
X3851Y1666D02*
X3938D01*
X3944Y1657D02*
X3990D01*
X3843Y1886D02*
X4094D01*
X3826Y1906D02*
X4094D01*
X3837Y1806D02*
X4094D01*
X3813Y1786D02*
X4094D01*
X3450Y1766D02*
X4094D01*
X3450Y1746D02*
X4094D01*
X3450Y1726D02*
X4094D01*
X3829Y1706D02*
X3938D01*
X3831Y1704D02*
Y1800D01*
X3844Y1686D02*
X3938D01*
X3791Y2119D02*
Y2291D01*
X3751Y2114D02*
Y2295D01*
X3771Y2119D02*
Y2290D01*
X3599Y2121D02*
X3694Y2216D01*
X3780Y2047D02*
Y2113D01*
X3714Y2047D02*
X3780D01*
Y1981D02*
Y2047D01*
X3731Y2102D02*
Y2308D01*
X3711Y2072D02*
Y2337D01*
Y1875D02*
Y2022D01*
X3492Y2106D02*
X3737D01*
X3488Y2126D02*
X3527D01*
X3484Y2086D02*
X3718D01*
X3491Y2115D02*
Y3581D01*
X3471Y2144D02*
Y3598D01*
X3458Y2066D02*
X3710D01*
X3450Y2046D02*
X3707D01*
X3450Y2026D02*
X3710D01*
X3451Y1682D02*
Y2059D01*
X3450Y2057D02*
X3466Y2074D01*
X3450Y1687D02*
Y2057D01*
X3791Y1922D02*
Y1976D01*
X3771Y1922D02*
Y1975D01*
X3791Y1725D02*
Y1779D01*
X3731Y1905D02*
Y1993D01*
X3450Y2006D02*
X3720D01*
X3751Y1917D02*
Y1980D01*
X3811Y1719D02*
Y1785D01*
X3751Y1720D02*
Y1784D01*
X3771Y1726D02*
Y1778D01*
X3731Y1708D02*
Y1796D01*
X3711Y1679D02*
Y1825D01*
X3453Y1666D02*
X3708D01*
X3450Y1986D02*
X3741D01*
X3450Y1906D02*
X3733D01*
X3450Y1886D02*
X3716D01*
X3450Y1866D02*
X3709D01*
X3450Y1846D02*
X3707D01*
X3450Y1826D02*
X3711D01*
X3450Y1806D02*
X3722D01*
X3450Y1786D02*
X3746D01*
X3450Y1706D02*
X3730D01*
X3450Y1686D02*
X3715D01*
X4043Y1646D02*
X4094D01*
X4043Y1626D02*
X4094D01*
X4043Y1606D02*
X4094D01*
X4043Y1604D02*
Y1709D01*
X4031Y1589D02*
Y1604D01*
X4034Y1586D02*
X4094D01*
Y41D02*
Y4096D01*
X4042Y1566D02*
X4094D01*
X4041Y1546D02*
X4094D01*
X4091Y41D02*
Y4096D01*
X4071Y41D02*
Y4096D01*
X4051Y41D02*
Y4096D01*
X4012Y1604D02*
X4043D01*
X4033Y1526D02*
X4094D01*
X3951Y1593D02*
Y1604D01*
X3938D02*
X3968D01*
X3806Y1586D02*
X3946D01*
X4031Y1489D02*
Y1525D01*
X4011Y1505D02*
Y1509D01*
X3800Y1526D02*
X3947D01*
X3951Y1493D02*
Y1521D01*
X4034Y1486D02*
X4094D01*
X4008Y1506D02*
X4094D01*
X4042Y1466D02*
X4094D01*
X4041Y1446D02*
X4094D01*
X4033Y1426D02*
X4094D01*
X4042Y1366D02*
X4094D01*
X4034Y1386D02*
X4094D01*
X4041Y1346D02*
X4094D01*
X4031Y1389D02*
Y1425D01*
X4011Y1405D02*
Y1409D01*
X4033Y1326D02*
X4094D01*
X4008Y1406D02*
X4094D01*
X3846Y1486D02*
X3946D01*
X3833Y1506D02*
X3972D01*
X3845Y1426D02*
X3947D01*
X3951Y1393D02*
Y1421D01*
X3831Y1406D02*
X3972D01*
X3938Y1604D02*
Y1709D01*
X3931Y41D02*
Y4096D01*
X3852Y1646D02*
X3938D01*
X3851Y1465D02*
Y1645D01*
X3711Y1482D02*
Y1628D01*
X3911Y41D02*
Y4096D01*
X3891Y41D02*
Y4096D01*
X3871Y41D02*
Y4096D01*
X3691Y41D02*
Y2214D01*
X3671Y41D02*
Y2194D01*
X3651Y41D02*
Y2174D01*
X3631Y41D02*
Y2154D01*
X3611Y41D02*
Y2134D01*
X3445Y1646D02*
X3707D01*
X3491Y1263D02*
Y2105D01*
X3471Y1273D02*
Y2076D01*
X3451Y1271D02*
Y1658D01*
X3591Y41D02*
Y2116D01*
X3551Y41D02*
Y2109D01*
X3571Y41D02*
Y2108D01*
X3511Y41D02*
Y3561D01*
X3531Y41D02*
Y2121D01*
X3847Y1626D02*
X3938D01*
X3834Y1606D02*
X3938D01*
X3851Y1466D02*
X3938D01*
X3831Y1507D02*
Y1603D01*
X3811Y1522D02*
Y1588D01*
X3791Y1528D02*
Y1582D01*
X3851Y1446D02*
X3939D01*
X3796Y1386D02*
X3946D01*
X3809Y1326D02*
X3947D01*
X3851Y1269D02*
Y1448D01*
X3831Y1310D02*
Y1406D01*
X3811Y1325D02*
Y1392D01*
X3771Y1529D02*
Y1581D01*
X3791Y1331D02*
Y1385D01*
X3751Y1524D02*
Y1587D01*
X3731Y1511D02*
Y1599D01*
X3771Y1332D02*
Y1385D01*
X3751Y1327D02*
Y1390D01*
X3447Y1326D02*
X3750D01*
X3711Y1285D02*
Y1432D01*
X3731Y1314D02*
Y1402D01*
X3431Y2142D02*
Y3016D01*
X3374Y2126D02*
X3418D01*
X3411Y2117D02*
Y3014D01*
X3391Y2097D02*
Y3020D01*
X3374Y2106D02*
X3401D01*
X3391Y2096D02*
X3417Y2122D01*
X3381Y1687D02*
Y2072D01*
X3374Y2086D02*
X3384D01*
X3374Y2066D02*
X3381D01*
X2559Y2126D02*
X3291D01*
X2559Y2106D02*
X3291D01*
X3374Y2046D02*
X3381D01*
X2559Y2086D02*
X3291D01*
X2559Y2066D02*
X3291D01*
X2844Y2046D02*
X3291D01*
X3374Y2026D02*
X3381D01*
X3374Y2006D02*
X3381D01*
X3374Y1986D02*
X3381D01*
X2880Y2006D02*
X3291D01*
X2860Y2026D02*
X3291D01*
X2900Y1986D02*
X3291D01*
X3374Y1966D02*
X3381D01*
X3374Y1946D02*
X3381D01*
X3374Y1926D02*
X3381D01*
X3374Y1906D02*
X3381D01*
X3374Y1886D02*
X3381D01*
X3374Y1866D02*
X3381D01*
X3374Y1846D02*
X3381D01*
X3374Y1826D02*
X3381D01*
X3374Y1806D02*
X3381D01*
X3374Y1786D02*
X3381D01*
X3374Y1766D02*
X3381D01*
X3374Y1746D02*
X3381D01*
X2940Y1946D02*
X3291D01*
X2920Y1966D02*
X3291D01*
X2960Y1926D02*
X3291D01*
X3155Y1886D02*
X3291D01*
X2980Y1906D02*
X3291D01*
X3162Y1866D02*
X3291D01*
X3374Y1726D02*
X3381D01*
X3156Y1846D02*
X3291D01*
X3374Y1706D02*
X3381D01*
X2638Y1826D02*
X3291D01*
X2638Y1806D02*
X3291D01*
Y1707D02*
Y2303D01*
X3151Y1889D02*
Y2236D01*
X3131Y1897D02*
Y2236D01*
X3111Y1894D02*
Y2236D01*
X3091Y1894D02*
Y2236D01*
X3071Y1894D02*
Y2236D01*
X3271Y1689D02*
Y2248D01*
X3251Y1689D02*
Y2233D01*
X3231Y1689D02*
Y2232D01*
X3211Y1689D02*
Y2236D01*
X3191Y1689D02*
Y2236D01*
X3171Y1689D02*
Y2236D01*
X2971Y1915D02*
Y2236D01*
X2951Y1935D02*
Y2236D01*
X2931Y1955D02*
Y2236D01*
X2911Y1975D02*
Y2236D01*
X2891Y1995D02*
Y2236D01*
X2638Y1906D02*
X2898D01*
X3051Y1894D02*
Y2236D01*
X3031Y1894D02*
Y2236D01*
X3011Y1894D02*
Y2236D01*
X2991Y1895D02*
Y2236D01*
X2856Y2030D02*
X2992Y1894D01*
X2815Y1989D02*
X2959Y1844D01*
X3273Y1689D02*
X3291Y1707D01*
X3151Y1689D02*
Y1841D01*
X2992Y1894D02*
X3115D01*
X3031Y1692D02*
Y1836D01*
X3131Y1689D02*
Y1833D01*
X3111Y1689D02*
Y1836D01*
X3050Y1689D02*
X3273D01*
X3091D02*
Y1836D01*
X3071Y1689D02*
Y1836D01*
X3051Y1689D02*
Y1836D01*
X2980D02*
X3115D01*
X2638Y1886D02*
X2918D01*
X2638Y1866D02*
X2938D01*
X2638Y1846D02*
X2958D01*
X2638Y1786D02*
X3291D01*
X2638Y1766D02*
X3291D01*
X2638Y1746D02*
X3291D01*
X2658Y1726D02*
X3291D01*
X2678Y1706D02*
X3290D01*
X3374Y1646D02*
X3385D01*
X3373Y1626D02*
X3712D01*
X3374Y1635D02*
Y2325D01*
Y1686D02*
X3380D01*
X3431Y1347D02*
Y1635D01*
X3411Y1353D02*
Y1632D01*
X3357Y1606D02*
X3725D01*
X3391Y1349D02*
Y1640D01*
X3371Y1237D02*
Y1623D01*
X3306Y1639D02*
X3316Y1650D01*
X3291Y1623D02*
Y1632D01*
X3050Y1631D02*
X3285D01*
X2697Y1626D02*
X3295D01*
X3301Y1550D02*
X3366Y1614D01*
X3260Y1591D02*
X3316Y1647D01*
X3351Y1217D02*
Y1600D01*
X3271Y1603D02*
Y1631D01*
X3251Y1587D02*
Y1631D01*
X2697Y1606D02*
X3275D01*
X3317Y1566D02*
X3938D01*
X3299Y1546D02*
X3939D01*
X3433Y1346D02*
X3939D01*
X3337Y1586D02*
X3753D01*
X3246Y1526D02*
X3759D01*
X3247Y1506D02*
X3727D01*
X3331Y1197D02*
Y1580D01*
X3311Y1177D02*
Y1560D01*
X3291Y1157D02*
Y1536D01*
X3251Y1149D02*
Y1533D01*
X3271Y1149D02*
Y1528D01*
X3239Y1486D02*
X3713D01*
X3239Y1466D02*
X3708D01*
X3239Y1446D02*
X3708D01*
X2697Y1586D02*
X3251D01*
X3239Y1406D02*
X3728D01*
X3234Y1386D02*
X3763D01*
X3215Y1366D02*
X3938D01*
X3239Y1426D02*
X3714D01*
X3194Y1346D02*
X3387D01*
X3231Y1551D02*
Y1631D01*
X3211Y1561D02*
Y1631D01*
X3191Y1562D02*
Y1631D01*
X3171Y1553D02*
Y1631D01*
X3011Y1682D02*
Y1836D01*
X3151Y1412D02*
Y1631D01*
X3131Y1393D02*
Y1631D01*
X3111Y1374D02*
Y1631D01*
X3091Y1355D02*
Y1631D01*
X3071Y1337D02*
Y1631D01*
X3051Y1318D02*
Y1631D01*
X3031Y1299D02*
Y1628D01*
X2695Y1686D02*
X3016D01*
X3011Y1280D02*
Y1638D01*
X2991Y1261D02*
Y1836D01*
X2697Y1666D02*
X3003D01*
X2697Y1646D02*
X3006D01*
X2951Y1223D02*
Y1852D01*
X2931Y1210D02*
Y1872D01*
X2971Y1242D02*
Y1837D01*
X2891Y1159D02*
Y1912D01*
X2911Y1198D02*
Y1892D01*
X3236Y1546D02*
X3241D01*
X3239Y1405D02*
Y1487D01*
X3161Y1422D02*
Y1487D01*
X2702Y1566D02*
X3238D01*
X3231Y1149D02*
Y1383D01*
X2993Y1156D02*
X3226Y1377D01*
X3211Y1149D02*
Y1363D01*
X2940Y1212D02*
X3161Y1422D01*
X3191Y1149D02*
Y1344D01*
X2699Y1546D02*
X3164D01*
X2559Y1486D02*
X3161D01*
X2559Y1466D02*
X3161D01*
X2559Y1526D02*
X3154D01*
X2559Y1506D02*
X3153D01*
X2559Y1446D02*
X3161D01*
X2559Y1426D02*
X3161D01*
X2559Y1406D02*
X3145D01*
X2559Y1386D02*
X3124D01*
X2559Y1366D02*
X3103D01*
X2562Y1346D02*
X3082D01*
X4034Y1286D02*
X4094D01*
X4008Y1306D02*
X4094D01*
X4042Y1266D02*
X4094D01*
X4031Y1289D02*
Y1325D01*
X4011Y1305D02*
Y1309D01*
X4041Y1246D02*
X4094D01*
X4033Y1226D02*
X4094D01*
X4034Y1186D02*
X4094D01*
X4031Y1189D02*
Y1225D01*
X4011Y1205D02*
Y1209D01*
X4042Y1166D02*
X4094D01*
X3835Y1306D02*
X3972D01*
X4008Y1206D02*
X4094D01*
X3951Y1293D02*
Y1321D01*
X3847Y1286D02*
X3946D01*
X3844Y1226D02*
X3947D01*
X3951Y1193D02*
Y1221D01*
X3828Y1206D02*
X3972D01*
X4041Y1146D02*
X4094D01*
X4033Y1126D02*
X4094D01*
X4034Y1086D02*
X4094D01*
X4031Y1089D02*
Y1125D01*
X4011Y1105D02*
Y1109D01*
X4042Y1066D02*
X4094D01*
X4041Y1046D02*
X4094D01*
X4033Y1026D02*
X4094D01*
X4034Y986D02*
X4094D01*
X4042Y966D02*
X4094D01*
X4031Y989D02*
Y1025D01*
X4041Y946D02*
X4094D01*
X4008Y1106D02*
X4094D01*
X3951Y1093D02*
Y1121D01*
X3838Y1106D02*
X3972D01*
X4011Y1005D02*
Y1009D01*
X4008Y1006D02*
X4094D01*
X3951Y993D02*
Y1021D01*
X3825Y1006D02*
X3972D01*
X3852Y1266D02*
X3938D01*
X3851Y1246D02*
X3939D01*
X3791Y1134D02*
Y1188D01*
X3502Y1246D02*
X3708D01*
X3502Y1226D02*
X3715D01*
X3771Y1135D02*
Y1188D01*
X3851Y1072D02*
Y1251D01*
X3831Y1114D02*
Y1209D01*
X3811Y1128D02*
Y1195D01*
X3731Y1117D02*
Y1206D01*
X3711Y1088D02*
Y1235D01*
X3751Y1130D02*
Y1193D01*
X3447Y1306D02*
X3724D01*
X3443Y1286D02*
X3712D01*
X3488Y1266D02*
X3707D01*
X3443Y1266D02*
Y1294D01*
X3378Y1243D02*
Y1294D01*
X3497Y1206D02*
X3731D01*
X3497Y1175D02*
Y1214D01*
X3432Y1188D02*
Y1207D01*
X3431Y1187D02*
Y1206D01*
X3815Y1126D02*
X3947D01*
X3497Y1186D02*
X3946D01*
X3848Y1086D02*
X3946D01*
X3496Y1166D02*
X3938D01*
X3852Y1066D02*
X3938D01*
X3850Y1046D02*
X3939D01*
X3842Y1026D02*
X3947D01*
X3791Y938D02*
Y991D01*
X3771Y938D02*
Y991D01*
X3412Y1186D02*
X3430D01*
X3411Y1167D02*
Y1186D01*
X3482Y1146D02*
X3939D01*
X3392Y1166D02*
X3410D01*
X3391Y1147D02*
Y1166D01*
X3372Y1146D02*
X3390D01*
X3462Y1126D02*
X3744D01*
X3442Y1106D02*
X3721D01*
X3422Y1086D02*
X3711D01*
X3402Y1066D02*
X3707D01*
X3382Y1046D02*
X3709D01*
X4033Y926D02*
X4094D01*
X4034Y886D02*
X4094D01*
X4042Y866D02*
X4094D01*
X4031Y889D02*
Y925D01*
X4011Y905D02*
Y909D01*
X4041Y846D02*
X4094D01*
X4033Y826D02*
X4094D01*
X4034Y786D02*
X4094D01*
X4031Y789D02*
Y825D01*
X4011Y805D02*
Y809D01*
X4042Y766D02*
X4094D01*
X4008Y906D02*
X4094D01*
X3951Y893D02*
Y921D01*
X3840Y906D02*
X3972D01*
X4008Y806D02*
X4094D01*
X3951Y793D02*
Y821D01*
X3820Y806D02*
X3972D01*
X4041Y746D02*
X4094D01*
X4033Y726D02*
X4094D01*
X4004Y706D02*
X4094D01*
X3990Y757D02*
X4036D01*
X3944D02*
X3990D01*
Y711D02*
Y757D01*
X4031Y41D02*
Y725D01*
X3852Y666D02*
X4094D01*
X3852Y466D02*
X4094D01*
X4011Y41D02*
Y709D01*
X3971Y41D02*
Y708D01*
X3991Y41D02*
Y704D01*
X3850Y686D02*
X4094D01*
X3848Y646D02*
X4094D01*
X3838Y626D02*
X4094D01*
X3842Y706D02*
X3976D01*
X3815Y606D02*
X4094D01*
X3828Y526D02*
X4094D01*
X3851Y486D02*
X4094D01*
X3844Y506D02*
X4094D01*
X3847Y446D02*
X4094D01*
X3835Y426D02*
X4094D01*
X3809Y406D02*
X4094D01*
X3851Y875D02*
Y1054D01*
X3820Y926D02*
X3947D01*
X3849Y886D02*
X3946D01*
X3831Y917D02*
Y1012D01*
X3811Y931D02*
Y998D01*
X3751Y933D02*
Y996D01*
X3852Y866D02*
X3938D01*
X3849Y846D02*
X3939D01*
X3840Y826D02*
X3947D01*
X3851Y678D02*
Y857D01*
X3831Y720D02*
Y816D01*
X3811Y734D02*
Y801D01*
X3731Y920D02*
Y1009D01*
Y724D02*
Y812D01*
X3711Y891D02*
Y1038D01*
X3491Y41D02*
Y1156D01*
X3711Y694D02*
Y841D01*
X3471Y41D02*
Y1136D01*
X3451Y41D02*
Y1116D01*
X3431Y41D02*
Y1096D01*
X3411Y41D02*
Y1076D01*
X3391Y41D02*
Y1056D01*
X3831Y523D02*
Y619D01*
X3825Y726D02*
X3947D01*
X3811Y538D02*
Y604D01*
X3791Y741D02*
Y795D01*
X3771Y741D02*
Y794D01*
X3791Y544D02*
Y598D01*
X3951Y41D02*
Y721D01*
X3851Y481D02*
Y661D01*
Y41D02*
Y464D01*
X3831Y41D02*
Y422D01*
X3811Y41D02*
Y407D01*
X3791Y41D02*
Y401D01*
X3751Y736D02*
Y799D01*
X3771Y544D02*
Y597D01*
X3731Y527D02*
Y615D01*
X3711Y498D02*
Y644D01*
X3751Y539D02*
Y602D01*
Y41D02*
Y406D01*
X3771Y41D02*
Y400D01*
X3711Y41D02*
Y447D01*
X3731Y41D02*
Y418D01*
X3320Y1094D02*
X3432Y1207D01*
X3283Y1149D02*
X3378Y1243D01*
X3371Y1127D02*
Y1146D01*
X3352Y1126D02*
X3370D01*
X3351Y1107D02*
Y1126D01*
X3332Y1106D02*
X3350D01*
X3331Y1087D02*
Y1106D01*
X3230Y894D02*
X3488Y1152D01*
X3307Y1086D02*
X3330D01*
X3311Y1067D02*
Y1088D01*
X3130Y1286D02*
X3378D01*
X3109Y1266D02*
X3378D01*
X3088Y1246D02*
X3378D01*
X3173Y1326D02*
X3373D01*
X3151Y1306D02*
X3373D01*
X3067Y1226D02*
X3360D01*
X3193Y949D02*
X3432Y1188D01*
X3046Y1206D02*
X3340D01*
X3024Y1186D02*
X3320D01*
X3003Y1166D02*
X3300D01*
X2991Y1149D02*
X3283D01*
X2901Y1084D02*
X3297D01*
X3362Y1026D02*
X3717D01*
X3342Y1006D02*
X3735D01*
X3322Y986D02*
X3946D01*
X3291Y1047D02*
Y1084D01*
X3271Y1027D02*
Y1084D01*
X3251Y1007D02*
Y1084D01*
X3302Y966D02*
X3938D01*
X3282Y946D02*
X3939D01*
X3262Y926D02*
X3739D01*
X3242Y906D02*
X3719D01*
X3231Y987D02*
Y1084D01*
X3217Y886D02*
X3710D01*
X2904Y1046D02*
X3290D01*
X2878Y1066D02*
X3310D01*
X2912Y1026D02*
X3270D01*
X3211Y967D02*
Y1084D01*
X2911Y1006D02*
X3250D01*
X2903Y986D02*
X3230D01*
X2992Y866D02*
X3707D01*
X2878Y966D02*
X3210D01*
X2984Y884D02*
X3207D01*
X3171Y1149D02*
Y1325D01*
X3151Y1149D02*
Y1306D01*
X3131Y1149D02*
Y1287D01*
X3111Y1149D02*
Y1268D01*
X3091Y1149D02*
Y1250D01*
X3071Y1149D02*
Y1231D01*
X3191Y949D02*
Y1084D01*
X3051Y1149D02*
Y1212D01*
X3171Y949D02*
Y1084D01*
X3031Y1149D02*
Y1193D01*
X3011Y1149D02*
Y1174D01*
X2556Y1326D02*
X3060D01*
X2395Y1306D02*
X3039D01*
X2395Y1286D02*
X3018D01*
X2395Y1266D02*
X2997D01*
X2395Y1246D02*
X2976D01*
X2392Y1226D02*
X2955D01*
X2375Y1206D02*
X2922D01*
X2355Y1186D02*
X2903D01*
X2878Y1166D02*
X2898D01*
X3151Y949D02*
Y1084D01*
X3131Y949D02*
Y1084D01*
X3111Y949D02*
Y1084D01*
X3091Y949D02*
Y1084D01*
X3071Y949D02*
Y1084D01*
X3051Y949D02*
Y1084D01*
X3031Y949D02*
Y1084D01*
X3011Y949D02*
Y1084D01*
X2991Y949D02*
Y1084D01*
X2971Y949D02*
Y1084D01*
X2951Y949D02*
Y1084D01*
X2991Y869D02*
Y884D01*
X2911Y1027D02*
Y1084D01*
X2891Y1059D02*
Y1075D01*
X2860Y1017D02*
X2906D01*
X2931Y949D02*
Y1084D01*
X2911Y949D02*
Y1007D01*
X2901Y949D02*
X3193D01*
X2891Y959D02*
Y975D01*
X3371Y41D02*
Y1036D01*
X3192Y706D02*
X3717D01*
X3192Y686D02*
X3709D01*
X3351Y41D02*
Y1016D01*
X3331Y41D02*
Y996D01*
X3191Y707D02*
Y884D01*
X3311Y41D02*
Y976D01*
X3291Y41D02*
Y956D01*
X3271Y41D02*
Y936D01*
X3251Y41D02*
Y916D01*
X3231Y41D02*
Y896D01*
X3211Y41D02*
Y885D01*
X2984Y786D02*
X3946D01*
X2984Y766D02*
X3938D01*
X2984Y746D02*
X3939D01*
X2992Y846D02*
X3710D01*
X2984Y826D02*
X3719D01*
X2984Y806D02*
X3739D01*
X3180Y666D02*
X3707D01*
X3178Y726D02*
X3735D01*
X3019Y646D02*
X3711D01*
X3191Y41D02*
Y683D01*
X2959Y586D02*
X4094D01*
X2939Y566D02*
X4094D01*
X2919Y546D02*
X4094D01*
X2999Y626D02*
X3721D01*
X2979Y606D02*
X3744D01*
X2897Y446D02*
X3712D01*
X2916Y386D02*
X4094D01*
X2911Y366D02*
X4094D01*
X2901Y346D02*
X4094D01*
X2915Y406D02*
X3750D01*
X2909Y426D02*
X3724D01*
X2880Y326D02*
X4094D01*
X2644Y526D02*
X3731D01*
X2012Y306D02*
X4094D01*
X1994Y286D02*
X4094D01*
X2624Y506D02*
X3715D01*
X2611Y486D02*
X3708D01*
X2872Y466D02*
X3707D01*
X1974Y266D02*
X4094D01*
X1736Y226D02*
X4094D01*
X1742Y206D02*
X4094D01*
X1742Y186D02*
X4094D01*
X1736Y166D02*
X4094D01*
X3171Y730D02*
Y884D01*
X3151Y733D02*
Y884D01*
X3131Y728D02*
Y884D01*
X3111Y728D02*
Y884D01*
X3091Y728D02*
Y884D01*
X3071Y728D02*
Y884D01*
X3171Y41D02*
Y660D01*
X3025Y728D02*
X3134D01*
X3038Y663D02*
X3134D01*
X3051Y728D02*
Y884D01*
X3031Y728D02*
Y884D01*
X3011Y725D02*
Y884D01*
X2984Y726D02*
X3016D01*
X2994Y710D02*
X3002Y718D01*
X2991Y707D02*
Y842D01*
X2984Y706D02*
X2991D01*
X2984Y698D02*
Y828D01*
Y698D02*
X2987Y700D01*
X3131Y41D02*
Y663D01*
X3111Y41D02*
Y663D01*
X3151Y41D02*
Y657D01*
X3091Y41D02*
Y663D01*
X3071Y41D02*
Y663D01*
X3051Y41D02*
Y663D01*
X3031Y41D02*
Y658D01*
X3011Y41D02*
Y638D01*
X2991Y41D02*
Y618D01*
X2971Y41D02*
Y598D01*
X2951Y41D02*
Y578D01*
X2922Y548D02*
X3030Y657D01*
X2911Y421D02*
Y542D01*
X2658Y539D02*
X2900D01*
X2891Y452D02*
Y539D01*
X2931Y41D02*
Y558D01*
X2911Y41D02*
Y366D01*
X2835Y394D02*
X2910D01*
X2891Y41D02*
Y335D01*
X2871Y2015D02*
Y2236D01*
X2851Y2039D02*
Y2236D01*
X2831Y2052D02*
Y2236D01*
X2811Y2050D02*
Y2236D01*
X2642Y1966D02*
X2838D01*
X2691Y1692D02*
Y2312D01*
X2671Y1712D02*
Y2287D01*
X2638Y1946D02*
X2858D01*
X2651Y1732D02*
Y2265D01*
X2638Y1746D02*
Y1948D01*
X2559Y2046D02*
X2806D01*
X2559Y2026D02*
X2793D01*
X2559Y2006D02*
X2796D01*
X2631Y1989D02*
Y2245D01*
X2611Y1997D02*
Y2225D01*
X2591Y1992D02*
Y2205D01*
X2635Y1986D02*
X2818D01*
X2638Y1926D02*
X2878D01*
X2559Y1986D02*
X2585D01*
X2559Y1946D02*
X2582D01*
X2559Y1926D02*
X2582D01*
X2638Y1746D02*
X2689Y1694D01*
X2559Y1906D02*
X2582D01*
X2559Y1886D02*
X2582D01*
X2697Y1577D02*
Y1675D01*
X2591Y1716D02*
X2642Y1664D01*
Y1577D02*
Y1664D01*
X2559Y1686D02*
X2620D01*
X2559Y1666D02*
X2640D01*
X2559Y1646D02*
X2642D01*
X2559Y1866D02*
X2582D01*
X2559Y1726D02*
X2584D01*
X2559Y1706D02*
X2600D01*
X2559Y1626D02*
X2642D01*
X2559Y1606D02*
X2642D01*
X2559Y1586D02*
X2642D01*
X2559Y1566D02*
X2638D01*
X2559Y1546D02*
X2641D01*
X2470Y2126D02*
X2501D01*
X2464Y2121D02*
X2501Y2157D01*
X2559Y1966D02*
X2578D01*
X2377Y2112D02*
X2445D01*
X2582Y1735D02*
Y1948D01*
X2559Y1846D02*
X2582D01*
X2383D02*
X2501D01*
X2391Y1834D02*
Y2112D01*
X2371Y1853D02*
Y2110D01*
X2351Y1853D02*
Y2109D01*
X2299Y1906D02*
X2501D01*
X2321Y1886D02*
X2501D01*
X2311Y1899D02*
Y2307D01*
X2291Y1907D02*
Y2307D01*
X2271Y1902D02*
Y2211D01*
X2321Y1866D02*
X2501D01*
X2305Y1846D02*
X2337D01*
X2331Y1839D02*
Y2124D01*
X2559Y1826D02*
X2582D01*
X2559Y1806D02*
X2582D01*
X2559Y1786D02*
X2582D01*
X2394Y1826D02*
X2501D01*
X2395Y1806D02*
X2501D01*
X2395Y1786D02*
X2501D01*
X2559Y1766D02*
X2582D01*
X2395D02*
X2501D01*
X2559Y1746D02*
X2582D01*
X2395D02*
X2501D01*
X2395Y1726D02*
X2501D01*
X2395Y1706D02*
X2501D01*
X2395Y1686D02*
X2501D01*
X2395Y1666D02*
X2501D01*
X2395Y1646D02*
X2501D01*
X2280Y1826D02*
X2326D01*
X2260Y1806D02*
X2326D01*
X2395Y1626D02*
X2501D01*
X2395Y1606D02*
X2501D01*
X2395Y1586D02*
X2501D01*
X2395Y1566D02*
X2501D01*
X2395Y1546D02*
X2501D01*
X2395Y1526D02*
X2501D01*
X2851Y1169D02*
Y1952D01*
X2831Y1161D02*
Y1972D01*
X2871Y1168D02*
Y1932D01*
X2791Y600D02*
Y2236D01*
X2771Y600D02*
Y2232D01*
X2811Y1137D02*
Y1990D01*
X2731Y600D02*
Y2251D01*
X2711Y600D02*
Y2310D01*
X2751Y600D02*
Y2234D01*
X2691Y600D02*
Y1536D01*
X2651Y600D02*
Y1533D01*
X2671Y600D02*
Y1528D01*
X2611Y849D02*
Y1695D01*
X2559Y1360D02*
Y2173D01*
X2395Y1506D02*
X2501D01*
Y1360D02*
Y2157D01*
X2395Y1486D02*
X2501D01*
X2395Y1466D02*
X2501D01*
X2591Y849D02*
Y1715D01*
X2571Y849D02*
Y2185D01*
X2631Y597D02*
Y1675D01*
X2491Y627D02*
Y2148D01*
X2471Y627D02*
Y2128D01*
X2451Y627D02*
Y2113D01*
X2831Y1061D02*
Y1073D01*
X2439Y1086D02*
X2817D01*
X2443Y1066D02*
X2842D01*
X2438Y1106D02*
X2809D01*
X2811Y1037D02*
Y1097D01*
X2551Y849D02*
Y1321D01*
X2531Y849D02*
Y1313D01*
X2511Y849D02*
Y1318D01*
X2395Y1446D02*
X2501D01*
X2395Y1426D02*
X2501D01*
X2395Y1406D02*
X2501D01*
X2395Y1386D02*
X2501D01*
X2395Y1366D02*
X2501D01*
X2395Y1346D02*
X2498D01*
X2405Y1146D02*
X2816D01*
X2385Y1166D02*
X2842D01*
X2425Y1126D02*
X2808D01*
X2395Y1326D02*
X2504D01*
X2312Y1306D02*
X2326D01*
X2304Y1326D02*
X2326D01*
X2311Y1286D02*
X2326D01*
Y1254D02*
Y1820D01*
X2311Y1307D02*
Y1851D01*
Y1240D02*
Y1287D01*
X2431Y1119D02*
Y2112D01*
X2411Y1140D02*
Y2112D01*
X2395Y1240D02*
Y1820D01*
X2391Y1160D02*
Y1226D01*
X2278Y1346D02*
X2326D01*
X2260Y1297D02*
X2306D01*
X2303Y1266D02*
X2326D01*
X2291Y1339D02*
Y1838D01*
X2271Y1348D02*
Y1818D01*
X2260Y1297D02*
Y1343D01*
X2303Y1231D02*
X2326Y1254D01*
X2278Y1246D02*
X2317D01*
X2291Y1239D02*
Y1255D01*
X2348Y1179D02*
X2384Y1216D01*
X2381Y1171D02*
X2431Y1121D01*
X2371Y1177D02*
Y1203D01*
X2351Y1179D02*
Y1183D01*
X2439Y1072D02*
Y1100D01*
X2371Y693D02*
Y1097D01*
X2351Y713D02*
Y1117D01*
X2381Y1072D02*
Y1088D01*
X2348Y1179D02*
X2360D01*
X2348Y1121D02*
X2381Y1088D01*
X2312Y1106D02*
X2363D01*
X2311Y1107D02*
Y1121D01*
X2307D02*
X2348D01*
X2331Y717D02*
Y1121D01*
X2311Y1086D02*
X2381D01*
X2303Y1066D02*
X2377D01*
X2311Y1007D02*
Y1087D01*
X2247Y2146D02*
X2328D01*
X2247Y2106D02*
X2501D01*
X2247Y2086D02*
X2501D01*
X2251Y2068D02*
Y2198D01*
X2247Y2077D02*
Y2194D01*
Y2126D02*
X2331D01*
X2252Y2066D02*
X2501D01*
X2249Y2046D02*
X2501D01*
X2243Y1789D02*
X2297Y1843D01*
X2251Y1875D02*
Y2052D01*
X2231Y1855D02*
Y2030D01*
X1971Y2146D02*
X2193D01*
X1969Y2126D02*
X2193D01*
X1955Y2106D02*
X2193D01*
X2191Y2076D02*
Y2363D01*
X2193Y2077D02*
Y2205D01*
X1929Y2086D02*
X2193D01*
X2057Y1946D02*
X2501D01*
X2053Y1966D02*
X2501D01*
X2047Y1926D02*
X2501D01*
X2211Y1835D02*
Y2029D01*
X2196Y1819D02*
X2258Y1882D01*
X2243Y1786D02*
X2326D01*
X2243Y1766D02*
X2326D01*
X2243Y1746D02*
X2326D01*
X2243Y1726D02*
X2326D01*
X2243Y1706D02*
X2326D01*
X2243Y1686D02*
X2326D01*
X2243Y1666D02*
X2326D01*
X2243Y1646D02*
X2326D01*
X2244Y1626D02*
X2326D01*
X2243Y1644D02*
Y1789D01*
X2244Y1560D02*
Y1635D01*
Y1606D02*
X2326D01*
X2244Y1586D02*
X2326D01*
X2244Y1566D02*
X2326D01*
X2240Y1546D02*
X2326D01*
X2222Y1526D02*
X2326D01*
X2202Y1506D02*
X2326D01*
X2182Y1486D02*
X2326D01*
X2031Y1982D02*
Y2178D01*
X2011Y1980D02*
Y2178D01*
X1991Y1977D02*
Y2178D01*
X1971Y2141D02*
Y2178D01*
X2171Y1558D02*
Y2308D01*
X2151Y1538D02*
Y2288D01*
X2131Y1518D02*
Y2283D01*
X2051Y1969D02*
Y2183D01*
X1971Y1977D02*
Y2139D01*
X1951Y1977D02*
Y2104D01*
X1934Y2091D02*
X1945Y2101D01*
X1931Y1977D02*
Y2088D01*
X1762Y2080D02*
X1910D01*
X1911Y1977D02*
Y2081D01*
X1891Y1977D02*
Y2080D01*
X1871Y1977D02*
Y2080D01*
X1851Y1977D02*
Y2080D01*
X1831Y1977D02*
Y2080D01*
X1811Y1977D02*
Y2080D01*
X2191Y1814D02*
Y2044D01*
X1841Y1686D02*
X2188D01*
X1841Y1666D02*
X2188D01*
X1831Y1699D02*
Y1923D01*
X2188Y1644D02*
Y1800D01*
X2186Y1572D02*
Y1635D01*
X2124Y1511D02*
X2186Y1572D01*
X1811Y1707D02*
Y1923D01*
X1791Y1977D02*
Y2080D01*
X1819Y1706D02*
X2188D01*
X1771Y1977D02*
Y2080D01*
X1751Y1977D02*
Y2077D01*
X1791Y1704D02*
Y1923D01*
X1825Y1646D02*
X2188D01*
X1771Y1704D02*
Y1923D01*
X1751Y1704D02*
Y1923D01*
X2174Y1466D02*
X2326D01*
X2174Y1446D02*
X2326D01*
X2174Y1426D02*
X2326D01*
X2174Y1478D02*
X2236Y1539D01*
X2174Y1400D02*
Y1478D01*
Y1406D02*
X2326D01*
X2251Y1349D02*
Y1798D01*
X2231Y1341D02*
Y1535D01*
X2211Y1317D02*
Y1515D01*
X2191Y1230D02*
Y1495D01*
X2171Y1230D02*
Y1388D01*
X1845Y1446D02*
X2116D01*
X1828Y1466D02*
X2116D01*
X1925Y1426D02*
X2116D01*
Y1412D02*
Y1490D01*
X2111Y1408D02*
Y2283D01*
X1932Y1406D02*
X2110D01*
X2093Y1389D02*
X2116Y1412D01*
X1928Y1389D02*
X2093D01*
X2091D02*
Y2283D01*
X2071Y1389D02*
Y2203D01*
X2051Y1389D02*
Y1931D01*
X2170Y1386D02*
X2326D01*
X2152Y1366D02*
X2326D01*
X2132Y1346D02*
X2242D01*
X2126Y1339D02*
X2166Y1379D01*
X2214Y1297D02*
X2260D01*
X2231Y1241D02*
Y1253D01*
X2211Y1230D02*
Y1277D01*
X2151Y1230D02*
Y1365D01*
X2131Y1230D02*
Y1345D01*
X2111Y1230D02*
Y1332D01*
X2022Y1306D02*
X2208D01*
X2014Y1326D02*
X2216D01*
X2021Y1286D02*
X2209D01*
X2010Y1331D02*
X2105D01*
X2013Y1266D02*
X2217D01*
X1988Y1246D02*
X2242D01*
X2010Y1230D02*
X2220D01*
X2091D02*
Y1331D01*
X2071Y1230D02*
Y1331D01*
X1931Y1413D02*
Y1923D01*
X1911Y1435D02*
Y1923D01*
X1891Y1436D02*
Y1923D01*
X1871Y1434D02*
Y1923D01*
X1857Y1434D02*
X1885D01*
X2011Y1389D02*
Y1920D01*
X1991Y1389D02*
Y1923D01*
X2031Y1389D02*
Y1918D01*
X1971Y1389D02*
Y1923D01*
X1951Y1389D02*
Y1923D01*
X1851Y1440D02*
Y1923D01*
X1831Y1460D02*
Y1651D01*
X1831Y1460D02*
X1857Y1434D01*
X1791Y1481D02*
Y1646D01*
X1771Y1466D02*
Y1646D01*
X1811Y1480D02*
Y1643D01*
X1790Y1419D02*
X1820Y1389D01*
X1791D02*
Y1417D01*
X1751Y1389D02*
Y1646D01*
X1771Y1389D02*
Y1434D01*
X1970Y1297D02*
X2016D01*
X1931Y1389D02*
Y1397D01*
X1924Y1297D02*
X1970D01*
X2051Y1230D02*
Y1331D01*
X2031Y1230D02*
Y1331D01*
X2011Y1230D02*
Y1265D01*
X1931Y1233D02*
Y1261D01*
X1991Y1245D02*
Y1249D01*
X1911Y1179D02*
Y1331D01*
X1891Y1179D02*
Y1331D01*
X1871Y1179D02*
Y1331D01*
X1811Y1389D02*
Y1397D01*
X1851Y1179D02*
Y1331D01*
X1831Y1179D02*
Y1331D01*
X1811Y1179D02*
Y1331D01*
X1791Y1179D02*
Y1331D01*
X1771Y1179D02*
Y1331D01*
X1751Y1179D02*
Y1331D01*
X2831Y961D02*
Y973D01*
X2814Y1017D02*
X2860D01*
X2831Y861D02*
Y873D01*
X2811Y937D02*
Y997D01*
X2612Y846D02*
X2816D01*
X2811Y837D02*
Y897D01*
X2814Y817D02*
X2860D01*
X2612Y744D02*
Y849D01*
Y826D02*
X2808D01*
X2811Y769D02*
Y797D01*
X2448Y1046D02*
X2816D01*
X2311Y986D02*
X2817D01*
X2303Y966D02*
X2842D01*
X2442Y1026D02*
X2808D01*
X2312Y1006D02*
X2809D01*
X2278Y946D02*
X2816D01*
X2311Y886D02*
X2817D01*
X2304Y926D02*
X2808D01*
X2303Y866D02*
X2842D01*
X2507Y849D02*
X2612D01*
X2312Y906D02*
X2809D01*
X2612Y806D02*
X2809D01*
X2831Y769D02*
Y773D01*
X2807Y769D02*
X2838D01*
X2807Y664D02*
X2828D01*
X2807D02*
Y769D01*
X2612Y786D02*
X2817D01*
X2612Y766D02*
X2807D01*
X2811Y644D02*
Y664D01*
X2645Y600D02*
X2814D01*
X2811D02*
Y606D01*
X2612Y746D02*
X2807D01*
X2604Y726D02*
X2807D01*
X2612Y706D02*
X2807D01*
X2611Y686D02*
X2807D01*
X2582Y744D02*
X2612D01*
X2603Y666D02*
X2807D01*
X2604Y626D02*
X2808D01*
X2578Y646D02*
X2812D01*
X2612Y606D02*
X2811D01*
X2608Y577D02*
X2623Y592D01*
X2611Y586D02*
X2618D01*
X2591Y739D02*
Y744D01*
X2312Y806D02*
X2507D01*
Y744D02*
X2538D01*
X2311Y907D02*
Y987D01*
Y807D02*
Y887D01*
X2507Y744D02*
Y849D01*
X2611Y707D02*
Y744D01*
X2431Y633D02*
Y1015D01*
X2391Y673D02*
Y1013D01*
X2411Y653D02*
Y1008D01*
X2278Y1046D02*
X2372D01*
X2304Y1026D02*
X2378D01*
X2291Y1039D02*
Y1055D01*
Y939D02*
Y955D01*
X2311Y786D02*
X2507D01*
X2304Y826D02*
X2507D01*
X2303Y766D02*
X2507D01*
X2311Y717D02*
Y787D01*
X2291Y839D02*
Y855D01*
Y739D02*
Y755D01*
X2591Y639D02*
Y655D01*
X2531Y741D02*
Y744D01*
X2511Y717D02*
Y744D01*
X2531Y641D02*
Y653D01*
X2611Y607D02*
Y687D01*
Y580D02*
Y587D01*
X2511Y627D02*
Y677D01*
X2438Y627D02*
X2517D01*
X2359Y706D02*
X2508D01*
X2304Y726D02*
X2516D01*
X2379Y686D02*
X2509D01*
X2308Y717D02*
X2335D01*
X2399Y666D02*
X2517D01*
X2357Y708D02*
X2438Y627D01*
X2419Y646D02*
X2542D01*
X2293Y556D02*
X2332D01*
X2291Y539D02*
Y555D01*
X2871Y466D02*
Y539D01*
X2851Y473D02*
Y539D01*
X2831Y475D02*
Y539D01*
X2811Y472D02*
Y539D01*
X2791Y463D02*
Y539D01*
X2771Y445D02*
Y539D01*
X2751Y41D02*
Y539D01*
X2731Y41D02*
Y539D01*
X2835Y394D02*
Y469D01*
X2711Y41D02*
Y539D01*
X2691Y41D02*
Y539D01*
X2671Y41D02*
Y539D01*
X2612Y494D02*
X2658Y539D01*
X2603Y466D02*
X2797D01*
X2578Y446D02*
X2772D01*
X2531Y441D02*
Y453D01*
X2651Y41D02*
Y533D01*
X2631Y41D02*
Y513D01*
X2611Y407D02*
Y487D01*
X2591Y439D02*
Y455D01*
X2835Y319D02*
Y394D01*
X2760D02*
X2835D01*
X2871Y41D02*
Y321D01*
X2612Y406D02*
X2754D01*
X2604Y426D02*
X2760D01*
X2611Y386D02*
X2753D01*
X2851Y41D02*
Y314D01*
X2811Y41D02*
Y315D01*
X2831Y41D02*
Y312D01*
X2771Y41D02*
Y342D01*
X2611Y41D02*
Y387D01*
X2791Y41D02*
Y324D01*
X2603Y366D02*
X2758D01*
X2560Y397D02*
X2606D01*
X2574Y346D02*
X2768D01*
X2514Y397D02*
X2560D01*
X2312Y446D02*
X2542D01*
X2560Y351D02*
Y397D01*
X2591Y41D02*
Y355D01*
X2571Y41D02*
Y346D01*
X2551Y41D02*
Y345D01*
X2531Y41D02*
Y353D01*
X2312Y346D02*
X2546D01*
X2471Y429D02*
Y466D01*
X2435D02*
X2517D01*
X2451Y429D02*
Y466D01*
X2431Y418D02*
Y467D01*
X2511Y417D02*
Y466D01*
X2411Y417D02*
Y477D01*
X2491Y414D02*
Y466D01*
X2371Y417D02*
Y517D01*
X2351Y417D02*
Y537D01*
X2391Y417D02*
Y497D01*
X2332Y556D02*
X2413Y475D01*
X2311Y486D02*
X2403D01*
X2303Y466D02*
X2517D01*
X2311Y507D02*
Y556D01*
X2304Y526D02*
X2363D01*
X2312Y506D02*
X2383D01*
X2331Y417D02*
Y556D01*
X2311Y449D02*
Y487D01*
X2291Y449D02*
Y455D01*
X2282Y449D02*
X2312D01*
X2496Y406D02*
X2508D01*
X2478Y426D02*
X2516D01*
X2489Y366D02*
X2517D01*
X2498Y386D02*
X2509D01*
X2511Y41D02*
Y377D01*
X2491Y41D02*
Y370D01*
X2471Y41D02*
Y355D01*
X2431Y41D02*
Y356D01*
X2411Y41D02*
Y356D01*
X2451Y41D02*
Y354D01*
X2312Y426D02*
X2442D01*
X2312Y417D02*
X2431D01*
X2312Y356D02*
X2445D01*
X2391Y41D02*
Y356D01*
X2312Y417D02*
Y449D01*
Y344D02*
Y356D01*
X2371Y41D02*
Y356D01*
X2351Y41D02*
Y356D01*
X2331Y41D02*
Y356D01*
X2311Y41D02*
Y344D01*
X2291Y41D02*
Y344D01*
X2211Y917D02*
Y977D01*
X2195Y1021D02*
X2209Y1007D01*
X2231Y941D02*
Y953D01*
Y841D02*
Y853D01*
X2278Y846D02*
X2507D01*
X2191Y822D02*
Y1021D01*
X2171Y822D02*
Y1021D01*
X2211Y822D02*
Y877D01*
X2013Y966D02*
X2217D01*
X1988Y946D02*
X2242D01*
X2014Y926D02*
X2216D01*
X2022Y1006D02*
X2208D01*
X2017Y1021D02*
X2195D01*
X2021Y986D02*
X2209D01*
X2022Y906D02*
X2208D01*
X2021Y886D02*
X2209D01*
X2109Y866D02*
X2217D01*
X2151Y823D02*
Y1021D01*
X2131Y843D02*
Y1021D01*
X2107Y868D02*
X2153Y822D01*
X2214D01*
X2149Y826D02*
X2216D01*
X2140Y761D02*
X2221D01*
X2278Y746D02*
X2507D01*
X2231Y741D02*
Y753D01*
X2211Y717D02*
Y761D01*
X2129Y846D02*
X2242D01*
X1988Y746D02*
X2242D01*
X2072Y816D02*
X2118Y770D01*
X2013Y766D02*
X2124D01*
X2014Y726D02*
X2216D01*
X2013Y666D02*
X2217D01*
X1988Y646D02*
X2242D01*
X2022Y706D02*
X2208D01*
X2021Y686D02*
X2209D01*
X1970Y997D02*
X2016D01*
X2011Y929D02*
Y965D01*
X1931Y933D02*
Y961D01*
X1991Y945D02*
Y949D01*
X2111Y863D02*
Y1021D01*
X2091Y877D02*
Y1021D01*
X2071Y877D02*
Y1021D01*
X2051Y877D02*
Y1021D01*
X2031Y877D02*
Y1021D01*
X1911Y877D02*
Y1021D01*
X1924Y997D02*
X1970D01*
X1891Y877D02*
Y1021D01*
X1771Y888D02*
Y1021D01*
X1751Y908D02*
Y1021D01*
X1871Y877D02*
Y1021D01*
X1851Y877D02*
Y1021D01*
X1831Y877D02*
Y1021D01*
X1811Y877D02*
Y1021D01*
X1791Y877D02*
Y1021D01*
X2019Y877D02*
X2085D01*
X2019Y816D02*
X2072D01*
X2022Y806D02*
X2083D01*
X2021Y786D02*
X2103D01*
X2011Y729D02*
Y765D01*
X1991Y745D02*
Y749D01*
Y645D02*
Y649D01*
X1783Y877D02*
X1921D01*
X1770Y816D02*
X1921D01*
X1754Y906D02*
X1918D01*
X1742Y918D02*
X1783Y877D01*
X1774Y886D02*
X1919D01*
X1931Y733D02*
Y761D01*
X2278Y546D02*
X2343D01*
X2231Y641D02*
Y653D01*
X2211Y617D02*
Y677D01*
X2231Y541D02*
Y553D01*
X2211Y517D02*
Y577D01*
X2191Y41D02*
Y761D01*
X2171Y41D02*
Y761D01*
X2131Y41D02*
Y763D01*
X2151Y41D02*
Y761D01*
X2022Y606D02*
X2208D01*
X2014Y626D02*
X2216D01*
X2013Y566D02*
X2217D01*
X2021Y586D02*
X2209D01*
X2091Y41D02*
Y797D01*
X2071Y41D02*
Y816D01*
X2111Y41D02*
Y777D01*
X2051Y41D02*
Y816D01*
X2031Y41D02*
Y816D01*
X2231Y449D02*
Y453D01*
X2207Y449D02*
X2238D01*
X2022Y506D02*
X2208D01*
X2021Y486D02*
X2209D01*
X2211Y449D02*
Y477D01*
X2271Y41D02*
Y344D01*
X2207D02*
X2312D01*
X2251Y41D02*
Y344D01*
X2231Y41D02*
Y344D01*
X2207D02*
Y449D01*
X2211Y41D02*
Y344D01*
X2014Y526D02*
X2216D01*
X1988Y546D02*
X2242D01*
X2013Y466D02*
X2217D01*
X2023Y446D02*
X2207D01*
X2023Y426D02*
X2207D01*
X2023Y406D02*
X2207D01*
X2023Y386D02*
X2207D01*
X2017Y326D02*
X2789D01*
X2023Y366D02*
X2207D01*
X2023Y346D02*
X2207D01*
X2011Y629D02*
Y665D01*
X1991Y545D02*
Y549D01*
X1931Y633D02*
Y661D01*
Y533D02*
Y561D01*
X1992Y449D02*
X2023D01*
Y344D02*
Y449D01*
X2011Y529D02*
Y565D01*
Y449D02*
Y465D01*
X1931Y449D02*
Y461D01*
X1911Y352D02*
Y816D01*
X1918Y449D02*
X1948D01*
X1891Y352D02*
Y816D01*
X1871Y352D02*
Y816D01*
X1851Y352D02*
Y816D01*
X1831Y352D02*
Y816D01*
X1811Y352D02*
Y816D01*
X1791Y352D02*
Y816D01*
X1751Y352D02*
Y823D01*
X1771Y352D02*
Y816D01*
X2017Y344D02*
X2023D01*
X2017Y329D02*
Y344D01*
X1980Y271D02*
X2004Y295D01*
X2011Y41D02*
Y306D01*
X1991Y41D02*
Y283D01*
X1971Y41D02*
Y265D01*
X1951Y41D02*
Y258D01*
X1931Y41D02*
Y257D01*
X1918Y352D02*
Y449D01*
Y352D02*
X1923D01*
X1911Y41D02*
Y257D01*
X1891Y41D02*
Y257D01*
X1871Y41D02*
Y257D01*
X1851Y41D02*
Y257D01*
X1831Y41D02*
Y257D01*
X1811Y41D02*
Y257D01*
X1791Y41D02*
Y257D01*
X1771Y41D02*
Y257D01*
X1751Y41D02*
Y257D01*
X1691Y3845D02*
Y4032D01*
X1671Y3849D02*
Y4032D01*
X1689Y3846D02*
X1766D01*
X1651Y3844D02*
Y4032D01*
X1591Y3841D02*
Y4032D01*
X1580Y3846D02*
X1657D01*
X1731Y3812D02*
Y4032D01*
X1711Y3833D02*
Y4032D01*
X1631Y3829D02*
Y4032D01*
X1611Y3820D02*
Y4032D01*
X1349Y3986D02*
X2682D01*
X1345Y3906D02*
X2669D01*
X1325Y3886D02*
X2677D01*
X1362Y3966D02*
X2668D01*
X1359Y3946D02*
X2664D01*
X1357Y3926D02*
X2664D01*
X1571Y3848D02*
Y4032D01*
X1305Y3866D02*
X2666D01*
X1551Y3847D02*
Y4032D01*
X1531Y3837D02*
Y4032D01*
X1471Y3846D02*
X1548D01*
X1718Y3766D02*
X1737D01*
X1717Y3826D02*
X1739D01*
X1695Y3746D02*
X1761D01*
X1726Y3806D02*
X1730D01*
X1726Y3786D02*
X1730D01*
X1731Y3739D02*
Y3778D01*
X1711Y3736D02*
Y3758D01*
X1691Y3724D02*
Y3745D01*
X1654Y3726D02*
X1694D01*
X1651Y3728D02*
Y3746D01*
X1631Y3737D02*
Y3762D01*
X1668Y3706D02*
X1679D01*
X1608Y3826D02*
X1630D01*
X1609Y3766D02*
X1628D01*
X1586Y3746D02*
X1652D01*
X1617Y3806D02*
X1621D01*
X1617Y3786D02*
X1621D01*
X1477Y3746D02*
X1543D01*
X1611Y3738D02*
Y3770D01*
X1591Y3731D02*
Y3749D01*
X1545Y3726D02*
X1585D01*
X1571Y3709D02*
Y3742D01*
X1551Y3719D02*
Y3743D01*
X1471Y3846D02*
Y4032D01*
X1451Y3849D02*
Y4032D01*
X1431Y3843D02*
Y4032D01*
X1351Y3984D02*
Y4032D01*
X1357Y3930D02*
Y3943D01*
X1511Y3804D02*
Y4032D01*
X1491Y3835D02*
Y4032D01*
X1411Y3826D02*
Y4032D01*
X1391Y3824D02*
Y4032D01*
X1371Y3842D02*
Y4032D01*
X1331Y3992D02*
Y4032D01*
X1311Y3987D02*
Y4032D01*
X1291Y3930D02*
Y4032D01*
X1351Y3848D02*
Y3913D01*
X1294Y3856D02*
X1349Y3911D01*
X1331Y3847D02*
Y3893D01*
X1311Y3836D02*
Y3873D01*
X1291Y3739D02*
Y3853D01*
X1508Y3806D02*
X1512D01*
X1499Y3826D02*
X1521D01*
X1500Y3766D02*
X1519D01*
X1511Y3739D02*
Y3786D01*
X1399Y3806D02*
X1403D01*
X1508Y3786D02*
X1512D01*
X1531Y3734D02*
Y3753D01*
X1491Y3735D02*
Y3756D01*
X1436Y3726D02*
X1476D01*
X1431Y3729D02*
Y3747D01*
X1411Y3738D02*
Y3764D01*
X1471Y3722D02*
Y3744D01*
X1390Y3826D02*
X1412D01*
X1362Y3846D02*
X1439D01*
X1368Y3746D02*
X1434D01*
X1399Y3786D02*
X1403D01*
X1290Y3806D02*
X1294D01*
X1391Y3766D02*
X1410D01*
X1391Y3738D02*
Y3767D01*
X1371Y3730D02*
Y3748D01*
X1327Y3726D02*
X1367D01*
X1311Y3735D02*
Y3754D01*
X1331Y3722D02*
Y3744D01*
X1675Y3386D02*
X1790D01*
X1684Y3379D02*
X1689Y3374D01*
X1671Y3697D02*
Y3742D01*
Y3388D02*
Y3674D01*
X1669Y3666D02*
X1678D01*
X1731Y3344D02*
Y3632D01*
X1711Y3344D02*
Y3634D01*
X1695Y3366D02*
X1770D01*
X1691Y3372D02*
Y3646D01*
X1656Y3646D02*
X1692D01*
X1305Y3406D02*
X1810D01*
X1651Y3389D02*
Y3642D01*
X1547Y3646D02*
X1583D01*
X1631Y3389D02*
Y3633D01*
X1405Y3389D02*
X1660D01*
X1591D02*
Y3639D01*
X1571Y3389D02*
Y3661D01*
X1611Y3389D02*
Y3632D01*
X1699Y3346D02*
X1750D01*
X1699Y3344D02*
X1748D01*
X1731Y3264D02*
Y3286D01*
X1711Y3264D02*
Y3286D01*
X1691Y3264D02*
Y3286D01*
X1671Y3264D02*
Y3286D01*
X1731Y2695D02*
Y3206D01*
X1711Y2638D02*
Y3206D01*
X1691Y2638D02*
Y3206D01*
X1671Y2640D02*
Y3206D01*
X1651Y3264D02*
Y3286D01*
Y2641D02*
Y3206D01*
X1631Y3264D02*
Y3286D01*
X1442D02*
X1760D01*
X1422Y3266D02*
X1755D01*
X1611Y3264D02*
Y3286D01*
X1591Y3264D02*
Y3286D01*
X1571Y3264D02*
Y3286D01*
X1442Y3206D02*
X1765D01*
X1430Y3264D02*
X1753D01*
X1631Y2626D02*
Y3206D01*
X1611Y2855D02*
Y3206D01*
X1591Y2883D02*
Y3206D01*
X1559Y3706D02*
X1570D01*
X1560Y3666D02*
X1569D01*
X1438Y3646D02*
X1474D01*
X1451Y3704D02*
Y3742D01*
X1450Y3706D02*
X1461D01*
X1451Y3666D02*
X1460D01*
X1551Y3389D02*
Y3651D01*
X1531Y3389D02*
Y3636D01*
X1471Y3389D02*
Y3648D01*
X1451Y3389D02*
Y3667D01*
X1491Y3389D02*
Y3635D01*
X1329Y3646D02*
X1365D01*
X1431Y3389D02*
Y3641D01*
X1351Y3705D02*
Y3742D01*
X1341Y3706D02*
X1352D01*
X1342Y3666D02*
X1351D01*
X1411Y3389D02*
Y3633D01*
X1371Y3370D02*
Y3641D01*
X1391Y3387D02*
Y3633D01*
X1351Y3350D02*
Y3666D01*
X1331Y3330D02*
Y3649D01*
X1551Y3264D02*
Y3286D01*
X1511Y3389D02*
Y3632D01*
X1531Y3264D02*
Y3286D01*
X1511Y3264D02*
Y3286D01*
X1491Y3264D02*
Y3286D01*
X1471Y3264D02*
Y3286D01*
X1571Y2887D02*
Y3206D01*
X1551Y2877D02*
Y3206D01*
X1531Y2550D02*
Y3206D01*
X1511Y2550D02*
Y3206D01*
X1451Y3264D02*
Y3286D01*
X1491Y2777D02*
Y3206D01*
X1312Y3386D02*
X1390D01*
X1311Y3393D02*
Y3635D01*
Y3310D02*
Y3377D01*
X1306Y3366D02*
X1367D01*
X1431Y3264D02*
Y3275D01*
X1417Y3261D02*
X1442Y3286D01*
X1301Y3299D02*
X1381Y3379D01*
X1278Y4006D02*
X2962D01*
X1268Y4026D02*
X2942D01*
X1278Y3986D02*
X1311D01*
X1278Y3966D02*
X1298D01*
X1271Y4022D02*
Y4032D01*
X1278Y3946D02*
X1301D01*
X1278Y3926D02*
X1287D01*
X1275Y3914D02*
X1303Y3941D01*
X1278Y3930D02*
Y4000D01*
X1261Y4032D02*
X2935D01*
X650D02*
X1219D01*
X1211Y4026D02*
Y4032D01*
X643Y4026D02*
X1212D01*
X623Y4006D02*
X1202D01*
X664Y3986D02*
X1202D01*
X679Y3966D02*
X1202D01*
Y3948D02*
Y4000D01*
X1191Y3948D02*
Y4032D01*
X920Y3948D02*
X1202D01*
X1253Y3846D02*
X1330D01*
X1281Y3826D02*
X1303D01*
X1248Y3848D02*
X1275D01*
X1271Y3836D02*
Y3848D01*
X1290Y3786D02*
X1294D01*
X1282Y3766D02*
X1301D01*
X1259Y3746D02*
X1325D01*
X1271Y3734D02*
Y3754D01*
X1251Y3720D02*
Y3744D01*
X1231Y3708D02*
Y3742D01*
X1144Y3846D02*
X1221D01*
X1139Y3848D02*
X1226D01*
X1211Y3842D02*
Y3848D01*
X1191Y3823D02*
Y3848D01*
X1172Y3826D02*
X1194D01*
X1173Y3766D02*
X1192D01*
X1150Y3746D02*
X1216D01*
X1218Y3726D02*
X1258D01*
X1191Y3738D02*
Y3767D01*
X1211Y3731D02*
Y3748D01*
X1171Y3948D02*
Y4032D01*
X1151Y3948D02*
Y4032D01*
X1131Y3948D02*
Y4032D01*
X1111Y3948D02*
Y4032D01*
X1091Y3948D02*
Y4032D01*
X1073Y3848D02*
X1117D01*
X1171Y3827D02*
Y3848D01*
X1151Y3843D02*
Y3848D01*
X1073Y3846D02*
X1112D01*
X1091Y3834D02*
Y3848D01*
X1071Y3948D02*
Y4032D01*
X1051Y3948D02*
Y4032D01*
X1031Y3948D02*
Y4032D01*
X1011Y3948D02*
Y4032D01*
X991Y3948D02*
Y4032D01*
X971Y3948D02*
Y4032D01*
X951Y3948D02*
Y4032D01*
X931Y3948D02*
Y4032D01*
X1073Y3742D02*
Y3848D01*
X911Y3948D02*
Y4032D01*
X1181Y3806D02*
X1185D01*
X1181Y3786D02*
X1185D01*
X1073Y3746D02*
X1107D01*
X1073Y3826D02*
X1085D01*
X1073Y3806D02*
X1076D01*
X1073Y3766D02*
X1083D01*
X1171Y3737D02*
Y3764D01*
X1151Y3728D02*
Y3747D01*
X1109Y3726D02*
X1149D01*
X1111Y3724D02*
Y3744D01*
X1091Y3736D02*
Y3756D01*
X1071Y3739D02*
Y3742D01*
X962Y3829D02*
X966Y3832D01*
X962Y3826D02*
X966D01*
X962Y3806D02*
X966D01*
X962Y3786D02*
X966D01*
X962Y3766D02*
X966D01*
X962Y3746D02*
X966D01*
X1051Y3734D02*
Y3742D01*
X966D02*
X1073D01*
X962Y3726D02*
X1040D01*
X966Y3742D02*
Y3832D01*
X1031Y3717D02*
Y3742D01*
X1271Y3416D02*
Y3636D01*
X1291Y3415D02*
Y3632D01*
X1233Y3666D02*
X1242D01*
X1232Y3706D02*
X1243D01*
X1220Y3646D02*
X1256D01*
X1251Y3414D02*
Y3651D01*
X1231Y3414D02*
Y3662D01*
X1211Y3414D02*
Y3640D01*
X1191Y3414D02*
Y3632D01*
X1171Y3411D02*
Y3633D01*
X962Y3606D02*
X2671D01*
X962Y3586D02*
X2676D01*
X962Y3566D02*
X2666D01*
X962Y3626D02*
X2664D01*
X962Y3546D02*
X2664D01*
X935Y3506D02*
X2672D01*
X915Y3486D02*
X2695D01*
X895Y3466D02*
X3607D01*
X955Y3526D02*
X2665D01*
X875Y3446D02*
X1850D01*
X855Y3426D02*
X1830D01*
X1291Y3299D02*
Y3355D01*
X1187Y3346D02*
X1347D01*
X1197Y3356D02*
X1265D01*
X1185Y3414D02*
X1265D01*
X1271Y3299D02*
Y3354D01*
X1251Y3299D02*
Y3356D01*
X1231Y3299D02*
Y3356D01*
X1205Y3299D02*
X1301D01*
X1211D02*
Y3356D01*
X1191Y3297D02*
Y3350D01*
X1167Y3326D02*
X1327D01*
X1147Y3306D02*
X1307D01*
X835Y3406D02*
X1165D01*
X956Y3065D02*
X1181Y3289D01*
X921Y3079D02*
X1197Y3356D01*
X1127Y3286D02*
X1177D01*
X888Y3129D02*
X1164Y3406D01*
X1171Y3280D02*
Y3330D01*
X1123Y3706D02*
X1134D01*
X1111Y3646D02*
X1147D01*
X1151Y3393D02*
Y3642D01*
X1131Y3699D02*
Y3742D01*
X1124Y3666D02*
X1133D01*
X1131Y3373D02*
Y3672D01*
X1111Y3353D02*
Y3647D01*
X1091Y3333D02*
Y3635D01*
X1051Y3293D02*
Y3637D01*
X1031Y3273D02*
Y3653D01*
X1071Y3313D02*
Y3632D01*
X962Y3706D02*
X1025D01*
X962Y3666D02*
X1024D01*
X962Y3646D02*
X1038D01*
X962Y3545D02*
Y3829D01*
Y3686D02*
X1021D01*
X1011Y3253D02*
Y3742D01*
X991Y3233D02*
Y3742D01*
X971Y3213D02*
Y3742D01*
X569Y3141D02*
X954Y3526D01*
X1151Y3260D02*
Y3310D01*
X1107Y3266D02*
X1157D01*
X1087Y3246D02*
X1137D01*
X1131Y3240D02*
Y3290D01*
X965Y3266D02*
X1025D01*
X967Y3246D02*
X1005D01*
X1111Y3220D02*
Y3270D01*
X1091Y3200D02*
Y3250D01*
X1067Y3226D02*
X1117D01*
X1071Y3180D02*
Y3230D01*
X964Y3226D02*
X985D01*
X1051Y3160D02*
Y3210D01*
X815Y3386D02*
X1145D01*
X795Y3366D02*
X1125D01*
X775Y3346D02*
X1105D01*
X931Y3316D02*
Y3503D01*
X911Y3325D02*
Y3483D01*
X909Y3326D02*
X1085D01*
X943Y3306D02*
X1065D01*
X958Y3286D02*
X1045D01*
X951Y3296D02*
Y3523D01*
X886Y3248D02*
X961D01*
X1617Y2826D02*
X2060D01*
X1617Y2806D02*
X2080D01*
X1617Y2786D02*
X2060D01*
X1616Y2846D02*
X1980D01*
X1621Y2746D02*
X2057D01*
X1617Y2766D02*
X2053D01*
X1621Y2726D02*
X2057D01*
X1617Y2754D02*
Y2840D01*
X1611Y2550D02*
Y2711D01*
X1584Y2886D02*
X1964D01*
X1422Y3186D02*
X1887D01*
X1606Y2866D02*
X1964D01*
X1402Y3166D02*
X1882D01*
X1299Y2886D02*
X1566D01*
X1344Y2826D02*
X1560D01*
X1344Y2806D02*
X1564D01*
Y2754D02*
Y2825D01*
X1344Y2786D02*
X1564D01*
X1503Y2766D02*
X1564D01*
X1677Y2582D02*
X1872D01*
X1731Y2555D02*
Y2582D01*
X1677Y2638D02*
X1728D01*
X1711Y2555D02*
Y2582D01*
X1709Y2555D02*
X1811D01*
X1691Y2550D02*
Y2582D01*
X1709Y2550D02*
Y2555D01*
X1671Y2550D02*
Y2580D01*
X1631Y2550D02*
Y2594D01*
X1651Y2550D02*
Y2579D01*
X1605Y2706D02*
X2037D01*
X1451Y2686D02*
X1720D01*
X1423Y2646D02*
X1719D01*
X1471Y2706D02*
X1575D01*
X1431Y2666D02*
X1713D01*
X1427Y2626D02*
X1632D01*
X1424Y2606D02*
X1628D01*
X1349Y2586D02*
X1638D01*
X1349Y2566D02*
X1872D01*
X1571Y2550D02*
Y2708D01*
X1591Y2550D02*
Y2703D01*
X1471Y2781D02*
Y3206D01*
X1451Y2771D02*
Y3206D01*
X1396Y3159D02*
X1442Y3206D01*
X1551Y2550D02*
Y2833D01*
X1431Y2744D02*
Y3195D01*
X1376Y2688D02*
X1443Y2756D01*
X1411Y2724D02*
Y3175D01*
X1391Y2704D02*
Y3156D01*
X1371Y2683D02*
Y3151D01*
X1331Y2857D02*
Y3151D01*
X1311Y2877D02*
Y3151D01*
X1323Y2866D02*
X1544D01*
X1291Y2888D02*
Y3151D01*
X1340Y2846D02*
X1544D01*
X1344Y2766D02*
X1447D01*
X1310Y2878D02*
X1334Y2854D01*
X1344Y2744D02*
Y2830D01*
X1507Y2746D02*
X1559D01*
X1498Y2726D02*
X1559D01*
X1423Y2657D02*
X1482Y2717D01*
X1491Y2550D02*
Y2721D01*
X1471Y2550D02*
Y2706D01*
X1451Y2550D02*
Y2686D01*
X1423Y2637D02*
Y2657D01*
X1367Y2637D02*
Y2669D01*
X1349Y2726D02*
X1413D01*
X1344Y2746D02*
X1433D01*
X1349Y2706D02*
X1393D01*
X1349Y2686D02*
X1374D01*
X1349Y2666D02*
X1367D01*
X1349Y2646D02*
X1367D01*
X1349Y2626D02*
X1363D01*
X1349Y2606D02*
X1366D01*
X1715Y2439D02*
X1760D01*
X1709Y2399D02*
X1811D01*
X1624Y2386D02*
X1872D01*
X1709Y2399D02*
Y2447D01*
X1611Y2392D02*
Y2447D01*
X1591Y2390D02*
Y2447D01*
X1731Y2372D02*
Y2399D01*
X1691Y2368D02*
Y2447D01*
X1711Y2370D02*
Y2399D01*
X1671Y2368D02*
Y2447D01*
X1651Y2368D02*
Y2447D01*
X1631Y2379D02*
Y2447D01*
X1570Y2446D02*
X1709D01*
X1349Y2550D02*
X1709D01*
X1568Y2447D02*
X1709D01*
X1571Y2444D02*
Y2447D01*
X1577Y2426D02*
X1709D01*
X1571Y2406D02*
X1709D01*
X1571Y2338D02*
Y2406D01*
X1531Y2338D02*
Y2395D01*
X1551Y2338D02*
Y2393D01*
X1637Y2368D02*
X1708D01*
X1480Y2338D02*
X1582D01*
X1491Y2283D02*
X1537D01*
X1531Y2276D02*
Y2283D01*
X1731Y2151D02*
Y2207D01*
X1585D02*
X1838D01*
X1711Y2134D02*
Y2207D01*
X1553Y2228D02*
X1566Y2216D01*
X1415Y2206D02*
X1838D01*
X1365Y2386D02*
X1586D01*
X1395Y2186D02*
X1844D01*
X1475Y2266D02*
X1528D01*
X1345Y2366D02*
X1573D01*
X1435Y2226D02*
X1555D01*
X1375Y2166D02*
X1910D01*
X1365Y2146D02*
X1722D01*
X1447Y2086D02*
X1720D01*
X1372Y2126D02*
X1708D01*
X1434Y2106D02*
X1708D01*
X1431Y2550D02*
Y2666D01*
X1376Y2398D02*
X1528D01*
X1511Y2338D02*
Y2398D01*
X1411Y2550D02*
Y2592D01*
X1371Y2550D02*
Y2598D01*
X1391Y2550D02*
Y2588D01*
X1491Y2338D02*
Y2398D01*
X1471Y2336D02*
Y2398D01*
X1451Y2320D02*
Y2398D01*
X1431Y2300D02*
Y2398D01*
X1411Y2280D02*
Y2398D01*
X1391Y2260D02*
Y2398D01*
X1351Y2550D02*
Y3151D01*
X1349Y2550D02*
Y2727D01*
X1346Y2367D02*
X1376Y2398D01*
X1280Y2359D02*
X1327D01*
X1371Y2240D02*
Y2393D01*
X1351Y2220D02*
Y2373D01*
X1331Y2214D02*
Y2360D01*
X1311Y2214D02*
Y2359D01*
X1291Y2214D02*
Y2359D01*
X1376Y2167D02*
X1491Y2283D01*
X1455Y2246D02*
X1531D01*
X1371Y2133D02*
Y2164D01*
X1431Y2108D02*
Y2223D01*
X1411Y2112D02*
Y2203D01*
X1368Y2109D02*
X1400D01*
X1391D02*
Y2183D01*
X1371Y2109D02*
Y2117D01*
X1345Y2214D02*
X1461Y2329D01*
X1284Y2306D02*
X1437D01*
X1287Y2286D02*
X1417D01*
X1284Y2266D02*
X1397D01*
X1280Y2214D02*
X1345D01*
X1351Y2155D02*
Y2159D01*
X1280D02*
X1357D01*
X1311Y2154D02*
Y2159D01*
X1291Y2154D02*
Y2159D01*
X1252Y3126D02*
X3297D01*
X1232Y3106D02*
X3277D01*
X1212Y3086D02*
X2794D01*
X1277Y3151D02*
X1375D01*
X1272Y3146D02*
X1888D01*
X1192Y3066D02*
X2771D01*
X1271Y2889D02*
Y3145D01*
X1268Y2889D02*
Y2897D01*
Y2889D02*
X1286D01*
X1251Y2897D02*
Y3125D01*
X1231Y2897D02*
Y3105D01*
X1211Y2897D02*
Y3085D01*
X1172Y3046D02*
X2763D01*
X1092Y2966D02*
X2558D01*
X1072Y2946D02*
X2568D01*
X1152Y3026D02*
X2045D01*
X1132Y3006D02*
X2038D01*
X1112Y2986D02*
X2044D01*
X1061Y2934D02*
X1277Y3151D01*
X1043Y2926D02*
X1997D01*
X297Y2906D02*
X1977D01*
X1191Y2897D02*
Y3065D01*
X1173Y2897D02*
X1268D01*
X294Y2886D02*
X1173D01*
X1272Y2820D02*
X1276Y2816D01*
X1268Y2806D02*
X1276D01*
X1268Y2786D02*
X1276D01*
X1268Y2820D02*
X1272D01*
X1268Y2812D02*
Y2820D01*
Y2812D02*
Y2820D01*
X1276Y2744D02*
Y2816D01*
X1268Y2778D02*
Y2812D01*
Y2752D02*
Y2778D01*
Y2752D02*
Y2778D01*
Y2766D02*
X1276D01*
X1268Y2746D02*
X1276D01*
X1268Y2726D02*
X1271D01*
X1268Y2719D02*
Y2752D01*
X294Y2866D02*
X1173D01*
X1268Y2706D02*
X1271D01*
X1268Y2693D02*
Y2719D01*
Y2686D02*
X1271D01*
X1268Y2666D02*
X1271D01*
X1268Y2693D02*
Y2719D01*
Y2660D02*
Y2693D01*
X1047Y3206D02*
X1097D01*
X1027Y3186D02*
X1077D01*
X1007Y3166D02*
X1057D01*
X956Y3206D02*
X965D01*
X951Y3193D02*
Y3200D01*
X987Y3146D02*
X1037D01*
X1031Y3140D02*
Y3190D01*
X1011Y3120D02*
Y3170D01*
X967Y3126D02*
X1017D01*
X991Y3100D02*
Y3150D01*
X971Y3080D02*
Y3130D01*
X951Y3065D02*
Y3110D01*
X947Y3106D02*
X997D01*
X939Y3186D02*
X945D01*
X927Y3086D02*
X977D01*
X931Y3173D02*
Y3180D01*
X911Y3153D02*
Y3171D01*
X595Y3166D02*
X925D01*
X931Y3065D02*
Y3090D01*
X142Y3066D02*
X957D01*
X911Y3065D02*
Y3073D01*
X1173Y2837D02*
Y2897D01*
Y2812D02*
Y2837D01*
Y2812D02*
Y2837D01*
Y2778D02*
Y2812D01*
Y2752D02*
Y2778D01*
Y2752D02*
Y2778D01*
X555Y2746D02*
X1173D01*
Y2719D02*
Y2752D01*
Y2693D02*
Y2719D01*
Y2693D02*
Y2719D01*
X519Y2826D02*
X1173D01*
X490Y2846D02*
X1173D01*
X536Y2806D02*
X1173D01*
X317Y2926D02*
X1040D01*
X200Y3065D02*
X956D01*
X547Y2786D02*
X1173D01*
X553Y2766D02*
X1173D01*
X553Y2726D02*
X1173D01*
X548Y2706D02*
X1173D01*
X538Y2686D02*
X1173D01*
X523Y2666D02*
X1173D01*
X1268Y2646D02*
X1271D01*
X1268Y2626D02*
X1271D01*
X1268Y2606D02*
X1271D01*
X1268Y2634D02*
Y2660D01*
Y2634D02*
Y2660D01*
Y2601D02*
Y2634D01*
X1271Y2427D02*
Y2820D01*
X1271Y2479D02*
Y2727D01*
X1268Y2586D02*
X1271D01*
X1268Y2575D02*
Y2601D01*
Y2575D02*
Y2601D01*
Y2516D02*
Y2575D01*
Y2566D02*
X1271D01*
X1220Y2559D02*
X1261D01*
X1179D02*
X1220D01*
X1173Y2660D02*
Y2693D01*
Y2634D02*
Y2660D01*
X497Y2646D02*
X1173D01*
X1268Y2546D02*
X1271D01*
X1268Y2526D02*
X1271D01*
X1173Y2516D02*
X1268D01*
X1251Y2440D02*
Y2516D01*
X1220Y2523D02*
Y2559D01*
X1231Y2444D02*
Y2516D01*
X1271Y2346D02*
X1576D01*
X1272Y2326D02*
X1457D01*
X1271Y2327D02*
Y2347D01*
X1271Y2246D02*
X1377D01*
X1272Y2226D02*
X1357D01*
X1277Y2154D02*
X1325D01*
X1271Y2227D02*
Y2247D01*
X772Y2506D02*
X1271D01*
X772Y2466D02*
X1274D01*
X772Y2446D02*
X1280D01*
X1211Y2441D02*
Y2516D01*
X772Y2486D02*
X1271D01*
X1072Y2444D02*
X1188D01*
X1191Y2430D02*
Y2516D01*
X1188Y2426D02*
Y2444D01*
X1173Y2634D02*
Y2660D01*
Y2601D02*
Y2634D01*
Y2575D02*
Y2601D01*
X1171Y2444D02*
Y3045D01*
X1173Y2575D02*
Y2601D01*
Y2516D02*
Y2575D01*
X1151Y2444D02*
Y3025D01*
X1131Y2444D02*
Y3005D01*
X1111Y2444D02*
Y2985D01*
X1091Y2444D02*
Y2965D01*
X1071Y2416D02*
Y2945D01*
X1051Y2416D02*
Y2928D01*
X294Y2626D02*
X1173D01*
X294Y2606D02*
X1173D01*
X294Y2586D02*
X1173D01*
X1031Y2416D02*
Y2926D01*
X294Y2566D02*
X1173D01*
X294Y2546D02*
X1173D01*
X1011Y2416D02*
Y2926D01*
X991Y2416D02*
Y2926D01*
X971Y2416D02*
Y2926D01*
X951Y2416D02*
Y2926D01*
X931Y2416D02*
Y2926D01*
X1091Y2230D02*
Y2244D01*
X1072Y2416D02*
Y2444D01*
X1071Y2164D02*
Y2276D01*
X1051Y2164D02*
Y2276D01*
X1031Y2164D02*
Y2276D01*
X1011Y2164D02*
Y2276D01*
X991Y2164D02*
Y2276D01*
X971Y2164D02*
Y2276D01*
X951Y2164D02*
Y2276D01*
X931Y2164D02*
Y2276D01*
X772Y2266D02*
X1076D01*
X294Y2526D02*
X1173D01*
X771Y2246D02*
X1089D01*
X797Y2416D02*
X1072D01*
X772Y2426D02*
X1072D01*
X769Y2276D02*
X1074D01*
X763Y2226D02*
X1088D01*
X734Y2206D02*
X1076D01*
X819Y2166D02*
X1076D01*
X609Y2186D02*
X1073D01*
X825Y2164D02*
X1077D01*
X891Y3936D02*
Y4032D01*
X871Y3916D02*
Y4032D01*
X868Y3912D02*
X893Y3937D01*
X751Y3838D02*
Y4032D01*
X851Y3591D02*
Y4032D01*
X831Y3791D02*
Y4032D01*
X857Y3596D02*
Y3885D01*
X811Y3814D02*
Y4032D01*
X791Y3827D02*
Y4032D01*
X771Y3835D02*
Y4032D01*
X682Y3946D02*
X907D01*
X682Y3926D02*
X882D01*
X678Y3906D02*
X863D01*
X682Y3928D02*
Y3946D01*
X731Y3836D02*
Y4032D01*
X670Y3886D02*
X857D01*
X680Y3866D02*
X857D01*
X711Y3831D02*
Y4032D01*
X691Y3820D02*
Y4032D01*
X820Y3806D02*
X857D01*
X794Y3826D02*
X857D01*
X834Y3786D02*
X857D01*
X842Y3766D02*
X857D01*
X748Y3740D02*
Y3831D01*
X845Y3746D02*
X857D01*
X845Y3726D02*
X857D01*
X839Y3706D02*
X857D01*
X829Y3686D02*
X857D01*
X811Y3666D02*
X857D01*
X748Y3740D02*
X839D01*
X774Y3646D02*
X857D01*
X682Y3846D02*
X857D01*
X657Y3740D02*
X748D01*
Y3649D02*
Y3740D01*
X682Y3826D02*
X702D01*
X680Y3666D02*
X685D01*
X682Y3626D02*
X857D01*
X675Y3606D02*
X857D01*
X670Y3586D02*
X847D01*
X682Y3646D02*
X722D01*
X671Y3978D02*
Y4032D01*
X651Y3994D02*
Y4032D01*
X613Y3996D02*
X650Y4032D01*
X631Y3999D02*
Y4014D01*
X571Y4089D02*
Y4096D01*
X630Y3937D02*
Y3992D01*
X682Y3833D02*
Y3852D01*
X630Y3937D02*
X676D01*
X671Y3884D02*
Y3896D01*
X630Y3843D02*
X676D01*
X630Y3787D02*
Y3843D01*
X551Y4069D02*
Y4096D01*
X521Y4039D02*
X579Y4096D01*
X531Y4049D02*
Y4096D01*
X511Y4031D02*
Y4096D01*
X523Y3781D02*
X577Y3835D01*
X507Y3900D02*
Y3922D01*
X568Y3826D02*
X578D01*
X491Y4031D02*
Y4096D01*
X471Y4031D02*
Y4096D01*
X491Y3884D02*
Y3922D01*
X653Y3786D02*
X662D01*
X651Y3754D02*
Y3785D01*
Y3699D02*
Y3726D01*
X611Y3700D02*
Y3784D01*
X591Y3687D02*
Y3797D01*
X631Y3704D02*
Y3781D01*
X682Y3632D02*
Y3651D01*
X630Y3642D02*
Y3697D01*
Y3642D02*
X676D01*
X671Y3585D02*
Y3600D01*
X524Y3766D02*
X654D01*
X520Y3746D02*
X651D01*
X505Y3726D02*
X652D01*
X548Y3806D02*
X585D01*
X528Y3786D02*
X607D01*
X584Y3642D02*
X630D01*
X577Y3632D02*
Y3651D01*
X591Y3588D02*
Y3597D01*
X891Y3329D02*
Y3463D01*
X831Y3571D02*
Y3690D01*
X871Y3328D02*
Y3443D01*
X811Y3551D02*
Y3666D01*
X791Y3531D02*
Y3653D01*
X771Y3511D02*
Y3646D01*
X851Y3322D02*
Y3423D01*
X831Y3309D02*
Y3403D01*
X886Y3248D02*
Y3323D01*
X811Y3282D02*
Y3383D01*
X791Y3129D02*
Y3363D01*
X771Y3129D02*
Y3343D01*
X749Y3489D02*
X857Y3596D01*
X681Y3566D02*
X827D01*
X682Y3546D02*
X807D01*
X751Y3491D02*
Y3643D01*
X682Y3526D02*
X787D01*
X674Y3506D02*
X767D01*
X751Y3400D02*
Y3411D01*
X539Y3188D02*
X763Y3411D01*
X755Y3326D02*
X862D01*
X731Y3489D02*
Y3644D01*
X656Y3489D02*
X749D01*
X731Y3380D02*
Y3411D01*
X886Y3173D02*
Y3248D01*
X811D02*
X886D01*
X891Y3133D02*
Y3167D01*
X851Y3129D02*
Y3174D01*
X831Y3129D02*
Y3187D01*
X871Y3129D02*
Y3168D01*
X891Y3065D02*
Y3071D01*
X871Y3065D02*
Y3071D01*
X851Y3065D02*
Y3071D01*
X831Y3065D02*
Y3071D01*
X811Y3129D02*
Y3214D01*
Y3065D02*
Y3071D01*
X735Y3306D02*
X829D01*
X715Y3286D02*
X814D01*
X635Y3206D02*
X816D01*
X695Y3266D02*
X806D01*
X675Y3246D02*
X804D01*
X655Y3226D02*
X807D01*
X615Y3186D02*
X833D01*
X575Y3146D02*
X905D01*
X525Y3129D02*
X888D01*
X751D02*
Y3323D01*
X791Y3065D02*
Y3071D01*
X711Y3489D02*
Y3650D01*
X691Y3489D02*
Y3661D01*
X682Y3534D02*
Y3553D01*
X630Y3543D02*
X676D01*
X671Y3489D02*
Y3502D01*
X711Y3360D02*
Y3411D01*
X691Y3340D02*
Y3411D01*
X671Y3320D02*
Y3411D01*
X651Y3300D02*
Y3411D01*
X631Y3280D02*
Y3411D01*
X584Y3543D02*
X630D01*
X577Y3534D02*
Y3553D01*
X571Y3489D02*
Y3829D01*
X591Y3489D02*
Y3498D01*
X551Y3489D02*
Y3809D01*
X531Y3489D02*
Y3789D01*
X611Y3260D02*
Y3411D01*
X511Y3489D02*
Y3733D01*
X491Y3489D02*
Y3718D01*
X731Y3129D02*
Y3303D01*
X711Y3129D02*
Y3283D01*
X691Y3129D02*
Y3263D01*
X591Y3240D02*
Y3411D01*
X571Y3220D02*
Y3411D01*
X551Y3200D02*
Y3411D01*
X671Y3129D02*
Y3243D01*
X651Y3129D02*
Y3223D01*
X631Y3129D02*
Y3203D01*
X611Y3129D02*
Y3183D01*
X591Y3129D02*
Y3163D01*
X571Y3129D02*
Y3143D01*
X532Y3188D02*
X539D01*
X531Y3188D02*
Y3411D01*
X511Y3192D02*
Y3411D01*
X491Y3182D02*
Y3411D01*
X551Y3129D02*
Y3133D01*
X532Y3132D02*
X550D01*
X491Y3129D02*
Y3138D01*
X451Y4031D02*
Y4096D01*
X387Y4046D02*
X529D01*
X415Y4031D02*
X515D01*
X431D02*
Y4096D01*
X415Y3922D02*
Y4031D01*
X387Y4026D02*
X415D01*
X471Y3864D02*
Y3922D01*
X415D02*
X507D01*
X436Y3829D02*
X507Y3900D01*
X451Y3844D02*
Y3922D01*
X387Y3904D02*
Y4049D01*
X431Y3823D02*
Y3922D01*
X39Y4096D02*
X579D01*
X39Y4086D02*
X569D01*
X39Y4066D02*
X549D01*
X371Y4049D02*
Y4096D01*
X242Y4049D02*
X387D01*
Y4006D02*
X415D01*
X387Y3986D02*
X415D01*
X387Y3966D02*
X415D01*
X387Y3906D02*
X507D01*
X387Y3946D02*
X415D01*
X387Y3926D02*
X415D01*
X242Y3904D02*
X387D01*
X385Y3846D02*
X454D01*
X376Y3866D02*
X474D01*
X387Y3826D02*
X434D01*
X385Y3806D02*
X424D01*
X375Y3786D02*
X419D01*
X387Y3686D02*
X591D01*
X381Y3706D02*
X657D01*
X387Y3666D02*
X580D01*
X368Y3726D02*
X435D01*
X381Y3646D02*
X577D01*
X356Y3886D02*
X494D01*
X335Y3746D02*
X420D01*
X367Y3626D02*
X578D01*
X355Y3766D02*
X416D01*
X315Y3676D02*
X381D01*
X333Y3606D02*
X584D01*
X39Y3586D02*
X589D01*
X39Y3566D02*
X579D01*
X39Y3546D02*
X577D01*
X351Y4049D02*
Y4096D01*
X331Y4049D02*
Y4096D01*
X311Y4049D02*
Y4096D01*
X291Y4049D02*
Y4096D01*
X271Y4049D02*
Y4096D01*
X251Y4049D02*
Y4096D01*
X371Y3872D02*
Y3904D01*
X351Y3889D02*
Y3904D01*
X331Y3897D02*
Y3904D01*
X311Y3899D02*
Y3904D01*
X291Y3895D02*
Y3904D01*
X271Y3884D02*
Y3904D01*
X39Y4046D02*
X242D01*
X39Y4026D02*
X242D01*
X39Y4006D02*
X242D01*
X39Y3986D02*
X242D01*
X39Y3966D02*
X242D01*
X39Y3946D02*
X242D01*
X251Y3861D02*
Y3904D01*
X39Y3886D02*
X274D01*
X39Y3866D02*
X254D01*
X242Y3904D02*
Y4049D01*
X39Y3926D02*
X242D01*
X39Y3906D02*
X242D01*
X351Y3739D02*
Y3764D01*
X331Y3747D02*
Y3756D01*
X311Y3749D02*
Y3754D01*
X39Y3846D02*
X245D01*
X39Y3826D02*
X242D01*
X291Y3745D02*
Y3758D01*
X371Y3722D02*
Y3781D01*
X315Y3676D02*
Y3742D01*
X249Y3676D02*
X315D01*
X271Y3734D02*
Y3768D01*
X251Y3711D02*
Y3791D01*
X315Y3610D02*
Y3676D01*
X39Y3766D02*
X275D01*
X39Y3746D02*
X295D01*
X39Y3726D02*
X262D01*
X39Y3806D02*
X245D01*
X39Y3786D02*
X255D01*
X39Y3706D02*
X249D01*
X39Y3646D02*
X249D01*
X39Y3626D02*
X263D01*
X39Y3606D02*
X297D01*
X39Y3686D02*
X243D01*
X39Y3666D02*
X243D01*
X451Y3489D02*
Y3717D01*
X431Y3489D02*
Y3730D01*
X471Y3489D02*
Y3714D01*
X411Y3489D02*
Y4096D01*
X391Y3489D02*
Y4096D01*
X371Y3489D02*
Y3631D01*
X471Y3129D02*
Y3411D01*
X451Y3129D02*
Y3411D01*
X431Y3129D02*
Y3411D01*
X411Y3129D02*
Y3411D01*
X391Y3129D02*
Y3411D01*
X371Y3129D02*
Y3411D01*
X351Y3489D02*
Y3614D01*
X39Y3526D02*
X578D01*
X39Y3506D02*
X585D01*
X331Y3503D02*
Y3606D01*
X311Y3503D02*
Y3604D01*
X237Y3503D02*
X343D01*
Y3489D02*
X604D01*
X343Y3411D02*
X763D01*
X343Y3406D02*
X757D01*
X351Y3129D02*
Y3411D01*
X343Y3489D02*
Y3503D01*
Y3398D02*
Y3411D01*
X340Y3366D02*
X717D01*
X328Y3386D02*
X737D01*
X342Y3346D02*
X697D01*
X337Y3326D02*
X677D01*
X331Y3382D02*
Y3398D01*
X319Y3306D02*
X657D01*
X340Y3266D02*
X617D01*
X328Y3286D02*
X637D01*
X342Y3246D02*
X597D01*
X337Y3226D02*
X577D01*
X331Y3282D02*
Y3318D01*
Y3129D02*
Y3218D01*
X312Y3398D02*
X343D01*
X319Y3206D02*
X557D01*
X135Y3129D02*
X505D01*
X39Y3186D02*
X496D01*
X147Y3071D02*
X900D01*
X39Y3166D02*
X483D01*
X39Y3146D02*
X486D01*
X291Y3503D02*
Y3608D01*
X271Y3503D02*
Y3618D01*
X237Y3398D02*
X268D01*
X251Y3503D02*
Y3641D01*
X237Y3398D02*
Y3503D01*
X251Y3386D02*
Y3398D01*
X231Y3129D02*
Y4096D01*
X211Y3129D02*
Y4096D01*
X191Y3129D02*
Y4096D01*
X171Y3129D02*
Y4096D01*
X151Y3129D02*
Y4096D01*
X39Y3486D02*
X237D01*
X39Y3466D02*
X237D01*
X39Y3386D02*
X252D01*
X39Y3446D02*
X237D01*
X39Y3426D02*
X237D01*
X39Y3406D02*
X237D01*
X131Y3129D02*
Y4096D01*
X111Y3118D02*
Y4096D01*
X91Y3098D02*
Y4096D01*
X71Y3070D02*
Y4096D01*
X51Y2352D02*
Y4096D01*
X311Y3298D02*
Y3302D01*
Y3129D02*
Y3202D01*
X291Y3129D02*
Y3198D01*
X251Y3286D02*
Y3314D01*
X39Y3366D02*
X240D01*
X271Y3129D02*
Y3201D01*
X251Y3129D02*
Y3214D01*
X79Y3086D02*
X114Y3121D01*
X39Y3326D02*
X243D01*
X39Y3306D02*
X261D01*
X39Y3286D02*
X252D01*
X39Y3346D02*
X238D01*
X39Y3266D02*
X240D01*
X39Y3246D02*
X238D01*
X39Y3226D02*
X243D01*
X39Y3206D02*
X261D01*
X39Y3126D02*
X122D01*
X39Y3106D02*
X100D01*
X39Y3086D02*
X80D01*
X911Y2416D02*
Y2926D01*
X771Y3065D02*
Y3071D01*
Y2509D02*
Y2926D01*
X751Y3065D02*
Y3071D01*
X731Y3065D02*
Y3071D01*
X751Y2509D02*
Y2926D01*
X891Y2416D02*
Y2926D01*
X871Y2416D02*
Y2926D01*
X851Y2416D02*
Y2926D01*
X831Y2416D02*
Y2926D01*
X811Y2416D02*
Y2926D01*
X791Y2415D02*
Y2926D01*
X711Y3065D02*
Y3071D01*
X691Y3065D02*
Y3071D01*
X671Y3065D02*
Y3071D01*
X651Y3065D02*
Y3071D01*
X631Y3065D02*
Y3071D01*
X611Y3065D02*
Y3071D01*
X731Y2509D02*
Y2926D01*
X711Y2509D02*
Y2926D01*
X691Y2509D02*
Y2926D01*
X591Y3065D02*
Y3071D01*
X571Y3065D02*
Y3071D01*
X551Y3065D02*
Y3071D01*
X772Y2407D02*
Y2509D01*
X671D02*
Y2926D01*
X742Y2404D02*
X768D01*
X751Y2399D02*
Y2404D01*
X691Y2401D02*
Y2404D01*
X671Y2377D02*
Y2404D01*
X668Y2509D02*
X772D01*
X531Y2506D02*
X668D01*
X543Y2486D02*
X668D01*
X546Y2466D02*
X668D01*
X540Y2446D02*
X668D01*
X524Y2426D02*
X668D01*
Y2404D02*
Y2509D01*
Y2404D02*
X698D01*
X539Y2386D02*
X676D01*
X520Y2406D02*
X668D01*
X545Y2366D02*
X668D01*
X531Y3065D02*
Y3071D01*
X511Y3065D02*
Y3071D01*
X491Y3065D02*
Y3071D01*
X471Y3065D02*
Y3071D01*
X451Y3065D02*
Y3071D01*
Y2857D02*
Y2926D01*
X551Y2771D02*
Y2926D01*
X531Y2813D02*
Y2926D01*
X511Y2833D02*
Y2926D01*
X491Y2846D02*
Y2926D01*
X471Y2853D02*
Y2926D01*
X442Y2744D02*
Y2850D01*
X431Y3065D02*
Y3071D01*
X411Y3065D02*
Y3071D01*
X431Y2856D02*
Y2926D01*
X391Y3065D02*
Y3071D01*
X371Y3065D02*
Y3071D01*
X351Y3065D02*
Y3071D01*
X442Y2744D02*
X548D01*
X411Y2853D02*
Y2926D01*
X442Y2638D02*
Y2744D01*
X391Y2845D02*
Y2926D01*
X371Y2832D02*
Y2926D01*
X351Y2811D02*
Y2926D01*
X531Y2506D02*
Y2676D01*
X511Y2519D02*
Y2656D01*
X491Y2523D02*
Y2643D01*
X471Y2519D02*
Y2636D01*
X451Y2504D02*
Y2632D01*
X445Y2426D02*
X461D01*
X531Y2397D02*
Y2433D01*
X511Y2410D02*
Y2420D01*
X471Y2410D02*
Y2420D01*
X451Y2395D02*
Y2435D01*
X445Y2406D02*
X464D01*
X431Y2452D02*
Y2632D01*
X411Y2465D02*
Y2636D01*
X409Y2466D02*
X439D01*
X371Y2465D02*
Y2657D01*
X351Y2450D02*
Y2678D01*
X391Y2469D02*
Y2644D01*
X437Y2386D02*
X445D01*
X436Y2446D02*
X444D01*
X413Y2366D02*
X439D01*
X411Y2356D02*
Y2366D01*
X371Y2356D02*
Y2366D01*
X811Y2167D02*
Y2276D01*
X771Y2267D02*
Y2276D01*
X651Y2334D02*
Y2926D01*
X631Y2334D02*
Y2926D01*
X611Y2334D02*
Y2926D01*
X911Y2164D02*
Y2276D01*
X891Y2164D02*
Y2276D01*
X871Y2164D02*
Y2276D01*
X851Y2164D02*
Y2276D01*
X831Y2164D02*
Y2276D01*
X791Y2162D02*
Y2276D01*
X610Y2334D02*
X673D01*
X544Y2346D02*
X669D01*
X591Y2327D02*
Y2926D01*
X533Y2326D02*
X590D01*
X571Y2308D02*
Y2926D01*
X559Y2296D02*
X589Y2326D01*
X446Y2306D02*
X570D01*
X533Y2286D02*
X553D01*
X751Y2129D02*
Y2215D01*
X731Y2138D02*
Y2206D01*
X691Y2131D02*
Y2213D01*
X711Y2139D02*
Y2205D01*
X769Y2106D02*
X795D01*
X772Y2086D02*
X806D01*
X771Y2097D02*
Y2247D01*
X671Y2107D02*
Y2237D01*
X755Y2126D02*
X779D01*
X622Y2276D02*
X671D01*
X609Y2226D02*
X677D01*
X609Y2206D02*
X706D01*
X612Y2266D02*
X668D01*
X609Y2263D02*
X622Y2276D01*
X609Y2246D02*
X669D01*
X609Y2166D02*
X801D01*
X609Y2146D02*
X779D01*
X609Y2126D02*
X685D01*
X609Y2106D02*
X671D01*
X609Y2086D02*
X668D01*
X531Y2288D02*
Y2324D01*
X511Y2301D02*
Y2311D01*
X451Y2286D02*
Y2326D01*
X442Y2326D02*
X451D01*
X471Y2301D02*
Y2311D01*
X551Y2280D02*
Y2718D01*
X544Y2266D02*
X551D01*
X545Y2246D02*
X551D01*
X539Y2226D02*
X551D01*
X442Y2286D02*
X451D01*
X531Y2179D02*
Y2215D01*
X428Y2346D02*
X441D01*
X427Y2266D02*
X441D01*
X414Y2246D02*
X439D01*
X431Y2343D02*
Y2379D01*
X351Y2341D02*
Y2381D01*
X411Y2247D02*
Y2257D01*
X431Y2234D02*
Y2270D01*
X437Y2226D02*
X445D01*
X351Y2232D02*
Y2272D01*
X371Y2247D02*
Y2257D01*
X521Y2206D02*
X551D01*
X511Y2192D02*
Y2202D01*
X523Y2186D02*
X551D01*
X471Y2192D02*
Y2202D01*
X445Y2206D02*
X464D01*
X444Y2186D02*
X461D01*
X545Y2146D02*
X551D01*
X540Y2166D02*
X551D01*
X543Y2126D02*
X551D01*
X531Y2106D02*
X551D01*
X451Y2177D02*
Y2217D01*
X501Y2086D02*
X551D01*
X436Y2166D02*
X444D01*
X407Y2146D02*
X439D01*
X430Y2126D02*
X441D01*
X431Y2125D02*
Y2161D01*
X371Y2138D02*
Y2148D01*
X411Y2138D02*
Y2148D01*
X443Y2106D02*
X453D01*
X446Y2086D02*
X483D01*
X351Y2123D02*
Y2163D01*
X331Y3065D02*
Y3071D01*
X311Y3065D02*
Y3071D01*
X291Y3065D02*
Y3071D01*
X271Y3065D02*
Y3071D01*
X251Y3065D02*
Y3071D01*
X231Y3065D02*
Y3071D01*
X331Y2765D02*
Y2926D01*
X211Y3065D02*
Y3071D01*
X294Y2903D02*
X317Y2926D01*
X191Y3063D02*
Y3071D01*
X171Y3050D02*
Y3071D01*
X151Y3029D02*
X176Y3054D01*
X129Y3046D02*
X167D01*
X151Y3030D02*
Y3071D01*
X129Y3053D02*
X147Y3071D01*
X129Y3026D02*
X148D01*
X129Y3006D02*
X141D01*
X129Y2986D02*
X140D01*
X129Y2966D02*
X140D01*
X129Y2946D02*
X140D01*
X294Y2846D02*
X394D01*
X294Y2826D02*
X365D01*
X336Y2744D02*
X442D01*
X294Y2806D02*
X348D01*
X294Y2786D02*
X338D01*
X294Y2766D02*
X332D01*
X294Y2686D02*
X346D01*
X294Y2666D02*
X361D01*
X294Y2746D02*
X330D01*
X294Y2726D02*
X331D01*
X294Y2706D02*
X336D01*
X129Y2926D02*
X140D01*
X129Y2906D02*
X140D01*
X129Y2886D02*
X140D01*
X129Y2866D02*
X140D01*
X129Y2846D02*
X140D01*
X129Y2826D02*
X140D01*
X294Y2646D02*
X387D01*
X294Y2506D02*
X453D01*
X294Y2486D02*
X441D01*
X129Y2806D02*
X140D01*
X294Y2466D02*
X375D01*
X39Y3066D02*
X71D01*
X39Y3046D02*
X71D01*
X39Y3026D02*
X71D01*
X39Y3006D02*
X71D01*
X39Y2986D02*
X71D01*
X39Y2966D02*
X71D01*
X129Y2786D02*
X140D01*
X129Y2766D02*
X140D01*
X129Y2746D02*
X140D01*
X129Y2726D02*
X140D01*
X39Y2946D02*
X71D01*
X129Y2706D02*
X140D01*
X39Y2926D02*
X71D01*
X39Y2906D02*
X71D01*
X39Y2886D02*
X71D01*
X39Y2866D02*
X71D01*
X39Y2846D02*
X71D01*
X39Y2826D02*
X71D01*
X39Y2806D02*
X71D01*
X39Y2786D02*
X71D01*
X39Y2766D02*
X71D01*
X39Y2746D02*
X71D01*
X39Y2726D02*
X71D01*
X129Y2686D02*
X140D01*
X129Y2666D02*
X140D01*
X129Y2646D02*
X140D01*
X129Y2626D02*
X140D01*
X39Y2706D02*
X71D01*
X129Y2606D02*
X140D01*
X129Y2586D02*
X140D01*
X129Y2566D02*
X140D01*
X129Y2546D02*
X140D01*
X129Y2526D02*
X140D01*
X129Y2506D02*
X140D01*
X129Y2486D02*
X140D01*
X39Y2686D02*
X71D01*
X39Y2666D02*
X71D01*
X39Y2646D02*
X71D01*
X39Y2626D02*
X71D01*
X39Y2606D02*
X71D01*
X39Y2586D02*
X71D01*
X39Y2566D02*
X71D01*
X39Y2546D02*
X71D01*
X39Y2526D02*
X71D01*
X39Y2506D02*
X71D01*
X39Y2486D02*
X71D01*
X297Y2426D02*
X340D01*
X294Y2446D02*
X348D01*
X294Y2406D02*
X339D01*
X294Y2435D02*
Y2903D01*
X271Y2384D02*
Y2388D01*
X277Y2366D02*
X371D01*
X331Y2334D02*
Y2724D01*
X311Y2334D02*
Y2920D01*
X291Y2334D02*
Y2401D01*
X270Y2386D02*
X347D01*
X271Y2346D02*
X356D01*
X271Y2334D02*
Y2346D01*
X255Y2334D02*
X346D01*
X151Y2346D02*
X162Y2334D01*
X125Y2346D02*
X150D01*
X151Y2334D02*
Y2345D01*
X331Y2123D02*
Y2276D01*
X311Y2123D02*
Y2276D01*
X291Y2123D02*
Y2276D01*
X271Y2123D02*
Y2276D01*
X251Y2123D02*
Y2276D01*
X231Y2123D02*
Y2276D01*
X210Y2123D02*
X351D01*
X211D02*
Y2276D01*
X191Y2123D02*
Y2276D01*
X171Y2109D02*
Y2276D01*
X130D02*
X348D01*
X110Y2266D02*
X357D01*
X130Y2246D02*
X370D01*
X143Y2226D02*
X347D01*
X130Y2334D02*
X162D01*
X144Y2206D02*
X339D01*
X144Y2166D02*
X349D01*
X144Y2146D02*
X377D01*
X144Y2126D02*
X354D01*
X144Y2186D02*
X340D01*
X144Y2106D02*
X170D01*
X129Y2466D02*
X140D01*
X129Y2446D02*
X140D01*
X129Y2426D02*
X140D01*
Y2370D02*
Y3005D01*
X129Y2406D02*
X140D01*
X129Y2386D02*
X140D01*
X129Y2360D02*
Y3053D01*
Y2366D02*
X141D01*
X131Y2334D02*
Y3055D01*
X118Y2337D02*
X121Y2339D01*
X39Y2466D02*
X71D01*
X39Y2446D02*
X71D01*
X39Y2426D02*
X71D01*
Y2372D02*
Y3065D01*
X39Y2406D02*
X71D01*
X39Y2386D02*
X71D01*
X54Y2356D02*
X71Y2372D01*
X39Y2366D02*
X65D01*
X39Y2346D02*
X48D01*
X131Y2245D02*
Y2276D01*
X46Y2260D02*
Y2335D01*
X39Y2326D02*
X46D01*
X111Y2265D02*
Y2273D01*
X104Y2272D02*
X136Y2241D01*
X54Y2239D02*
X86Y2208D01*
X39Y2246D02*
X50D01*
X39Y2226D02*
X68D01*
X39Y2206D02*
X86D01*
X39Y2306D02*
X46D01*
X39Y2286D02*
X46D01*
X39Y2266D02*
X46D01*
X39Y2186D02*
X86D01*
X39Y2166D02*
X86D01*
X39Y2146D02*
X86D01*
X39Y2126D02*
X86D01*
X39Y2106D02*
X86D01*
X1731Y1977D02*
Y2079D01*
X1645Y1986D02*
X2501D01*
X1631Y1995D02*
Y2207D01*
X1611Y1996D02*
Y2207D01*
X1591Y1981D02*
Y2207D01*
X1711Y1977D02*
Y2096D01*
X1691Y1977D02*
Y2207D01*
X1650Y1977D02*
X2008D01*
X1671D02*
Y2207D01*
X1651Y1977D02*
Y2207D01*
X1591Y1704D02*
Y1949D01*
X1537Y2026D02*
X2501D01*
X1533Y2046D02*
X2191D01*
X1527Y2006D02*
X2501D01*
X1531Y2049D02*
Y2244D01*
X1444Y2066D02*
X2188D01*
X1464Y1966D02*
X1588D01*
X1486Y1946D02*
X1594D01*
X1571Y1704D02*
Y2211D01*
X1551Y1704D02*
Y2229D01*
X1635Y1923D02*
X2008D01*
X1731Y1704D02*
Y1923D01*
X1613Y1933D02*
X1616Y1931D01*
X1486Y1926D02*
X1621D01*
X1711Y1704D02*
Y1923D01*
X1691Y1704D02*
Y1923D01*
X1671Y1704D02*
Y1923D01*
X1651Y1704D02*
Y1923D01*
X1611Y1704D02*
Y1934D01*
X1631Y1704D02*
Y1923D01*
X1470Y1906D02*
X2281D01*
X1300Y1826D02*
X2202D01*
X1320Y1806D02*
X2188D01*
X1360Y1766D02*
X2188D01*
X1340Y1786D02*
X2188D01*
X1380Y1746D02*
X2188D01*
X1420Y1706D02*
X1801D01*
X1400Y1726D02*
X2188D01*
X1302Y1546D02*
X2160D01*
X1422Y1704D02*
X1795D01*
X1410Y1646D02*
X1795D01*
X1511Y2062D02*
Y2283D01*
X1491Y2060D02*
Y2283D01*
X1440Y2059D02*
X1490D01*
X1471D02*
Y2263D01*
X1451Y2059D02*
Y2243D01*
X1531Y1704D02*
Y2011D01*
X1491Y1704D02*
Y2000D01*
X1511Y1704D02*
Y1998D01*
X1471Y1963D02*
Y2001D01*
X1451Y1967D02*
Y2001D01*
X1471Y1704D02*
Y1907D01*
X1431Y1962D02*
Y2001D01*
X1411Y1962D02*
Y2001D01*
X1391Y1962D02*
Y2001D01*
X1371Y1962D02*
Y2001D01*
X1351Y1962D02*
Y2001D01*
X1431Y1704D02*
Y1907D01*
X1331Y1962D02*
Y2001D01*
X1311Y1962D02*
Y2001D01*
X1291Y1962D02*
Y2001D01*
X1411Y1715D02*
Y1907D01*
X1391Y1735D02*
Y1907D01*
X1371Y1755D02*
Y1907D01*
X1351Y1775D02*
Y1907D01*
X1331Y1795D02*
Y1907D01*
X1311Y1815D02*
Y1907D01*
X1451Y1704D02*
Y1903D01*
X1311Y1526D02*
Y1732D01*
X1293Y1706D02*
X1338D01*
X1294Y1665D02*
Y1700D01*
X1286Y1841D02*
X1422Y1704D01*
X1294Y1686D02*
X1358D01*
X1291Y1835D02*
Y1907D01*
Y1712D02*
Y1752D01*
X1294Y1666D02*
X1378D01*
X1287Y1646D02*
X1407D01*
X1291Y1557D02*
Y1653D01*
X1731Y1389D02*
Y1646D01*
X1567Y1426D02*
X1778D01*
X1587Y1406D02*
X1803D01*
X1711Y1389D02*
Y1646D01*
X1591Y1402D02*
Y1646D01*
X1571Y1422D02*
Y1646D01*
X1691Y1389D02*
Y1646D01*
X1671Y1389D02*
Y1646D01*
X1604Y1389D02*
X1820D01*
X1651D02*
Y1646D01*
X1631Y1389D02*
Y1646D01*
X1611Y1389D02*
Y1646D01*
X1312Y1506D02*
X2121D01*
X1311Y1526D02*
X2140D01*
X1304Y1486D02*
X2116D01*
X1551Y1446D02*
Y1646D01*
X1552Y1446D02*
X1768D01*
X1556Y1437D02*
X1604Y1389D01*
X1416Y1442D02*
X1623Y1235D01*
X1515Y1396D02*
X1572Y1339D01*
X1551Y1307D02*
Y1360D01*
X1492Y1366D02*
X1545D01*
X1512Y1346D02*
X1565D01*
X1714Y1326D02*
X1926D01*
X1710Y1331D02*
X1930D01*
X1722Y1306D02*
X1918D01*
X1670Y1297D02*
X1716D01*
X1624D02*
X1670D01*
X1731Y1179D02*
Y1331D01*
X1721Y1286D02*
X1919D01*
X1713Y1266D02*
X1927D01*
X1711Y1229D02*
Y1265D01*
X1631Y1235D02*
Y1261D01*
X1592Y1331D02*
X1630D01*
X1532Y1326D02*
X1626D01*
X1552Y1306D02*
X1618D01*
X1571Y1287D02*
Y1340D01*
X1572Y1286D02*
X1619D01*
X1592Y1266D02*
X1627D01*
X1611Y1247D02*
Y1331D01*
X1591Y1267D02*
Y1331D01*
X1531Y1459D02*
Y1646D01*
X1511Y1457D02*
Y1646D01*
X1432Y1426D02*
X1493D01*
X1451Y1407D02*
Y1646D01*
X1431Y1427D02*
Y1646D01*
X1411Y1446D02*
Y1646D01*
X1511Y1347D02*
Y1398D01*
X1472Y1386D02*
X1525D01*
X1531Y1327D02*
Y1380D01*
X1491Y1367D02*
Y1646D01*
X1471Y1387D02*
Y1646D01*
X1452Y1406D02*
X1500D01*
X1371Y1454D02*
Y1672D01*
X1351Y1454D02*
Y1692D01*
X1391Y1454D02*
Y1653D01*
X1331Y1454D02*
Y1712D01*
X1311Y1454D02*
Y1505D01*
X1291Y1457D02*
Y1473D01*
X1412Y1446D02*
X1498D01*
X1296Y1454D02*
X1389D01*
X1373Y1377D02*
X1408Y1341D01*
X1432Y1306D02*
X1443D01*
X1431Y1286D02*
X1463D01*
X1398Y1346D02*
X1403D01*
X1431Y1307D02*
Y1318D01*
X1424Y1325D02*
X1473Y1277D01*
X1429Y1278D02*
X1465D01*
X1451D02*
Y1298D01*
X1431Y1278D02*
Y1287D01*
X1391Y1348D02*
Y1358D01*
X1296Y1377D02*
X1373D01*
X1380Y1297D02*
Y1343D01*
X1371Y1349D02*
Y1377D01*
X1351Y1341D02*
Y1377D01*
X1331Y1317D02*
Y1377D01*
X1380Y1297D02*
X1426D01*
X1334D02*
X1380D01*
X1311Y1278D02*
Y1377D01*
X1291Y1278D02*
Y1373D01*
X1271Y1962D02*
Y2001D01*
X1208Y1962D02*
X1436D01*
X1208Y1906D02*
X1440D01*
X1251Y1962D02*
Y2001D01*
X1231Y1962D02*
Y2001D01*
X1211Y1962D02*
Y2001D01*
X1271Y1848D02*
Y1907D01*
X1251Y1849D02*
Y1907D01*
X1231Y1849D02*
Y1907D01*
X1211Y1849D02*
Y1907D01*
X1159Y1986D02*
X1595D01*
X1080Y2001D02*
X1490D01*
X1196Y1966D02*
X1446D01*
X1191Y1967D02*
Y2001D01*
X1181Y1966D02*
X1186D01*
X1208Y1907D02*
X1439D01*
X1065Y1886D02*
X2259D01*
X1085Y1866D02*
X2242D01*
X1191Y1849D02*
Y1902D01*
X1278Y1846D02*
X2222D01*
X1260Y1746D02*
X1298D01*
X1251Y1752D02*
Y1791D01*
X1231Y1757D02*
Y1791D01*
X1211Y1752D02*
Y1791D01*
X1261Y1746D02*
X1286Y1721D01*
X1253Y1791D02*
X1389Y1654D01*
X1280Y1726D02*
X1318D01*
X1271Y1735D02*
Y1772D01*
X1102Y1849D02*
X1265D01*
X959Y1786D02*
X1258D01*
X1020Y1766D02*
X1278D01*
X1090Y1791D02*
X1253D01*
X1037Y1746D02*
X1205D01*
X1039Y1726D02*
X1198D01*
X1039Y1706D02*
X1204D01*
X1039Y1686D02*
X1198D01*
X1191Y1673D02*
Y1791D01*
X1058Y1666D02*
X1185D01*
X1171Y1979D02*
Y2001D01*
X1151Y1987D02*
Y2001D01*
X1131Y1984D02*
Y2001D01*
X1111Y1984D02*
Y2001D01*
X1091Y1984D02*
Y2001D01*
X1071Y1984D02*
Y2002D01*
X1131Y1849D02*
Y1926D01*
X1151Y1849D02*
Y1923D01*
X1111Y1849D02*
Y1926D01*
X1091Y1860D02*
Y1926D01*
X1071Y1880D02*
Y1926D01*
X1043Y2006D02*
X1064D01*
X1044Y2025D02*
X1059Y2009D01*
X1051Y1984D02*
Y2017D01*
X1033Y1986D02*
X1141D01*
X1031Y1984D02*
X1135D01*
X890Y1926D02*
X1135D01*
X1051Y1900D02*
Y1926D01*
X1031Y1919D02*
Y1926D01*
X1045Y1906D02*
X1174D01*
X1036Y1916D02*
X1102Y1849D01*
X1171D02*
Y1908D01*
X1051Y1673D02*
Y1817D01*
X1171Y1653D02*
Y1791D01*
X1031Y1756D02*
Y1837D01*
X1011Y1770D02*
Y1857D01*
X1039Y1685D02*
Y1733D01*
X1003Y1866D02*
X1069Y1799D01*
X819Y1826D02*
X1043D01*
X950Y1806D02*
X1063D01*
X885Y1924D02*
X1015D01*
X795Y1866D02*
X1003D01*
X772Y1846D02*
X1023D01*
X991Y1770D02*
Y1866D01*
X971Y1758D02*
Y1866D01*
X959Y1766D02*
X982D01*
X1267Y1626D02*
X2186D01*
X1247Y1606D02*
X2186D01*
X1227Y1586D02*
X2186D01*
X1271Y1566D02*
Y1630D01*
X1224Y1583D02*
X1286Y1644D01*
X1273Y1566D02*
X2180D01*
X1251Y1567D02*
Y1610D01*
X1231Y1559D02*
Y1590D01*
X1224Y1553D02*
Y1583D01*
Y1566D02*
X1247D01*
X1151Y1633D02*
Y1791D01*
X1149Y1631D02*
X1198Y1679D01*
X1078Y1646D02*
X1165D01*
X1098Y1626D02*
X1146D01*
X1133Y1586D02*
X1141D01*
X1118Y1606D02*
X1141D01*
X1135Y1566D02*
X1141D01*
X1135Y1546D02*
X1141D01*
X1135Y1526D02*
X1141D01*
X1128Y1506D02*
X1141D01*
X1279Y1466D02*
X1772D01*
X1279Y1366D02*
X1383D01*
X1224Y1346D02*
X1362D01*
X1224Y1366D02*
X1241D01*
X1271Y1278D02*
Y1364D01*
X1224Y1326D02*
X1336D01*
X1250Y1278D02*
X1331D01*
X1231Y1272D02*
Y1371D01*
X1224Y1265D02*
Y1377D01*
X1251Y1278D02*
Y1363D01*
X959Y1486D02*
X1141D01*
X959Y1466D02*
X1141D01*
X959Y1446D02*
X1141D01*
X985Y1406D02*
X1141D01*
X965Y1426D02*
X1141D01*
X1005Y1386D02*
X1141D01*
X1224Y1306D02*
X1328D01*
X1224Y1286D02*
X1329D01*
X1025Y1366D02*
X1141D01*
X1131Y1590D02*
Y1791D01*
X1039Y1685D02*
X1124Y1600D01*
X1111Y1613D02*
Y1791D01*
X1071Y1653D02*
Y1798D01*
X1091Y1633D02*
Y1791D01*
X1141Y1080D02*
Y1610D01*
X1135Y1529D02*
Y1573D01*
X1051Y1340D02*
Y1564D01*
X1031Y1360D02*
Y1584D01*
X1059Y1537D02*
Y1557D01*
X959Y1606D02*
X1009D01*
X959Y1586D02*
X1029D01*
X959Y1566D02*
X1049D01*
X959Y1626D02*
X989D01*
X1011Y1380D02*
Y1604D01*
X974Y1642D02*
X1059Y1557D01*
X959Y1546D02*
X1059D01*
X971Y1420D02*
Y1644D01*
X991Y1400D02*
Y1624D01*
X1085Y1306D02*
X1141D01*
X1104Y1286D02*
X1141D01*
X1071Y1320D02*
Y1498D01*
X1091Y1300D02*
Y1490D01*
X1131Y804D02*
Y1512D01*
X1109Y1266D02*
X1141D01*
X1111Y812D02*
Y1493D01*
X1109Y812D02*
Y1270D01*
X1045Y1346D02*
X1141D01*
X1065Y1326D02*
X1141D01*
X959Y1526D02*
X1058D01*
X959Y1506D02*
X1064D01*
X959Y1432D02*
X1101Y1291D01*
X868Y1393D02*
X1021Y1241D01*
X811Y1266D02*
X996D01*
X811Y1286D02*
X976D01*
X991Y975D02*
Y1270D01*
X1722Y1206D02*
X1918D01*
X1714Y1226D02*
X1926D01*
X1721Y1186D02*
X1919D01*
X1723Y1179D02*
X1921D01*
X1722Y1006D02*
X1918D01*
X1717Y1021D02*
X1923D01*
X1721Y986D02*
X1919D01*
X1731Y925D02*
Y1021D01*
X1688Y1246D02*
X1952D01*
X1670Y997D02*
X1716D01*
X1691Y1245D02*
Y1249D01*
X1624Y997D02*
X1670D01*
X1713Y966D02*
X1927D01*
X1688Y946D02*
X1952D01*
X1711Y929D02*
Y965D01*
X1691Y945D02*
Y949D01*
X1728Y926D02*
X1926D01*
X1714Y826D02*
X1748D01*
X1713Y927D02*
X1720D01*
X1711Y829D02*
Y862D01*
X1722Y806D02*
X1918D01*
X1713Y766D02*
X1927D01*
X1714Y726D02*
X1926D01*
X1721Y786D02*
X1919D01*
X1711Y729D02*
Y765D01*
X1722Y706D02*
X1918D01*
X1710Y863D02*
X1748Y825D01*
X1688Y846D02*
X1728D01*
X1691Y845D02*
Y849D01*
X1688Y746D02*
X1952D01*
X1691Y745D02*
Y749D01*
X1623Y1235D02*
X1634D01*
X1612Y1246D02*
X1652D01*
X1631Y933D02*
Y961D01*
X1551Y929D02*
Y1021D01*
X1531Y926D02*
Y1021D01*
X1562Y926D02*
X1626D01*
X1571Y919D02*
Y1021D01*
X1579Y906D02*
X1618D01*
X1511Y926D02*
Y1021D01*
X1491Y926D02*
Y1021D01*
X1471Y926D02*
Y1021D01*
X1432Y1006D02*
X1618D01*
X1427Y1021D02*
X1623D01*
X1423Y966D02*
X1627D01*
X1431Y1007D02*
Y1021D01*
X1431Y986D02*
X1619D01*
X1424Y926D02*
X1534D01*
X1398Y946D02*
X1652D01*
X1424Y926D02*
X1533D01*
X1451D02*
Y1021D01*
X1431Y926D02*
Y987D01*
X1411Y939D02*
Y955D01*
X1579Y886D02*
X1619D01*
X1559Y866D02*
X1627D01*
X1631Y833D02*
Y861D01*
X1431Y807D02*
Y868D01*
X1432Y806D02*
X1618D01*
X1631Y733D02*
Y761D01*
X1460Y766D02*
X1627D01*
X1461Y746D02*
X1652D01*
X1451Y781D02*
Y868D01*
X1445Y786D02*
X1619D01*
X1447Y726D02*
X1626D01*
X1424Y868D02*
X1533D01*
X1423Y866D02*
X1538D01*
X1409Y846D02*
X1652D01*
X1411Y839D02*
Y855D01*
X1409Y841D02*
Y853D01*
X1424Y826D02*
X1626D01*
X1721Y686D02*
X1919D01*
X1713Y666D02*
X1927D01*
X1714Y626D02*
X1926D01*
X1711Y629D02*
Y665D01*
X1691Y645D02*
Y649D01*
X1722Y606D02*
X1918D01*
X1721Y586D02*
X1919D01*
X1713Y566D02*
X1927D01*
X1714Y526D02*
X1926D01*
X1731Y352D02*
Y842D01*
X1711Y529D02*
Y565D01*
X1722Y506D02*
X1918D01*
X1688Y646D02*
X1952D01*
X1691Y545D02*
Y549D01*
X1688Y546D02*
X1952D01*
X1568D02*
X1652D01*
X1721Y486D02*
X1919D01*
X1722Y446D02*
X1918D01*
X1722Y426D02*
X1918D01*
X1722Y406D02*
X1918D01*
X1722Y386D02*
X1918D01*
X1722Y366D02*
X1918D01*
X1722Y352D02*
X1918D01*
X1723Y246D02*
X4094D01*
X1722Y146D02*
X4094D01*
X1731Y235D02*
Y257D01*
X1722Y352D02*
Y449D01*
X1731Y41D02*
Y158D01*
X1713Y466D02*
X1927D01*
X1710Y257D02*
X1946D01*
X1711Y449D02*
Y465D01*
X1692Y449D02*
X1722D01*
X1711Y41D02*
Y137D01*
X1686Y126D02*
X4094D01*
X1691Y41D02*
Y128D01*
X1671Y41D02*
Y124D01*
X1531Y578D02*
Y868D01*
X1511Y578D02*
Y868D01*
X1631Y633D02*
Y661D01*
X1491Y577D02*
Y868D01*
X1471Y577D02*
Y868D01*
X1431Y707D02*
Y719D01*
X1611Y502D02*
Y1021D01*
X1591Y522D02*
Y1021D01*
X1571Y542D02*
Y874D01*
X1551Y562D02*
Y865D01*
X1451Y577D02*
Y730D01*
X1432Y706D02*
X1618D01*
X1423Y666D02*
X1627D01*
X1424Y626D02*
X1626D01*
X1431Y686D02*
X1619D01*
X1411Y639D02*
Y655D01*
X1431Y607D02*
Y687D01*
X1432Y606D02*
X1618D01*
X1431Y586D02*
X1619D01*
X1431Y577D02*
Y587D01*
X1631Y533D02*
Y561D01*
X1548Y566D02*
X1627D01*
X1588Y526D02*
X1626D01*
X1608Y506D02*
X1618D01*
X1544Y569D02*
X1618Y496D01*
X1611Y240D02*
Y257D01*
X1631Y41D02*
Y135D01*
X1611Y41D02*
Y154D01*
X1651Y41D02*
Y127D01*
X1591Y41D02*
Y257D01*
X1571Y41D02*
Y257D01*
X1551Y41D02*
Y257D01*
X1472D02*
X1630D01*
X1429Y577D02*
X1508D01*
X1531Y41D02*
Y257D01*
X1511Y41D02*
Y257D01*
X1491Y41D02*
Y257D01*
X1451Y41D02*
Y262D01*
X1471Y41D02*
Y257D01*
X1411Y41D02*
Y298D01*
X1431Y41D02*
Y278D01*
X1253Y968D02*
X1336D01*
X1331Y917D02*
Y968D01*
X1311Y774D02*
Y968D01*
X1291Y774D02*
Y968D01*
X1271Y774D02*
Y968D01*
X1231Y790D02*
Y977D01*
X1211Y803D02*
Y997D01*
X1251Y774D02*
Y968D01*
X1109Y1046D02*
X1163D01*
X1109Y1026D02*
X1183D01*
X1109Y1006D02*
X1203D01*
X1109Y1066D02*
X1145D01*
X1149Y1059D02*
X1233Y976D01*
X1109Y986D02*
X1223D01*
X1109Y966D02*
X1337D01*
X1171Y804D02*
Y1037D01*
X1151Y804D02*
Y1057D01*
X1191Y804D02*
Y1017D01*
X1351Y941D02*
Y953D01*
X1351Y841D02*
Y853D01*
X1331Y817D02*
Y877D01*
X1235Y786D02*
X1329D01*
X1398Y646D02*
X1652D01*
X1226Y796D02*
X1247Y774D01*
X1333D01*
X1109Y946D02*
X1362D01*
X1109Y926D02*
X1336D01*
X1109Y846D02*
X1351D01*
X1109Y906D02*
X1328D01*
X1109Y886D02*
X1329D01*
X1109Y866D02*
X1337D01*
X1129Y806D02*
X1328D01*
X1109Y826D02*
X1336D01*
X1132Y804D02*
X1205D01*
X1109Y1246D02*
X1141D01*
X1109Y1226D02*
X1141D01*
X1109Y1206D02*
X1141D01*
X1109Y1186D02*
X1141D01*
X811Y1246D02*
X1016D01*
X1109Y1166D02*
X1141D01*
X1109Y1146D02*
X1141D01*
X1109Y1126D02*
X1141D01*
X1109Y1106D02*
X1141D01*
X1021Y973D02*
Y1241D01*
X1011Y977D02*
Y1250D01*
X1109Y1086D02*
X1141D01*
X811Y1226D02*
X1021D01*
X811Y1206D02*
X1021D01*
X811Y1186D02*
X1021D01*
X811Y1166D02*
X1021D01*
X811Y1146D02*
X1021D01*
X811Y1126D02*
X1021D01*
X811Y1106D02*
X1021D01*
X811Y1086D02*
X1021D01*
X811Y1066D02*
X1021D01*
X811Y1046D02*
X1021D01*
X811Y1026D02*
X1021D01*
X811Y1006D02*
X1021D01*
X1051Y555D02*
Y583D01*
X887Y566D02*
X1068D01*
X1071Y555D02*
Y563D01*
X847Y606D02*
X1028D01*
X827Y626D02*
X1008D01*
X867Y586D02*
X1048D01*
X811Y986D02*
X1021D01*
X811Y966D02*
X980D01*
X811Y946D02*
X973D01*
X811Y926D02*
X973D01*
X811Y906D02*
X973D01*
X811Y886D02*
X973D01*
X811Y866D02*
X973D01*
X811Y846D02*
X973D01*
X811Y646D02*
X988D01*
X811Y826D02*
X973D01*
X811Y806D02*
X973D01*
X1228Y419D02*
X1327D01*
X1214Y406D02*
X1327D01*
X1194Y386D02*
X1327D01*
Y344D02*
Y419D01*
X1311Y41D02*
Y419D01*
X1174Y366D02*
X1327D01*
X1291Y41D02*
Y419D01*
X1271Y41D02*
Y419D01*
X1251Y41D02*
Y419D01*
X1231Y41D02*
Y419D01*
X1211Y41D02*
Y403D01*
X1191Y41D02*
Y383D01*
X1133Y466D02*
X1188D01*
X1122Y466D02*
X1188D01*
X1171Y450D02*
Y466D01*
X1151Y430D02*
Y466D01*
X1122Y446D02*
X1168D01*
X1108Y426D02*
X1148D01*
X1157Y348D02*
X1228Y419D01*
X1122Y400D02*
X1188Y466D01*
X1154Y346D02*
X1327D01*
X1171Y41D02*
Y363D01*
X1122Y166D02*
X1604D01*
X1105Y206D02*
X1598D01*
X1118Y146D02*
X1618D01*
X1365Y344D02*
X1438Y271D01*
X1327Y344D02*
X1365D01*
X1119Y186D02*
X1598D01*
X1391Y41D02*
Y318D01*
X1371Y41D02*
Y338D01*
X1103Y126D02*
X1654D01*
X1351Y41D02*
Y344D01*
X1331Y41D02*
Y344D01*
X1151Y41D02*
Y344D01*
X39Y266D02*
X1444D01*
X39Y246D02*
X1617D01*
X39Y226D02*
X1604D01*
X243Y326D02*
X1384D01*
X39Y306D02*
X1404D01*
X39Y286D02*
X1424D01*
X39Y106D02*
X4094D01*
X39Y86D02*
X4094D01*
X39Y66D02*
X4094D01*
X39Y46D02*
X4094D01*
X39Y41D02*
X4094D01*
X1122Y441D02*
Y468D01*
X1070Y467D02*
X1116D01*
X1031Y555D02*
Y603D01*
X1070Y421D02*
Y467D01*
X1131Y410D02*
Y466D01*
X1096Y414D02*
X1122Y441D01*
X1111Y400D02*
Y430D01*
X1091Y400D02*
Y414D01*
X1044D02*
X1096D01*
X1071Y400D02*
Y414D01*
X982Y652D02*
X1079Y555D01*
X898D02*
X1079D01*
X1003Y426D02*
X1032D01*
X1011Y555D02*
Y623D01*
X991Y555D02*
Y643D01*
X1018Y441D02*
Y444D01*
Y441D02*
X1044Y414D01*
X1031Y400D02*
Y427D01*
X1011Y400D02*
Y435D01*
X991Y400D02*
Y419D01*
X1111Y199D02*
Y340D01*
X1091Y215D02*
Y340D01*
X1071Y219D02*
Y340D01*
X1051Y400D02*
Y414D01*
Y216D02*
Y340D01*
X1031Y203D02*
Y340D01*
X1131Y41D02*
Y340D01*
X1111Y41D02*
Y135D01*
X1091Y41D02*
Y119D01*
X1051Y41D02*
Y118D01*
X1031Y41D02*
Y131D01*
X1071Y41D02*
Y114D01*
X579Y400D02*
X1122D01*
X574Y406D02*
X1128D01*
X567Y340D02*
X1135D01*
X519Y186D02*
X1021D01*
X505Y206D02*
X1035D01*
X522Y166D02*
X1018D01*
X518Y146D02*
X1022D01*
X503Y126D02*
X1037D01*
X1011Y41D02*
Y340D01*
X991Y41D02*
Y340D01*
X850Y2036D02*
X954D01*
X951Y2030D02*
Y2036D01*
X931Y1984D02*
Y2036D01*
X871Y1987D02*
Y2036D01*
X951Y1984D02*
Y2003D01*
X911Y1984D02*
Y2036D01*
X891Y1984D02*
Y2036D01*
X890Y1984D02*
X963D01*
X851Y1977D02*
Y2036D01*
X831Y1924D02*
Y2033D01*
X753Y2046D02*
X809D01*
X768Y2066D02*
X803D01*
X811Y1924D02*
Y2043D01*
X755Y2026D02*
X950D01*
X769Y2006D02*
X951D01*
X791Y1925D02*
Y2108D01*
X771Y1997D02*
Y2077D01*
X884Y1986D02*
X961D01*
X795Y1924D02*
X865D01*
X851D02*
Y1933D01*
X789Y1926D02*
X860D01*
X811Y1827D02*
Y1866D01*
X911Y1824D02*
Y1866D01*
X891Y1824D02*
Y1866D01*
X825Y1824D02*
X920D01*
X871D02*
Y1866D01*
X851Y1824D02*
Y1866D01*
X831Y1824D02*
Y1866D01*
X772Y1986D02*
X866D01*
X768Y1966D02*
X844D01*
X753Y1946D02*
X844D01*
X771Y1939D02*
Y1977D01*
X742Y1939D02*
X772D01*
X609Y1826D02*
X801D01*
X772Y1927D02*
Y1939D01*
Y1834D02*
Y1863D01*
X751Y2029D02*
Y2045D01*
X609Y2046D02*
X687D01*
X691Y2031D02*
Y2043D01*
X609Y2066D02*
X672D01*
X609Y2026D02*
X685D01*
X545D02*
X551D01*
X671Y2007D02*
Y2067D01*
X609Y2006D02*
X671D01*
X609Y1986D02*
X668D01*
X609Y1966D02*
X672D01*
X671Y1939D02*
Y1967D01*
X534Y2066D02*
X551D01*
X531Y2070D02*
Y2106D01*
X544Y2046D02*
X551D01*
X511Y2083D02*
Y2093D01*
X451Y2068D02*
Y2108D01*
X471Y2083D02*
Y2093D01*
X538Y2006D02*
X551D01*
X531Y1961D02*
Y1997D01*
X517Y1986D02*
X551D01*
X471Y1974D02*
Y1984D01*
X451Y1959D02*
Y1999D01*
X511Y1974D02*
Y1984D01*
X751Y1939D02*
Y1945D01*
X691Y1939D02*
Y1943D01*
X668Y1939D02*
X698D01*
X609Y1946D02*
X687D01*
X609Y1926D02*
X668D01*
X546D02*
X551D01*
X609Y1906D02*
X668D01*
X609Y1886D02*
X668D01*
Y1834D02*
X772D01*
X668D02*
Y1939D01*
X609Y1866D02*
X668D01*
X609Y1846D02*
X668D01*
X541Y1946D02*
X551D01*
X526Y1966D02*
X551D01*
X542Y1906D02*
X551D01*
X530Y1886D02*
X551D01*
X511Y1865D02*
Y1875D01*
X509Y1866D02*
X551D01*
X536Y1846D02*
X551D01*
X531Y1852D02*
Y1888D01*
X545Y1826D02*
X551D01*
X451Y1850D02*
Y1890D01*
X471Y1865D02*
Y1875D01*
X951Y1804D02*
Y1866D01*
X941Y1816D02*
X951Y1806D01*
X931Y1822D02*
Y1866D01*
X959Y1432D02*
Y1785D01*
Y1746D02*
X965D01*
X851Y602D02*
Y1766D01*
X831Y622D02*
Y1766D01*
X825D02*
X871D01*
X609Y1766D02*
X795D01*
X791Y1822D02*
Y1865D01*
X609Y1806D02*
X779D01*
X609Y1786D02*
X779D01*
X811Y642D02*
Y1763D01*
X791Y1402D02*
Y1768D01*
X609Y1746D02*
X858D01*
X771Y1424D02*
Y1834D01*
X751Y1437D02*
Y1834D01*
X731Y1435D02*
Y1834D01*
X959Y1726D02*
X962D01*
X959Y1706D02*
X962D01*
X959Y1686D02*
X962D01*
X609Y1726D02*
X859D01*
X609Y1706D02*
X859D01*
X609Y1686D02*
X859D01*
X962Y1669D02*
Y1733D01*
X959Y1666D02*
X963D01*
X959Y1646D02*
X970D01*
X859Y1415D02*
Y1729D01*
X609Y1666D02*
X859D01*
X609Y1646D02*
X859D01*
X609Y1626D02*
X859D01*
X609Y1606D02*
X859D01*
X609Y1586D02*
X859D01*
X609Y1566D02*
X859D01*
X609Y1546D02*
X859D01*
X609Y1526D02*
X859D01*
X609Y1506D02*
X859D01*
X609Y1486D02*
X859D01*
X609Y1466D02*
X859D01*
X609Y1446D02*
X859D01*
X711Y1169D02*
Y1834D01*
X691Y1161D02*
Y1834D01*
X545Y1806D02*
X551D01*
X546Y1706D02*
X551D01*
X542Y1726D02*
X551D01*
X542Y1686D02*
X551D01*
X651Y400D02*
Y2276D01*
X631Y400D02*
Y2276D01*
X671Y1137D02*
Y1834D01*
X611Y748D02*
Y2265D01*
X551Y915D02*
Y2275D01*
X609Y755D02*
Y2263D01*
X537Y1786D02*
X551D01*
X513Y1766D02*
X551D01*
X511Y1756D02*
Y1766D01*
X471Y1756D02*
Y1766D01*
X531Y1743D02*
Y1779D01*
X528Y1746D02*
X551D01*
X531Y1634D02*
Y1670D01*
X451Y1741D02*
Y1781D01*
Y1632D02*
Y1672D01*
X537Y1626D02*
X551D01*
X527Y1666D02*
X551D01*
X545Y1606D02*
X551D01*
X544Y1586D02*
X551D01*
X536Y1566D02*
X551D01*
X530Y1526D02*
X551D01*
X546Y1486D02*
X551D01*
X543Y1506D02*
X551D01*
X541Y1466D02*
X551D01*
X531Y1525D02*
Y1561D01*
Y1416D02*
Y1452D01*
X525Y1446D02*
X551D01*
X514Y1646D02*
X551D01*
X507Y1546D02*
X551D01*
X511Y1647D02*
Y1657D01*
X471Y1647D02*
Y1657D01*
X511Y1538D02*
Y1548D01*
Y1429D02*
Y1439D01*
X471Y1538D02*
Y1548D01*
Y1429D02*
Y1439D01*
X451Y1523D02*
Y1563D01*
Y1414D02*
Y1454D01*
X441Y2066D02*
X450D01*
X425Y2046D02*
X440D01*
X438Y2006D02*
X446D01*
X431Y2016D02*
Y2052D01*
X411Y2029D02*
Y2039D01*
X418Y2026D02*
X439D01*
X445Y1986D02*
X467D01*
X444Y1966D02*
X459D01*
X434Y1946D02*
X443D01*
X431Y1907D02*
Y1943D01*
X371Y2029D02*
Y2039D01*
X144Y2026D02*
X366D01*
X351Y2014D02*
Y2054D01*
X202Y2054D02*
X351D01*
X144Y2046D02*
X359D01*
X411Y1920D02*
Y1930D01*
X371Y1920D02*
Y1930D01*
X144Y2006D02*
X346D01*
X144Y1946D02*
X350D01*
X351Y1905D02*
Y1945D01*
X443Y1886D02*
X455D01*
X445Y1866D02*
X475D01*
X440Y1846D02*
X448D01*
X432Y1906D02*
X442D01*
X439Y1844D02*
X447D01*
X445Y1766D02*
X471D01*
X440Y1786D02*
X447D01*
X443Y1746D02*
X456D01*
X439Y1786D02*
X447D01*
X434Y1686D02*
X443D01*
X397Y1926D02*
X439D01*
X432Y1726D02*
X442D01*
X144Y1926D02*
X387D01*
X144Y1906D02*
X352D01*
X144Y1726D02*
X352D01*
X431Y1689D02*
Y1725D01*
X144Y1706D02*
X439D01*
X371Y1702D02*
Y1712D01*
X411Y1702D02*
Y1712D01*
X144Y1986D02*
X339D01*
X144Y2086D02*
X166D01*
X144Y2066D02*
X175D01*
X331Y1844D02*
Y2054D01*
X311Y1844D02*
Y2054D01*
X291Y1844D02*
Y2054D01*
X271Y1848D02*
Y2054D01*
X251Y1852D02*
Y2054D01*
X231Y1842D02*
Y2054D01*
X39Y2086D02*
X86D01*
X39Y2066D02*
X86D01*
X39Y2046D02*
X86D01*
X39Y2026D02*
X86D01*
X39Y2006D02*
X86D01*
X39Y1986D02*
X86D01*
X144Y1966D02*
X340D01*
X39D02*
X86D01*
X144Y1886D02*
X341D01*
X39Y1946D02*
X86D01*
X39Y1926D02*
X86D01*
X39Y1906D02*
X86D01*
X276Y1844D02*
X345D01*
X144Y1866D02*
X339D01*
X274Y1846D02*
X344D01*
X144D02*
X236D01*
X144Y1826D02*
X223D01*
X144Y1806D02*
X226D01*
X260Y1786D02*
X345D01*
X144Y1786D02*
X345D01*
X144Y1766D02*
X339D01*
X39Y1886D02*
X86D01*
X39Y1866D02*
X86D01*
X39Y1846D02*
X86D01*
X39Y1826D02*
X86D01*
X39Y1806D02*
X86D01*
X39Y1786D02*
X86D01*
X144Y1746D02*
X341D01*
X39Y1766D02*
X86D01*
X39Y1746D02*
X86D01*
X39Y1726D02*
X86D01*
X39Y1706D02*
X86D01*
X444Y1666D02*
X457D01*
X445Y1646D02*
X470D01*
X351Y1687D02*
Y1727D01*
X439Y1626D02*
X447D01*
X441Y1566D02*
X449D01*
X440Y1567D02*
X448D01*
X436Y1622D02*
X445D01*
X144Y1686D02*
X351D01*
X144Y1666D02*
X340D01*
X146Y1626D02*
X346D01*
X331Y1622D02*
Y1786D01*
X311Y1622D02*
Y1786D01*
X146Y1646D02*
X339D01*
X145Y1622D02*
X348D01*
X52Y1567D02*
X344D01*
X50Y1566D02*
X344D01*
X291Y1622D02*
Y1786D01*
X271Y1622D02*
Y1786D01*
X446Y1546D02*
X477D01*
X443Y1526D02*
X454D01*
X331Y1519D02*
Y1567D01*
X440Y1519D02*
X448D01*
X440Y1458D02*
X448D01*
X444Y1446D02*
X459D01*
X331Y1408D02*
Y1458D01*
X39Y1546D02*
X339D01*
X39Y1526D02*
X341D01*
X130Y1519D02*
X345D01*
X311D02*
Y1567D01*
X291Y1519D02*
Y1567D01*
X271Y1519D02*
Y1567D01*
X311Y1408D02*
Y1458D01*
X120D02*
X345D01*
X39Y1446D02*
X340D01*
X291Y1408D02*
Y1458D01*
X271Y1408D02*
Y1458D01*
X231Y1622D02*
Y1798D01*
X211Y1622D02*
Y2054D01*
X251Y1622D02*
Y1788D01*
X191Y1622D02*
Y2055D01*
X144Y1650D02*
Y2220D01*
X251Y1519D02*
Y1567D01*
X231Y1519D02*
Y1567D01*
X211Y1519D02*
Y1567D01*
X171Y1622D02*
Y2071D01*
X151Y1622D02*
Y2276D01*
X86Y1650D02*
Y2208D01*
X39Y1686D02*
X86D01*
X39Y1666D02*
X86D01*
X39Y1627D02*
Y4096D01*
Y1646D02*
X84D01*
X44Y1626D02*
X84D01*
X71Y1622D02*
Y2222D01*
X52Y1622D02*
X85D01*
X51Y1623D02*
Y2243D01*
X191Y1519D02*
Y1567D01*
X171Y1519D02*
Y1567D01*
X251Y1402D02*
Y1458D01*
X151Y1519D02*
Y1567D01*
X131Y1519D02*
Y1567D01*
X111Y1522D02*
Y1567D01*
X231Y1247D02*
Y1458D01*
X211Y1247D02*
Y1458D01*
X191Y1247D02*
Y1458D01*
X171Y1247D02*
Y1458D01*
X151Y1247D02*
Y1458D01*
X131Y1247D02*
Y1458D01*
X91Y1512D02*
Y1567D01*
X39Y1466D02*
X93D01*
X39Y1506D02*
X87D01*
X39Y1486D02*
X83D01*
X91Y1247D02*
Y1468D01*
X71Y1247D02*
Y1567D01*
X111Y1247D02*
Y1458D01*
X51Y1242D02*
Y1567D01*
X39Y1226D02*
Y1563D01*
X806Y1386D02*
X876D01*
X775Y1419D02*
X802Y1392D01*
X770Y1426D02*
X859D01*
X787Y1406D02*
X861D01*
X811Y1346D02*
X916D01*
X811Y1326D02*
X936D01*
X811Y1306D02*
X956D01*
X811Y1366D02*
X896D01*
X731Y1375D02*
X749Y1357D01*
X609Y1366D02*
X741D01*
X609Y1346D02*
X749D01*
X609Y1426D02*
X720D01*
X609Y1406D02*
X713D01*
X609Y1386D02*
X719D01*
X609Y1326D02*
X749D01*
X609Y1306D02*
X749D01*
X609Y1286D02*
X749D01*
Y1160D02*
Y1357D01*
X731Y1168D02*
Y1375D01*
X609Y1266D02*
X749D01*
X609Y1246D02*
X749D01*
X609Y1226D02*
X749D01*
X609Y1206D02*
X749D01*
X738Y1166D02*
X749D01*
X691Y1061D02*
Y1073D01*
X668Y864D02*
X749D01*
X811Y786D02*
X973D01*
X691Y969D02*
Y973D01*
X671Y1037D02*
Y1097D01*
X668Y969D02*
X698D01*
X609Y1186D02*
X749D01*
X609Y1166D02*
X702D01*
X609Y1066D02*
X702D01*
X609Y1146D02*
X676D01*
X609Y1086D02*
X677D01*
X609Y1046D02*
X676D01*
X609Y846D02*
X749D01*
X609Y826D02*
X749D01*
X609Y806D02*
X749D01*
X609Y986D02*
X677D01*
X609Y786D02*
X749D01*
X545Y1386D02*
X551D01*
X538Y1406D02*
X551D01*
X544Y1366D02*
X551D01*
X545Y1266D02*
X551D01*
X543Y1286D02*
X551D01*
X546Y1206D02*
X551D01*
X546Y1186D02*
X551D01*
X546Y1166D02*
X551D01*
X609Y1126D02*
X668D01*
X546Y1108D02*
Y1215D01*
Y1146D02*
X551D01*
X546Y1126D02*
X551D01*
X534Y1346D02*
X551D01*
X518Y1426D02*
X551D01*
X497Y1326D02*
X551D01*
X511Y1320D02*
Y1330D01*
X471Y1320D02*
Y1330D01*
X532Y1306D02*
X551D01*
X540Y1246D02*
X551D01*
X531Y1307D02*
Y1343D01*
X522Y1226D02*
X551D01*
X531Y1215D02*
Y1234D01*
X511Y1215D02*
Y1221D01*
X471Y1215D02*
Y1221D01*
X609Y1106D02*
X669D01*
X609Y1026D02*
X668D01*
X671Y969D02*
Y997D01*
X609Y1006D02*
X669D01*
X609Y966D02*
X668D01*
X609Y946D02*
X668D01*
X609Y926D02*
X668D01*
X609Y906D02*
X668D01*
X609Y886D02*
X668D01*
Y864D02*
Y969D01*
X547Y926D02*
X551D01*
X609Y866D02*
X668D01*
X531Y955D02*
Y1108D01*
X494Y986D02*
X551D01*
X522Y966D02*
X551D01*
X511Y975D02*
Y1108D01*
X491Y988D02*
Y1108D01*
X471Y995D02*
Y1108D01*
X547Y846D02*
X551D01*
X537Y946D02*
X551D01*
X537Y826D02*
X551D01*
X521Y806D02*
X551D01*
X493Y786D02*
X551D01*
X971Y555D02*
Y1290D01*
X951Y555D02*
Y1310D01*
X973Y675D02*
Y945D01*
X891Y562D02*
Y1370D01*
X871Y582D02*
Y1390D01*
X811Y643D02*
Y1370D01*
X931Y555D02*
Y1330D01*
X911Y555D02*
Y1350D01*
X851Y400D02*
Y515D01*
X831Y400D02*
Y535D01*
X811Y766D02*
X973D01*
X811Y746D02*
X973D01*
X811Y726D02*
X973D01*
X811Y706D02*
X973D01*
X811Y686D02*
X973D01*
X811Y666D02*
X974D01*
X811Y643D02*
X898Y555D01*
X758Y608D02*
X863Y503D01*
X811Y400D02*
Y555D01*
X771Y400D02*
Y595D01*
X791Y400D02*
Y575D01*
X951Y400D02*
Y418D01*
X931Y400D02*
Y431D01*
X971Y400D02*
Y414D01*
X911Y400D02*
Y495D01*
X885D02*
X925D01*
X891Y400D02*
Y495D01*
X971Y41D02*
Y340D01*
X951Y41D02*
Y340D01*
X931Y41D02*
Y340D01*
X911Y41D02*
Y340D01*
X871Y400D02*
Y498D01*
X891Y41D02*
Y340D01*
X619Y486D02*
X921D01*
X618Y446D02*
X922D01*
X603Y426D02*
X937D01*
X622Y466D02*
X918D01*
X605Y506D02*
X861D01*
X871Y41D02*
Y340D01*
X851Y41D02*
Y340D01*
X831Y41D02*
Y340D01*
X811Y41D02*
Y340D01*
X791Y41D02*
Y340D01*
X771Y41D02*
Y340D01*
X612Y746D02*
X749D01*
X609Y766D02*
X749D01*
Y630D02*
Y864D01*
X609Y726D02*
X749D01*
X731Y400D02*
Y864D01*
X711Y400D02*
Y864D01*
X751Y400D02*
Y619D01*
X691Y400D02*
Y864D01*
X671Y400D02*
Y864D01*
X611Y499D02*
Y732D01*
X591Y515D02*
Y710D01*
X571Y519D02*
Y709D01*
X551Y755D02*
Y858D01*
X491Y515D02*
Y785D01*
X551Y516D02*
Y724D01*
X505Y506D02*
X535D01*
X531Y503D02*
Y818D01*
X511Y499D02*
Y798D01*
X751Y41D02*
Y340D01*
X731Y41D02*
Y340D01*
X711Y41D02*
Y340D01*
X611Y400D02*
Y435D01*
X591Y400D02*
Y419D01*
X571Y408D02*
Y414D01*
X691Y41D02*
Y340D01*
X671Y41D02*
Y340D01*
X651Y41D02*
Y340D01*
X631Y41D02*
Y340D01*
X611Y41D02*
Y340D01*
X591Y41D02*
Y340D01*
X565Y415D02*
X579Y400D01*
X491Y215D02*
Y402D01*
X479Y415D02*
X545Y348D01*
X511Y199D02*
Y382D01*
X551Y41D02*
Y344D01*
X531Y41D02*
Y362D01*
X571Y41D02*
Y340D01*
X511Y41D02*
Y135D01*
X491Y41D02*
Y119D01*
X445Y1426D02*
X466D01*
X439Y1408D02*
X447D01*
X441Y1346D02*
X450D01*
X446Y1326D02*
X487D01*
X445Y1226D02*
X462D01*
X446Y1215D02*
X546D01*
X451Y1305D02*
Y1345D01*
X442Y1306D02*
X452D01*
X451Y1215D02*
Y1236D01*
X439Y1350D02*
X447D01*
X428Y1286D02*
X441D01*
X411Y1266D02*
Y1276D01*
X412Y1266D02*
X439D01*
X437Y1246D02*
X444D01*
X431Y1253D02*
Y1289D01*
X371Y1266D02*
Y1276D01*
X39Y1266D02*
X372D01*
X427Y1106D02*
X551D01*
X397Y1132D02*
X439D01*
Y1108D02*
X546D01*
X439D02*
Y1132D01*
X411Y1128D02*
Y1132D01*
X414Y1126D02*
X439D01*
X451Y999D02*
Y1108D01*
X431Y998D02*
Y1132D01*
X424Y1086D02*
X551D01*
X411Y995D02*
Y1072D01*
X391Y987D02*
Y1068D01*
X227Y1132D02*
X393D01*
X39Y1066D02*
X551D01*
X224Y1130D02*
X384D01*
X140Y1069D02*
X384D01*
X39Y1046D02*
X551D01*
X39Y1026D02*
X551D01*
X39Y1006D02*
X551D01*
X371Y974D02*
Y1069D01*
X39Y986D02*
X390D01*
X269Y1408D02*
X345D01*
X269Y1350D02*
X345D01*
X351Y1251D02*
Y1291D01*
X39Y1426D02*
X339D01*
X39Y1406D02*
X258D01*
X331Y1247D02*
Y1350D01*
X311Y1247D02*
Y1350D01*
X70Y1247D02*
X349D01*
X291D02*
Y1350D01*
X251Y1247D02*
Y1357D01*
X271Y1247D02*
Y1350D01*
X39Y1346D02*
X343D01*
X39Y1306D02*
X342D01*
X39Y1286D02*
X356D01*
X39Y1386D02*
X241D01*
X39Y1366D02*
X244D01*
X39Y1326D02*
X339D01*
X39Y1246D02*
X61D01*
X140Y1146D02*
X181D01*
X171Y1130D02*
Y1183D01*
X131Y1153D02*
Y1183D01*
X111Y1157D02*
Y1183D01*
X153Y1130D02*
X196D01*
X145Y1139D02*
X153Y1130D01*
X351Y953D02*
Y1069D01*
X151Y1132D02*
Y1183D01*
X91Y1147D02*
Y1183D01*
X70D02*
X187D01*
X39Y1166D02*
X178D01*
X39Y1186D02*
X55D01*
X39Y1146D02*
X90D01*
X39Y1126D02*
X83D01*
X101Y1095D02*
X118Y1078D01*
X39Y966D02*
X363D01*
X39Y1106D02*
X89D01*
X39Y1086D02*
X111D01*
X442Y886D02*
Y992D01*
X336Y886D02*
X442D01*
Y780D02*
Y886D01*
X39Y806D02*
X363D01*
X39Y786D02*
X391D01*
X471Y519D02*
Y778D01*
X451Y516D02*
Y774D01*
X431Y503D02*
Y774D01*
X391Y41D02*
Y786D01*
X371Y41D02*
Y799D01*
X411Y41D02*
Y778D01*
X39Y706D02*
X749D01*
X39Y686D02*
X749D01*
X39Y666D02*
X749D01*
X39Y766D02*
X551D01*
X39Y746D02*
X548D01*
X39Y726D02*
X551D01*
X39Y586D02*
X781D01*
X39Y566D02*
X801D01*
X39Y546D02*
X821D01*
X39Y646D02*
X749D01*
X39Y626D02*
X750D01*
X39Y606D02*
X761D01*
X278Y386D02*
X508D01*
X274Y366D02*
X528D01*
X471Y219D02*
Y414D01*
X272Y426D02*
X437D01*
X277Y406D02*
X488D01*
X451Y216D02*
Y418D01*
X471Y41D02*
Y114D01*
X431Y203D02*
Y431D01*
Y41D02*
Y131D01*
X451Y41D02*
Y118D01*
X39Y526D02*
X841D01*
X39Y506D02*
X435D01*
X263Y346D02*
X548D01*
X234Y466D02*
X418D01*
X39Y486D02*
X421D01*
X259Y446D02*
X422D01*
X39Y206D02*
X435D01*
X39Y186D02*
X421D01*
X39Y126D02*
X437D01*
X39Y166D02*
X418D01*
X39Y146D02*
X422D01*
X331Y907D02*
Y1069D01*
X231Y468D02*
Y1069D01*
X211Y474D02*
Y1069D01*
X191Y475D02*
Y1069D01*
X171Y471D02*
Y1069D01*
X151Y461D02*
Y1069D01*
X311Y41D02*
Y1069D01*
X291Y41D02*
Y1069D01*
X331Y41D02*
Y866D01*
X271Y427D02*
Y1069D01*
X131Y442D02*
Y1071D01*
X251Y454D02*
Y1069D01*
X39Y946D02*
X347D01*
X39Y926D02*
X337D01*
X39Y846D02*
X337D01*
X39Y906D02*
X331D01*
X39Y886D02*
X330D01*
X39Y866D02*
X331D01*
X91Y41D02*
Y1103D01*
X71Y41D02*
Y1183D01*
X111Y41D02*
Y1085D01*
X39Y41D02*
Y1204D01*
X51Y41D02*
Y1188D01*
X351Y41D02*
Y820D01*
X197Y394D02*
X272D01*
X271Y41D02*
Y361D01*
X197Y394D02*
Y469D01*
Y319D02*
Y394D01*
X251Y41D02*
Y333D01*
X231Y41D02*
Y320D01*
X211Y41D02*
Y313D01*
X191Y41D02*
Y312D01*
X151Y41D02*
Y326D01*
X131Y41D02*
Y345D01*
X171Y41D02*
Y316D01*
X39Y826D02*
X347D01*
X39Y466D02*
X159D01*
X122Y394D02*
X197D01*
X39Y446D02*
X134D01*
X39Y426D02*
X122D01*
X39Y406D02*
X116D01*
X39Y346D02*
X131D01*
X39Y326D02*
X151D01*
X39Y386D02*
X116D01*
X39Y366D02*
X120D01*
X1115Y775D02*
X1205D01*
X1235Y745D01*
X1415D01*
X1050Y690D02*
X1144Y597D01*
X1050Y690D02*
Y1255D01*
X1080Y745D02*
Y1270D01*
Y745D02*
X1128Y697D01*
X3060Y2655D02*
X3130Y2585D01*
Y2400D02*
Y2585D01*
X3255Y2415D02*
X3345Y2325D01*
X3130Y2400D02*
X3150Y2380D01*
X3255D01*
X3320Y2315D01*
X3345Y1635D02*
Y2325D01*
X3285Y1660D02*
X3320Y1695D01*
Y2315D01*
X2360Y1150D02*
X2410Y1100D01*
X1723Y1150D02*
X2360D01*
X1427Y1050D02*
X2207D01*
X900Y3100D02*
X1185Y3385D01*
X135Y3100D02*
X900D01*
X100Y3065D02*
X135Y3100D01*
X1760Y3315D02*
X1875Y3430D01*
X1430Y3315D02*
X1760D01*
X1005Y2995D02*
X1240Y3230D01*
X255Y2995D02*
X1005D01*
X220Y2960D02*
X255Y2995D01*
X220Y2390D02*
Y2960D01*
X265Y2915D02*
X305Y2955D01*
X1040D01*
X1240Y3230D02*
X1345D01*
X1430Y3315D01*
X1040Y2955D02*
X1265Y3180D01*
X1375D01*
X1430Y3235D01*
X1765D01*
X1910Y3380D01*
X2205D01*
X75Y2335D02*
X100Y2360D01*
Y3065D01*
X75Y2260D02*
X115Y2220D01*
X75Y2260D02*
Y2335D01*
X1045Y2065D02*
X1080Y2030D01*
X580Y2275D02*
X610Y2305D01*
X1112D01*
X930Y1420D02*
X1080Y1270D01*
X1070Y2100D02*
X1090Y2080D01*
Y2135D02*
X1100Y2125D01*
X920Y1795D02*
X930Y1785D01*
Y1420D02*
Y1785D01*
X1592Y1360D02*
X2105D01*
X2145Y1400D01*
Y1490D02*
X2215Y1560D01*
Y1635D01*
X2145Y1400D02*
Y1490D01*
X1170Y1080D02*
X1253Y997D01*
X1170Y1080D02*
Y1610D01*
X1195Y1125D02*
X1223Y1097D01*
X1170Y1610D02*
X1230Y1670D01*
X1195Y1125D02*
Y1595D01*
X1265Y1665D02*
Y1700D01*
X1240Y1725D02*
X1265Y1700D01*
X1195Y1595D02*
X1265Y1665D01*
X1015Y1895D02*
X1090Y1820D01*
X1265D01*
X1410Y1675D01*
D14*
X1760Y2515D02*
D03*
Y2439D02*
D03*
D44*
X1520Y3186D02*
D03*
X1190Y945D02*
D03*
X2995Y2415D02*
D03*
X2946Y856D02*
D03*
Y1165D02*
D03*
X2855Y625D02*
D03*
X3565Y2155D02*
D03*
X2047Y4003D02*
D03*
X2700Y1790D02*
D03*
X1811Y551D02*
D03*
Y394D02*
D03*
Y206D02*
D03*
X2251Y236D02*
D03*
X709Y2756D02*
D03*
X951D02*
D03*
X2765Y2150D02*
D03*
X2588Y1635D02*
D03*
X2750Y1530D02*
D03*
X1528Y1558D02*
D03*
X1020Y1549D02*
D03*
X997Y2017D02*
D03*
X3570Y1427D02*
D03*
X3540Y2352D02*
D03*
X3410Y3185D02*
D03*
X3415Y3061D02*
D03*
X3200Y1515D02*
D03*
X1245Y1300D02*
D03*
D45*
X720Y1887D02*
D03*
X2560Y797D02*
D03*
X1670Y397D02*
D03*
X2260D02*
D03*
X1380D02*
D03*
X1970D02*
D03*
X3990Y1657D02*
D03*
X290Y3450D02*
D03*
X720Y2457D02*
D03*
Y917D02*
D03*
X2815Y2638D02*
D03*
X2860Y717D02*
D03*
X3990Y3547D02*
D03*
D48*
X1670Y897D02*
X1720D01*
X1493Y1197D02*
X1525Y1165D01*
X1380Y1197D02*
X1493D01*
X1515Y450D02*
X1520Y455D01*
X470Y467D02*
X567Y370D01*
X2260Y587D02*
X2345D01*
X2560Y497D02*
X2572D01*
X2435D02*
X2560D01*
X2260Y687D02*
X2335D01*
X2425Y597D02*
X2560D01*
X117Y1488D02*
X492D01*
X140Y1100D02*
X395D01*
X115Y1125D02*
X140Y1100D01*
X115Y1490D02*
X117Y1488D01*
X2455Y387D02*
X2460Y392D01*
X2260Y387D02*
X2455D01*
X890Y1415D02*
Y1740D01*
X1382Y498D02*
X1385Y495D01*
X1133Y497D02*
X1380D01*
X745Y1405D02*
X780Y1370D01*
X885Y525D02*
X1105D01*
X1133Y497D01*
X890Y1415D02*
X1050Y1255D01*
X2140Y792D02*
X2255D01*
X2085Y847D02*
X2140Y792D01*
X1770Y847D02*
X2085D01*
X1720Y897D02*
X1770Y847D01*
X2345Y587D02*
X2435Y497D01*
X2335Y687D02*
X2425Y597D01*
X2900Y570D02*
X3017Y687D01*
X2572Y497D02*
X2645Y570D01*
X2900D01*
X780Y630D02*
Y1370D01*
Y630D02*
X885Y525D01*
X1215Y450D02*
X1515D01*
X1135Y370D02*
X1215Y450D01*
X567Y370D02*
X1135D01*
D49*
X3356Y3061D02*
X3415D01*
X2815Y2838D02*
X2823D01*
X3405Y3185D02*
X3410D01*
X2815Y3038D02*
X2858Y2995D01*
X2360Y1240D02*
Y1820D01*
X2765Y2270D02*
X3240D01*
X1660Y3355D02*
X1665Y3350D01*
X720Y2090D02*
X725D01*
X200D02*
X202Y2088D01*
X175Y2370D02*
X195Y2350D01*
X202Y2088D02*
X392D01*
X3415Y2072D02*
X3453Y2110D01*
X3415Y1670D02*
Y2072D01*
X1520Y545D02*
X1669Y396D01*
X1675Y390D01*
X1760Y2512D02*
X1838D01*
X1929Y2134D02*
X1935Y2140D01*
X1910Y2115D02*
X1929Y2134D01*
X1936Y2135D01*
X1745Y2115D02*
X1910D01*
X1310Y2727D02*
Y2830D01*
X1220Y2854D02*
X1286D01*
X1311Y2479D02*
X1344Y2512D01*
X3275Y2590D02*
Y2595D01*
X2230Y1450D02*
Y1453D01*
X1181Y275D02*
X1185D01*
X2011Y650D02*
X2015Y646D01*
X1724Y745D02*
X1729Y750D01*
X2310Y746D02*
X2311Y745D01*
X3215Y2995D02*
X3405Y3185D01*
X2858Y2995D02*
X3215D01*
X2823Y2838D02*
X2920Y2935D01*
X3230D01*
X3356Y3061D01*
X2317Y1197D02*
X2360Y1240D01*
X2268Y1197D02*
X2317D01*
X1405Y3355D02*
X1660D01*
X200Y3030D02*
X970D01*
X1205Y3265D01*
X175Y3005D02*
X200Y3030D01*
X175Y2370D02*
Y3005D01*
X1205Y3265D02*
X1315D01*
X1405Y3355D01*
X1286Y2854D02*
X1310Y2830D01*
X895Y3580D02*
Y3585D01*
D50*
X2450Y2370D02*
X2825D01*
X2225Y2335D02*
X2415D01*
X2540Y2530D02*
X2870D01*
X1990Y2650D02*
X2040D01*
X2550Y2480D02*
X2800D01*
X2015Y2620D02*
X2410D01*
X2590Y2970D02*
X2760D01*
X2085Y2350D02*
X2095Y2360D01*
X1230Y2187D02*
X1357D01*
X2290Y2670D02*
Y2750D01*
X2135Y2880D02*
X2160D01*
X2220Y2765D02*
X2255Y2730D01*
Y2670D02*
Y2730D01*
X2220Y2205D02*
X2245Y2230D01*
X2220Y2060D02*
Y2205D01*
X2165Y2475D02*
X2185Y2495D01*
X1305Y2425D02*
X1355Y2475D01*
X1230Y2287D02*
Y2290D01*
X1585Y2235D02*
X1980D01*
X1560Y2260D02*
X1585Y2235D01*
X1454Y1934D02*
X1455Y1935D01*
X1191Y1934D02*
X1454D01*
X2039Y2594D02*
X2040D01*
X1660Y2610D02*
X1965D01*
X1365Y2425D02*
X1545D01*
X1230Y2387D02*
X1327D01*
X2555Y2435D02*
X2675D01*
X2142Y2570D02*
X2295D01*
X1635Y1950D02*
X2025D01*
X1620Y1965D02*
X1635Y1950D01*
X2020Y2910D02*
X2710D01*
X2645Y2340D02*
X2725D01*
X1995Y2875D02*
Y2885D01*
X2360Y2140D02*
X2445D01*
X2215Y1800D02*
X2290Y1875D01*
X1330Y3930D02*
Y3960D01*
X515Y3160D02*
X550D01*
X492Y1595D02*
X495D01*
X35D02*
X492D01*
X1395Y2669D02*
X1475Y2749D01*
X1395Y2620D02*
Y2669D01*
X2195Y2670D02*
Y2730D01*
X2230Y2440D02*
Y2495D01*
X2042Y2880D02*
X2045D01*
X1870Y2205D02*
X2035D01*
X2135Y2310D02*
X2160Y2335D01*
Y2370D01*
X2080Y2310D02*
X2135D01*
X2049Y2219D02*
Y2279D01*
Y2279D02*
X2080Y2310D01*
X2035Y2205D02*
X2049Y2219D01*
X2160Y2370D02*
X2230Y2440D01*
X2430Y2640D02*
X2540Y2530D01*
X2425Y2565D02*
X2519Y2471D01*
X2415Y2335D02*
X2450Y2370D01*
X2040Y2650D02*
X2050Y2640D01*
X2430D01*
X2295Y2570D02*
X2300Y2565D01*
X2425D01*
X2030Y2585D02*
X2039Y2594D01*
X1990Y2585D02*
X2030D01*
X1965Y2610D02*
X1990Y2585D01*
X1920Y2310D02*
X1960Y2350D01*
X2085D01*
X1355Y2475D02*
X2165D01*
X1755Y2675D02*
X2045D01*
X2085Y2715D01*
X1995Y2885D02*
X2020Y2910D01*
X2610Y1735D02*
X2670Y1675D01*
X2519Y2471D02*
X2555Y2435D01*
X2410Y2620D02*
X2550Y2480D01*
X2445Y2140D02*
X2645Y2340D01*
X1275Y3875D02*
X1330Y3930D01*
X970Y3875D02*
X1275D01*
X935Y3840D02*
X970Y3875D01*
X935Y3545D02*
Y3840D01*
X550Y3160D02*
X935Y3545D01*
X2215Y1635D02*
Y1800D01*
X2045Y2880D02*
X2195Y2730D01*
X2160Y2880D02*
X2290Y2750D01*
X1327Y2387D02*
X1365Y2425D01*
X1357Y2187D02*
X1480Y2310D01*
X1920D01*
X1605Y2360D02*
X1620Y2335D01*
X1725D01*
X1745Y2665D02*
X1755Y2675D01*
X2085Y2715D02*
Y2765D01*
X2610Y1735D02*
Y1965D01*
X2070Y3005D02*
X2265D01*
X2590D02*
X2680D01*
X2670Y1560D02*
Y1675D01*
X-390Y6180D02*
Y6110D01*
X-355D01*
X-343Y6122D01*
Y6133D01*
X-355Y6145D01*
X-390D01*
X-355D01*
X-343Y6157D01*
Y6168D01*
X-355Y6180D01*
X-390D01*
X-308Y6110D02*
X-285D01*
X-273Y6122D01*
Y6145D01*
X-285Y6157D01*
X-308D01*
X-320Y6145D01*
Y6122D01*
X-308Y6110D01*
X-238Y6168D02*
Y6157D01*
X-250D01*
X-227D01*
X-238D01*
Y6122D01*
X-227Y6110D01*
X-180Y6168D02*
Y6157D01*
X-192D01*
X-168D01*
X-180D01*
Y6122D01*
X-168Y6110D01*
X-122D02*
X-98D01*
X-87Y6122D01*
Y6145D01*
X-98Y6157D01*
X-122D01*
X-133Y6145D01*
Y6122D01*
X-122Y6110D01*
X-63D02*
Y6157D01*
X-52D01*
X-40Y6145D01*
Y6110D01*
Y6145D01*
X-28Y6157D01*
X-17Y6145D01*
Y6110D01*
X77Y6180D02*
Y6110D01*
X123D01*
X158Y6157D02*
X181D01*
X193Y6145D01*
Y6110D01*
X158D01*
X146Y6122D01*
X158Y6133D01*
X193D01*
X216Y6157D02*
Y6122D01*
X228Y6110D01*
X263D01*
Y6098D01*
X251Y6087D01*
X240D01*
X263Y6110D02*
Y6157D01*
X321Y6110D02*
X298D01*
X286Y6122D01*
Y6145D01*
X298Y6157D01*
X321D01*
X333Y6145D01*
Y6133D01*
X286D01*
X356Y6157D02*
Y6110D01*
Y6133D01*
X368Y6145D01*
X380Y6157D01*
X391D01*
D51*
X1970Y1192D02*
X2255D01*
X1965D02*
X1970D01*
X2255D02*
X2255Y1192D01*
X2260Y1187D01*
X1240Y3930D02*
Y4000D01*
X290Y3450D02*
X765D01*
X290D02*
X290D01*
X290Y3450D02*
X290Y3450D01*
X3200Y1405D02*
Y1515D01*
X2946Y1165D02*
X3200Y1405D01*
X2946Y691D02*
Y856D01*
X2855Y625D02*
X2880D01*
X2440Y2427D02*
Y2470D01*
X1930Y2550D02*
X1950Y2530D01*
X1930Y2550D02*
X1930Y2550D01*
X1838Y2512D02*
X1892D01*
X1310Y2479D02*
Y2727D01*
X1344Y2512D02*
X1760D01*
X1001Y1669D02*
Y1733D01*
X1607Y1197D02*
X1670D01*
X1260Y1415D02*
X1389D01*
X1096Y1528D02*
X1097Y1529D01*
X3445Y2277D02*
Y2282D01*
X3510Y1827D02*
Y1832D01*
X1883Y2377D02*
X1930Y2424D01*
X1817Y2377D02*
X1883D01*
X1760Y2434D02*
X1817Y2377D01*
X1760Y2434D02*
Y2439D01*
X315Y3675D02*
X411D01*
X311D02*
X315D01*
X205D02*
X311D01*
Y3676D02*
Y3750D01*
Y3675D02*
Y3676D01*
Y3580D02*
Y3675D01*
X650Y747D02*
X655D01*
X411Y3675D02*
X420Y3666D01*
X1389Y1415D02*
X1607Y1197D01*
X1097Y1529D02*
Y1573D01*
X2880Y625D02*
X2946Y691D01*
X1892Y2512D02*
X1920Y2527D01*
X2168Y2535D02*
X2375D01*
X1950Y2530D02*
X2163D01*
X2168Y2535D01*
X2375D02*
X2440Y2470D01*
X895Y3885D02*
X920Y3910D01*
X1220D01*
X1240Y3930D01*
X1001Y1669D02*
X1097Y1573D01*
X765Y3450D02*
X895Y3580D01*
Y3585D02*
Y3885D01*
D52*
X3025Y695D02*
X3155D01*
X3465Y1175D02*
Y1235D01*
X2860Y917D02*
X3207D01*
X3410Y1230D02*
Y1315D01*
X2860Y1117D02*
X3297D01*
X1920Y3293D02*
X1934Y3308D01*
X1920Y3293D02*
X1920Y3167D01*
X2126Y3198D02*
Y3308D01*
X2090Y3167D02*
X2126Y3198D01*
X391Y1215D02*
X392Y1216D01*
X70Y1215D02*
X391D01*
X1250Y1245D02*
X1465D01*
X1005Y675D02*
Y945D01*
X2260Y1297D02*
X2313D01*
X2560Y395D02*
X2620D01*
X2505D02*
X2560D01*
X2260Y1297D02*
Y1370D01*
Y1250D02*
Y1297D01*
X1820Y2206D02*
X1823D01*
X2191Y1297D02*
Y1330D01*
Y1255D02*
Y1297D01*
X2260D01*
X2157D02*
X2191D01*
X1970D02*
X2021D01*
X1895D02*
X1970D01*
X1670Y1300D02*
X1740D01*
X1596D02*
X1670D01*
X1970Y1000D02*
X2045D01*
X1891D02*
X1970D01*
X1380Y1295D02*
X1435D01*
X1320D02*
X1380D01*
X1670Y995D02*
X1736D01*
X1595D02*
X1670D01*
X1070Y399D02*
Y467D01*
X440Y886D02*
Y1006D01*
Y751D02*
Y886D01*
X2319Y1265D02*
Y1340D01*
X2313Y1297D02*
X2315Y1295D01*
X440Y751D02*
X451Y740D01*
X2014Y946D02*
X2020Y940D01*
X1925Y946D02*
X2014D01*
X1925Y646D02*
X2015D01*
X1631Y745D02*
X1724D01*
X2200Y746D02*
X2310D01*
X2205Y846D02*
X2300D01*
X2215Y946D02*
X2325D01*
X1315Y1300D02*
X1320Y1295D01*
X1615Y1246D02*
X1705D01*
X1591Y1295D02*
X1596Y1300D01*
X1925Y1246D02*
X1983D01*
X1891Y1300D02*
X1895Y1297D01*
X1620Y946D02*
X1740D01*
X1135Y545D02*
X1520D01*
X1005Y675D02*
X1135Y545D01*
X3207Y917D02*
X3465Y1175D01*
X3297Y1117D02*
X3410Y1230D01*
X3017Y687D02*
X3025Y695D01*
D53*
X1575Y2855D02*
X1590Y2840D01*
Y2735D02*
Y2840D01*
X2040Y2594D02*
X2316D01*
D55*
X3565Y2155D02*
X3660Y2250D01*
X470Y3765D02*
Y3768D01*
X1970Y329D02*
Y397D01*
X1380D02*
X1472Y305D01*
X1946D02*
X1970Y329D01*
X1472Y305D02*
X1946D01*
X470Y3795D02*
X555Y3880D01*
Y4005D01*
X630Y4080D01*
X2955D02*
X3390Y3645D01*
X3495D01*
X3660Y3480D01*
X630Y4080D02*
X2955D01*
X3660Y2250D02*
Y3480D01*
D59*
X886Y3248D02*
D03*
X3346Y3937D02*
D03*
X197Y394D02*
D03*
X2835D02*
D03*
D60*
X748Y3740D02*
D03*
X2598D02*
D03*
D61*
X1670Y497D02*
D03*
X1380Y997D02*
D03*
Y1097D02*
D03*
Y897D02*
D03*
X1670Y1297D02*
D03*
Y1197D02*
D03*
Y997D02*
D03*
X720Y1987D02*
D03*
Y2087D02*
D03*
X2560Y597D02*
D03*
Y697D02*
D03*
Y397D02*
D03*
Y497D02*
D03*
X1670Y1097D02*
D03*
Y697D02*
D03*
Y797D02*
D03*
X2260Y1197D02*
D03*
Y1297D02*
D03*
Y1097D02*
D03*
Y897D02*
D03*
Y697D02*
D03*
Y797D02*
D03*
Y497D02*
D03*
Y597D02*
D03*
X1380Y1297D02*
D03*
Y697D02*
D03*
Y797D02*
D03*
Y497D02*
D03*
Y597D02*
D03*
X1670Y897D02*
D03*
X1970Y597D02*
D03*
Y497D02*
D03*
Y797D02*
D03*
Y697D02*
D03*
Y897D02*
D03*
Y997D02*
D03*
Y1297D02*
D03*
Y1197D02*
D03*
X2260Y997D02*
D03*
X1970Y1097D02*
D03*
X1380Y1197D02*
D03*
X1670Y597D02*
D03*
X290Y3250D02*
D03*
Y3350D02*
D03*
X720Y2257D02*
D03*
Y2357D02*
D03*
Y1117D02*
D03*
Y1017D02*
D03*
X970Y467D02*
D03*
X1260Y1515D02*
D03*
Y1415D02*
D03*
X2815Y2938D02*
D03*
Y3038D02*
D03*
Y2738D02*
D03*
Y2838D02*
D03*
X2860Y1017D02*
D03*
Y1117D02*
D03*
Y817D02*
D03*
Y917D02*
D03*
X3990Y1457D02*
D03*
Y1557D02*
D03*
Y1257D02*
D03*
Y1357D02*
D03*
Y1157D02*
D03*
Y957D02*
D03*
Y1057D02*
D03*
Y757D02*
D03*
Y857D02*
D03*
Y3347D02*
D03*
Y3447D02*
D03*
Y3147D02*
D03*
Y3247D02*
D03*
Y3047D02*
D03*
Y2847D02*
D03*
Y2947D02*
D03*
Y2647D02*
D03*
Y2747D02*
D03*
X1070Y467D02*
D03*
X570Y467D02*
D03*
X470D02*
D03*
Y167D02*
D03*
X1070D02*
D03*
D62*
X1019Y3795D02*
D03*
X492Y1161D02*
D03*
D63*
X1128Y3795D02*
D03*
X1237D02*
D03*
X1346D02*
D03*
X1455D02*
D03*
X1564D02*
D03*
X1673D02*
D03*
X1782D02*
D03*
X1891D02*
D03*
X2000D02*
D03*
X2109D02*
D03*
X2218D02*
D03*
X2327D02*
D03*
X1074Y3685D02*
D03*
X1183D02*
D03*
X1292D02*
D03*
X1401D02*
D03*
X1510D02*
D03*
X1619D02*
D03*
X1728D02*
D03*
X1837D02*
D03*
X1946D02*
D03*
X2055D02*
D03*
X2164D02*
D03*
X2273D02*
D03*
X392Y2415D02*
D03*
Y2306D02*
D03*
Y2197D02*
D03*
Y1979D02*
D03*
Y1870D02*
D03*
Y1761D02*
D03*
Y1652D02*
D03*
Y1543D02*
D03*
Y1325D02*
D03*
Y1216D02*
D03*
X492Y2469D02*
D03*
Y2360D02*
D03*
Y2251D02*
D03*
Y2142D02*
D03*
Y2033D02*
D03*
Y1815D02*
D03*
Y1706D02*
D03*
Y1597D02*
D03*
Y1488D02*
D03*
Y1379D02*
D03*
Y1270D02*
D03*
Y1924D02*
D03*
X392Y1433D02*
D03*
Y2088D02*
D03*
D64*
X470Y3977D02*
D03*
D65*
Y3768D02*
D03*
D66*
X1220Y2677D02*
D03*
Y2559D02*
D03*
Y2618D02*
D03*
Y2795D02*
D03*
Y2854D02*
D03*
Y2736D02*
D03*
X2580Y2805D02*
D03*
Y2746D02*
D03*
Y2864D02*
D03*
Y2628D02*
D03*
Y2569D02*
D03*
Y2687D02*
D03*
D67*
X315Y3976D02*
D03*
D68*
Y3826D02*
D03*
Y3676D02*
D03*
X1670Y197D02*
D03*
X3780Y2047D02*
D03*
Y3937D02*
D03*
Y3740D02*
D03*
Y1850D02*
D03*
Y3543D02*
D03*
Y1654D02*
D03*
Y3346D02*
D03*
Y1457D02*
D03*
Y3150D02*
D03*
Y1260D02*
D03*
Y2953D02*
D03*
Y1063D02*
D03*
Y2756D02*
D03*
Y866D02*
D03*
Y2559D02*
D03*
Y669D02*
D03*
Y2362D02*
D03*
Y472D02*
D03*
D69*
X1934Y3308D02*
D03*
X2126D02*
D03*
D70*
X2717Y3642D02*
D03*
Y3843D02*
D03*
Y3543D02*
D03*
Y3937D02*
D03*
X630Y3642D02*
D03*
Y3843D02*
D03*
Y3543D02*
D03*
Y3937D02*
D03*
D71*
X1130Y2387D02*
D03*
D72*
X1230D02*
D03*
X1130Y2287D02*
D03*
X1230D02*
D03*
X1130Y2187D02*
D03*
X1230D02*
D03*
D73*
X442Y886D02*
D03*
Y2744D02*
D03*
D74*
X2070Y3005D02*
D03*
X2265D02*
D03*
X2590D02*
D03*
X2680D02*
D03*
X2610Y1965D02*
D03*
X2670Y1560D02*
D03*
X3130Y1865D02*
D03*
X2825Y2370D02*
D03*
Y2020D02*
D03*
X2530Y1345D02*
D03*
X2640Y2295D02*
D03*
X2675Y2435D02*
D03*
X2142Y2570D02*
D03*
X2225Y2335D02*
D03*
X1725D02*
D03*
X1230Y1725D02*
D03*
Y1680D02*
D03*
X1810Y1675D02*
D03*
X1800Y1450D02*
D03*
X1900Y1405D02*
D03*
X780Y1895D02*
D03*
X810Y1795D02*
D03*
Y2135D02*
D03*
X835Y2100D02*
D03*
X1340Y2125D02*
D03*
X790Y2380D02*
D03*
X1548Y897D02*
D03*
X1250Y1245D02*
D03*
X580Y740D02*
D03*
X1415Y2080D02*
D03*
X835Y2065D02*
D03*
X1505Y2030D02*
D03*
X1150Y1955D02*
D03*
X875D02*
D03*
X115Y1125D02*
D03*
X395Y1100D02*
D03*
X890Y1740D02*
D03*
X1005Y945D02*
D03*
X1520Y455D02*
D03*
X1525Y1165D02*
D03*
X745Y1405D02*
D03*
X115Y1490D02*
D03*
X1455Y1935D02*
D03*
X1191Y1934D02*
D03*
X115Y1635D02*
D03*
X210Y1160D02*
D03*
X200Y2090D02*
D03*
X255Y1820D02*
D03*
X2250Y3425D02*
D03*
X265Y2420D02*
D03*
X245Y2365D02*
D03*
X1900Y3430D02*
D03*
X195Y2350D02*
D03*
X1665Y3350D02*
D03*
X1280Y3385D02*
D03*
X115Y2305D02*
D03*
X70Y1215D02*
D03*
X35Y1595D02*
D03*
X515Y3160D02*
D03*
X1330Y3960D02*
D03*
X1240Y4000D02*
D03*
X2025Y1950D02*
D03*
X1620Y1965D02*
D03*
X1525Y1427D02*
D03*
X2725Y2340D02*
D03*
X2360Y2140D02*
D03*
X2290Y1875D02*
D03*
X2710Y2910D02*
D03*
X2760Y2970D02*
D03*
X2590D02*
D03*
X1745Y2665D02*
D03*
X1605Y2360D02*
D03*
X2185Y2495D02*
D03*
X1305Y2425D02*
D03*
X2095Y2360D02*
D03*
X1765Y1770D02*
D03*
X1660Y2610D02*
D03*
X1545Y2425D02*
D03*
X1575Y2855D02*
D03*
X1590Y2735D02*
D03*
X2230Y2495D02*
D03*
X1870Y2205D02*
D03*
X2195Y2670D02*
D03*
X1560Y2260D02*
D03*
X1980Y2235D02*
D03*
X2245Y2230D02*
D03*
X2040Y2594D02*
D03*
X2255Y2670D02*
D03*
X2290D02*
D03*
X3035Y1660D02*
D03*
X3060Y2655D02*
D03*
X3270Y1560D02*
D03*
X3180Y2415D02*
D03*
X1465Y1245D02*
D03*
X2800Y2480D02*
D03*
X2360Y1820D02*
D03*
X1995Y2875D02*
D03*
X2042Y2880D02*
D03*
X2085Y2765D02*
D03*
X2220D02*
D03*
Y2060D02*
D03*
X2316Y2594D02*
D03*
X1110Y780D02*
D03*
X1395Y2620D02*
D03*
X1475Y2749D02*
D03*
X2135Y2880D02*
D03*
D75*
X2870Y2530D02*
D03*
X1990Y2650D02*
D03*
X2015Y2620D02*
D03*
D76*
X1823Y2206D02*
D03*
X1935Y2140D02*
D03*
X1425Y755D02*
D03*
D77*
X2765Y2270D02*
D03*
X3240D02*
D03*
X925Y4017D02*
D03*
X1395Y4003D02*
D03*
X1160Y3962D02*
D03*
X1554Y3563D02*
D03*
X1010Y3507D02*
D03*
X1370Y3442D02*
D03*
X1815Y3447D02*
D03*
X2330Y3502D02*
D03*
X1920Y3167D02*
D03*
X2090D02*
D03*
X2025Y3050D02*
D03*
X2255Y3142D02*
D03*
X2590Y2332D02*
D03*
X2440Y2427D02*
D03*
X3436Y3346D02*
D03*
X3435Y3545D02*
D03*
X3542Y2559D02*
D03*
X3540Y2757D02*
D03*
Y2952D02*
D03*
X3535Y3147D02*
D03*
X3445Y2277D02*
D03*
X3720Y2252D02*
D03*
X3510Y1832D02*
D03*
X3505Y1707D02*
D03*
X3535Y1257D02*
D03*
X3584Y398D02*
D03*
X3540Y692D02*
D03*
Y867D02*
D03*
Y1062D02*
D03*
X3170Y622D02*
D03*
X3185Y1262D02*
D03*
X3125Y1487D02*
D03*
X2460Y392D02*
D03*
X1380Y112D02*
D03*
X400Y717D02*
D03*
X1020Y587D02*
D03*
X650Y747D02*
D03*
X659Y1277D02*
D03*
X845Y1117D02*
D03*
X2410Y1047D02*
D03*
X1310Y2727D02*
D03*
X970Y1818D02*
D03*
X1415Y1860D02*
D03*
X1134Y1625D02*
D03*
X1115Y1400D02*
D03*
X1311Y2479D02*
D03*
X1838Y2512D02*
D03*
X1817Y2377D02*
D03*
X1913Y2753D02*
D03*
X1745Y2115D02*
D03*
X1685Y1980D02*
D03*
X1096Y1528D02*
D03*
X1001Y1733D02*
D03*
X2637Y2218D02*
D03*
X1181Y275D02*
D03*
X3245Y1175D02*
D03*
X2870Y1520D02*
D03*
X2645Y1150D02*
D03*
X2925Y2005D02*
D03*
X2400Y2040D02*
D03*
X2290Y1815D02*
D03*
X1988Y1860D02*
D03*
X2070Y1470D02*
D03*
X2230Y1453D02*
D03*
X2425Y1385D02*
D03*
X1450Y2130D02*
D03*
X2465Y2310D02*
D03*
X2960Y2800D02*
D03*
X2820Y3155D02*
D03*
X3190Y3100D02*
D03*
X3275Y2900D02*
D03*
Y2590D02*
D03*
X3435Y3735D02*
D03*
X3000Y975D02*
D03*
X1625Y3280D02*
D03*
X3410Y1315D02*
D03*
X3465Y1235D02*
D03*
X3155Y695D02*
D03*
X3453Y2110D02*
D03*
X3415Y1670D02*
D03*
X2120Y2265D02*
D03*
D78*
X1930Y2550D02*
D03*
Y2424D02*
D03*
M02*
