;Layer_Color=12632256
M48
;FILE_FORMAT=2:3
INCH,LZ
;TYPE=PLATED
T1F00S00C0.012
T2F00S00C0.016
T3F00S00C0.024
T4F00S00C0.028
T5F00S00C0.031
T6F00S00C0.035
T7F00S00C0.039
T8F00S00C0.051
T9F00S00C0.118
T10F00S00C0.126
%
T01
X0152Y00455
X03035Y0166
X0313Y01865
X0327Y0156
X02825Y0202
X0261Y01965
X0236Y0182
X0229Y01875
X0222Y0206
X02025Y0195
X0162Y01965
X01505Y0203
X01415Y0208
X01455Y01935
X01191Y01934
X0123Y01725
Y0168
X0125Y01245
X01465
X01525Y01165
Y01427
X018Y0145
X019Y01405
X0181Y01675
X01765Y0177
X01548Y00897
X0253Y01345
X0267Y0156
X0115Y01955
X00875
X00835Y02065
Y021
X0078Y01895
X0081Y01795
X0089Y0174
X00745Y01405
X00395Y011
X0021Y0116
X00115Y01125
X0007Y01215
X00115Y0149
Y01635
X00035Y01595
X00255Y0182
X002Y0209
X0058Y0074
X0111Y0078
X01005Y00945
X0081Y02135
X0079Y0238
X00245Y02365
X00195Y0235
X00115Y02305
X00265Y0242
X00515Y0316
X0128Y03385
X01665Y0335
X019Y0343
X0225Y03425
X02265Y03005
X0207
X02042Y0288
X01995Y02875
X02135Y0288
X02085Y02765
X0222
X02195Y0267
X02255
X0229
X02316Y02594
X0223Y02495
X02185Y02495
X02142Y0257
X0204Y02594
X02095Y0236
X02225Y02335
X02245Y0223
X0236Y0214
X0264Y02295
X02675Y02435
X0271Y0291
X0268Y03005
X0259
Y0297
X01575Y02855
X0159Y02735
X01475Y02749
X01395Y0262
X0166Y0261
X01745Y02665
X01725Y02335
X01605Y0236
X01545Y02425
X0156Y0226
X0134Y02125
X01305Y02425
X0187Y02205
X0198Y02235
X02725Y0234
X02825Y0237
X028Y0248
X0306Y02655
X0318Y02415
X0276Y0297
X0133Y0396
X0124Y04
T02
X01181Y00275
X0138Y00112
X0246Y00392
X03584Y00398
X0354Y00692
Y00867
Y01062
X03535Y01257
X03465Y01235
X0341Y01315
X03185Y01262
X03245Y01175
X03125Y01487
X0287Y0152
X02925Y02005
X03453Y0211
X0351Y01832
X03505Y01707
X03415Y0167
X03Y00975
X03155Y00695
X0317Y00622
X02645Y0115
X0241Y01047
X02425Y01385
X0223Y01453
X0207Y0147
X01988Y0186
X0229Y01815
X024Y0204
X01745Y02115
X01685Y0198
X01415Y0186
X01425Y00755
X0102Y00587
X0065Y00747
X004Y00717
X00659Y01277
X00845Y01117
X01115Y014
X01096Y01528
X01134Y01625
X01001Y01733
X0097Y01818
X0101Y03507
X0137Y03442
X01554Y03563
X01625Y0328
X01815Y03447
X0192Y03167
X0209
X02025Y0305
X02255Y03142
X0233Y03502
X01913Y02753
X01838Y02512
X01817Y02377
X01823Y02206
X01935Y0214
X0212Y02265
X02465Y0231
X0244Y02427
X0259Y02332
X02637Y02218
X0145Y0213
X01311Y02479
X0131Y02727
X0296Y028
X03275Y029
X0319Y031
X03535Y03147
X0354Y02952
Y02757
X03542Y02559
X03275Y0259
X0324Y0227
X03445Y02277
X0372Y02252
X02765Y0227
X0282Y03155
X03436Y03346
X03435Y03545
Y03735
X01395Y04003
X0116Y03962
X00925Y04017
T03
X01811Y00206
Y00394
Y00551
X02251Y00236
X02855Y00625
X02946Y00856
Y01165
X0275Y0153
X032Y01515
X0357Y01427
X02588Y01635
X027Y0179
X01528Y01558
X01245Y013
X0119Y00945
X0102Y01549
X00997Y02017
X00951Y02756
X00709
X0152Y03186
X0199Y0265
X02015Y0262
X0287Y0253
X02995Y02415
X02765Y0215
X03565Y02155
X0354Y02352
X03415Y03061
X0341Y03185
X02047Y04003
T04
X0063Y03543
Y03642
X01934Y03308
X02126
X02717Y03543
Y03642
Y03843
Y03937
X0063
Y03843
T05
X0047Y00167
Y00467
X0057
X0097
X0107Y00467
X0107Y00167
X0126Y01415
Y01515
X00492Y01488
Y01597
Y01706
Y01815
Y01924
Y02033
X00392Y01979
Y0187
Y01761
Y01652
Y01543
Y01433
Y01325
Y01216
X00492Y0127
Y01379
Y01161
X00392Y02088
Y02197
Y02306
Y02415
X00492Y02469
Y0236
Y02251
Y02142
X0122Y02559
Y02618
Y02677
Y02736
Y02795
Y02854
X0258Y02864
Y02805
Y02746
Y02687
Y02628
Y02569
X02273Y03685
X02164
X02055
X01946
X01837
X01728
X01619
X0151
X01401
X01292
X01183
X01237Y03795
X01346
X01455
X01564
X01673
X01782
X01891
X02
X02109
X02218
X02327
X01128
X01019
X01074Y03685
X0047Y03768
Y03977
T06
X0138Y00397
Y00497
X0167
Y00397
X0197
Y00497
X0226
Y00397
X0256
Y00497
X0286Y00717
Y00817
Y00917
Y01017
Y01117
X0399Y01157
Y01257
Y01357
Y01457
Y01557
Y01657
Y01057
Y00957
Y00857
Y00757
X0256Y00797
Y00697
Y00597
X0226
Y00697
Y00797
Y00897
Y00997
Y01097
Y01197
Y01297
X0197
Y01197
Y01097
Y00997
Y00897
Y00797
Y00697
Y00597
X0167
Y00697
Y00797
Y00897
Y00997
Y01097
Y01197
Y01297
X0138
Y01197
Y01097
Y00997
Y00897
Y00797
Y00697
Y00597
X0072Y00917
Y01017
Y01117
Y01887
Y01987
Y02087
Y02257
Y02357
Y02457
X0029Y0325
Y0335
Y0345
X02815Y03038
Y02938
Y02838
Y02738
Y02638
X0399Y02647
Y02747
Y02847
Y02947
Y03047
Y03147
Y03247
Y03347
Y03447
Y03547
T07
X0167Y00197
X0378Y00472
Y00669
Y00866
Y01063
Y0126
Y01457
Y01654
Y0185
Y02047
X0113Y02187
Y02287
Y02387
X0123
Y02287
Y02187
X0378Y02362
Y02559
Y02756
Y02953
Y0315
Y03346
Y03543
Y0374
Y03937
T08
X00315Y03676
Y03826
Y03976
T09
X00197Y00394
X02835
X00886Y03248
X03346Y03937
X02598Y0374
X00748
T10
X00442Y00886
Y02744
M30
