%FSLAX23Y23*%
%MOIN*%
G70*
G01*
G75*
G04 Layer_Color=61183*
%ADD10C,0.013*%
%ADD11R,0.024X0.080*%
%ADD12O,0.024X0.080*%
%ADD13R,0.039X0.071*%
%ADD14R,0.057X0.035*%
%ADD15R,0.035X0.057*%
%ADD16R,0.036X0.036*%
%ADD17R,0.060X0.052*%
%ADD18O,0.030X0.020*%
%ADD19O,0.030X0.059*%
%ADD20O,0.028X0.059*%
%ADD21R,0.071X0.126*%
%ADD22R,0.036X0.050*%
%ADD23R,0.050X0.036*%
%ADD24R,0.095X0.091*%
%ADD25R,0.071X0.039*%
%ADD26R,0.079X0.079*%
%ADD27R,0.051X0.079*%
%ADD28R,0.052X0.060*%
%ADD29O,0.059X0.028*%
%ADD30O,0.059X0.030*%
%ADD31O,0.020X0.030*%
%ADD32R,0.063X0.071*%
%ADD33O,0.013X0.055*%
%ADD34R,0.013X0.055*%
%ADD35O,0.080X0.024*%
%ADD36R,0.037X0.037*%
%ADD37R,0.033X0.037*%
%ADD38R,0.114X0.095*%
%ADD39O,0.067X0.047*%
%ADD40O,0.031X0.043*%
%ADD41O,0.047X0.067*%
%ADD42O,0.043X0.031*%
%ADD43R,0.060X0.100*%
%ADD44C,0.050*%
%ADD45R,0.060X0.060*%
%ADD46R,0.050X0.060*%
%ADD47R,0.079X0.051*%
%ADD48C,0.016*%
%ADD49C,0.024*%
%ADD50C,0.010*%
%ADD51C,0.032*%
%ADD52C,0.020*%
%ADD53C,0.008*%
%ADD54C,0.080*%
%ADD55C,0.050*%
%ADD56C,0.100*%
%ADD57C,0.040*%
%ADD58C,0.005*%
%ADD59C,0.118*%
%ADD60C,0.150*%
%ADD61C,0.060*%
%ADD62R,0.062X0.062*%
%ADD63C,0.062*%
%ADD64R,0.064X0.064*%
%ADD65C,0.064*%
%ADD66R,0.050X0.040*%
%ADD67R,0.100X0.100*%
%ADD68C,0.100*%
%ADD69C,0.047*%
%ADD70O,0.060X0.079*%
%ADD71R,0.070X0.070*%
%ADD72C,0.070*%
%ADD73C,0.180*%
%ADD74C,0.022*%
%ADD75C,0.016*%
%ADD76C,0.028*%
%ADD77C,0.032*%
%ADD78R,0.071X0.063*%
%ADD79C,0.008*%
%ADD80C,0.010*%
%ADD81C,0.012*%
%ADD82C,0.004*%
%ADD83R,0.028X0.084*%
%ADD84O,0.028X0.084*%
%ADD85R,0.043X0.075*%
%ADD86R,0.061X0.039*%
%ADD87R,0.039X0.061*%
%ADD88R,0.040X0.040*%
%ADD89R,0.064X0.056*%
%ADD90O,0.034X0.024*%
%ADD91O,0.034X0.063*%
%ADD92O,0.032X0.063*%
%ADD93R,0.075X0.130*%
%ADD94R,0.040X0.054*%
%ADD95R,0.054X0.040*%
%ADD96R,0.099X0.095*%
%ADD97R,0.075X0.043*%
%ADD98R,0.083X0.083*%
%ADD99R,0.055X0.083*%
%ADD100R,0.056X0.064*%
%ADD101O,0.063X0.032*%
%ADD102O,0.063X0.034*%
%ADD103O,0.024X0.034*%
%ADD104R,0.067X0.075*%
%ADD105O,0.017X0.059*%
%ADD106R,0.017X0.059*%
%ADD107O,0.084X0.028*%
%ADD108R,0.041X0.041*%
%ADD109R,0.037X0.041*%
%ADD110R,0.118X0.099*%
%ADD111O,0.071X0.051*%
%ADD112O,0.035X0.047*%
%ADD113O,0.051X0.071*%
%ADD114O,0.047X0.035*%
%ADD115R,0.064X0.104*%
%ADD116C,0.054*%
%ADD117R,0.054X0.064*%
%ADD118R,0.083X0.055*%
%ADD119C,0.122*%
%ADD120C,0.154*%
%ADD121R,0.066X0.066*%
%ADD122C,0.066*%
%ADD123R,0.068X0.068*%
%ADD124C,0.068*%
%ADD125R,0.054X0.044*%
%ADD126R,0.104X0.104*%
%ADD127C,0.104*%
%ADD128C,0.051*%
%ADD129O,0.064X0.083*%
%ADD130R,0.074X0.074*%
%ADD131C,0.074*%
%ADD132C,0.184*%
%ADD133R,0.075X0.067*%
%ADD134C,0.004*%
%ADD135C,0.007*%
D50*
X1084Y4792D02*
Y4722D01*
X1119D01*
X1131Y4734D01*
Y4781D01*
X1119Y4792D01*
X1084D01*
X1154Y4769D02*
Y4722D01*
Y4746D01*
X1166Y4757D01*
X1178Y4769D01*
X1189D01*
X1224Y4722D02*
X1248D01*
X1236D01*
Y4769D01*
X1224D01*
X1283Y4722D02*
X1306D01*
X1294D01*
Y4792D01*
X1283D01*
X1341Y4722D02*
X1364D01*
X1353D01*
Y4792D01*
X1341D01*
X1469D02*
Y4722D01*
X1504D01*
X1516Y4734D01*
Y4781D01*
X1504Y4792D01*
X1469D01*
X1539Y4769D02*
Y4722D01*
Y4746D01*
X1551Y4757D01*
X1563Y4769D01*
X1574D01*
X1621D02*
X1644D01*
X1656Y4757D01*
Y4722D01*
X1621D01*
X1609Y4734D01*
X1621Y4746D01*
X1656D01*
X1679Y4769D02*
Y4734D01*
X1691Y4722D01*
X1703Y4734D01*
X1714Y4722D01*
X1726Y4734D01*
Y4769D01*
X1749Y4722D02*
X1773D01*
X1761D01*
Y4769D01*
X1749D01*
X1808Y4722D02*
Y4769D01*
X1843D01*
X1854Y4757D01*
Y4722D01*
X1901Y4699D02*
X1913D01*
X1924Y4711D01*
Y4769D01*
X1889D01*
X1878Y4757D01*
Y4734D01*
X1889Y4722D01*
X1924D01*
X2017D02*
X2064Y4769D01*
X2157Y4792D02*
Y4722D01*
Y4757D01*
X2204D01*
Y4792D01*
Y4722D01*
X2239D02*
X2262D01*
X2274Y4734D01*
Y4757D01*
X2262Y4769D01*
X2239D01*
X2227Y4757D01*
Y4734D01*
X2239Y4722D01*
X2297D02*
X2321D01*
X2309D01*
Y4792D01*
X2297D01*
X2391Y4722D02*
X2367D01*
X2356Y4734D01*
Y4757D01*
X2367Y4769D01*
X2391D01*
X2402Y4757D01*
Y4746D01*
X2356D01*
D82*
X1835Y2206D02*
G03*
X1835Y2206I-12J0D01*
G01*
X1947Y2140D02*
G03*
X1947Y2140I-12J0D01*
G01*
X1437Y755D02*
G03*
X1437Y755I-12J0D01*
G01*
X2777Y2270D02*
G03*
X2777Y2270I-12J0D01*
G01*
X3252D02*
G03*
X3252Y2270I-12J0D01*
G01*
X937Y4017D02*
G03*
X937Y4017I-12J0D01*
G01*
X1407Y4003D02*
G03*
X1407Y4003I-12J0D01*
G01*
X1172Y3962D02*
G03*
X1172Y3962I-12J0D01*
G01*
X1566Y3563D02*
G03*
X1566Y3563I-12J0D01*
G01*
X1022Y3507D02*
G03*
X1022Y3507I-12J0D01*
G01*
X1382Y3442D02*
G03*
X1382Y3442I-12J0D01*
G01*
X1827Y3447D02*
G03*
X1827Y3447I-12J0D01*
G01*
X2342Y3502D02*
G03*
X2342Y3502I-12J0D01*
G01*
X1932Y3167D02*
G03*
X1932Y3167I-12J0D01*
G01*
X2102D02*
G03*
X2102Y3167I-12J0D01*
G01*
X2037Y3050D02*
G03*
X2037Y3050I-12J0D01*
G01*
X2267Y3142D02*
G03*
X2267Y3142I-12J0D01*
G01*
X2602Y2332D02*
G03*
X2602Y2332I-12J0D01*
G01*
X2452Y2427D02*
G03*
X2452Y2427I-12J0D01*
G01*
X3448Y3346D02*
G03*
X3448Y3346I-12J0D01*
G01*
X3447Y3545D02*
G03*
X3447Y3545I-12J0D01*
G01*
X3554Y2559D02*
G03*
X3554Y2559I-12J0D01*
G01*
X3552Y2757D02*
G03*
X3552Y2757I-12J0D01*
G01*
Y2952D02*
G03*
X3552Y2952I-12J0D01*
G01*
X3547Y3147D02*
G03*
X3547Y3147I-12J0D01*
G01*
X3457Y2277D02*
G03*
X3457Y2277I-12J0D01*
G01*
X3732Y2252D02*
G03*
X3732Y2252I-12J0D01*
G01*
X3522Y1832D02*
G03*
X3522Y1832I-12J0D01*
G01*
X3517Y1707D02*
G03*
X3517Y1707I-12J0D01*
G01*
X3547Y1257D02*
G03*
X3547Y1257I-12J0D01*
G01*
X3596Y398D02*
G03*
X3596Y398I-12J0D01*
G01*
X3552Y692D02*
G03*
X3552Y692I-12J0D01*
G01*
Y867D02*
G03*
X3552Y867I-12J0D01*
G01*
Y1062D02*
G03*
X3552Y1062I-12J0D01*
G01*
X3182Y622D02*
G03*
X3182Y622I-12J0D01*
G01*
X3197Y1262D02*
G03*
X3197Y1262I-12J0D01*
G01*
X3137Y1487D02*
G03*
X3137Y1487I-12J0D01*
G01*
X2472Y392D02*
G03*
X2472Y392I-12J0D01*
G01*
X1392Y112D02*
G03*
X1392Y112I-12J0D01*
G01*
X412Y717D02*
G03*
X412Y717I-12J0D01*
G01*
X1032Y587D02*
G03*
X1032Y587I-12J0D01*
G01*
X662Y747D02*
G03*
X662Y747I-12J0D01*
G01*
X671Y1277D02*
G03*
X671Y1277I-12J0D01*
G01*
X857Y1117D02*
G03*
X857Y1117I-12J0D01*
G01*
X2422Y1047D02*
G03*
X2422Y1047I-12J0D01*
G01*
X1322Y2727D02*
G03*
X1322Y2727I-12J0D01*
G01*
X982Y1818D02*
G03*
X982Y1818I-12J0D01*
G01*
X1427Y1860D02*
G03*
X1427Y1860I-12J0D01*
G01*
X1146Y1625D02*
G03*
X1146Y1625I-12J0D01*
G01*
X1127Y1400D02*
G03*
X1127Y1400I-12J0D01*
G01*
X1323Y2479D02*
G03*
X1323Y2479I-12J0D01*
G01*
X1850Y2512D02*
G03*
X1850Y2512I-12J0D01*
G01*
X1829Y2377D02*
G03*
X1829Y2377I-12J0D01*
G01*
X1925Y2753D02*
G03*
X1925Y2753I-12J0D01*
G01*
X1757Y2115D02*
G03*
X1757Y2115I-12J0D01*
G01*
X1697Y1980D02*
G03*
X1697Y1980I-12J0D01*
G01*
X1108Y1528D02*
G03*
X1108Y1528I-12J0D01*
G01*
X1013Y1733D02*
G03*
X1013Y1733I-12J0D01*
G01*
X2649Y2218D02*
G03*
X2649Y2218I-12J0D01*
G01*
X1193Y275D02*
G03*
X1193Y275I-12J0D01*
G01*
X3257Y1175D02*
G03*
X3257Y1175I-12J0D01*
G01*
X2882Y1520D02*
G03*
X2882Y1520I-12J0D01*
G01*
X2657Y1150D02*
G03*
X2657Y1150I-12J0D01*
G01*
X2937Y2005D02*
G03*
X2937Y2005I-12J0D01*
G01*
X2412Y2040D02*
G03*
X2412Y2040I-12J0D01*
G01*
X2302Y1815D02*
G03*
X2302Y1815I-12J0D01*
G01*
X2000Y1860D02*
G03*
X2000Y1860I-12J0D01*
G01*
X2082Y1470D02*
G03*
X2082Y1470I-12J0D01*
G01*
X2242Y1453D02*
G03*
X2242Y1453I-12J0D01*
G01*
X2437Y1385D02*
G03*
X2437Y1385I-12J0D01*
G01*
X1462Y2130D02*
G03*
X1462Y2130I-12J0D01*
G01*
X2477Y2310D02*
G03*
X2477Y2310I-12J0D01*
G01*
X2972Y2800D02*
G03*
X2972Y2800I-12J0D01*
G01*
X2832Y3155D02*
G03*
X2832Y3155I-12J0D01*
G01*
X3202Y3100D02*
G03*
X3202Y3100I-12J0D01*
G01*
X3287Y2900D02*
G03*
X3287Y2900I-12J0D01*
G01*
Y2590D02*
G03*
X3287Y2590I-12J0D01*
G01*
X3447Y3735D02*
G03*
X3447Y3735I-12J0D01*
G01*
X3012Y975D02*
G03*
X3012Y975I-12J0D01*
G01*
X1637Y3280D02*
G03*
X1637Y3280I-12J0D01*
G01*
X3422Y1315D02*
G03*
X3422Y1315I-12J0D01*
G01*
X3477Y1235D02*
G03*
X3477Y1235I-12J0D01*
G01*
X3167Y695D02*
G03*
X3167Y695I-12J0D01*
G01*
X3465Y2110D02*
G03*
X3465Y2110I-12J0D01*
G01*
X3427Y1670D02*
G03*
X3427Y1670I-12J0D01*
G01*
X2132Y2265D02*
G03*
X2132Y2265I-12J0D01*
G01*
D134*
X866Y3228D02*
Y3268D01*
X906D01*
Y3228D01*
X866D01*
X3326Y3917D02*
Y3957D01*
X3366D01*
Y3917D01*
X3326D01*
X177Y374D02*
Y414D01*
X217D01*
Y374D01*
X177D01*
X728Y3720D02*
Y3760D01*
X768D01*
Y3720D01*
X728D01*
X2578D02*
Y3760D01*
X2618D01*
Y3720D01*
X2578D01*
X970Y447D02*
X950Y487D01*
X990D01*
X970Y447D01*
X1260Y1495D02*
X1240Y1535D01*
X1280D01*
X1260Y1495D01*
Y1395D02*
X1240Y1435D01*
X1280D01*
X1260Y1395D01*
X1019Y3775D02*
X999Y3815D01*
X1039D01*
X1019Y3775D01*
X1128D02*
X1108Y3815D01*
X1148D01*
X1128Y3775D01*
X1237D02*
X1217Y3815D01*
X1257D01*
X1237Y3775D01*
X1346D02*
X1326Y3815D01*
X1366D01*
X1346Y3775D01*
X1455D02*
X1435Y3815D01*
X1475D01*
X1455Y3775D01*
X1564D02*
X1544Y3815D01*
X1584D01*
X1564Y3775D01*
X1673D02*
X1653Y3815D01*
X1693D01*
X1673Y3775D01*
X1782D02*
X1762Y3815D01*
X1802D01*
X1782Y3775D01*
X1891D02*
X1871Y3815D01*
X1911D01*
X1891Y3775D01*
X2000D02*
X1980Y3815D01*
X2020D01*
X2000Y3775D01*
X2109D02*
X2089Y3815D01*
X2129D01*
X2109Y3775D01*
X2218D02*
X2198Y3815D01*
X2238D01*
X2218Y3775D01*
X2327D02*
X2307Y3815D01*
X2347D01*
X2327Y3775D01*
X1074Y3665D02*
X1054Y3705D01*
X1094D01*
X1074Y3665D01*
X1183D02*
X1163Y3705D01*
X1203D01*
X1183Y3665D01*
X1292D02*
X1272Y3705D01*
X1312D01*
X1292Y3665D01*
X1401D02*
X1381Y3705D01*
X1421D01*
X1401Y3665D01*
X1510D02*
X1490Y3705D01*
X1530D01*
X1510Y3665D01*
X1619D02*
X1599Y3705D01*
X1639D01*
X1619Y3665D01*
X1728D02*
X1708Y3705D01*
X1748D01*
X1728Y3665D01*
X1837D02*
X1817Y3705D01*
X1857D01*
X1837Y3665D01*
X1946D02*
X1926Y3705D01*
X1966D01*
X1946Y3665D01*
X2055D02*
X2035Y3705D01*
X2075D01*
X2055Y3665D01*
X2164D02*
X2144Y3705D01*
X2184D01*
X2164Y3665D01*
X2273D02*
X2253Y3705D01*
X2293D01*
X2273Y3665D01*
X470Y3957D02*
X450Y3997D01*
X490D01*
X470Y3957D01*
Y3748D02*
X450Y3788D01*
X490D01*
X470Y3748D01*
X1220Y2657D02*
X1200Y2697D01*
X1240D01*
X1220Y2657D01*
Y2539D02*
X1200Y2579D01*
X1240D01*
X1220Y2539D01*
Y2598D02*
X1200Y2638D01*
X1240D01*
X1220Y2598D01*
Y2775D02*
X1200Y2815D01*
X1240D01*
X1220Y2775D01*
Y2834D02*
X1200Y2874D01*
X1240D01*
X1220Y2834D01*
Y2716D02*
X1200Y2756D01*
X1240D01*
X1220Y2716D01*
X2580Y2785D02*
X2560Y2825D01*
X2600D01*
X2580Y2785D01*
X315Y3956D02*
X325Y3966D01*
X335D01*
X325Y3976D01*
X335Y3986D01*
X325D01*
X315Y3996D01*
X305Y3986D01*
X295D01*
X305Y3976D01*
X295Y3966D01*
X305D01*
X315Y3956D01*
Y3806D02*
X325Y3816D01*
X335D01*
X325Y3826D01*
X335Y3836D01*
X325D01*
X315Y3846D01*
X305Y3836D01*
X295D01*
X305Y3826D01*
X295Y3816D01*
X305D01*
X315Y3806D01*
Y3656D02*
X325Y3666D01*
X335D01*
X325Y3676D01*
X335Y3686D01*
X325D01*
X315Y3696D01*
X305Y3686D01*
X295D01*
X305Y3676D01*
X295Y3666D01*
X305D01*
X315Y3656D01*
X1914Y3288D02*
X1924Y3308D01*
X1914Y3328D01*
X1934Y3318D01*
X1954Y3328D01*
X1944Y3308D01*
X1954Y3288D01*
X1934Y3298D01*
X1914Y3288D01*
X2106D02*
X2116Y3308D01*
X2106Y3328D01*
X2126Y3318D01*
X2146Y3328D01*
X2136Y3308D01*
X2146Y3288D01*
X2126Y3298D01*
X2106Y3288D01*
X2697Y3622D02*
X2707Y3642D01*
X2697Y3662D01*
X2717Y3652D01*
X2737Y3662D01*
X2727Y3642D01*
X2737Y3622D01*
X2717Y3632D01*
X2697Y3622D01*
Y3823D02*
X2707Y3843D01*
X2697Y3863D01*
X2717Y3853D01*
X2737Y3863D01*
X2727Y3843D01*
X2737Y3823D01*
X2717Y3833D01*
X2697Y3823D01*
Y3523D02*
X2707Y3543D01*
X2697Y3563D01*
X2717Y3553D01*
X2737Y3563D01*
X2727Y3543D01*
X2737Y3523D01*
X2717Y3533D01*
X2697Y3523D01*
Y3917D02*
X2707Y3937D01*
X2697Y3957D01*
X2717Y3947D01*
X2737Y3957D01*
X2727Y3937D01*
X2737Y3917D01*
X2717Y3927D01*
X2697Y3917D01*
X610Y3622D02*
X620Y3642D01*
X610Y3662D01*
X630Y3652D01*
X650Y3662D01*
X640Y3642D01*
X650Y3622D01*
X630Y3632D01*
X610Y3622D01*
Y3823D02*
X620Y3843D01*
X610Y3863D01*
X630Y3853D01*
X650Y3863D01*
X640Y3843D01*
X650Y3823D01*
X630Y3833D01*
X610Y3823D01*
Y3523D02*
X620Y3543D01*
X610Y3563D01*
X630Y3553D01*
X650Y3563D01*
X640Y3543D01*
X650Y3523D01*
X630Y3533D01*
X610Y3523D01*
Y3917D02*
X620Y3937D01*
X610Y3957D01*
X630Y3947D01*
X650Y3957D01*
X640Y3937D01*
X650Y3917D01*
X630Y3927D01*
X610Y3917D01*
X1660Y187D02*
Y177D01*
X1680D01*
Y187D01*
X1690D01*
Y207D01*
X1680D01*
Y217D01*
X1660D01*
Y207D01*
X1650D01*
Y187D01*
X1660D01*
X1120Y2377D02*
Y2367D01*
X1140D01*
Y2377D01*
X1150D01*
Y2397D01*
X1140D01*
Y2407D01*
X1120D01*
Y2397D01*
X1110D01*
Y2377D01*
X1120D01*
X1220D02*
Y2367D01*
X1240D01*
Y2377D01*
X1250D01*
Y2397D01*
X1240D01*
Y2407D01*
X1220D01*
Y2397D01*
X1210D01*
Y2377D01*
X1220D01*
X1120Y2277D02*
Y2267D01*
X1140D01*
Y2277D01*
X1150D01*
Y2297D01*
X1140D01*
Y2307D01*
X1120D01*
Y2297D01*
X1110D01*
Y2277D01*
X1120D01*
X1220D02*
Y2267D01*
X1240D01*
Y2277D01*
X1250D01*
Y2297D01*
X1240D01*
Y2307D01*
X1220D01*
Y2297D01*
X1210D01*
Y2277D01*
X1220D01*
X1120Y2177D02*
Y2167D01*
X1140D01*
Y2177D01*
X1150D01*
Y2197D01*
X1140D01*
Y2207D01*
X1120D01*
Y2197D01*
X1110D01*
Y2177D01*
X1120D01*
X1220D02*
Y2167D01*
X1240D01*
Y2177D01*
X1250D01*
Y2197D01*
X1240D01*
Y2207D01*
X1220D01*
Y2197D01*
X1210D01*
Y2177D01*
X1220D01*
X2580Y2726D02*
X2560Y2766D01*
X2600D01*
X2580Y2726D01*
Y2844D02*
X2560Y2884D01*
X2600D01*
X2580Y2844D01*
Y2608D02*
X2560Y2648D01*
X2600D01*
X2580Y2608D01*
Y2549D02*
X2560Y2589D01*
X2600D01*
X2580Y2549D01*
Y2667D02*
X2560Y2707D01*
X2600D01*
X2580Y2667D01*
X2815Y374D02*
Y414D01*
X2855D01*
Y374D01*
X2815D01*
X3770Y2037D02*
Y2027D01*
X3790D01*
Y2037D01*
X3800D01*
Y2057D01*
X3790D01*
Y2067D01*
X3770D01*
Y2057D01*
X3760D01*
Y2037D01*
X3770D01*
Y3927D02*
Y3917D01*
X3790D01*
Y3927D01*
X3800D01*
Y3947D01*
X3790D01*
Y3957D01*
X3770D01*
Y3947D01*
X3760D01*
Y3927D01*
X3770D01*
Y3730D02*
Y3720D01*
X3790D01*
Y3730D01*
X3800D01*
Y3750D01*
X3790D01*
Y3760D01*
X3770D01*
Y3750D01*
X3760D01*
Y3730D01*
X3770D01*
Y1840D02*
Y1830D01*
X3790D01*
Y1840D01*
X3800D01*
Y1860D01*
X3790D01*
Y1870D01*
X3770D01*
Y1860D01*
X3760D01*
Y1840D01*
X3770D01*
Y3533D02*
Y3523D01*
X3790D01*
Y3533D01*
X3800D01*
Y3553D01*
X3790D01*
Y3563D01*
X3770D01*
Y3553D01*
X3760D01*
Y3533D01*
X3770D01*
Y1644D02*
Y1634D01*
X3790D01*
Y1644D01*
X3800D01*
Y1664D01*
X3790D01*
Y1674D01*
X3770D01*
Y1664D01*
X3760D01*
Y1644D01*
X3770D01*
Y3336D02*
Y3326D01*
X3790D01*
Y3336D01*
X3800D01*
Y3356D01*
X3790D01*
Y3366D01*
X3770D01*
Y3356D01*
X3760D01*
Y3336D01*
X3770D01*
Y1447D02*
Y1437D01*
X3790D01*
Y1447D01*
X3800D01*
Y1467D01*
X3790D01*
Y1477D01*
X3770D01*
Y1467D01*
X3760D01*
Y1447D01*
X3770D01*
Y3140D02*
Y3130D01*
X3790D01*
Y3140D01*
X3800D01*
Y3160D01*
X3790D01*
Y3170D01*
X3770D01*
Y3160D01*
X3760D01*
Y3140D01*
X3770D01*
Y1250D02*
Y1240D01*
X3790D01*
Y1250D01*
X3800D01*
Y1270D01*
X3790D01*
Y1280D01*
X3770D01*
Y1270D01*
X3760D01*
Y1250D01*
X3770D01*
Y2943D02*
Y2933D01*
X3790D01*
Y2943D01*
X3800D01*
Y2963D01*
X3790D01*
Y2973D01*
X3770D01*
Y2963D01*
X3760D01*
Y2943D01*
X3770D01*
Y1053D02*
Y1043D01*
X3790D01*
Y1053D01*
X3800D01*
Y1073D01*
X3790D01*
Y1083D01*
X3770D01*
Y1073D01*
X3760D01*
Y1053D01*
X3770D01*
Y2746D02*
Y2736D01*
X3790D01*
Y2746D01*
X3800D01*
Y2766D01*
X3790D01*
Y2776D01*
X3770D01*
Y2766D01*
X3760D01*
Y2746D01*
X3770D01*
Y856D02*
Y846D01*
X3790D01*
Y856D01*
X3800D01*
Y876D01*
X3790D01*
Y886D01*
X3770D01*
Y876D01*
X3760D01*
Y856D01*
X3770D01*
Y2549D02*
Y2539D01*
X3790D01*
Y2549D01*
X3800D01*
Y2569D01*
X3790D01*
Y2579D01*
X3770D01*
Y2569D01*
X3760D01*
Y2549D01*
X3770D01*
Y659D02*
Y649D01*
X3790D01*
Y659D01*
X3800D01*
Y679D01*
X3790D01*
Y689D01*
X3770D01*
Y679D01*
X3760D01*
Y659D01*
X3770D01*
Y2352D02*
Y2342D01*
X3790D01*
Y2352D01*
X3800D01*
Y2372D01*
X3790D01*
Y2382D01*
X3770D01*
Y2372D01*
X3760D01*
Y2352D01*
X3770D01*
Y462D02*
Y452D01*
X3790D01*
Y462D01*
X3800D01*
Y482D01*
X3790D01*
Y492D01*
X3770D01*
Y482D01*
X3760D01*
Y462D01*
X3770D01*
X392Y2395D02*
X372Y2435D01*
X412D01*
X392Y2395D01*
Y2286D02*
X372Y2326D01*
X412D01*
X392Y2286D01*
Y2177D02*
X372Y2217D01*
X412D01*
X392Y2177D01*
Y1959D02*
X372Y1999D01*
X412D01*
X392Y1959D01*
Y1850D02*
X372Y1890D01*
X412D01*
X392Y1850D01*
Y1741D02*
X372Y1781D01*
X412D01*
X392Y1741D01*
Y1632D02*
X372Y1672D01*
X412D01*
X392Y1632D01*
Y1523D02*
X372Y1563D01*
X412D01*
X392Y1523D01*
Y1305D02*
X372Y1345D01*
X412D01*
X392Y1305D01*
Y1196D02*
X372Y1236D01*
X412D01*
X392Y1196D01*
X492Y2449D02*
X472Y2489D01*
X512D01*
X492Y2449D01*
Y2340D02*
X472Y2380D01*
X512D01*
X492Y2340D01*
Y2231D02*
X472Y2271D01*
X512D01*
X492Y2231D01*
Y2122D02*
X472Y2162D01*
X512D01*
X492Y2122D01*
Y2013D02*
X472Y2053D01*
X512D01*
X492Y2013D01*
Y1795D02*
X472Y1835D01*
X512D01*
X492Y1795D01*
Y1686D02*
X472Y1726D01*
X512D01*
X492Y1686D01*
Y1577D02*
X472Y1617D01*
X512D01*
X492Y1577D01*
Y1468D02*
X472Y1508D01*
X512D01*
X492Y1468D01*
Y1359D02*
X472Y1399D01*
X512D01*
X492Y1359D01*
Y1250D02*
X472Y1290D01*
X512D01*
X492Y1250D01*
Y1141D02*
X472Y1181D01*
X512D01*
X492Y1141D01*
Y1904D02*
X472Y1944D01*
X512D01*
X492Y1904D01*
X392Y1413D02*
X372Y1453D01*
X412D01*
X392Y1413D01*
Y2068D02*
X372Y2108D01*
X412D01*
X392Y2068D01*
X422Y866D02*
X432D01*
X442Y876D01*
X452Y866D01*
X462D01*
Y876D01*
X452Y886D01*
X462Y896D01*
Y906D01*
X452D01*
X442Y896D01*
X432Y906D01*
X422D01*
Y896D01*
X432Y886D01*
X422Y876D01*
Y866D01*
Y2724D02*
X432D01*
X442Y2734D01*
X452Y2724D01*
X462D01*
Y2734D01*
X452Y2744D01*
X462Y2754D01*
Y2764D01*
X452D01*
X442Y2754D01*
X432Y2764D01*
X422D01*
Y2754D01*
X432Y2744D01*
X422Y2734D01*
Y2724D01*
X1070Y447D02*
X1050Y487D01*
X1090D01*
X1070Y447D01*
X570Y447D02*
X550Y487D01*
X590D01*
X570Y447D01*
X470D02*
X450Y487D01*
X490D01*
X470Y447D01*
Y147D02*
X450Y187D01*
X490D01*
X470Y147D01*
X1070D02*
X1050Y187D01*
X1090D01*
X1070Y147D01*
X2050Y3005D02*
X2070Y3025D01*
X2090Y3005D01*
X2070Y2985D01*
X2050Y3005D01*
X2245D02*
X2265Y3025D01*
X2285Y3005D01*
X2265Y2985D01*
X2245Y3005D01*
X2570D02*
X2590Y3025D01*
X2610Y3005D01*
X2590Y2985D01*
X2570Y3005D01*
X2660D02*
X2680Y3025D01*
X2700Y3005D01*
X2680Y2985D01*
X2660Y3005D01*
X2590Y1965D02*
X2610Y1985D01*
X2630Y1965D01*
X2610Y1945D01*
X2590Y1965D01*
X2650Y1560D02*
X2670Y1580D01*
X2690Y1560D01*
X2670Y1540D01*
X2650Y1560D01*
X3110Y1865D02*
X3130Y1885D01*
X3150Y1865D01*
X3130Y1845D01*
X3110Y1865D01*
X2805Y2370D02*
X2825Y2390D01*
X2845Y2370D01*
X2825Y2350D01*
X2805Y2370D01*
Y2020D02*
X2825Y2040D01*
X2845Y2020D01*
X2825Y2000D01*
X2805Y2020D01*
X2510Y1345D02*
X2530Y1365D01*
X2550Y1345D01*
X2530Y1325D01*
X2510Y1345D01*
X2620Y2295D02*
X2640Y2315D01*
X2660Y2295D01*
X2640Y2275D01*
X2620Y2295D01*
X2655Y2435D02*
X2675Y2455D01*
X2695Y2435D01*
X2675Y2415D01*
X2655Y2435D01*
X2122Y2570D02*
X2142Y2590D01*
X2162Y2570D01*
X2142Y2550D01*
X2122Y2570D01*
X2205Y2335D02*
X2225Y2355D01*
X2245Y2335D01*
X2225Y2315D01*
X2205Y2335D01*
X1705D02*
X1725Y2355D01*
X1745Y2335D01*
X1725Y2315D01*
X1705Y2335D01*
X1500Y3166D02*
Y3206D01*
X1540D01*
Y3166D01*
X1500D01*
X1508Y3174D02*
Y3198D01*
X1532D01*
Y3174D01*
X1508D01*
X1170Y925D02*
Y965D01*
X1210D01*
Y925D01*
X1170D01*
X1178Y933D02*
Y957D01*
X1202D01*
Y933D01*
X1178D01*
X2850Y2510D02*
Y2550D01*
X2890D01*
Y2510D01*
X2850D01*
X2858Y2518D02*
Y2542D01*
X2882D01*
Y2518D01*
X2858D01*
X1970Y2630D02*
Y2670D01*
X2010D01*
Y2630D01*
X1970D01*
X1978Y2638D02*
Y2662D01*
X2002D01*
Y2638D01*
X1978D01*
X1995Y2600D02*
Y2640D01*
X2035D01*
Y2600D01*
X1995D01*
X2003Y2608D02*
Y2632D01*
X2027D01*
Y2608D01*
X2003D01*
X2975Y2395D02*
Y2435D01*
X3015D01*
Y2395D01*
X2975D01*
X2983Y2403D02*
Y2427D01*
X3007D01*
Y2403D01*
X2983D01*
X2926Y836D02*
Y876D01*
X2966D01*
Y836D01*
X2926D01*
X2934Y844D02*
Y868D01*
X2958D01*
Y844D01*
X2934D01*
X2926Y1145D02*
Y1185D01*
X2966D01*
Y1145D01*
X2926D01*
X2934Y1153D02*
Y1177D01*
X2958D01*
Y1153D01*
X2934D01*
X2835Y605D02*
Y645D01*
X2875D01*
Y605D01*
X2835D01*
X2843Y613D02*
Y637D01*
X2867D01*
Y613D01*
X2843D01*
X3545Y2135D02*
Y2175D01*
X3585D01*
Y2135D01*
X3545D01*
X3553Y2143D02*
Y2167D01*
X3577D01*
Y2143D01*
X3553D01*
X2027Y3983D02*
Y4023D01*
X2067D01*
Y3983D01*
X2027D01*
X2035Y3991D02*
Y4015D01*
X2059D01*
Y3991D01*
X2035D01*
X2680Y1770D02*
Y1810D01*
X2720D01*
Y1770D01*
X2680D01*
X2688Y1778D02*
Y1802D01*
X2712D01*
Y1778D01*
X2688D01*
X1791Y531D02*
Y571D01*
X1831D01*
Y531D01*
X1791D01*
X1799Y539D02*
Y563D01*
X1823D01*
Y539D01*
X1799D01*
X1791Y374D02*
Y414D01*
X1831D01*
Y374D01*
X1791D01*
X1799Y382D02*
Y406D01*
X1823D01*
Y382D01*
X1799D01*
X1791Y186D02*
Y226D01*
X1831D01*
Y186D01*
X1791D01*
X1799Y194D02*
Y218D01*
X1823D01*
Y194D01*
X1799D01*
X2231Y216D02*
Y256D01*
X2271D01*
Y216D01*
X2231D01*
X2239Y224D02*
Y248D01*
X2263D01*
Y224D01*
X2239D01*
X689Y2736D02*
Y2776D01*
X729D01*
Y2736D01*
X689D01*
X697Y2744D02*
Y2768D01*
X721D01*
Y2744D01*
X697D01*
X931Y2736D02*
Y2776D01*
X971D01*
Y2736D01*
X931D01*
X939Y2744D02*
Y2768D01*
X963D01*
Y2744D01*
X939D01*
X2745Y2130D02*
Y2170D01*
X2785D01*
Y2130D01*
X2745D01*
X2753Y2138D02*
Y2162D01*
X2777D01*
Y2138D01*
X2753D01*
X2568Y1615D02*
Y1655D01*
X2608D01*
Y1615D01*
X2568D01*
X2576Y1623D02*
Y1647D01*
X2600D01*
Y1623D01*
X2576D01*
X2730Y1510D02*
Y1550D01*
X2770D01*
Y1510D01*
X2730D01*
X2738Y1518D02*
Y1542D01*
X2762D01*
Y1518D01*
X2738D01*
X1508Y1538D02*
Y1578D01*
X1548D01*
Y1538D01*
X1508D01*
X1516Y1546D02*
Y1570D01*
X1540D01*
Y1546D01*
X1516D01*
X1000Y1529D02*
Y1569D01*
X1040D01*
Y1529D01*
X1000D01*
X1008Y1537D02*
Y1561D01*
X1032D01*
Y1537D01*
X1008D01*
X977Y1997D02*
Y2037D01*
X1017D01*
Y1997D01*
X977D01*
X985Y2005D02*
Y2029D01*
X1009D01*
Y2005D01*
X985D01*
X3550Y1407D02*
Y1447D01*
X3590D01*
Y1407D01*
X3550D01*
X3558Y1415D02*
Y1439D01*
X3582D01*
Y1415D01*
X3558D01*
X3520Y2332D02*
Y2372D01*
X3560D01*
Y2332D01*
X3520D01*
X3528Y2340D02*
Y2364D01*
X3552D01*
Y2340D01*
X3528D01*
X3390Y3165D02*
Y3205D01*
X3430D01*
Y3165D01*
X3390D01*
X3398Y3173D02*
Y3197D01*
X3422D01*
Y3173D01*
X3398D01*
X3395Y3041D02*
Y3081D01*
X3435D01*
Y3041D01*
X3395D01*
X3403Y3049D02*
Y3073D01*
X3427D01*
Y3049D01*
X3403D01*
X3180Y1495D02*
Y1535D01*
X3220D01*
Y1495D01*
X3180D01*
X3188Y1503D02*
Y1527D01*
X3212D01*
Y1503D01*
X3188D01*
X1210Y1725D02*
X1230Y1745D01*
X1250Y1725D01*
X1230Y1705D01*
X1210Y1725D01*
Y1680D02*
X1230Y1700D01*
X1250Y1680D01*
X1230Y1660D01*
X1210Y1680D01*
X1790Y1675D02*
X1810Y1695D01*
X1830Y1675D01*
X1810Y1655D01*
X1790Y1675D01*
X1780Y1450D02*
X1800Y1470D01*
X1820Y1450D01*
X1800Y1430D01*
X1780Y1450D01*
X1880Y1405D02*
X1900Y1425D01*
X1920Y1405D01*
X1900Y1385D01*
X1880Y1405D01*
X760Y1895D02*
X780Y1915D01*
X800Y1895D01*
X780Y1875D01*
X760Y1895D01*
X790Y1795D02*
X810Y1815D01*
X830Y1795D01*
X810Y1775D01*
X790Y1795D01*
Y2135D02*
X810Y2155D01*
X830Y2135D01*
X810Y2115D01*
X790Y2135D01*
X815Y2100D02*
X835Y2120D01*
X855Y2100D01*
X835Y2080D01*
X815Y2100D01*
X1320Y2125D02*
X1340Y2145D01*
X1360Y2125D01*
X1340Y2105D01*
X1320Y2125D01*
X770Y2380D02*
X790Y2400D01*
X810Y2380D01*
X790Y2360D01*
X770Y2380D01*
X1528Y897D02*
X1548Y917D01*
X1568Y897D01*
X1548Y877D01*
X1528Y897D01*
X1230Y1245D02*
X1250Y1265D01*
X1270Y1245D01*
X1250Y1225D01*
X1230Y1245D01*
X560Y740D02*
X580Y760D01*
X600Y740D01*
X580Y720D01*
X560Y740D01*
X1395Y2080D02*
X1415Y2100D01*
X1435Y2080D01*
X1415Y2060D01*
X1395Y2080D01*
X815Y2065D02*
X835Y2085D01*
X855Y2065D01*
X835Y2045D01*
X815Y2065D01*
X1485Y2030D02*
X1505Y2050D01*
X1525Y2030D01*
X1505Y2010D01*
X1485Y2030D01*
X1130Y1955D02*
X1150Y1975D01*
X1170Y1955D01*
X1150Y1935D01*
X1130Y1955D01*
X855D02*
X875Y1975D01*
X895Y1955D01*
X875Y1935D01*
X855Y1955D01*
X95Y1125D02*
X115Y1145D01*
X135Y1125D01*
X115Y1105D01*
X95Y1125D01*
X375Y1100D02*
X395Y1120D01*
X415Y1100D01*
X395Y1080D01*
X375Y1100D01*
X870Y1740D02*
X890Y1760D01*
X910Y1740D01*
X890Y1720D01*
X870Y1740D01*
X985Y945D02*
X1005Y965D01*
X1025Y945D01*
X1005Y925D01*
X985Y945D01*
X1500Y455D02*
X1520Y475D01*
X1540Y455D01*
X1520Y435D01*
X1500Y455D01*
X1505Y1165D02*
X1525Y1185D01*
X1545Y1165D01*
X1525Y1145D01*
X1505Y1165D01*
X725Y1405D02*
X745Y1425D01*
X765Y1405D01*
X745Y1385D01*
X725Y1405D01*
X95Y1490D02*
X115Y1510D01*
X135Y1490D01*
X115Y1470D01*
X95Y1490D01*
X1435Y1935D02*
X1455Y1955D01*
X1475Y1935D01*
X1455Y1915D01*
X1435Y1935D01*
X1171Y1934D02*
X1191Y1954D01*
X1211Y1934D01*
X1191Y1914D01*
X1171Y1934D01*
X95Y1635D02*
X115Y1655D01*
X135Y1635D01*
X115Y1615D01*
X95Y1635D01*
X190Y1160D02*
X210Y1180D01*
X230Y1160D01*
X210Y1140D01*
X190Y1160D01*
X180Y2090D02*
X200Y2110D01*
X220Y2090D01*
X200Y2070D01*
X180Y2090D01*
X235Y1820D02*
X255Y1840D01*
X275Y1820D01*
X255Y1800D01*
X235Y1820D01*
X2230Y3425D02*
X2250Y3445D01*
X2270Y3425D01*
X2250Y3405D01*
X2230Y3425D01*
X245Y2420D02*
X265Y2440D01*
X285Y2420D01*
X265Y2400D01*
X245Y2420D01*
X225Y2365D02*
X245Y2385D01*
X265Y2365D01*
X245Y2345D01*
X225Y2365D01*
X1880Y3430D02*
X1900Y3450D01*
X1920Y3430D01*
X1900Y3410D01*
X1880Y3430D01*
X175Y2350D02*
X195Y2370D01*
X215Y2350D01*
X195Y2330D01*
X175Y2350D01*
X1645Y3350D02*
X1665Y3370D01*
X1685Y3350D01*
X1665Y3330D01*
X1645Y3350D01*
X1260Y3385D02*
X1280Y3405D01*
X1300Y3385D01*
X1280Y3365D01*
X1260Y3385D01*
X95Y2305D02*
X115Y2325D01*
X135Y2305D01*
X115Y2285D01*
X95Y2305D01*
X50Y1215D02*
X70Y1235D01*
X90Y1215D01*
X70Y1195D01*
X50Y1215D01*
X15Y1595D02*
X35Y1615D01*
X55Y1595D01*
X35Y1575D01*
X15Y1595D01*
X495Y3160D02*
X515Y3180D01*
X535Y3160D01*
X515Y3140D01*
X495Y3160D01*
X1310Y3960D02*
X1330Y3980D01*
X1350Y3960D01*
X1330Y3940D01*
X1310Y3960D01*
X1220Y4000D02*
X1240Y4020D01*
X1260Y4000D01*
X1240Y3980D01*
X1220Y4000D01*
X2005Y1950D02*
X2025Y1970D01*
X2045Y1950D01*
X2025Y1930D01*
X2005Y1950D01*
X1600Y1965D02*
X1620Y1985D01*
X1640Y1965D01*
X1620Y1945D01*
X1600Y1965D01*
X1505Y1427D02*
X1525Y1447D01*
X1545Y1427D01*
X1525Y1407D01*
X1505Y1427D01*
X2705Y2340D02*
X2725Y2360D01*
X2745Y2340D01*
X2725Y2320D01*
X2705Y2340D01*
X2340Y2140D02*
X2360Y2160D01*
X2380Y2140D01*
X2360Y2120D01*
X2340Y2140D01*
X2270Y1875D02*
X2290Y1895D01*
X2310Y1875D01*
X2290Y1855D01*
X2270Y1875D01*
X2690Y2910D02*
X2710Y2930D01*
X2730Y2910D01*
X2710Y2890D01*
X2690Y2910D01*
X2740Y2970D02*
X2760Y2990D01*
X2780Y2970D01*
X2760Y2950D01*
X2740Y2970D01*
X2570D02*
X2590Y2990D01*
X2610Y2970D01*
X2590Y2950D01*
X2570Y2970D01*
X1725Y2665D02*
X1745Y2685D01*
X1765Y2665D01*
X1745Y2645D01*
X1725Y2665D01*
X1585Y2360D02*
X1605Y2380D01*
X1625Y2360D01*
X1605Y2340D01*
X1585Y2360D01*
X2165Y2495D02*
X2185Y2515D01*
X2205Y2495D01*
X2185Y2475D01*
X2165Y2495D01*
X1285Y2425D02*
X1305Y2445D01*
X1325Y2425D01*
X1305Y2405D01*
X1285Y2425D01*
X2075Y2360D02*
X2095Y2380D01*
X2115Y2360D01*
X2095Y2340D01*
X2075Y2360D01*
X1745Y1770D02*
X1765Y1790D01*
X1785Y1770D01*
X1765Y1750D01*
X1745Y1770D01*
X1640Y2610D02*
X1660Y2630D01*
X1680Y2610D01*
X1660Y2590D01*
X1640Y2610D01*
X1525Y2425D02*
X1545Y2445D01*
X1565Y2425D01*
X1545Y2405D01*
X1525Y2425D01*
X1555Y2855D02*
X1575Y2875D01*
X1595Y2855D01*
X1575Y2835D01*
X1555Y2855D01*
X1570Y2735D02*
X1590Y2755D01*
X1610Y2735D01*
X1590Y2715D01*
X1570Y2735D01*
X2210Y2495D02*
X2230Y2515D01*
X2250Y2495D01*
X2230Y2475D01*
X2210Y2495D01*
X1850Y2205D02*
X1870Y2225D01*
X1890Y2205D01*
X1870Y2185D01*
X1850Y2205D01*
X2175Y2670D02*
X2195Y2690D01*
X2215Y2670D01*
X2195Y2650D01*
X2175Y2670D01*
X1540Y2260D02*
X1560Y2280D01*
X1580Y2260D01*
X1560Y2240D01*
X1540Y2260D01*
X1960Y2235D02*
X1980Y2255D01*
X2000Y2235D01*
X1980Y2215D01*
X1960Y2235D01*
X2225Y2230D02*
X2245Y2250D01*
X2265Y2230D01*
X2245Y2210D01*
X2225Y2230D01*
X2020Y2594D02*
X2040Y2614D01*
X2060Y2594D01*
X2040Y2574D01*
X2020Y2594D01*
X2235Y2670D02*
X2255Y2690D01*
X2275Y2670D01*
X2255Y2650D01*
X2235Y2670D01*
X2270D02*
X2290Y2690D01*
X2310Y2670D01*
X2290Y2650D01*
X2270Y2670D01*
X3015Y1660D02*
X3035Y1680D01*
X3055Y1660D01*
X3035Y1640D01*
X3015Y1660D01*
X3040Y2655D02*
X3060Y2675D01*
X3080Y2655D01*
X3060Y2635D01*
X3040Y2655D01*
X3250Y1560D02*
X3270Y1580D01*
X3290Y1560D01*
X3270Y1540D01*
X3250Y1560D01*
X3160Y2415D02*
X3180Y2435D01*
X3200Y2415D01*
X3180Y2395D01*
X3160Y2415D01*
X1445Y1245D02*
X1465Y1265D01*
X1485Y1245D01*
X1465Y1225D01*
X1445Y1245D01*
X2780Y2480D02*
X2800Y2500D01*
X2820Y2480D01*
X2800Y2460D01*
X2780Y2480D01*
X2340Y1820D02*
X2360Y1840D01*
X2380Y1820D01*
X2360Y1800D01*
X2340Y1820D01*
X1975Y2875D02*
X1995Y2895D01*
X2015Y2875D01*
X1995Y2855D01*
X1975Y2875D01*
X2022Y2880D02*
X2042Y2900D01*
X2062Y2880D01*
X2042Y2860D01*
X2022Y2880D01*
X2065Y2765D02*
X2085Y2785D01*
X2105Y2765D01*
X2085Y2745D01*
X2065Y2765D01*
X2200D02*
X2220Y2785D01*
X2240Y2765D01*
X2220Y2745D01*
X2200Y2765D01*
Y2060D02*
X2220Y2080D01*
X2240Y2060D01*
X2220Y2040D01*
X2200Y2060D01*
X2296Y2594D02*
X2316Y2614D01*
X2336Y2594D01*
X2316Y2574D01*
X2296Y2594D01*
X1090Y780D02*
X1110Y800D01*
X1130Y780D01*
X1110Y760D01*
X1090Y780D01*
X1375Y2620D02*
X1395Y2640D01*
X1415Y2620D01*
X1395Y2600D01*
X1375Y2620D01*
X1455Y2749D02*
X1475Y2769D01*
X1495Y2749D01*
X1475Y2729D01*
X1455Y2749D01*
X2115Y2880D02*
X2135Y2900D01*
X2155Y2880D01*
X2135Y2860D01*
X2115Y2880D01*
X1225Y1280D02*
Y1320D01*
X1265D01*
Y1280D01*
X1225D01*
X1233Y1288D02*
Y1312D01*
X1257D01*
Y1288D01*
X1233D01*
D135*
X1690Y497D02*
G03*
X1690Y497I-20J0D01*
G01*
X1400Y997D02*
G03*
X1400Y997I-20J0D01*
G01*
Y1097D02*
G03*
X1400Y1097I-20J0D01*
G01*
Y897D02*
G03*
X1400Y897I-20J0D01*
G01*
X1690Y1297D02*
G03*
X1690Y1297I-20J0D01*
G01*
Y1197D02*
G03*
X1690Y1197I-20J0D01*
G01*
Y997D02*
G03*
X1690Y997I-20J0D01*
G01*
X740Y1887D02*
G03*
X740Y1887I-20J0D01*
G01*
Y1987D02*
G03*
X740Y1987I-20J0D01*
G01*
Y2087D02*
G03*
X740Y2087I-20J0D01*
G01*
X2580Y797D02*
G03*
X2580Y797I-20J0D01*
G01*
Y597D02*
G03*
X2580Y597I-20J0D01*
G01*
Y697D02*
G03*
X2580Y697I-20J0D01*
G01*
Y397D02*
G03*
X2580Y397I-20J0D01*
G01*
Y497D02*
G03*
X2580Y497I-20J0D01*
G01*
X1690Y1097D02*
G03*
X1690Y1097I-20J0D01*
G01*
Y697D02*
G03*
X1690Y697I-20J0D01*
G01*
Y797D02*
G03*
X1690Y797I-20J0D01*
G01*
Y397D02*
G03*
X1690Y397I-20J0D01*
G01*
X2280Y1197D02*
G03*
X2280Y1197I-20J0D01*
G01*
Y1297D02*
G03*
X2280Y1297I-20J0D01*
G01*
Y1097D02*
G03*
X2280Y1097I-20J0D01*
G01*
Y897D02*
G03*
X2280Y897I-20J0D01*
G01*
Y697D02*
G03*
X2280Y697I-20J0D01*
G01*
Y797D02*
G03*
X2280Y797I-20J0D01*
G01*
Y497D02*
G03*
X2280Y497I-20J0D01*
G01*
Y597D02*
G03*
X2280Y597I-20J0D01*
G01*
Y397D02*
G03*
X2280Y397I-20J0D01*
G01*
X1400Y1297D02*
G03*
X1400Y1297I-20J0D01*
G01*
Y697D02*
G03*
X1400Y697I-20J0D01*
G01*
Y797D02*
G03*
X1400Y797I-20J0D01*
G01*
Y497D02*
G03*
X1400Y497I-20J0D01*
G01*
Y597D02*
G03*
X1400Y597I-20J0D01*
G01*
Y397D02*
G03*
X1400Y397I-20J0D01*
G01*
X1690Y897D02*
G03*
X1690Y897I-20J0D01*
G01*
X1990Y597D02*
G03*
X1990Y597I-20J0D01*
G01*
Y497D02*
G03*
X1990Y497I-20J0D01*
G01*
Y797D02*
G03*
X1990Y797I-20J0D01*
G01*
Y697D02*
G03*
X1990Y697I-20J0D01*
G01*
Y897D02*
G03*
X1990Y897I-20J0D01*
G01*
Y997D02*
G03*
X1990Y997I-20J0D01*
G01*
Y1297D02*
G03*
X1990Y1297I-20J0D01*
G01*
Y1197D02*
G03*
X1990Y1197I-20J0D01*
G01*
Y397D02*
G03*
X1990Y397I-20J0D01*
G01*
X2280Y997D02*
G03*
X2280Y997I-20J0D01*
G01*
X1990Y1097D02*
G03*
X1990Y1097I-20J0D01*
G01*
X1400Y1197D02*
G03*
X1400Y1197I-20J0D01*
G01*
X1690Y597D02*
G03*
X1690Y597I-20J0D01*
G01*
X4010Y1657D02*
G03*
X4010Y1657I-20J0D01*
G01*
X310Y3250D02*
G03*
X310Y3250I-20J0D01*
G01*
Y3350D02*
G03*
X310Y3350I-20J0D01*
G01*
Y3450D02*
G03*
X310Y3450I-20J0D01*
G01*
X740Y2257D02*
G03*
X740Y2257I-20J0D01*
G01*
Y2357D02*
G03*
X740Y2357I-20J0D01*
G01*
Y2457D02*
G03*
X740Y2457I-20J0D01*
G01*
Y1117D02*
G03*
X740Y1117I-20J0D01*
G01*
Y1017D02*
G03*
X740Y1017I-20J0D01*
G01*
Y917D02*
G03*
X740Y917I-20J0D01*
G01*
X2835Y2938D02*
G03*
X2835Y2938I-20J0D01*
G01*
Y3038D02*
G03*
X2835Y3038I-20J0D01*
G01*
Y2738D02*
G03*
X2835Y2738I-20J0D01*
G01*
Y2838D02*
G03*
X2835Y2838I-20J0D01*
G01*
Y2638D02*
G03*
X2835Y2638I-20J0D01*
G01*
X2880Y1017D02*
G03*
X2880Y1017I-20J0D01*
G01*
Y1117D02*
G03*
X2880Y1117I-20J0D01*
G01*
Y817D02*
G03*
X2880Y817I-20J0D01*
G01*
Y917D02*
G03*
X2880Y917I-20J0D01*
G01*
Y717D02*
G03*
X2880Y717I-20J0D01*
G01*
X4010Y1457D02*
G03*
X4010Y1457I-20J0D01*
G01*
Y1557D02*
G03*
X4010Y1557I-20J0D01*
G01*
Y1257D02*
G03*
X4010Y1257I-20J0D01*
G01*
Y1357D02*
G03*
X4010Y1357I-20J0D01*
G01*
Y1157D02*
G03*
X4010Y1157I-20J0D01*
G01*
Y957D02*
G03*
X4010Y957I-20J0D01*
G01*
Y1057D02*
G03*
X4010Y1057I-20J0D01*
G01*
Y757D02*
G03*
X4010Y757I-20J0D01*
G01*
Y857D02*
G03*
X4010Y857I-20J0D01*
G01*
Y3547D02*
G03*
X4010Y3547I-20J0D01*
G01*
Y3347D02*
G03*
X4010Y3347I-20J0D01*
G01*
Y3447D02*
G03*
X4010Y3447I-20J0D01*
G01*
Y3147D02*
G03*
X4010Y3147I-20J0D01*
G01*
Y3247D02*
G03*
X4010Y3247I-20J0D01*
G01*
Y3047D02*
G03*
X4010Y3047I-20J0D01*
G01*
Y2847D02*
G03*
X4010Y2847I-20J0D01*
G01*
Y2947D02*
G03*
X4010Y2947I-20J0D01*
G01*
Y2647D02*
G03*
X4010Y2647I-20J0D01*
G01*
Y2747D02*
G03*
X4010Y2747I-20J0D01*
G01*
X1843Y2206D02*
G03*
X1843Y2206I-20J0D01*
G01*
X1955Y2140D02*
G03*
X1955Y2140I-20J0D01*
G01*
X1445Y755D02*
G03*
X1445Y755I-20J0D01*
G01*
X2785Y2270D02*
G03*
X2785Y2270I-20J0D01*
G01*
X3260D02*
G03*
X3260Y2270I-20J0D01*
G01*
X945Y4017D02*
G03*
X945Y4017I-20J0D01*
G01*
X1415Y4003D02*
G03*
X1415Y4003I-20J0D01*
G01*
X1180Y3962D02*
G03*
X1180Y3962I-20J0D01*
G01*
X1574Y3563D02*
G03*
X1574Y3563I-20J0D01*
G01*
X1030Y3507D02*
G03*
X1030Y3507I-20J0D01*
G01*
X1390Y3442D02*
G03*
X1390Y3442I-20J0D01*
G01*
X1835Y3447D02*
G03*
X1835Y3447I-20J0D01*
G01*
X2350Y3502D02*
G03*
X2350Y3502I-20J0D01*
G01*
X1940Y3167D02*
G03*
X1940Y3167I-20J0D01*
G01*
X2110D02*
G03*
X2110Y3167I-20J0D01*
G01*
X2045Y3050D02*
G03*
X2045Y3050I-20J0D01*
G01*
X2275Y3142D02*
G03*
X2275Y3142I-20J0D01*
G01*
X2610Y2332D02*
G03*
X2610Y2332I-20J0D01*
G01*
X2460Y2427D02*
G03*
X2460Y2427I-20J0D01*
G01*
X3456Y3346D02*
G03*
X3456Y3346I-20J0D01*
G01*
X3455Y3545D02*
G03*
X3455Y3545I-20J0D01*
G01*
X3562Y2559D02*
G03*
X3562Y2559I-20J0D01*
G01*
X3560Y2757D02*
G03*
X3560Y2757I-20J0D01*
G01*
Y2952D02*
G03*
X3560Y2952I-20J0D01*
G01*
X3555Y3147D02*
G03*
X3555Y3147I-20J0D01*
G01*
X3465Y2277D02*
G03*
X3465Y2277I-20J0D01*
G01*
X3740Y2252D02*
G03*
X3740Y2252I-20J0D01*
G01*
X3530Y1832D02*
G03*
X3530Y1832I-20J0D01*
G01*
X3525Y1707D02*
G03*
X3525Y1707I-20J0D01*
G01*
X3555Y1257D02*
G03*
X3555Y1257I-20J0D01*
G01*
X3604Y398D02*
G03*
X3604Y398I-20J0D01*
G01*
X3560Y692D02*
G03*
X3560Y692I-20J0D01*
G01*
Y867D02*
G03*
X3560Y867I-20J0D01*
G01*
Y1062D02*
G03*
X3560Y1062I-20J0D01*
G01*
X3190Y622D02*
G03*
X3190Y622I-20J0D01*
G01*
X3205Y1262D02*
G03*
X3205Y1262I-20J0D01*
G01*
X3145Y1487D02*
G03*
X3145Y1487I-20J0D01*
G01*
X2480Y392D02*
G03*
X2480Y392I-20J0D01*
G01*
X1400Y112D02*
G03*
X1400Y112I-20J0D01*
G01*
X420Y717D02*
G03*
X420Y717I-20J0D01*
G01*
X1040Y587D02*
G03*
X1040Y587I-20J0D01*
G01*
X670Y747D02*
G03*
X670Y747I-20J0D01*
G01*
X679Y1277D02*
G03*
X679Y1277I-20J0D01*
G01*
X865Y1117D02*
G03*
X865Y1117I-20J0D01*
G01*
X2430Y1047D02*
G03*
X2430Y1047I-20J0D01*
G01*
X1330Y2727D02*
G03*
X1330Y2727I-20J0D01*
G01*
X990Y1818D02*
G03*
X990Y1818I-20J0D01*
G01*
X1435Y1860D02*
G03*
X1435Y1860I-20J0D01*
G01*
X1154Y1625D02*
G03*
X1154Y1625I-20J0D01*
G01*
X1135Y1400D02*
G03*
X1135Y1400I-20J0D01*
G01*
X1331Y2479D02*
G03*
X1331Y2479I-20J0D01*
G01*
X1858Y2512D02*
G03*
X1858Y2512I-20J0D01*
G01*
X1837Y2377D02*
G03*
X1837Y2377I-20J0D01*
G01*
X1933Y2753D02*
G03*
X1933Y2753I-20J0D01*
G01*
X1765Y2115D02*
G03*
X1765Y2115I-20J0D01*
G01*
X1705Y1980D02*
G03*
X1705Y1980I-20J0D01*
G01*
X1116Y1528D02*
G03*
X1116Y1528I-20J0D01*
G01*
X1021Y1733D02*
G03*
X1021Y1733I-20J0D01*
G01*
X2657Y2218D02*
G03*
X2657Y2218I-20J0D01*
G01*
X1201Y275D02*
G03*
X1201Y275I-20J0D01*
G01*
X3265Y1175D02*
G03*
X3265Y1175I-20J0D01*
G01*
X2890Y1520D02*
G03*
X2890Y1520I-20J0D01*
G01*
X2665Y1150D02*
G03*
X2665Y1150I-20J0D01*
G01*
X2945Y2005D02*
G03*
X2945Y2005I-20J0D01*
G01*
X2420Y2040D02*
G03*
X2420Y2040I-20J0D01*
G01*
X2310Y1815D02*
G03*
X2310Y1815I-20J0D01*
G01*
X2008Y1860D02*
G03*
X2008Y1860I-20J0D01*
G01*
X2090Y1470D02*
G03*
X2090Y1470I-20J0D01*
G01*
X2250Y1453D02*
G03*
X2250Y1453I-20J0D01*
G01*
X2445Y1385D02*
G03*
X2445Y1385I-20J0D01*
G01*
X1470Y2130D02*
G03*
X1470Y2130I-20J0D01*
G01*
X2485Y2310D02*
G03*
X2485Y2310I-20J0D01*
G01*
X2980Y2800D02*
G03*
X2980Y2800I-20J0D01*
G01*
X2840Y3155D02*
G03*
X2840Y3155I-20J0D01*
G01*
X3210Y3100D02*
G03*
X3210Y3100I-20J0D01*
G01*
X3295Y2900D02*
G03*
X3295Y2900I-20J0D01*
G01*
Y2590D02*
G03*
X3295Y2590I-20J0D01*
G01*
X3455Y3735D02*
G03*
X3455Y3735I-20J0D01*
G01*
X3020Y975D02*
G03*
X3020Y975I-20J0D01*
G01*
X1645Y3280D02*
G03*
X1645Y3280I-20J0D01*
G01*
X3430Y1315D02*
G03*
X3430Y1315I-20J0D01*
G01*
X3485Y1235D02*
G03*
X3485Y1235I-20J0D01*
G01*
X3175Y695D02*
G03*
X3175Y695I-20J0D01*
G01*
X3473Y2110D02*
G03*
X3473Y2110I-20J0D01*
G01*
X3435Y1670D02*
G03*
X3435Y1670I-20J0D01*
G01*
X2140Y2265D02*
G03*
X2140Y2265I-20J0D01*
G01*
M02*
