%FSLAX23Y23*%
%MOIN*%
G70*
G01*
G75*
G04 Layer_Color=13488067*
G04 Layer_Color=13488067*
%ADD10C,0.013*%
%ADD11R,0.024X0.080*%
%ADD12O,0.024X0.080*%
%ADD13R,0.039X0.071*%
%ADD14R,0.057X0.035*%
%ADD15R,0.035X0.057*%
%ADD16R,0.036X0.036*%
%ADD17R,0.060X0.052*%
%ADD18O,0.030X0.020*%
%ADD19O,0.030X0.059*%
%ADD20O,0.028X0.059*%
%ADD21R,0.071X0.126*%
%ADD22R,0.036X0.050*%
%ADD23R,0.050X0.036*%
%ADD24R,0.095X0.091*%
%ADD25R,0.071X0.039*%
%ADD26R,0.079X0.079*%
%ADD27R,0.051X0.079*%
%ADD28R,0.052X0.060*%
%ADD29O,0.059X0.028*%
%ADD30O,0.059X0.030*%
%ADD31O,0.020X0.030*%
%ADD32R,0.063X0.071*%
%ADD33O,0.013X0.055*%
%ADD34R,0.013X0.055*%
%ADD35O,0.080X0.024*%
%ADD36R,0.037X0.037*%
%ADD37R,0.033X0.037*%
%ADD38R,0.114X0.095*%
%ADD39O,0.067X0.047*%
%ADD40O,0.031X0.043*%
%ADD41O,0.047X0.067*%
%ADD42O,0.043X0.031*%
%ADD43R,0.060X0.100*%
%ADD44C,0.050*%
%ADD45R,0.060X0.060*%
%ADD46R,0.050X0.060*%
%ADD47R,0.079X0.051*%
%ADD48C,0.016*%
%ADD49C,0.024*%
%ADD50C,0.010*%
%ADD51C,0.032*%
%ADD52C,0.020*%
%ADD53C,0.008*%
%ADD54C,0.080*%
%ADD55C,0.050*%
%ADD56C,0.100*%
%ADD57C,0.040*%
%ADD58C,0.005*%
%ADD59C,0.118*%
%ADD60C,0.150*%
%ADD61C,0.060*%
%ADD62R,0.062X0.062*%
%ADD63C,0.062*%
%ADD64R,0.064X0.064*%
%ADD65C,0.064*%
%ADD66R,0.050X0.040*%
%ADD67R,0.100X0.100*%
%ADD68C,0.100*%
%ADD69C,0.047*%
%ADD70O,0.060X0.079*%
%ADD71R,0.070X0.070*%
%ADD72C,0.070*%
%ADD73C,0.180*%
%ADD74C,0.022*%
%ADD75C,0.016*%
%ADD76C,0.028*%
%ADD77C,0.032*%
%ADD78R,0.071X0.063*%
%ADD79C,0.008*%
%ADD80C,0.010*%
%ADD81C,0.012*%
%ADD82C,0.004*%
%ADD83R,0.028X0.084*%
%ADD84O,0.028X0.084*%
%ADD85R,0.043X0.075*%
%ADD86R,0.061X0.039*%
%ADD87R,0.039X0.061*%
%ADD88R,0.040X0.040*%
%ADD89R,0.064X0.056*%
%ADD90O,0.034X0.024*%
%ADD91O,0.034X0.063*%
%ADD92O,0.032X0.063*%
%ADD93R,0.075X0.130*%
%ADD94R,0.040X0.054*%
%ADD95R,0.054X0.040*%
%ADD96R,0.099X0.095*%
%ADD97R,0.075X0.043*%
%ADD98R,0.083X0.083*%
%ADD99R,0.055X0.083*%
%ADD100R,0.056X0.064*%
%ADD101O,0.063X0.032*%
%ADD102O,0.063X0.034*%
%ADD103O,0.024X0.034*%
%ADD104R,0.067X0.075*%
%ADD105O,0.017X0.059*%
%ADD106R,0.017X0.059*%
%ADD107O,0.084X0.028*%
%ADD108R,0.041X0.041*%
%ADD109R,0.037X0.041*%
%ADD110R,0.118X0.099*%
%ADD111O,0.071X0.051*%
%ADD112O,0.035X0.047*%
%ADD113O,0.051X0.071*%
%ADD114O,0.047X0.035*%
%ADD115R,0.064X0.104*%
%ADD116C,0.054*%
%ADD117R,0.054X0.064*%
%ADD118R,0.083X0.055*%
%ADD119C,0.122*%
%ADD120C,0.154*%
%ADD121R,0.066X0.066*%
%ADD122C,0.066*%
%ADD123R,0.068X0.068*%
%ADD124C,0.068*%
%ADD125R,0.054X0.044*%
%ADD126R,0.104X0.104*%
%ADD127C,0.104*%
%ADD128C,0.051*%
%ADD129O,0.064X0.083*%
%ADD130R,0.074X0.074*%
%ADD131C,0.074*%
%ADD132C,0.184*%
D50*
X-390Y5220D02*
X-343D01*
X-367D01*
Y5150D01*
X-308D02*
X-285D01*
X-273Y5162D01*
Y5185D01*
X-285Y5197D01*
X-308D01*
X-320Y5185D01*
Y5162D01*
X-308Y5150D01*
X-250Y5127D02*
Y5197D01*
X-215D01*
X-203Y5185D01*
Y5162D01*
X-215Y5150D01*
X-250D01*
X-63Y5208D02*
X-75Y5220D01*
X-98D01*
X-110Y5208D01*
Y5197D01*
X-98Y5185D01*
X-75D01*
X-63Y5173D01*
Y5162D01*
X-75Y5150D01*
X-98D01*
X-110Y5162D01*
X-28Y5150D02*
X-5D01*
X7Y5162D01*
Y5185D01*
X-5Y5197D01*
X-28D01*
X-40Y5185D01*
Y5162D01*
X-28Y5150D01*
X30D02*
X53D01*
X42D01*
Y5220D01*
X30D01*
X135D02*
Y5150D01*
X100D01*
X88Y5162D01*
Y5185D01*
X100Y5197D01*
X135D01*
X193Y5150D02*
X170D01*
X158Y5162D01*
Y5185D01*
X170Y5197D01*
X193D01*
X205Y5185D01*
Y5173D01*
X158D01*
X228Y5197D02*
Y5150D01*
Y5173D01*
X240Y5185D01*
X251Y5197D01*
X263D01*
X368Y5150D02*
Y5220D01*
X391Y5197D01*
X415Y5220D01*
Y5150D01*
X450Y5197D02*
X473D01*
X485Y5185D01*
Y5150D01*
X450D01*
X438Y5162D01*
X450Y5173D01*
X485D01*
X508Y5150D02*
X543D01*
X555Y5162D01*
X543Y5173D01*
X520D01*
X508Y5185D01*
X520Y5197D01*
X555D01*
X578Y5150D02*
Y5220D01*
Y5173D02*
X613Y5197D01*
X578Y5173D02*
X613Y5150D01*
D64*
X2347Y1400D02*
D03*
X2212D02*
D03*
X720Y1887D02*
D03*
X2560Y797D02*
D03*
X1670Y397D02*
D03*
X2260D02*
D03*
X1380D02*
D03*
X1970D02*
D03*
X3990Y1657D02*
D03*
X290Y3450D02*
D03*
X720Y2457D02*
D03*
Y917D02*
D03*
X2815Y2638D02*
D03*
X2860Y717D02*
D03*
X3990Y3547D02*
D03*
D65*
X1670Y497D02*
D03*
X1380Y997D02*
D03*
Y1097D02*
D03*
Y897D02*
D03*
X1670Y1297D02*
D03*
Y1197D02*
D03*
Y997D02*
D03*
X720Y1987D02*
D03*
Y2087D02*
D03*
X2560Y597D02*
D03*
Y697D02*
D03*
Y397D02*
D03*
Y497D02*
D03*
X1670Y1097D02*
D03*
Y697D02*
D03*
Y797D02*
D03*
X2260Y1197D02*
D03*
Y1297D02*
D03*
Y1097D02*
D03*
Y897D02*
D03*
Y697D02*
D03*
Y797D02*
D03*
Y497D02*
D03*
Y597D02*
D03*
X1380Y1297D02*
D03*
Y697D02*
D03*
Y797D02*
D03*
Y497D02*
D03*
Y597D02*
D03*
X1670Y897D02*
D03*
X1970Y597D02*
D03*
Y497D02*
D03*
Y797D02*
D03*
Y697D02*
D03*
Y897D02*
D03*
Y997D02*
D03*
Y1297D02*
D03*
Y1197D02*
D03*
X2260Y997D02*
D03*
X1970Y1097D02*
D03*
X1380Y1197D02*
D03*
X1670Y597D02*
D03*
X290Y3250D02*
D03*
Y3350D02*
D03*
X720Y2257D02*
D03*
Y2357D02*
D03*
Y1117D02*
D03*
Y1017D02*
D03*
X970Y467D02*
D03*
X1260Y1515D02*
D03*
Y1415D02*
D03*
X2815Y2938D02*
D03*
Y3038D02*
D03*
Y2738D02*
D03*
Y2838D02*
D03*
X2860Y1017D02*
D03*
Y1117D02*
D03*
Y817D02*
D03*
Y917D02*
D03*
X3990Y1457D02*
D03*
Y1557D02*
D03*
Y1257D02*
D03*
Y1357D02*
D03*
Y1157D02*
D03*
Y957D02*
D03*
Y1057D02*
D03*
Y757D02*
D03*
Y857D02*
D03*
Y3347D02*
D03*
Y3447D02*
D03*
Y3147D02*
D03*
Y3247D02*
D03*
Y3047D02*
D03*
Y2847D02*
D03*
Y2947D02*
D03*
Y2647D02*
D03*
Y2747D02*
D03*
X1070Y467D02*
D03*
X570Y467D02*
D03*
X470D02*
D03*
Y167D02*
D03*
X1070D02*
D03*
D83*
X2256Y2820D02*
D03*
D84*
X2206D02*
D03*
X2156D02*
D03*
X2106D02*
D03*
X2056D02*
D03*
X2006D02*
D03*
X1956D02*
D03*
X1906D02*
D03*
X1856D02*
D03*
X1806D02*
D03*
X1756D02*
D03*
X1706D02*
D03*
X1656D02*
D03*
X1606D02*
D03*
Y2440D02*
D03*
X1656D02*
D03*
X1706D02*
D03*
X1756D02*
D03*
X1806D02*
D03*
X1856D02*
D03*
X1906D02*
D03*
X1956D02*
D03*
X2006D02*
D03*
X2056D02*
D03*
X2106D02*
D03*
X2156D02*
D03*
X2206D02*
D03*
X2256D02*
D03*
X1065Y2020D02*
D03*
X1115D02*
D03*
X1165D02*
D03*
X1215D02*
D03*
X1265D02*
D03*
X1315D02*
D03*
X1365D02*
D03*
X1415D02*
D03*
Y1800D02*
D03*
X1365D02*
D03*
X1315D02*
D03*
X1265D02*
D03*
X1215D02*
D03*
X1165D02*
D03*
X1115D02*
D03*
X1065D02*
D03*
X3100Y1174D02*
D03*
X3000D02*
D03*
X3100Y899D02*
D03*
X3000D02*
D03*
X3060Y2994D02*
D03*
X2960D02*
D03*
X3060Y2719D02*
D03*
X2960D02*
D03*
X1210Y1114D02*
D03*
X1110D02*
D03*
X1210Y839D02*
D03*
X1110D02*
D03*
D85*
X3079Y1385D02*
D03*
X2962D02*
D03*
X3139Y3258D02*
D03*
X3022D02*
D03*
X3171Y1177D02*
D03*
X3288D02*
D03*
X3022Y3061D02*
D03*
X3139D02*
D03*
X3212Y1615D02*
D03*
X1009Y1117D02*
D03*
X1119Y1227D02*
D03*
X680Y1476D02*
D03*
X797D02*
D03*
X650Y1604D02*
D03*
X767D02*
D03*
X3337Y472D02*
D03*
X3454D02*
D03*
X3371Y1177D02*
D03*
X3488D02*
D03*
X3230Y1279D02*
D03*
X3347D02*
D03*
X3079Y1287D02*
D03*
X2962D02*
D03*
X3079Y1485D02*
D03*
X2962D02*
D03*
X3377Y2352D02*
D03*
X3494D02*
D03*
X3239Y3061D02*
D03*
X3356D02*
D03*
X3239Y3159D02*
D03*
X3356D02*
D03*
X3003D02*
D03*
X3120D02*
D03*
X1569Y2205D02*
D03*
X1452D02*
D03*
X2281Y2095D02*
D03*
X2398D02*
D03*
X2291Y2285D02*
D03*
X2408D02*
D03*
X2451Y1915D02*
D03*
X2568D02*
D03*
X2471Y1575D02*
D03*
X2588D02*
D03*
X3329Y1615D02*
D03*
X2589Y1475D02*
D03*
X2472D02*
D03*
X892Y1117D02*
D03*
X3288Y1385D02*
D03*
X3171D02*
D03*
X1002Y1227D02*
D03*
X799Y587D02*
D03*
X682D02*
D03*
X3359Y3257D02*
D03*
X3242D02*
D03*
D86*
X970Y1943D02*
D03*
Y1867D02*
D03*
X1760Y2217D02*
D03*
Y2293D02*
D03*
X1670D02*
D03*
X2840Y1717D02*
D03*
Y1793D02*
D03*
X3000Y2118D02*
D03*
Y2042D02*
D03*
X2875Y2067D02*
D03*
Y2143D02*
D03*
X1120Y735D02*
D03*
Y659D02*
D03*
X1063Y1586D02*
D03*
Y1662D02*
D03*
X2430Y2732D02*
D03*
Y2656D02*
D03*
X1520Y2668D02*
D03*
Y2592D02*
D03*
X2080Y1803D02*
D03*
Y1727D02*
D03*
X2170Y2173D02*
D03*
Y2097D02*
D03*
X2080Y1973D02*
D03*
Y1897D02*
D03*
X1920Y3122D02*
D03*
Y3046D02*
D03*
X2090Y3049D02*
D03*
Y3125D02*
D03*
X2260Y1487D02*
D03*
Y1563D02*
D03*
X2350Y1563D02*
D03*
Y1487D02*
D03*
X2170Y1563D02*
D03*
Y1487D02*
D03*
Y1723D02*
D03*
Y1647D02*
D03*
X2260Y1723D02*
D03*
Y1647D02*
D03*
X3660Y2033D02*
D03*
Y1957D02*
D03*
X2480Y1147D02*
D03*
Y1223D02*
D03*
X2570Y1383D02*
D03*
Y1307D02*
D03*
X1560Y1893D02*
D03*
Y1817D02*
D03*
X2350Y2732D02*
D03*
Y2656D02*
D03*
X2660Y1383D02*
D03*
Y1307D02*
D03*
X3250Y2027D02*
D03*
Y2103D02*
D03*
X2480Y1383D02*
D03*
Y1307D02*
D03*
X1870Y3562D02*
D03*
Y3486D02*
D03*
X2110Y3927D02*
D03*
Y4003D02*
D03*
X1370Y3489D02*
D03*
Y3565D02*
D03*
X1460Y4003D02*
D03*
Y3927D02*
D03*
X2480Y1052D02*
D03*
Y976D02*
D03*
X1670Y2217D02*
D03*
X490Y3658D02*
D03*
Y3582D02*
D03*
X490Y589D02*
D03*
Y665D02*
D03*
X580Y589D02*
D03*
Y665D02*
D03*
X1470Y159D02*
D03*
Y235D02*
D03*
X1380Y159D02*
D03*
Y235D02*
D03*
X1520Y2749D02*
D03*
Y2825D02*
D03*
X1820Y2003D02*
D03*
Y1927D02*
D03*
X3660Y2177D02*
D03*
Y2253D02*
D03*
X1660Y1633D02*
D03*
Y1557D02*
D03*
X1210Y738D02*
D03*
Y662D02*
D03*
D87*
X3118Y1585D02*
D03*
X3042D02*
D03*
X1378Y1625D02*
D03*
X1622Y3034D02*
D03*
X1302Y1625D02*
D03*
X973Y1565D02*
D03*
X897D02*
D03*
X973Y1476D02*
D03*
X897D02*
D03*
X973Y1663D02*
D03*
X897D02*
D03*
X1357Y2844D02*
D03*
X1433D02*
D03*
X1357Y2479D02*
D03*
X1433D02*
D03*
X1357Y2934D02*
D03*
X1433D02*
D03*
X1357Y2754D02*
D03*
X1433D02*
D03*
X2352Y2834D02*
D03*
X2428D02*
D03*
X2248Y1995D02*
D03*
X2172D02*
D03*
X2398Y2185D02*
D03*
X2322D02*
D03*
X2248Y1905D02*
D03*
X2172D02*
D03*
X1658Y2937D02*
D03*
X1582D02*
D03*
X1698Y3034D02*
D03*
Y3127D02*
D03*
X1622D02*
D03*
X2398Y2424D02*
D03*
X2322D02*
D03*
X2352Y2924D02*
D03*
X2428D02*
D03*
X1624Y3218D02*
D03*
X1700D02*
D03*
X2248Y1815D02*
D03*
X2172D02*
D03*
X2568Y2015D02*
D03*
X2492D02*
D03*
X3008Y1725D02*
D03*
X2932D02*
D03*
X3008Y1815D02*
D03*
X2932D02*
D03*
X3168Y1925D02*
D03*
X3092D02*
D03*
X3098Y2205D02*
D03*
X3022D02*
D03*
X3168Y1815D02*
D03*
X3092D02*
D03*
X3168Y2015D02*
D03*
X3092D02*
D03*
X3428Y1720D02*
D03*
X3352D02*
D03*
X3268Y2207D02*
D03*
X3192D02*
D03*
X2648Y1205D02*
D03*
X2572D02*
D03*
X1988Y1905D02*
D03*
X1912D02*
D03*
X1728Y1725D02*
D03*
X1652D02*
D03*
X1912Y1725D02*
D03*
X1988D02*
D03*
X1988Y1995D02*
D03*
X1912D02*
D03*
X2428Y2564D02*
D03*
X1357Y2569D02*
D03*
X1433D02*
D03*
X1357Y2664D02*
D03*
X1433D02*
D03*
X2568Y1805D02*
D03*
X2492D02*
D03*
X3168Y2105D02*
D03*
X3092D02*
D03*
X3168Y1725D02*
D03*
X3092D02*
D03*
X1812Y2095D02*
D03*
X1888D02*
D03*
X1492Y1730D02*
D03*
X1568D02*
D03*
X2768Y2095D02*
D03*
X2692D02*
D03*
X2748Y1475D02*
D03*
X2672D02*
D03*
X1568Y1640D02*
D03*
X1492D02*
D03*
X1988Y1815D02*
D03*
X1912D02*
D03*
X1728D02*
D03*
X1652D02*
D03*
X3660Y472D02*
D03*
X3584D02*
D03*
X3660Y669D02*
D03*
X3584D02*
D03*
X3660Y866D02*
D03*
X3584D02*
D03*
X3660Y1063D02*
D03*
X3584D02*
D03*
X3660Y1260D02*
D03*
X3584D02*
D03*
X3660Y2352D02*
D03*
X3584D02*
D03*
X3660Y2559D02*
D03*
X3584D02*
D03*
X3660Y2756D02*
D03*
X3584D02*
D03*
X3660Y2953D02*
D03*
X3584D02*
D03*
X3660Y3150D02*
D03*
X3584D02*
D03*
X2352Y2564D02*
D03*
X651Y1713D02*
D03*
X727D02*
D03*
X1078Y1325D02*
D03*
X1002D02*
D03*
X888Y4017D02*
D03*
X812D02*
D03*
X978Y587D02*
D03*
X902D02*
D03*
X1008Y1017D02*
D03*
X932D02*
D03*
D88*
X2877Y1975D02*
D03*
X2870Y1642D02*
D03*
X1528Y1507D02*
D03*
X1453D02*
D03*
X1153Y1419D02*
D03*
Y1494D02*
D03*
X2590Y2217D02*
D03*
Y2292D02*
D03*
X2183Y3097D02*
D03*
X2802Y1975D02*
D03*
X2870Y1567D02*
D03*
X2750Y1577D02*
D03*
Y1652D02*
D03*
X1907Y2174D02*
D03*
X1737Y2080D02*
D03*
X1228Y1584D02*
D03*
X1153D02*
D03*
X400Y589D02*
D03*
Y664D02*
D03*
X2942Y1970D02*
D03*
X3017D02*
D03*
X1662Y2080D02*
D03*
X1832Y2174D02*
D03*
X2258Y3097D02*
D03*
D89*
X3663Y3346D02*
D03*
X3503D02*
D03*
Y1457D02*
D03*
X3663D02*
D03*
X3503Y1654D02*
D03*
X3663D02*
D03*
X3510Y1775D02*
D03*
X3670D02*
D03*
X3503Y3543D02*
D03*
X3663D02*
D03*
X3503Y3740D02*
D03*
X3663D02*
D03*
X1655Y3563D02*
D03*
X1495D02*
D03*
D90*
X3500Y1526D02*
D03*
Y1587D02*
D03*
Y3477D02*
D03*
Y3416D02*
D03*
X659Y1379D02*
D03*
Y1318D02*
D03*
X3584Y1316D02*
D03*
Y1377D02*
D03*
X3585Y592D02*
D03*
Y531D02*
D03*
Y797D02*
D03*
Y736D02*
D03*
Y992D02*
D03*
Y931D02*
D03*
X3584Y1197D02*
D03*
Y1136D02*
D03*
X3580Y2487D02*
D03*
Y2426D02*
D03*
Y2687D02*
D03*
Y2626D02*
D03*
Y2887D02*
D03*
Y2826D02*
D03*
Y3087D02*
D03*
Y3026D02*
D03*
Y3277D02*
D03*
Y3216D02*
D03*
D91*
X3541Y1557D02*
D03*
Y3447D02*
D03*
X618Y1348D02*
D03*
X3625Y1347D02*
D03*
X3626Y562D02*
D03*
Y767D02*
D03*
Y962D02*
D03*
X3625Y1167D02*
D03*
X3621Y2457D02*
D03*
Y2657D02*
D03*
Y2857D02*
D03*
Y3057D02*
D03*
Y3247D02*
D03*
D92*
X3459Y1557D02*
D03*
Y3447D02*
D03*
X701Y1348D02*
D03*
X3543Y1347D02*
D03*
X3544Y562D02*
D03*
Y767D02*
D03*
Y962D02*
D03*
X3543Y1167D02*
D03*
X3539Y2457D02*
D03*
Y2657D02*
D03*
Y2857D02*
D03*
Y3057D02*
D03*
Y3247D02*
D03*
D93*
X720Y747D02*
D03*
X940D02*
D03*
D94*
X1490Y1427D02*
D03*
X2839Y1895D02*
D03*
X1191Y1664D02*
D03*
X2979Y1890D02*
D03*
X1700Y2160D02*
D03*
X1870Y2254D02*
D03*
X2220Y3017D02*
D03*
D95*
X1073Y1457D02*
D03*
X2510Y2255D02*
D03*
X2950Y1604D02*
D03*
X2670Y1615D02*
D03*
X320Y627D02*
D03*
D96*
X3225Y463D02*
D03*
X3035D02*
D03*
X3275Y607D02*
D03*
X3465D02*
D03*
X3265Y2347D02*
D03*
X3075D02*
D03*
X3255Y2497D02*
D03*
X3445D02*
D03*
X3365Y2225D02*
D03*
X3555D02*
D03*
D97*
X3426Y758D02*
D03*
Y875D02*
D03*
Y965D02*
D03*
Y1082D02*
D03*
X3328Y965D02*
D03*
Y1082D02*
D03*
X3328Y875D02*
D03*
Y758D02*
D03*
X3239Y758D02*
D03*
X3230Y1085D02*
D03*
X3376Y2638D02*
D03*
Y2755D02*
D03*
Y2845D02*
D03*
Y2962D02*
D03*
X3278Y2845D02*
D03*
Y2962D02*
D03*
Y2638D02*
D03*
Y2755D02*
D03*
X3179Y2638D02*
D03*
Y2755D02*
D03*
X3179Y2962D02*
D03*
Y2845D02*
D03*
X2913Y3150D02*
D03*
Y3267D02*
D03*
X1560Y1986D02*
D03*
Y2103D02*
D03*
X1960Y1516D02*
D03*
Y1633D02*
D03*
X2080Y2056D02*
D03*
Y2173D02*
D03*
X2070Y1633D02*
D03*
Y1516D02*
D03*
X2360Y1656D02*
D03*
Y1773D02*
D03*
X2750Y1266D02*
D03*
Y1383D02*
D03*
X2590Y986D02*
D03*
Y1103D02*
D03*
X1820Y1843D02*
D03*
Y1726D02*
D03*
X1860Y1516D02*
D03*
Y1633D02*
D03*
X1670Y1896D02*
D03*
Y2013D02*
D03*
X1760Y1516D02*
D03*
Y1633D02*
D03*
X1980Y2086D02*
D03*
Y2203D02*
D03*
X3239Y875D02*
D03*
X3230Y968D02*
D03*
X3260Y1828D02*
D03*
Y1711D02*
D03*
X1250Y158D02*
D03*
Y275D02*
D03*
D98*
X830Y1374D02*
D03*
X3108Y2537D02*
D03*
X3070Y774D02*
D03*
D99*
X875Y1219D02*
D03*
X785D02*
D03*
X3025Y619D02*
D03*
X3115D02*
D03*
D100*
X2146Y3594D02*
D03*
Y3434D02*
D03*
X1762Y3444D02*
D03*
Y3604D02*
D03*
X1350Y4045D02*
D03*
Y3885D02*
D03*
X910Y3657D02*
D03*
Y3817D02*
D03*
X2000Y4055D02*
D03*
Y3895D02*
D03*
D101*
X2254Y3463D02*
D03*
X1270Y3545D02*
D03*
X1180Y3548D02*
D03*
X1090D02*
D03*
X1240Y3968D02*
D03*
X1467Y3384D02*
D03*
X1663Y3467D02*
D03*
X1959Y3463D02*
D03*
D102*
X2254Y3545D02*
D03*
X1270Y3463D02*
D03*
X1180Y3466D02*
D03*
X1090D02*
D03*
X1240Y3886D02*
D03*
X1663Y3384D02*
D03*
X1467Y3467D02*
D03*
X1959Y3545D02*
D03*
D103*
X2223Y3504D02*
D03*
X2284D02*
D03*
X1300Y3504D02*
D03*
X1239D02*
D03*
X1211Y3507D02*
D03*
X1149D02*
D03*
X1121D02*
D03*
X1059D02*
D03*
X1271Y3927D02*
D03*
X1209D02*
D03*
X1497Y3425D02*
D03*
X1436D02*
D03*
X1633Y3425D02*
D03*
X1694D02*
D03*
X1989Y3504D02*
D03*
X1928D02*
D03*
D104*
X1553Y2315D02*
D03*
X1427D02*
D03*
X2193Y2275D02*
D03*
X2067D02*
D03*
X2477Y2125D02*
D03*
X2603D02*
D03*
X2462Y1695D02*
D03*
X2588D02*
D03*
D105*
X1811Y2695D02*
D03*
X1837D02*
D03*
X1862D02*
D03*
X1888D02*
D03*
X1914D02*
D03*
X1939D02*
D03*
X1965D02*
D03*
X1990D02*
D03*
X2016D02*
D03*
X2067D02*
D03*
X2118D02*
D03*
X2144D02*
D03*
X1811Y2955D02*
D03*
X1837D02*
D03*
X1862D02*
D03*
X1888D02*
D03*
X1914D02*
D03*
X1939D02*
D03*
X1965D02*
D03*
X1990D02*
D03*
X2016D02*
D03*
X2042D02*
D03*
X2067D02*
D03*
X2093D02*
D03*
X2118D02*
D03*
X2042Y2695D02*
D03*
X2093D02*
D03*
D106*
X2144Y2955D02*
D03*
D107*
X3560Y2109D02*
D03*
Y2059D02*
D03*
Y2009D02*
D03*
Y1959D02*
D03*
X3340D02*
D03*
Y2009D02*
D03*
Y2059D02*
D03*
Y2109D02*
D03*
D108*
X3410Y1884D02*
D03*
D109*
X3447Y1806D02*
D03*
X3374D02*
D03*
D110*
X2700Y1985D02*
D03*
Y1744D02*
D03*
D111*
X910Y3576D02*
D03*
Y3458D02*
D03*
D112*
X880Y3516D02*
D03*
X940D02*
D03*
D113*
X919Y3907D02*
D03*
X801D02*
D03*
D114*
X861Y3877D02*
D03*
Y3936D02*
D03*
D115*
X1801Y3308D02*
D03*
X2256D02*
D03*
D116*
X1135Y2105D02*
D03*
D117*
X1910Y3892D02*
D03*
Y3982D02*
D03*
X2040Y3552D02*
D03*
Y3462D02*
D03*
X1570Y3375D02*
D03*
Y3465D02*
D03*
D118*
X2953Y2492D02*
D03*
Y2582D02*
D03*
D119*
X886Y3248D02*
D03*
X3346Y3937D02*
D03*
X197Y394D02*
D03*
X2835D02*
D03*
D120*
X748Y3740D02*
D03*
X2598D02*
D03*
D121*
X1019Y3795D02*
D03*
X492Y1161D02*
D03*
D122*
X1128Y3795D02*
D03*
X1237D02*
D03*
X1346D02*
D03*
X1455D02*
D03*
X1564D02*
D03*
X1673D02*
D03*
X1782D02*
D03*
X1891D02*
D03*
X2000D02*
D03*
X2109D02*
D03*
X2218D02*
D03*
X2327D02*
D03*
X1074Y3685D02*
D03*
X1183D02*
D03*
X1292D02*
D03*
X1401D02*
D03*
X1510D02*
D03*
X1619D02*
D03*
X1728D02*
D03*
X1837D02*
D03*
X1946D02*
D03*
X2055D02*
D03*
X2164D02*
D03*
X2273D02*
D03*
X392Y2415D02*
D03*
Y2306D02*
D03*
Y2197D02*
D03*
Y1979D02*
D03*
Y1870D02*
D03*
Y1761D02*
D03*
Y1652D02*
D03*
Y1543D02*
D03*
Y1325D02*
D03*
Y1216D02*
D03*
X492Y2469D02*
D03*
Y2360D02*
D03*
Y2251D02*
D03*
Y2142D02*
D03*
Y2033D02*
D03*
Y1815D02*
D03*
Y1706D02*
D03*
Y1597D02*
D03*
Y1488D02*
D03*
Y1379D02*
D03*
Y1270D02*
D03*
Y1924D02*
D03*
X392Y1433D02*
D03*
Y2088D02*
D03*
D123*
X470Y3977D02*
D03*
D124*
Y3768D02*
D03*
D125*
X1220Y2677D02*
D03*
Y2559D02*
D03*
Y2618D02*
D03*
Y2795D02*
D03*
Y2854D02*
D03*
Y2736D02*
D03*
X2580Y2805D02*
D03*
Y2746D02*
D03*
Y2864D02*
D03*
Y2628D02*
D03*
Y2569D02*
D03*
Y2687D02*
D03*
D126*
X315Y3976D02*
D03*
D127*
Y3826D02*
D03*
Y3676D02*
D03*
X1670Y197D02*
D03*
X3780Y2047D02*
D03*
Y3937D02*
D03*
Y3740D02*
D03*
Y1850D02*
D03*
Y3543D02*
D03*
Y1654D02*
D03*
Y3346D02*
D03*
Y1457D02*
D03*
Y3150D02*
D03*
Y1260D02*
D03*
Y2953D02*
D03*
Y1063D02*
D03*
Y2756D02*
D03*
Y866D02*
D03*
Y2559D02*
D03*
Y669D02*
D03*
Y2362D02*
D03*
Y472D02*
D03*
D128*
X1934Y3308D02*
D03*
X2126D02*
D03*
D129*
X2717Y3642D02*
D03*
Y3843D02*
D03*
Y3543D02*
D03*
Y3937D02*
D03*
X630Y3642D02*
D03*
Y3843D02*
D03*
Y3543D02*
D03*
Y3937D02*
D03*
D130*
X1130Y2387D02*
D03*
D131*
X1230D02*
D03*
X1130Y2287D02*
D03*
X1230D02*
D03*
X1130Y2187D02*
D03*
X1230D02*
D03*
D132*
X442Y886D02*
D03*
Y2744D02*
D03*
M02*
