%FSLAX23Y23*%
%MOIN*%
G70*
G01*
G75*
G04 Layer_Color=16776960*
%ADD10C,0.013*%
%ADD11R,0.024X0.080*%
%ADD12O,0.024X0.080*%
%ADD13R,0.039X0.071*%
%ADD14R,0.057X0.035*%
%ADD15R,0.035X0.057*%
%ADD16R,0.036X0.036*%
%ADD17R,0.060X0.052*%
%ADD18O,0.030X0.020*%
%ADD19O,0.030X0.059*%
%ADD20O,0.028X0.059*%
%ADD21R,0.071X0.126*%
%ADD22R,0.036X0.050*%
%ADD23R,0.050X0.036*%
%ADD24R,0.095X0.091*%
%ADD25R,0.071X0.039*%
%ADD26R,0.079X0.079*%
%ADD27R,0.051X0.079*%
%ADD28R,0.052X0.060*%
%ADD29O,0.059X0.028*%
%ADD30O,0.059X0.030*%
%ADD31O,0.020X0.030*%
%ADD32R,0.063X0.071*%
%ADD33O,0.013X0.055*%
%ADD34R,0.013X0.055*%
%ADD35O,0.080X0.024*%
%ADD36R,0.037X0.037*%
%ADD37R,0.033X0.037*%
%ADD38R,0.114X0.095*%
%ADD39O,0.067X0.047*%
%ADD40O,0.031X0.043*%
%ADD41O,0.047X0.067*%
%ADD42O,0.043X0.031*%
%ADD43R,0.060X0.100*%
%ADD44C,0.050*%
%ADD45R,0.060X0.060*%
%ADD46R,0.050X0.060*%
%ADD47R,0.079X0.051*%
%ADD48C,0.016*%
%ADD49C,0.024*%
%ADD50C,0.010*%
%ADD51C,0.032*%
%ADD52C,0.020*%
%ADD53C,0.008*%
%ADD54C,0.080*%
%ADD55C,0.050*%
%ADD56C,0.100*%
%ADD57C,0.040*%
%ADD58C,0.005*%
%ADD59C,0.118*%
%ADD60C,0.150*%
%ADD61C,0.060*%
%ADD62R,0.062X0.062*%
%ADD63C,0.062*%
%ADD64R,0.064X0.064*%
%ADD65C,0.064*%
%ADD66R,0.050X0.040*%
%ADD67R,0.100X0.100*%
%ADD68C,0.100*%
%ADD69C,0.047*%
%ADD70O,0.060X0.079*%
%ADD71R,0.070X0.070*%
%ADD72C,0.070*%
%ADD73C,0.180*%
%ADD74C,0.022*%
%ADD75C,0.016*%
%ADD76C,0.028*%
%ADD77C,0.032*%
%ADD78R,0.071X0.063*%
%ADD79C,0.008*%
%ADD80C,0.010*%
%ADD81C,0.012*%
%ADD82C,0.004*%
%ADD83R,0.028X0.084*%
%ADD84O,0.028X0.084*%
%ADD85R,0.043X0.075*%
%ADD86R,0.061X0.039*%
%ADD87R,0.039X0.061*%
%ADD88R,0.040X0.040*%
%ADD89R,0.064X0.056*%
%ADD90O,0.034X0.024*%
%ADD91O,0.034X0.063*%
%ADD92O,0.032X0.063*%
%ADD93R,0.075X0.130*%
%ADD94R,0.040X0.054*%
%ADD95R,0.054X0.040*%
%ADD96R,0.099X0.095*%
%ADD97R,0.075X0.043*%
%ADD98R,0.083X0.083*%
%ADD99R,0.055X0.083*%
%ADD100R,0.056X0.064*%
%ADD101O,0.063X0.032*%
%ADD102O,0.063X0.034*%
%ADD103O,0.024X0.034*%
%ADD104R,0.067X0.075*%
%ADD105O,0.017X0.059*%
%ADD106R,0.017X0.059*%
%ADD107O,0.084X0.028*%
%ADD108R,0.041X0.041*%
%ADD109R,0.037X0.041*%
%ADD110R,0.118X0.099*%
%ADD111O,0.071X0.051*%
%ADD112O,0.035X0.047*%
%ADD113O,0.051X0.071*%
%ADD114O,0.047X0.035*%
%ADD115R,0.064X0.104*%
%ADD116C,0.054*%
%ADD117R,0.054X0.064*%
%ADD118R,0.083X0.055*%
%ADD119C,0.122*%
%ADD120C,0.154*%
%ADD121R,0.066X0.066*%
%ADD122C,0.066*%
%ADD123R,0.068X0.068*%
%ADD124C,0.068*%
%ADD125R,0.054X0.044*%
%ADD126R,0.104X0.104*%
%ADD127C,0.104*%
%ADD128C,0.051*%
%ADD129O,0.064X0.083*%
%ADD130R,0.074X0.074*%
%ADD131C,0.074*%
%ADD132C,0.184*%
%ADD133R,0.075X0.067*%
D50*
X1790Y5010D02*
Y5080D01*
X1813Y5057D01*
X1837Y5080D01*
Y5010D01*
X1895D02*
X1872D01*
X1860Y5022D01*
Y5045D01*
X1872Y5057D01*
X1895D01*
X1907Y5045D01*
Y5033D01*
X1860D01*
X1977Y5057D02*
X1942D01*
X1930Y5045D01*
Y5022D01*
X1942Y5010D01*
X1977D01*
X2000Y5080D02*
Y5010D01*
Y5045D01*
X2012Y5057D01*
X2035D01*
X2047Y5045D01*
Y5010D01*
X2082Y5057D02*
X2105D01*
X2117Y5045D01*
Y5010D01*
X2082D01*
X2070Y5022D01*
X2082Y5033D01*
X2117D01*
X2140Y5010D02*
Y5057D01*
X2175D01*
X2187Y5045D01*
Y5010D01*
X2210D02*
X2233D01*
X2222D01*
Y5057D01*
X2210D01*
X2315D02*
X2280D01*
X2268Y5045D01*
Y5022D01*
X2280Y5010D01*
X2315D01*
X2350Y5057D02*
X2373D01*
X2385Y5045D01*
Y5010D01*
X2350D01*
X2338Y5022D01*
X2350Y5033D01*
X2385D01*
X2408Y5010D02*
X2431D01*
X2420D01*
Y5080D01*
X2408D01*
X2536D02*
Y5010D01*
X2583D01*
X2618Y5057D02*
X2641D01*
X2653Y5045D01*
Y5010D01*
X2618D01*
X2606Y5022D01*
X2618Y5033D01*
X2653D01*
X2676Y5057D02*
Y5022D01*
X2688Y5010D01*
X2723D01*
Y4998D01*
X2711Y4987D01*
X2700D01*
X2723Y5010D02*
Y5057D01*
X2781Y5010D02*
X2758D01*
X2746Y5022D01*
Y5045D01*
X2758Y5057D01*
X2781D01*
X2793Y5045D01*
Y5033D01*
X2746D01*
X2816Y5057D02*
Y5010D01*
Y5033D01*
X2828Y5045D01*
X2840Y5057D01*
X2851D01*
X2956Y5010D02*
X2980D01*
X2968D01*
Y5080D01*
X2956Y5068D01*
D58*
X0Y-0D02*
Y4134D01*
Y-0D02*
X4134D01*
Y4134D01*
X0D02*
X4134D01*
X0Y2953D02*
Y3504D01*
M02*
