G90
M72
M48
T0C0.006
T1C0.012
T3C0.020
T4C0.024
T5C0.028
T6C0.031
T7C0.035
T8C0.039
T9C0.043
T10C0.047
T14C0.063
T16C0.071
T18C0.079
T19C0.083
T20C0.087
T21C0.091
T23C0.098
T25C0.110
T27C0.126
%
G90
M72
M48
%
T0
X35790Y26070
X31380Y13800
X44640Y29020
X44820Y14810
X31550Y13580
X68290Y22490
X39860Y15456
X27580Y14700
X69350Y21640
X47340Y15130
X38650Y28510
X47500Y12070
X38130Y22960
X37150Y20960
X34870Y17910
X28998Y13760
X36230Y27030
X33340Y18920
X36900Y38900
X33600Y25640
X39830Y27220
X39330Y17460
X69090Y23410
X32340Y32450
X35750Y18440
X37150Y24450
X44240Y12750
X69890Y18930
X40050Y26490
X33310Y18410
X37660Y26760
X29500Y14210
X38640Y22740
X38170Y24490
X37670Y24930
X37470Y36930
X36000Y40030
X24260Y30680
X37150Y19950
X45360Y12920
X38020Y18350
X37150Y26750
Y20460
X57360Y35905
X30840Y14240
X49890Y15130
X69390Y23500
X37790Y25790
X29470Y14720
X37290Y27910
X28550Y34310
X32250Y18370
X30420Y14720
X34780Y18390
X27260Y14700
X38210Y24880
X29160Y14720
X42290Y13200
X34010Y16740
X36780Y28310
X30880Y18500
X36650Y20460
X37180Y26280
X69830Y22390
X49570Y15330
T1
X18570Y29390
T0
X35770Y17840
X37150Y24950
X48940Y14700
X57100Y36295
X23520Y35780
X38170Y27770
X46610Y14360
X68970Y19510
X36640Y18450
X69850Y20260
X35190Y40510
X36800Y28570
X36370Y38870
X32310Y32190
T1
X70885Y11617
T0
X39320Y27390
X38710Y27740
X38220Y26700
T1
X42740Y40200
T0
X34630Y19230
X38440Y27840
X29080Y33770
X69860Y22770
X37140Y23460
X37160Y19450
X49210Y14700
X38800Y25460
X33570Y15040
X34220Y17350
X36750Y26290
X36450Y26860
X39450Y18250
X37520Y27850
X37380Y37880
X37680Y21420
T1
X32360Y34410
T0
X49710Y12090
X38370Y12070
X38720Y37820
T1
X18290Y28220
T0
X27640Y14020
X40160Y20250
X23160Y30530
X35290Y26700
X31510Y17360
X35200Y19200
X38720Y26080
X37690Y36920
X36950Y37200
X48130Y12070
X31810Y18920
X37230Y17880
X32820Y18940
X48310Y15140
X67850Y13410
X36800Y26900
X30320Y14270
X37630Y22960
X35760Y18870
X27780Y32330
X69600Y18930
X37150Y21920
X34970Y16320
X35990Y37700
X46310Y14170
X30760Y14720
X69380Y20070
X35710Y26300
X37000Y16850
X38160Y27260
X39620Y20340
X31360Y18460
X36570Y17880
X35340Y18950
X44760Y28060
X69350Y21180
X34490Y14980
X38890Y26350
X44790Y12680
X34860Y15014
T1
X35510Y37990
T0
X69880Y21940
X36000Y28520
X31210Y13980
X36330Y27430
X33240Y15620
X34220Y17860
X38650Y26400
X37160Y23940
X36970Y31960
X69580Y23370
X69890Y20870
X37640Y23960
X38180Y21420
X38150Y25950
X37650Y20450
X38270Y33170
X38330Y26920
X68820Y13870
X33550Y31960
X37180Y18950
X37240Y36950
X69860Y19680
X37140Y21450
X45740Y14670
X34150Y15360
X37150Y18450
X36800Y25380
X38390Y28640
X45440Y15250
X32550Y32090
X47660Y15120
X56810Y43515
X47970Y15120
X30580Y14440
X47820Y12050
X36330Y27900
X30870Y16960
X37650Y24450
X36460Y28690
X68500Y22360
X38270Y36330
X28840Y14710
X68930Y18410
X27890Y14710
X57320Y38100
X32330Y18950
X23930Y31530
X28200Y14710
X68880Y20440
X29740Y28650
X37640Y23460
X37120Y22980
X33800Y18430
X34350Y18490
X37650Y25460
M30
