G90
M72
M48
T0C0.006
T1C0.012
T3C0.020
T4C0.024
T5C0.028
T6C0.031
T7C0.035
T8C0.039
T9C0.043
T10C0.047
T14C0.063
T16C0.071
T18C0.079
T19C0.083
T20C0.087
T21C0.091
T23C0.098
T25C0.110
T27C0.126
%
G90
M72
M48
%
T0
X20210Y26370
X70160Y39350
X68894
X47000Y28320
X20880Y26350
X68126Y39350
X23490Y20770
X42290Y30580
X21350Y26760
X33110Y32220
X20870Y20380
X26260Y39310
X16200Y19240
X21610Y26750
X52360Y31600
X25110Y21780
X36600Y26090
T1
X50455Y16775
X46380Y15720
T0
X34980Y34910
X26580Y39480
X45580Y35000
X22330Y26290
X20170Y26654
X32610Y35500
X41870Y32930
X19970Y25320
X41850Y33560
X20230Y25970
X20000Y24291
X21930Y26940
X22000Y20490
X25940Y39490
X21240Y26360
X24590Y26790
X62220Y26730
X20340Y26870
X68382Y39350
X32490Y34180
X32780Y32120
X69780Y39350
X29990Y28090
X22960Y23819
X41840Y30330
X20840Y20780
X20090Y26180
X22320Y20490
X69710Y25270
X32820Y26090
X33510Y25430
X70190Y25380
X47090Y15670
T1
X25340Y13870
T0
X37540Y23940
X69150Y39350
X35980Y26950
X22530Y26090
X41920Y31070
X20160Y19870
X44750Y14460
X26960Y17430
X68638Y39350
X20500Y26590
X69850Y36570
X25630Y39300
X23340Y24810
X41920Y30760
X20220Y25710
X61300Y17170
X24220Y19310
X20080Y25520
X24400Y26960
X69850Y34430
M30
