M48
;Layer_Color=9474304
;FILE_FORMAT=2:5
INCH,LZ
;TYPE=PLATED
T01F00S00C0.01181
T02F00S00C0.01200
T03F00S00C0.02800
T05F00S00C0.04000
T06F00S00C0.04724
T07F00S00C0.05709
T08F00S00C0.07283
T09F00S00C0.08268
T10F00S00C0.09016
T11F00S00C0.12598
%
T01
X0259055Y0257087
T02
X0317323Y0257087
X0317717Y0277953
X0398031Y0277402
Y0297402
Y025
Y0229764
X0311024Y0340945
X0341732Y0351969
T03
X025Y0326378
X028189
X0330709Y0327953
X0366535Y0319685
T05
X0334213Y0136653
Y0186653
T06
X0343307Y039685
X035315
X0362992
X0372835
T07
X0136221Y0346457
Y0371457
Y0396457
X0181102
Y0371457
Y0346457
X0412598
Y0371457
Y0396457
X045748
Y0371457
Y0346457
T08
X021752Y0343661
Y0358661
X0235984
Y0343661
X0254449
Y0358661
X0245984Y0408661
X0225984
T09
X0158661Y0328228
X0333858Y0383858
X0382283
X0435039Y0328228
T10
X0235433Y0117323
X0182362Y0205315
X0288543
T11
X0111811Y0111811
X048189
X0111811Y040315
X048189
M30
