G04*
G04 #@! TF.GenerationSoftware,Altium Limited,Altium Designer,24.6.1 (21)*
G04*
G04 Layer_Color=8421504*
%FSTAX44Y44*%
%MOMM*%
G71*
G04*
G04 #@! TF.SameCoordinates,F5BF6F6B-C418-46F0-BBBE-7869E4DB44B7*
G04*
G04*
G04 #@! TF.FilePolarity,Positive*
G04*
G01*
G75*
G04:AMPARAMS|DCode=17|XSize=0.9mm|YSize=0.8mm|CornerRadius=0.2mm|HoleSize=0mm|Usage=FLASHONLY|Rotation=270.000|XOffset=0mm|YOffset=0mm|HoleType=Round|Shape=RoundedRectangle|*
%AMROUNDEDRECTD17*
21,1,0.9000,0.4000,0,0,270.0*
21,1,0.5000,0.8000,0,0,270.0*
1,1,0.4000,-0.2000,-0.2500*
1,1,0.4000,-0.2000,0.2500*
1,1,0.4000,0.2000,0.2500*
1,1,0.4000,0.2000,-0.2500*
%
%ADD17ROUNDEDRECTD17*%
G04:AMPARAMS|DCode=18|XSize=1.3mm|YSize=0.8mm|CornerRadius=0.1mm|HoleSize=0mm|Usage=FLASHONLY|Rotation=180.000|XOffset=0mm|YOffset=0mm|HoleType=Round|Shape=RoundedRectangle|*
%AMROUNDEDRECTD18*
21,1,1.3000,0.6000,0,0,180.0*
21,1,1.1000,0.8000,0,0,180.0*
1,1,0.2000,-0.5500,0.3000*
1,1,0.2000,0.5500,0.3000*
1,1,0.2000,0.5500,-0.3000*
1,1,0.2000,-0.5500,-0.3000*
%
%ADD18ROUNDEDRECTD18*%
G04:AMPARAMS|DCode=19|XSize=0.6mm|YSize=0.9mm|CornerRadius=0.075mm|HoleSize=0mm|Usage=FLASHONLY|Rotation=270.000|XOffset=0mm|YOffset=0mm|HoleType=Round|Shape=RoundedRectangle|*
%AMROUNDEDRECTD19*
21,1,0.6000,0.7500,0,0,270.0*
21,1,0.4500,0.9000,0,0,270.0*
1,1,0.1500,-0.3750,-0.2250*
1,1,0.1500,-0.3750,0.2250*
1,1,0.1500,0.3750,0.2250*
1,1,0.1500,0.3750,-0.2250*
%
%ADD19ROUNDEDRECTD19*%
G04:AMPARAMS|DCode=20|XSize=1.8mm|YSize=1.15mm|CornerRadius=0.1438mm|HoleSize=0mm|Usage=FLASHONLY|Rotation=90.000|XOffset=0mm|YOffset=0mm|HoleType=Round|Shape=RoundedRectangle|*
%AMROUNDEDRECTD20*
21,1,1.8000,0.8625,0,0,90.0*
21,1,1.5125,1.1500,0,0,90.0*
1,1,0.2875,0.4313,0.7563*
1,1,0.2875,0.4313,-0.7563*
1,1,0.2875,-0.4313,-0.7563*
1,1,0.2875,-0.4313,0.7563*
%
%ADD20ROUNDEDRECTD20*%
G04:AMPARAMS|DCode=21|XSize=1.3mm|YSize=0.8mm|CornerRadius=0.1mm|HoleSize=0mm|Usage=FLASHONLY|Rotation=270.000|XOffset=0mm|YOffset=0mm|HoleType=Round|Shape=RoundedRectangle|*
%AMROUNDEDRECTD21*
21,1,1.3000,0.6000,0,0,270.0*
21,1,1.1000,0.8000,0,0,270.0*
1,1,0.2000,-0.3000,-0.5500*
1,1,0.2000,-0.3000,0.5500*
1,1,0.2000,0.3000,0.5500*
1,1,0.2000,0.3000,-0.5500*
%
%ADD21ROUNDEDRECTD21*%
G04:AMPARAMS|DCode=22|XSize=1.2mm|YSize=3.3mm|CornerRadius=0.3mm|HoleSize=0mm|Usage=FLASHONLY|Rotation=90.000|XOffset=0mm|YOffset=0mm|HoleType=Round|Shape=RoundedRectangle|*
%AMROUNDEDRECTD22*
21,1,1.2000,2.7000,0,0,90.0*
21,1,0.6000,3.3000,0,0,90.0*
1,1,0.6000,1.3500,0.3000*
1,1,0.6000,1.3500,-0.3000*
1,1,0.6000,-1.3500,-0.3000*
1,1,0.6000,-1.3500,0.3000*
%
%ADD22ROUNDEDRECTD22*%
G04:AMPARAMS|DCode=23|XSize=1.4mm|YSize=1mm|CornerRadius=0.125mm|HoleSize=0mm|Usage=FLASHONLY|Rotation=90.000|XOffset=0mm|YOffset=0mm|HoleType=Round|Shape=RoundedRectangle|*
%AMROUNDEDRECTD23*
21,1,1.4000,0.7500,0,0,90.0*
21,1,1.1500,1.0000,0,0,90.0*
1,1,0.2500,0.3750,0.5750*
1,1,0.2500,0.3750,-0.5750*
1,1,0.2500,-0.3750,-0.5750*
1,1,0.2500,-0.3750,0.5750*
%
%ADD23ROUNDEDRECTD23*%
G04:AMPARAMS|DCode=24|XSize=1.8mm|YSize=1.15mm|CornerRadius=0.1438mm|HoleSize=0mm|Usage=FLASHONLY|Rotation=0.000|XOffset=0mm|YOffset=0mm|HoleType=Round|Shape=RoundedRectangle|*
%AMROUNDEDRECTD24*
21,1,1.8000,0.8625,0,0,0.0*
21,1,1.5125,1.1500,0,0,0.0*
1,1,0.2875,0.7563,-0.4313*
1,1,0.2875,-0.7563,-0.4313*
1,1,0.2875,-0.7563,0.4313*
1,1,0.2875,0.7563,0.4313*
%
%ADD24ROUNDEDRECTD24*%
D17*
X007165Y00809D02*
D03*
X007395D02*
D03*
D18*
X00844Y00633D02*
D03*
Y00653D02*
D03*
X00904Y00659D02*
D03*
Y00679D02*
D03*
D19*
X009065Y007855D02*
D03*
X008835Y00795D02*
D03*
X009065Y008045D02*
D03*
X009455Y008305D02*
D03*
Y008115D02*
D03*
X009685Y00821D02*
D03*
D20*
X00855Y00833D02*
D03*
X00885D02*
D03*
X00844Y0061D02*
D03*
X00874D02*
D03*
D21*
X00927Y00831D02*
D03*
X00907D02*
D03*
X00922Y00932D02*
D03*
X00902D02*
D03*
D22*
X00968Y006354D02*
D03*
Y005846D02*
D03*
X00904Y0061D02*
D03*
X00968Y007554D02*
D03*
Y007046D02*
D03*
X00904Y0073D02*
D03*
D23*
X00964Y00856D02*
D03*
X00946D02*
D03*
Y0088D02*
D03*
X00964D02*
D03*
D24*
X00946Y00902D02*
D03*
Y00932D02*
D03*
M02*
