G04*
G04 #@! TF.GenerationSoftware,Altium Limited,Altium Designer,24.6.1 (21)*
G04*
G04 Layer_Color=2752767*
%FSTAX44Y44*%
%MOMM*%
G71*
G04*
G04 #@! TF.SameCoordinates,F5BF6F6B-C418-46F0-BBBE-7869E4DB44B7*
G04*
G04*
G04 #@! TF.FilePolarity,Positive*
G04*
G01*
G75*
%ADD69C,0.0508*%
%ADD70C,0.0677*%
%ADD71C,0.0339*%
D69*
X00944968Y01005968D02*
Y01010032D01*
X00949032D01*
Y01005968D01*
X00944968D01*
X00919968D02*
Y01010032D01*
X00924032D01*
Y01005968D01*
X00919968D01*
X00894968D02*
Y01010032D01*
X00899032D01*
Y01005968D01*
X00894968D01*
X00869968D02*
Y01010032D01*
X00874032D01*
Y01005968D01*
X00869968D01*
X00968968Y00972968D02*
X00969984Y00975D01*
X00968968Y00977032D01*
X00971Y00976016D01*
X00973032Y00977032D01*
X00972016Y00975D01*
X00973032Y00972968D01*
X00971Y00973984D01*
X00968968Y00972968D01*
X00845968D02*
X00846984Y00975D01*
X00845968Y00977032D01*
X00848Y00976016D01*
X00850032Y00977032D01*
X00849016Y00975D01*
X00850032Y00972968D01*
X00848Y00973984D01*
X00845968Y00972968D01*
X01224Y01021968D02*
X01225016Y01022984D01*
X01226032D01*
X01225016Y01024D01*
X01226032Y01025016D01*
X01225016D01*
X01224Y01026032D01*
X01222984Y01025016D01*
X01221968D01*
X01222984Y01024D01*
X01221968Y01022984D01*
X01222984D01*
X01224Y01021968D01*
Y01022984D02*
X01224508Y01023492D01*
X01225016D01*
X01224508Y01024D01*
X01225016Y01024508D01*
X01224508D01*
X01224Y01025016D01*
X01223492Y01024508D01*
X01222984D01*
X01223492Y01024D01*
X01222984Y01023492D01*
X01223492D01*
X01224Y01022984D01*
X00284Y01021968D02*
X00285016Y01022984D01*
X00286032D01*
X00285016Y01024D01*
X00286032Y01025016D01*
X00285016D01*
X00284Y01026032D01*
X00282984Y01025016D01*
X00281968D01*
X00282984Y01024D01*
X00281968Y01022984D01*
X00282984D01*
X00284Y01021968D01*
Y01022984D02*
X00284508Y01023492D01*
X00285016D01*
X00284508Y01024D01*
X00285016Y01024508D01*
X00284508D01*
X00284Y01025016D01*
X00283492Y01024508D01*
X00282984D01*
X00283492Y01024D01*
X00282984Y01023492D01*
X00283492D01*
X00284Y01022984D01*
X01224Y00281968D02*
X01225016Y00282984D01*
X01226032D01*
X01225016Y00284D01*
X01226032Y00285016D01*
X01225016D01*
X01224Y00286032D01*
X01222984Y00285016D01*
X01221968D01*
X01222984Y00284D01*
X01221968Y00282984D01*
X01222984D01*
X01224Y00281968D01*
Y00282984D02*
X01224508Y00283492D01*
X01225016D01*
X01224508Y00284D01*
X01225016Y00284508D01*
X01224508D01*
X01224Y00285016D01*
X01223492Y00284508D01*
X01222984D01*
X01223492Y00284D01*
X01222984Y00283492D01*
X01223492D01*
X01224Y00282984D01*
X00284Y00281968D02*
X00285016Y00282984D01*
X00286032D01*
X00285016Y00284D01*
X00286032Y00285016D01*
X00285016D01*
X00284Y00286032D01*
X00282984Y00285016D01*
X00281968D01*
X00282984Y00284D01*
X00281968Y00282984D01*
X00282984D01*
X00284Y00281968D01*
Y00282984D02*
X00284508Y00283492D01*
X00285016D01*
X00284508Y00284D01*
X00285016Y00284508D01*
X00284508D01*
X00284Y00285016D01*
X00283492Y00284508D01*
X00282984D01*
X00283492Y00284D01*
X00282984Y00283492D01*
X00283492D01*
X00284Y00282984D01*
X00847884Y00473084D02*
Y00472068D01*
X00849916D01*
Y00473084D01*
X00850932D01*
Y00475116D01*
X00849916D01*
Y00476132D01*
X00847884D01*
Y00475116D01*
X00846868D01*
Y00473084D01*
X00847884D01*
Y00346084D02*
Y00345068D01*
X00849916D01*
Y00346084D01*
X00850932D01*
Y00348116D01*
X00849916D01*
Y00349132D01*
X00847884D01*
Y00348116D01*
X00846868D01*
Y00346084D01*
X00847884D01*
X00730868Y00519468D02*
X00731884D01*
X007329Y00520484D01*
X00733916Y00519468D01*
X00734932D01*
Y00520484D01*
X00733916Y005215D01*
X00734932Y00522516D01*
Y00523532D01*
X00733916D01*
X007329Y00522516D01*
X00731884Y00523532D01*
X00730868D01*
Y00522516D01*
X00731884Y005215D01*
X00730868Y00520484D01*
Y00519468D01*
X00461168D02*
X00462184D01*
X004632Y00520484D01*
X00464216Y00519468D01*
X00465232D01*
Y00520484D01*
X00464216Y005215D01*
X00465232Y00522516D01*
Y00523532D01*
X00464216D01*
X004632Y00522516D01*
X00462184Y00523532D01*
X00461168D01*
Y00522516D01*
X00462184Y005215D01*
X00461168Y00520484D01*
Y00519468D01*
X00595968Y00295968D02*
X00596984D01*
X00598Y00296984D01*
X00599016Y00295968D01*
X00600032D01*
Y00296984D01*
X00599016Y00298D01*
X00600032Y00299016D01*
Y00300032D01*
X00599016D01*
X00598Y00299016D01*
X00596984Y00300032D01*
X00595968D01*
Y00299016D01*
X00596984Y00298D01*
X00595968Y00296984D01*
Y00295968D01*
X00868Y00891968D02*
X00865968Y00896032D01*
X00870032D01*
X00868Y00891968D01*
X00806Y00650968D02*
X00803968Y00655032D01*
X00808032D01*
X00806Y00650968D01*
X00807Y00703968D02*
X00804968Y00708032D01*
X00809032D01*
X00807Y00703968D01*
X0079Y00863968D02*
X00787968Y00868032D01*
X00792032D01*
X0079Y00863968D01*
X01011Y00581568D02*
X01008968Y00585632D01*
X01013032D01*
X01011Y00581568D01*
Y00632968D02*
X01008968Y00637032D01*
X01013032D01*
X01011Y00632968D01*
Y00702568D02*
X01008968Y00706632D01*
X01013032D01*
X01011Y00702568D01*
Y00753368D02*
X01008968Y00757432D01*
X01013032D01*
X01011Y00753368D01*
X00550468Y00911D02*
X005525Y00913032D01*
X00554532Y00911D01*
X005525Y00908968D01*
X00550468Y00911D01*
X00597368D02*
X005994Y00913032D01*
X00601432Y00911D01*
X005994Y00908968D01*
X00597368Y00911D01*
X00644268D02*
X006463Y00913032D01*
X00648332Y00911D01*
X006463Y00908968D01*
X00644268Y00911D01*
X00550468Y008729D02*
X005525Y00874932D01*
X00554532Y008729D01*
X005525Y00870868D01*
X00550468Y008729D01*
X00597368D02*
X005994Y00874932D01*
X00601432Y008729D01*
X005994Y00870868D01*
X00597368Y008729D01*
X00644268D02*
X006463Y00874932D01*
X00648332Y008729D01*
X006463Y00870868D01*
X00644268Y008729D01*
X00622768Y01038D02*
X006248Y01040032D01*
X00626832Y01038D01*
X006248Y01035968D01*
X00622768Y01038D01*
X00571968D02*
X00574Y01040032D01*
X00576032Y01038D01*
X00574Y01035968D01*
X00571968Y01038D01*
X01162Y01004968D02*
X01163016Y01005984D01*
X01164032D01*
X01163016Y01007D01*
X01164032Y01008016D01*
X01163016D01*
X01162Y01009032D01*
X01160984Y01008016D01*
X01159968D01*
X01160984Y01007D01*
X01159968Y01005984D01*
X01160984D01*
X01162Y01004968D01*
Y00941468D02*
X01163016Y00942484D01*
X01164032D01*
X01163016Y009435D01*
X01164032Y00944516D01*
X01163016D01*
X01162Y00945532D01*
X01160984Y00944516D01*
X01159968D01*
X01160984Y009435D01*
X01159968Y00942484D01*
X01160984D01*
X01162Y00941468D01*
Y00877968D02*
X01163016Y00878984D01*
X01164032D01*
X01163016Y0088D01*
X01164032Y00881016D01*
X01163016D01*
X01162Y00882032D01*
X01160984Y00881016D01*
X01159968D01*
X01160984Y0088D01*
X01159968Y00878984D01*
X01160984D01*
X01162Y00877968D01*
X01048Y01004968D02*
X01049016Y01005984D01*
X01050032D01*
X01049016Y01007D01*
X01050032Y01008016D01*
X01049016D01*
X01048Y01009032D01*
X01046984Y01008016D01*
X01045968D01*
X01046984Y01007D01*
X01045968Y01005984D01*
X01046984D01*
X01048Y01004968D01*
Y00941468D02*
X01049016Y00942484D01*
X01050032D01*
X01049016Y009435D01*
X01050032Y00944516D01*
X01049016D01*
X01048Y00945532D01*
X01046984Y00944516D01*
X01045968D01*
X01046984Y009435D01*
X01045968Y00942484D01*
X01046984D01*
X01048Y00941468D01*
Y00877968D02*
X01049016Y00878984D01*
X01050032D01*
X01049016Y0088D01*
X01050032Y00881016D01*
X01049016D01*
X01048Y00882032D01*
X01046984Y00881016D01*
X01045968D01*
X01046984Y0088D01*
X01045968Y00878984D01*
X01046984D01*
X01048Y00877968D01*
X01102968Y00831668D02*
X01103984Y008337D01*
X01102968Y00835732D01*
X01105Y00834716D01*
X01107032Y00835732D01*
X01106016Y008337D01*
X01107032Y00831668D01*
X01105Y00832684D01*
X01102968Y00831668D01*
X0046Y01004968D02*
X00461016Y01005984D01*
X00462032D01*
X00461016Y01007D01*
X00462032Y01008016D01*
X00461016D01*
X0046Y01009032D01*
X00458984Y01008016D01*
X00457968D01*
X00458984Y01007D01*
X00457968Y01005984D01*
X00458984D01*
X0046Y01004968D01*
Y00941468D02*
X00461016Y00942484D01*
X00462032D01*
X00461016Y009435D01*
X00462032Y00944516D01*
X00461016D01*
X0046Y00945532D01*
X00458984Y00944516D01*
X00457968D01*
X00458984Y009435D01*
X00457968Y00942484D01*
X00458984D01*
X0046Y00941468D01*
Y00877968D02*
X00461016Y00878984D01*
X00462032D01*
X00461016Y0088D01*
X00462032Y00881016D01*
X00461016D01*
X0046Y00882032D01*
X00458984Y00881016D01*
X00457968D01*
X00458984Y0088D01*
X00457968Y00878984D01*
X00458984D01*
X0046Y00877968D01*
X00346Y01004968D02*
X00347016Y01005984D01*
X00348032D01*
X00347016Y01007D01*
X00348032Y01008016D01*
X00347016D01*
X00346Y01009032D01*
X00344984Y01008016D01*
X00343968D01*
X00344984Y01007D01*
X00343968Y01005984D01*
X00344984D01*
X00346Y01004968D01*
Y00941468D02*
X00347016Y00942484D01*
X00348032D01*
X00347016Y009435D01*
X00348032Y00944516D01*
X00347016D01*
X00346Y00945532D01*
X00344984Y00944516D01*
X00343968D01*
X00344984Y009435D01*
X00343968Y00942484D01*
X00344984D01*
X00346Y00941468D01*
Y00877968D02*
X00347016Y00878984D01*
X00348032D01*
X00347016Y0088D01*
X00348032Y00881016D01*
X00347016D01*
X00346Y00882032D01*
X00344984Y00881016D01*
X00343968D01*
X00344984Y0088D01*
X00343968Y00878984D01*
X00344984D01*
X00346Y00877968D01*
X00400968Y00831668D02*
X00401984Y008337D01*
X00400968Y00835732D01*
X00403Y00834716D01*
X00405032Y00835732D01*
X00404016Y008337D01*
X00405032Y00831668D01*
X00403Y00832684D01*
X00400968Y00831668D01*
X0084Y00830968D02*
X00837968Y00835032D01*
X00842032D01*
X0084Y00830968D01*
Y00831984D02*
X00838984Y00834016D01*
X00841016D01*
X0084Y00831984D01*
X00635Y00826968D02*
X00632968Y00831032D01*
X00637032D01*
X00635Y00826968D01*
Y00827984D02*
X00633984Y00830016D01*
X00636016D01*
X00635Y00827984D01*
X00716Y00826968D02*
X00713968Y00831032D01*
X00718032D01*
X00716Y00826968D01*
Y00827984D02*
X00714984Y00830016D01*
X00717016D01*
X00716Y00827984D01*
X00931Y00809968D02*
X00928968Y00814032D01*
X00933032D01*
X00931Y00809968D01*
Y00810984D02*
X00929984Y00813016D01*
X00932016D01*
X00931Y00810984D01*
D70*
X00711032Y00946D02*
G03*
X00711032Y00946I-00002032J0D01*
G01*
X00758032Y00977D02*
G03*
X00758032Y00977I-00002032J0D01*
G01*
Y00918D02*
G03*
X00758032Y00918I-00002032J0D01*
G01*
X00660032Y00653D02*
G03*
X00660032Y00653I-00002032J0D01*
G01*
D71*
X00659016D02*
G03*
X00659016Y00653I-00001016J0D01*
G01*
M02*
