G04*
G04 #@! TF.GenerationSoftware,Altium Limited,Altium Designer,24.6.1 (21)*
G04*
G04 Layer_Color=128*
%FSTAX44Y44*%
%MOMM*%
G71*
G04*
G04 #@! TF.SameCoordinates,F5BF6F6B-C418-46F0-BBBE-7869E4DB44B7*
G04*
G04*
G04 #@! TF.FilePolarity,Positive*
G04*
G01*
G75*
%ADD69C,0.0508*%
D69*
X00941Y01008D02*
X00953D01*
X00947Y01002D02*
Y01014D01*
X00916Y01008D02*
X00928D01*
X00922Y01002D02*
Y01014D01*
X00891Y01008D02*
X00903D01*
X00897Y01002D02*
Y01014D01*
X00866Y01008D02*
X00878D01*
X00872Y01002D02*
Y01014D01*
X009605Y00975D02*
X009815D01*
X00971Y009645D02*
Y009855D01*
X008375Y00975D02*
X008585D01*
X00848Y009645D02*
Y009855D01*
X01208Y01024D02*
X0124D01*
X01224Y01008D02*
Y0104D01*
X00268Y01024D02*
X003D01*
X00284Y01008D02*
Y0104D01*
X01208Y00284D02*
X0124D01*
X01224Y00268D02*
Y003D01*
X00268Y00284D02*
X003D01*
X00284Y00268D02*
Y003D01*
X0084382Y004741D02*
X0085398D01*
X008489Y0046902D02*
Y0047918D01*
X0084382Y003471D02*
X0085398D01*
X008489Y0034202D02*
Y0035218D01*
X0072145Y005215D02*
X0074435D01*
X007329Y0051005D02*
Y0053295D01*
X0045175Y005215D02*
X0047465D01*
X004632Y0051005D02*
Y0053295D01*
X0058655Y00298D02*
X0060945D01*
X00598Y0028655D02*
Y0030945D01*
X00866476Y00894D02*
X00869524D01*
X00868Y00892476D02*
Y00895524D01*
X00804476Y00653D02*
X00807524D01*
X00806Y00651476D02*
Y00654524D01*
X00805476Y00706D02*
X00808524D01*
X00807Y00704476D02*
Y00707524D01*
X00788476Y00866D02*
X00791524D01*
X0079Y00864476D02*
Y00867524D01*
X01009476Y005836D02*
X01012524D01*
X01011Y00582076D02*
Y00585124D01*
X01009476Y00635D02*
X01012524D01*
X01011Y00633476D02*
Y00636524D01*
X01009476Y007046D02*
X01012524D01*
X01011Y00703076D02*
Y00706124D01*
X01009476Y007554D02*
X01012524D01*
X01011Y00753876D02*
Y00756924D01*
X00705Y00946D02*
X00713D01*
X00709Y00942D02*
Y0095D01*
X00752Y00977D02*
X0076D01*
X00756Y00973D02*
Y00981D01*
X00752Y00918D02*
X0076D01*
X00756Y00914D02*
Y00922D01*
X0054325Y00911D02*
X0056175D01*
X005525Y0090175D02*
Y0092025D01*
X0059015Y00911D02*
X0060865D01*
X005994Y0090175D02*
Y0092025D01*
X0063705Y00911D02*
X0065555D01*
X006463Y0090175D02*
Y0092025D01*
X0054325Y008729D02*
X0056175D01*
X005525Y0086365D02*
Y0088215D01*
X0059015Y008729D02*
X0060865D01*
X005994Y0086365D02*
Y0088215D01*
X0063705Y008729D02*
X0065555D01*
X006463Y0086365D02*
Y0088215D01*
X0061555Y01038D02*
X0063405D01*
X006248Y0102875D02*
Y0104725D01*
X0056475Y01038D02*
X0058325D01*
X00574Y0102875D02*
Y0104725D01*
X0115475Y01007D02*
X0116925D01*
X01162Y0099975D02*
Y0101425D01*
X0115475Y009435D02*
X0116925D01*
X01162Y0093625D02*
Y0095075D01*
X0115475Y0088D02*
X0116925D01*
X01162Y0087275D02*
Y0088725D01*
X0104075Y01007D02*
X0105525D01*
X01048Y0099975D02*
Y0101425D01*
X0104075Y009435D02*
X0105525D01*
X01048Y0093625D02*
Y0095075D01*
X0104075Y0088D02*
X0105525D01*
X01048Y0087275D02*
Y0088725D01*
X010945Y008337D02*
X011155D01*
X01105Y008232D02*
Y008442D01*
X0045275Y01007D02*
X0046725D01*
X0046Y0099975D02*
Y0101425D01*
X0045275Y009435D02*
X0046725D01*
X0046Y0093625D02*
Y0095075D01*
X0045275Y0088D02*
X0046725D01*
X0046Y0087275D02*
Y0088725D01*
X0033875Y01007D02*
X0035325D01*
X00346Y0099975D02*
Y0101425D01*
X0033875Y009435D02*
X0035325D01*
X00346Y0093625D02*
Y0095075D01*
X0033875Y0088D02*
X0035325D01*
X00346Y0087275D02*
Y0088725D01*
X003925Y008337D02*
X004135D01*
X00403Y008232D02*
Y008442D01*
X00836444Y00833D02*
X00843556D01*
X0084Y00829444D02*
Y00836556D01*
X00631444Y00829D02*
X00638556D01*
X00635Y00825444D02*
Y00832556D01*
X00712444Y00829D02*
X00719556D01*
X00716Y00825444D02*
Y00832556D01*
X006565Y00653D02*
X006595D01*
X00658Y006515D02*
Y006545D01*
X00927444Y00812D02*
X00934556D01*
X00931Y00808444D02*
Y00815556D01*
M02*
