*
G04 Mass Parameters ***
*
G04 Image ***
*
%IN\\NCC1701LEONARDO\DINO\PANNE~DQ\RS232~CM.AST*%
%ICAS*%
%MOIN*%
%IPPOS*%
%ASAXBY*%
G74*%FSLAN2X34Y34*%
*
G04 Aperture Definitions ***
*
%ADD10R,0.0480X0.0560*%
%ADD11R,0.0560X0.0480*%
%ADD12O,0.1213X0.0787*%
%ADD13R,0.1213X0.0748*%
%ADD14R,0.1230X0.0630*%
%ADD15O,0.0240X0.0860*%
%ADD16R,0.0240X0.0860*%
%ADD17C,0.0500*%
%ADD18C,0.0197*%
%ADD19R,0.0640X0.1000*%
%ADD20R,0.0500X0.0500*%
%ADD21O,0.1338X0.0945*%
%ADD22R,0.1299X0.0900*%
%ADD23R,0.1430X0.0830*%
%ADD24C,0.0100*%
%ADD25C,0.0750*%
%ADD26R,0.0530X0.0610*%
%ADD27R,0.0610X0.0530*%
%ADD28O,0.1291X0.0866*%
%ADD29C,0.0550*%
%ADD30C,0.0080*%
%ADD31C,0.0060*%
%ADD32R,0.0630X0.0630*%
%ADD33C,0.0020*%
*
G04 Plot Data ***
*
G54D24*
G01X0000250Y0000300D02*
X0006250D01*
Y0001200D01*
X0007100Y0002050D01*
X0008500D01*
X0009100Y0001450D01*
Y0000350D01*
X0009150Y0000300D01*
X0010650D01*
X0011200Y0000850D01*
Y0005950D01*
X0010650Y0006500D01*
X0009100D01*
Y0005000D01*
X0008500Y0004400D01*
X0007150D01*
X0006250Y0005300D01*
Y0006500D01*
X0000200D01*
Y0000350D01*
X0000250Y0000300D01*
G54D30*
G01X0001282Y0000735D02*
Y0000624D01*
Y0000680D02*
X0000949D01*
X0001005Y0000624D01*
X0000366Y0001722D02*
Y0001888D01*
X0000421Y0001916D01*
X0000477D01*
X0000532Y0001888D01*
Y0001722D01*
X0000477Y0001694D01*
X0000421D01*
X0000199Y0001805D01*
X0001969Y0001348D02*
Y0001237D01*
Y0001292D02*
X0001636D01*
X0001692Y0001237D01*
X0001803Y0000771D02*
Y0000938D01*
X0001747Y0000993D01*
X0001692D01*
X0001636Y0000938D01*
Y0000771D01*
X0001969D01*
X0004064Y0003053D02*
X0004092Y0002998D01*
X0004259D01*
X0004286Y0003053D01*
Y0003164D01*
X0004231Y0003220D01*
X0004064D01*
Y0003331D01*
X0004286D01*
X0003876D02*
Y0003053D01*
X0003849Y0002998D01*
X0003682D01*
X0003654Y0003053D01*
Y0003331D01*
X0008683Y0002128D02*
Y0002239D01*
Y0002183D02*
X0009016D01*
X0008960Y0002239D01*
X0008849Y0002705D02*
Y0002538D01*
X0008905Y0002482D01*
X0008960D01*
X0009016Y0002538D01*
Y0002705D01*
X0008683D01*
X0008794Y0003087D02*
X0008738D01*
X0008683Y0003059D01*
Y0002948D01*
X0008738Y0002920D01*
X0009016D01*
Y0002892D02*
Y0003003D01*
X0000366Y0005138D02*
Y0004972D01*
X0000310Y0004944D01*
X0000254D01*
X0000199Y0004972D01*
Y0005138D01*
X0000254Y0005166D01*
X0000310D01*
X0000532Y0005055D01*
X0001727Y0006069D02*
X0001782Y0006097D01*
Y0006263D01*
X0001727Y0006291D01*
X0001616D01*
X0001560Y0006235D01*
Y0006069D01*
X0001449D01*
Y0006291D01*
X0002300Y0001975D02*
Y0004475D01*
X0006050D02*
X0002050D01*
Y0001975D01*
X0006050D01*
Y0004475D01*
X0009250Y0005950D02*
Y0001450D01*
X0010750D01*
Y0005950D01*
X0009250D01*
G54D33*
G01X0010570Y0000920D02*
X0009610D01*
Y0001480D01*
X0010580D01*
X0010570Y0000920D01*
X0007480Y0003520D02*
Y0002560D01*
X0006920D01*
Y0003530D01*
X0007480Y0003520D01*
X0008480D02*
Y0002560D01*
X0007920D01*
Y0003530D01*
X0008480Y0003520D01*
G54D12*
X0010000Y0004200D03*
Y0003200D03*
Y0002200D03*
G54D13*
Y0005200D03*
G54D15*
X0002800Y0001350D03*
X0003300D03*
X0003800D03*
X0004300D03*
X0004800D03*
X0005300D03*
X0005800D03*
Y0005100D03*
X0005300D03*
X0004800D03*
X0004300D03*
X0003800D03*
X0003300D03*
X0002800D03*
X0002300D03*
G54D16*
Y0001350D03*
G54D32*
X0001050Y0001250D03*
Y0002340D03*
Y0003430D03*
Y0004520D03*
Y0005610D03*
M02*
