*
G04 Mass Parameters ***
*
G04 Image ***
*
%IN\\NCC1701LEONARDO\DINO\PANNE~DQ\RS232~CM.BOT*%
%ICAS*%
%MOIN*%
%IPPOS*%
%ASAXBY*%
G74*%FSLAN2X34Y34*%
*
G04 Aperture Definitions ***
*
%ADD10R,0.0480X0.0560*%
%ADD11R,0.0560X0.0480*%
%ADD12O,0.1213X0.0787*%
%ADD13R,0.1213X0.0748*%
%ADD14R,0.1230X0.0630*%
%ADD15O,0.0240X0.0860*%
%ADD16R,0.0240X0.0860*%
%ADD17C,0.0500*%
%ADD18C,0.0197*%
%ADD19R,0.0640X0.1000*%
%ADD20R,0.0500X0.0500*%
%ADD21O,0.1338X0.0945*%
%ADD22R,0.1299X0.0900*%
%ADD23R,0.1430X0.0830*%
%ADD24C,0.0100*%
%ADD25C,0.0750*%
%ADD26R,0.0530X0.0610*%
%ADD27R,0.0610X0.0530*%
%ADD28O,0.1291X0.0866*%
%ADD29C,0.0550*%
%ADD30C,0.0080*%
%ADD31C,0.0060*%
%ADD32R,0.0630X0.0630*%
%ADD33C,0.0020*%
*
G04 Plot Data ***
*
G54D18*
G01X0002400Y0003850D02*
Y0003750D01*
X0003150Y0003000D01*
Y0003100D01*
X0005500D01*
X0005750Y0002850D01*
X0008250D01*
X0009700Y0001400D01*
X0010450D01*
X0010900Y0001850D01*
Y0003250D01*
X0009750D01*
X0009800Y0003200D01*
X0010000D01*
X0004500Y0006000D02*
Y0005000D01*
X0003900D01*
Y0004200D01*
X0003800Y0004100D01*
X0003100D01*
X0004500Y0006000D02*
Y0005000D01*
X0003900D01*
Y0003700D01*
X0004150Y0003450D01*
X0005700D01*
X0005900Y0003250D01*
X0008800D01*
X0009750Y0002300D01*
Y0002250D01*
X0009800Y0002200D01*
X0010000D01*
X0004550Y0003950D02*
X0005900D01*
X0006250Y0003600D01*
X0008900D01*
X0009500Y0004200D01*
X0010000D01*
X0005150Y0002600D02*
Y0001750D01*
X0005250Y0001650D01*
X0005370D01*
Y0001150D01*
X0002310Y0003000D02*
Y0003200D01*
X0001900D01*
Y0005000D01*
X0002550D01*
X0004200Y0002600D02*
X0004300D01*
X0004400Y0002500D01*
Y0001650D01*
X0004430D01*
Y0001150D01*
X0002250Y0002300D02*
Y0001400D01*
X0002530Y0001150D01*
X0006350Y0004350D02*
X0006750Y0003950D01*
X0008550D01*
X0009350Y0004750D01*
Y0004900D01*
X0009450Y0005000D01*
Y0005200D01*
X0010000D01*
X0003400Y0002350D02*
Y0001650D01*
X0003470D01*
Y0001150D01*
G54D10*
X0004430D03*
X0005370D03*
X0002530D03*
X0003470D03*
G54D12*
X0010000Y0004200D03*
Y0003200D03*
Y0002200D03*
G54D13*
Y0005200D03*
G54D14*
X0001050Y0001795D03*
Y0002885D03*
Y0003975D03*
Y0005065D03*
G54D17*
X0002400Y0003850D03*
X0003100Y0004100D03*
X0004500Y0006000D03*
X0004550Y0003950D03*
X0005150Y0002600D03*
X0004200D03*
X0002250Y0002300D03*
X0006350Y0004350D03*
X0003400Y0002350D03*
G54D19*
X0002550Y0005000D03*
X0003900D03*
G54D20*
X0003150Y0003000D03*
X0002310D03*
M02*
