*
G04 Mass Parameters ***
*
G04 Image ***
*
%IN\\NCC1701LEONARDO\DINO\PANNE~DQ\RS232~CM.TOP*%
%ICAS*%
%MOIN*%
%IPPOS*%
%ASAXBY*%
G74*%FSLAN2X34Y34*%
*
G04 Aperture Definitions ***
*
%ADD10R,0.0480X0.0560*%
%ADD11R,0.0560X0.0480*%
%ADD12O,0.1213X0.0787*%
%ADD13R,0.1213X0.0748*%
%ADD14R,0.1230X0.0630*%
%ADD15O,0.0240X0.0860*%
%ADD16R,0.0240X0.0860*%
%ADD17C,0.0500*%
%ADD18C,0.0197*%
%ADD19R,0.0640X0.1000*%
%ADD20R,0.0500X0.0500*%
%ADD21O,0.1338X0.0945*%
%ADD22R,0.1299X0.0900*%
%ADD23R,0.1430X0.0830*%
%ADD24C,0.0100*%
%ADD25C,0.0750*%
%ADD26R,0.0530X0.0610*%
%ADD27R,0.0610X0.0530*%
%ADD28O,0.1291X0.0866*%
%ADD29C,0.0550*%
%ADD30C,0.0080*%
%ADD31C,0.0060*%
%ADD32R,0.0630X0.0630*%
%ADD33C,0.0020*%
*
G04 Plot Data ***
*
G54D18*
G01X0002300Y0005100D02*
Y0003950D01*
X0002400Y0003850D01*
X0010000Y0003200D02*
X0009800D01*
X0009750Y0003250D01*
X0010900D01*
Y0001650D01*
X0010570D01*
Y0001200D01*
X0005800Y0001350D02*
Y0001400D01*
X0006930Y0002530D01*
X0007200D01*
Y0002580D01*
X0009630Y0001200D02*
Y0002150D01*
X0009697Y0002200D01*
X0010000D01*
X0008200Y0002580D02*
Y0002500D01*
X0009200D01*
X0009500Y0002200D01*
X0010000D01*
X0005300Y0005100D02*
Y0005900D01*
X0005200Y0006000D01*
X0004500D01*
X0003100Y0004100D02*
X0003050D01*
X0002800Y0004350D01*
Y0005100D01*
X0001050Y0005610D02*
X0001175Y0005735D01*
X0001400D01*
Y0006050D01*
X0001575Y0006200D01*
X0004300D01*
X0004500Y0006000D01*
X0007200Y0002580D02*
X0007280Y0002500D01*
X0008120D01*
X0008200Y0002580D01*
X0004300Y0005100D02*
Y0004050D01*
X0004400Y0003950D01*
X0004550D01*
X0010000Y0002200D02*
X0009800D01*
X0009750Y0002250D01*
X0009697Y0002200D01*
X0010000D01*
X0003800Y0005100D02*
Y0005700D01*
X0003650Y0005850D01*
X0001900D01*
Y0003800D01*
X0001500Y0003430D01*
X0001050D01*
X0004300Y0001350D02*
Y0002000D01*
X0004750Y0002450D01*
X0005050D01*
X0005150Y0002550D01*
Y0002600D01*
X0001050Y0002340D02*
X0001200Y0002500D01*
X0001600D01*
X0002250Y0003150D01*
X0002900D01*
X0003600Y0003850D01*
Y0004350D01*
X0003300Y0004650D01*
Y0005100D01*
X0003800Y0001350D02*
Y0002000D01*
X0004200Y0002400D01*
Y0002600D01*
X0008200Y0003520D02*
X0007700D01*
Y0003900D01*
X0007600Y0004000D01*
X0006700D01*
X0005900Y0003200D01*
X0004200D01*
X0004050Y0003050D01*
X0003350D01*
X0002800Y0002500D01*
Y0001350D01*
X0009630Y0001200D02*
Y0002150D01*
X0009697Y0002200D01*
X0010000D01*
X0002300Y0001350D02*
Y0002200D01*
X0002250Y0002250D01*
Y0002300D01*
X0007200Y0003520D02*
X0006700D01*
Y0003250D01*
X0005500Y0002050D01*
X0004850D01*
X0004800Y0002000D01*
Y0001350D01*
Y0005100D02*
Y0004600D01*
X0005050Y0004350D01*
X0006350D01*
X0003300Y0001350D02*
Y0002350D01*
X0003400D01*
G54D10*
X0010570Y0001200D03*
X0009630D03*
G54D11*
X0007200Y0003520D03*
Y0002580D03*
X0008200Y0003520D03*
Y0002580D03*
G54D12*
X0010000Y0004200D03*
Y0003200D03*
Y0002200D03*
G54D13*
Y0005200D03*
G54D14*
X0001050Y0001250D03*
Y0002340D03*
Y0003430D03*
Y0004520D03*
Y0005610D03*
G54D15*
X0002800Y0001350D03*
X0003300D03*
X0003800D03*
X0004300D03*
X0004800D03*
X0005300D03*
X0005800D03*
Y0005100D03*
X0005300D03*
X0004800D03*
X0004300D03*
X0003800D03*
X0003300D03*
X0002800D03*
X0002300D03*
G54D16*
Y0001350D03*
G54D17*
X0002400Y0003850D03*
X0003100Y0004100D03*
X0004500Y0006000D03*
X0004550Y0003950D03*
X0005150Y0002600D03*
X0004200D03*
X0002250Y0002300D03*
X0006350Y0004350D03*
X0003400Y0002350D03*
M02*
