*
G04 Mass Parameters ***
*
G04 Image ***
*
%IN\\NCC1701LEONARDO\DINO\PANNE~DQ\RS232~CM.DRD*%
%ICAS*%
%MOIN*%
%IPPOS*%
%ASAXBY*%
G74*%FSLAN2X34Y34*%
*
G04 Aperture Definitions ***
*
%ADD10R,0.0480X0.0560*%
%ADD11R,0.0560X0.0480*%
%ADD12O,0.1213X0.0787*%
%ADD13R,0.1213X0.0748*%
%ADD14R,0.1230X0.0630*%
%ADD15O,0.0240X0.0860*%
%ADD16R,0.0240X0.0860*%
%ADD17C,0.0500*%
%ADD18C,0.0197*%
%ADD19R,0.0640X0.1000*%
%ADD20R,0.0500X0.0500*%
%ADD21O,0.1338X0.0945*%
%ADD22R,0.1299X0.0900*%
%ADD23R,0.1430X0.0830*%
%ADD24C,0.0100*%
%ADD25C,0.0750*%
%ADD26R,0.0530X0.0610*%
%ADD27R,0.0610X0.0530*%
%ADD28O,0.1291X0.0866*%
%ADD29C,0.0550*%
%ADD30C,0.0080*%
%ADD31C,0.0060*%
%ADD32R,0.0630X0.0630*%
%ADD33C,0.0020*%
*
G04 Plot Data ***
*
G54D24*
G01X0089541Y-0028167D02*
X0089708Y-0028333D01*
X0090041D01*
X0090208Y-0028167D01*
Y-0028000D01*
X0089875Y-0027667D01*
X0090208Y-0027333D01*
X0089542D01*
X0089258Y-0028333D02*
X0088925D01*
X0089092D02*
Y-0027333D01*
X0088925Y-0027500D01*
X0077812Y-0028333D02*
X0077229D01*
Y-0027333D01*
X0076946Y-0028000D02*
X0076279D01*
X0076946Y-0028333D02*
Y-0027833D01*
X0076696Y-0027333D01*
X0076529D01*
X0076279Y-0027833D01*
Y-0028333D01*
X0075662D02*
Y-0027333D01*
X0075996D02*
X0075329D01*
X0074462Y-0028333D02*
X0074379Y-0028167D01*
Y-0027500D01*
X0074462Y-0027333D01*
X0074962D01*
X0075046Y-0027500D01*
Y-0028167D01*
X0074962Y-0028333D01*
X0074462D01*
X0073762D02*
Y-0027333D01*
X0074096D02*
X0073429D01*
X0090208Y-0026472D02*
X0089986D01*
X0090097D02*
Y-0025806D01*
X0089986Y-0025917D01*
X0076369Y-0026472D02*
Y-0026139D01*
X0076592Y-0026472D02*
Y-0026139D01*
X0076536Y-0026028D01*
X0076425D01*
X0076369Y-0026139D01*
X0076314Y-0026028D01*
X0076203D01*
X0076147Y-0026139D01*
Y-0026472D01*
X0075669D02*
Y-0026139D01*
X0075892Y-0026472D02*
Y-0026139D01*
X0075836Y-0026028D01*
X0075725D01*
X0075669Y-0026139D01*
X0075614Y-0026028D01*
X0075503D01*
X0075447Y-0026139D01*
Y-0026472D01*
X0073964D02*
X0073853Y-0026361D01*
X0073797Y-0026250D01*
Y-0026028D01*
X0073853Y-0025917D01*
X0073964Y-0025806D01*
X0074075D01*
X0074186Y-0025917D01*
X0074242Y-0026028D01*
Y-0026250D01*
X0074186Y-0026361D01*
X0074075Y-0026472D01*
X0073964D01*
X0073264D02*
X0073153Y-0026361D01*
X0073097Y-0026250D01*
Y-0026028D01*
X0073153Y-0025917D01*
X0073264Y-0025806D01*
X0073375D01*
X0073486Y-0025917D01*
X0073542Y-0026028D01*
Y-0026250D01*
X0073486Y-0026361D01*
X0073375Y-0026472D01*
X0073264D01*
X0072564D02*
X0072453Y-0026361D01*
X0072397Y-0026250D01*
Y-0026028D01*
X0072453Y-0025917D01*
X0072564Y-0025806D01*
X0072675D01*
X0072786Y-0025917D01*
X0072842Y-0026028D01*
Y-0026250D01*
X0072786Y-0026361D01*
X0072675Y-0026472D01*
X0072564D01*
X0072030D02*
X0072142D01*
Y-0026361D01*
X0072031D01*
X0072030D02*
X0072031Y-0026472D01*
X0071664D02*
X0071442D01*
X0071553D02*
Y-0025806D01*
X0071442Y-0025917D01*
X0089764Y-0024861D02*
X0089875Y-0024972D01*
X0090097D01*
X0090208Y-0024861D01*
Y-0024750D01*
X0089986Y-0024528D01*
X0090208Y-0024306D01*
X0089764D01*
X0076369Y-0024972D02*
Y-0024639D01*
X0076592Y-0024972D02*
Y-0024639D01*
X0076536Y-0024528D01*
X0076425D01*
X0076369Y-0024639D01*
X0076314Y-0024528D01*
X0076203D01*
X0076147Y-0024639D01*
Y-0024972D01*
X0075669D02*
Y-0024639D01*
X0075892Y-0024972D02*
Y-0024639D01*
X0075836Y-0024528D01*
X0075725D01*
X0075669Y-0024639D01*
X0075614Y-0024528D01*
X0075503D01*
X0075447Y-0024639D01*
Y-0024972D01*
X0074242Y-0024750D02*
X0073797D01*
X0074019Y-0024306D01*
X0074130D01*
Y-0024972D01*
X0073153Y-0024639D02*
X0073486D01*
X0073542Y-0024750D01*
Y-0024861D01*
X0073486Y-0024972D01*
X0073153D01*
X0073097Y-0024861D01*
Y-0024750D01*
X0073319Y-0024306D01*
X0072786Y-0024639D02*
X0072842Y-0024528D01*
Y-0024417D01*
X0072786Y-0024306D01*
X0072453D01*
X0072397Y-0024417D01*
Y-0024528D01*
X0072453Y-0024639D01*
X0072786D01*
X0072842Y-0024750D01*
Y-0024861D01*
X0072786Y-0024972D01*
X0072453D01*
X0072397Y-0024861D01*
Y-0024750D01*
X0072453Y-0024639D01*
X0072030Y-0024972D02*
X0072142D01*
Y-0024861D01*
X0072031D01*
X0072030D02*
X0072031Y-0024972D01*
X0071386D02*
X0071275Y-0024861D01*
X0071219Y-0024750D01*
Y-0024528D01*
X0071275Y-0024417D01*
X0071386Y-0024306D01*
X0071497D01*
X0071608Y-0024417D01*
X0071664Y-0024528D01*
Y-0024750D01*
X0071608Y-0024861D01*
X0071497Y-0024972D01*
X0071386D01*
X0090153Y-0023139D02*
X0089819D01*
X0089764Y-0023028D01*
Y-0022917D01*
X0089819Y-0022806D01*
X0090153D01*
X0090208Y-0022917D01*
Y-0023028D01*
X0089986Y-0023472D01*
X0076369D02*
Y-0023139D01*
X0076592Y-0023472D02*
Y-0023139D01*
X0076536Y-0023028D01*
X0076425D01*
X0076369Y-0023139D01*
X0076314Y-0023028D01*
X0076203D01*
X0076147Y-0023139D01*
Y-0023472D01*
X0075669D02*
Y-0023139D01*
X0075892Y-0023472D02*
Y-0023139D01*
X0075836Y-0023028D01*
X0075725D01*
X0075669Y-0023139D01*
X0075614Y-0023028D01*
X0075503D01*
X0075447Y-0023139D01*
Y-0023472D01*
X0074242D02*
X0074019D01*
X0074130D02*
Y-0022806D01*
X0074019Y-0022917D01*
X0073653Y-0023472D02*
X0073431D01*
X0073542D02*
Y-0022806D01*
X0073431Y-0022917D01*
X0072730Y-0023472D02*
X0073064Y-0022806D01*
X0072619D01*
X0072253Y-0023472D02*
X0072364D01*
Y-0023361D01*
X0072253D01*
Y-0023472D01*
X0071608D02*
X0071497Y-0023361D01*
X0071442Y-0023250D01*
Y-0023028D01*
X0071497Y-0022917D01*
X0071608Y-0022806D01*
X0071720D01*
X0071719D02*
X0071831Y-0022917D01*
X0071886Y-0023028D01*
Y-0023250D01*
X0071831Y-0023361D01*
X0071720Y-0023472D01*
X0071719D02*
X0071608D01*
X0098612Y-0021333D02*
X0098112D01*
X0098779Y-0021833D02*
X0098112D01*
Y-0020833D01*
X0098779D01*
X0097496Y-0021833D02*
Y-0020833D01*
X0097829D02*
X0097162D01*
X0096295Y-0021833D02*
X0096212Y-0021667D01*
Y-0021000D01*
X0096296Y-0020833D01*
X0096295D02*
X0096796D01*
X0096795D02*
X0096879Y-0021000D01*
Y-0021667D01*
X0096796Y-0021833D01*
X0096795D02*
X0096296D01*
X0095929Y-0020833D02*
Y-0021833D01*
X0095762Y-0021667D01*
X0095429Y-0021000D01*
X0095262Y-0020833D01*
Y-0021833D01*
X0089425D02*
Y-0021333D01*
X0089758Y-0020833D02*
X0089508Y-0021333D01*
X0089342D01*
X0089341D02*
X0089092Y-0020833D01*
X0088475Y-0021833D02*
Y-0020833D01*
X0088808D02*
X0088142D01*
X0087525Y-0021500D02*
X0087858Y-0021833D01*
X0087191Y-0021667D02*
X0087275Y-0021833D01*
X0087608D01*
X0087691Y-0021667D01*
X0087858Y-0021500D01*
Y-0021000D01*
X0087775Y-0020833D01*
X0087275D01*
X0087192Y-0021000D01*
X0087191D02*
X0087192Y-0021667D01*
X0082908Y-0021833D02*
X0082325D01*
Y-0020833D01*
X0081458Y-0021833D02*
X0081375Y-0021667D01*
Y-0021000D01*
X0081458Y-0020833D01*
X0081958D01*
X0082042Y-0021000D01*
Y-0021667D01*
X0081958Y-0021833D01*
X0081458D01*
X0080758D02*
Y-0020833D01*
X0081092D02*
X0080425D01*
X0075087Y-0021833D02*
Y-0020833D01*
X0074920Y-0021000D01*
X0074754Y-0021333D01*
X0074587Y-0021000D01*
X0074421Y-0020833D01*
X0074420D02*
X0074421Y-0021833D01*
X0074137Y-0021500D02*
X0073471D01*
X0074137Y-0021833D02*
Y-0021333D01*
X0073887Y-0020833D01*
X0073721D01*
X0073720D02*
X0073471Y-0021333D01*
X0073470D02*
X0073471Y-0021833D01*
X0073187D02*
X0072854D01*
X0073021D02*
Y-0020833D01*
X0073187D02*
X0072854D01*
X0071821Y-0021833D02*
Y-0020833D01*
X0071737Y-0021833D02*
X0072237D01*
X0072404Y-0021500D01*
Y-0021167D01*
X0072237Y-0020833D01*
X0071737D01*
X0068650Y-0021833D02*
Y-0020833D01*
X0068483Y-0021000D01*
X0068317Y-0021333D01*
X0068150Y-0021000D01*
X0067983Y-0020833D01*
Y-0021833D01*
X0067367D02*
Y-0021333D01*
X0067700Y-0020833D02*
X0067450Y-0021333D01*
X0067283D01*
X0067033Y-0020833D01*
X0066750Y-0021000D02*
X0066667Y-0020833D01*
X0066666D02*
X0066167D01*
X0066166D02*
X0066083Y-0021000D01*
Y-0021167D01*
X0066167Y-0021333D01*
X0066166D02*
X0066667D01*
X0066666D02*
X0066750Y-0021500D01*
Y-0021667D01*
X0066667Y-0021833D01*
X0066666D02*
X0066167D01*
X0066166D02*
X0066083Y-0021667D01*
X0088937Y-0019833D02*
Y-0018833D01*
X0089270D02*
X0088604D01*
X0088070Y-0019333D02*
X0088320Y-0019833D01*
X0087654Y-0019333D02*
X0088154D01*
X0088320Y-0019167D01*
Y-0019000D01*
X0088154Y-0018833D01*
X0087654D01*
Y-0019833D01*
X0087370Y-0019500D02*
X0086704D01*
X0087370Y-0019833D02*
Y-0019333D01*
X0087120Y-0018833D01*
X0086954D01*
X0086704Y-0019333D01*
Y-0019833D01*
X0086420Y-0019333D02*
X0085754D01*
X0086420Y-0019833D02*
Y-0018833D01*
X0085754Y-0019833D02*
Y-0018833D01*
X0085470Y-0019667D02*
X0085387Y-0019833D01*
X0084887D01*
X0084804Y-0019667D01*
Y-0019000D01*
X0084887Y-0018833D01*
X0085387D01*
X0085470Y-0019000D01*
X0083195Y-0019833D02*
X0082612D01*
Y-0018833D01*
X0082329Y-0019833D02*
X0081746D01*
Y-0018833D01*
X0081462Y-0019833D02*
X0081129D01*
X0081296D02*
Y-0018833D01*
X0081462D02*
X0081129D01*
X0080429Y-0019333D02*
X0080679Y-0019833D01*
X0080012Y-0019333D02*
X0080512D01*
X0080679Y-0019167D01*
Y-0019000D01*
X0080512Y-0018833D01*
X0080013D01*
X0080012D02*
X0080013Y-0019833D01*
X0079146D02*
Y-0018833D01*
X0079062Y-0019833D02*
X0079562D01*
X0079729Y-0019500D01*
Y-0019167D01*
X0079562Y-0018833D01*
X0079063D01*
X0002650Y0003850D02*
X0002150D01*
X0002400Y0004100D02*
Y0003600D01*
X0004750Y0006000D02*
X0004250D01*
X0004500Y0006250D02*
Y0005750D01*
X0003350Y0004100D02*
X0002850D01*
X0003100Y0004350D02*
Y0003850D01*
X0004750Y0006000D02*
X0004250D01*
X0004500Y0006250D02*
Y0005750D01*
X0004800Y0003950D02*
X0004300D01*
X0004550Y0004200D02*
Y0003700D01*
X0005400Y0002600D02*
X0004900D01*
X0005150Y0002850D02*
Y0002350D01*
X0004450Y0002600D02*
X0003950D01*
X0004200Y0002850D02*
Y0002350D01*
X0002500Y0002300D02*
X0002000D01*
X0002250Y0002550D02*
Y0002050D01*
X0006600Y0004350D02*
X0006100D01*
X0006350Y0004600D02*
Y0004100D01*
X0003650Y0002350D02*
X0003150D01*
X0003400Y0002600D02*
Y0002100D01*
X0067575Y-0026250D02*
X0067075D01*
X0067325Y-0026000D02*
Y-0026500D01*
X0067575Y-0024500D02*
X0067075Y-0025000D01*
X0067575D02*
X0067075Y-0024500D01*
X0067575Y-0023250D02*
X0067075D01*
X0067325Y-0023000D02*
Y-0023500D01*
X0102800Y-0029050D02*
X0065450D01*
X0102750Y-0029000D02*
X0065500D01*
X0102750Y-0027000D02*
X0065500D01*
X0102750Y-0025500D02*
X0065500D01*
X0102750Y-0024000D02*
X0065500D01*
X0102750Y-0022500D02*
X0065500D01*
X0102750Y-0022450D02*
X0065500D01*
X0102750Y-0020500D02*
X0065500D01*
X0102750Y-0020450D02*
X0065500D01*
X0102750Y-0018500D02*
X0065500D01*
X0102800Y-0018450D02*
X0065450D01*
X0102800Y-0029000D02*
Y-0018500D01*
X0102750Y-0029000D02*
Y-0018500D01*
X0091208Y-0029000D02*
Y-0020500D01*
X0085658Y-0029000D02*
Y-0020500D01*
X0077592Y-0027000D02*
Y-0020500D01*
X0069200Y-0027000D02*
Y-0020500D01*
X0069150Y-0027000D02*
Y-0020500D01*
X0065450Y-0029000D02*
Y-0018500D01*
X0065500Y-0029000D02*
Y-0018500D01*
X0000250Y0000300D02*
X0006250D01*
Y0001200D01*
X0007100Y0002050D01*
X0008500D01*
X0009100Y0001450D01*
Y0000350D01*
X0009150Y0000300D01*
X0010650D01*
X0011200Y0000850D01*
Y0005950D01*
X0010650Y0006500D01*
X0009100D01*
Y0005000D01*
X0008500Y0004400D01*
X0007150D01*
X0006250Y0005300D01*
Y0006500D01*
X0000200D01*
Y0000350D01*
X0000250Y0000300D01*
X0010250Y0005200D02*
X0009750D01*
X0010000Y0005450D02*
Y0004950D01*
X0010250Y0004450D02*
X0009750Y0003950D01*
X0010250D02*
X0009750Y0004450D01*
X0010250Y0003450D02*
X0009750Y0002950D01*
X0010250D02*
X0009750Y0003450D01*
X0010250Y0002450D02*
X0009750Y0001950D01*
X0010250D02*
X0009750Y0002450D01*
M02*
