*
G04 Mass Parameters ***
*
G04 Image ***
*
%IN\\NCC1701LEONARDO\DINO\PANNE~DQ\RS232~CM.SST*%
%ICAS*%
%MOIN*%
%IPPOS*%
%ASAXBY*%
G74*%FSLAN2X34Y34*%
*
G04 Aperture Definitions ***
*
%ADD10R,0.0480X0.0560*%
%ADD11R,0.0560X0.0480*%
%ADD12O,0.1213X0.0787*%
%ADD13R,0.1213X0.0748*%
%ADD14R,0.1230X0.0630*%
%ADD15O,0.0240X0.0860*%
%ADD16R,0.0240X0.0860*%
%ADD17C,0.0500*%
%ADD18C,0.0197*%
%ADD19R,0.0640X0.1000*%
%ADD20R,0.0500X0.0500*%
%ADD21O,0.1338X0.0945*%
%ADD22R,0.1299X0.0900*%
%ADD23R,0.1430X0.0830*%
%ADD24C,0.0100*%
%ADD25C,0.0750*%
%ADD26R,0.0530X0.0610*%
%ADD27R,0.0610X0.0530*%
%ADD28O,0.1291X0.0866*%
%ADD29C,0.0550*%
%ADD30C,0.0080*%
%ADD31C,0.0060*%
%ADD32R,0.0630X0.0630*%
%ADD33C,0.0020*%
*
G04 Plot Data ***
*
G54D24*
G01X0013908Y0004342D02*
X0013658D01*
X0013950Y0004008D02*
X0013783D01*
X0013741Y0004091D01*
Y0004508D01*
X0013375Y0004342D02*
Y0004008D01*
X0013416D02*
X0013125D01*
X0013083Y0004091D01*
Y0004342D01*
X0012550Y0004008D02*
X0012508Y0004091D01*
Y0004425D01*
X0012550Y0004508D01*
X0012800D01*
X0012841Y0004425D01*
Y0004091D01*
X0012800Y0004008D01*
X0012550D01*
X0012266Y0004342D02*
X0012225Y0004258D01*
X0012058Y0004091D01*
X0012017Y0004008D01*
X0012266D02*
X0012225Y0004091D01*
X0012058Y0004258D01*
X0012017Y0004342D01*
X0011650Y0004258D02*
X0011775Y0004008D01*
X0011441Y0004258D02*
X0011691D01*
X0011775Y0004342D01*
Y0004425D01*
X0011691Y0004508D01*
X0011442D01*
X0011441D02*
X0011442Y0004008D01*
X0012875Y0003408D02*
Y0003242D01*
X0012708Y0002908D01*
X0012542Y0003242D01*
X0012541D02*
X0012542Y0003408D01*
X0011966Y0002991D02*
X0012008Y0002908D01*
X0012258D01*
X0012300Y0002991D01*
Y0003158D01*
X0012216Y0003242D01*
X0011967D01*
X0011966D02*
X0011967Y0003408D01*
X0011966D02*
X0012300D01*
X0011558Y0003325D02*
Y0002991D01*
X0011725Y0003158D02*
X0011392D01*
X0012400Y0002358D02*
Y0002192D01*
X0012233Y0001858D01*
X0012067Y0002192D01*
X0012066D02*
X0012067Y0002358D01*
X0011616Y0001858D02*
X0011533Y0001941D01*
X0011492Y0002025D01*
X0011491D02*
X0011492Y0002192D01*
X0011491D02*
X0011533Y0002275D01*
X0011617Y0002358D01*
X0011616D02*
X0011700D01*
X0011783Y0002275D01*
X0011825Y0002192D01*
Y0002025D01*
X0011783Y0001941D01*
X0011700Y0001858D01*
X0011617D01*
X0010403Y-0000367D02*
X0010320Y-0000283D01*
X0010278Y-0000200D01*
Y-0000033D01*
X0010320Y0000050D01*
X0010403Y0000133D01*
X0010486D01*
X0010570Y0000050D01*
X0010611Y-0000033D01*
Y-0000200D01*
X0010570Y-0000283D01*
X0010486Y-0000367D01*
X0010403D01*
X0010036D02*
X0009870D01*
X0009953D02*
Y0000133D01*
X0009870Y0000050D01*
X0009545Y-0000283D02*
X0009503Y-0000367D01*
X0009253D01*
X0009212Y-0000283D01*
X0009211D02*
X0009212Y0000050D01*
X0009211D02*
X0009253Y0000133D01*
X0009503D01*
X0009545Y0000050D01*
X0013200Y0005058D02*
Y0005308D01*
X0013158Y0005392D01*
X0012908D01*
Y0005058D01*
X0012583Y0005558D02*
Y0005559D01*
Y0005558D01*
X0012666Y0005058D02*
X0012500D01*
X0012583D02*
Y0005392D01*
X0012500D01*
X0012216D02*
X0012175Y0005308D01*
X0012008Y0005141D01*
X0011967Y0005058D01*
X0012216D02*
X0012175Y0005141D01*
X0012008Y0005308D01*
X0011967Y0005392D01*
X0011558Y0005058D02*
Y0005558D01*
X0011725D02*
X0011392D01*
X0007933Y0000462D02*
Y0000628D01*
Y0000545D02*
X0008433D01*
X0008350Y0000628D01*
X0007933Y0000953D02*
Y0001120D01*
Y0001037D02*
X0008433D01*
X0008350Y0001120D01*
X0008016Y0001445D02*
X0007933Y0001487D01*
Y0001737D01*
X0008016Y0001778D01*
X0008350D01*
X0008433Y0001737D01*
Y0001487D01*
X0008350Y0001445D01*
X0006983Y0000378D02*
Y0000712D01*
X0007317Y0000378D01*
X0007400D01*
X0007483Y0000420D01*
Y0000670D01*
X0007400Y0000712D01*
X0006983Y0000953D02*
Y0001120D01*
Y0001037D02*
X0007483D01*
X0007400Y0001120D01*
X0007066Y0001445D02*
X0006983Y0001487D01*
Y0001737D01*
X0007066Y0001778D01*
X0007400D01*
X0007483Y0001737D01*
Y0001487D01*
X0007400Y0001445D01*
X-0000108Y0006296D02*
X-0000275Y0006379D01*
X-0000442D01*
X-0000608Y0006296D01*
X-0000358Y0005929D02*
Y0005679D01*
X-0000442Y0005637D01*
X-0000525D01*
X-0000608Y0005679D01*
Y0005929D01*
X-0000525Y0005971D01*
X-0000442D01*
X-0000108Y0005804D01*
X-0000442Y0005104D02*
Y0005354D01*
X-0000358Y0005396D01*
Y0005395D02*
X-0000191Y0005396D01*
Y0005395D02*
X-0000108Y0005354D01*
Y0005104D01*
X-0000608D01*
Y0004862D02*
X-0000108D01*
Y0004612D01*
X-0000191Y0004571D01*
Y0004570D02*
X-0000358Y0004571D01*
Y0004570D02*
X-0000442Y0004612D01*
Y0004862D01*
X-0000108Y0004329D02*
X-0000275Y0004246D01*
X-0000442D01*
X-0000608Y0004329D01*
X-0000108Y0003075D02*
Y0002742D01*
Y0002741D02*
X-0000442Y0003075D01*
X-0000525D01*
X-0000608Y0003033D01*
Y0002783D01*
X-0000525Y0002742D01*
X-0000191Y0002166D02*
X-0000108Y0002250D01*
Y0002416D01*
X-0000191Y0002500D01*
X-0000275D01*
X-0000442Y0002333D01*
X-0000608Y0002500D01*
Y0002167D01*
X-0000108Y0001925D02*
Y0001592D01*
Y0001591D02*
X-0000442Y0001925D01*
X-0000525D01*
X-0000608Y0001883D01*
Y0001633D01*
X-0000525Y0001592D01*
Y0001350D02*
X-0000608Y0001308D01*
Y0001058D01*
X-0000525Y0001017D01*
Y0001016D02*
X-0000442Y0001017D01*
Y0001016D02*
X-0000358Y0001058D01*
Y0001308D01*
X-0000275Y0001350D01*
X-0000191D01*
X-0000108Y0001308D01*
Y0001058D01*
X-0000191Y0001017D01*
X-0000358Y0000650D02*
X-0000108Y0000775D01*
X-0000358Y0000441D02*
Y0000691D01*
X-0000442Y0000775D01*
X-0000525D01*
X-0000608Y0000691D01*
Y0000442D01*
Y0000441D02*
X-0000108Y0000442D01*
X0005891Y0006858D02*
X0005850Y0006941D01*
Y0007108D01*
X0005892Y0007192D01*
X0005891D02*
X0006142D01*
X0006141D02*
X0006183Y0007108D01*
Y0006941D01*
X0006142Y0006858D01*
X0006141D02*
X0005892D01*
X0005316Y0006691D02*
X0005317Y0007192D01*
X0005316D02*
X0005566D01*
X0005608Y0007108D01*
Y0006941D01*
X0005566Y0006858D01*
X0005317D01*
X0004908D02*
Y0007108D01*
X0005075Y0006858D02*
Y0007108D01*
X0005033Y0007192D01*
X0004950D01*
X0004908Y0007108D01*
X0004867Y0007192D01*
X0004866D02*
X0004783D01*
X0004742Y0007108D01*
X0004741D02*
X0004742Y0006858D01*
X0004208D02*
X0004167Y0006941D01*
X0004166D02*
X0004167Y0007108D01*
X0004166D02*
X0004208Y0007192D01*
X0004458D01*
X0004500Y0007108D01*
Y0006941D01*
X0004458Y0006858D01*
X0004208D01*
X0003925Y0006941D02*
X0003883Y0006858D01*
X0003633D01*
X0003592Y0006941D01*
X0003591D02*
X0003592Y0007275D01*
X0003591D02*
X0003633Y0007358D01*
X0003883D01*
X0003925Y0007275D01*
X0010820Y0000910D02*
Y0001480D01*
X0009380D01*
Y0000910D01*
X0010810D01*
X0007490Y0003770D02*
X0006920D01*
Y0002330D01*
X0007490D01*
Y0003760D01*
X0008490Y0003770D02*
X0007920D01*
Y0002330D01*
X0008490D01*
Y0003760D01*
G54D30*
G01X0001282Y0000785D02*
Y0000674D01*
Y0000730D02*
X0000949D01*
X0001005Y0000674D01*
X0005564Y0003803D02*
X0005592Y0003748D01*
X0005759D01*
X0005786Y0003803D01*
Y0003914D01*
X0005731Y0003970D01*
X0005564D01*
Y0004081D01*
X0005786D01*
X0005376D02*
Y0003803D01*
X0005349Y0003748D01*
X0005182D01*
X0005154Y0003803D01*
Y0004081D01*
X0001277Y0006119D02*
X0001332Y0006147D01*
Y0006313D01*
X0001277Y0006341D01*
X0001166D01*
X0001110Y0006285D01*
Y0006119D01*
X0000999D01*
Y0006341D01*
X0006050Y0004475D02*
X0002050D01*
Y0001975D01*
X0006050D01*
Y0004475D01*
X0002300Y0001975D02*
Y0004475D01*
X0009250Y0005950D02*
Y0001450D01*
X0010750D01*
Y0005950D01*
X0009250D01*
M02*
