M48
;Layer_Color=9474304
;FILE_FORMAT=2:3
INCH,TZ
;TYPE=PLATED
T1F00S00C0.028
T2F00S00C0.035
T3F00S00C0.040
T4F00S00C0.047
T5F00S00C0.051
T6F00S00C0.072
T7F00S00C0.125
%
T01
X1875Y350
X1965Y460
X2010Y550
X2830Y745
X2800Y1370
X2500Y1365
X2260
X2230Y1430
X1925Y1425
X1885Y1325
X1880Y1135
X1990Y1140
X1920Y1570
X1930Y1670
Y1740
T02
X1250Y100
X1350
X1450
X1550
X1650
X1750
X1850
Y200
X1750
X1650
X1550
X1450
X1350
X1250
X2122Y465
X2220
X2375Y650
X2475
X2575
X2675
X2775
X2875
X2975
X3075
Y950
Y1050
Y1150
X2975
X2875
X2775
X2675
X2575
X2475
X2375
X775
X675
X575
X775Y1050
Y950
Y650
X675
X575
X475
X375
X275
X175
X75
Y1150
X175
X275
X375
X475
T03
X75Y450
X775
X2375
X3075
T04
X100Y125
X250
X400
X550
X2600
X2750
X2900
X3050
X2911Y1968
X2761
X2611
X2461
X2128
X1978
X1828
X1678
X1528
X1378
X1036
X886
T05
X1250Y550
X1400
X1550
X1700Y1650
X1400
X1100
T06
X1100Y550
X1700
T07
X787Y197
X2362
Y1772
X787
M30
