%FSLAX24Y24*%
%MOIN*%
G70*
G01*
G75*
G04 Layer_Color=8388736*
%ADD10O,0.0138X0.0787*%
%ADD11R,0.0512X0.0709*%
%ADD12R,0.0335X0.0157*%
%ADD13R,0.0472X0.0551*%
%ADD14R,0.0591X0.0236*%
%ADD15R,0.0551X0.0472*%
%ADD16R,0.0374X0.0748*%
%ADD17R,0.2165X0.2717*%
%ADD18R,0.0984X0.2559*%
%ADD19R,0.0394X0.0551*%
%ADD20C,0.0120*%
%ADD21C,0.0250*%
%ADD22C,0.0500*%
%ADD23C,0.0080*%
%ADD24C,0.1000*%
%ADD25R,0.0591X0.0591*%
%ADD26C,0.0591*%
%ADD27C,0.0866*%
%ADD28C,0.2500*%
%ADD29C,0.1500*%
%ADD30C,0.1000*%
%ADD31R,0.0591X0.0591*%
%ADD32C,0.0500*%
%ADD33C,0.0236*%
%ADD34C,0.0098*%
%ADD35C,0.0079*%
%ADD36C,0.0100*%
%ADD37C,0.0197*%
%ADD38C,0.0150*%
%ADD39C,0.0200*%
%ADD40O,0.0218X0.0867*%
%ADD41R,0.0592X0.0789*%
%ADD42R,0.0415X0.0237*%
%ADD43R,0.0552X0.0631*%
%ADD44R,0.0671X0.0316*%
%ADD45R,0.0631X0.0552*%
%ADD46R,0.0454X0.0828*%
%ADD47R,0.2245X0.2797*%
%ADD48R,0.1064X0.2639*%
%ADD49R,0.0474X0.0631*%
%ADD50R,0.0671X0.0671*%
%ADD51C,0.0671*%
%ADD52C,0.0946*%
%ADD53C,0.1580*%
%ADD54C,0.1080*%
%ADD55C,0.1040*%
%ADD56R,0.0671X0.0671*%
%ADD57C,0.0580*%
D28*
X7874Y1969D02*
D03*
X23622D02*
D03*
X7874Y17717D02*
D03*
X23622D02*
D03*
D40*
X20116Y14858D02*
D03*
X20372D02*
D03*
X20628D02*
D03*
X20884D02*
D03*
X20116Y17142D02*
D03*
X20372D02*
D03*
X20628D02*
D03*
X20884D02*
D03*
D41*
X29429Y13000D02*
D03*
X30571D02*
D03*
X26429D02*
D03*
X27571D02*
D03*
D42*
X19250Y3750D02*
D03*
Y3494D02*
D03*
Y3238D02*
D03*
X19978D02*
D03*
Y3494D02*
D03*
Y3750D02*
D03*
D43*
X20500Y6500D02*
D03*
X19791D02*
D03*
X20604Y7750D02*
D03*
X19896D02*
D03*
X20604Y10750D02*
D03*
X19896D02*
D03*
X21146Y13750D02*
D03*
X21854D02*
D03*
X12854Y18250D02*
D03*
X12146D02*
D03*
X8354Y15250D02*
D03*
X7646D02*
D03*
X7646Y14000D02*
D03*
X8354D02*
D03*
D44*
X20624Y11876D02*
D03*
Y12624D02*
D03*
X19876Y12250D02*
D03*
X20624Y8876D02*
D03*
Y9624D02*
D03*
X19876Y9250D02*
D03*
D45*
X21750Y16354D02*
D03*
Y15646D02*
D03*
D46*
X25602Y14287D02*
D03*
X27398D02*
D03*
X28602D02*
D03*
X30398D02*
D03*
D47*
X26500Y16728D02*
D03*
X29500D02*
D03*
D48*
X3250Y18711D02*
D03*
Y13789D02*
D03*
D49*
X10396Y18250D02*
D03*
X11104D02*
D03*
X22250Y6500D02*
D03*
X21541D02*
D03*
D50*
X22200Y4650D02*
D03*
X18500Y2000D02*
D03*
D51*
X21216Y4650D02*
D03*
X18500Y1000D02*
D03*
X17500Y2000D02*
D03*
Y1000D02*
D03*
X16500Y2000D02*
D03*
Y1000D02*
D03*
X15500Y2000D02*
D03*
Y1000D02*
D03*
X14500Y2000D02*
D03*
Y1000D02*
D03*
X13500Y2000D02*
D03*
Y1000D02*
D03*
X12500Y2000D02*
D03*
Y1000D02*
D03*
X6750Y11500D02*
D03*
X5750D02*
D03*
X4750D02*
D03*
X3750D02*
D03*
X2750D02*
D03*
X1750D02*
D03*
X750D02*
D03*
X7750Y6500D02*
D03*
X6750D02*
D03*
X5750D02*
D03*
X4750D02*
D03*
X3750D02*
D03*
X2750D02*
D03*
X1750D02*
D03*
X750D02*
D03*
X7750Y10500D02*
D03*
Y9500D02*
D03*
X29750Y11500D02*
D03*
X28750D02*
D03*
X27750D02*
D03*
X26750D02*
D03*
X25750D02*
D03*
X24750D02*
D03*
X23750D02*
D03*
X30750Y6500D02*
D03*
X29750D02*
D03*
X28750D02*
D03*
X27750D02*
D03*
X26750D02*
D03*
X25750D02*
D03*
X24750D02*
D03*
X23750D02*
D03*
X30750Y10500D02*
D03*
Y9500D02*
D03*
D52*
X5500Y1250D02*
D03*
X4000D02*
D03*
X2500D02*
D03*
X1000D02*
D03*
X30500D02*
D03*
X29000D02*
D03*
X27500D02*
D03*
X26000D02*
D03*
X8858Y19677D02*
D03*
X10358D02*
D03*
X18280D02*
D03*
X16780D02*
D03*
X15280D02*
D03*
X13780D02*
D03*
X19780D02*
D03*
X21280D02*
D03*
X24606D02*
D03*
X26106D02*
D03*
X27606D02*
D03*
X29106D02*
D03*
D53*
X17000Y16500D02*
D03*
X11000D02*
D03*
Y5500D02*
D03*
X17000D02*
D03*
D54*
X14000Y16500D02*
D03*
X12500Y5500D02*
D03*
X14000D02*
D03*
X15500D02*
D03*
D55*
X7750Y4500D02*
D03*
X30750D02*
D03*
X750D02*
D03*
X23750D02*
D03*
D56*
X7750Y11500D02*
D03*
X30750D02*
D03*
D57*
X28000Y13700D02*
D03*
X25000Y13650D02*
D03*
X18850Y13250D02*
D03*
X19250Y14250D02*
D03*
X19200Y15700D02*
D03*
X19300Y17400D02*
D03*
Y16700D02*
D03*
X18750Y3500D02*
D03*
X19650Y4600D02*
D03*
X20100Y5500D02*
D03*
X28300Y7450D02*
D03*
X19900Y11400D02*
D03*
X18800Y11350D02*
D03*
X22600Y13650D02*
D03*
X22300Y14300D02*
D03*
M02*
