%FSLAX24Y24*%
%MOIN*%
G70*
G01*
G75*
G04 Layer_Physical_Order=2*
G04 Layer_Color=16711680*
%ADD10O,0.0138X0.0787*%
%ADD11R,0.0512X0.0709*%
%ADD12R,0.0335X0.0157*%
%ADD13R,0.0472X0.0551*%
%ADD14R,0.0591X0.0236*%
%ADD15R,0.0551X0.0472*%
%ADD16R,0.0374X0.0748*%
%ADD17R,0.2165X0.2717*%
%ADD18R,0.0984X0.2559*%
%ADD19R,0.0394X0.0551*%
%ADD20C,0.0120*%
%ADD21C,0.0250*%
%ADD22C,0.0500*%
%ADD23C,0.0080*%
%ADD24C,0.1000*%
%ADD25R,0.0591X0.0591*%
%ADD26C,0.0591*%
%ADD27C,0.0866*%
%ADD28C,0.2500*%
%ADD29C,0.1500*%
%ADD30C,0.1000*%
%ADD31R,0.0591X0.0591*%
%ADD32C,0.0500*%
D20*
X27950Y13650D02*
X28000Y13700D01*
X25000Y13650D02*
X27950D01*
X24100Y15300D02*
X27606Y18806D01*
X24100Y12150D02*
Y15300D01*
Y12150D02*
X24750Y11500D01*
X27606Y18806D02*
Y19677D01*
X26750Y18350D02*
Y19750D01*
X23750Y15350D02*
X26750Y18350D01*
X23750Y11500D02*
Y15350D01*
X2250Y13000D02*
X17052D01*
X2750Y12500D02*
X16834D01*
X19250Y13650D02*
X22600D01*
X18850Y13250D02*
X19250Y13650D01*
X19200Y15700D02*
Y16048D01*
X19200Y15700D02*
X19200Y15700D01*
Y16048D02*
X21280Y18128D01*
X19590Y15538D02*
Y15933D01*
X24157Y20500D02*
X25283D01*
X19590Y15933D02*
X24157Y20500D01*
X23617Y19677D02*
X24606D01*
X19790Y15850D02*
X23617Y19677D01*
X19790Y15456D02*
Y15850D01*
X16834Y12500D02*
X19790Y15456D01*
X17052Y13000D02*
X19590Y15538D01*
X21280Y18128D02*
Y19677D01*
X19780Y17180D02*
Y19677D01*
X19300Y16700D02*
X19780Y17180D01*
X18900Y2900D02*
X19650Y3650D01*
X18450Y2900D02*
X18900D01*
X18000Y2450D02*
X18450Y2900D01*
X18000Y1500D02*
Y2450D01*
X19650Y3650D02*
Y4600D01*
X17500Y1000D02*
X18000Y1500D01*
X6750Y6500D02*
Y7700D01*
X28450Y10200D02*
X29750Y11500D01*
X24750Y6500D02*
X28450Y10200D01*
X17200D02*
X28450D01*
X15300Y12100D02*
X17200Y10200D01*
X7350Y12100D02*
X15300D01*
X6750Y11500D02*
X7350Y12100D01*
X19850Y11350D02*
X19900Y11400D01*
X18800Y11350D02*
X19850D01*
X26750Y19750D02*
X27500Y20500D01*
X28283D01*
X29106Y19677D01*
X750Y11500D02*
X2250Y13000D01*
X1750Y11500D02*
X2750Y12500D01*
X25283Y20500D02*
X26106Y19677D01*
X17457Y20500D02*
X18280Y19677D01*
X13500Y20500D02*
X17457D01*
X12750Y19750D02*
X13500Y20500D01*
X12750Y17750D02*
Y19750D01*
Y17750D02*
X14000Y16500D01*
D21*
X28300Y7450D02*
X30200D01*
X30750Y6900D01*
Y6500D02*
Y6900D01*
D22*
X15500Y2000D02*
Y2500D01*
X16500Y3500D01*
X18750D01*
X20100Y5500D02*
X29750D01*
X17000D02*
X20100D01*
X750Y4500D02*
Y6500D01*
Y7100D02*
X1350Y7700D01*
X750Y6500D02*
Y7100D01*
X23750Y6500D02*
Y7650D01*
X23700Y7700D02*
X23750Y7650D01*
X29750Y5500D02*
X30750Y4500D01*
X13500Y2000D02*
Y3100D01*
Y1000D02*
Y2000D01*
X12500D02*
Y3100D01*
Y1000D02*
Y2000D01*
X11000Y5500D02*
X12500D01*
X15500D02*
X17000D01*
X30750Y4500D02*
Y6500D01*
D23*
X19250Y14250D02*
X22250D01*
X22300Y14300D01*
X19200Y17400D02*
X19300D01*
X16923Y19677D02*
X19200Y17400D01*
X16780Y19677D02*
X16923D01*
D24*
X6750Y7700D02*
X10950D01*
X1350D02*
X6750D01*
X10950D02*
X23700D01*
X10950D02*
X11000Y7650D01*
Y5500D02*
Y7650D01*
X13500Y3100D02*
X14600D01*
X12500D02*
X13500D01*
X10400D02*
X12500D01*
X7750Y4500D02*
X9000D01*
X10400Y3100D01*
X14600D02*
X17000Y5500D01*
D25*
X22200Y4650D02*
D03*
X18500Y2000D02*
D03*
D26*
X21216Y4650D02*
D03*
X18500Y1000D02*
D03*
X17500Y2000D02*
D03*
Y1000D02*
D03*
X16500Y2000D02*
D03*
Y1000D02*
D03*
X15500Y2000D02*
D03*
Y1000D02*
D03*
X14500Y2000D02*
D03*
Y1000D02*
D03*
X13500Y2000D02*
D03*
Y1000D02*
D03*
X12500Y2000D02*
D03*
Y1000D02*
D03*
X6750Y11500D02*
D03*
X5750D02*
D03*
X4750D02*
D03*
X3750D02*
D03*
X2750D02*
D03*
X1750D02*
D03*
X750D02*
D03*
X7750Y6500D02*
D03*
X6750D02*
D03*
X5750D02*
D03*
X4750D02*
D03*
X3750D02*
D03*
X2750D02*
D03*
X1750D02*
D03*
X750D02*
D03*
X7750Y10500D02*
D03*
Y9500D02*
D03*
X29750Y11500D02*
D03*
X28750D02*
D03*
X27750D02*
D03*
X26750D02*
D03*
X25750D02*
D03*
X24750D02*
D03*
X23750D02*
D03*
X30750Y6500D02*
D03*
X29750D02*
D03*
X28750D02*
D03*
X27750D02*
D03*
X26750D02*
D03*
X25750D02*
D03*
X24750D02*
D03*
X23750D02*
D03*
X30750Y10500D02*
D03*
Y9500D02*
D03*
D27*
X5500Y1250D02*
D03*
X4000D02*
D03*
X2500D02*
D03*
X1000D02*
D03*
X30500D02*
D03*
X29000D02*
D03*
X27500D02*
D03*
X26000D02*
D03*
X8858Y19677D02*
D03*
X10358D02*
D03*
X18280D02*
D03*
X16780D02*
D03*
X15280D02*
D03*
X13780D02*
D03*
X19780D02*
D03*
X21280D02*
D03*
X24606D02*
D03*
X26106D02*
D03*
X27606D02*
D03*
X29106D02*
D03*
D28*
X7874Y1969D02*
D03*
X23622D02*
D03*
X7874Y17717D02*
D03*
X23622D02*
D03*
D29*
X17000Y16500D02*
D03*
X11000D02*
D03*
Y5500D02*
D03*
X17000D02*
D03*
D30*
X14000Y16500D02*
D03*
X12500Y5500D02*
D03*
X14000D02*
D03*
X15500D02*
D03*
X7750Y4500D02*
D03*
X30750D02*
D03*
X750D02*
D03*
X23750D02*
D03*
D31*
X7750Y11500D02*
D03*
X30750D02*
D03*
D32*
X28000Y13700D02*
D03*
X25000Y13650D02*
D03*
X18850Y13250D02*
D03*
X19250Y14250D02*
D03*
X19200Y15700D02*
D03*
X19300Y17400D02*
D03*
Y16700D02*
D03*
X18750Y3500D02*
D03*
X19650Y4600D02*
D03*
X20100Y5500D02*
D03*
X28300Y7450D02*
D03*
X19900Y11400D02*
D03*
X18800Y11350D02*
D03*
X22600Y13650D02*
D03*
X22300Y14300D02*
D03*
M02*
