%FSLAX24Y24*%
%MOIN*%
G70*
G01*
G75*
G04 Layer_Color=65535*
%ADD10O,0.0138X0.0787*%
%ADD11R,0.0512X0.0709*%
%ADD12R,0.0335X0.0157*%
%ADD13R,0.0472X0.0551*%
%ADD14R,0.0591X0.0236*%
%ADD15R,0.0551X0.0472*%
%ADD16R,0.0374X0.0748*%
%ADD17R,0.2165X0.2717*%
%ADD18R,0.0984X0.2559*%
%ADD19R,0.0394X0.0551*%
%ADD20C,0.0120*%
%ADD21C,0.0250*%
%ADD22C,0.0500*%
%ADD23C,0.0080*%
%ADD24C,0.1000*%
%ADD25R,0.0591X0.0591*%
%ADD26C,0.0591*%
%ADD27C,0.0866*%
%ADD28C,0.2500*%
%ADD29C,0.1500*%
%ADD30C,0.1000*%
%ADD31R,0.0591X0.0591*%
%ADD32C,0.0500*%
%ADD33C,0.0236*%
%ADD34C,0.0098*%
%ADD35C,0.0079*%
%ADD36C,0.0100*%
%ADD37C,0.0197*%
%ADD38C,0.0150*%
%ADD39C,0.0200*%
G36*
X22014Y6500D02*
X21778Y6264D01*
X21778Y6736D01*
X22014Y6500D01*
D02*
G37*
G36*
X10868Y18014D02*
X10632Y18250D01*
X10868Y18486D01*
X10868Y18014D01*
D02*
G37*
D20*
X7908Y22850D02*
X8358D01*
X8608D02*
X9058D01*
X9358D02*
X9808D01*
X10108D02*
X10558D01*
X10858D02*
X11308D01*
X18780D02*
X19230D01*
X18030D02*
X18480D01*
X17280D02*
X17730D01*
X16530D02*
X16980D01*
X15780D02*
X16230D01*
X15030D02*
X15480D01*
X14280D02*
X14730D01*
X13530D02*
X13980D01*
X12830D02*
X13280D01*
X19530D02*
X19980D01*
X20280D02*
X20730D01*
X21030D02*
X21480D01*
X21780D02*
X22230D01*
X23656D02*
X24106D01*
X24356D02*
X24806D01*
X25106D02*
X25556D01*
X25856D02*
X26306D01*
X26606D02*
X27056D01*
X27356D02*
X27806D01*
X28106D02*
X28556D01*
X28856D02*
X29306D01*
X29606D02*
X30056D01*
D23*
X19250Y1850D02*
X19417D01*
X19333D01*
Y2350D01*
X19250Y2267D01*
D33*
X20835Y16197D02*
G03*
X20835Y16197I-118J0D01*
G01*
D34*
X21219Y17142D02*
G03*
X21219Y17142I-49J0D01*
G01*
X20673Y11541D02*
G03*
X20673Y11541I-49J0D01*
G01*
Y8541D02*
G03*
X20673Y8541I-49J0D01*
G01*
X25248Y14287D02*
G03*
X25248Y14287I-49J0D01*
G01*
X28248D02*
G03*
X28248Y14287I-49J0D01*
G01*
D35*
X20700Y5150D02*
X22700D01*
Y4158D02*
Y5150D01*
X20700Y4158D02*
X22700D01*
X19890Y15409D02*
Y16591D01*
X21110Y15409D02*
Y16591D01*
X19890Y15409D02*
X21110D01*
X19890Y16591D02*
X21110D01*
X29843Y13315D02*
X30157D01*
X29843Y12685D02*
X30157D01*
X26843Y13315D02*
X27157D01*
X26843Y12685D02*
X27157D01*
X12000Y500D02*
Y2500D01*
X19000Y500D02*
Y2500D01*
X12000Y500D02*
X19000D01*
X12000Y2500D02*
X19000D01*
X20146Y6264D02*
Y6736D01*
X20250Y7514D02*
Y7986D01*
X19974Y11659D02*
X20171D01*
X19974D02*
Y11974D01*
Y12841D02*
X20171D01*
X19974Y12526D02*
Y12841D01*
Y8659D02*
X20171D01*
X19974D02*
Y8974D01*
Y9841D02*
X20171D01*
X19974Y9526D02*
Y9841D01*
X20250Y10514D02*
Y10986D01*
X21500Y13514D02*
Y13986D01*
X21514Y16000D02*
X21986D01*
X12500Y18014D02*
Y18486D01*
X25181Y15016D02*
Y15213D01*
X27819Y15016D02*
Y15213D01*
X25181Y15016D02*
X27819D01*
X28181D02*
Y15213D01*
X30819Y15016D02*
Y15213D01*
X28181Y15016D02*
X30819D01*
X8000Y15014D02*
Y15486D01*
Y13764D02*
Y14236D01*
X250Y6000D02*
Y12000D01*
Y6000D02*
X8250D01*
X250Y12000D02*
X8250D01*
Y6000D02*
Y12000D01*
X23250Y6000D02*
Y12000D01*
Y6000D02*
X31250D01*
X23250Y12000D02*
X31250D01*
Y6000D02*
Y12000D01*
D36*
X20700Y4158D02*
Y5150D01*
X6515Y20100D02*
X7300Y18900D01*
X6450Y266D02*
Y2628D01*
X50D02*
X6450D01*
X50Y266D02*
Y2628D01*
Y266D02*
X6450D01*
X31450D02*
Y2628D01*
X25050D02*
X31450D01*
X25050Y266D02*
Y2628D01*
Y266D02*
X31450D01*
X19250Y3898D02*
Y3947D01*
X19978D01*
Y3898D02*
Y3947D01*
X19260Y3041D02*
Y3091D01*
Y3041D02*
X19988D01*
Y3091D01*
X19496Y3652D02*
Y3947D01*
Y3652D02*
X19575D01*
Y3947D01*
X19250Y3898D02*
X19496D01*
X7908Y19291D02*
Y21654D01*
Y19291D02*
X11358D01*
Y21654D01*
X22280Y19291D02*
Y21654D01*
X12830Y19291D02*
X22280D01*
X12830D02*
Y21654D01*
X23656Y19291D02*
Y21654D01*
Y19291D02*
X30056D01*
Y21654D01*
X18500Y4500D02*
Y17500D01*
X9500Y4500D02*
X18500D01*
X9500D02*
Y17500D01*
X18500D01*
X10110Y17955D02*
Y18545D01*
X22535Y6205D02*
Y6795D01*
X21950Y5350D02*
Y5950D01*
X22250D01*
X22350Y5850D01*
Y5650D01*
X22250Y5550D01*
X21950D01*
X22550Y5950D02*
X22950D01*
Y5850D01*
X22550Y5450D01*
Y5350D01*
X22750Y13950D02*
Y14550D01*
X23050D01*
X23150Y14450D01*
Y14250D01*
X23050Y14150D01*
X22750D01*
X22950D02*
X23150Y13950D01*
X23350Y14450D02*
X23450Y14550D01*
X23650D01*
X23750Y14450D01*
Y14350D01*
X23650Y14250D01*
X23750Y14150D01*
Y14050D01*
X23650Y13950D01*
X23450D01*
X23350Y14050D01*
Y14150D01*
X23450Y14250D01*
X23350Y14350D01*
Y14450D01*
X23450Y14250D02*
X23650D01*
X22250Y15600D02*
Y16200D01*
X22550D01*
X22650Y16100D01*
Y15900D01*
X22550Y15800D01*
X22250D01*
X22450D02*
X22650Y15600D01*
X22850Y16200D02*
X23250D01*
Y16100D01*
X22850Y15700D01*
Y15600D01*
X23310Y12940D02*
Y12440D01*
X23410Y12340D01*
X23610D01*
X23710Y12440D01*
Y12940D01*
X23910D02*
X24310D01*
Y12840D01*
X23910Y12440D01*
Y12340D01*
X310Y12940D02*
Y12440D01*
X410Y12340D01*
X610D01*
X710Y12440D01*
Y12940D01*
X1310D02*
X1110Y12840D01*
X910Y12640D01*
Y12440D01*
X1010Y12340D01*
X1210D01*
X1310Y12440D01*
Y12540D01*
X1210Y12640D01*
X910D01*
X20900Y18350D02*
Y17850D01*
X21000Y17750D01*
X21200D01*
X21300Y17850D01*
Y18350D01*
X21900D02*
X21500D01*
Y18050D01*
X21700Y18150D01*
X21800D01*
X21900Y18050D01*
Y17850D01*
X21800Y17750D01*
X21600D01*
X21500Y17850D01*
X19978Y2824D02*
Y2324D01*
X20078Y2224D01*
X20278D01*
X20378Y2324D01*
Y2824D01*
X20878Y2224D02*
Y2824D01*
X20578Y2524D01*
X20978D01*
X16650Y18400D02*
Y17900D01*
X16750Y17800D01*
X16950D01*
X17050Y17900D01*
Y18400D01*
X17250Y18300D02*
X17350Y18400D01*
X17550D01*
X17650Y18300D01*
Y18200D01*
X17550Y18100D01*
X17450D01*
X17550D01*
X17650Y18000D01*
Y17900D01*
X17550Y17800D01*
X17350D01*
X17250Y17900D01*
X27950Y19000D02*
Y18500D01*
X28050Y18400D01*
X28250D01*
X28350Y18500D01*
Y19000D01*
X28950Y18400D02*
X28550D01*
X28950Y18800D01*
Y18900D01*
X28850Y19000D01*
X28650D01*
X28550Y18900D01*
X25100Y18950D02*
Y18450D01*
X25200Y18350D01*
X25400D01*
X25500Y18450D01*
Y18950D01*
X25700Y18350D02*
X25900D01*
X25800D01*
Y18950D01*
X25700Y18850D01*
X7400Y12850D02*
Y13450D01*
X7700D01*
X7800Y13350D01*
Y13150D01*
X7700Y13050D01*
X7400D01*
X7600D02*
X7800Y12850D01*
X8400Y13450D02*
X8200Y13350D01*
X8000Y13150D01*
Y12950D01*
X8100Y12850D01*
X8300D01*
X8400Y12950D01*
Y13050D01*
X8300Y13150D01*
X8000D01*
X7150Y15700D02*
Y16300D01*
X7450D01*
X7550Y16200D01*
Y16000D01*
X7450Y15900D01*
X7150D01*
X7350D02*
X7550Y15700D01*
X8150Y16300D02*
X7750D01*
Y16000D01*
X7950Y16100D01*
X8050D01*
X8150Y16000D01*
Y15800D01*
X8050Y15700D01*
X7850D01*
X7750Y15800D01*
X21250Y7450D02*
Y8050D01*
X21550D01*
X21650Y7950D01*
Y7750D01*
X21550Y7650D01*
X21250D01*
X21450D02*
X21650Y7450D01*
X22150D02*
Y8050D01*
X21850Y7750D01*
X22250D01*
X21400Y10450D02*
Y11050D01*
X21700D01*
X21800Y10950D01*
Y10750D01*
X21700Y10650D01*
X21400D01*
X21600D02*
X21800Y10450D01*
X22000Y10950D02*
X22100Y11050D01*
X22300D01*
X22400Y10950D01*
Y10850D01*
X22300Y10750D01*
X22200D01*
X22300D01*
X22400Y10650D01*
Y10550D01*
X22300Y10450D01*
X22100D01*
X22000Y10550D01*
X19350Y6150D02*
X18750D01*
Y6450D01*
X18850Y6550D01*
X19050D01*
X19150Y6450D01*
Y6150D01*
Y6350D02*
X19350Y6550D01*
Y7150D02*
Y6750D01*
X18950Y7150D01*
X18850D01*
X18750Y7050D01*
Y6850D01*
X18850Y6750D01*
X13350Y18050D02*
Y18650D01*
X13650D01*
X13750Y18550D01*
Y18350D01*
X13650Y18250D01*
X13350D01*
X13550D02*
X13750Y18050D01*
X13950D02*
X14150D01*
X14050D01*
Y18650D01*
X13950Y18550D01*
X21700Y9100D02*
Y9500D01*
X21600Y9600D01*
X21400D01*
X21300Y9500D01*
Y9100D01*
X21400Y9000D01*
X21600D01*
X21500Y9200D02*
X21700Y9000D01*
X21600D02*
X21700Y9100D01*
X22300Y9000D02*
X21900D01*
X22300Y9400D01*
Y9500D01*
X22200Y9600D01*
X22000D01*
X21900Y9500D01*
X21600Y12150D02*
Y12550D01*
X21500Y12650D01*
X21300D01*
X21200Y12550D01*
Y12150D01*
X21300Y12050D01*
X21500D01*
X21400Y12250D02*
X21600Y12050D01*
X21500D02*
X21600Y12150D01*
X21800Y12050D02*
X22000D01*
X21900D01*
Y12650D01*
X21800Y12550D01*
X21350Y650D02*
Y1250D01*
X21650D01*
X21750Y1150D01*
Y950D01*
X21650Y850D01*
X21350D01*
X22350Y1250D02*
X22150Y1150D01*
X21950Y950D01*
Y750D01*
X22050Y650D01*
X22250D01*
X22350Y750D01*
Y850D01*
X22250Y950D01*
X21950D01*
X23450Y19900D02*
X22850D01*
Y20200D01*
X22950Y20300D01*
X23150D01*
X23250Y20200D01*
Y19900D01*
X22850Y20900D02*
Y20500D01*
X23150D01*
X23050Y20700D01*
Y20800D01*
X23150Y20900D01*
X23350D01*
X23450Y20800D01*
Y20600D01*
X23350Y20500D01*
X12600Y19950D02*
X12000D01*
Y20250D01*
X12100Y20350D01*
X12300D01*
X12400Y20250D01*
Y19950D01*
X12600Y20850D02*
X12000D01*
X12300Y20550D01*
Y20950D01*
X9150Y400D02*
Y1000D01*
X9450D01*
X9550Y900D01*
Y700D01*
X9450Y600D01*
X9150D01*
X9750Y900D02*
X9850Y1000D01*
X10050D01*
X10150Y900D01*
Y800D01*
X10050Y700D01*
X9950D01*
X10050D01*
X10150Y600D01*
Y500D01*
X10050Y400D01*
X9850D01*
X9750Y500D01*
X19400Y700D02*
Y1300D01*
X19700D01*
X19800Y1200D01*
Y1000D01*
X19700Y900D01*
X19400D01*
X20400Y700D02*
X20000D01*
X20400Y1100D01*
Y1200D01*
X20300Y1300D01*
X20100D01*
X20000Y1200D01*
X7700Y20100D02*
X7100D01*
Y20400D01*
X7200Y20500D01*
X7400D01*
X7500Y20400D01*
Y20100D01*
X7700Y20700D02*
Y20900D01*
Y20800D01*
X7100D01*
X7200Y20700D01*
X1500Y20150D02*
X1400Y20250D01*
X1200D01*
X1100Y20150D01*
Y19750D01*
X1200Y19650D01*
X1400D01*
X1500Y19750D01*
X1700Y20150D02*
X1800Y20250D01*
X2000D01*
X2100Y20150D01*
Y20050D01*
X2000Y19950D01*
X1900D01*
X2000D01*
X2100Y19850D01*
Y19750D01*
X2000Y19650D01*
X1800D01*
X1700Y19750D01*
X28500Y12950D02*
X28400Y12850D01*
Y12650D01*
X28500Y12550D01*
X28900D01*
X29000Y12650D01*
Y12850D01*
X28900Y12950D01*
X29000Y13550D02*
Y13150D01*
X28600Y13550D01*
X28500D01*
X28400Y13450D01*
Y13250D01*
X28500Y13150D01*
X25450Y13050D02*
X25350Y12950D01*
Y12750D01*
X25450Y12650D01*
X25850D01*
X25950Y12750D01*
Y12950D01*
X25850Y13050D01*
X25950Y13250D02*
Y13450D01*
Y13350D01*
X25350D01*
X25450Y13250D01*
D37*
X4750Y447D02*
Y2447D01*
X4400Y1947D02*
X5100D01*
X250Y447D02*
X6250D01*
Y2447D01*
X5850Y1950D02*
X6250D01*
X2900D02*
X3600D01*
X3250Y450D02*
Y2450D01*
X250Y1950D02*
X650D01*
X250Y2447D02*
X6250D01*
X250Y447D02*
Y2447D01*
X1750Y450D02*
Y2450D01*
X1400Y1950D02*
X2100D01*
X29750Y447D02*
Y2447D01*
X29400Y1947D02*
X30100D01*
X25250Y447D02*
X31250D01*
Y2447D01*
X30850Y1950D02*
X31250D01*
X27900D02*
X28600D01*
X28250Y450D02*
Y2450D01*
X25250Y1950D02*
X25650D01*
X25250Y2447D02*
X31250D01*
X25250Y447D02*
Y2447D01*
X26750Y450D02*
Y2450D01*
X26400Y1950D02*
X27100D01*
D38*
X6400Y14331D02*
Y19449D01*
X5218Y13150D02*
X6400Y14331D01*
X1282Y13150D02*
X5218D01*
X100Y14331D02*
X1282Y13150D01*
X100Y14331D02*
Y19449D01*
X6400D01*
D39*
X-0Y-0D02*
X31496D01*
Y21654D01*
X-0D02*
X31496D01*
X-0Y-0D02*
Y21654D01*
X21900Y3600D02*
X22566D01*
X20850Y3550D02*
X21516D01*
X21183Y3883D02*
Y3217D01*
X3316Y21300D02*
X2650D01*
Y20800D01*
X2983D01*
X2650D01*
Y20300D01*
X4316Y21133D02*
X4150Y21300D01*
X3816D01*
X3650Y21133D01*
Y20467D01*
X3816Y20300D01*
X4150D01*
X4316Y20467D01*
Y20800D01*
X3983D01*
X4649Y20300D02*
Y21300D01*
X5316Y20300D01*
Y21300D01*
X5649D02*
Y20300D01*
X6149D01*
X6315Y20467D01*
Y21133D01*
X6149Y21300D01*
X5649D01*
X25350Y3900D02*
Y2900D01*
X25850D01*
X26016Y3067D01*
Y3233D01*
X25850Y3400D01*
X25350D01*
X25850D01*
X26016Y3566D01*
Y3733D01*
X25850Y3900D01*
X25350D01*
X27349Y2900D02*
Y3566D01*
X27683Y3900D01*
X28016Y3566D01*
Y2900D01*
Y3400D01*
X27349D01*
X28349Y3900D02*
X29015Y2900D01*
Y3900D02*
X28349Y2900D01*
X29349Y3900D02*
X29682D01*
X29515D01*
Y2900D01*
X29349D01*
X29682D01*
X30848Y3733D02*
X30682Y3900D01*
X30348D01*
X30182Y3733D01*
Y3566D01*
X30348Y3400D01*
X30682D01*
X30848Y3233D01*
Y3067D01*
X30682Y2900D01*
X30348D01*
X30182Y3067D01*
X650Y2900D02*
Y3566D01*
X983Y3900D01*
X1316Y3566D01*
Y2900D01*
Y3400D01*
X650D01*
X2649Y2900D02*
Y3566D01*
X2983Y3900D01*
X3316Y3566D01*
Y2900D01*
Y3400D01*
X2649D01*
X3649Y3900D02*
X4315Y2900D01*
Y3900D02*
X3649Y2900D01*
X4649Y3900D02*
X4982D01*
X4815D01*
Y2900D01*
X4649D01*
X4982D01*
X6148Y3733D02*
X5982Y3900D01*
X5648D01*
X5482Y3733D01*
Y3566D01*
X5648Y3400D01*
X5982D01*
X6148Y3233D01*
Y3067D01*
X5982Y2900D01*
X5648D01*
X5482Y3067D01*
X24550Y4750D02*
X25216D01*
X1450Y4800D02*
X2116D01*
X8700Y18950D02*
X9366D01*
X11300Y19000D02*
X11966D01*
X11633Y19333D02*
Y18667D01*
X29400Y4800D02*
X30066D01*
X29733Y5133D02*
Y4467D01*
X6300Y4750D02*
X6966D01*
X6633Y5083D02*
Y4417D01*
M02*
