%FSLAX24Y24*%
%MOIN*%
G70*
G01*
G75*
G04 Layer_Color=2752767*
%ADD10O,0.0138X0.0787*%
%ADD11R,0.0512X0.0709*%
%ADD12R,0.0335X0.0157*%
%ADD13R,0.0472X0.0551*%
%ADD14R,0.0591X0.0236*%
%ADD15R,0.0551X0.0472*%
%ADD16R,0.0374X0.0748*%
%ADD17R,0.2165X0.2717*%
%ADD18R,0.0984X0.2559*%
%ADD19R,0.0394X0.0551*%
%ADD20C,0.0120*%
%ADD21C,0.0250*%
%ADD22C,0.0500*%
%ADD23C,0.0080*%
%ADD24C,0.1000*%
%ADD25R,0.0591X0.0591*%
%ADD26C,0.0591*%
%ADD27C,0.0866*%
%ADD28C,0.2500*%
%ADD29C,0.1500*%
%ADD30C,0.1000*%
%ADD31R,0.0591X0.0591*%
%ADD32C,0.0500*%
%ADD33C,0.0236*%
%ADD34C,0.0098*%
%ADD35C,0.0079*%
%ADD36C,0.0100*%
%ADD37C,0.0197*%
%ADD38C,0.0150*%
%ADD39C,0.0200*%
%ADD40O,0.0218X0.0867*%
%ADD41R,0.0592X0.0789*%
%ADD42R,0.0415X0.0237*%
%ADD43R,0.0552X0.0631*%
%ADD44R,0.0671X0.0316*%
%ADD45R,0.0631X0.0552*%
%ADD46R,0.0454X0.0828*%
%ADD47R,0.2245X0.2797*%
%ADD48R,0.1064X0.2639*%
%ADD49R,0.0474X0.0631*%
%ADD50R,0.0671X0.0671*%
%ADD51C,0.0671*%
%ADD52C,0.0946*%
%ADD53C,0.1580*%
%ADD54C,0.1080*%
%ADD55C,0.1040*%
%ADD56R,0.0671X0.0671*%
%ADD57C,0.0580*%
%ADD58C,0.0050*%
%ADD59C,0.0067*%
D58*
X22000Y4450D02*
Y4850D01*
X22400D01*
Y4450D01*
X22000D01*
X21016D02*
Y4850D01*
X21416D01*
Y4450D01*
X21016D01*
X18300Y1800D02*
Y2200D01*
X18700D01*
Y1800D01*
X18300D01*
Y800D02*
Y1200D01*
X18700D01*
Y800D01*
X18300D01*
X17300Y1800D02*
Y2200D01*
X17700D01*
Y1800D01*
X17300D01*
Y800D02*
Y1200D01*
X17700D01*
Y800D01*
X17300D01*
X16300Y1800D02*
Y2200D01*
X16700D01*
Y1800D01*
X16300D01*
Y800D02*
Y1200D01*
X16700D01*
Y800D01*
X16300D01*
X15300Y1800D02*
Y2200D01*
X15700D01*
Y1800D01*
X15300D01*
Y800D02*
Y1200D01*
X15700D01*
Y800D01*
X15300D01*
X14300Y1800D02*
Y2200D01*
X14700D01*
Y1800D01*
X14300D01*
Y800D02*
Y1200D01*
X14700D01*
Y800D01*
X14300D01*
X13300Y1800D02*
Y2200D01*
X13700D01*
Y1800D01*
X13300D01*
Y800D02*
Y1200D01*
X13700D01*
Y800D01*
X13300D01*
X12300Y1800D02*
Y2200D01*
X12700D01*
Y1800D01*
X12300D01*
Y800D02*
Y1200D01*
X12700D01*
Y800D01*
X12300D01*
X7874Y1769D02*
X7674Y2168D01*
X8074D01*
X7874Y1769D01*
X17000Y16300D02*
X17100Y16400D01*
X17200D01*
X17100Y16500D01*
X17200Y16600D01*
X17100D01*
X17000Y16700D01*
X16900Y16600D01*
X16800D01*
X16900Y16500D01*
X16800Y16400D01*
X16900D01*
X17000Y16300D01*
X14000D02*
X14100Y16400D01*
X14200D01*
X14100Y16500D01*
X14200Y16600D01*
X14100D01*
X14000Y16700D01*
X13900Y16600D01*
X13800D01*
X13900Y16500D01*
X13800Y16400D01*
X13900D01*
X14000Y16300D01*
X11000D02*
X11100Y16400D01*
X11200D01*
X11100Y16500D01*
X11200Y16600D01*
X11100D01*
X11000Y16700D01*
X10900Y16600D01*
X10800D01*
X10900Y16500D01*
X10800Y16400D01*
X10900D01*
X11000Y16300D01*
X10800Y5300D02*
X10900Y5500D01*
X10800Y5700D01*
X11000Y5600D01*
X11200Y5700D01*
X11100Y5500D01*
X11200Y5300D01*
X11000Y5400D01*
X10800Y5300D01*
X12500D02*
X12600Y5400D01*
X12700D01*
X12600Y5500D01*
X12700Y5600D01*
X12600D01*
X12500Y5700D01*
X12400Y5600D01*
X12300D01*
X12400Y5500D01*
X12300Y5400D01*
X12400D01*
X12500Y5300D01*
X14000D02*
X14100Y5400D01*
X14200D01*
X14100Y5500D01*
X14200Y5600D01*
X14100D01*
X14000Y5700D01*
X13900Y5600D01*
X13800D01*
X13900Y5500D01*
X13800Y5400D01*
X13900D01*
X14000Y5300D01*
X15500D02*
X15600Y5400D01*
X15700D01*
X15600Y5500D01*
X15700Y5600D01*
X15600D01*
X15500Y5700D01*
X15400Y5600D01*
X15300D01*
X15400Y5500D01*
X15300Y5400D01*
X15400D01*
X15500Y5300D01*
X16800D02*
X16900Y5500D01*
X16800Y5700D01*
X17000Y5600D01*
X17200Y5700D01*
X17100Y5500D01*
X17200Y5300D01*
X17000Y5400D01*
X16800Y5300D01*
X7650Y4400D02*
Y4300D01*
X7850D01*
Y4400D01*
X7950D01*
Y4600D01*
X7850D01*
Y4700D01*
X7650D01*
Y4600D01*
X7550D01*
Y4400D01*
X7650D01*
X30650D02*
Y4300D01*
X30850D01*
Y4400D01*
X30950D01*
Y4600D01*
X30850D01*
Y4700D01*
X30650D01*
Y4600D01*
X30550D01*
Y4400D01*
X30650D01*
X650D02*
Y4300D01*
X850D01*
Y4400D01*
X950D01*
Y4600D01*
X850D01*
Y4700D01*
X650D01*
Y4600D01*
X550D01*
Y4400D01*
X650D01*
X23650D02*
Y4300D01*
X23850D01*
Y4400D01*
X23950D01*
Y4600D01*
X23850D01*
Y4700D01*
X23650D01*
Y4600D01*
X23550D01*
Y4400D01*
X23650D01*
X23622Y1769D02*
X23422Y2168D01*
X23822D01*
X23622Y1769D01*
X7874Y17517D02*
X7674Y17917D01*
X8074D01*
X7874Y17517D01*
X23622D02*
X23422Y17917D01*
X23822D01*
X23622Y17517D01*
X7550Y11300D02*
Y11700D01*
X7950D01*
Y11300D01*
X7550D01*
X6550D02*
Y11700D01*
X6950D01*
Y11300D01*
X6550D01*
X5550D02*
Y11700D01*
X5950D01*
Y11300D01*
X5550D01*
X4550D02*
Y11700D01*
X4950D01*
Y11300D01*
X4550D01*
X3550D02*
Y11700D01*
X3950D01*
Y11300D01*
X3550D01*
X2550D02*
Y11700D01*
X2950D01*
Y11300D01*
X2550D01*
X1550D02*
Y11700D01*
X1950D01*
Y11300D01*
X1550D01*
X550D02*
Y11700D01*
X950D01*
Y11300D01*
X550D01*
X7550Y6300D02*
Y6700D01*
X7950D01*
Y6300D01*
X7550D01*
X6550D02*
Y6700D01*
X6950D01*
Y6300D01*
X6550D01*
X5550D02*
Y6700D01*
X5950D01*
Y6300D01*
X5550D01*
X4550D02*
Y6700D01*
X4950D01*
Y6300D01*
X4550D01*
X3550D02*
Y6700D01*
X3950D01*
Y6300D01*
X3550D01*
X2550D02*
Y6700D01*
X2950D01*
Y6300D01*
X2550D01*
X1550D02*
Y6700D01*
X1950D01*
Y6300D01*
X1550D01*
X550D02*
Y6700D01*
X950D01*
Y6300D01*
X550D01*
X7550Y10300D02*
Y10700D01*
X7950D01*
Y10300D01*
X7550D01*
Y9300D02*
Y9700D01*
X7950D01*
Y9300D01*
X7550D01*
X30550Y11300D02*
Y11700D01*
X30950D01*
Y11300D01*
X30550D01*
X29550D02*
Y11700D01*
X29950D01*
Y11300D01*
X29550D01*
X28550D02*
Y11700D01*
X28950D01*
Y11300D01*
X28550D01*
X27550D02*
Y11700D01*
X27950D01*
Y11300D01*
X27550D01*
X26550D02*
Y11700D01*
X26950D01*
Y11300D01*
X26550D01*
X25550D02*
Y11700D01*
X25950D01*
Y11300D01*
X25550D01*
X24550D02*
Y11700D01*
X24950D01*
Y11300D01*
X24550D01*
X23550D02*
Y11700D01*
X23950D01*
Y11300D01*
X23550D01*
X30550Y6300D02*
Y6700D01*
X30950D01*
Y6300D01*
X30550D01*
X29550D02*
Y6700D01*
X29950D01*
Y6300D01*
X29550D01*
X28550D02*
Y6700D01*
X28950D01*
Y6300D01*
X28550D01*
X27550D02*
Y6700D01*
X27950D01*
Y6300D01*
X27550D01*
X26550D02*
Y6700D01*
X26950D01*
Y6300D01*
X26550D01*
X25550D02*
Y6700D01*
X25950D01*
Y6300D01*
X25550D01*
X24550D02*
Y6700D01*
X24950D01*
Y6300D01*
X24550D01*
X23550D02*
Y6700D01*
X23950D01*
Y6300D01*
X23550D01*
X30550Y10300D02*
Y10700D01*
X30950D01*
Y10300D01*
X30550D01*
Y9300D02*
Y9700D01*
X30950D01*
Y9300D01*
X30550D01*
X27800Y13500D02*
X27900D01*
X28000Y13600D01*
X28100Y13500D01*
X28200D01*
Y13600D01*
X28100Y13700D01*
X28200Y13800D01*
Y13900D01*
X28100D01*
X28000Y13800D01*
X27900Y13900D01*
X27800D01*
Y13800D01*
X27900Y13700D01*
X27800Y13600D01*
Y13500D01*
X24800Y13450D02*
X24900D01*
X25000Y13550D01*
X25100Y13450D01*
X25200D01*
Y13550D01*
X25100Y13650D01*
X25200Y13750D01*
Y13850D01*
X25100D01*
X25000Y13750D01*
X24900Y13850D01*
X24800D01*
Y13750D01*
X24900Y13650D01*
X24800Y13550D01*
Y13450D01*
X18650Y13050D02*
X18750D01*
X18850Y13150D01*
X18950Y13050D01*
X19050D01*
Y13150D01*
X18950Y13250D01*
X19050Y13350D01*
Y13450D01*
X18950D01*
X18850Y13350D01*
X18750Y13450D01*
X18650D01*
Y13350D01*
X18750Y13250D01*
X18650Y13150D01*
Y13050D01*
X19050Y14050D02*
X19150D01*
X19250Y14150D01*
X19350Y14050D01*
X19450D01*
Y14150D01*
X19350Y14250D01*
X19450Y14350D01*
Y14450D01*
X19350D01*
X19250Y14350D01*
X19150Y14450D01*
X19050D01*
Y14350D01*
X19150Y14250D01*
X19050Y14150D01*
Y14050D01*
X19000Y15500D02*
X19100D01*
X19200Y15600D01*
X19300Y15500D01*
X19400D01*
Y15600D01*
X19300Y15700D01*
X19400Y15800D01*
Y15900D01*
X19300D01*
X19200Y15800D01*
X19100Y15900D01*
X19000D01*
Y15800D01*
X19100Y15700D01*
X19000Y15600D01*
Y15500D01*
X19100Y17200D02*
X19200D01*
X19300Y17300D01*
X19400Y17200D01*
X19500D01*
Y17300D01*
X19400Y17400D01*
X19500Y17500D01*
Y17600D01*
X19400D01*
X19300Y17500D01*
X19200Y17600D01*
X19100D01*
Y17500D01*
X19200Y17400D01*
X19100Y17300D01*
Y17200D01*
Y16500D02*
X19200D01*
X19300Y16600D01*
X19400Y16500D01*
X19500D01*
Y16600D01*
X19400Y16700D01*
X19500Y16800D01*
Y16900D01*
X19400D01*
X19300Y16800D01*
X19200Y16900D01*
X19100D01*
Y16800D01*
X19200Y16700D01*
X19100Y16600D01*
Y16500D01*
X18550Y3300D02*
X18650D01*
X18750Y3400D01*
X18850Y3300D01*
X18950D01*
Y3400D01*
X18850Y3500D01*
X18950Y3600D01*
Y3700D01*
X18850D01*
X18750Y3600D01*
X18650Y3700D01*
X18550D01*
Y3600D01*
X18650Y3500D01*
X18550Y3400D01*
Y3300D01*
X19450Y4400D02*
X19550D01*
X19650Y4500D01*
X19750Y4400D01*
X19850D01*
Y4500D01*
X19750Y4600D01*
X19850Y4700D01*
Y4800D01*
X19750D01*
X19650Y4700D01*
X19550Y4800D01*
X19450D01*
Y4700D01*
X19550Y4600D01*
X19450Y4500D01*
Y4400D01*
X19900Y5300D02*
X20000D01*
X20100Y5400D01*
X20200Y5300D01*
X20300D01*
Y5400D01*
X20200Y5500D01*
X20300Y5600D01*
Y5700D01*
X20200D01*
X20100Y5600D01*
X20000Y5700D01*
X19900D01*
Y5600D01*
X20000Y5500D01*
X19900Y5400D01*
Y5300D01*
X28100Y7250D02*
X28200D01*
X28300Y7350D01*
X28400Y7250D01*
X28500D01*
Y7350D01*
X28400Y7450D01*
X28500Y7550D01*
Y7650D01*
X28400D01*
X28300Y7550D01*
X28200Y7650D01*
X28100D01*
Y7550D01*
X28200Y7450D01*
X28100Y7350D01*
Y7250D01*
X19700Y11200D02*
X19800D01*
X19900Y11300D01*
X20000Y11200D01*
X20100D01*
Y11300D01*
X20000Y11400D01*
X20100Y11500D01*
Y11600D01*
X20000D01*
X19900Y11500D01*
X19800Y11600D01*
X19700D01*
Y11500D01*
X19800Y11400D01*
X19700Y11300D01*
Y11200D01*
X18600Y11150D02*
X18700D01*
X18800Y11250D01*
X18900Y11150D01*
X19000D01*
Y11250D01*
X18900Y11350D01*
X19000Y11450D01*
Y11550D01*
X18900D01*
X18800Y11450D01*
X18700Y11550D01*
X18600D01*
Y11450D01*
X18700Y11350D01*
X18600Y11250D01*
Y11150D01*
X22400Y13450D02*
X22500D01*
X22600Y13550D01*
X22700Y13450D01*
X22800D01*
Y13550D01*
X22700Y13650D01*
X22800Y13750D01*
Y13850D01*
X22700D01*
X22600Y13750D01*
X22500Y13850D01*
X22400D01*
Y13750D01*
X22500Y13650D01*
X22400Y13550D01*
Y13450D01*
X22100Y14100D02*
X22200D01*
X22300Y14200D01*
X22400Y14100D01*
X22500D01*
Y14200D01*
X22400Y14300D01*
X22500Y14400D01*
Y14500D01*
X22400D01*
X22300Y14400D01*
X22200Y14500D01*
X22100D01*
Y14400D01*
X22200Y14300D01*
X22100Y14200D01*
Y14100D01*
D59*
X5700Y1250D02*
G03*
X5700Y1250I-200J0D01*
G01*
X4200D02*
G03*
X4200Y1250I-200J0D01*
G01*
X2700D02*
G03*
X2700Y1250I-200J0D01*
G01*
X1200D02*
G03*
X1200Y1250I-200J0D01*
G01*
X30700D02*
G03*
X30700Y1250I-200J0D01*
G01*
X29200D02*
G03*
X29200Y1250I-200J0D01*
G01*
X27700D02*
G03*
X27700Y1250I-200J0D01*
G01*
X26200D02*
G03*
X26200Y1250I-200J0D01*
G01*
X9058Y19677D02*
G03*
X9058Y19677I-200J0D01*
G01*
X10558D02*
G03*
X10558Y19677I-200J0D01*
G01*
X18480D02*
G03*
X18480Y19677I-200J0D01*
G01*
X16980D02*
G03*
X16980Y19677I-200J0D01*
G01*
X15480D02*
G03*
X15480Y19677I-200J0D01*
G01*
X13980D02*
G03*
X13980Y19677I-200J0D01*
G01*
X19980D02*
G03*
X19980Y19677I-200J0D01*
G01*
X21480D02*
G03*
X21480Y19677I-200J0D01*
G01*
X24806D02*
G03*
X24806Y19677I-200J0D01*
G01*
X26306D02*
G03*
X26306Y19677I-200J0D01*
G01*
X27806D02*
G03*
X27806Y19677I-200J0D01*
G01*
X29306D02*
G03*
X29306Y19677I-200J0D01*
G01*
M02*
