G04 Title: test, silkscreen, component side *
G04 Creator: pcb 1.7.1.ALPHA *
G04 CreationDate: Tue Jul 17 09:58:54 2001 UTC *
G04 For: spe *
G04 Format: Gerber/RS-274X *
G04 PCB-Dimensions: 6000 5000 *
G04 PCB-Coordinate-Origin: lower left *
%FSLAX23Y23*%
%MOIN*%
%IPPOS*%
%LPD*%
%ADD11C,0.025*%
%ADD12C,0.010*%
%ADD13C,0.040*%
%ADD14C,0.055*%
%ADD15R,0.060X0.060*%
%ADD16R,0.090X0.090*%
%ADD17C,0.060*%
%ADD18C,0.090*%
%ADD19C,0.020*%
%ADD20C,0.008*%
%ADD21R,0.050X0.050*%
%ADD22R,0.080X0.080*%
%ADD23C,0.050*%
%ADD24C,0.080*%
%ADD25C,0.120*%
%ADD26C,0.150*%
G01X0Y0D02*
G54D19*X3740Y1410D02*X3640D01*
D02*Y1210D01*
D02*X3740D01*
D02*Y1410D01*
G54D12*X3640D02*Y1310D01*
D02*X3740D01*
G04 Text: CONN2 *
G54D20*X3735Y1190D02*X3720D01*
X3740Y1185D02*X3735Y1190D01*
X3740Y1155D02*Y1185D01*
Y1155D02*X3735Y1150D01*
D02*X3720D01*
X3707Y1155D02*Y1185D01*
Y1155D02*X3702Y1150D01*
D02*X3692D01*
D02*X3687Y1155D01*
D02*Y1185D01*
X3692Y1190D02*X3687Y1185D01*
X3702Y1190D02*X3692D01*
X3707Y1185D02*X3702Y1190D01*
X3674Y1150D02*Y1190D01*
Y1150D02*Y1155D01*
D02*X3649Y1180D01*
Y1150D02*Y1190D01*
X3636Y1150D02*Y1190D01*
Y1150D02*Y1155D01*
D02*X3611Y1180D01*
Y1150D02*Y1190D01*
X3598Y1155D02*X3593Y1150D01*
D02*X3578D01*
D02*X3573Y1155D01*
D02*Y1165D01*
X3598Y1190D02*X3573Y1165D01*
X3598Y1190D02*X3573D01*
G54D12*X3160Y2400D02*Y1500D01*
D02*X3560D01*
D02*Y2400D01*
X3160D02*X3310D01*
X3410D02*X3560D01*
X3310D02*G75G03I50J0X3410Y2400D01*G01*
G04 Text: IC1 *
G54D20*X3380Y2300D02*Y2290D01*
Y2295D02*X3340D01*
Y2300D02*Y2290D01*
Y2272D02*Y2257D01*
X3345Y2277D02*X3340Y2272D01*
X3375Y2277D02*X3345D01*
X3375D02*X3380Y2272D01*
D02*Y2257D01*
X3340Y2239D02*Y2229D01*
X3380Y2234D02*X3340D01*
X3370Y2244D02*X3380Y2234D01*
G54D12*X1700Y1710D02*X1600D01*
X1700Y1610D02*Y1710D01*
G54D19*X1600Y1810D02*Y1610D01*
X1700Y1810D02*X1600D01*
X1700Y1610D02*Y1810D01*
X1600Y1610D02*X1700D01*
G04 Text: CONN1 *
G54D20*X1605Y1830D02*X1620D01*
X1600Y1835D02*X1605Y1830D01*
X1600Y1865D02*Y1835D01*
Y1865D02*X1605Y1870D01*
D02*X1620D01*
X1633Y1865D02*Y1835D01*
Y1865D02*X1638Y1870D01*
D02*X1648D01*
D02*X1653Y1865D01*
D02*Y1835D01*
X1648Y1830D02*X1653Y1835D01*
X1638Y1830D02*X1648D01*
X1633Y1835D02*X1638Y1830D01*
X1666Y1870D02*Y1830D01*
Y1870D02*Y1865D01*
D02*X1691Y1840D01*
Y1870D02*Y1830D01*
X1704Y1870D02*Y1830D01*
Y1870D02*Y1865D01*
D02*X1729Y1840D01*
Y1870D02*Y1830D01*
X1747D02*X1757D01*
X1752Y1870D02*Y1830D01*
X1742Y1860D02*X1752Y1870D01*
G54D19*X3020Y2110D02*Y2310D01*
D02*X3120D01*
D02*Y2110D01*
D02*X3020D01*
X3070Y2010D02*Y2110D01*
Y2310D02*Y2410D01*
G04 Text: R11 *
G54D20*X3050Y2130D02*Y2150D01*
D02*X3055Y2155D01*
D02*X3065D01*
X3070Y2150D02*X3065Y2155D01*
X3070Y2135D02*Y2150D01*
X3050Y2135D02*X3090D01*
X3070D02*X3090Y2155D01*
Y2173D02*Y2183D01*
X3050Y2178D02*X3090D01*
X3060Y2168D02*X3050Y2178D01*
X3090Y2201D02*Y2211D01*
X3050Y2206D02*X3090D01*
X3060Y2196D02*X3050Y2206D01*
G54D12*X3080Y1820D02*Y1620D01*
X2980Y1820D02*Y1620D01*
X3080Y1820D02*G75G03I-50J0X2980Y1821D01*G01*
Y1620D02*G75G03I50J0X3080Y1620D01*G01*
G04 Text: X1 *
G54D20*X2960Y1820D02*X2955D01*
D02*X2930Y1795D01*
D02*X2920D01*
X2930Y1820D02*X2920D01*
X2930D02*X2955Y1795D01*
X2960D02*X2955D01*
X2920Y1777D02*Y1767D01*
X2960Y1772D02*X2920D01*
X2950Y1782D02*X2960Y1772D01*
G54D19*X2890Y1960D02*Y2160D01*
D02*X2990D01*
D02*Y1960D01*
D02*X2890D01*
X2940Y1860D02*Y1960D01*
Y2160D02*Y2260D01*
G04 Text: R9 *
G54D20*X2920Y1980D02*Y2000D01*
D02*X2925Y2005D01*
D02*X2935D01*
X2940Y2000D02*X2935Y2005D01*
X2940Y1985D02*Y2000D01*
X2920Y1985D02*X2960D01*
X2940D02*X2960Y2005D01*
Y2018D02*X2940Y2038D01*
X2925D02*X2940D01*
X2920Y2033D02*X2925Y2038D01*
X2920Y2023D02*Y2033D01*
X2925Y2018D02*X2920Y2023D01*
X2925Y2018D02*X2935D01*
D02*X2940Y2023D01*
D02*Y2038D01*
G54D19*X2630Y2050D02*Y2250D01*
D02*X2730D01*
D02*Y2050D01*
D02*X2630D01*
X2680Y1950D02*Y2050D01*
Y2250D02*Y2350D01*
G04 Text: R7 *
G54D20*X2660Y2070D02*Y2090D01*
D02*X2665Y2095D01*
D02*X2675D01*
X2680Y2090D02*X2675Y2095D01*
X2680Y2075D02*Y2090D01*
X2660Y2075D02*X2700D01*
X2680D02*X2700Y2095D01*
Y2108D02*X2675Y2133D01*
X2660D02*X2675D01*
X2660Y2108D02*Y2133D01*
G54D19*X2510Y1960D02*Y2160D01*
D02*X2610D01*
D02*Y1960D01*
D02*X2510D01*
X2560Y1860D02*Y1960D01*
Y2160D02*Y2260D01*
G04 Text: R6 *
G54D20*X2540Y1980D02*Y2000D01*
D02*X2545Y2005D01*
D02*X2555D01*
X2560Y2000D02*X2555Y2005D01*
X2560Y1985D02*Y2000D01*
X2540Y1985D02*X2580D01*
X2560D02*X2580Y2005D01*
X2540Y2033D02*X2545Y2038D01*
X2540Y2023D02*Y2033D01*
X2545Y2018D02*X2540Y2023D01*
X2545Y2018D02*X2575D01*
D02*X2580Y2023D01*
X2560Y2033D02*X2565Y2038D01*
X2560Y2018D02*Y2033D01*
X2580Y2023D02*Y2033D01*
D02*X2575Y2038D01*
X2565D02*X2575D01*
G54D12*X2330Y1530D02*Y1630D01*
Y1730D02*Y1830D01*
Y1630D02*X2280Y1730D01*
D02*X2380D01*
D02*X2330Y1630D01*
X2280D02*X2380D01*
G04 Text: D2 *
G54D20*X2280Y1755D02*X2320D01*
X2280Y1770D02*X2285Y1775D01*
D02*X2315D01*
X2320Y1770D02*X2315Y1775D01*
X2320Y1750D02*Y1770D01*
X2280Y1750D02*Y1770D01*
X2285Y1788D02*X2280Y1793D01*
D02*Y1808D01*
D02*X2285Y1813D01*
D02*X2295D01*
X2320Y1788D02*X2295Y1813D01*
X2320Y1788D02*Y1813D01*
G54D19*X2400Y2050D02*Y2250D01*
D02*X2500D01*
D02*Y2050D01*
D02*X2400D01*
X2450Y1950D02*Y2050D01*
Y2250D02*Y2350D01*
G04 Text: R5 *
G54D20*X2430Y2070D02*Y2090D01*
D02*X2435Y2095D01*
D02*X2445D01*
X2450Y2090D02*X2445Y2095D01*
X2450Y2075D02*Y2090D01*
X2430Y2075D02*X2470D01*
X2450D02*X2470Y2095D01*
X2430Y2108D02*Y2128D01*
Y2108D02*X2450D01*
D02*X2445Y2113D01*
D02*Y2123D01*
D02*X2450Y2128D01*
D02*X2465D01*
X2470Y2123D02*X2465Y2128D01*
X2470Y2113D02*Y2123D01*
X2465Y2108D02*X2470Y2113D01*
G54D12*X2450Y1580D02*Y1680D01*
Y1780D02*Y1880D01*
Y1680D02*X2400Y1780D01*
D02*X2500D01*
D02*X2450Y1680D01*
X2400D02*X2500D01*
G04 Text: D1 *
G54D20*X2400Y1805D02*X2440D01*
X2400Y1820D02*X2405Y1825D01*
D02*X2435D01*
X2440Y1820D02*X2435Y1825D01*
X2440Y1800D02*Y1820D01*
X2400Y1800D02*Y1820D01*
X2440Y1843D02*Y1853D01*
X2400Y1848D02*X2440D01*
X2410Y1838D02*X2400Y1848D01*
G54D19*X2750Y2050D02*Y2250D01*
D02*X2850D01*
D02*Y2050D01*
D02*X2750D01*
X2800Y1950D02*Y2050D01*
Y2250D02*Y2350D01*
G04 Text: R8 *
G54D20*X2780Y2070D02*Y2090D01*
D02*X2785Y2095D01*
D02*X2795D01*
X2800Y2090D02*X2795Y2095D01*
X2800Y2075D02*Y2090D01*
X2780Y2075D02*X2820D01*
X2800D02*X2820Y2095D01*
X2815Y2108D02*X2820Y2113D01*
X2805Y2108D02*X2815D01*
X2805D02*X2800Y2113D01*
D02*Y2123D01*
D02*X2805Y2128D01*
D02*X2815D01*
X2820Y2123D02*X2815Y2128D01*
X2820Y2113D02*Y2123D01*
X2795Y2108D02*X2800Y2113D01*
X2785Y2108D02*X2795D01*
X2785D02*X2780Y2113D01*
D02*Y2123D01*
D02*X2785Y2128D01*
D02*X2795D01*
X2800Y2123D02*X2795Y2128D01*
G54D12*X1690Y1955D02*Y2030D01*
Y2180D02*Y2255D01*
X1665Y2030D02*Y2180D01*
D02*X1715D01*
D02*Y2030D01*
D02*X1665D01*
G04 Text: C2 *
G54D20*X1775Y2205D02*Y2220D01*
X1770Y2200D02*X1775Y2205D01*
X1740Y2200D02*X1770D01*
X1740D02*X1735Y2205D01*
D02*Y2220D01*
X1740Y2233D02*X1735Y2238D01*
D02*Y2253D01*
D02*X1740Y2258D01*
D02*X1750D01*
X1775Y2233D02*X1750Y2258D01*
X1775Y2233D02*Y2258D01*
G54D12*X1830Y2055D02*Y2130D01*
Y2280D02*Y2355D01*
X1805Y2130D02*Y2280D01*
D02*X1855D01*
D02*Y2130D01*
D02*X1805D01*
G04 Text: C1 *
G54D20*X1915Y2305D02*Y2320D01*
X1910Y2300D02*X1915Y2305D01*
X1880Y2300D02*X1910D01*
X1880D02*X1875Y2305D01*
D02*Y2320D01*
X1915Y2338D02*Y2348D01*
X1875Y2343D02*X1915D01*
X1885Y2333D02*X1875Y2343D01*
G54D19*X2270Y2160D02*Y1960D01*
D02*X2170D01*
D02*Y2160D01*
D02*X2270D01*
X2220Y2260D02*Y2160D01*
Y1960D02*Y1860D01*
G04 Text: R4 *
G54D20*X2240Y2140D02*Y2120D01*
D02*X2235Y2115D01*
D02*X2225D01*
X2220Y2120D02*X2225Y2115D01*
X2220Y2135D02*Y2120D01*
X2240Y2135D02*X2200D01*
X2220D02*X2200Y2115D01*
X2220Y2102D02*X2240Y2082D01*
X2220Y2102D02*Y2077D01*
X2240Y2082D02*X2200D01*
G54D19*X2390Y2250D02*Y2050D01*
D02*X2290D01*
D02*Y2250D01*
D02*X2390D01*
X2340Y2350D02*Y2250D01*
Y2050D02*Y1950D01*
G04 Text: R3 *
G54D20*X2360Y2230D02*Y2210D01*
D02*X2355Y2205D01*
D02*X2345D01*
X2340Y2210D02*X2345Y2205D01*
X2340Y2225D02*Y2210D01*
X2360Y2225D02*X2320D01*
X2340D02*X2320Y2205D01*
X2355Y2192D02*X2360Y2187D01*
D02*Y2177D01*
D02*X2355Y2172D01*
D02*X2325D01*
X2320Y2177D02*X2325Y2172D01*
X2320Y2187D02*Y2177D01*
X2325Y2192D02*X2320Y2187D01*
X2340D02*Y2172D01*
G54D19*X2050Y1960D02*Y2160D01*
D02*X2150D01*
D02*Y1960D01*
D02*X2050D01*
X2100Y1860D02*Y1960D01*
Y2160D02*Y2260D01*
G04 Text: R2 *
G54D20*X2120Y2100D02*Y2080D01*
D02*X2115Y2075D01*
D02*X2105D01*
X2100Y2080D02*X2105Y2075D01*
X2100Y2095D02*Y2080D01*
X2120Y2095D02*X2080D01*
X2100D02*X2080Y2075D01*
X2115Y2062D02*X2120Y2057D01*
D02*Y2042D01*
D02*X2115Y2037D01*
D02*X2105D01*
X2080Y2062D02*X2105Y2037D01*
X2080Y2062D02*Y2037D01*
G54D19*X3240Y1250D02*Y970D01*
X3190Y1150D02*Y970D01*
X3140Y1250D02*Y970D01*
X3090Y1150D02*Y970D01*
X3040Y1250D02*Y970D01*
X2990Y1150D02*Y970D01*
X2940Y1250D02*Y970D01*
X2890Y1150D02*Y970D01*
X2840Y1250D02*Y970D01*
X2790Y1150D02*Y970D01*
X2740Y1250D02*Y970D01*
X2690Y1150D02*Y970D01*
X2640Y1250D02*Y970D01*
X2590Y1150D02*Y970D01*
X2540Y1250D02*Y970D01*
X2490Y1150D02*Y970D01*
X2440Y1250D02*Y970D01*
X2390Y1150D02*Y970D01*
X2340Y1250D02*Y970D01*
X2290Y1150D02*Y970D01*
X2240Y1250D02*Y970D01*
X2190Y1150D02*Y970D01*
X2140Y1250D02*Y970D01*
X2090Y1150D02*Y970D01*
X2040Y1250D02*Y970D01*
G54D12*X3400Y770D02*X1880D01*
G54D19*X3400Y970D02*Y770D01*
X1880Y970D02*X3400D01*
X1880Y770D02*Y970D01*
X3340Y470D02*X1940D01*
X3340Y740D02*Y470D01*
G54D12*X1940Y740D02*X3340D01*
G54D19*X1940Y470D02*Y740D01*
G54D12*X3450D02*Y770D01*
X3570Y740D02*Y770D01*
X1830Y740D02*Y770D01*
X1710Y740D02*Y770D01*
X3630Y740D02*X1650D01*
X3630Y770D02*Y740D01*
X1650Y770D02*X3630D01*
X1650Y740D02*Y770D01*
G04 Text: J1 *
G54D20*X1970Y570D02*X1985D01*
D02*Y535D01*
X1980Y530D02*X1985Y535D01*
X1975Y530D02*X1980D01*
X1970Y535D02*X1975Y530D01*
X2003D02*X2013D01*
X2008Y570D02*Y530D01*
X1998Y560D02*X2008Y570D01*
G54D12*X2510Y1560D02*X2610D01*
X2710D02*X2810D01*
X2610D02*X2710Y1610D01*
D02*Y1510D01*
D02*X2610Y1560D01*
Y1610D02*Y1510D01*
G04 Text: D3 *
G54D20*X2795Y1580D02*Y1620D01*
X2780Y1580D02*X2775Y1585D01*
D02*Y1615D01*
X2780Y1620D02*X2775Y1615D01*
X2800Y1620D02*X2780D01*
X2800Y1580D02*X2780D01*
X2762Y1585D02*X2757Y1580D01*
D02*X2747D01*
D02*X2742Y1585D01*
D02*Y1615D01*
X2747Y1620D02*X2742Y1615D01*
X2757Y1620D02*X2747D01*
X2762Y1615D02*X2757Y1620D01*
Y1600D02*X2742D01*
G54D19*X3710Y1880D02*Y1680D01*
D02*X3610D01*
D02*Y1880D01*
D02*X3710D01*
X3660Y1980D02*Y1880D01*
Y1680D02*Y1580D01*
G04 Text: R10 *
G54D20*X3700Y1780D02*X3680D01*
D02*X3675Y1785D01*
D02*Y1795D01*
X3680Y1800D02*X3675Y1795D01*
X3695Y1800D02*X3680D01*
X3695Y1780D02*Y1820D01*
Y1800D02*X3675Y1820D01*
X3657D02*X3647D01*
X3652Y1780D02*Y1820D01*
X3662Y1790D02*X3652Y1780D01*
X3634Y1815D02*X3629Y1820D01*
X3634Y1785D02*Y1815D01*
Y1785D02*X3629Y1780D01*
D02*X3619D01*
D02*X3614Y1785D01*
D02*Y1815D01*
X3619Y1820D02*X3614Y1815D01*
X3629Y1820D02*X3619D01*
X3634Y1810D02*X3614Y1790D01*
G54D12*X3660Y2045D02*Y2120D01*
Y2270D02*Y2345D01*
X3635Y2120D02*Y2270D01*
D02*X3685D01*
D02*Y2120D01*
D02*X3635D01*
G04 Text: C3 *
G54D20*X3745Y2295D02*Y2310D01*
X3740Y2290D02*X3745Y2295D01*
X3710Y2290D02*X3740D01*
X3710D02*X3705Y2295D01*
D02*Y2310D01*
X3710Y2323D02*X3705Y2328D01*
D02*Y2338D01*
D02*X3710Y2343D01*
D02*X3740D01*
X3745Y2338D02*X3740Y2343D01*
X3745Y2328D02*Y2338D01*
X3740Y2323D02*X3745Y2328D01*
X3725D02*Y2343D01*
G54D19*X1940Y2050D02*Y2250D01*
D02*X2040D01*
D02*Y2050D01*
D02*X1940D01*
X1990Y1950D02*Y2050D01*
Y2250D02*Y2350D01*
G04 Text: R1 *
G54D20*X2010Y2190D02*Y2170D01*
D02*X2005Y2165D01*
D02*X1995D01*
X1990Y2170D02*X1995Y2165D01*
X1990Y2185D02*Y2170D01*
X2010Y2185D02*X1970D01*
X1990D02*X1970Y2165D01*
Y2147D02*Y2137D01*
X2010Y2142D02*X1970D01*
X2000Y2152D02*X2010Y2142D01*
D02*
M02*
