M48
;Layer_Color=9474304
;FILE_FORMAT=4:3
; We add a bunch of screwy ones here on purpose for better coverage.
;FILE_FORMAT  4:4
;FILE_FORMAT =
;FILE_FORMAT = 4
;FILE_FORMAT = 4 : garbage
;FILE_FORMAT = 4 : f
;FILE_FORMAT=4:4
METRIC,LZ
;TYPE=PLATED
T1F00S00C0.2000
T2F00S00C0.3810
T4F00S00C1.0000
T6F00S00C1.2500
T7F00S00C1.9000
T8F00S00C2.4000
T9F00S00C3.0000
T10F00S00C3.1000
;TYPE=NON_PLATED
T11F00S00C0.9000
T12F00S00C1.0000
T13F00S00C1.3000
T14F00S00C3.1800
%
T01
X002365Y00159755
X00242Y00158255
X00248233
X00253733Y00159755
X00227Y00173755
X004075Y001745
X00425883Y00159845
X00431383Y00158345
X00437617
X00443117Y00159845
X00449617Y00173845
X00474095Y00173883
X00472595Y00179383
Y00185617
X00488405Y00164383
X00506905
X00520905Y00173883
X00522405Y00179383
Y00185617
X00544Y0018375
X0055125Y001495
X0055975Y0013425
X00544Y0012225
X005395
X0053475
X0054525Y0010925
X0056375Y001025
X005845Y00103
X00536Y000835
Y000785
Y000735
X00526
Y000785
Y000835
X0047625Y0008225
X00471
Y0008775
X0047625
X004655
Y0008225
X0046575Y0009325
X00471
X004865Y0010075
Y0010625
Y0011175
X00481Y0013575
X004675
X00454
Y0012225
Y0010875
X0050025Y0013425
X00521875Y00147375
X005255Y00151
X0058675Y0019
X0062775Y001895
X006335Y001885
X0064275Y0016375
X0064875
X0065475
X006715Y001615
X006755Y001565
X00674Y0014
X00679Y0014
X00684
X00689
X00714Y0014
X00719Y0014
X00724
X00729
X00754Y0014
X00759Y0014
X00764
X00769
X0078275Y0014075
X00789Y00124
Y001105
Y00097
Y000835
Y00069999
X00749Y001125
X00744
X00739
X00734Y001125
X00709Y00095
X00704
X00699
X00694Y00095
X00669Y0008
X00664
X00659
X00654Y0008
X0062075Y00079
Y0007375
Y0008425
Y000895
X00619Y001125
X00614Y001125
X00609
X00604Y001125
X00599
X00594Y001125
X00588Y000895
Y0008425
Y00079
Y0007375
X0061775Y001285
X00624Y0014
X00629Y0014
X00634
X00639
X0072075Y0016475
X007425Y001615
X007535
X0079425Y0017725
X007995
X00805
X008325Y00177
X00833497Y001405
X00846997
X00860497
X00873997
X00887497
X00900997
X00914497
X00927997
X00941497
X00954998
X00968498
X009748Y0014075
X00981998Y001405
X00819997
X00806497
X009875Y0014075
X00995498Y001405
X01008998
X01022498
X01035998
X01049498
X01062998
X01076498
X01089999
X010965Y00141
X01103499Y001405
X01116999
X01130499
X01143999
X01157499
X01170999
X01184499
X01197999
X01211499
X01225
X012385
X01252
X012655
X01279
X012925
X01306
X013195
X01333
X01346501
X01360001
X01373501
X01316Y00177
X01267Y0018775
X0113825Y001775
X0109825Y0017725
X0107475Y00177
X0106775Y00177
X010335Y00177
X0102375
X0099425
X01387001Y001405
X01400501
X01414001
X01427501
X01441001
X01454501
X01468001
X01481501
X01495002
X01508502
X01522002
X01535502
X01549002
X01562502
X01576002
X01589502
X01603002
X01616503
X01630003
X01643503
X01657003
X01670503
X01684003
X01697503
X01711003
X01724503
X01738003
X01751503
X01765004
X01623Y0016125
X0163075Y001705
X01632Y00184
X016265Y0018925
X01597Y001695
X015915
Y0016325
X01597
X0158475Y0016075
X0157925
X01572Y0016125
X0157775Y0018
Y001885
X0156575
Y0018
X015555Y0017075
X01547Y00178
Y00186
X0153175Y0016275
X015205Y0015775
X0150875Y0016625
X0149675Y0015825
X014855Y0016625
X0147375Y0015825
X01463Y0016625
X01778504Y001405
X01792004
X01805504
X01819004
X01832504
X01846004
Y00154
Y00208001
Y00221501
Y00235001
Y00248501
Y00262001
Y00275501
Y00289001
Y00302501
Y00316001
Y00329501
Y00343002
Y00356502
Y00370002
Y00383502
Y00397002
Y00410502
Y00424002
Y00437502
Y00451002
Y00464502
Y00478003
Y00491503
Y00505003
Y00518503
Y00532003
X01859504
X01873004
X01886505
X0182125Y00549
X0181625
X01808Y00546
X01801
X0179375
X0178625
X0177975
X017895Y00522
X01784Y00494
Y004875
X01809Y0046125
X0182
X018Y00437
X018095Y004235
X018195Y004165
X01816875Y0039025
X01816875Y0038475
X01810625
Y0039025
X01819375Y00378
X01819375Y003725
X01819375Y0036525
X01800625Y00371
X01792125
X01783625
Y00359
X01792125
X01800625
X01809Y0034775
X0179975Y003395
X0179225
X017845
X0181425Y0032475
X0181425Y0030225
X0181425Y0027875
Y00256
X017895Y004145
X0177425Y004095
X0175525Y004075
X01763625Y0037775
X01739625Y003805
X017395Y0037
X01775125Y0032025
Y00315
X01773125Y0030075
Y00294
X01773375Y002825
Y0027575
X0161375Y002255
X0161625Y0020625
X016205Y00191
X0157775Y00197
X0156575Y00197
X0154725Y001935
X01527Y002055
X0152175
X015075Y002075
X0150075
X0148925Y0020725
X014825
X015845Y00217
X0158725Y00241
X0157675Y00241
X015795Y0034625
X01585Y0034625
X0159175Y0034875
X0159725
Y00355
X0159175
X01578Y003655
Y00374
Y003825
X01566
Y00374
Y003655
X0155775Y00357
X015465Y00364
Y003715
Y00379
X0152725Y00391
X01522Y00391
X0150775Y00393
X01501
X014895Y0039275
X0148275Y0039275
X0147425Y0034425
X01463Y0035175
X0144725Y003465
X014525Y0034125
X0144725Y0032625
X0143625
Y00346
X014315Y0034125
X0138375Y0032975
X0138875Y0031425
X0138875Y0030775
Y003015
X0138225Y0024175
X01384Y0044775
X01383174Y004855
Y0049794
Y0051038
Y00522865
Y0053516
X0139525Y005165
Y0050425
X01418Y00577
Y0058275
X01429Y00569
X0157Y005675
Y005725
Y005775
Y005825
X01594
Y005775
Y005725
Y005675
X0160575Y0057175
Y0057775
X01594Y005475
Y005425
Y005375
Y005325
Y005125
Y005075
Y005025
Y004975
X0157
Y005025
Y005075
Y005125
Y005325
Y005375
Y005425
Y005475
X0165Y005575
X0166175Y00574
X0166175Y00582
X0167775
X0168575
X0169375Y00582
X0170175Y00582
Y00574
X0172575Y00574
X0173375
X0173375Y00582
X0172575
X0173375Y00549
X017435Y0053925
X0174275Y00527328
X0173375
X0171575Y005285
X0170275Y0052225
Y005175
Y0051275
X0170635Y0049665
X0168645Y0048395
X0168615Y0052205
X0165825Y0050935
X0170625Y0055125
X0175775Y00548
X017645Y00562
X0177025Y00567
X017494Y0046585
X0161275Y00405
X016165Y00392
X0162425Y0037975
X0162325Y00366
X016235Y0034625
X0160475Y003685
X0158475Y004025
X015875Y004265
X01577Y004265
X0157225Y0034675
X015205Y0034425
X014975
X0142825Y0041175
X0142525Y0041575
X0142825Y0041975
X0137275Y004655
X0135175Y0047125
Y0048372
Y0045878
X0132225Y0043425
Y0042625
X0130625Y0042625
X0129825Y0042625
X0129025
X0129025Y0043425
X0129825
X0127425
Y0042625
Y0041825
X0126625
X0125825
Y0042625
X0126625
X0125025
Y0041825
X0124225
Y0042625
X0123425
Y0041825
X0122625
Y0042625
X0121825
Y0041825
X0121025
X0120225
Y0042625
X0121025
X0120225Y0043425
X0118875Y0043375
Y0042375
Y0041375
Y0040375
Y0038975
Y0037975
Y0036975
Y0035975
Y0035475
X01192Y0034375
X01177Y0034375
X01172Y0034375
X01167Y0034375
X01162
X01157
X0114525Y00360343
X0113725Y00360343
X0112925Y00360343
X0112125Y00360343
X0111325Y00360343
X0110925Y0037
Y00378
X0110925Y00386
X0110125
X0109325
X0109325Y0037
X0108525
X0108525Y00378
X0106925
X0106925Y00386
X0106125
X0106125Y00378
X0105325Y0037
X0104525
Y00378
X0103725
X0102925Y00378
Y0037
Y00362
X0102125
Y00378
X0102925Y00386
X0104525Y00386
X0106075Y0039375
X0106075Y0039925
X01061Y004075
X0105325Y0040875
Y00418
Y00426
X0104525
Y00418
X0103725
Y00426
Y00434
X0102925
X0102125
Y00426
X0102925
Y00418
X0102125
X0104525Y00434
X0105325
X0106125
X0106925
X0107725
Y00426
X0106925
Y00418
X0107725
X0109325Y00418
X0109325Y00426
Y00434
X0110925
X0111725
Y00426
X0110925
X0110925Y00418
X0109325Y0041
X0108525Y00426
X0106125
Y00418
X01077Y0039675
X0107725Y0037
Y00362
X0106925
X0106125
X0105325
X0104525
X0103725
X01043Y00345
X01057Y00321
X010605Y00317
X0106545Y0027205
X0109085Y002581
X0106725Y001965
X0113875Y0019625
X0113325Y0020575
X011575Y002855
X011745Y0027925
X0119125Y0028575
X01187Y0031025
X0118Y003105
X01187Y0033025
X0117525Y0036475
X0117525Y0037475
X0117525Y0038475
Y0039875
Y0040875
X0117525Y0041875
X0117525Y0042875
X0114525Y00435657
X0113725Y00435657
X0112925Y00435657
X011295Y003975
X011165Y0038975
X0110125Y00378
X0110125Y0037
X0106925Y0037
X011155Y0034375
X01150907Y00374
X0120225Y0037025
X0121025
Y0037825
X0121825
X0122625
X0123425
X0124225
X0125025
X0125825
X0126625
X0127425
X0128225
X0129025Y0037825
X0129025Y0037025
X0129825Y0037025
X0129825Y0037825
X0129425Y00360593
X0130625Y0036225
X0131425
X0132225
X013315Y00361
X01331Y0037075
X013315Y004015
X0131325Y003315
X0130375Y003355
X01295Y003315
X0127375Y0032775
X0126775Y00327
X0124875Y0031925
X0125725Y0028975
X0127725Y00283
X0128575
X0129425
Y00271
X0128575
X0127725
X0128125Y00247
X0129
X01299
X013025Y0025725
X0131225Y0026375
X01313Y0027725
X013135Y002845
X013135Y0029
X01311Y0029675
X01311Y0030225
X0130475
Y0029675
X0129125Y0030975
X0134925Y0031225
X01356Y003125
X013525Y00308
X01374Y002345
X0137825Y00238
X01316Y002265
X0130775Y0021375
X01316Y0020475
X0130775Y0019075
X01267Y001945
X0126675Y00206
Y0021275
X0126875Y00227
Y0023225
X01233Y00282
X0123325Y002925
X0123025Y00360593
X0123825
X0124625
X0125425
X0126225
X0126625Y0037025
X0125825
X0125025
X0124225
X0123425
X0122625
X0121825
X0122225Y00360593
X0121425
X0120625
X0120225Y0037825
X0121825Y0043425
X0122625
X0123425
X0124225
X0125025
X0125825
X0125525Y0048
X0126525
Y0049
X0125525
X0125525Y005
X0126525
X0127525
X0127525Y0049
X0128525Y0049
X0128525Y005
X0128525Y0051
X0127525
Y0052
X0126525
X0126525Y0053
Y0054
X0125525Y0054
Y0056
X0124525
X0124525Y0057
X0125525Y0057
X0126525
X0127525
Y0058
X0128525
X0129525Y0058
X0130525Y0058
X0131525
Y0057
X0130525
Y0056
Y0055
X0131525
X0129525Y0056
X0128525
X0127525
X0127525Y0055
Y0054
Y0053
X0128525Y0053
X0129525
X0130525Y0052
X0131525Y0052
X0132525
Y0051
X0131525
X0130525Y005
X0129525
X0128525Y0048
X0130525Y0048
X0131525
X0131525Y0049
X0130525Y004695
X0124525Y0048
Y0049
Y005
X0124525Y0051
Y0052
X0123525Y0052
Y0051
X0122525Y0051
X0121525
X0120525
X0120525Y0052
X0121525
X0122525
Y0053
X0123525
Y0054
X0122525
Y0055
Y0056
Y0057
Y0058
X0123525
X0123525Y0057
X0121525Y0057
X0121525Y0056
Y0055
Y0054
Y0053
X0120525Y0053
Y0054
Y0055
X0120525Y0056
X0119525
Y0055
X0118525
Y0056
Y0057
X0119525
Y0058
X0118525
X0117525
X0117525Y0057
X0116525
X0115525Y0057
X0114525
Y0056
X0115525
X0116525Y0056
Y0055
Y0054
Y0053
X0115525Y0053
X0115525Y0052
X0114525Y0052
X0113525
Y0051
Y005
Y0049
X0114525
Y005
X0115525Y005
X0116525
Y0049
Y0048
X0115525
X0115525Y0047
X0114025Y00467929
X0113525Y0048
X0114525
X0112525Y0048
Y0049
Y005
X0111525
Y0049
X0110525
X0110525Y005
Y0051
Y0052
X0111525
X0111525Y0051
X0112525
X0112525Y0052
Y0053
Y0054
Y0055
Y0056
X0113525
Y0055
Y0054
X0114525
Y0055
X0114525Y0053
X0113525
X0111525
X0110525Y0053
X0109525Y0053
X0109525Y0054
X0109525Y0055
Y0056
Y0057
Y0058
X0110525
X0111525
Y0057
X0110525
Y0056
Y0055
X0111525
Y0056
Y0054
X0108525Y0054
Y0055
Y0056
Y0057
Y0058
X0107525Y0058
X0106525
X0105525
Y0057
X0106525
X0107525Y0057
X0107525Y0056
Y0055
X0106525
Y0056
X0105525
Y0055
Y0054
X0106525
X0107525
Y0053
X0106525
X0105525
Y0052
Y0051
X0106525
Y005
X0107525
Y0049
Y0048
X0106525
X0105525
Y0049
Y005
X0104525Y005
Y0051
Y0052
X0103525Y0052
Y0051
Y005
Y0049
Y0048
X0104525
Y0047
X0106525Y0049
X0108525Y0049
Y0048
X0109525Y0048
Y0049
Y005
Y0051
Y0052
X0108525Y0052
Y0051
X0107525Y0051
X0107525Y0052
X0108525Y005
X0110525Y0048
X0111525
X0111525Y0047
X0115325Y0045225
X0117525Y0047
X0117525Y0048
X0118525
X0119525
X0119525Y0049
X0118525
X0117525
X0117525Y005
Y0051
X0116525Y0051
Y0052
X0117525Y0052
X0118525Y0052
X0119525
Y0051
X0118525Y0051
Y005
X0119525
X0120525Y0049
X0121525Y0049
X0121525Y005
X0122525
Y0049
X0123525
X0123525Y005
Y0048
X0122525
X0121525
X0118525Y0053
Y0054
X0119525
X0117525
X0117525Y0055
X0117525Y0056
X0116525Y0058
X0115525Y0058
X0114525
X0113525
X0112525Y0058
X0113525Y0057
X0115525Y0054
X0120525Y0058
X0124525
X0125525
X0126525Y0056
X0124525Y0053
X0135175Y005245
Y0051975
Y0051475
X0132525Y0058
X0127425Y0037025
X0127825Y00360593
X00992Y00369
Y003835
X009845
Y003935
X00992Y0039375
X0099225Y0040625
X009995Y003185
X0099575Y003145
X0099275Y003095
X0101775Y002725
X0102525Y0049
Y005
Y0051
Y0052
Y0053
Y0054
Y0055
Y0056
Y0057
Y0058
X0103525Y0058
Y0057
Y0056
Y0055
Y0054
Y0053
X0104525Y0053
Y0054
Y0055
Y0056
Y0057
Y0058
X00996Y0050075
X00977Y005235
X009695Y0052725
X009465Y005245
X009415
X009365
X009315
X009265
X009215
X009065Y0052
X009015Y005245
X008915
X0088625Y00529
X008785Y00535
X00869Y005445
X00862Y005305
X0086175Y0051925
X00868Y0052025
X00869Y0051525
Y0051025
X008615Y00507
Y004885
X00869Y0048525
Y0048025
X00862Y004765
X00844311Y0047844
Y0046696
X00838051Y0045095
X00829551
X00821301Y0046095
X00812801
X00804301Y0046095
X00795801Y0046095
X00787301Y0046095
X00786301Y004677
X00786301Y004777
X00787301Y0048445
X00778801
X00770301
X007765Y004985
X00778801Y0051105
X00787301
X00786301Y005178
X00786301Y005278
X00787301Y0053455
X00778801
X00770301
X007735Y005535
X007795
X00786Y005665
X0079175Y0056375
X008Y0057175
X0078499Y0057876
X007495Y0058275
X0074375
X007425Y0053825
X007455Y0053135
X007455Y0052585
X007455Y0051975
X007455Y0051425
X007435Y00505
X00743Y0048725
X007455Y0048125
X007455Y0047575
X007455Y0046965
X007455Y0046415
X0074225Y00458
X00770301Y0046095
X00778801
X0077375Y0043575
X0077525Y0043025
X0077Y004315
X00752Y00414
X00752Y00403
X00741
Y00414
X0071625Y0043875
X00696Y0043825
X0068525Y0044125
X006855Y00449
X006845Y004585
X006747Y0044754
X006552Y004473
X00648Y0044725
X0063205Y0045564
X006305Y0047825
X00617Y0047575
X00618Y00505
X0061275Y005035
X0061175Y005145
X0061725Y005135
X0062925Y0053725
X00624Y00548
X00588Y0055625
X0061875Y00587
X00661Y0058175
X0066725Y005705
X0069875Y005765
X00694Y0058125
X00770301Y0051105
X00795801Y0051105
X00804301Y0051105
X00812801
X00821301
X00829551Y0050105
Y0049445
X00838051
Y0050105
X00844311Y0051706
Y0052854
X00845Y0053375
X00838051Y0054455
X00829551
X00822927Y00548677
X0081525Y00541
X00812801Y0053455
X00821301
X00804301Y0053455
X00795801Y0053455
Y0048445
X00804301Y0048445
X00812801
X00821301
X008915Y004785
Y004735
X008965
X009065
X009165
X009265
X009365
X009465
X009415Y0046725
X009315
X009215
X009115
X009015
X008915
X008885Y0050025
X009015Y005105
X0090175Y005505
X00891Y0055125
X00893Y0056225
X00898
X00903Y0056975
X00908
X00913Y0056975
X00918
X00923Y0056975
X00928
X00933
X00921Y00565
X009215Y0055925
X0091275Y0055325
X00939045Y00553
X00939Y00548
X0095325Y0056
X009485Y00587
X009375
X009265
X009155
X009045
X008935
X008825
X00883Y0056975
X00888
X00881Y00563
X0084725Y00579
X0093475Y0050075
X0094725Y004925
X0094575Y0048525
X00969Y0047525
X0097375Y0047825
X0097525Y0047025
X0097225Y00453
X009745Y0044725
X0096575Y004465
X00935Y00426
X0092275Y00434
X0091675
X0090975Y0040425
Y00392
X0093125Y0039375
X0093125Y004035
X0095225Y003965
X0096325
X0096325Y003855
X0095225
X0094075Y00374
X00937Y00369
Y003635
X0093675Y00347
X0093175
X009205Y0034725
X0091525
X00915Y0033125
X00926Y003315
X009365
X00944Y00338
X009465Y0034675
X0095325
X009595Y003525
X0097025Y003605
X0097Y00344
X00915Y003635
X0092525Y003785
X0088975Y0041725
X0088275Y0042875
X00876
X008295Y00399
Y00387
X008035Y003935
X008135Y0041375
X0077425Y00387
X00769Y00382
X0077425Y003765
X0077925Y0036875
X0076225Y0035475
X00751Y00361
X007385Y0034575
Y0034
Y003345
X0075775Y00337
X00746Y003155
Y0030975
Y0030375
X0075175
X007645Y00305
Y0029475
X0079225Y002995
X007925Y0030525
X0078475Y0031925
X008035Y0033875
X00819Y0034525
X00825Y0034075
X008625Y0033425
X008575Y00294
X00862Y002865
X00863Y0027075
X008465Y002575
X008405Y002445
Y0023275
X0087
Y002375
X0085775Y00213
X0085275Y0019675
X0090125Y00206
X008955Y00257
X009Y0031175
X0078975Y0026875
X0079625Y002295
X0079875Y0022525
X007935
X0079425Y002065
X0076425Y002065
X00725Y0022375
X0071975Y0026275
X0071225Y0027925
X00712Y002845
X0068125Y002835
X006815Y002945
X00668Y0029475
X0066675Y0030375
X0067875Y0030725
X0067325Y0033775
X0065764Y003421
X0065164Y0034485
Y003506
X0065764Y0035335
X0064125Y003415
X0063725Y003675
X0063075
Y0036225
X0062425Y004045
X0063075Y0042694
X0059Y0043525
Y004575
X0058775Y003905
Y00384
X0068Y003825
X0068725Y00383
X0068Y003745
X006825Y00362
X0068825Y00362
X0069725Y0035275
X0070864Y0035285
X00703Y0034675
X007225Y0036225
X007375Y0027375
X006885Y0024425
X0066825Y002415
X00634Y0024275
X00623
X00612
X00612Y0025375
X00623Y0025375
X00634Y0025375
Y0023175
X00623Y0023175
X00612Y0023175
X00593Y0024775
X00592Y0028025
X006425Y0028875
Y002945
X006485Y0029725
Y00286
X0061975Y0031275
X00591Y00207
X008155Y002375
X0056825Y0022
X0054275Y0021025
X005375Y00207
X0054025Y0024775
X00547129Y00256267
X00561371Y00256233
X00563Y0025025
X0052375Y002465
X0052225Y002555
X0051525Y00256
X00509Y0026225
X00529201Y0029793
X00540701Y0029893
X00547701Y0028993
X00557788Y0030675
X00562788Y00306725
X00579788Y0030675
X00584788Y00306725
Y00325775
X00579788Y0032575
X00562788Y00325775
X00557788Y0032575
X00546Y0036575
X0053725Y0037175
X00562Y0038475
X0056575Y0038975
X0054475Y0043625
X0053525Y004345
X00531Y004265
X00544365Y00465795
X005545Y0045725
X005705Y00472
X00577
X00534295Y00475865
X0050675Y0047525
X0049525
X00501898Y00459584
X00513077Y0046268
X00498578Y00448055
X00486617Y0051466
X00483367Y0051791
X00476617
X00479866Y0051416
X0048Y005225
X0049Y00525
Y005195
X005085Y0053425
X0050775Y0054075
X005165Y00527
X00547Y0052975
X005535Y0053275
X0057425Y005335
X0055675Y0057125
X0055175Y00567
X0045825Y005695
Y005745
X004555Y0054
X004585Y00536
X00453Y0053225
X00450867Y00526945
X00455616
X00455867Y00521195
X00450867
X00451617Y0049991
X00435616Y00509695
X00430151
X00421116Y0051216
X00417395Y00506188
X0042075Y005025
X00413688Y0050141
X00410117Y00504981
X003905Y005095
X0039Y0051575
X0039725Y0051825
X0039Y0049575
X00386111Y00499639
X0037925Y0050075
X0037275Y00498
X00374973Y0049316
X0037492Y0048791
X00374866Y0048266
Y0047741
X00374866Y0047191
X0037478Y00466497
X003715Y0045825
X00369866Y0044491
X00360054Y004429
X0036879Y00431761
X0037212Y0042843
X0037878
X0038211Y00425101
X0037878Y00421771
X0038211Y00418441
X0038544Y00421771
X0038877Y00425101
X0039543
X003921Y00421771
X0038877Y00418441
X003921Y0042843
X0039876Y00421771
X0040209Y0040512
X0041208Y0040845
Y0040179
X0041541Y0039846
X0040875Y0039846
Y003918
X0040542Y0039513
X0041208Y0038847
X0040875Y0038514
X0041208Y0038181
X0041541Y0037848
X00404054Y0038265
X0038875Y003805
X0038375
X0037875
X0037375
X0036875
X0035875
X0034875
X0033875
X0033885Y003705
Y003605
X0034385
X0034885
X0035385
X0035885
Y003705
X0035385
X0034885
X0036885
X0037385
X0037885
X0038385
X0038885
Y003605
X0038385
X0037885
X0037385
X0036885
X0037212Y0034185
X0037878
X0038211Y0033852
X0038544Y0033519
X0038877Y0033186
X00394304Y003254
X0039543Y0033852
X003921Y0034185
X0038544
X0037878Y0033519
X0037545Y0033186
X0037212Y0033519
X0036546
Y0032853
X0036213Y0033186
Y003252
X0036095Y003203
X00360554Y00313554
X003555Y003025
X00343867Y0030666
X0034881Y003252
X0035214Y0032853
X0035547Y0033186
Y0033852
X003588Y0034185
Y0033519
X0036213Y0033852
X0036546Y0034185
X0037545Y0033852
X0037825Y0031875
X00390367Y0030691
X0038647Y00281
X0038025Y00281
X00369403Y00281
X00363097
X0037425Y0027525
X003755Y002655
X0037
X0037325Y0026025
X0036975Y00255
X00341Y002585
Y0026375
X00338089Y0025261
X00331089Y0025261
X00326339Y0026711
X00331339Y0027386
X00334866Y0028141
X00345Y00281
X0033882Y0032853
X0033549Y0033186
Y0033852
X0033216Y0034185
X0032883Y0033852
Y0033186
X0032217Y0033852
X00318839Y0034185
X00325499Y0034851
X0033882Y0034185
X0034215Y0033852
X0034875Y003385
X0034548Y0033519
X0034881Y0033186
X0034885Y003905
X0035385
X0035885
Y004005
X0035385
X0034885
X0033885
Y003905
X00325499Y0038847
X00322169Y0038514
X00325499Y0038181
X00322169Y0037848
X00318867Y0037516
X00312179Y0037515
X00308849Y0037848
X00315509Y003918
X00322169Y003918
X00325499Y0040179
X00318839Y0040179
X00318839Y0040845
X00322169Y0040512
Y00411781
X00315509
X00318839Y00415111
X00315509Y00418441
X00325499Y00421771
X00332159
Y0042843
X00335489Y00425101
X00338819Y0042843
X00342149Y00425101
X00338819Y00421771
X0034548
X0034881Y00425101
X0035214Y0042843
X0035547Y00425101
X0035214Y00421771
X0035547Y00418441
X0036213Y00418441
X0036546Y00421771
X0036879Y00425101
X0036546Y0042843
X0036213Y00425101
X0037545Y00418441
X0037385Y004005
X0037885
Y003905
X0037385
X0036885
Y004005
X0038385Y003955
Y003905
X0038885
Y003955
Y004005
X0041975Y0040275
X0041874Y0040845
X00416866Y0043391
X004Y00458
X00396367Y0045466
X00388Y00487
X00422366Y0048391
X004355Y004885
X004665Y0053075
X0039025Y0055025
X003785Y005635
X003745Y00568
X0035425Y005685
X003315Y0057
X0030325Y0057125
X00275Y00567
X0026575Y005645
X0023775Y0056475
X0026775Y0053775
X00272Y00499
X00268116Y0049491
X0026075Y00489
Y0048375
X00261839Y00465712
X00256889Y00460762
X00263776Y00447144
X00272085Y00445906
X00290493Y00446037
X00301243Y00445787
X00307367Y0045616
X00303116Y0046116
X00298367Y0047966
X003095Y0049175
X00313134Y00495383
X0032925Y0048775
X00329366Y00481713
X00329366Y0047666
X00329366Y0047141
X00342366Y0047441
X00342366Y0048041
Y0048566
X00356866Y0047716
X00362617Y0046741
X00337867Y0044141
X0034925Y004175
X00325499Y0041511
X00315509Y0040512
X00303367Y0039666
X00307617Y0042591
X00232196Y00415063
X00231433Y00405255
X0021986Y0039561
Y0038861
X0023436Y0038385
X0024111Y0038885
X00211634Y00415508
X00216584Y00420457
X00220926Y00474318
X00217926Y00485516
X00206676Y00488568
X00236Y004915
X002405
X0024275Y00499
X00248Y00499
X0024975Y00494
X0027925Y004925
X00329617Y0050291
X00334366
X003275Y005325
X00192Y00541
X0021986Y0033161
Y0032461
X00215315Y00307217
X00214077Y00298908
X00195509Y00296971
X00200459Y00292021
X00190899Y00252166
X00240764Y00251716
X00245714Y00246766
X00247658Y00265328
X00255966Y00266565
X00278848Y0026711
X00273848Y0027386
X00274089Y0025261
X00267089
X00253733Y00206565
X00248233Y00208065
X00242
X002365Y00206565
X00227Y00192255
X00271737Y0019191
X00319876Y00202333
X00319626Y00212333
X00331626
X00331376Y00202583
X00350367Y0020166
X00350429Y0020666
X00343741Y0021191
X00343616Y0021691
X00356679Y0021716
Y0021241
X00367867Y0020691
Y0020216
X00372867Y0019691
X00362867Y0019591
X00362929Y00190973
X00377366Y0021916
X00377179Y0022416
X00426169Y00226847
X00425919Y00216847
X00425883Y00206655
X00431383Y00208155
X00437617
X00443117Y00206655
X00437919Y00216847
X00437669Y00226597
X00449617Y00192345
X00474095Y00191117
X0048875Y0020825
X0058675Y001985
X0040574Y0036215
X00397554Y0035415
X00392554
X0024111Y0033136
X0023436Y0033636
X00176328Y00373331
X00166578Y00373581
X00160405Y00375133
X00160405Y00381367
X00158905Y00386867
X001715Y0038525
X00158905Y00369633
X00112095
X00110595Y00375133
X00110595Y00381367
X00112095Y00386867
X00126095Y00396367
X0012225Y0044125
X00122Y004495
X0011375
X0014225
Y0044125
X0015125Y004495
X00170719Y00478472
X00175306Y00482665
X00175339Y00496906
X0016525Y0050275
X001705Y00534
X0017375Y00558
X001775Y005615
X0018375Y0054875
X00138Y0056125
Y0057125
X001305Y0056625
Y0055625
X00105758Y00533508
X000715Y0054625
Y0055125
Y0055625
X00048Y00549251
X000345
X00021
X000075
X0001425Y00540251
X0002775
X0004125
X000345Y00531251
X00021
X000075
X0001425Y00522251
X0002775
X0004125
X00048Y00531251
Y00513251
X000345
X00021
X000075
X0001425Y00504251
X0002775
X0004125
X00048Y00495251
X000345
X00021
X000075
X0001425Y00486251
X0002775
X0004125
X000345Y00477251
X00021
X000075
X0001425Y00468251
X0002775
X0004125
X00048Y00477251
Y00459251
X000345
X00021
X000075
X0001425Y00450251
X0002775
X0004125
X00048Y00441251
X000345
X00021
X000075
X0001425Y00432251
X0002775
X0004125
X000345Y00423251
X00021
X000075
X0001425Y00414251
X0002775
X0004125
X00048Y00423251
Y00405251
X000345
X00021
X000075
X0001425Y00396251
X0002775
X0004125
X00048Y00387251
X000345
X00021
X000075
X0001425Y00378251
X0002775
X0004125
X000345Y00369251
X00021
X000075
X0001425Y00360251
X0002775
X0004125
X00048Y00369251
Y00351251
X000345
X00021
X000075
X0001425Y00342251
X0002775
X0004125
X00048Y00333251
X000345
X00021
X000075
X0001425Y0032425
X0002775
X0004125
X000345Y0031525
X00021
X000075
X0001425Y0030625
X0002775
X0004125
X00048Y0031525
Y0029725
X000345
X00021
X000075
X0001425Y0028825
X0002775
X0004125
X000345Y0027925
X00021
X000075
X0001425Y0027025
X0002775
X0004125
X00048Y0027925
Y0026125
X000345
X00021
X000075
X0001425Y0025225
X0002775
X0004125
X000345Y0024325
X00021
X000075
X0001425Y0023425
X0002775
X0004125
X00048Y0024325
Y0022525
X000345
X00021
X000075
X0001425Y0021625
X0002775
X0004125
X00048Y0020725
X000345
X00021
X000075
X0001425Y0019825
X0002775
X0004125
X00148Y00198
X00154467Y00206509
X001545Y0022075
X00154717Y00226259
X0015275Y002445
X00159905Y00262633
X00161405Y00268133
Y00274367
X00159905Y00279867
X0014Y00296
X001325
X00127095Y00289367
X00113095Y00279867
X00111595Y00274367
Y00268133
X00113095Y00262633
X001775Y0024725
X0018375Y0025325
X0014044Y0034125
X00129Y004945
X00110758Y00585492
X00094757Y00576243
X0004125Y00576251
X0002775
X0001425
X00021Y00585251
X000075
Y00567251
X00021
X000345
X00048
X0004125Y00558251
X0002775
X0001425
X000345Y00585251
X00048
X0004125Y00594251
X0002775
X0001425
X00021Y00603251
X000345
X00048
X0004125Y00612252
X0002775
X0001425
X00021Y00621251
X000345
X00048
X0004125Y00630252
X0002775
X0001425
X00021Y00639252
X000345
X00048
X0004125Y00648252
X0002775
X0001425
X000075Y00657252
X00021
X000345
X00048
X0004125Y00666252
X0002775
X0001425
X000075Y00675252
X00021
X000345
X00048
X0004125Y00684252
X0002775
X0001425
X00021Y00693252
X000075
X0001425Y00702252
X0002775
X0004125
X000345Y00693252
X00048
Y00711252
X000345
X00021
X000075
X0001425Y00720252
X0002775
X0004125
X000345Y00729252
X00021
X000075
X0001425Y00738252
X0002775
X0004125
X000345Y00747252
X00021
X000075
X0001425Y00756252
X0002775
X0004125
X00048Y00747252
Y00765252
X000345
X00021
X000075
X0001425Y00774252
X0002775
X0004125
X00048Y00783252
X000345
X00021
X000075
X0001425Y00792252
X0002775
X0004125
X000345Y00801252
X00021
X000075
X0001425Y00810252
X0002775
X0004125
X00048Y00801252
Y00819252
X000345
X00021
X000075
X0001425Y00828252
X0002775
X0004125
X000345Y00837252
X00021
X000075
X00048
X00113017Y00842476
Y00860975
X00122516Y00875286
X00128017Y00876786
X0013425
X0013975Y00875286
Y00828476
X0013425Y00826976
X00128017
X00122516Y00828476
X00164846Y00849904
X00179968Y00807537
X0017692Y00796179
X00179121Y00766233
X00185Y0075925
X00164879Y00766267
X00134617Y00758655
X00129117Y00760155
X00122883
X00117383Y00758655
X00107883Y00744655
Y00726155
X00117383Y00711845
X00122883Y00710345
X0011575Y0068625
X00100765
X00094757Y00685743
X000715Y0067575
Y0066575
Y0066075
Y0065575
X0007225Y0061725
Y0060975
X00069Y0060075
X00084Y005955
X000975Y0060175
X001035Y0060325
X00108Y0060075
X0010075Y0059025
X0011675Y00589
X0012775
X001435Y0059625
X0014325Y006295
X001315Y0064025
X00123
X0011075Y0063975
X001075Y006345
X00105Y00625
X000995Y00625
X001305Y0066075
Y0067075
X00138Y0066575
Y0065575
X001485Y0065695
X001535Y00656925
X001695Y006555
Y006505
X00172757Y0062925
X00172879Y0062175
X00181507Y0059875
X00186879Y00643371
X001535Y00676025
X001485Y00676
X00156Y007265
X00048Y00729252
X0017725Y0090125
X0018725Y009015
X00187Y00913
X0017725Y0091325
X00187Y00964
X0015075Y00965
X0015125Y009565
X00220126Y00953981
Y00946981
X00234627Y00942221
X00241376Y00947221
X002317Y00963625
X00232462Y00973434
X00211901Y00973878
X00216851Y00978828
X00220126Y00889981
Y00882981
X00215581Y00865588
X00214344Y00857279
X00200725Y00850392
X00195776Y00855341
X00191166Y00810537
X0024103Y00810087
X0024598Y00805137
X00247925Y00823698
X00256233Y00824936
X00279115Y00825481
X00274115Y00832231
X00274356Y00810981
X00267356
X00258867Y00767686
X00253367Y00769186
X00247133
X00241633Y00767686
X00232133Y00753376
X00218538Y00761025
X00213538Y00761
Y00742
X00218538Y00741975
X0023225Y007235
X0026375Y00719031
X0027175Y00753031
X00326Y007595
X003315Y0076725
X0032575Y0077675
X00343883Y00775281
X00344008Y00770281
X00350696Y00765031
X00350633Y00760031
X00356946Y00770781
Y00775531
X00368133Y00765281
Y00760531
X00373633Y00758281
X00363133Y00754281
X00363196Y00749344
X0035225Y00719
Y00714
X0033575Y0072025
X0035075Y0068175
X00380179Y00682179
Y00692179
X0037675Y00701
X003705Y0069675
X0038575Y00677179
X00413Y00693
X0043225Y00696
X004365Y007
X00438Y006705
X0042975Y00656
X0043125Y00648
X0045325
X00468Y006295
X00468Y006185
X00479
Y006075
X00468Y006075
X0049
X0049Y006185
X0049Y006295
X00479Y006295
X0047825Y0065925
X00481Y006925
X0048525Y0069625
X004915Y00687
X00501677Y00688573
X0052025Y0067225
X0050275Y00646
X0052775Y0062575
X0052075Y0061775
X0051075Y006005
X0054925Y006295
X0056475Y006315
Y00637
X00573625Y00653875
X00562179Y00682179
Y00692179
X0055425Y006985
X00547Y0071075
Y007155
X005645Y0071625
X0057675Y007165
X00582
X0057425Y0070075
X00542654Y00743154
X0050725Y0072825
X00487Y00728
X0047175Y0073875
X00465Y0073775
X0045975Y007425
X00453883Y00764062
X004445Y00766686
X00439Y00768186
X00432767
X00427267Y00766686
X00439Y007785
X004885Y00766
X0052675Y0080725
Y00815
X00532379Y00802267
X00546621
X00554Y0078575
X00556Y007805
X00547967Y008483
X00540968Y008573
X00529468Y008563
X0056025Y0085875
X00568
X00578Y0084725
X00586914Y00897866
X00555582Y00922791
X00545832Y00922791
Y00936291
X00555832Y00936041
X00415677Y00936851
X00412347Y00940181
X00409017Y00943511
Y00950171
Y00956831
X00415677Y00956831
X0041875Y009535
X00412347Y00946841
X00405687Y00953501
X00402357Y00963491
X00412347Y00966821
X00419007
X00412347Y00960161
X00389117Y00958871
Y00953871
X00384117
Y00948871
X00389117
X00379117
X00374117
X00369117
Y00958871
X00374117
X00379117
X00359117
X00354117
X00349117
Y00948871
X00354117
X00359117
X00359017Y00938871
X00349017
X00339017
X00339117Y00928871
Y00918871
X00344117
X00349117
X00354117
X00359117
Y00928871
X00354117
X00349117
X00369117
X00374117
X00379117
X00384117
X00389117
Y00918871
X00384117
X00379117
X00374117
X00369117
X00369017Y00938871
X00374017
X00379017
X00384017
X00389017
X0040432Y00941021
X00406007Y00920521
X0039782Y00912521
X0039282
X00392367Y00900221
X00395697Y00896891
X00385707Y00900221
Y00893561
X00382377Y00896891
X00379047Y00900221
X00372387
X00369141Y00896891
X00372387Y00893561
X00365727
X00359066
X00355736Y00896891
X00352406Y00893561
X00345746
X00349076Y00890231
X00355736
X00352406Y00886901
X00349076Y00883571
X00362397
X00361217Y00878671
X0036082Y00871924
X00363395Y00860146
X00359121Y00851
X00363621Y008465
X00379Y00847
X0037927Y0085852
X0037875Y00868
X00390633Y00865281
X0039375Y00858129
X0038925Y00853629
X0039457Y00883771
X00389037Y00890231
X00379047Y00893561
Y00886901
X00375717Y00890231
Y00896891
X00365727Y00900221
X00359066
X00362397Y00890231
X00365727Y00886901
X00339086Y00886901
X00335756Y00890231
Y00896891
X00342416
X00339086Y00900221
X00332426Y00900221
X00329096Y00896891
Y00890231
X00322436Y00896891
X00319106Y00900221
X00325766Y00906881
X00319133Y00933531
X00322436Y00936851
X00325766Y00940181
X00322436Y00943511
X00325766Y00946841
X00322436Y00950171
X00315776Y00950171
X00319106Y00960161
X00325766Y00960161
X00322436Y00963491
X00319106Y00966821
X00322436Y00970151
X00325766Y00973481
X00325766Y00980141
X00332426
X00335756Y00983471
X00342416
X00339086Y00980141
X00345746
X00349076Y00983471
X00355736Y00983471
X00352406Y00980141
X00355736Y00976811
X00362396Y00976811
X00362396Y00983471
X00369056
X00365726Y00980141
X00375716Y00976811
X00382377Y00976811
X00385706Y00980141
X00389036Y00983471
X00382377
X00379047Y00980141
X00392367
X00395696Y00983471
X00399027Y00980141
X00389036Y00976811
X00339117Y00958871
Y00948871
X00315776Y00963491
X00315776Y00970151
X00319106Y00973481
X00315776Y00976811
X00307883Y00984281
X00303633Y00955031
X00309116Y00936851
X00312446Y00933521
X00344133Y00865031
X0033775Y0083625
X00331606Y00832231
X00326606Y00825481
X00341Y0082175
Y0081625
X00338356Y00810981
X00331356Y00810981
X00377446Y00782531
X00377633Y00777531
X00414719Y00726281
X00405Y00632
Y0062675
X003875
Y00632
X003745Y006205
X0038075Y0061225
X00387525Y00606348
X0038755Y00600652
X00405
X00405025Y00606348
X0034875Y0059925
X00342073Y0059775
X00308Y006075
X00297Y006075
Y006185
X00286
X00286Y006295
X00297Y006295
X00308Y006295
X00308Y006185
X00286Y006075
X002725Y00592
X00217008Y0059875
X00207879Y0060825
Y0061675
Y0062525
X00199379Y0062525
X00190879Y0062525
X00190879Y0061675
X00199379
Y0060825
X00190879
X00191879Y00643371
X00196879
X00217008Y0063475
X00225879Y0061675
X0024225Y0066925
X002635Y006695
X002765Y006705
X002965Y0066
X0029975Y006905
X00327Y0067375
X0034975Y0063575
X0020725Y006815
Y00687
X00234627Y00894731
X00241377Y00889731
X005105Y008265
X00589Y008585
X0061625Y0086675
X006265Y00861
X0062375Y008525
X0062525Y008475
X0062375Y008425
X0063175Y0080575
X00638Y0080575
X006475Y0080225
X00652Y0080475
X0066725Y008
X006744Y007979
X0068575Y00805
X00695Y0083325
X0069475Y008385
X0068925Y00843
X0070025Y0086125
X0071225Y0087325
X00728Y008735
X00736
X007425Y0087375
X00751Y0087675
X0076025Y00884
X0077325Y00875
X0079325Y008765
X0079825Y008695
X008235Y0085925
X0083175Y008515
X008295Y008355
X00828801Y0079555
X00837301
X00843561Y0077954
Y0076806
X0086125Y0077
X0086825Y0076625
Y0076125
X0086075Y00758
X008545Y0075325
X00837301Y0075205
Y0074545
X00828801
Y0075205
X00820551Y0076205
X00812051
X00803551
X00795051Y0076205
X00786551Y0076205
X00785551Y007688
X00785551Y007788
X00786551Y0078555
X0079025Y0078975
X00795051Y0078555
X00803551Y0078555
X00812051Y0078555
X00820551
X0080975Y0081125
X0079175Y008225
X00783Y0082075
X00759Y0083325
X0076195Y008385
X00761Y00851
X0075125Y008325
X0074575
Y0082655
X00751Y008265
X0073925Y0084325
X00733472Y00843
X00734Y00866
X0073825Y0089
X0074375
X00741Y0089475
X00735
X0075025Y0091725
X00744Y009345
X00739Y009365
X0073275Y0093675
X0074425Y0094425
X007455Y009605
X0073525Y00963
Y00973
X0075975Y0097175
Y009665
Y009775
X0078125Y0097725
X007865Y0097375
Y00968
X0078075Y009515
X007725Y0092575
X0072675Y00951
X0070975Y00975
X0069875
X0064275Y0096525
X006315Y009695
X0065625Y00951
X0066675Y00933
X00672
X006695Y009105
X00664Y00911
X0066225Y0091675
X00646Y0091975
X0065Y009015
X0064075Y0090175
X0063225
X0065625Y0089
X0066375
X0067Y008955
X00651Y008825
X0063045Y007773
X0062825Y00772
X00628Y0076675
X0063Y0075125
X0063Y0074475
X0062125Y0074175
X0058925Y007315
X0058975Y0075825
X005875Y0077175
X0059525Y00779
X005885Y0066075
X00624Y006565
X0062825Y0066125
X00597Y00629
X006395Y0060625
X006465Y005985
X0065925Y006
X007095Y0062325
X007145
X0073225
X0074075
Y0061475
X0073225Y0061475
Y0063175
X0074075
X0074925
Y0062325
Y0061475
X007475Y0059425
X00774Y0061975
X007715Y006275
X0078525Y00629
X00785239Y0066749
X0080025Y0067425
X0079225Y006825
X00795051Y0071195
X00803551Y0071195
X00812051Y0071195
X00820551
X00815323Y00705427
X00823Y0069775
X00828051Y0070245
X0083375Y00698
X00839
X0085175Y0070725
X0085825Y007185
X0086125Y007275
X0086825Y0073125
Y0073625
X0086075Y007395
X00843561Y0072944
Y0071796
X00820551Y0073545
X00812051
X00803551
X00795051Y0073545
X00786551Y0073545
X00785551Y007287
X00785551Y007187
X00786551Y0071195
X00778051
Y0073545
X00769551
Y0076205
X00778051
Y0078555
X0074725Y00789
X0074475Y0078235
X0074475Y0077685
X0074475Y0077075
X0074475Y0076525
X0074475Y0073225
X0074475Y0072675
X0074475Y0072065
X0074475Y0071515
X0075375Y0069525
X007575Y0069775
X0075175Y006725
X0074075Y006545
Y006495
X00694Y0066525
X0069875Y0067
X0072525Y00799
X0073
X00857625Y00800125
X00859Y0081375
X008585Y0082025
X00858Y008685
X00848772Y00881522
X0085075Y008945
X008455
X009051Y00895
X009051Y009079
X009035Y0092275
X00904Y0093525
X00897Y009325
X0090675Y00947
X00909618Y00952618
X0090975Y009695
X00897Y00972
X0088Y0095175
X008565Y0097875
X0084975Y0098175
X0082725Y00968
X00811Y0098175
X00805Y0098325
X009545Y009835
X00961Y009775
X009665Y009795
X0093275Y0095875
X0094425Y009395
X009555Y008997
X00939Y0083925
Y0082675
Y0081425
X0095075Y00809
X0094075Y0077925
X0093075
X0092075
X0091075
X0090075
X0089075
X0089575Y00773
X0091575
X0092575
X0093575
X0094575
X0096825Y0077625
X009745Y0077125
X00981Y0075775
X009745Y0072125
X0096825Y0072625
X00921Y0072325
X0092075Y0071825
X0091075
X00907Y0072475
X0091575Y007245
X0089125Y00723
X0089575Y0071825
X0089075Y0069875
X00893Y00691
X00898
X0090575Y006925
X0090075Y0069875
X0093075
X0094075
X0093575Y006925
X0094575
X00948Y006785
X00948Y0067025
X00938
Y006785
X00928Y0067875
Y0067025
X00918Y0067875
X00913
X00908Y0067025
X00903
X00888
X00883
X0087525Y0067525
X0086575Y00694
X00862Y0069025
X0085775Y006525
Y006475
X0086525Y006425
Y006375
X0085775Y006325
Y006275
X0086525Y006225
Y006175
Y006125
X0085775Y006025
Y005975
X0086525Y005925
Y005875
X008465Y005955
X008455Y006075
X0084475Y006315
X0083525Y0063225
Y0063675
Y0064175
X008825Y00642
Y00631
Y0062
Y00609
Y00598
X008935
Y00609
Y0062
Y00631
Y00642
Y00653
X008825
X009045
Y00642
Y00631
Y0062
Y00609
Y00598
X009155
X009265
Y00609
X009155
Y0062
Y00631
X009265
Y0062
X009375
Y00631
Y00642
X009265
X009155
Y00653
X009265
X009375
X009485
Y00642
Y00631
Y0062
Y00609
X009375
Y00598
X009485
X0096575Y006075
Y006225
Y006275
X00975455Y006425
X009755Y006475
X00966Y006675
X0095675
X0092575Y006925
X0090575Y00802
X00902Y00814
X009051Y0083525
X009051Y0084815
X0092675Y00847
X0088675Y008567
X00886Y0079695
X00886Y0079175
X008665Y0077875
X0097975Y0082375
X0081975Y005915
X0080175Y00606
X0079775Y0060225
X0102525Y006
Y0061
X0102525Y0062
X0103525Y0062
Y0061
Y006
Y0059
X0104525Y0059
Y006
Y0061
Y0062
Y0063
Y0064
Y0065
Y0066
Y0067
Y0068
Y0069
Y007
X0104525Y0071
Y0072
Y0073
X0104525Y0074
Y0075
Y0076
Y0077
X0103525Y0077
Y0076
Y0075
Y0074
X0103525Y0073
Y0072
Y0071
X0103525Y007
Y0069
Y0068
Y0067
Y0066
Y0065
Y0064
Y0063
X0102525
Y0064
Y0065
Y0066
Y0067
Y0068
Y0069
Y007
X0102525Y0071
Y0072
Y0073
X0102525Y0074
Y0075
Y0076
X0105525Y0075
Y0074
X0105525Y0073
X0106525
X0107525
Y0072
X0106525
X0105525
Y0071
X0105525Y007
X0106525
X0107525
Y0069
X0106525
X0105525
Y0068
Y0067
X0106525
X0107525
Y0066
X0106525
X0105525
Y0065
Y0064
X0106525
X0107525
Y0065
X0106525
Y0063
X0107525
Y0062
Y0061
X0106525
Y0062
X0105525
Y0061
Y006
X0106525
X0107525
Y0059
X0106525
X0105525
X0108525Y0059
Y006
Y0061
Y0062
Y0063
Y0064
Y0065
Y0066
Y0067
Y0068
Y0069
Y007
X0108525Y0071
Y0072
Y0073
X0108525Y0074
Y0075
Y0076
Y0077
X0109525
X0110525
X0110525Y0076
X0111525
Y0075
X0110525
Y0074
X0111525
X0111525Y0073
X0110525
X0109525
Y0072
X0110525
X0111525
Y0071
X0110525
X0110525Y007
X0111525
Y0069
X0110525
X0109525
Y007
X0109525Y0071
X0107525
X0106525
X0106525Y0068
X0107525
X0109525
Y0067
X0110525
X0111525
Y0066
X0110525
X0109525
Y0065
Y0064
X0110525
X0111525
Y0065
X0110525
Y0063
X0111525
Y0062
Y0061
X0110525
Y0062
X0109525
X0109525Y0061
Y006
X0110525
X0111525
Y0059
X0110525
X0109525
X0112525Y0059
Y006
Y0061
Y0062
Y0063
Y0064
Y0065
Y0066
Y0067
Y0068
Y0069
Y007
X0112525Y0071
Y0072
Y0073
X0112525Y0074
X0113525Y0074
X0113525Y0073
X0114525
X0115525
Y0074
X0114525
X0114525Y0075
X0114525Y0076
X0115525
X0115525Y0075
X0117525
X0118525
Y0076
X0117525
X0117525Y0077
X0116025Y00772071
X0116525Y007605
X0114525Y0077
X0113525
X0112525
Y0076
X0113525Y0076
X0113525Y0075
X0113525Y0072
X0114525
Y0071
X0114525Y007
X0115525
Y0071
X0116525Y0071
Y007
X0117525Y007
X0118525
X0119525
Y0069
X0118525
X0117525Y0069
Y0068
X0117525Y0067
X0118525
Y0066
X0119525
Y0065
Y0064
X0118525
Y0065
X0117525
Y0066
X0116525Y0066
Y0067
X0115525Y0067
X0114525
X0113525
Y0066
X0114525
X0115525
Y0065
X0116525Y0065
X0114525Y0064
X0113525
Y0065
Y0063
Y0061
Y006
X0114525
Y0059
X0115525
X0113525
X0117525
X0119525
Y006
X0118525
Y0061
X0119525
Y0062
X0118525
X0117525Y0063
X0119525
X0120525Y0063
Y0062
X0121525Y0062
Y0061
X0121525Y006
X0122525
Y0059
X0121525
X0120525Y0059
X0120525Y006
X0123525
Y0059
X0124525
X0125525Y0059
X0126525Y0059
Y006
X0125525Y006
X0124525Y006
X0124525Y0061
X0123525Y0061
Y0062
X0122525
Y0063
X0123525
Y0064
X0122525
Y0065
X0123525
Y0066
X0122525
X0121525
Y0065
Y0064
Y0063
X0120525Y0064
Y0065
Y0066
X0119525Y0067
X0119525Y0068
X0120525Y0068
X0121525
X0122525
X0122525Y0069
X0123525
Y007
X0122525
Y0071
X0121525
X0121525Y007
Y0069
X0120525Y0069
Y007
X0120525Y0071
Y0072
Y0073
X0120525Y0074
Y0075
Y0076
X0119525Y0076
Y0077
Y0075
Y0074
X0118525
X0117525
X0117525Y0073
Y0072
X0118525
Y0071
X0117525
X0116525Y0072
X0119525
Y0073
X0121525
X0122525
X0122525Y0074
X0121525
Y0075
X0122525
Y0076
X0121525
Y0077
X0122525Y0077
X0123525
X0124525
Y0076
Y0075
Y0074
X0124525Y0073
Y0072
Y0071
Y007
Y0069
X0124525Y0068
X0125525
X0126525
Y0069
X0127525
Y007
X0126525
Y0071
X0127525
X0128525Y0071
X0128525Y007
X0129525Y007
X0129525Y0069
X0128525
X0128525Y0068
X0127525Y0068
X0127525Y0067
X0126525
X0125525
X0125525Y0066
X0126525
Y0065
Y0064
X0127525
Y0065
X0128525Y0065
X0128525Y0064
X0129525Y0064
X0130525Y0065
X0131525
Y0066
X0132525
X0131525Y0067
X0131525Y0068
X0130525Y0068
X0131525Y0069
X0131525Y007
X0131525Y0071
X0131525Y0072
X0130525
X0129525Y0072
X0128525
Y0073
X0128525Y0074
Y0075
Y0076
Y0077
X0127525
X0126525
X0126525Y0076
X0125525
Y0075
X0126525
X0127525
Y0076
X0129525
X0130525
X0131525
Y0077
X0130525
X0129525Y0077
Y0075
X0130525
X0131525
Y0074
Y0073
X0129525
X0129525Y0074
X0130525
X0127525
X0126525
X0126525Y0073
X0125525
X0125525Y0074
X0123525
Y0075
Y0076
X0123525Y0073
Y0072
Y0071
X0122525Y0072
X0121525
X0125525Y0071
Y007
X0123525Y0068
X0123525Y0067
X0122525
X0121525
X0124525Y0067
X0124525Y0066
Y0065
Y0064
Y0063
X0125525Y0063
Y0062
X0126525Y0062
Y0063
X0127525
Y0062
Y0061
X0126525
X0127525Y006
X0127525Y0059
X0128525Y0059
X0129525
X0130525
X0131525Y0059
Y006
X0132525
X0132525Y0061
X0131525
X0130525Y0061
X0129525
Y0062
X0128525Y0062
Y0061
Y006
X0129525Y006
X0131525Y0062
X0132525Y0059
X0129525Y0066
X0129525Y0067
X0128525Y0066
X0125525Y0065
Y0064
X0129525Y0071
X0132525
X0132525Y0069
X013555Y0071025
X0132525Y0075
Y0076
X0132225Y0080625
X0133025
X0132225Y0081425
X0131425Y0080625
X0130625
X0129425Y00804593
X0129825Y0081425
Y0082225
X0129025Y0082225
X0129025Y0081425
X0127425
X0126625
X0125825
X0125025
X0124225
X0123425
X0122625
X0121825
X0121025
X0120225
X0120225Y0082225
X0121025
X0121825
X0122625
X0123425
X0124225
X0125025
X0125825
X0126625
X0127425
X0127825Y00804593
X0126225
X0125425
X0124625
X0123825
X0123025
X0122225
X0121425
X0120625
X0118875Y0079875
Y0081375
Y0082375
Y0083375
Y0084775
Y0085775
Y0086775
Y0087775
X0120225Y0087825
Y0087025
X0121025
Y0086225
X0120225
X0121825
Y0087025
X0122625
X0123425
Y0086225
X0122625
Y0087825
X0123425
X0124225
X0125025
X0125825
Y0087025
X0126625
Y0086225
X0125825
X0125025
Y0087025
X0124225
Y0086225
X0127425
Y0087025
Y0087825
X0129025
X0129825
X0129825Y0087025
X0130625Y0087025
X0131425Y0087825
X0132225
X0133025
X01346Y0088775
X01344876Y00893
X0135075Y00893
X01356Y00896
X0137275Y0090075
X013685Y0093025
X013645Y0094825
X013645Y00953
X013645Y00958
X01376Y00952
X0138075
X013495Y0094425
X0134525Y0094025
X0131Y009555
X0127925Y009315
X01274Y00929
Y009345
X0125825Y009395
X012325Y0093175
X0122625
X0122925Y0092675
X0121625Y009125
X0120975
X0121275Y009075
X011935Y0089275
X011885
X011835
X011785Y0089275
X011735Y0089275
X011685
X011635
X011585Y0089275
X0114525Y00879657
X0113725Y00879657
X0112925Y00879657
X0111725Y00878
X0110925
Y0087
X0110925Y00862
X0111725Y0087
X0109325
Y00862
X0109325Y00854
X0108525Y0087
X0107725
Y00862
X0106925
Y0087
X0106125
X0105325
Y00862
X0104525
Y0087
X0103725
Y00862
X0102925
Y0087
X0102125
Y00878
X0102925
X0103725
X0104525
X0105325
X0106125
X0106925
X0107725
X0109325
X0110175Y00897
X0112125Y0090675
X0111075Y0092975
X0108925Y0093525
X0108675Y0094225
X0109425Y0094025
X0108725Y00918
X0108175
X0106875Y0089625
X0106375Y00897
X01053Y0092975
X0105425Y0093625
X0104475Y0093725
X01046Y009445
X01023Y0092725
X0101925Y00931
X0102925Y00921
X01002Y009275
X010005Y0094625
X010055
X009985Y0096
X00996Y009795
X0099075
X010085Y009815
X01008Y009035
X0100175Y008615
X0102125Y00854
X0102125Y00822
Y00814
X0102925
Y00822
X0103725
Y00814
Y00806
X0102925
X0102125
X0104525
X0105325
X0106125
X0106925
X0107725
Y00814
Y00822
X0106925
Y00814
X0106125
Y00822
X0105325
Y00814
X0104525
X01054Y0079
X0106525Y0077
X0106525Y0076
X0107525
Y0077
X0106525Y0075
Y0074
X0107525
X0109525
Y0075
Y0076
X0111525Y0077
X0111325Y00804343
X0112125Y00804343
X0112925Y00804343
X0113725Y00804343
X0114525Y00804343
X01150907Y00818
X0117525Y0081875
X0117525Y0080875
Y0082875
Y0084275
Y0085275
X0117525Y0086275
X0117525Y0087275
X0121825Y0087825
X01268Y0089775
X01275
X012765Y0089275
X0129025Y0087025
X013475Y0084925
X013545
X0136Y008495
X01367
X0137025Y00845
X013575
X0134475
X0134825Y0078675
X0125525Y0077
X0127525Y0073
X0115525Y0069
Y0068
X0114525
X0113525
Y0069
Y007
X0113525Y0071
X0114525Y0069
X0116525Y0068
X0111525Y0068
X0110525
X0109525Y0063
X0105525
X0115525
X0116525Y0062
X0115525Y0061
X0116525Y006
X0117525Y0061
X0114525Y0062
X0110925Y00814
Y00822
X0110125
Y00814
X0109325
Y00822
X0108525
Y00814
X0109325Y00806
X0106525Y00852343
X0098475Y008305
X0111275Y0096975
X011355Y009555
X0114025Y009575
X0114525Y009575
X0118Y0095775
X01193Y0095225
X0121175Y009455
X013855Y00952
X013935Y0096025
X01404
X0139875Y0096575
X0140275Y0092675
X01398Y00898
X0142375Y0088425
X01447Y008865
X0146225Y0089225
X014695Y009005
X0147225Y0088375
X0147775Y0086125
X01484
X0149025Y00861
Y0086725
Y0087325
X014905Y009005
X0148725Y0093175
X014746
X0149995
X014936Y009475
X0153Y0094525
X0153475Y0095525
X01535Y009295
X015245Y0093225
X0151875Y0092275
X0150875Y0085805
Y0084535
Y0083265
Y0081995
Y0080725
X0152225Y0081055
X0153425
X0152925Y008018
Y008195
X0149125Y00825
X01491Y008135
X0148175Y00819
X0148125Y0082825
X0147325Y0083625
X0146475Y0083625
X0145625Y0083625
Y0084825
X0146475Y0084825
X0147325Y0084825
X014735Y00817
X0146825
X014635
X0145825
X0144775Y007975
X0144775Y0079225
X0147825Y007915
X0149575
X01487Y008025
X01495125Y008365
X0143625Y00855
X0141225Y0085775
X0143875Y0075775
X01447
X01439Y007495
X0143475Y0074575
X01478
X01475Y0073175
X0147975Y007215
X0148625
X014925
X0149575Y00746
X01569Y007475
Y007525
Y007425
Y007375
Y007175
Y007125
Y007075
Y007025
X0157Y00685
X01569Y006675
Y006625
Y006575
Y006525
X01571Y00635
X0157Y006175
Y006125
Y006075
Y006025
X01594
Y006075
Y006125
Y006175
X01593Y00635
X01593Y006525
Y006575
Y006625
Y006675
X01592Y00685
X01593Y007025
Y007075
Y007125
Y007175
Y007375
Y007425
Y007475
Y007525
X01648Y00756
X01654Y0073125
X01679Y0074975
X0166875Y0076725
X0169025
X0170375Y00743
Y0073025
Y007175
X0170375Y0070475
X0170225Y006995
X0169375Y00687
X0170025Y006715
X0170175Y00662
X0169375
X01686Y00662
X01678Y0066475
X0166175Y00662
Y00654
X0166175Y00646
Y00638
X0166975
Y00646
X0166975Y0063
X0167775
Y00622
X0168575
Y0063
X0168575Y00638
X0169375Y00638
Y00646
X0170175
Y00638
X0170975Y00638
Y00646
X0171775
Y00638
X0171775Y0063
X0171775Y00622
X0172575
X0173375
Y0063
X0173375Y00638
Y00646
X0172575
X0172575Y00654
X0173375
Y00662
X0172575
X0171775
X0170975
Y00654
X0171775
X0170175Y00654
X0169375
Y0063
Y00622
X0170175
Y0063
X0170975Y0063
Y00622
X0170975Y00614
Y00606
X0171775
X0171775Y00614
X0172575Y00606
X0173375
X01743407Y0061
X0172575Y0059
X0171775Y0059
X0170975
Y00598
X0171775
X0170175Y00598
X0170175Y0059
X0169375Y0059
Y00598
X0168575Y00598
X0167775
Y0059
X0168575
X0166975
Y00598
X0166175
X01652093Y00602
X01643Y0059475
X0163825Y0059525
X0166975Y00606
Y00614
X0166175
X0166175Y00622
Y0063
X0166975Y00622
X0167775Y00614
X0168575
Y00606
X0167775
X0169375Y00606
Y00614
X0170175Y00606
X0174175Y00654
Y00662
X01735Y0067875
X017375Y0069925
X017425
X0175775Y0068325
X0176675Y0067375
X01774Y00692
X017645Y0071325
X0175725Y0071975
X01762Y0073775
X0175725Y0074275
X0164975Y006785
X016305Y0064175
X014775Y0065625
X0146225Y0066325
Y00669
X01456Y0066325
X01444Y0067125
X014305Y0066425
X0142525Y0068475
X014135Y0068575
X01389Y006845
X01412Y0064
X014095Y006265
X0141375Y0062225
X0143Y0060175
X0144375
X0145575
X014685
X01586Y0083255
X015905Y008388
X015815
X01586Y0084525
X015815Y008515
X015905
X01586Y0085795
X015815Y008642
X015905
X01586Y0087065
X0164275Y008837
X0163775Y0089265
X0164975
X0164275Y009014
X01645Y009145
X0162925Y00917
X0162525Y009325
X0163775Y00973
X0167275Y00938
X01683Y009345
X0169175Y0093825
X016905Y009035
X01676
X0166325Y0089595
Y0088325
Y0087055
Y0085785
Y0084515
X01586929Y00950429
X015545Y0096725
X01882754Y00963249
Y00949749
Y00936249
X01873004Y00923506
X01859504
X01846004
Y00910006
Y00896506
Y00856005
Y00842505
Y00829005
Y00815505
Y00775005
Y00761505
Y00748005
Y00734504
Y00721004
Y00707504
X01859504
X01873004
X01886505
X0182725Y007155
X0182725Y00721
X01811Y0072125
X01811Y0071575
X01785Y0070075
X0180275Y00659
X018345Y00659
X01839615Y00659
X01844615
X01862115
X01867365
X018745Y0062075
X018745Y0061
X01847Y00605
X0183425
X0182225
X0181125Y006085
X01809Y0062625
X01882754Y00976749
Y00990249
Y01003749
Y01017249
Y0103075
Y0104425
Y0105775
Y0107125
Y0108475
Y0109825
X01869254
X01855754
X01842254
X01828753
X01815253
X01801753
X01788253
X01774753
X01761253
X01747753
X01734253
X01720753
X01707253
X01693752
X01680252
X01666752
X01653252
X01639752
X01626252
X01612752
X01599252
X01585752
X01572251
X01558751
X01545251
X01531751
X01518251
X01504751
X01491251
X01477751
X01464251
X01450751
X01437251
X0142375
X0141025
X0139675
X0138325
X0147575Y01075
X0148675
X01512Y0107325
Y0105175
X0153975Y010515
Y01073
X0156875
X015835
X016075Y010725
X0164475Y010695
X0164725Y0105
X016245Y0104475
X0162425Y0102025
X016525Y010225
X01668Y0102225
Y01014
X0168775Y0102225
X0168825Y0105
X01668Y01078
X0159175Y0104475
X0156875Y010515
X0148475Y0104925
X0147775Y0104925
X0146475Y0102775
X0148725Y00995
X0149975
X01368Y01052
X01368Y01062
X01368Y01072
X01368Y01082
X013605Y01077
X013605Y01067
X013605Y01057
X013605Y01047
X0134275Y010345
X013325Y010335
X012855Y0104825
X012805Y0105325
Y0104325
X012855Y0105825
X012805Y0107125
X012855Y0107625
X012805Y0108125
X012855Y0108625
X01288749Y0109825
X01275249
X01261749
X01248249
X01234749
X0123275Y0108825
X01221249Y0109825
X01207749
X01194249
X01180749
X01181Y0108625
X01186Y0108125
Y0107125
X01181Y0107625
Y0105825
X01186Y0105325
X01181Y0104825
X01186Y0104325
X0115875Y010445
X0116875Y0105875
X0114475Y0106325
Y0106825
X0113625Y010865
X01140248Y0109825
X01153748
X01167249
X01126748
X01113248
X01094Y010985
X01094125Y010935
X0109425Y0108525
X0107925
X0108375Y0106375
Y0105275
X0109475Y0105275
Y0106375
X0111625Y0106325
Y0106825
Y0105325
Y0104825
X0111475Y0103225
X0110375Y010415
X010715Y01039
X010655Y0103225
X0106225Y0104825
Y0105325
Y0105825
Y0106325
Y0106825
X0104675Y01068
X010345Y0106325
X01041Y0103475
X0104675Y01023
X0104875Y01018
X0103825Y010095
X01034Y010075
Y0101225
X0099775Y0101375
X0100625Y010295
X0101Y0103325
X0101375Y01037
X01014125Y01084875
X01018747Y0109825
X01005247
X00991747
X01032247
X01207Y0102925
X012335Y01029
X0124325Y01034
X01261Y01047
X01261Y01057
X01261Y01067
X01261Y01077
X012685Y01072
X012685Y01082
X012685Y01062
X012685Y01052
X01302249Y0109825
X0131575
X0132925
X0134275
X0135625
X0136975
X00978247
X00963
X00951247
X0094375Y010975
X0093775
X0092725Y0109675
X00937Y010845
X00942
X0095Y010865
X0095025Y01069
X0094425
X0093925
X0093325
X009165Y010695
X009135Y01054
Y01049
X008965Y0105425
X008875Y010675
Y010725
X00883746Y0109825
X00897246
X0085975Y01097
X008455Y010595
X0084075Y0105975
X0083425Y0105775
X0082875
X008575Y0104725
X0085125Y0101925
X008515Y0101375
X00847Y010165
X00857Y0101025
X0085725Y010015
X0088Y0100475
X00891
X00891Y0099375
X0088Y0099375
X0093525Y01004
X0093525Y01015
X0092375Y0101775
X0096Y0101725
X009695Y0099725
X0095025Y0098825
X0097875Y0103275
X00963Y0107125
X0095625
X008135Y0099925
X00808Y00993
X00798
X00787Y0099475
Y0100125
X0078475Y0100725
X0075975Y010045
X0075975Y0099925
X0075975Y0099375
Y0098825
X00758391Y01009641
X00751609
X0074575Y0100575
X0073525Y00993
X0072175Y010115
X0071675
X0071175
X0070675
X0068775Y0101175
X0068175Y0100475
X0066525Y0100225
X00666Y00986
X00661
X00671
X0069875
X0070975
X00721Y0101975
X00724843Y0102375
X0069825Y0102275
X00677Y0102825
Y0103925
X0066225Y0104475
X0066225Y0103125
X00635Y0102975
X006295Y0102875
X0062Y0105075
X0068775Y0104925
X0063475Y009885
X00594Y0100175
X0058825Y010075
X0056775Y0100275
X00551Y010025
X0054525Y0100975
X00545483Y01015879
X00545517Y01030121
X00513343Y01021051
X00502165Y01017955
X00498845Y01006426
X00529Y0099325
X0052875Y0098475
X0052375Y0107125
X005435Y0107175
X0055025Y0106875
X0055825Y0107025
X0050375Y0105175
X00478633Y01061
Y0106575
X00471883Y01065794
X00468348Y0106933
X00480133Y01072531
X00476883Y01076281
X00483633
X00486883Y01073031
X00451883Y01058281
X00435883Y01068066
X00430418
X00421383Y01070531
X00417661Y01064559
X00421133Y01060781
X00413954Y01059781
X00410383Y01063352
X00385383Y01070781
X00379133
X003675Y01069
X003705Y0104925
X0037524Y01051531
X00375187Y01046281
X00375133Y01041031
Y01035781
X00375133Y01030281
X00375046Y01024868
X00362883Y01025781
X00357133Y01035531
X0035375Y010415
X00342633Y01044031
Y01038781
X00342633Y01032781
X00329633Y01035031
X00329633Y01040084
X00329633Y01029781
X00329883Y01061281
X00334633
X00295633Y01057281
X00292Y01053648
X0029725Y0104475
X00296133Y01036781
X00303383Y01019531
X00307633Y01014531
X0030151Y01004157
X0029076Y01004407
X00272352Y01004277
X00264043Y01005515
X00262105Y01024083
X00257156Y01019133
X00226193Y01027689
X00223193Y01038887
X00211943Y01041939
X00237633Y01067281
Y01072281
X00256633Y01071281
Y01075781
X00261633Y01071
Y0106625
X00251383Y01065781
Y01061281
X00338133Y00999781
X00339086Y00986801
X00332426Y00986801
X00352406Y00986801
X00365726Y00986801
X00369056Y00990131
X00372386Y00986801
X00379046
X00392366
X00396633Y01013031
X0039675Y01019
X00388Y0104425
X00422633Y01042281
X00417133Y00992531
X00370133Y01003281
X0036032Y01001271
X0018675Y0098925
X00170591Y01009341
X00170371Y01033233
X00156129Y01033267
X0014675Y010295
X00147Y0102375
X00142Y01054
X001475Y0098525
T02
X0136175Y0027325
Y0028275
X01368Y00278
X0137425Y0028275
Y0027325
X012545Y009055
X01245
X0124975Y0091175
X012545Y00918
X01245
T04
X0187079Y0056975
X0170895Y00455
X0168355
X01708Y0093355
Y0095895
X016585Y0095895
Y0093355
X0187079Y0066775
X01421571Y00987536
X01396143
Y01012964
X01421571
X01370714
X01345286
X01319857
X01294429
Y00987536
X01319857
X01345286
X01370714
X01192971Y00986786
X01167543
X01142114
X01116686
X01091257
X01065829
Y01012215
X01091257
X01116686
X01142114
X01167543
X01192971
T06
X0184579Y0055225
X0187929
X0184979Y0062975
X0184579Y0068525
X0187929
T07
X01718Y007945
Y008365
X0176Y008365
Y008785
X01718
X0176Y007945
T08
X01668Y0105
X01715
X01762
T09
X00045Y00165
X018225Y001835
X01385Y0037
X00885
X00045Y0087
X01385
X018225Y010555
T10
X01833Y007945
X01833Y008785
T11
X00933504Y00128
X00945504
X00957504
X000005Y00607746
Y00619746
Y00631746
X0190025Y00632253
Y00620253
Y00608254
X01237754Y0111175
X01225754
X01213754
X00463754Y01112
X00451754
X00439754
T12
X009435Y00211
T13
X008685Y00211
T14
X000725Y000935
X00075Y009475
M30
