M48
T01C.5000
T02C1.0500
T03C1.1500
T04C1.2500
T05C1.3000
T06C1.4500
T07C3.2000
T08C3.3000
%
M71
G93X0Y0
T01
X126467Y128118
X135509Y096266
X133985
X130759Y148755
Y150076
X131915Y148755
X130759Y151397
X131915Y150076
Y151397
X134112Y15113
Y149606
X1397Y095885
X143256Y143383
X14017Y145783
X141161Y150571
X150749Y102997
X151384Y101473
X147955Y117983
X150495Y140462
X156337Y100203
X154432Y122936
X153543Y131826
X15428Y138074
X156718Y146939
X157099Y149225
X158826Y153543
X162687Y081788
X162941Y080645
X161671Y082296
Y080899
Y079121
X162941Y079502
X162687Y078359
X161671Y077851
X162433Y128397
X163703Y140716
X161544Y145796
X169291Y101727
X170561Y104775
X173126Y101041
X169418Y116205
Y119126
X173482
X169418Y117729
X173482
X171958Y127381
X170815Y12573
Y123698
X170218Y138849
X177927Y103378
X176784Y104394
X180289Y111443
X176657Y118745
X178943
X180594Y132334
X1778Y138557
X176911Y147193
X186398Y107975
X18796Y118745
X185674
X186893Y139179
X184747
X186182Y146685
X184658
X191643Y101727
X191668Y111709
X19177Y11811
X195707Y124841
X195326Y139192
X130759Y152718
X131915
X141351Y099568
X150876Y090678
X14859Y121539
X146177Y144018
X148463Y128905
X153543Y130302
X163322Y091059
X162433Y130048
X17399Y106172
X171069Y099822
X180213Y099187
X179794Y137033
X180619Y144793
X176784Y145542
X188214Y091186
X189357Y129159
X191631Y091186
X194716Y114402
X137541Y10033
X1524Y119253
X144018Y12827
X152248Y125374
X152273Y134874
X152387Y143307
X129604Y150076
Y151397
Y148755
X152387Y145618
X160655Y081788
X160401Y080645
Y079502
X160655Y078359
X160147Y094234
X175387Y105283
X159766Y102616
X168021Y118364
X159258Y126873
Y128524
X183261Y136042
X167259Y133223
X175895Y13208
Y130683
X175006Y142113
X175641Y14859
X183007Y146685
X19003Y113259
X1905Y115189
Y118872
X197993Y131953
X191021Y139179
X197358Y139192
X144526Y122174
X129604Y152718
T02
X164109Y128943
Y126403
Y123863
Y121323
Y118783
X140868Y125222
X138328
X146431Y132461
Y137541
X140894Y136208
X138354
X152806Y151486
Y148946
X174015Y138913
Y136373
X192532Y13589
Y13081
X186817Y116713
X184277
X181737
X179197
X176657
X184277
X181737
X179197
X176657
T03
X133401Y157988
X137211
X148895
X152705
X141021
X144831
X179121
X182931
X171501
X175311
X163881
X167691
X186741
X190551
X156261
X160071
T04
X123825Y08509
Y09017
X149987Y146329
Y151409
X146431Y146329
Y151409
X129413Y08509
Y09017
X139319Y106934
X134239
X139319Y111379
X134239
X146812Y108585
Y113665
X139065Y08382
X136525Y08636
X133985Y08382
X17399
X17145Y08636
X16891Y08382
X1651Y110236
X15494
X154305Y08382
X151765Y08636
X149225Y08382
X18923
X18669Y08636
X18415Y08382
X126403Y124536
X128943Y121996
X131483Y124536
T05
X157861Y114046
X155258Y114618
X160147Y112649
T06
X126873Y109982
Y104902
Y099822
Y094742
T07
X136525Y067031
X17145
X151765
X18669
X128943Y141326
T08
X12562Y11942
Y06542
Y15742
X19762Y11942
Y06542
Y15742
M30
