G04    Visula Post-processor *
G04    Date         : Thu Aug 29 14:50:26 2002 *
G04    File name    : /disk1/jobs/ekf/c/cd1/rev0/postpr/spool/l1.off *
%FSTAX24Y24*%
%MOIN*%
%SFA1.000B1.000*%
%SRX1Y1I0.000J0.000*%
%IPPOS*%
G75*
%ADD10C,0.0050*%
%ADD11C,0.0070*%
%ADD12C,0.0080*%
%ADD13C,0.0080*%
%ADD14C,0.0100*%
%ADD15C,0.0120*%
%ADD16C,0.0160*%
%ADD17C,0.0200*%
%ADD18C,0.0240*%
%ADD19C,0.0550*%
%ADD20C,0.0870*%
%ADD21R,0.0550X0.0550*%
%ADD22R,0.0980X0.0980*%
%ADD23O,0.0120X0.0720*%
%ADD24R,0.0050X0.0002*%
%ADD25R,0.0730X0.0007*%
%ADD26R,0.0050X0.0012*%
%ADD27R,0.0050X0.0022*%
%ADD28R,0.0050X0.0032*%
%ADD29R,0.0016X0.0050*%
%ADD30R,0.0147X0.0050*%
%ADD31R,0.0149X0.0050*%
%ADD32R,0.0177X0.0050*%
%ADD33R,0.0203X0.0050*%
%ADD34R,0.0587X0.0050*%
%ADD35R,0.0050X0.0052*%
%ADD36R,0.0609X0.0068*%
%ADD37R,0.0050X0.0072*%
%ADD38R,0.0090X0.0080*%
%ADD39R,0.0050X0.0082*%
%ADD40R,0.0050X0.0093*%
%ADD41R,0.0120X0.0093*%
%ADD42R,0.0940X0.0102*%
%ADD43R,0.0320X0.0108*%
%ADD44R,0.0068X0.0120*%
%ADD45R,0.0149X0.0120*%
%ADD46R,0.0504X0.0120*%
%ADD47R,0.0150X0.0620*%
%ADD48R,0.0160X0.0240*%
%ADD49R,0.0050X0.0182*%
%ADD50R,0.1030X0.0200*%
%ADD51R,0.0120X0.0212*%
%ADD52R,0.0920X0.0240*%
%ADD53R,0.0050X0.0252*%
%ADD54R,0.0120X0.0282*%
%ADD55R,0.0050X0.0292*%
%ADD56R,0.0300X0.0350*%
%ADD57R,0.0050X0.0312*%
%ADD58R,0.0058X0.0320*%
%ADD59R,0.0320X0.0320*%
%ADD60R,0.0320X0.0320*%
%ADD61R,0.0050X0.0332*%
%ADD62R,0.0007X0.0350*%
%ADD63R,0.0350X0.0500*%
%ADD64R,0.0050X0.0364*%
%ADD65R,0.0050X0.0372*%
%ADD66R,0.0050X0.0392*%
%ADD67R,0.0400X0.0510*%
%ADD68R,0.0630X0.0400*%
%ADD69R,0.0400X0.0630*%
%ADD70R,0.0980X0.0400*%
%ADD71R,0.0400X0.0980*%
%ADD72R,0.0050X0.0422*%
%ADD73R,0.0050X0.0432*%
%ADD74R,0.0050X0.0472*%
%ADD75R,0.0050X0.0522*%
%ADD76R,0.0050X0.0582*%
%ADD77R,0.0050X0.0622*%
%ADD78R,0.0940X0.0630*%
%ADD79R,0.0630X0.0940*%
%ADD80R,0.0050X0.0672*%
%ADD81R,0.0050X0.0692*%
%ADD82R,0.0050X0.0792*%
%ADD83R,0.0053X0.0980*%
%ADD84R,0.1420X0.1180*%
%ADD85R,0.2760X0.1380*%
%ADD86R,0.1380X0.2760*%
%LPD*%
%LNl1_off_c1*%
G75*
G36*
G01X071400Y027189D02*
G02I000000J000191D01*
G37*
G36*
G01X065370Y026039D02*
G02I000000J000355D01*
G37*
G36*
G01Y013638D02*
G02I000000J000354D01*
G37*
G36*
G01Y019740D02*
G02I000000J000354D01*
G37*
G36*
G01Y023874D02*
G02I000000J000354D01*
G37*
G36*
G01X064504Y022457D02*
Y023244D01*
X064858*
Y022457*
X064504*
G37*
G36*
G01Y024031D02*
Y024819D01*
X064858*
Y024031*
X064504*
G37*
G36*
G01Y020882D02*
Y021669D01*
X064858*
Y020882*
X064504*
G37*
G36*
G01X062732Y021669D02*
Y022457D01*
X063087*
Y021669*
X062732*
G37*
G36*
G01Y020094D02*
Y020882D01*
X063087*
Y020094*
X062732*
G37*
G36*
G01Y018520D02*
Y019307D01*
X063087*
Y018520*
X062732*
G37*
G36*
G01Y016945D02*
Y017732D01*
X063087*
Y016945*
X062732*
G37*
G36*
G01X064504Y019307D02*
Y020094D01*
X064858*
Y019307*
X064504*
G37*
G36*
G01Y017732D02*
Y018520D01*
X064858*
Y017732*
X064504*
G37*
G36*
G01X064898Y016945D02*
Y016157D01*
X064465*
Y016945*
X064898*
G37*
G36*
G01X049504Y023795D02*
Y024661D01*
X049150*
Y023795*
X049504*
G37*
G36*
G01Y022220D02*
Y023087D01*
X049150*
Y022220*
X049504*
G37*
G36*
G01Y020646D02*
Y021512D01*
X049150*
Y020646*
X049504*
G37*
G36*
G01Y019071D02*
Y019937D01*
X049150*
Y019071*
X049504*
G37*
G36*
G01Y017496D02*
Y018362D01*
X049150*
Y017496*
X049504*
G37*
G36*
G01X057807Y019162D02*
X057907Y019262D01*
X057987*
X058027Y019302*
Y019602*
X058637*
Y019672*
X058737Y019772*
X058887*
X058987Y019672*
Y019522*
X058887Y019422*
X058807*
X058777Y019392*
Y019092*
X058157*
Y019022*
X058047Y018912*
X057907*
X057807Y019012*
Y019162*
G37*
G36*
G01X056665D02*
X056765Y019262D01*
X056845*
X056885Y019302*
Y019602*
X057495*
Y019672*
X057595Y019772*
X057745*
X057845Y019672*
Y019522*
X057745Y019422*
X057665*
X057635Y019392*
Y019092*
X057015*
Y019022*
X056905Y018912*
X056765*
X056665Y019012*
Y019162*
G37*
G36*
G01X055524D02*
X055624Y019262D01*
X055704*
X055744Y019302*
Y019602*
X056354*
Y019672*
X056454Y019772*
X056604*
X056704Y019672*
Y019522*
X056604Y019422*
X056524*
X056494Y019392*
Y019092*
X055874*
Y019022*
X055764Y018912*
X055624*
X055524Y019012*
Y019162*
G37*
G36*
G01X054382D02*
X054482Y019262D01*
X054562*
X054602Y019302*
Y019602*
X055212*
Y019672*
X055312Y019772*
X055462*
X055562Y019672*
Y019522*
X055462Y019422*
X055382*
X055352Y019392*
Y019092*
X054732*
Y019022*
X054622Y018912*
X054482*
X054382Y019012*
Y019162*
G37*
G36*
G01X053240D02*
X053340Y019262D01*
X053420*
X053460Y019302*
Y019602*
X054070*
Y019672*
X054170Y019772*
X054320*
X054420Y019672*
Y019522*
X054320Y019422*
X054240*
X054210Y019392*
Y019092*
X053590*
Y019022*
X053480Y018912*
X053340*
X053240Y019012*
Y019162*
G37*
G36*
G01Y021091D02*
X053340Y021191D01*
X053420*
X053460Y021231*
Y021531*
X054070*
Y021601*
X054170Y021701*
X054320*
X054420Y021601*
Y021451*
X054320Y021351*
X054240*
X054210Y021321*
Y021021*
X053590*
Y020951*
X053480Y020841*
X053340*
X053240Y020941*
Y021091*
G37*
G36*
G01X054382D02*
X054482Y021191D01*
X054562*
X054602Y021231*
Y021531*
X055212*
Y021601*
X055312Y021701*
X055462*
X055562Y021601*
Y021451*
X055462Y021351*
X055382*
X055352Y021321*
Y021021*
X054732*
Y020951*
X054622Y020841*
X054482*
X054382Y020941*
Y021091*
G37*
G36*
G01X055524D02*
X055624Y021191D01*
X055704*
X055744Y021231*
Y021531*
X056354*
Y021601*
X056454Y021701*
X056604*
X056704Y021601*
Y021451*
X056604Y021351*
X056524*
X056494Y021321*
Y021021*
X055874*
Y020951*
X055764Y020841*
X055624*
X055524Y020941*
Y021091*
G37*
G36*
G01X056665D02*
X056765Y021191D01*
X056845*
X056885Y021231*
Y021531*
X057495*
Y021601*
X057595Y021701*
X057745*
X057845Y021601*
Y021451*
X057745Y021351*
X057665*
X057635Y021321*
Y021021*
X057015*
Y020951*
X056905Y020841*
X056765*
X056665Y020941*
Y021091*
G37*
G36*
G01X057807D02*
X057907Y021191D01*
X057987*
X058027Y021231*
Y021531*
X058637*
Y021601*
X058737Y021701*
X058887*
X058987Y021601*
Y021451*
X058887Y021351*
X058807*
X058777Y021321*
Y021021*
X058157*
Y020951*
X058047Y020841*
X057907*
X057807Y020941*
Y021091*
G37*
G36*
G01Y023020D02*
X057907Y023120D01*
X057987*
X058027Y023160*
Y023460*
X058637*
Y023530*
X058737Y023630*
X058887*
X058987Y023530*
Y023380*
X058887Y023280*
X058807*
X058777Y023250*
Y022950*
X058157*
Y022880*
X058047Y022770*
X057907*
X057807Y022870*
Y023020*
G37*
G36*
G01X056665D02*
X056765Y023120D01*
X056845*
X056885Y023160*
Y023460*
X057495*
Y023530*
X057595Y023630*
X057745*
X057845Y023530*
Y023380*
X057745Y023280*
X057665*
X057635Y023250*
Y022950*
X057015*
Y022880*
X056905Y022770*
X056765*
X056665Y022870*
Y023020*
G37*
G36*
G01X055524D02*
X055624Y023120D01*
X055704*
X055744Y023160*
Y023460*
X056354*
Y023530*
X056454Y023630*
X056604*
X056704Y023530*
Y023380*
X056604Y023280*
X056524*
X056494Y023250*
Y022950*
X055874*
Y022880*
X055764Y022770*
X055624*
X055524Y022870*
Y023020*
G37*
G36*
G01X054382D02*
X054482Y023120D01*
X054562*
X054602Y023160*
Y023460*
X055212*
Y023530*
X055312Y023630*
X055462*
X055562Y023530*
Y023380*
X055462Y023280*
X055382*
X055352Y023250*
Y022950*
X054732*
Y022880*
X054622Y022770*
X054482*
X054382Y022870*
Y023020*
G37*
G36*
G01X051213Y023994D02*
X051313Y024094D01*
X051433*
X051653Y023874*
X051703*
X051813Y023764*
Y023714*
X052033Y023494*
Y023374*
X051933Y023274*
X051813*
X051603Y023484*
X051553*
X051423Y023614*
Y023664*
X051213Y023874*
Y023994*
G37*
G36*
G01X053240Y023020D02*
X053340Y023120D01*
X053420*
X053460Y023160*
Y023460*
X054070*
Y023530*
X054170Y023630*
X054320*
X054420Y023530*
Y023380*
X054320Y023280*
X054240*
X054210Y023250*
Y022950*
X053590*
Y022880*
X053480Y022770*
X053340*
X053240Y022870*
Y023020*
G37*
G36*
G01X061925Y017162D02*
X061715Y017372D01*
Y017505*
X061802Y017592*
X061935*
X062155Y017372*
X062205*
X062315Y017262*
Y017212*
X062535Y016992*
Y016872*
X062435Y016772*
X062315*
X062105Y016982*
X062055*
X061925Y017112*
Y017162*
G37*
G36*
G01X061710Y018490D02*
X061810Y018590D01*
X061930*
X062150Y018370*
X062200*
X062310Y018260*
Y018210*
X062530Y017990*
Y017870*
X062430Y017770*
X062310*
X062100Y017980*
X062050*
X061920Y018110*
Y018160*
X061710Y018370*
Y018490*
G37*
G36*
G01X060713Y018494D02*
X060813Y018594D01*
X060933*
X061153Y018374*
X061203*
X061313Y018264*
Y018214*
X061533Y017994*
Y017874*
X061433Y017774*
X061313*
X061103Y017984*
X061053*
X060923Y018114*
Y018164*
X060713Y018374*
Y018494*
G37*
G36*
G01X060210Y017990D02*
X060310Y018090D01*
X060430*
X060650Y017870*
X060700*
X060810Y017760*
Y017710*
X061030Y017490*
Y017370*
X060930Y017270*
X060810*
X060600Y017480*
X060550*
X060420Y017610*
Y017660*
X060210Y017870*
Y017990*
G37*
G36*
G01X059528Y018613D02*
X059669D01*
X059690Y018590*
X059940*
X060023Y018500*
Y018371*
X059933Y018281*
X059691*
X059669Y018260*
X059514*
X059429Y018344*
Y018514*
X059528Y018613*
G37*
G36*
G01X061713Y019494D02*
X061813Y019594D01*
X061933*
X062153Y019374*
X062203*
X062313Y019264*
Y019214*
X062533Y018994*
Y018874*
X062433Y018774*
X062313*
X062103Y018984*
X062053*
X061923Y019114*
Y019164*
X061713Y019374*
Y019494*
G37*
G36*
G01Y020494D02*
X061813Y020594D01*
X061933*
X062153Y020374*
X062203*
X062313Y020264*
Y020214*
X062533Y019994*
Y019874*
X062433Y019774*
X062313*
X062103Y019984*
X062053*
X061923Y020114*
Y020164*
X061713Y020374*
Y020494*
G37*
G36*
G01Y021494D02*
X061813Y021594D01*
X061933*
X062153Y021374*
X062203*
X062313Y021264*
Y021214*
X062533Y020994*
Y020874*
X062433Y020774*
X062313*
X062103Y020984*
X062053*
X061923Y021114*
Y021164*
X061713Y021374*
Y021494*
G37*
G36*
G01X062251Y022304D02*
X062351Y022204D01*
X062350Y022170*
X062520Y022000*
X062521Y021874*
X062429Y021783*
X062302*
X062131Y021954*
X062101*
X061991Y022064*
Y022184*
X062111Y022304*
X062251*
G37*
G36*
G01X060713Y019494D02*
X060813Y019594D01*
X060933*
X061153Y019374*
X061203*
X061313Y019264*
Y019214*
X061533Y018994*
Y018874*
X061433Y018774*
X061313*
X061103Y018984*
X061053*
X060923Y019114*
Y019164*
X060713Y019374*
Y019494*
G37*
G36*
G01Y020494D02*
X060813Y020594D01*
X060933*
X061153Y020374*
X061203*
X061313Y020264*
Y020214*
X061533Y019994*
Y019874*
X061433Y019774*
X061313*
X061103Y019984*
X061053*
X060923Y020114*
Y020164*
X060713Y020374*
Y020494*
G37*
G36*
G01Y021494D02*
X060813Y021594D01*
X060933*
X061153Y021374*
X061203*
X061313Y021264*
Y021214*
X061533Y020994*
Y020874*
X061433Y020774*
X061313*
X061103Y020984*
X061053*
X060923Y021114*
Y021164*
X060713Y021374*
Y021494*
G37*
G36*
G01Y022494D02*
X060813Y022594D01*
X060933*
X061153Y022374*
X061203*
X061313Y022264*
Y022214*
X061533Y021994*
Y021874*
X061433Y021774*
X061313*
X061103Y021984*
X061053*
X060923Y022114*
Y022164*
X060713Y022374*
Y022494*
G37*
G36*
G01X061213Y022994D02*
X061313Y023094D01*
X061433*
X061653Y022874*
X061703*
X061813Y022764*
Y022714*
X062033Y022494*
Y022374*
X061933Y022274*
X061813*
X061603Y022484*
X061553*
X061423Y022614*
Y022664*
X061213Y022874*
Y022994*
G37*
G36*
G01X061713Y023494D02*
X061813Y023594D01*
X061933*
X062153Y023374*
X062203*
X062313Y023264*
Y023214*
X062533Y022994*
Y022874*
X062433Y022774*
X062313*
X062103Y022984*
X062053*
X061923Y023114*
Y023164*
X061713Y023374*
Y023494*
G37*
G36*
G01X059713Y019494D02*
X059813Y019594D01*
X059933*
X060153Y019374*
X060203*
X060313Y019264*
Y019214*
X060533Y018994*
Y018874*
X060433Y018774*
X060313*
X060103Y018984*
X060053*
X059923Y019114*
Y019164*
X059713Y019374*
Y019494*
G37*
G36*
G01Y020494D02*
X059813Y020594D01*
X059933*
X060153Y020374*
X060203*
X060313Y020264*
Y020214*
X060533Y019994*
Y019874*
X060433Y019774*
X060313*
X060103Y019984*
X060053*
X059923Y020114*
Y020164*
X059713Y020374*
Y020494*
G37*
G36*
G01Y021494D02*
X059813Y021594D01*
X059933*
X060153Y021374*
X060203*
X060313Y021264*
Y021214*
X060533Y020994*
Y020874*
X060433Y020774*
X060313*
X060103Y020984*
X060053*
X059923Y021114*
Y021164*
X059713Y021374*
Y021494*
G37*
G36*
G01Y022494D02*
X059813Y022594D01*
X059933*
X060153Y022374*
X060203*
X060313Y022264*
Y022214*
X060533Y021994*
Y021874*
X060433Y021774*
X060313*
X060103Y021984*
X060053*
X059923Y022114*
Y022164*
X059713Y022374*
Y022494*
G37*
G36*
G01Y023494D02*
X059813Y023594D01*
X059933*
X060153Y023374*
X060203*
X060313Y023264*
Y023214*
X060533Y022994*
Y022874*
X060433Y022774*
X060313*
X060103Y022984*
X060053*
X059923Y023114*
Y023164*
X059713Y023374*
Y023494*
G37*
G36*
G01X049713Y018494D02*
X049813Y018594D01*
X049933*
X050153Y018374*
X050203*
X050313Y018264*
Y018214*
X050533Y017994*
Y017874*
X050433Y017774*
X050313*
X050103Y017984*
X050053*
X049923Y018114*
Y018164*
X049713Y018374*
Y018494*
G37*
G36*
G01X050213Y018994D02*
X050313Y019094D01*
X050433*
X050653Y018874*
X050703*
X050813Y018764*
Y018714*
X051033Y018494*
Y018374*
X050933Y018274*
X050813*
X050603Y018484*
X050553*
X050423Y018614*
Y018664*
X050213Y018874*
Y018994*
G37*
G36*
G01X051213D02*
X051313Y019094D01*
X051433*
X051653Y018874*
X051703*
X051813Y018764*
Y018714*
X052033Y018494*
Y018374*
X051933Y018274*
X051813*
X051603Y018484*
X051553*
X051423Y018614*
Y018664*
X051213Y018874*
Y018994*
G37*
G36*
G01X051713Y019494D02*
X051813Y019594D01*
X051933*
X052153Y019374*
X052203*
X052313Y019264*
Y019214*
X052533Y018994*
Y018874*
X052433Y018774*
X052313*
X052103Y018984*
X052053*
X051923Y019114*
Y019164*
X051713Y019374*
Y019494*
G37*
G36*
G01X050210Y019990D02*
X050310Y020090D01*
X050430*
X050650Y019870*
X050700*
X050810Y019760*
Y019710*
X051030Y019490*
Y019370*
X050930Y019270*
X050810*
X050600Y019480*
X050550*
X050420Y019610*
Y019660*
X050210Y019870*
Y019990*
G37*
G36*
G01X051713Y020494D02*
X051813Y020594D01*
X051933*
X052153Y020374*
X052203*
X052313Y020264*
Y020214*
X052533Y019994*
Y019874*
X052433Y019774*
X052313*
X052103Y019984*
X052053*
X051923Y020114*
Y020164*
X051713Y020374*
Y020494*
G37*
G36*
G01X050710Y020490D02*
X050810Y020590D01*
X050930*
X051150Y020370*
X051200*
X051310Y020260*
Y020210*
X051530Y019990*
Y019870*
X051430Y019770*
X051310*
X051100Y019980*
X051050*
X050920Y020110*
Y020160*
X050710Y020370*
Y020490*
G37*
G36*
G01X051713Y021494D02*
X051813Y021594D01*
X051933*
X052153Y021374*
X052203*
X052313Y021264*
Y021214*
X052533Y020994*
Y020874*
X052433Y020774*
X052313*
X052103Y020984*
X052053*
X051923Y021114*
Y021164*
X051713Y021374*
Y021494*
G37*
G36*
G01X050713D02*
X050813Y021594D01*
X050933*
X051153Y021374*
X051203*
X051313Y021264*
Y021214*
X051533Y020994*
Y020874*
X051433Y020774*
X051313*
X051103Y020984*
X051053*
X050923Y021114*
Y021164*
X050713Y021374*
Y021494*
G37*
G36*
G01X049713D02*
X049813Y021594D01*
X049933*
X050153Y021374*
X050203*
X050313Y021264*
Y021214*
X050533Y020994*
Y020874*
X050433Y020774*
X050313*
X050103Y020984*
X050053*
X049923Y021114*
Y021164*
X049713Y021374*
Y021494*
G37*
G36*
G01X051713Y022494D02*
X051813Y022594D01*
X051933*
X052153Y022374*
X052203*
X052313Y022264*
Y022214*
X052533Y021994*
Y021874*
X052433Y021774*
X052313*
X052103Y021984*
X052053*
X051923Y022114*
Y022164*
X051713Y022374*
Y022494*
G37*
G36*
G01X050713D02*
X050813Y022594D01*
X050933*
X051153Y022374*
X051203*
X051313Y022264*
Y022214*
X051533Y021994*
Y021874*
X051433Y021774*
X051313*
X051103Y021984*
X051053*
X050923Y022114*
Y022164*
X050713Y022374*
Y022494*
G37*
G36*
G01X049713D02*
X049813Y022594D01*
X049933*
X050153Y022374*
X050203*
X050313Y022264*
Y022214*
X050533Y021994*
Y021874*
X050433Y021774*
X050313*
X050103Y021984*
X050053*
X049923Y022114*
Y022164*
X049713Y022374*
Y022494*
G37*
G36*
G01X050710Y023490D02*
X050810Y023590D01*
X050930*
X051150Y023370*
X051200*
X051310Y023260*
Y023210*
X051530Y022990*
Y022870*
X051430Y022770*
X051310*
X051100Y022980*
X051050*
X050920Y023110*
Y023160*
X050710Y023370*
Y023490*
G37*
G36*
G01X049710D02*
X049810Y023590D01*
X049930*
X050150Y023370*
X050200*
X050310Y023260*
Y023210*
X050530Y022990*
Y022870*
X050430Y022770*
X050310*
X050100Y022980*
X050050*
X049920Y023110*
Y023160*
X049710Y023370*
Y023490*
G37*
G36*
G01X052712Y022755D02*
X052571D01*
X052543Y022783*
X052302*
X052217Y022868*
Y022997*
X052307Y023087*
X052550*
X052571Y023108*
X052726*
X052811Y023024*
Y022854*
X052712Y022755*
G37*
G36*
G01X052368Y023775D02*
G02I000000J000160D01*
G37*
G36*
G01X049980Y020070D02*
X049880Y020170D01*
Y020210*
X049710Y020380*
Y020500*
X049800Y020590*
X049930*
X050100Y020420*
X050130*
X050240Y020310*
Y020190*
X050120Y020070*
X049980*
G37*
G36*
G01Y019070D02*
X049880Y019170D01*
Y019210*
X049710Y019380*
Y019500*
X049800Y019590*
X049930*
X050100Y019420*
X050130*
X050240Y019310*
Y019190*
X050120Y019070*
X049980*
G37*
G36*
G01X049868Y017275D02*
G02I000000J000160D01*
G37*
M00*
M02*
