%FSLAX24Y24*%
%MOIN*%
G70*
G01*
G75*
%ADD10R,0.1200X0.0900*%
%ADD11C,0.0080*%
%ADD12C,0.0120*%
%ADD13C,0.0200*%
%ADD14C,0.0100*%
%ADD15C,0.0060*%
%ADD16C,0.0500*%
%ADD17C,0.0550*%
%ADD18R,0.0550X0.0550*%
%ADD19C,0.0360*%
%ADD20C,0.0300*%
%ADD21R,0.1240X0.0940*%
%ADD22C,0.0540*%
%ADD23C,0.0590*%
%ADD24R,0.0590X0.0590*%
%ADD25C,0.0400*%
%ADD26C,0.0720*%
%ADD27C,0.0750*%
%AMTHD28*
7,0,0,0.0830,0.0590,0.0150,45*
%
%ADD28THD28*%
%ADD29C,0.1500*%
%AMTHD30*
7,0,0,0.0800,0.0560,0.0150,45*
%
%ADD30THD30*%
%ADD31C,0.1600*%
%AMTHD32*
7,0,0,0.0680,0.0440,0.0150,45*
%
%ADD32THD32*%
%ADD33C,0.0760*%
D11*
X115238Y54647D02*
X115200Y54609D01*
X115238Y54571D01*
X115276Y54609D01*
X115238Y54647D01*
X116023Y55180D02*
X115985Y55256D01*
X115908Y55333D01*
X115832Y55371D01*
X115680D01*
X115604Y55333D01*
X115527Y55256D01*
X115489Y55180D01*
X115451Y55066D01*
Y54875D01*
X115489Y54761D01*
X115527Y54685D01*
X115604Y54609D01*
X115680Y54571D01*
X115832D01*
X115908Y54609D01*
X115985Y54685D01*
X116023Y54761D01*
Y54875D01*
X115832D02*
X116023D01*
X116205Y54952D02*
X116548D01*
X116662Y54990D01*
X116701Y55028D01*
X116739Y55104D01*
Y55218D01*
X116701Y55294D01*
X116662Y55333D01*
X116548Y55371D01*
X116205D01*
Y54571D01*
X116918Y55218D02*
X116994Y55256D01*
X117108Y55371D01*
Y54571D01*
D26*
X83700Y85321D02*
D03*
X99700Y86321D02*
D03*
X98700D02*
D03*
X83700Y94321D02*
D03*
X82700D02*
D03*
X83700Y93321D02*
D03*
X82700D02*
D03*
X83700Y92321D02*
D03*
X82700D02*
D03*
X83700Y91321D02*
D03*
X82700D02*
D03*
X83700Y89321D02*
D03*
X82700D02*
D03*
X83700Y88321D02*
D03*
X82700D02*
D03*
X83700Y87321D02*
D03*
X82700D02*
D03*
X83700Y86321D02*
D03*
X82700D02*
D03*
Y85321D02*
D03*
X83700Y84321D02*
D03*
X82700D02*
D03*
X83700Y83321D02*
D03*
X82700D02*
D03*
X91200D02*
D03*
X90200D02*
D03*
X91200Y84321D02*
D03*
X90200D02*
D03*
X91200Y86321D02*
D03*
X90200D02*
D03*
X91200Y87321D02*
D03*
X90200D02*
D03*
X91200Y88321D02*
D03*
X90200D02*
D03*
X91200Y89321D02*
D03*
X90200D02*
D03*
X91200Y91321D02*
D03*
X90200D02*
D03*
X91200Y92321D02*
D03*
X90200D02*
D03*
X91200Y93321D02*
D03*
X90200D02*
D03*
X91200Y94321D02*
D03*
X90200D02*
D03*
X106200Y91321D02*
D03*
X105200D02*
D03*
X106200Y92321D02*
D03*
X105200D02*
D03*
X106200Y93321D02*
D03*
X105200D02*
D03*
X106200Y94321D02*
D03*
X105200D02*
D03*
X106200Y96321D02*
D03*
X105200D02*
D03*
X106200Y97321D02*
D03*
X105200D02*
D03*
X106200Y98321D02*
D03*
X105200D02*
D03*
X106200Y99321D02*
D03*
X105200D02*
D03*
X99700Y88321D02*
D03*
X98700D02*
D03*
X99700Y87321D02*
D03*
X98700D02*
D03*
D27*
X88700Y114321D02*
D03*
Y113321D02*
D03*
Y112321D02*
D03*
Y111321D02*
D03*
Y109321D02*
D03*
Y108321D02*
D03*
Y107321D02*
D03*
X87700Y114321D02*
D03*
Y113321D02*
D03*
Y112321D02*
D03*
Y111321D02*
D03*
Y109321D02*
D03*
Y108321D02*
D03*
Y107321D02*
D03*
X86700Y114321D02*
D03*
Y113321D02*
D03*
Y112321D02*
D03*
Y111321D02*
D03*
Y109321D02*
D03*
Y108321D02*
D03*
Y107321D02*
D03*
X87700Y83321D02*
D03*
Y82321D02*
D03*
Y88321D02*
D03*
Y106321D02*
D03*
X88700D02*
D03*
Y104321D02*
D03*
Y103321D02*
D03*
Y102321D02*
D03*
Y101321D02*
D03*
Y99321D02*
D03*
Y98321D02*
D03*
Y97321D02*
D03*
Y96321D02*
D03*
Y94321D02*
D03*
Y93321D02*
D03*
Y92321D02*
D03*
Y91321D02*
D03*
Y89321D02*
D03*
Y88321D02*
D03*
Y87321D02*
D03*
Y86321D02*
D03*
Y84321D02*
D03*
Y83321D02*
D03*
Y82321D02*
D03*
Y80321D02*
D03*
Y79321D02*
D03*
Y77321D02*
D03*
Y76321D02*
D03*
X87700Y104321D02*
D03*
Y103321D02*
D03*
Y102321D02*
D03*
Y101321D02*
D03*
Y99321D02*
D03*
Y98321D02*
D03*
Y97321D02*
D03*
Y96321D02*
D03*
Y94321D02*
D03*
Y93321D02*
D03*
Y92321D02*
D03*
Y91321D02*
D03*
Y89321D02*
D03*
Y87321D02*
D03*
Y86321D02*
D03*
Y84321D02*
D03*
Y80321D02*
D03*
Y79321D02*
D03*
Y77321D02*
D03*
Y76321D02*
D03*
X86700Y106321D02*
D03*
Y104321D02*
D03*
Y103321D02*
D03*
Y102321D02*
D03*
Y101321D02*
D03*
Y99321D02*
D03*
Y98321D02*
D03*
Y97321D02*
D03*
Y96321D02*
D03*
Y94321D02*
D03*
Y93321D02*
D03*
Y92321D02*
D03*
Y91321D02*
D03*
Y89321D02*
D03*
Y88321D02*
D03*
Y87321D02*
D03*
Y86321D02*
D03*
Y84321D02*
D03*
Y83321D02*
D03*
Y82321D02*
D03*
Y80321D02*
D03*
Y79321D02*
D03*
Y77321D02*
D03*
Y76321D02*
D03*
X81200Y114321D02*
D03*
Y113321D02*
D03*
Y112321D02*
D03*
Y111321D02*
D03*
Y109321D02*
D03*
Y108321D02*
D03*
Y107321D02*
D03*
X80200Y114321D02*
D03*
Y113321D02*
D03*
Y112321D02*
D03*
Y111321D02*
D03*
Y109321D02*
D03*
Y108321D02*
D03*
Y107321D02*
D03*
X79200Y114321D02*
D03*
Y113321D02*
D03*
Y112321D02*
D03*
Y111321D02*
D03*
Y109321D02*
D03*
Y108321D02*
D03*
Y107321D02*
D03*
X80200Y83321D02*
D03*
Y82321D02*
D03*
Y88321D02*
D03*
Y106321D02*
D03*
X81200D02*
D03*
Y104321D02*
D03*
Y103321D02*
D03*
Y102321D02*
D03*
Y101321D02*
D03*
Y99321D02*
D03*
Y98321D02*
D03*
Y97321D02*
D03*
Y96321D02*
D03*
Y94321D02*
D03*
Y93321D02*
D03*
Y92321D02*
D03*
Y91321D02*
D03*
Y89321D02*
D03*
Y88321D02*
D03*
Y87321D02*
D03*
Y86321D02*
D03*
Y84321D02*
D03*
Y83321D02*
D03*
Y82321D02*
D03*
Y80321D02*
D03*
Y79321D02*
D03*
Y77321D02*
D03*
Y76321D02*
D03*
X80200Y103321D02*
D03*
Y102321D02*
D03*
Y101321D02*
D03*
Y99321D02*
D03*
Y98321D02*
D03*
Y97321D02*
D03*
Y96321D02*
D03*
Y94321D02*
D03*
Y93321D02*
D03*
Y92321D02*
D03*
Y91321D02*
D03*
Y89321D02*
D03*
Y87321D02*
D03*
Y86321D02*
D03*
Y84321D02*
D03*
Y80321D02*
D03*
Y79321D02*
D03*
Y77321D02*
D03*
Y76321D02*
D03*
X79200Y106321D02*
D03*
Y104321D02*
D03*
Y103321D02*
D03*
Y102321D02*
D03*
Y101321D02*
D03*
Y99321D02*
D03*
Y98321D02*
D03*
Y97321D02*
D03*
Y96321D02*
D03*
Y94321D02*
D03*
Y93321D02*
D03*
Y92321D02*
D03*
Y91321D02*
D03*
Y89321D02*
D03*
Y88321D02*
D03*
Y87321D02*
D03*
Y86321D02*
D03*
Y84321D02*
D03*
Y83321D02*
D03*
Y82321D02*
D03*
Y80321D02*
D03*
Y79321D02*
D03*
Y77321D02*
D03*
Y76321D02*
D03*
X105200Y79321D02*
D03*
Y77321D02*
D03*
Y76321D02*
D03*
Y80321D02*
D03*
Y82321D02*
D03*
Y84321D02*
D03*
Y83321D02*
D03*
X80200Y104321D02*
D03*
X103700Y114321D02*
D03*
Y113321D02*
D03*
Y112321D02*
D03*
Y111321D02*
D03*
Y109321D02*
D03*
Y108321D02*
D03*
Y107321D02*
D03*
X102700Y114321D02*
D03*
Y113321D02*
D03*
Y112321D02*
D03*
Y111321D02*
D03*
Y109321D02*
D03*
Y108321D02*
D03*
Y107321D02*
D03*
X101700Y114321D02*
D03*
Y113321D02*
D03*
Y112321D02*
D03*
Y111321D02*
D03*
Y109321D02*
D03*
Y108321D02*
D03*
Y107321D02*
D03*
X102700Y83321D02*
D03*
Y82321D02*
D03*
Y88321D02*
D03*
Y106321D02*
D03*
X103700D02*
D03*
Y104321D02*
D03*
Y103321D02*
D03*
Y102321D02*
D03*
Y101321D02*
D03*
Y99321D02*
D03*
Y98321D02*
D03*
Y97321D02*
D03*
Y96321D02*
D03*
Y94321D02*
D03*
Y93321D02*
D03*
Y92321D02*
D03*
Y91321D02*
D03*
Y89321D02*
D03*
Y88321D02*
D03*
Y87321D02*
D03*
Y86321D02*
D03*
Y84321D02*
D03*
Y83321D02*
D03*
Y82321D02*
D03*
Y80321D02*
D03*
Y79321D02*
D03*
Y77321D02*
D03*
Y76321D02*
D03*
X102700Y104321D02*
D03*
Y103321D02*
D03*
Y102321D02*
D03*
Y101321D02*
D03*
Y99321D02*
D03*
Y98321D02*
D03*
Y97321D02*
D03*
Y96321D02*
D03*
Y94321D02*
D03*
Y93321D02*
D03*
Y92321D02*
D03*
Y91321D02*
D03*
Y89321D02*
D03*
Y87321D02*
D03*
Y86321D02*
D03*
Y84321D02*
D03*
Y80321D02*
D03*
Y79321D02*
D03*
Y77321D02*
D03*
Y76321D02*
D03*
X101700Y106321D02*
D03*
Y104321D02*
D03*
Y103321D02*
D03*
Y102321D02*
D03*
Y101321D02*
D03*
Y99321D02*
D03*
Y98321D02*
D03*
Y97321D02*
D03*
Y96321D02*
D03*
Y94321D02*
D03*
Y93321D02*
D03*
Y92321D02*
D03*
Y91321D02*
D03*
Y89321D02*
D03*
Y88321D02*
D03*
Y87321D02*
D03*
Y86321D02*
D03*
Y84321D02*
D03*
Y83321D02*
D03*
Y82321D02*
D03*
Y80321D02*
D03*
Y79321D02*
D03*
Y77321D02*
D03*
Y76321D02*
D03*
X94200D02*
D03*
Y77321D02*
D03*
Y79321D02*
D03*
Y80321D02*
D03*
Y82321D02*
D03*
Y83321D02*
D03*
Y84321D02*
D03*
Y86321D02*
D03*
Y87321D02*
D03*
Y88321D02*
D03*
Y89321D02*
D03*
Y91321D02*
D03*
Y92321D02*
D03*
Y93321D02*
D03*
Y94321D02*
D03*
Y96321D02*
D03*
Y97321D02*
D03*
Y98321D02*
D03*
Y99321D02*
D03*
Y101321D02*
D03*
Y102321D02*
D03*
Y103321D02*
D03*
Y104321D02*
D03*
Y106321D02*
D03*
X95200Y76321D02*
D03*
Y77321D02*
D03*
Y79321D02*
D03*
Y80321D02*
D03*
Y84321D02*
D03*
Y87321D02*
D03*
Y89321D02*
D03*
Y91321D02*
D03*
Y92321D02*
D03*
Y93321D02*
D03*
Y94321D02*
D03*
Y96321D02*
D03*
Y97321D02*
D03*
Y98321D02*
D03*
Y99321D02*
D03*
Y101321D02*
D03*
Y102321D02*
D03*
Y103321D02*
D03*
Y104321D02*
D03*
X96200Y76321D02*
D03*
Y77321D02*
D03*
Y79321D02*
D03*
Y80321D02*
D03*
Y82321D02*
D03*
Y83321D02*
D03*
Y84321D02*
D03*
Y87321D02*
D03*
Y88321D02*
D03*
Y89321D02*
D03*
Y91321D02*
D03*
Y92321D02*
D03*
Y93321D02*
D03*
Y94321D02*
D03*
Y96321D02*
D03*
Y97321D02*
D03*
Y98321D02*
D03*
Y99321D02*
D03*
Y101321D02*
D03*
Y102321D02*
D03*
Y103321D02*
D03*
Y104321D02*
D03*
Y106321D02*
D03*
X95200D02*
D03*
Y88321D02*
D03*
Y82321D02*
D03*
Y83321D02*
D03*
X94200Y107321D02*
D03*
Y108321D02*
D03*
Y109321D02*
D03*
Y111321D02*
D03*
Y112321D02*
D03*
Y113321D02*
D03*
Y114321D02*
D03*
X95200Y107321D02*
D03*
Y108321D02*
D03*
Y109321D02*
D03*
Y111321D02*
D03*
Y112321D02*
D03*
Y113321D02*
D03*
Y114321D02*
D03*
X96200Y107321D02*
D03*
Y108321D02*
D03*
Y109321D02*
D03*
Y111321D02*
D03*
Y112321D02*
D03*
Y113321D02*
D03*
Y114321D02*
D03*
X95200Y86321D02*
D03*
X96200D02*
D03*
D28*
X88700Y110321D02*
D03*
X87700D02*
D03*
X86700D02*
D03*
X88700Y100321D02*
D03*
X86700Y75321D02*
D03*
X88700Y105321D02*
D03*
Y95321D02*
D03*
Y90321D02*
D03*
Y85321D02*
D03*
Y81321D02*
D03*
Y78321D02*
D03*
Y75321D02*
D03*
X87700Y105321D02*
D03*
Y100321D02*
D03*
Y95321D02*
D03*
Y90321D02*
D03*
Y85321D02*
D03*
Y81321D02*
D03*
Y78321D02*
D03*
Y75321D02*
D03*
X86700Y105321D02*
D03*
Y100321D02*
D03*
Y95321D02*
D03*
Y90321D02*
D03*
Y85321D02*
D03*
Y81321D02*
D03*
Y78321D02*
D03*
X81200Y110321D02*
D03*
X80200D02*
D03*
X79200D02*
D03*
X81200Y100321D02*
D03*
X79200Y75321D02*
D03*
X81200Y105321D02*
D03*
Y95321D02*
D03*
Y90321D02*
D03*
Y85321D02*
D03*
Y81321D02*
D03*
Y78321D02*
D03*
Y75321D02*
D03*
X80200Y105321D02*
D03*
Y100321D02*
D03*
Y95321D02*
D03*
Y90321D02*
D03*
Y85321D02*
D03*
Y81321D02*
D03*
Y78321D02*
D03*
Y75321D02*
D03*
X79200Y105321D02*
D03*
Y100321D02*
D03*
Y95321D02*
D03*
Y90321D02*
D03*
Y85321D02*
D03*
Y81321D02*
D03*
Y78321D02*
D03*
X103700Y110321D02*
D03*
X102700D02*
D03*
X101700D02*
D03*
X103700Y100321D02*
D03*
X101700Y75321D02*
D03*
X103700Y105321D02*
D03*
Y95321D02*
D03*
Y90321D02*
D03*
Y85321D02*
D03*
Y81321D02*
D03*
Y78321D02*
D03*
Y75321D02*
D03*
X102700Y105321D02*
D03*
Y100321D02*
D03*
Y95321D02*
D03*
Y90321D02*
D03*
Y85321D02*
D03*
Y81321D02*
D03*
Y78321D02*
D03*
Y75321D02*
D03*
X101700Y105321D02*
D03*
Y100321D02*
D03*
Y95321D02*
D03*
Y90321D02*
D03*
Y85321D02*
D03*
Y81321D02*
D03*
Y78321D02*
D03*
X94200D02*
D03*
Y81321D02*
D03*
Y85321D02*
D03*
Y90321D02*
D03*
Y95321D02*
D03*
Y100321D02*
D03*
Y105321D02*
D03*
X95200Y75321D02*
D03*
Y78321D02*
D03*
Y81321D02*
D03*
Y85321D02*
D03*
Y90321D02*
D03*
Y95321D02*
D03*
Y100321D02*
D03*
Y105321D02*
D03*
X96200Y75321D02*
D03*
Y78321D02*
D03*
Y81321D02*
D03*
Y85321D02*
D03*
Y90321D02*
D03*
Y95321D02*
D03*
Y105321D02*
D03*
X94200Y75321D02*
D03*
X96200Y100321D02*
D03*
X94200Y110321D02*
D03*
X95200D02*
D03*
X96200D02*
D03*
D29*
X87580Y116541D02*
D03*
Y73101D02*
D03*
X80080Y116541D02*
D03*
Y73101D02*
D03*
X102580Y116541D02*
D03*
Y73101D02*
D03*
X95080D02*
D03*
Y116541D02*
D03*
D30*
X76950Y75321D02*
D03*
Y78321D02*
D03*
Y81321D02*
D03*
Y85321D02*
D03*
Y90321D02*
D03*
Y95321D02*
D03*
Y100321D02*
D03*
Y105321D02*
D03*
Y110321D02*
D03*
X107200Y85321D02*
D03*
Y78321D02*
D03*
Y75321D02*
D03*
X106200Y95321D02*
D03*
X107200Y84321D02*
D03*
Y83321D02*
D03*
Y82321D02*
D03*
Y80321D02*
D03*
Y76321D02*
D03*
Y79321D02*
D03*
Y77321D02*
D03*
Y81321D02*
D03*
Y94321D02*
D03*
Y93321D02*
D03*
Y92321D02*
D03*
Y91321D02*
D03*
Y90321D02*
D03*
X106200D02*
D03*
X105200D02*
D03*
Y95321D02*
D03*
X107200Y99321D02*
D03*
Y98321D02*
D03*
Y97321D02*
D03*
Y96321D02*
D03*
X106200Y100321D02*
D03*
X105200D02*
D03*
X107200D02*
D03*
Y95321D02*
D03*
X99700Y89321D02*
D03*
X85200Y95321D02*
D03*
X83700D02*
D03*
X85200Y91321D02*
D03*
Y92321D02*
D03*
Y93321D02*
D03*
Y94321D02*
D03*
X92700Y83321D02*
D03*
Y95321D02*
D03*
X91200D02*
D03*
X92700Y94321D02*
D03*
Y93321D02*
D03*
Y92321D02*
D03*
Y91321D02*
D03*
Y90321D02*
D03*
X91200D02*
D03*
X90200D02*
D03*
Y95321D02*
D03*
X92700Y85321D02*
D03*
X90200D02*
D03*
X91200D02*
D03*
X92700Y86321D02*
D03*
Y87321D02*
D03*
Y84321D02*
D03*
X98700Y85321D02*
D03*
X99700D02*
D03*
X100200Y81321D02*
D03*
X98700D02*
D03*
X97700D02*
D03*
X99700Y93321D02*
D03*
X92700Y81321D02*
D03*
X91200D02*
D03*
X90200D02*
D03*
X85700D02*
D03*
X84700D02*
D03*
X83700D02*
D03*
X82700D02*
D03*
X85700Y89321D02*
D03*
Y88321D02*
D03*
Y87321D02*
D03*
Y86321D02*
D03*
X82700Y90321D02*
D03*
X85700D02*
D03*
X84700Y84321D02*
D03*
X85700D02*
D03*
Y85321D02*
D03*
X92700Y89321D02*
D03*
Y88321D02*
D03*
X85700Y83321D02*
D03*
X84700Y90321D02*
D03*
X83700D02*
D03*
X82700Y95321D02*
D03*
X98700Y93321D02*
D03*
Y89321D02*
D03*
D31*
X91450Y73071D02*
D03*
Y116571D02*
D03*
X76700Y73071D02*
D03*
Y116571D02*
D03*
X107200Y73071D02*
D03*
Y116571D02*
D03*
D32*
X98950Y74321D02*
D03*
X83950D02*
D03*
D33*
X98700Y90321D02*
D03*
Y91321D02*
D03*
X99700D02*
D03*
X98700Y92321D02*
D03*
X99700D02*
D03*
X98700Y94321D02*
D03*
X99700D02*
D03*
X98700Y95321D02*
D03*
X99700D02*
D03*
Y90321D02*
D03*
Y96321D02*
D03*
X98700D02*
D03*
M02*
