%FSLAX23Y23*%
%MOIN*%
G70*
G01*
G75*
%ADD10R,0.060X0.060*%
%ADD11O,0.071X0.014*%
%ADD12R,0.071X0.063*%
%ADD13O,0.014X0.071*%
%ADD14O,0.012X0.063*%
%ADD15R,0.018X0.053*%
%ADD16O,0.063X0.012*%
%ADD17R,0.024X0.079*%
%ADD18R,0.063X0.091*%
%ADD19R,0.022X0.053*%
%ADD20R,0.053X0.018*%
%ADD21R,0.018X0.053*%
%ADD22R,0.053X0.018*%
%ADD23R,0.071X0.063*%
%ADD24R,0.091X0.063*%
%ADD25R,0.059X0.051*%
%ADD26R,0.059X0.051*%
%ADD27R,0.106X0.063*%
%ADD28R,0.091X0.063*%
%ADD29R,0.079X0.024*%
%ADD30R,0.079X0.024*%
%ADD31R,0.100X0.070*%
%ADD32R,0.090X0.060*%
%ADD33R,0.100X0.100*%
%ADD34R,0.071X0.014*%
%ADD35R,0.070X0.060*%
%ADD36R,0.070X0.080*%
%ADD37R,0.120X0.090*%
%ADD38R,0.090X0.120*%
%ADD39R,0.080X0.025*%
%ADD40O,0.080X0.025*%
%ADD41R,0.040X0.050*%
%ADD42R,0.040X0.040*%
%ADD43R,0.063X0.012*%
%ADD44R,0.063X0.071*%
%ADD45R,0.050X0.060*%
%ADD46C,0.008*%
%ADD47C,0.030*%
%ADD48C,0.020*%
%ADD49C,0.012*%
%ADD50C,0.062*%
%ADD51R,0.062X0.062*%
%ADD52C,0.030*%
%ADD53C,0.050*%
%ADD54R,0.050X0.050*%
%ADD55C,0.036*%
%ADD56C,0.055*%
%ADD57C,0.150*%
%ADD58R,0.055X0.055*%
%ADD59C,0.065*%
%ADD60C,0.075*%
%ADD61C,0.015*%
%ADD62R,0.051X0.059*%
%ADD63R,0.051X0.059*%
%ADD64R,0.060X0.050*%
%ADD65C,0.010*%
%ADD66C,0.008*%
%ADD67C,0.010*%
%ADD68R,0.016X0.020*%
%ADD69C,0.006*%
%ADD70R,0.020X0.016*%
%ADD71R,0.064X0.064*%
%ADD72O,0.075X0.018*%
%ADD73R,0.075X0.067*%
%ADD74O,0.018X0.075*%
%ADD75O,0.016X0.067*%
%ADD76R,0.022X0.057*%
%ADD77O,0.067X0.016*%
%ADD78R,0.028X0.083*%
%ADD79R,0.067X0.095*%
%ADD80R,0.026X0.057*%
%ADD81R,0.057X0.022*%
%ADD82R,0.022X0.057*%
%ADD83R,0.057X0.022*%
%ADD84R,0.075X0.067*%
%ADD85R,0.095X0.067*%
%ADD86R,0.063X0.055*%
%ADD87R,0.063X0.055*%
%ADD88R,0.110X0.067*%
%ADD89R,0.095X0.067*%
%ADD90R,0.083X0.028*%
%ADD91R,0.083X0.028*%
%ADD92R,0.104X0.074*%
%ADD93R,0.094X0.064*%
%ADD94R,0.104X0.104*%
%ADD95R,0.075X0.018*%
%ADD96R,0.074X0.064*%
%ADD97R,0.074X0.084*%
%ADD98R,0.124X0.094*%
%ADD99R,0.094X0.124*%
%ADD100R,0.084X0.029*%
%ADD101O,0.084X0.029*%
%ADD102R,0.044X0.054*%
%ADD103R,0.044X0.044*%
%ADD104R,0.067X0.016*%
%ADD105R,0.067X0.075*%
%ADD106R,0.054X0.064*%
%ADD107C,0.066*%
%ADD108R,0.066X0.066*%
%ADD109C,0.034*%
%ADD110C,0.054*%
%ADD111R,0.054X0.054*%
%ADD112C,0.040*%
%ADD113C,0.059*%
%ADD114C,0.154*%
%ADD115R,0.059X0.059*%
%ADD116C,0.069*%
%ADD117C,0.079*%
%ADD118R,0.055X0.063*%
%ADD119R,0.055X0.063*%
%ADD120R,0.064X0.054*%
%AMTHD121*
7,0,0,0.079,0.059,0.015,45*
%
%ADD121THD121*%
%ADD122C,0.045*%
%ADD123C,0.058*%
%AMTHD124*
7,0,0,0.068,0.048,0.015,45*
%
%ADD124THD124*%
%AMTHD125*
7,0,0,0.060,0.040,0.015,45*
%
%ADD125THD125*%
%AMTHD126*
7,0,0,0.055,0.035,0.015,45*
%
%ADD126THD126*%
%ADD127C,0.140*%
%ADD128C,0.155*%
%AMTHD129*
7,0,0,0.075,0.055,0.015,45*
%
%ADD129THD129*%
%ADD130C,0.072*%
%AMTHD131*
7,0,0,0.082,0.062,0.015,45*
%
%ADD131THD131*%
%AMTHD132*
7,0,0,0.065,0.045,0.015,45*
%
%ADD132THD132*%
%ADD133C,0.080*%
%ADD134C,0.048*%
%AMTHD135*
7,0,0,0.058,0.038,0.015,45*
%
%ADD135THD135*%
%ADD136C,0.046*%
D46*
X3954Y-1717D02*
X3950Y-1721D01*
X3954Y-1725D01*
X3958Y-1721D01*
X3954Y-1717D01*
X4032Y-1664D02*
X4028Y-1656D01*
X4021Y-1649D01*
X4013Y-1645D01*
X3998D01*
X3990Y-1649D01*
X3983Y-1656D01*
X3979Y-1664D01*
X3975Y-1675D01*
Y-1695D01*
X3979Y-1706D01*
X3983Y-1714D01*
X3990Y-1721D01*
X3998Y-1725D01*
X4013D01*
X4021Y-1721D01*
X4028Y-1714D01*
X4032Y-1706D01*
Y-1695D01*
X4013D02*
X4032D01*
X4051Y-1687D02*
X4085D01*
X4096Y-1683D01*
X4100Y-1679D01*
X4104Y-1672D01*
Y-1660D01*
X4100Y-1653D01*
X4096Y-1649D01*
X4085Y-1645D01*
X4051D01*
Y-1725D01*
X4122Y-1660D02*
X4129Y-1656D01*
X4141Y-1645D01*
Y-1725D01*
D50*
X1640Y2040D02*
D03*
X1540D02*
D03*
D53*
X4810Y1015D02*
D03*
Y1115D02*
D03*
X4570Y1065D02*
D03*
X750Y800D02*
D03*
X5280Y2665D02*
D03*
X1550Y3750D02*
D03*
X2900D02*
D03*
X1500Y600D02*
D03*
X1900Y480D02*
D03*
X2450D02*
D03*
D56*
X3650Y2125D02*
D03*
Y2025D02*
D03*
Y1925D02*
D03*
Y1825D02*
D03*
Y1725D02*
D03*
X3750Y2225D02*
D03*
Y2125D02*
D03*
Y2025D02*
D03*
Y1925D02*
D03*
Y1825D02*
D03*
Y1725D02*
D03*
Y1625D02*
D03*
X3850Y2225D02*
D03*
Y2125D02*
D03*
Y1725D02*
D03*
X3950Y2225D02*
D03*
Y2125D02*
D03*
Y1725D02*
D03*
Y1625D02*
D03*
X4050Y2225D02*
D03*
Y2125D02*
D03*
Y2025D02*
D03*
Y1925D02*
D03*
Y1825D02*
D03*
Y1725D02*
D03*
Y1625D02*
D03*
X4150Y2125D02*
D03*
Y2025D02*
D03*
Y1925D02*
D03*
Y1825D02*
D03*
Y1725D02*
D03*
D59*
X400Y1450D02*
D03*
X300D02*
D03*
X400Y1150D02*
D03*
X300D02*
D03*
X200D02*
D03*
X300Y3250D02*
D03*
X400Y850D02*
D03*
X300Y450D02*
D03*
X200D02*
D03*
Y550D02*
D03*
Y750D02*
D03*
Y850D02*
D03*
Y1050D02*
D03*
Y1250D02*
D03*
Y1450D02*
D03*
Y1550D02*
D03*
Y1650D02*
D03*
Y1750D02*
D03*
Y1950D02*
D03*
Y2150D02*
D03*
Y2250D02*
D03*
Y2450D02*
D03*
Y2550D02*
D03*
Y2650D02*
D03*
Y2750D02*
D03*
Y2950D02*
D03*
Y3050D02*
D03*
Y3150D02*
D03*
Y3250D02*
D03*
Y3450D02*
D03*
X300Y550D02*
D03*
Y750D02*
D03*
Y850D02*
D03*
Y1050D02*
D03*
Y1250D02*
D03*
Y1550D02*
D03*
Y1650D02*
D03*
Y1750D02*
D03*
Y1950D02*
D03*
Y2050D02*
D03*
Y2150D02*
D03*
Y2250D02*
D03*
Y2450D02*
D03*
Y2550D02*
D03*
Y2650D02*
D03*
Y2750D02*
D03*
Y3050D02*
D03*
Y3150D02*
D03*
Y3450D02*
D03*
X400Y450D02*
D03*
Y550D02*
D03*
Y750D02*
D03*
Y1050D02*
D03*
Y1250D02*
D03*
Y1550D02*
D03*
Y1650D02*
D03*
Y1750D02*
D03*
Y1950D02*
D03*
Y2050D02*
D03*
Y2150D02*
D03*
Y2250D02*
D03*
Y2450D02*
D03*
Y2550D02*
D03*
Y2650D02*
D03*
Y2750D02*
D03*
Y2950D02*
D03*
Y3050D02*
D03*
Y3150D02*
D03*
Y3250D02*
D03*
Y3450D02*
D03*
X200Y2050D02*
D03*
X300Y2950D02*
D03*
X200Y3550D02*
D03*
Y3650D02*
D03*
Y3750D02*
D03*
Y3950D02*
D03*
Y4050D02*
D03*
Y4150D02*
D03*
Y4250D02*
D03*
X300Y3550D02*
D03*
Y3650D02*
D03*
Y3750D02*
D03*
Y3950D02*
D03*
Y4050D02*
D03*
Y4150D02*
D03*
Y4250D02*
D03*
X400Y3550D02*
D03*
Y3650D02*
D03*
Y3750D02*
D03*
Y3950D02*
D03*
Y4050D02*
D03*
Y4150D02*
D03*
Y4250D02*
D03*
X700Y350D02*
D03*
Y150D02*
D03*
D116*
X1440Y2470D02*
D03*
X1840D02*
D03*
X1740D02*
D03*
X1640D02*
D03*
X1540D02*
D03*
Y2370D02*
D03*
X1440D02*
D03*
X1340Y2470D02*
D03*
Y2370D02*
D03*
X1240Y2470D02*
D03*
Y2370D02*
D03*
X3670Y1115D02*
D03*
Y1015D02*
D03*
X5950Y2400D02*
D03*
Y2310D02*
D03*
Y2220D02*
D03*
Y2130D02*
D03*
Y2040D02*
D03*
X6050Y2445D02*
D03*
Y2355D02*
D03*
Y2175D02*
D03*
Y2085D02*
D03*
X6150Y2400D02*
D03*
Y2310D02*
D03*
Y2220D02*
D03*
Y2130D02*
D03*
Y2040D02*
D03*
X1700Y600D02*
D03*
Y500D02*
D03*
Y400D02*
D03*
Y300D02*
D03*
Y200D02*
D03*
X750Y1300D02*
D03*
Y1400D02*
D03*
Y1500D02*
D03*
Y1700D02*
D03*
X700Y4400D02*
D03*
X800D02*
D03*
Y4500D02*
D03*
X900Y4400D02*
D03*
Y4500D02*
D03*
X1000Y4400D02*
D03*
Y4500D02*
D03*
X1100Y4400D02*
D03*
D121*
X1840Y2370D02*
D03*
X1740D02*
D03*
X1640D02*
D03*
X6050Y2265D02*
D03*
X750Y1600D02*
D03*
X700Y4500D02*
D03*
X1100D02*
D03*
D122*
X1130Y2465D02*
D03*
X3460Y3780D02*
D03*
X3280Y2840D02*
D03*
X3930Y1040D02*
D03*
Y990D02*
D03*
X4810Y745D02*
D03*
X1680Y1250D02*
D03*
X900Y2385D02*
D03*
X1130Y2315D02*
D03*
X1200Y2235D02*
D03*
X1300D02*
D03*
X900Y2145D02*
D03*
X1350Y2235D02*
D03*
X4650Y531D02*
D03*
X5370Y425D02*
D03*
X4650Y415D02*
D03*
X5670Y425D02*
D03*
X4650Y465D02*
D03*
X5520Y425D02*
D03*
X4610Y499D02*
D03*
X4520Y565D02*
D03*
X4650Y594D02*
D03*
X4760Y745D02*
D03*
X5520Y685D02*
D03*
X4570Y562D02*
D03*
X4949Y745D02*
D03*
X5220Y685D02*
D03*
X4760Y295D02*
D03*
X4970Y295D02*
D03*
X4770Y80D02*
D03*
X4970D02*
D03*
X3820Y465D02*
D03*
X5110Y485D02*
D03*
X3820Y665D02*
D03*
X5110Y594D02*
D03*
X3920Y465D02*
D03*
X5110Y531D02*
D03*
X3920Y665D02*
D03*
X5110Y645D02*
D03*
X3930Y1090D02*
D03*
Y1140D02*
D03*
X4370Y665D02*
D03*
Y1165D02*
D03*
X5220Y405D02*
D03*
X5370Y195D02*
D03*
X5670D02*
D03*
X4960Y525D02*
D03*
X4870Y605D02*
D03*
X5500Y2405D02*
D03*
X5580Y1905D02*
D03*
X3500Y3810D02*
D03*
Y3750D02*
D03*
X3440Y3040D02*
D03*
X3500Y3390D02*
D03*
X2600Y3040D02*
D03*
X2074Y1906D02*
D03*
X1570Y2840D02*
D03*
X940Y3450D02*
D03*
X980Y3420D02*
D03*
X1590Y3790D02*
D03*
X1600Y3960D02*
D03*
X1640D02*
D03*
X1680D02*
D03*
X1830Y3160D02*
D03*
Y3120D02*
D03*
X1320Y3990D02*
D03*
X1290Y3960D02*
D03*
X1220D02*
D03*
X1160D02*
D03*
X1260Y3990D02*
D03*
X1190D02*
D03*
X980Y3800D02*
D03*
Y3740D02*
D03*
X940Y3770D02*
D03*
X1320Y1335D02*
D03*
X620Y1880D02*
D03*
X1670Y1980D02*
D03*
X580Y1880D02*
D03*
X1765Y2080D02*
D03*
X1600Y1590D02*
D03*
X940Y3710D02*
D03*
X5060Y1855D02*
D03*
Y1805D02*
D03*
Y2105D02*
D03*
Y2055D02*
D03*
X5100Y2355D02*
D03*
Y2405D02*
D03*
Y2505D02*
D03*
Y2555D02*
D03*
X1090Y1535D02*
D03*
X1130Y1435D02*
D03*
X1070Y2145D02*
D03*
X1320Y1385D02*
D03*
Y1635D02*
D03*
X1350Y1955D02*
D03*
X1130Y2215D02*
D03*
X1200Y3340D02*
D03*
Y3720D02*
D03*
X1300Y3100D02*
D03*
Y3750D02*
D03*
X1340Y3780D02*
D03*
X1550Y3100D02*
D03*
X1640Y3140D02*
D03*
X5280Y2155D02*
D03*
X3040Y3100D02*
D03*
X3150D02*
D03*
X1640Y3520D02*
D03*
X950Y3965D02*
D03*
X1280Y2880D02*
D03*
X1250Y2840D02*
D03*
X980Y3240D02*
D03*
X940Y3270D02*
D03*
X1370Y2840D02*
D03*
X1340Y2880D02*
D03*
X1190Y2840D02*
D03*
X1160Y2880D02*
D03*
X980Y3060D02*
D03*
X940Y3090D02*
D03*
X980Y3300D02*
D03*
X940Y3330D02*
D03*
X980Y3360D02*
D03*
X940Y3390D02*
D03*
X1310Y2840D02*
D03*
X1220Y2880D02*
D03*
X3130Y2840D02*
D03*
X1540Y2880D02*
D03*
X3100D02*
D03*
X2780D02*
D03*
X2810Y2840D02*
D03*
X2840Y2880D02*
D03*
X2870Y2840D02*
D03*
X2900Y2880D02*
D03*
X2930Y2840D02*
D03*
X2960Y2880D02*
D03*
X3010Y2840D02*
D03*
X3040Y2880D02*
D03*
X3070Y2840D02*
D03*
X1320Y1285D02*
D03*
X1400Y2160D02*
D03*
X3190Y2880D02*
D03*
X2150Y740D02*
D03*
X1900Y1260D02*
D03*
X2350Y740D02*
D03*
X2250Y1220D02*
D03*
X2400D02*
D03*
X2560D02*
D03*
Y1340D02*
D03*
X1900Y1460D02*
D03*
Y1580D02*
D03*
Y1780D02*
D03*
X2000Y1860D02*
D03*
X2450Y1460D02*
D03*
Y1860D02*
D03*
X2560Y1460D02*
D03*
Y1580D02*
D03*
Y1640D02*
D03*
Y1780D02*
D03*
X2230Y1900D02*
D03*
X2400D02*
D03*
X2560D02*
D03*
X2770Y220D02*
D03*
X2700Y460D02*
D03*
X3900Y2030D02*
D03*
X2900Y3100D02*
D03*
X4390Y1560D02*
D03*
X3240Y3140D02*
D03*
X2800Y3340D02*
D03*
X3240Y3520D02*
D03*
X4400Y3600D02*
D03*
X2800Y3720D02*
D03*
X3150Y3750D02*
D03*
X6270Y3550D02*
D03*
X5200Y3600D02*
D03*
X5900Y4480D02*
D03*
X6000Y3600D02*
D03*
X6100Y4480D02*
D03*
X2000Y250D02*
D03*
X2770Y460D02*
D03*
X2700Y1140D02*
D03*
Y2420D02*
D03*
X3220Y2840D02*
D03*
X1725Y1795D02*
D03*
X880Y3480D02*
D03*
X1400Y3980D02*
D03*
X2850Y460D02*
D03*
X2000Y1030D02*
D03*
X1835Y2005D02*
D03*
X3000Y3960D02*
D03*
X2060Y1220D02*
D03*
X2000D02*
D03*
X2050Y1000D02*
D03*
X2080Y1400D02*
D03*
X2231Y1040D02*
D03*
X2300Y480D02*
D03*
X1480Y3960D02*
D03*
X3080D02*
D03*
X2040Y2120D02*
D03*
X1640Y1820D02*
D03*
X1740Y2240D02*
D03*
X1780Y2200D02*
D03*
X1820Y2240D02*
D03*
X1560Y1340D02*
D03*
Y1390D02*
D03*
Y1440D02*
D03*
X750Y1840D02*
D03*
X1600Y1750D02*
D03*
X1640Y840D02*
D03*
X1930Y980D02*
D03*
X1900Y760D02*
D03*
Y940D02*
D03*
X1870Y725D02*
D03*
Y980D02*
D03*
X540Y1810D02*
D03*
X1610Y1940D02*
D03*
X1680Y1910D02*
D03*
X3500Y3450D02*
D03*
X3460Y3420D02*
D03*
X4310Y1055D02*
D03*
X3460Y3480D02*
D03*
X4310Y1105D02*
D03*
X1700Y810D02*
D03*
X1960Y940D02*
D03*
X1600Y870D02*
D03*
X1840Y940D02*
D03*
X1680Y1190D02*
D03*
X1640Y1220D02*
D03*
Y1280D02*
D03*
X1965Y1540D02*
D03*
X1780Y2880D02*
D03*
X1640Y1500D02*
D03*
X1680Y1530D02*
D03*
X1640Y1340D02*
D03*
Y1440D02*
D03*
X1680Y1470D02*
D03*
X2300Y980D02*
D03*
X2450Y1040D02*
D03*
X1440Y3960D02*
D03*
X4270Y2075D02*
D03*
X3040Y3960D02*
D03*
X5710Y3400D02*
D03*
X6340Y3425D02*
D03*
X2450Y980D02*
D03*
X1360Y3940D02*
D03*
X4295Y1925D02*
D03*
X2960Y3960D02*
D03*
X6270Y3750D02*
D03*
X3490Y2660D02*
D03*
X1600Y2880D02*
D03*
X3500Y1825D02*
D03*
X4910Y4000D02*
D03*
X3520Y2695D02*
D03*
X1630Y2840D02*
D03*
X3560Y1875D02*
D03*
X4910Y3950D02*
D03*
X3500Y1925D02*
D03*
X3550Y2660D02*
D03*
X1660Y2880D02*
D03*
X4910Y3900D02*
D03*
X3560Y1975D02*
D03*
X3580Y2695D02*
D03*
X1690Y2840D02*
D03*
X4910Y3850D02*
D03*
X3500Y2025D02*
D03*
X1725Y2880D02*
D03*
X3610Y2660D02*
D03*
X4910Y3800D02*
D03*
X3560Y2075D02*
D03*
X1750Y2840D02*
D03*
X3640Y2695D02*
D03*
X4110Y3350D02*
D03*
X4910D02*
D03*
X3500Y2125D02*
D03*
X3670Y2660D02*
D03*
X4110Y3300D02*
D03*
X4910D02*
D03*
X3560Y2180D02*
D03*
X3700Y2695D02*
D03*
X4110Y3250D02*
D03*
X4910D02*
D03*
X3730Y2660D02*
D03*
X4110Y3200D02*
D03*
X4910D02*
D03*
X3760Y2695D02*
D03*
X4110Y3150D02*
D03*
X4910D02*
D03*
X4235Y2340D02*
D03*
X6270Y3200D02*
D03*
X4120Y2365D02*
D03*
X6270Y3250D02*
D03*
X4190Y2390D02*
D03*
X6270Y3300D02*
D03*
Y3350D02*
D03*
X4160Y2440D02*
D03*
X6270Y3400D02*
D03*
X5710Y3775D02*
D03*
X6270Y3800D02*
D03*
X4130Y2490D02*
D03*
X5710Y3825D02*
D03*
X6270Y3850D02*
D03*
X5710Y3875D02*
D03*
X6270Y3900D02*
D03*
X2550Y3160D02*
D03*
X3010Y1760D02*
D03*
X4110Y3700D02*
D03*
X2520Y3190D02*
D03*
X2980Y1790D02*
D03*
X4110Y3650D02*
D03*
X2490Y3220D02*
D03*
X2950Y1820D02*
D03*
X4110Y3500D02*
D03*
X2460Y3250D02*
D03*
X2920Y1850D02*
D03*
X4110Y3450D02*
D03*
X2430Y3280D02*
D03*
X2890Y1880D02*
D03*
X4670Y3450D02*
D03*
X2400Y3320D02*
D03*
X2860Y1910D02*
D03*
X4670Y3500D02*
D03*
X2370Y3350D02*
D03*
X2830Y1940D02*
D03*
X4670Y3650D02*
D03*
X2340Y3390D02*
D03*
X2800Y1970D02*
D03*
X4670Y3700D02*
D03*
X2310Y3420D02*
D03*
X2550Y2160D02*
D03*
X4910Y3700D02*
D03*
X2280Y3450D02*
D03*
X2520Y2120D02*
D03*
X4910Y3650D02*
D03*
X2250Y3490D02*
D03*
X2490Y2160D02*
D03*
X4910Y3500D02*
D03*
X2220Y3520D02*
D03*
X2460Y2120D02*
D03*
X4910Y3450D02*
D03*
X2190Y3550D02*
D03*
X2430Y2160D02*
D03*
X5470Y3450D02*
D03*
X2160Y3580D02*
D03*
X2400Y2120D02*
D03*
X5470Y3500D02*
D03*
X2130Y3610D02*
D03*
X2370Y2160D02*
D03*
X5470Y3650D02*
D03*
X2100Y3640D02*
D03*
X2340Y2120D02*
D03*
X5470Y3700D02*
D03*
X2070Y3690D02*
D03*
X2310Y2160D02*
D03*
X5710Y3700D02*
D03*
X2040Y3720D02*
D03*
X2280Y2120D02*
D03*
X5710Y3650D02*
D03*
X2010Y3750D02*
D03*
X2250Y2160D02*
D03*
X5710Y3500D02*
D03*
X1980Y3780D02*
D03*
X2220Y2120D02*
D03*
X5710Y3450D02*
D03*
X2190Y2160D02*
D03*
X6270Y3450D02*
D03*
X2160Y2120D02*
D03*
X6270Y3500D02*
D03*
X2130Y2160D02*
D03*
X6270Y3650D02*
D03*
X2100Y2120D02*
D03*
X6270Y3700D02*
D03*
X2500Y980D02*
D03*
X2620Y1020D02*
D03*
X2350Y980D02*
D03*
X2640D02*
D03*
X6340Y3780D02*
D03*
X2660Y940D02*
D03*
X4355Y1825D02*
D03*
X2680Y900D02*
D03*
X6270Y3950D02*
D03*
X2150Y980D02*
D03*
X1510Y2840D02*
D03*
X2450Y1550D02*
D03*
X2660Y2380D02*
D03*
X3250Y2880D02*
D03*
X980Y3120D02*
D03*
X940Y3150D02*
D03*
Y3210D02*
D03*
X980Y3180D02*
D03*
X940Y3540D02*
D03*
Y3600D02*
D03*
X980Y3510D02*
D03*
Y3570D02*
D03*
Y3630D02*
D03*
X940Y3660D02*
D03*
X1220Y3640D02*
D03*
Y3420D02*
D03*
X1580Y3380D02*
D03*
X2820Y3420D02*
D03*
X1260Y3390D02*
D03*
X1620Y3420D02*
D03*
X3220D02*
D03*
X2820Y3480D02*
D03*
X2185Y4450D02*
D03*
X3220Y3640D02*
D03*
X1620D02*
D03*
X2820D02*
D03*
X1640Y1560D02*
D03*
X5100Y2305D02*
D03*
X1660Y1750D02*
D03*
X5100Y2605D02*
D03*
X1250Y1875D02*
D03*
X1320Y1435D02*
D03*
X1425Y1665D02*
D03*
X2310Y1065D02*
D03*
X1320Y1535D02*
D03*
X1070Y2385D02*
D03*
X1320Y1485D02*
D03*
X1520Y1720D02*
D03*
X3395Y2590D02*
D03*
X4585Y1905D02*
D03*
X4760D02*
D03*
X1520Y1780D02*
D03*
X4560Y2005D02*
D03*
X3345Y2565D02*
D03*
X4760Y2005D02*
D03*
X5500Y1805D02*
D03*
Y1755D02*
D03*
Y2005D02*
D03*
Y2055D02*
D03*
X1090Y1635D02*
D03*
X1130Y1485D02*
D03*
Y1585D02*
D03*
X1090Y1385D02*
D03*
X1600Y1880D02*
D03*
X5500Y2255D02*
D03*
X3460Y3720D02*
D03*
X5500Y2305D02*
D03*
Y2355D02*
D03*
X1640Y1160D02*
D03*
X900Y1965D02*
D03*
X5370Y685D02*
D03*
X3520Y965D02*
D03*
X3560Y3500D02*
D03*
X3580Y3540D02*
D03*
X5000Y1805D02*
D03*
X5500Y1855D02*
D03*
X1520Y1850D02*
D03*
X3430Y2540D02*
D03*
X4535Y1805D02*
D03*
X4760D02*
D03*
X5000Y1905D02*
D03*
Y2005D02*
D03*
X5280Y1955D02*
D03*
X5500Y2105D02*
D03*
X5280Y2455D02*
D03*
X5500Y2605D02*
D03*
X3560Y3620D02*
D03*
Y3700D02*
D03*
X2070Y2160D02*
D03*
X1830Y3010D02*
D03*
X5630Y1425D02*
D03*
X3470Y565D02*
D03*
X3770D02*
D03*
X1660Y2135D02*
D03*
X5615Y1925D02*
D03*
X5580Y2155D02*
D03*
X510Y3480D02*
D03*
X580Y1710D02*
D03*
X540Y2580D02*
D03*
Y2480D02*
D03*
Y2680D02*
D03*
Y3080D02*
D03*
Y3180D02*
D03*
Y2310D02*
D03*
Y2210D02*
D03*
Y2110D02*
D03*
Y2010D02*
D03*
Y3710D02*
D03*
Y3810D02*
D03*
Y4110D02*
D03*
Y4010D02*
D03*
Y2780D02*
D03*
Y2980D02*
D03*
Y3610D02*
D03*
Y3510D02*
D03*
Y4210D02*
D03*
D123*
X2000Y4500D02*
D03*
X1900D02*
D03*
X1800D02*
D03*
X1600D02*
D03*
X1500D02*
D03*
X1400D02*
D03*
X2000Y4400D02*
D03*
X1900D02*
D03*
X1800D02*
D03*
X1600D02*
D03*
X1500D02*
D03*
X1400D02*
D03*
X1700Y4500D02*
D03*
Y4400D02*
D03*
X3670Y465D02*
D03*
Y665D02*
D03*
X1100Y3000D02*
D03*
X4770Y1300D02*
D03*
X4840D02*
D03*
X4910Y1300D02*
D03*
X4980D02*
D03*
X4770Y900D02*
D03*
X4910D02*
D03*
X4980D02*
D03*
X5050D02*
D03*
D124*
X2100Y4500D02*
D03*
Y4400D02*
D03*
X5050Y1300D02*
D03*
X4840Y900D02*
D03*
D125*
X750Y500D02*
D03*
X1500Y150D02*
D03*
X1900Y200D02*
D03*
X2450Y220D02*
D03*
X5010Y1065D02*
D03*
D126*
X1090Y1285D02*
D03*
X1320Y1585D02*
D03*
X1140Y1635D02*
D03*
X1900Y1400D02*
D03*
Y1520D02*
D03*
Y1720D02*
D03*
X2050Y480D02*
D03*
X2300Y160D02*
D03*
X2500Y740D02*
D03*
X1940Y1220D02*
D03*
X2120D02*
D03*
X2200D02*
D03*
X2300D02*
D03*
X2000Y1640D02*
D03*
X2450Y1220D02*
D03*
X2560Y1280D02*
D03*
X2450Y1640D02*
D03*
X2560Y1400D02*
D03*
Y1520D02*
D03*
Y1700D02*
D03*
X1010Y2145D02*
D03*
X880Y2420D02*
D03*
X1160Y1955D02*
D03*
X1130Y2065D02*
D03*
X1200Y3140D02*
D03*
Y3523D02*
D03*
X1350Y3080D02*
D03*
X1300Y3310D02*
D03*
X1230Y3780D02*
D03*
X1300Y3540D02*
D03*
X2150Y1900D02*
D03*
X2210Y2050D02*
D03*
X2310Y1900D02*
D03*
X2500D02*
D03*
X2560Y1840D02*
D03*
X1510Y3080D02*
D03*
X1550Y3310D02*
D03*
Y3540D02*
D03*
X1360Y3720D02*
D03*
X1640Y3340D02*
D03*
X540Y3905D02*
D03*
X1640Y3720D02*
D03*
X2700Y220D02*
D03*
X2850D02*
D03*
X3100Y300D02*
D03*
X3670Y195D02*
D03*
X4370Y465D02*
D03*
X3870Y925D02*
D03*
X4370Y965D02*
D03*
X4870Y425D02*
D03*
X5220Y225D02*
D03*
X5520Y195D02*
D03*
X4930Y425D02*
D03*
X5220Y455D02*
D03*
X5440Y465D02*
D03*
X5170Y1185D02*
D03*
X2800Y3140D02*
D03*
X2900Y3310D02*
D03*
X2980Y3080D02*
D03*
X3100D02*
D03*
X2800Y3520D02*
D03*
X2900Y3540D02*
D03*
X2830Y3780D02*
D03*
X3060D02*
D03*
X3150Y3310D02*
D03*
Y3540D02*
D03*
X3240Y3340D02*
D03*
Y3720D02*
D03*
X3750Y3900D02*
D03*
X5060Y1755D02*
D03*
X3900Y1810D02*
D03*
X5060Y1955D02*
D03*
X5100Y2255D02*
D03*
Y2455D02*
D03*
X5280Y1755D02*
D03*
Y2255D02*
D03*
X5500Y2555D02*
D03*
X4110Y3550D02*
D03*
X4910D02*
D03*
X4670Y3600D02*
D03*
X4400Y3820D02*
D03*
X5200D02*
D03*
X5470Y3600D02*
D03*
X5710Y3550D02*
D03*
X6270Y3600D02*
D03*
X6000Y3820D02*
D03*
X4520Y195D02*
D03*
D127*
X6400Y4450D02*
D03*
Y150D02*
D03*
X100D02*
D03*
Y4450D02*
D03*
D128*
X6050Y2722D02*
D03*
Y1738D02*
D03*
X1100Y883D02*
D03*
D129*
X200Y350D02*
D03*
Y650D02*
D03*
Y950D02*
D03*
Y1350D02*
D03*
Y1850D02*
D03*
Y2350D02*
D03*
Y2850D02*
D03*
Y3350D02*
D03*
X300Y350D02*
D03*
Y950D02*
D03*
Y1350D02*
D03*
Y1850D02*
D03*
Y2350D02*
D03*
Y2850D02*
D03*
Y3350D02*
D03*
X400Y350D02*
D03*
Y650D02*
D03*
Y950D02*
D03*
Y1350D02*
D03*
Y1850D02*
D03*
Y2350D02*
D03*
Y2850D02*
D03*
Y3350D02*
D03*
X300Y650D02*
D03*
X200Y3850D02*
D03*
X300D02*
D03*
X400D02*
D03*
D130*
X1200Y150D02*
D03*
X1000D02*
D03*
D131*
X1100D02*
D03*
D132*
X3850Y1625D02*
D03*
D133*
X5570Y1360D02*
D03*
X5750Y900D02*
D03*
X4630Y1300D02*
D03*
X5750D02*
D03*
X5470Y840D02*
D03*
X4630Y900D02*
D03*
D134*
X2725Y2845D02*
D03*
X2840Y1045D02*
D03*
X2595Y2240D02*
D03*
X3290Y1140D02*
D03*
X2815Y1130D02*
D03*
X2500Y1490D02*
D03*
X4700Y1565D02*
D03*
X4620Y1550D02*
D03*
X1830Y3065D02*
D03*
X5775Y2185D02*
D03*
X5695Y2330D02*
D03*
X5865Y2420D02*
D03*
X5725Y1935D02*
D03*
X5820Y2355D02*
D03*
X4037Y3103D02*
D03*
X5575Y1645D02*
D03*
X1405Y2800D02*
D03*
X2695Y2990D02*
D03*
X5155Y2725D02*
D03*
X5170Y2675D02*
D03*
X1600Y3690D02*
D03*
X1540Y3960D02*
D03*
D135*
X3870Y195D02*
D03*
D136*
X3730Y2290D02*
D03*
X3760Y2315D02*
D03*
X4000D02*
D03*
X3900Y2390D02*
D03*
X4050Y2415D02*
D03*
X3850Y2440D02*
D03*
X885Y2030D02*
D03*
X4040Y2515D02*
D03*
X4070Y2465D02*
D03*
M02*
