G04 start of page 8 for group -4079 idx -4079
G04 Title: (unknown), topsilk *
G04 Creator: pcb 1.99w *
G04 CreationDate: Wed Jan  2 23:41:37 2008 UTC *
G04 For: dan *
G04 Format: Gerber/RS-274X *
G04 PCB-Dimensions: 350000 330000 *
G04 PCB-Coordinate-Origin: lower left *
%MOIN*%
%FSLAX24Y24*%
%LNFRONTSILK*%
%ADD29C,0.0080*%
%ADD30C,0.0118*%
%ADD31C,0.0112*%
%ADD32C,0.0100*%
%ADD33C,0.0300*%
G54D29*X4350Y4850D02*Y4190D01*
X4680D01*
X4878Y4520D02*X5125D01*
X4878Y4190D02*X5208D01*
X4878Y4850D02*Y4190D01*
Y4850D02*X5208D01*
X5488D02*Y4190D01*
X5736Y4850D02*X5818Y4767D01*
Y4272D01*
X5736Y4190D02*X5818Y4272D01*
X5406Y4190D02*X5736D01*
X5406Y4850D02*X5736D01*
X6313D02*X6478D01*
X6396D02*Y4190D01*
X6313D02*X6478D01*
X6759Y4437D02*Y4190D01*
Y4437D02*X6842Y4520D01*
X6924D01*
X7007Y4437D01*
Y4190D01*
X6677Y4520D02*X6759Y4437D01*
X7287Y4850D02*Y4272D01*
X7370Y4190D01*
X7205Y4602D02*X7370D01*
X7617Y4190D02*X7865D01*
X7535Y4272D02*X7617Y4190D01*
X7535Y4437D02*Y4272D01*
Y4437D02*X7617Y4520D01*
X7782D01*
X7865Y4437D01*
X7535Y4355D02*X7865D01*
Y4437D02*Y4355D01*
X8146Y4437D02*Y4190D01*
Y4437D02*X8228Y4520D01*
X8393D01*
X8063D02*X8146Y4437D01*
X8674Y4767D02*Y4190D01*
Y4767D02*X8756Y4850D01*
X8839D01*
X8591Y4520D02*X8756D01*
X9251D02*X9334Y4437D01*
X9086Y4520D02*X9251D01*
X9004Y4437D02*X9086Y4520D01*
X9004Y4437D02*Y4272D01*
X9086Y4190D01*
X9334Y4520D02*Y4272D01*
X9416Y4190D01*
X9086D02*X9251D01*
X9334Y4272D01*
X9697Y4520D02*X9945D01*
X9615Y4437D02*X9697Y4520D01*
X9615Y4437D02*Y4272D01*
X9697Y4190D01*
X9945D01*
X10225D02*X10473D01*
X10143Y4272D02*X10225Y4190D01*
X10143Y4437D02*Y4272D01*
Y4437D02*X10225Y4520D01*
X10390D01*
X10473Y4437D01*
X10143Y4355D02*X10473D01*
Y4437D02*Y4355D01*
X14550Y1520D02*X14780D01*
X14665Y1635D02*Y1405D01*
X14918Y1750D02*Y1692D01*
X15205Y1405D01*
Y1290D01*
X14918Y1405D02*Y1290D01*
Y1405D02*X15205Y1692D01*
Y1750D02*Y1692D01*
X12550Y1520D02*X12780D01*
X12918Y1750D02*Y1692D01*
X13205Y1405D01*
Y1290D01*
X12918Y1405D02*Y1290D01*
Y1405D02*X13205Y1692D01*
Y1750D02*Y1692D01*
X20450Y1470D02*X20680D01*
X20565Y1585D02*Y1355D01*
X20818Y1700D02*Y1642D01*
X20933Y1527D01*
X21048Y1642D01*
Y1700D02*Y1642D01*
X20933Y1527D02*Y1240D01*
X18550Y1520D02*X18780D01*
X18918Y1750D02*Y1692D01*
X19033Y1577D01*
X19148Y1692D01*
Y1750D02*Y1692D01*
X19033Y1577D02*Y1290D01*
G54D30*X18850Y30150D02*Y28970D01*
Y29412D02*X18997Y29560D01*
X19292D01*
X19440Y29412D01*
Y28970D01*
X20236Y29560D02*X20384Y29412D01*
X19941Y29560D02*X20236D01*
X19794Y29412D02*X19941Y29560D01*
X19794Y29412D02*Y29117D01*
X19941Y28970D01*
X20384Y29560D02*Y29117D01*
X20531Y28970D01*
X19941D02*X20236D01*
X20384Y29117D01*
X21033Y29412D02*Y28970D01*
Y29412D02*X21181Y29560D01*
X21476D01*
X20886D02*X21033Y29412D01*
X21977D02*Y28970D01*
Y29412D02*X22125Y29560D01*
X22420D01*
X21830D02*X21977Y29412D01*
X22774Y29560D02*Y29117D01*
X22922Y28970D01*
X23364Y29560D02*Y28675D01*
X23217Y28527D02*X23364Y28675D01*
X22922Y28527D02*X23217D01*
X22774Y28675D02*X22922Y28527D01*
Y28970D02*X23217D01*
X23364Y29117D01*
X24397Y28970D02*X24839D01*
X24249Y29117D02*X24397Y28970D01*
X24249Y29412D02*Y29117D01*
Y29412D02*X24397Y29560D01*
X24692D01*
X24839Y29412D01*
X24249Y29265D02*X24839D01*
Y29412D02*Y29265D01*
X25636Y29560D02*X25784Y29412D01*
X25341Y29560D02*X25636D01*
X25194Y29412D02*X25341Y29560D01*
X25194Y29412D02*Y29117D01*
X25341Y28970D01*
X25784Y29560D02*Y29117D01*
X25931Y28970D01*
X25341D02*X25636D01*
X25784Y29117D01*
X26433Y30150D02*Y29117D01*
X26581Y28970D01*
X26286Y29707D02*X26581D01*
X26876Y29412D02*Y29117D01*
Y29412D02*X27023Y29560D01*
X27318D01*
X27466Y29412D01*
Y29117D01*
X27318Y28970D02*X27466Y29117D01*
X27023Y28970D02*X27318D01*
X26876Y29117D02*X27023Y28970D01*
X27968Y29412D02*Y28970D01*
Y29412D02*X28115Y29560D01*
X28263D01*
X28410Y29412D01*
Y28970D01*
X27820Y29560D02*X27968Y29412D01*
G54D31*X5250Y30050D02*Y28930D01*
Y30050D02*X5810D01*
X5250Y29490D02*X5670D01*
X6146Y30050D02*Y28930D01*
X6706D01*
X7042Y29910D02*Y28930D01*
Y29910D02*X7182Y30050D01*
X7602D01*
X7742Y29910D01*
Y28930D01*
X7042Y29490D02*X7742D01*
X8078Y30050D02*X8638D01*
X8778Y29910D01*
Y29630D01*
X8638Y29490D02*X8778Y29630D01*
X8218Y29490D02*X8638D01*
X8218Y30050D02*Y28930D01*
Y29490D02*X8778Y28930D01*
X9115Y29490D02*X9535D01*
X9115Y28930D02*X9675D01*
X9115Y30050D02*Y28930D01*
Y30050D02*X9675D01*
X11075D02*X11215Y29910D01*
X10655Y30050D02*X11075D01*
X10515Y29910D02*X10655Y30050D01*
X10515Y29910D02*Y29070D01*
X10655Y28930D01*
X11075D01*
X11215Y29070D01*
Y29350D02*Y29070D01*
X11075Y29490D02*X11215Y29350D01*
X10795Y29490D02*X11075D01*
X11551D02*X11971D01*
X11551Y28930D02*X12111D01*
X11551Y30050D02*Y28930D01*
Y30050D02*X12111D01*
X12447D02*Y28930D01*
Y30050D02*Y29910D01*
X13147Y29210D01*
Y30050D02*Y28930D01*
X13484Y29490D02*X13904D01*
X13484Y28930D02*X14044D01*
X13484Y30050D02*Y28930D01*
Y30050D02*X14044D01*
X14940D02*X15080Y29910D01*
X14520Y30050D02*X14940D01*
X14380Y29910D02*X14520Y30050D01*
X14380Y29910D02*Y29630D01*
X14520Y29490D01*
X14940D01*
X15080Y29350D01*
Y29070D01*
X14940Y28930D02*X15080Y29070D01*
X14520Y28930D02*X14940D01*
X14380Y29070D02*X14520Y28930D01*
X15416Y30050D02*X15696D01*
X15556D02*Y28930D01*
X15416D02*X15696D01*
X16593Y30050D02*X16733Y29910D01*
X16173Y30050D02*X16593D01*
X16033Y29910D02*X16173Y30050D01*
X16033Y29910D02*Y29630D01*
X16173Y29490D01*
X16593D01*
X16733Y29350D01*
Y29070D01*
X16593Y28930D02*X16733Y29070D01*
X16173Y28930D02*X16593D01*
X16033Y29070D02*X16173Y28930D01*
G54D29*X22100Y1742D02*Y1340D01*
Y1742D02*X22157Y1800D01*
X22330D01*
X22387Y1742D01*
Y1340D01*
X22100Y1570D02*X22387D01*
X22525Y1800D02*Y1340D01*
Y1800D02*Y1742D01*
X22813Y1455D01*
Y1800D02*Y1340D01*
X22951Y1742D02*Y1397D01*
Y1742D02*X23008Y1800D01*
X23123D01*
X23181Y1742D01*
Y1397D01*
X23123Y1340D02*X23181Y1397D01*
X23008Y1340D02*X23123D01*
X22951Y1397D02*X23008Y1340D01*
X23376Y1800D02*Y1340D01*
X23549Y1800D02*X23606Y1742D01*
Y1397D01*
X23549Y1340D02*X23606Y1397D01*
X23319Y1340D02*X23549D01*
X23319Y1800D02*X23549D01*
X23744Y1570D02*X23917D01*
X23744Y1340D02*X23974D01*
X23744Y1800D02*Y1340D01*
Y1800D02*X23974D01*
G54D32*X10350Y13050D02*Y12500D01*
X11500D02*X9200D01*
Y6800D01*
X11500D01*
Y12500D01*
X10350Y6800D02*Y6150D01*
X5030Y20800D02*X8780D01*
X5030Y18280D02*Y20800D01*
X3870Y12350D02*X3860Y17120D01*
X5030Y8670D02*Y11190D01*
X8780Y8670D02*X5030D01*
X8780Y20800D02*Y8670D01*
X4450Y17700D02*G75*G03X5030Y18280I0J580D01*G01*
X4450Y17700D02*G75*G03X3870Y17120I0J-580D01*G01*
Y12350D02*G75*G03X4450Y11770I580J0D01*G01*
X5030Y11190D02*G75*G03X4450Y11770I-580J0D01*G01*
X11800Y16880D02*Y16760D01*
X10480D01*
Y16880D01*
X11800Y18060D02*Y18180D01*
X10480D01*
Y18060D01*
X11670Y16860D02*X10610D01*
X10050Y21750D02*X8050D01*
Y22750D01*
X10050D01*
Y21750D01*
X10650Y22250D02*X10050D01*
X8050D02*X7450D01*
X15300Y21600D02*Y21650D01*
X13300D01*
Y21600D01*
Y20700D02*Y20650D01*
X15300D01*
Y20700D01*
X15800Y21750D02*Y22750D01*
X12800D01*
Y21750D01*
X15800D01*
X13700Y19500D02*X15300D01*
X13700Y20200D02*Y19500D01*
X15300Y20200D02*X13700D01*
X15300Y19500D02*Y20200D01*
X12300Y19150D02*X14300D01*
Y18150D01*
X12300D01*
Y19150D01*
X11700Y18650D02*X12300D01*
X14300D02*X14900D01*
X12300Y14650D02*X13300D01*
Y17650D01*
X12300D01*
Y14650D01*
X12100Y14850D02*Y16450D01*
X11400Y14850D02*X12100D01*
X11400Y16450D02*Y14850D01*
X12100Y16450D02*X11400D01*
X12050Y19800D02*X10450D01*
X12050Y19100D02*Y19800D01*
X10450Y19100D02*X12050D01*
X10450Y19800D02*Y19100D01*
X25250Y14250D02*Y10250D01*
X29250D01*
Y14250D01*
X25250D02*X26750D01*
X27750D02*X29250D01*
X26750D02*G75*G03X27750Y14250I500J0D01*G01*
X27900Y15350D02*X26300D01*
X27900Y14650D02*Y15350D01*
X26300Y14650D02*X27900D01*
X26300Y15350D02*Y14650D01*
X29100Y9600D02*X27500D01*
X29100Y8900D02*Y9600D01*
X27500Y8900D02*X29100D01*
X27500Y9600D02*Y8900D01*
X25400D02*X27000D01*
X25400Y9600D02*Y8900D01*
X27000Y9600D02*X25400D01*
X27000Y8900D02*Y9600D01*
X18970Y2150D02*Y2350D01*
X20910Y2150D02*Y2350D01*
X22850Y2150D02*Y2350D01*
X23660Y5450D02*X23860D01*
X23660Y5650D02*Y5450D01*
X23860Y5650D02*X23660D01*
X17760Y5450D02*X17960D01*
X17760Y5650D02*Y5450D01*
X17960Y5650D02*X17760D01*
X23860Y5750D02*Y2150D01*
X17960Y5750D02*X23860D01*
X17960Y2150D02*Y5750D01*
X23860Y2150D02*X17960D01*
X21100Y6650D02*Y8250D01*
X20400Y6650D02*X21100D01*
X20400Y8250D02*Y6650D01*
X21100Y8250D02*X20400D01*
X22400Y7750D02*Y9750D01*
X23400D01*
Y7750D01*
X22400D01*
X22900Y7150D02*Y7750D01*
Y9750D02*Y10350D01*
X23500Y7750D02*Y9750D01*
X24500D01*
Y7750D01*
X23500D01*
X24000Y7150D02*Y7750D01*
Y9750D02*Y10350D01*
X21300Y7750D02*Y9750D01*
X22300D01*
Y7750D01*
X21300D01*
X21800Y7150D02*Y7750D01*
Y9750D02*Y10350D01*
X20350D02*Y8750D01*
X21050Y10350D02*X20350D01*
X21050Y8750D02*Y10350D01*
X20350Y8750D02*X21050D01*
X26150Y21800D02*Y22800D01*
X23150D01*
Y21800D01*
X26150D01*
X19800Y22750D02*Y21750D01*
X22800D01*
Y22750D01*
X19800D01*
X20300Y20700D02*Y20650D01*
X22300D01*
Y20700D01*
Y21600D02*Y21650D01*
X20300D01*
Y21600D01*
X22200Y23400D02*Y28000D01*
X22700Y28500D02*X26800D01*
X27300Y28000D02*Y23900D01*
X26800Y23400D02*X22200D01*
X22700Y28500D02*G75*G03X22200Y28000I0J-500D01*G01*
X27300D02*G75*G03X26800Y28500I-500J0D01*G01*
Y23400D02*G75*G03X27300Y23900I0J500D01*G01*
X28150Y16600D02*Y17150D01*
X27000D02*X29300D01*
Y22850D01*
X27000D01*
Y17150D01*
X28150Y22850D02*Y23500D01*
X22950Y20300D02*Y19300D01*
X25950D01*
Y20300D01*
X22950D01*
X24900Y19150D02*Y17550D01*
X25600Y19150D02*X24900D01*
X25600Y17550D02*Y19150D01*
X24900Y17550D02*X25600D01*
X17150Y13950D02*X19150D01*
Y12950D01*
X17150D01*
Y13950D01*
X16550Y13450D02*X17150D01*
X19150D02*X19750D01*
G54D33*X16300Y16800D03*
G54D32*X16180Y16640D02*X15930D01*
Y18760D01*
X16180D01*
X19730Y16640D02*X20000D01*
Y18760D01*
X19730D01*
X22100Y15250D02*Y13250D01*
X21100D01*
Y15250D01*
X22100D01*
X21600Y15850D02*Y15250D01*
Y13250D02*Y12650D01*
X23200Y15200D02*Y13200D01*
X22200D01*
Y15200D01*
X23200D01*
X22700Y15800D02*Y15200D01*
Y13200D02*Y12600D01*
X21450Y18450D02*X23050D01*
X21450Y19150D02*Y18450D01*
X23050Y19150D02*X21450D01*
X23050Y18450D02*Y19150D01*
X22350Y18120D02*Y18240D01*
X23670D01*
Y18120D01*
X22350Y16940D02*Y16820D01*
X23670D01*
Y16940D01*
X22480Y18140D02*X23540D01*
X24250Y15200D02*Y13200D01*
X23250D01*
Y15200D01*
X24250D01*
X23750Y15800D02*Y15200D01*
Y13200D02*Y12600D01*
X22200Y20250D02*X20600D01*
X22200Y19550D02*Y20250D01*
X20600Y19550D02*X22200D01*
X20600Y20250D02*Y19550D01*
X21050Y24350D02*X22050D01*
Y27350D01*
X21050D01*
Y24350D01*
X11450Y23900D02*X20450D01*
Y27900D01*
X11450D01*
Y23900D02*Y25400D01*
Y26400D02*Y27900D01*
Y25400D02*G75*G03X11450Y26400I0J500D01*G01*
X10550Y23550D02*Y27550D01*
X6550D01*
Y23550D01*
X10550D02*X9050D01*
X8050D02*X6550D01*
X9050D02*G75*G03X8050Y23550I-500J0D01*G01*
X20050Y10650D02*X12050D01*
Y6650D01*
X20050D01*
Y10650D02*Y9150D01*
Y8150D02*Y6650D01*
Y9150D02*G75*G03X20050Y8150I0J-500D01*G01*
X17550Y11800D02*X19550D01*
Y10800D01*
X17550D01*
Y11800D01*
X16950Y11300D02*X17550D01*
X19550D02*X20150D01*
X14250Y14500D02*Y12500D01*
X13250D01*
Y14500D01*
X14250D01*
X13750Y15100D02*Y14500D01*
Y12500D02*Y11900D01*
X14400Y13000D02*X15400D01*
Y16000D01*
X14400D01*
Y13000D01*
X19950Y14050D02*Y15050D01*
X16950D01*
Y14050D01*
X19950D01*
X17550Y12850D02*X19550D01*
Y11850D01*
X17550D01*
Y12850D01*
X16950Y12350D02*X17550D01*
X19550D02*X20150D01*
X13070Y2150D02*Y2350D01*
X15010Y2150D02*Y2350D01*
X16950Y2150D02*Y2350D01*
X17760Y5450D02*X17960D01*
X17760Y5650D02*Y5450D01*
X17960Y5650D02*X17760D01*
X11860Y5450D02*X12060D01*
X11860Y5650D02*Y5450D01*
X12060Y5650D02*X11860D01*
X17960Y5750D02*Y2150D01*
X12060Y5750D02*X17960D01*
X12060Y2150D02*Y5750D01*
X17960Y2150D02*X12060D01*
G54D29*X8300Y6650D02*X8600D01*
X8675Y6575D01*
Y6425D01*
X8600Y6350D02*X8675Y6425D01*
X8375Y6350D02*X8600D01*
X8375Y6650D02*Y6050D01*
Y6350D02*X8675Y6050D01*
X8930D02*X9080D01*
X9005Y6650D02*Y6050D01*
X8855Y6500D02*X9005Y6650D01*
X9260Y6575D02*X9335Y6650D01*
X9560D01*
X9635Y6575D01*
Y6425D01*
X9260Y6050D02*X9635Y6425D01*
X9260Y6050D02*X9635D01*
X6950Y8530D02*X7175D01*
Y8005D01*
X7100Y7930D02*X7175Y8005D01*
X7025Y7930D02*X7100D01*
X6950Y8005D02*X7025Y7930D01*
X7355Y8455D02*X7430Y8530D01*
X7580D01*
X7655Y8455D01*
Y8005D01*
X7580Y7930D02*X7655Y8005D01*
X7430Y7930D02*X7580D01*
X7355Y8005D02*X7430Y7930D01*
Y8230D02*X7655D01*
X11050Y2990D02*X11275D01*
Y2465D01*
X11200Y2390D02*X11275Y2465D01*
X11125Y2390D02*X11200D01*
X11050Y2465D02*X11125Y2390D01*
X11455Y2915D02*X11530Y2990D01*
X11755D01*
X11830Y2915D01*
Y2765D01*
X11455Y2390D02*X11830Y2765D01*
X11455Y2390D02*X11830D01*
X24250Y3240D02*X24475D01*
Y2715D01*
X24400Y2640D02*X24475Y2715D01*
X24325Y2640D02*X24400D01*
X24250Y2715D02*X24325Y2640D01*
X24730D02*X24880D01*
X24805Y3240D02*Y2640D01*
X24655Y3090D02*X24805Y3240D01*
X27725Y8100D02*X27950D01*
X27650Y8175D02*X27725Y8100D01*
X27650Y8625D02*Y8175D01*
Y8625D02*X27725Y8700D01*
X27950D01*
X28205Y8100D02*X28355D01*
X28280Y8700D02*Y8100D01*
X28130Y8550D02*X28280Y8700D01*
X28535Y8100D02*X28835Y8400D01*
Y8625D02*Y8400D01*
X28760Y8700D02*X28835Y8625D01*
X28610Y8700D02*X28760D01*
X28535Y8625D02*X28610Y8700D01*
X28535Y8625D02*Y8475D01*
X28610Y8400D01*
X28835D01*
X25575Y8100D02*X25800D01*
X25500Y8175D02*X25575Y8100D01*
X25500Y8625D02*Y8175D01*
Y8625D02*X25575Y8700D01*
X25800D01*
X25980Y8625D02*X26055Y8700D01*
X26280D01*
X26355Y8625D01*
Y8475D01*
X25980Y8100D02*X26355Y8475D01*
X25980Y8100D02*X26355D01*
X26535Y8175D02*X26610Y8100D01*
X26535Y8625D02*Y8175D01*
Y8625D02*X26610Y8700D01*
X26760D01*
X26835Y8625D01*
Y8175D01*
X26760Y8100D02*X26835Y8175D01*
X26610Y8100D02*X26760D01*
X26535Y8250D02*X26835Y8550D01*
X24600Y7750D02*X24900D01*
X24975Y7675D01*
Y7525D01*
X24900Y7450D02*X24975Y7525D01*
X24675Y7450D02*X24900D01*
X24675Y7750D02*Y7150D01*
Y7450D02*X24975Y7150D01*
X25155Y7675D02*X25230Y7750D01*
X25455D01*
X25530Y7675D01*
Y7525D01*
X25155Y7150D02*X25530Y7525D01*
X25155Y7150D02*X25530D01*
X20425Y5900D02*X20650D01*
X20350Y5975D02*X20425Y5900D01*
X20350Y6425D02*Y5975D01*
Y6425D02*X20425Y6500D01*
X20650D01*
X20830Y6425D02*X20905Y6500D01*
X21055D01*
X21130Y6425D01*
Y5975D01*
X21055Y5900D02*X21130Y5975D01*
X20905Y5900D02*X21055D01*
X20830Y5975D02*X20905Y5900D01*
Y6200D02*X21130D01*
X22600Y8400D02*Y8100D01*
Y8400D02*X22675Y8475D01*
X22825D01*
X22900Y8400D02*X22825Y8475D01*
X22900Y8400D02*Y8175D01*
X22600D02*X23200D01*
X22900D02*X23200Y8475D01*
X22675Y8655D02*X22600Y8730D01*
Y8880D02*Y8730D01*
Y8880D02*X22675Y8955D01*
X23125D01*
X23200Y8880D02*X23125Y8955D01*
X23200Y8880D02*Y8730D01*
X23125Y8655D02*X23200Y8730D01*
X22900Y8955D02*Y8730D01*
X21450Y8500D02*Y8200D01*
Y8500D02*X21525Y8575D01*
X21675D01*
X21750Y8500D02*X21675Y8575D01*
X21750Y8500D02*Y8275D01*
X21450D02*X22050D01*
X21750D02*X22050Y8575D01*
Y8980D02*Y8830D01*
X21450Y8905D02*X22050D01*
X21600Y8755D02*X21450Y8905D01*
X25225Y21090D02*X25450D01*
X25150Y21165D02*X25225Y21090D01*
X25150Y21615D02*Y21165D01*
Y21615D02*X25225Y21690D01*
X25450D01*
X25630Y21615D02*X25705Y21690D01*
X25930D01*
X26005Y21615D01*
Y21465D01*
X25630Y21090D02*X26005Y21465D01*
X25630Y21090D02*X26005D01*
X26260D02*X26410D01*
X26335Y21690D02*Y21090D01*
X26185Y21540D02*X26335Y21690D01*
X17350Y20590D02*Y20065D01*
X17425Y19990D01*
X17575D01*
X17650Y20065D01*
Y20590D02*Y20065D01*
X17830Y20515D02*X17905Y20590D01*
X18130D01*
X18205Y20515D01*
Y20365D01*
X17830Y19990D02*X18205Y20365D01*
X17830Y19990D02*X18205D01*
X18925Y20950D02*X19150D01*
X18850Y21025D02*X18925Y20950D01*
X18850Y21475D02*Y21025D01*
Y21475D02*X18925Y21550D01*
X19150D01*
X19330Y20950D02*X19630Y21250D01*
Y21475D02*Y21250D01*
X19555Y21550D02*X19630Y21475D01*
X19405Y21550D02*X19555D01*
X19330Y21475D02*X19405Y21550D01*
X19330Y21475D02*Y21325D01*
X19405Y21250D01*
X19630D01*
X23175Y20490D02*X23400D01*
X23100Y20565D02*X23175Y20490D01*
X23100Y21015D02*Y20565D01*
Y21015D02*X23175Y21090D01*
X23400D01*
X23655Y20490D02*X23805D01*
X23730Y21090D02*Y20490D01*
X23580Y20940D02*X23730Y21090D01*
X23985Y21015D02*X24060Y21090D01*
X24285D01*
X24360Y21015D01*
Y20865D01*
X23985Y20490D02*X24360Y20865D01*
X23985Y20490D02*X24360D01*
X22400Y14050D02*Y13750D01*
Y14050D02*X22475Y14125D01*
X22625D01*
X22700Y14050D02*X22625Y14125D01*
X22700Y14050D02*Y13825D01*
X22400D02*X23000D01*
X22700D02*X23000Y14125D01*
X22925Y14305D02*X23000Y14380D01*
X22775Y14305D02*X22925D01*
X22775D02*X22700Y14380D01*
Y14530D02*Y14380D01*
Y14530D02*X22775Y14605D01*
X22925D01*
X23000Y14530D02*X22925Y14605D01*
X23000Y14530D02*Y14380D01*
X22625Y14305D02*X22700Y14380D01*
X22475Y14305D02*X22625D01*
X22475D02*X22400Y14380D01*
Y14530D02*Y14380D01*
Y14530D02*X22475Y14605D01*
X22625D01*
X22700Y14530D02*X22625Y14605D01*
X24400Y15050D02*X24700D01*
X24775Y14975D01*
Y14825D01*
X24700Y14750D02*X24775Y14825D01*
X24475Y14750D02*X24700D01*
X24475Y15050D02*Y14450D01*
Y14750D02*X24775Y14450D01*
X25180Y15050D02*X25255Y14975D01*
X25030Y15050D02*X25180D01*
X24955Y14975D02*X25030Y15050D01*
X24955Y14975D02*Y14525D01*
X25030Y14450D01*
X25180Y14750D02*X25255Y14675D01*
X24955Y14750D02*X25180D01*
X25030Y14450D02*X25180D01*
X25255Y14525D01*
Y14675D02*Y14525D01*
X17450Y13800D02*X17750D01*
X17825Y13725D01*
Y13575D01*
X17750Y13500D02*X17825Y13575D01*
X17525Y13500D02*X17750D01*
X17525Y13800D02*Y13200D01*
Y13500D02*X17825Y13200D01*
X18005Y13500D02*X18305Y13800D01*
X18005Y13500D02*X18380D01*
X18305Y13800D02*Y13200D01*
X21300Y13800D02*Y13500D01*
Y13800D02*X21375Y13875D01*
X21525D01*
X21600Y13800D02*X21525Y13875D01*
X21600Y13800D02*Y13575D01*
X21300D02*X21900D01*
X21600D02*X21900Y13875D01*
Y14280D02*Y14130D01*
X21300Y14205D02*X21900D01*
X21450Y14055D02*X21300Y14205D01*
X21825Y14460D02*X21900Y14535D01*
X21375Y14460D02*X21825D01*
X21375D02*X21300Y14535D01*
Y14685D02*Y14535D01*
Y14685D02*X21375Y14760D01*
X21825D01*
X21900Y14685D02*X21825Y14760D01*
X21900Y14685D02*Y14535D01*
X21750Y14460D02*X21450Y14760D01*
X20175Y14140D02*X20400D01*
X20100Y14215D02*X20175Y14140D01*
X20100Y14665D02*Y14215D01*
Y14665D02*X20175Y14740D01*
X20400D01*
X20580Y14665D02*X20655Y14740D01*
X20880D01*
X20955Y14665D01*
Y14515D01*
X20580Y14140D02*X20955Y14515D01*
X20580Y14140D02*X20955D01*
X18050Y12650D02*X18350D01*
X18425Y12575D01*
Y12425D01*
X18350Y12350D02*X18425Y12425D01*
X18125Y12350D02*X18350D01*
X18125Y12650D02*Y12050D01*
Y12350D02*X18425Y12050D01*
X18605D02*X18980Y12425D01*
Y12650D02*Y12425D01*
X18605Y12650D02*X18980D01*
X25025Y16850D02*X25250D01*
X24950Y16925D02*X25025Y16850D01*
X24950Y17375D02*Y16925D01*
Y17375D02*X25025Y17450D01*
X25250D01*
X25505Y16850D02*X25655D01*
X25580Y17450D02*Y16850D01*
X25430Y17300D02*X25580Y17450D01*
X25835Y17375D02*X25910Y17450D01*
X26060D01*
X26135Y17375D01*
Y16925D01*
X26060Y16850D02*X26135Y16925D01*
X25910Y16850D02*X26060D01*
X25835Y16925D02*X25910Y16850D01*
Y17150D02*X26135D01*
X27550Y26050D02*Y25975D01*
X27925Y25600D01*
Y25450D01*
X27550Y25600D02*Y25450D01*
Y25600D02*X27925Y25975D01*
Y26050D02*Y25975D01*
X28180Y25450D02*X28330D01*
X28255Y26050D02*Y25450D01*
X28105Y25900D02*X28255Y26050D01*
X21025Y22890D02*X21250D01*
X20950Y22965D02*X21025Y22890D01*
X20950Y23415D02*Y22965D01*
Y23415D02*X21025Y23490D01*
X21250D01*
X21430Y22965D02*X21505Y22890D01*
X21430Y23115D02*Y22965D01*
Y23115D02*X21505Y23190D01*
X21655D01*
X21730Y23115D01*
Y22965D01*
X21655Y22890D02*X21730Y22965D01*
X21505Y22890D02*X21655D01*
X21430Y23265D02*X21505Y23190D01*
X21430Y23415D02*Y23265D01*
Y23415D02*X21505Y23490D01*
X21655D01*
X21730Y23415D01*
Y23265D01*
X21655Y23190D02*X21730Y23265D01*
X20960Y17920D02*Y17395D01*
X21035Y17320D01*
X21185D01*
X21260Y17395D01*
Y17920D02*Y17395D01*
X21440Y17845D02*X21515Y17920D01*
X21665D01*
X21740Y17845D01*
Y17395D01*
X21665Y17320D02*X21740Y17395D01*
X21515Y17320D02*X21665D01*
X21440Y17395D02*X21515Y17320D01*
Y17620D02*X21740D01*
X29550Y11750D02*Y11225D01*
X29625Y11150D01*
X29775D01*
X29850Y11225D01*
Y11750D02*Y11225D01*
X30030Y11150D02*X30405Y11525D01*
Y11750D02*Y11525D01*
X30030Y11750D02*X30405D01*
X28275Y14600D02*X28500D01*
X28200Y14675D02*X28275Y14600D01*
X28200Y15125D02*Y14675D01*
Y15125D02*X28275Y15200D01*
X28500D01*
X28755Y14600D02*X28905D01*
X28830Y15200D02*Y14600D01*
X28680Y15050D02*X28830Y15200D01*
X29085Y14675D02*X29160Y14600D01*
X29085Y14825D02*Y14675D01*
Y14825D02*X29160Y14900D01*
X29310D01*
X29385Y14825D01*
Y14675D01*
X29310Y14600D02*X29385Y14675D01*
X29160Y14600D02*X29310D01*
X29085Y14975D02*X29160Y14900D01*
X29085Y15125D02*Y14975D01*
Y15125D02*X29160Y15200D01*
X29310D01*
X29385Y15125D01*
Y14975D01*
X29310Y14900D02*X29385Y14975D01*
X28750Y16900D02*X29050D01*
X29125Y16825D01*
Y16675D01*
X29050Y16600D02*X29125Y16675D01*
X28825Y16600D02*X29050D01*
X28825Y16900D02*Y16300D01*
Y16600D02*X29125Y16300D01*
X29380D02*X29530D01*
X29455Y16900D02*Y16300D01*
X29305Y16750D02*X29455Y16900D01*
X29785Y16300D02*X29935D01*
X29860Y16900D02*Y16300D01*
X29710Y16750D02*X29860Y16900D01*
X20725Y27540D02*X20950D01*
X20650Y27615D02*X20725Y27540D01*
X20650Y28065D02*Y27615D01*
Y28065D02*X20725Y28140D01*
X20950D01*
X21205Y27540D02*X21355D01*
X21280Y28140D02*Y27540D01*
X21130Y27990D02*X21280Y28140D01*
X21535Y27540D02*X21910Y27915D01*
Y28140D02*Y27915D01*
X21535Y28140D02*X21910D01*
X14800Y11450D02*Y10925D01*
X14875Y10850D01*
X15025D01*
X15100Y10925D01*
Y11450D02*Y10925D01*
X15355Y10850D02*X15505D01*
X15430Y11450D02*Y10850D01*
X15280Y11300D02*X15430Y11450D01*
X17800Y11550D02*X18100D01*
X18175Y11475D01*
Y11325D01*
X18100Y11250D02*X18175Y11325D01*
X17875Y11250D02*X18100D01*
X17875Y11550D02*Y10950D01*
Y11250D02*X18175Y10950D01*
X18355D02*X18655Y11250D01*
Y11475D02*Y11250D01*
X18580Y11550D02*X18655Y11475D01*
X18430Y11550D02*X18580D01*
X18355Y11475D02*X18430Y11550D01*
X18355Y11475D02*Y11325D01*
X18430Y11250D01*
X18655D01*
X14575Y12190D02*X14800D01*
X14500Y12265D02*X14575Y12190D01*
X14500Y12715D02*Y12265D01*
Y12715D02*X14575Y12790D01*
X14800D01*
X15055Y12190D02*X15205D01*
X15130Y12790D02*Y12190D01*
X14980Y12640D02*X15130Y12790D01*
X12050Y13750D02*X12350D01*
X12425Y13675D01*
Y13525D01*
X12350Y13450D02*X12425Y13525D01*
X12125Y13450D02*X12350D01*
X12125Y13750D02*Y13150D01*
Y13450D02*X12425Y13150D01*
X12605Y13750D02*X12905D01*
X12605D02*Y13450D01*
X12680Y13525D01*
X12830D01*
X12905Y13450D01*
Y13225D01*
X12830Y13150D02*X12905Y13225D01*
X12680Y13150D02*X12830D01*
X12605Y13225D02*X12680Y13150D01*
X9260Y18420D02*Y17895D01*
X9335Y17820D01*
X9485D01*
X9560Y17895D01*
Y18420D02*Y17895D01*
X9740Y18120D02*X10040Y18420D01*
X9740Y18120D02*X10115D01*
X10040Y18420D02*Y17820D01*
X13600Y18000D02*X13900D01*
X13975Y17925D01*
Y17775D01*
X13900Y17700D02*X13975Y17775D01*
X13675Y17700D02*X13900D01*
X13675Y18000D02*Y17400D01*
Y17700D02*X13975Y17400D01*
X14230D02*X14380D01*
X14305Y18000D02*Y17400D01*
X14155Y17850D02*X14305Y18000D01*
X14560Y17925D02*X14635Y18000D01*
X14785D01*
X14860Y17925D01*
Y17475D01*
X14785Y17400D02*X14860Y17475D01*
X14635Y17400D02*X14785D01*
X14560Y17475D02*X14635Y17400D01*
Y17700D02*X14860D01*
X13525Y16290D02*X13750D01*
X13450Y16365D02*X13525Y16290D01*
X13450Y16815D02*Y16365D01*
Y16815D02*X13525Y16890D01*
X13750D01*
X14005Y16290D02*X14155D01*
X14080Y16890D02*Y16290D01*
X13930Y16740D02*X14080Y16890D01*
X14335D02*X14635D01*
X14335D02*Y16590D01*
X14410Y16665D01*
X14560D01*
X14635Y16590D01*
Y16365D01*
X14560Y16290D02*X14635Y16365D01*
X14410Y16290D02*X14560D01*
X14335Y16365D02*X14410Y16290D01*
X9875Y15300D02*X10100D01*
X9800Y15375D02*X9875Y15300D01*
X9800Y15825D02*Y15375D01*
Y15825D02*X9875Y15900D01*
X10100D01*
X10355Y15300D02*X10505D01*
X10430Y15900D02*Y15300D01*
X10280Y15750D02*X10430Y15900D01*
X10685Y15600D02*X10985Y15900D01*
X10685Y15600D02*X11060D01*
X10985Y15900D02*Y15300D01*
X12025Y20850D02*X12250D01*
X11950Y20925D02*X12025Y20850D01*
X11950Y21375D02*Y20925D01*
Y21375D02*X12025Y21450D01*
X12250D01*
X12655D02*X12730Y21375D01*
X12505Y21450D02*X12655D01*
X12430Y21375D02*X12505Y21450D01*
X12430Y21375D02*Y20925D01*
X12505Y20850D01*
X12655Y21150D02*X12730Y21075D01*
X12430Y21150D02*X12655D01*
X12505Y20850D02*X12655D01*
X12730Y20925D01*
Y21075D02*Y20925D01*
X11675Y23090D02*X11900D01*
X11600Y23165D02*X11675Y23090D01*
X11600Y23615D02*Y23165D01*
Y23615D02*X11675Y23690D01*
X11900D01*
X12080Y23090D02*X12455Y23465D01*
Y23690D02*Y23465D01*
X12080Y23690D02*X12455D01*
X12775Y19550D02*X13000D01*
X12700Y19625D02*X12775Y19550D01*
X12700Y20075D02*Y19625D01*
Y20075D02*X12775Y20150D01*
X13000D01*
X13180D02*X13480D01*
X13180D02*Y19850D01*
X13255Y19925D01*
X13405D01*
X13480Y19850D01*
Y19625D01*
X13405Y19550D02*X13480Y19625D01*
X13255Y19550D02*X13405D01*
X13180Y19625D02*X13255Y19550D01*
X8400Y21650D02*X8700D01*
X8775Y21575D01*
Y21425D01*
X8700Y21350D02*X8775Y21425D01*
X8475Y21350D02*X8700D01*
X8475Y21650D02*Y21050D01*
Y21350D02*X8775Y21050D01*
X9030D02*X9180D01*
X9105Y21650D02*Y21050D01*
X8955Y21500D02*X9105Y21650D01*
X9360Y21350D02*X9660Y21650D01*
X9360Y21350D02*X9735D01*
X9660Y21650D02*Y21050D01*
X16600Y23600D02*Y23075D01*
X16675Y23000D01*
X16825D01*
X16900Y23075D01*
Y23600D02*Y23075D01*
X17080Y23600D02*X17380D01*
X17080D02*Y23300D01*
X17155Y23375D01*
X17305D01*
X17380Y23300D01*
Y23075D01*
X17305Y23000D02*X17380Y23075D01*
X17155Y23000D02*X17305D01*
X17080Y23075D02*X17155Y23000D01*
X5000Y24600D02*Y24075D01*
X5075Y24000D01*
X5225D01*
X5300Y24075D01*
Y24600D02*Y24075D01*
X5705Y24600D02*X5780Y24525D01*
X5555Y24600D02*X5705D01*
X5480Y24525D02*X5555Y24600D01*
X5480Y24525D02*Y24075D01*
X5555Y24000D01*
X5705Y24300D02*X5780Y24225D01*
X5480Y24300D02*X5705D01*
X5555Y24000D02*X5705D01*
X5780Y24075D01*
Y24225D02*Y24075D01*
M02*
