G75*
G70*
%OFA0B0*%
%FSLAX24Y24*%
%IPPOS*%
%LPD*%
%AMOC8*
5,1,8,0,0,1.08239X$1,22.5*
%
%ADD10C,0.0070*%
%ADD11C,0.0102*%
%ADD12C,0.0554*%
%ADD13C,0.0827*%
%ADD14R,0.1200X0.0591*%
%ADD15R,0.0728X0.0930*%
%ADD16C,0.0160*%
%ADD17C,0.0600*%
%ADD18OC8,0.0560*%
%ADD19OC8,0.0515*%
%ADD20C,0.0280*%
%ADD21C,0.0320*%
%ADD22C,0.0400*%
%ADD23C,0.0240*%
%ADD24C,0.0280*%
%ADD25C,0.0320*%
%ADD26C,0.0500*%
%ADD27C,0.0080*%
%ADD28C,0.0100*%
D10*
X003753Y001339D02*
X004107Y001339D01*
X004019Y001074D02*
X004019Y001604D01*
X003753Y001339D01*
D11*
X023202Y017220D02*
X023612Y017220D01*
X023612Y016732D01*
X023202Y016732D01*
X023202Y017220D01*
X023202Y016833D02*
X023612Y016833D01*
X023612Y016934D02*
X023202Y016934D01*
X023202Y017035D02*
X023612Y017035D01*
X023612Y017136D02*
X023202Y017136D01*
X023950Y017220D02*
X024360Y017220D01*
X024360Y016732D01*
X023950Y016732D01*
X023950Y017220D01*
X023950Y016833D02*
X024360Y016833D01*
X024360Y016934D02*
X023950Y016934D01*
X023950Y017035D02*
X024360Y017035D01*
X024360Y017136D02*
X023950Y017136D01*
X024849Y017460D02*
X024849Y017870D01*
X025337Y017870D01*
X025337Y017460D01*
X024849Y017460D01*
X024849Y017561D02*
X025337Y017561D01*
X025337Y017662D02*
X024849Y017662D01*
X024849Y017763D02*
X025337Y017763D01*
X025337Y017864D02*
X024849Y017864D01*
X024849Y018208D02*
X024849Y018618D01*
X025337Y018618D01*
X025337Y018208D01*
X024849Y018208D01*
X024849Y018309D02*
X025337Y018309D01*
X025337Y018410D02*
X024849Y018410D01*
X024849Y018511D02*
X025337Y018511D01*
X025337Y018612D02*
X024849Y018612D01*
D12*
X011456Y002807D03*
X010668Y002807D03*
X009881Y002807D03*
X009093Y002807D03*
X008306Y002807D03*
X007519Y002807D03*
X006731Y002807D03*
X006731Y002020D03*
X007519Y002020D03*
X008306Y002020D03*
X009093Y002020D03*
X009881Y002020D03*
X010668Y002020D03*
X011456Y002020D03*
D13*
X015031Y002664D03*
X034906Y005664D03*
X034906Y024601D03*
D14*
X034906Y025703D03*
X034906Y023499D03*
X034906Y006766D03*
X034906Y004561D03*
X015031Y003766D03*
X015031Y001561D03*
D15*
X016064Y001729D03*
X013997Y001729D03*
X013997Y003599D03*
X016064Y003599D03*
X033872Y004728D03*
X035939Y004728D03*
X035939Y006599D03*
X033872Y006599D03*
X033872Y023666D03*
X035939Y023666D03*
X035939Y025536D03*
X033872Y025536D03*
D16*
X003468Y001101D02*
X000906Y001039D01*
X000906Y002851D01*
X001067Y003012D01*
X001207Y002871D01*
X001605Y002871D01*
X001886Y003152D01*
X001886Y003414D01*
X001946Y003414D01*
X001946Y003361D01*
X002396Y003361D01*
X002396Y003341D01*
X002396Y002891D01*
X002215Y002891D01*
X001946Y003160D01*
X001946Y003341D01*
X002396Y003341D01*
X002416Y003341D01*
X002866Y003341D01*
X002866Y003160D01*
X002596Y002891D01*
X002416Y002891D01*
X002416Y003341D01*
X002416Y003361D01*
X002866Y003361D01*
X002866Y003414D01*
X004052Y003414D01*
X004754Y002712D01*
X004754Y002658D01*
X004805Y002534D01*
X004901Y002438D01*
X005026Y002386D01*
X005161Y002386D01*
X005286Y002438D01*
X005381Y002534D01*
X005433Y002658D01*
X005433Y002794D01*
X005381Y002919D01*
X005286Y003014D01*
X005161Y003066D01*
X005107Y003066D01*
X004759Y003414D01*
X006031Y003414D01*
X007718Y005101D01*
X007781Y006539D01*
X010082Y006479D01*
X010084Y006476D01*
X010133Y006433D01*
X010179Y006387D01*
X010193Y006381D01*
X010204Y006372D01*
X010266Y006351D01*
X010326Y006326D01*
X010341Y006326D01*
X010355Y006321D01*
X010420Y006326D01*
X010486Y006326D01*
X010499Y006332D01*
X010514Y006333D01*
X010541Y006346D01*
X010541Y006138D01*
X009119Y004716D01*
X009022Y004716D01*
X008973Y004764D01*
X008849Y004816D01*
X008713Y004816D01*
X008588Y004764D01*
X008493Y004669D01*
X008441Y004544D01*
X008441Y004408D01*
X008493Y004284D01*
X008588Y004188D01*
X008713Y004136D01*
X008849Y004136D01*
X008973Y004188D01*
X009022Y004236D01*
X009266Y004236D01*
X009354Y004273D01*
X009422Y004340D01*
X009853Y004772D01*
X009853Y003878D01*
X009838Y003878D01*
X009713Y003827D01*
X009618Y003731D01*
X009566Y003606D01*
X009566Y003471D01*
X009618Y003346D01*
X009711Y003253D01*
X009611Y003212D01*
X009487Y003088D01*
X009364Y003212D01*
X009188Y003284D01*
X008999Y003284D01*
X008823Y003212D01*
X008700Y003088D01*
X008576Y003212D01*
X008401Y003284D01*
X008211Y003284D01*
X008036Y003212D01*
X007912Y003088D01*
X007789Y003212D01*
X007614Y003284D01*
X007424Y003284D01*
X007248Y003212D01*
X007125Y003088D01*
X007002Y003212D01*
X006826Y003284D01*
X006636Y003284D01*
X006461Y003212D01*
X006327Y003078D01*
X006254Y002902D01*
X006254Y002712D01*
X006327Y002537D01*
X006461Y002403D01*
X006473Y002398D01*
X006433Y002369D01*
X006383Y002318D01*
X006340Y002259D01*
X006308Y002195D01*
X006285Y002127D01*
X006274Y002056D01*
X006274Y002028D01*
X006722Y002028D01*
X006722Y002011D01*
X006274Y002011D01*
X006274Y001984D01*
X006285Y001913D01*
X006305Y001851D01*
X003468Y001851D01*
X003468Y001101D01*
X003468Y001229D02*
X000906Y001229D01*
X000906Y001071D02*
X002222Y001071D01*
X002207Y001871D02*
X002605Y001871D01*
X002886Y002152D01*
X002886Y002550D01*
X002605Y002831D01*
X002207Y002831D01*
X001926Y002550D01*
X001926Y002152D01*
X002207Y001871D01*
X002056Y002022D02*
X001756Y002022D01*
X001886Y002152D02*
X001605Y001871D01*
X001207Y001871D01*
X000926Y002152D01*
X000926Y002550D01*
X001207Y002831D01*
X001605Y002831D01*
X001886Y002550D01*
X001886Y002152D01*
X001886Y002180D02*
X001926Y002180D01*
X001926Y002339D02*
X001886Y002339D01*
X001886Y002498D02*
X001926Y002498D01*
X002032Y002656D02*
X001780Y002656D01*
X001621Y002815D02*
X002191Y002815D01*
X002133Y002973D02*
X001707Y002973D01*
X001865Y003132D02*
X001975Y003132D01*
X001946Y003290D02*
X001886Y003290D01*
X002396Y003290D02*
X002416Y003290D01*
X002416Y003132D02*
X002396Y003132D01*
X002396Y002973D02*
X002416Y002973D01*
X002621Y002815D02*
X004651Y002815D01*
X004755Y002656D02*
X002780Y002656D01*
X002886Y002498D02*
X004841Y002498D01*
X005346Y002498D02*
X006366Y002498D01*
X006404Y002339D02*
X002886Y002339D01*
X002886Y002180D02*
X006303Y002180D01*
X006722Y002022D02*
X002756Y002022D01*
X003468Y001705D02*
X000906Y001705D01*
X000906Y001863D02*
X006301Y001863D01*
X006723Y001863D02*
X006740Y001863D01*
X006740Y002011D02*
X006740Y001563D01*
X006767Y001563D01*
X006838Y001574D01*
X006907Y001596D01*
X006971Y001629D01*
X007029Y001671D01*
X007080Y001722D01*
X007122Y001780D01*
X007125Y001786D01*
X007128Y001780D01*
X007170Y001722D01*
X007221Y001671D01*
X007279Y001629D01*
X007343Y001596D01*
X007412Y001574D01*
X007483Y001563D01*
X007510Y001563D01*
X007510Y002011D01*
X007527Y002011D01*
X007527Y001563D01*
X007555Y001563D01*
X007626Y001574D01*
X007694Y001596D01*
X007758Y001629D01*
X007816Y001671D01*
X007867Y001722D01*
X007910Y001780D01*
X007912Y001786D01*
X007915Y001780D01*
X007957Y001722D01*
X008008Y001671D01*
X008066Y001629D01*
X008131Y001596D01*
X008199Y001574D01*
X008270Y001563D01*
X008297Y001563D01*
X008297Y002011D01*
X008297Y002028D01*
X007976Y002028D01*
X007528Y002028D01*
X007528Y002011D01*
X007976Y002011D01*
X008297Y002011D01*
X008315Y002011D01*
X008763Y002011D01*
X009085Y002011D01*
X009085Y001563D01*
X009057Y001563D01*
X008986Y001574D01*
X008918Y001596D01*
X008854Y001629D01*
X008796Y001671D01*
X008745Y001722D01*
X008702Y001780D01*
X008700Y001786D01*
X008697Y001780D01*
X008655Y001722D01*
X008604Y001671D01*
X008546Y001629D01*
X008482Y001596D01*
X008413Y001574D01*
X008342Y001563D01*
X008315Y001563D01*
X008315Y002011D01*
X008315Y002028D01*
X008763Y002028D01*
X009085Y002028D01*
X009085Y002011D01*
X009102Y002011D01*
X009102Y001563D01*
X009129Y001563D01*
X009201Y001574D01*
X009269Y001596D01*
X009333Y001629D01*
X009391Y001671D01*
X009442Y001722D01*
X009484Y001780D01*
X009487Y001786D01*
X009490Y001780D01*
X009532Y001722D01*
X009583Y001671D01*
X009641Y001629D01*
X009705Y001596D01*
X009774Y001574D01*
X009845Y001563D01*
X009872Y001563D01*
X009872Y002011D01*
X009872Y002028D01*
X009424Y002028D01*
X009102Y002028D01*
X009102Y002011D01*
X009551Y002011D01*
X009872Y002011D01*
X009890Y002011D01*
X010338Y002011D01*
X010659Y002011D01*
X010659Y002028D01*
X010338Y002028D01*
X009890Y002028D01*
X009890Y002011D01*
X009890Y001563D01*
X009917Y001563D01*
X009988Y001574D01*
X010056Y001596D01*
X010120Y001629D01*
X010179Y001671D01*
X010230Y001722D01*
X010272Y001780D01*
X010275Y001786D01*
X010277Y001780D01*
X010320Y001722D01*
X010370Y001671D01*
X010429Y001629D01*
X010493Y001596D01*
X010561Y001574D01*
X010632Y001563D01*
X010660Y001563D01*
X010660Y002011D01*
X010677Y002011D01*
X010677Y001563D01*
X010704Y001563D01*
X010775Y001574D01*
X010844Y001596D01*
X010908Y001629D01*
X010966Y001671D01*
X011017Y001722D01*
X011059Y001780D01*
X011062Y001786D01*
X011065Y001780D01*
X011107Y001722D01*
X011158Y001671D01*
X011216Y001629D01*
X011280Y001596D01*
X011349Y001574D01*
X011420Y001563D01*
X011447Y001563D01*
X011447Y002011D01*
X011464Y002011D01*
X011464Y001563D01*
X011492Y001563D01*
X011563Y001574D01*
X011631Y001596D01*
X011695Y001629D01*
X011754Y001671D01*
X011804Y001722D01*
X011847Y001780D01*
X011879Y001844D01*
X011902Y001913D01*
X011913Y001984D01*
X011913Y002011D01*
X011465Y002011D01*
X011465Y002028D01*
X011913Y002028D01*
X011913Y002056D01*
X011902Y002127D01*
X011879Y002195D01*
X011847Y002259D01*
X011804Y002318D01*
X011754Y002369D01*
X011714Y002398D01*
X011726Y002403D01*
X011860Y002537D01*
X011933Y002712D01*
X011933Y002902D01*
X011860Y003078D01*
X011726Y003212D01*
X011551Y003284D01*
X011361Y003284D01*
X011185Y003212D01*
X011062Y003088D01*
X010939Y003212D01*
X010763Y003284D01*
X010573Y003284D01*
X010522Y003263D01*
X010561Y003358D01*
X010561Y003469D01*
X010521Y003566D01*
X010521Y004939D01*
X011359Y005778D01*
X011396Y005866D01*
X011396Y005961D01*
X011396Y010136D01*
X011474Y010136D01*
X011598Y010188D01*
X011694Y010284D01*
X011746Y010408D01*
X011746Y010484D01*
X011786Y010500D01*
X011881Y010596D01*
X011933Y010721D01*
X011933Y010856D01*
X011881Y010981D01*
X011786Y011077D01*
X011661Y011128D01*
X011526Y011128D01*
X011401Y011077D01*
X011396Y011072D01*
X011396Y011752D01*
X011422Y011778D01*
X011422Y011778D01*
X011593Y011949D01*
X011599Y011949D01*
X011694Y011988D01*
X011691Y011981D01*
X011691Y011846D01*
X011722Y011772D01*
X011680Y011731D01*
X011629Y011606D01*
X011629Y011471D01*
X011680Y011346D01*
X011776Y011250D01*
X011901Y011199D01*
X012036Y011199D01*
X012161Y011250D01*
X012256Y011346D01*
X012308Y011471D01*
X012308Y011606D01*
X012278Y011680D01*
X012319Y011721D01*
X012371Y011846D01*
X012371Y011981D01*
X012319Y012106D01*
X012223Y012202D01*
X012099Y012253D01*
X011963Y012253D01*
X011868Y012214D01*
X011871Y012221D01*
X011871Y012356D01*
X011819Y012481D01*
X011723Y012577D01*
X011599Y012628D01*
X011463Y012628D01*
X011338Y012577D01*
X011312Y012550D01*
X011286Y012577D01*
X011246Y012593D01*
X011246Y012669D01*
X011194Y012794D01*
X011098Y012889D01*
X011036Y012915D01*
X011182Y013062D01*
X011243Y013209D01*
X011243Y013368D01*
X011243Y013926D01*
X011338Y013886D01*
X011474Y013886D01*
X011591Y013935D01*
X011651Y013875D01*
X011776Y013824D01*
X011911Y013824D01*
X012036Y013875D01*
X012131Y013971D01*
X012183Y014096D01*
X012183Y014231D01*
X012131Y014356D01*
X012036Y014452D01*
X011911Y014503D01*
X011776Y014503D01*
X011658Y014455D01*
X011598Y014514D01*
X011474Y014566D01*
X011338Y014566D01*
X011243Y014526D01*
X011243Y014628D01*
X011272Y014616D01*
X011415Y014616D01*
X011547Y014671D01*
X011649Y014772D01*
X011703Y014904D01*
X011703Y015048D01*
X011649Y015180D01*
X011547Y015281D01*
X011415Y015336D01*
X011272Y015336D01*
X011243Y015324D01*
X011243Y015492D01*
X011270Y015492D01*
X011272Y015491D01*
X011415Y015491D01*
X011547Y015546D01*
X011649Y015647D01*
X011703Y015779D01*
X011703Y015923D01*
X011649Y016055D01*
X011472Y016231D01*
X011432Y016328D01*
X011320Y016440D01*
X011173Y016501D01*
X011014Y016501D01*
X010867Y016440D01*
X010754Y016328D01*
X010693Y016181D01*
X010693Y016079D01*
X010692Y016078D01*
X010617Y016003D01*
X010504Y015890D01*
X010443Y015743D01*
X010443Y014482D01*
X010396Y014529D01*
X010396Y016741D01*
X010396Y016741D01*
X010396Y016794D01*
X010396Y016836D01*
X010396Y016836D01*
X010396Y016845D01*
X010396Y016939D01*
X010880Y017424D01*
X011483Y017424D01*
X011579Y017424D01*
X011581Y017425D01*
X011667Y017460D01*
X011734Y017528D01*
X011734Y017528D01*
X012156Y017949D01*
X012224Y017949D01*
X012348Y018000D01*
X012444Y018096D01*
X012496Y018221D01*
X012496Y018356D01*
X012444Y018481D01*
X012348Y018577D01*
X012224Y018628D01*
X012088Y018628D01*
X011963Y018577D01*
X011868Y018481D01*
X011816Y018356D01*
X011816Y018288D01*
X011432Y017904D01*
X010733Y017904D01*
X010645Y017867D01*
X010577Y017799D01*
X009952Y017174D01*
X009916Y017086D01*
X009916Y016991D01*
X009916Y016899D01*
X009916Y016899D01*
X009916Y016847D01*
X009916Y016803D01*
X009916Y016803D01*
X009916Y016793D01*
X009916Y014529D01*
X009868Y014481D01*
X009816Y014356D01*
X009816Y014253D01*
X009718Y014351D01*
X009718Y014351D01*
X007718Y016351D01*
X007718Y019539D01*
X006919Y019561D01*
X006933Y019596D01*
X006933Y019731D01*
X006881Y019856D01*
X006786Y019952D01*
X006661Y020003D01*
X006526Y020003D01*
X006401Y019952D01*
X006305Y019856D01*
X006254Y019731D01*
X006254Y019596D01*
X006261Y019579D01*
X005472Y019601D01*
X005496Y019658D01*
X005496Y019794D01*
X005444Y019919D01*
X005348Y020014D01*
X005224Y020066D01*
X005088Y020066D01*
X004963Y020014D01*
X004868Y019919D01*
X004816Y019794D01*
X004816Y019658D01*
X004833Y019619D01*
X002759Y019676D01*
X002605Y019831D01*
X002207Y019831D01*
X002071Y019695D01*
X001731Y019705D01*
X001605Y019831D01*
X001207Y019831D01*
X001099Y019722D01*
X000968Y019726D01*
X000964Y020114D01*
X001207Y019871D01*
X001605Y019871D01*
X001886Y020152D01*
X001886Y020550D01*
X001605Y020831D01*
X001207Y020831D01*
X000959Y020583D01*
X000954Y021153D01*
X001215Y020891D01*
X001396Y020891D01*
X001396Y021341D01*
X001416Y021341D01*
X001866Y021341D01*
X001866Y021160D01*
X001596Y020891D01*
X001416Y020891D01*
X001416Y021341D01*
X001416Y021361D01*
X001866Y021361D01*
X001866Y021542D01*
X001596Y021811D01*
X001416Y021811D01*
X001416Y021361D01*
X001396Y021361D01*
X001396Y021811D01*
X001215Y021811D01*
X000949Y021545D01*
X000920Y024419D01*
X000982Y024268D01*
X001123Y024127D01*
X001306Y024051D01*
X001505Y024051D01*
X001689Y024127D01*
X001830Y024268D01*
X001906Y024452D01*
X001906Y025250D01*
X001830Y025434D01*
X001689Y025575D01*
X001505Y025651D01*
X001306Y025651D01*
X001123Y025575D01*
X000982Y025434D01*
X000911Y025262D01*
X000906Y025726D01*
X001156Y025976D01*
X025218Y025976D01*
X025218Y022414D01*
X023848Y021043D01*
X023211Y021680D01*
X023110Y021781D01*
X022978Y021836D01*
X022834Y021836D01*
X022702Y021781D01*
X022601Y021680D01*
X022546Y021548D01*
X022546Y021461D01*
X022275Y021740D01*
X022274Y021742D01*
X022225Y021791D01*
X022176Y021841D01*
X022174Y021842D01*
X022172Y021844D01*
X022109Y021870D01*
X022045Y021897D01*
X022042Y021898D01*
X022040Y021899D01*
X021972Y021899D01*
X021902Y021899D01*
X021899Y021899D01*
X021897Y021899D01*
X021833Y021872D01*
X021769Y021846D01*
X021767Y021845D01*
X021764Y021844D01*
X021716Y021795D01*
X021666Y021747D01*
X021665Y021744D01*
X021663Y021742D01*
X021637Y021679D01*
X021609Y021615D01*
X021609Y021612D01*
X021608Y021610D01*
X021608Y021542D01*
X021607Y021472D01*
X021608Y021469D01*
X021608Y021467D01*
X021635Y021403D01*
X021660Y021339D01*
X021662Y021337D01*
X021663Y021335D01*
X021712Y021286D01*
X022679Y020292D01*
X022618Y020231D01*
X022566Y020106D01*
X022566Y019971D01*
X022618Y019846D01*
X022634Y019829D01*
X020843Y018039D01*
X020843Y010164D01*
X020343Y009664D01*
X018396Y009664D01*
X018396Y011491D01*
X018396Y011586D01*
X018359Y011674D01*
X017604Y012429D01*
X017516Y012466D01*
X017421Y012466D01*
X017332Y012429D01*
X017281Y012378D01*
X017151Y012378D01*
X017066Y012343D01*
X017131Y012409D01*
X017183Y012533D01*
X017183Y012669D01*
X017131Y012794D01*
X017090Y012835D01*
X017121Y012908D01*
X017121Y013044D01*
X017069Y013169D01*
X016973Y013264D01*
X016849Y013316D01*
X016713Y013316D01*
X016646Y013288D01*
X016646Y013414D01*
X016713Y013386D01*
X016849Y013386D01*
X016973Y013438D01*
X017069Y013534D01*
X017121Y013658D01*
X017121Y013794D01*
X017109Y013823D01*
X017194Y013909D01*
X017246Y014033D01*
X017246Y014169D01*
X017194Y014294D01*
X017098Y014389D01*
X016974Y014441D01*
X016838Y014441D01*
X016713Y014389D01*
X016646Y014322D01*
X016646Y014568D01*
X016651Y014563D01*
X016776Y014511D01*
X016911Y014511D01*
X017031Y014561D01*
X017151Y014511D01*
X017286Y014511D01*
X017411Y014563D01*
X017506Y014659D01*
X017558Y014783D01*
X017558Y014919D01*
X017506Y015044D01*
X017411Y015139D01*
X017286Y015191D01*
X017171Y015191D01*
X017183Y015221D01*
X017183Y015356D01*
X017131Y015481D01*
X017036Y015577D01*
X016911Y015628D01*
X016776Y015628D01*
X016651Y015577D01*
X016646Y015572D01*
X016646Y016189D01*
X016672Y016215D01*
X016672Y016215D01*
X016672Y016215D01*
X016678Y016229D01*
X016708Y016303D01*
X016708Y016423D01*
X016756Y016471D01*
X016808Y016596D01*
X016808Y016731D01*
X016756Y016856D01*
X016661Y016952D01*
X016536Y017003D01*
X016401Y017003D01*
X016276Y016952D01*
X016180Y016856D01*
X016129Y016731D01*
X016129Y016691D01*
X016088Y016691D01*
X015963Y016639D01*
X015922Y016598D01*
X015849Y016628D01*
X015713Y016628D01*
X015588Y016577D01*
X015547Y016535D01*
X015474Y016566D01*
X015338Y016566D01*
X015306Y016552D01*
X015306Y016930D01*
X016504Y018076D01*
X018213Y018076D01*
X018180Y018044D01*
X018129Y017919D01*
X018129Y017783D01*
X018141Y017754D01*
X018055Y017669D01*
X018004Y017544D01*
X018004Y017408D01*
X018055Y017284D01*
X018151Y017188D01*
X018276Y017136D01*
X018411Y017136D01*
X018536Y017188D01*
X018631Y017284D01*
X018683Y017408D01*
X018683Y017544D01*
X018671Y017573D01*
X018756Y017659D01*
X018808Y017783D01*
X018808Y017919D01*
X018778Y017992D01*
X018819Y018034D01*
X018864Y018143D01*
X018922Y018167D01*
X018963Y018125D01*
X019088Y018074D01*
X019224Y018074D01*
X019348Y018125D01*
X019353Y018130D01*
X019353Y016467D01*
X019305Y016419D01*
X019254Y016294D01*
X019254Y016158D01*
X019305Y016034D01*
X019401Y015938D01*
X019441Y015921D01*
X019441Y015846D01*
X019493Y015721D01*
X019588Y015625D01*
X019713Y015574D01*
X019849Y015574D01*
X019973Y015625D01*
X020015Y015667D01*
X020088Y015636D01*
X020224Y015636D01*
X020348Y015688D01*
X020444Y015784D01*
X020489Y015893D01*
X020598Y015938D01*
X020694Y016034D01*
X020746Y016158D01*
X020746Y016294D01*
X020694Y016419D01*
X020598Y016514D01*
X020521Y016546D01*
X020521Y017803D01*
X020521Y017899D01*
X020484Y017987D01*
X020396Y018075D01*
X020396Y019939D01*
X020468Y020011D01*
X020536Y020011D01*
X020661Y020063D01*
X020756Y020159D01*
X020808Y020283D01*
X020808Y020419D01*
X020756Y020544D01*
X020661Y020639D01*
X020536Y020691D01*
X020401Y020691D01*
X020327Y020660D01*
X020286Y020702D01*
X020161Y020753D01*
X020026Y020753D01*
X019901Y020702D01*
X019805Y020606D01*
X019754Y020481D01*
X019754Y020397D01*
X019728Y020336D01*
X019728Y020243D01*
X019660Y020312D01*
X019694Y020346D01*
X019746Y020471D01*
X019746Y020606D01*
X019694Y020731D01*
X019598Y020827D01*
X019474Y020878D01*
X019338Y020878D01*
X019213Y020827D01*
X019120Y020733D01*
X019069Y020856D01*
X018973Y020952D01*
X018849Y021003D01*
X018713Y021003D01*
X018588Y020952D01*
X018493Y020856D01*
X018441Y020731D01*
X018441Y020596D01*
X018493Y020471D01*
X018588Y020375D01*
X018713Y020324D01*
X018781Y020324D01*
X018853Y020252D01*
X018853Y020202D01*
X018736Y020251D01*
X018576Y020251D01*
X018429Y020190D01*
X018317Y020078D01*
X018256Y019931D01*
X018256Y019771D01*
X018256Y019635D01*
X018235Y019656D01*
X018103Y019711D01*
X017959Y019711D01*
X017827Y019656D01*
X017819Y019649D01*
X016147Y019649D01*
X016014Y019594D01*
X015913Y019492D01*
X015838Y019417D01*
X015746Y019380D01*
X014542Y018207D01*
X014506Y018294D01*
X014411Y018389D01*
X014286Y018441D01*
X014151Y018441D01*
X014026Y018389D01*
X013930Y018294D01*
X013906Y018235D01*
X013882Y018294D01*
X013786Y018389D01*
X013661Y018441D01*
X013526Y018441D01*
X013401Y018389D01*
X013305Y018294D01*
X013291Y018259D01*
X013223Y018327D01*
X013099Y018378D01*
X012963Y018378D01*
X012838Y018327D01*
X012743Y018231D01*
X012691Y018106D01*
X012691Y017971D01*
X012743Y017846D01*
X012838Y017750D01*
X012963Y017699D01*
X013099Y017699D01*
X013223Y017750D01*
X013319Y017846D01*
X013333Y017881D01*
X013401Y017813D01*
X013526Y017761D01*
X013661Y017761D01*
X013786Y017813D01*
X013882Y017909D01*
X013906Y017967D01*
X013930Y017909D01*
X014026Y017813D01*
X014105Y017780D01*
X013309Y017005D01*
X013304Y017003D01*
X013242Y016940D01*
X013242Y016940D01*
X013187Y016886D01*
X013132Y016832D01*
X013131Y016829D01*
X013129Y016828D01*
X013129Y016828D01*
X012942Y016640D01*
X012881Y016493D01*
X012881Y016334D01*
X012881Y014089D01*
X012786Y014128D01*
X012651Y014128D01*
X012526Y014077D01*
X012430Y013981D01*
X012379Y013856D01*
X012379Y013721D01*
X012430Y013596D01*
X012526Y013500D01*
X012651Y013449D01*
X012786Y013449D01*
X012881Y013488D01*
X012881Y013427D01*
X012849Y013441D01*
X012713Y013441D01*
X012588Y013389D01*
X012493Y013294D01*
X012441Y013169D01*
X012441Y013033D01*
X012493Y012909D01*
X012588Y012813D01*
X012713Y012761D01*
X012849Y012761D01*
X012881Y012775D01*
X012881Y011084D01*
X012881Y008271D01*
X012942Y008124D01*
X013054Y008012D01*
X013054Y008012D01*
X013367Y007699D01*
X013367Y007699D01*
X013663Y007403D01*
X012593Y006289D01*
X012593Y001289D01*
X012406Y001164D01*
X006656Y001164D01*
X006656Y001569D01*
X006695Y001563D01*
X006723Y001563D01*
X006723Y002011D01*
X006740Y002011D01*
X007188Y002011D01*
X007510Y002011D01*
X007510Y002028D01*
X007188Y002028D01*
X006740Y002028D01*
X006740Y002011D01*
X006740Y002022D02*
X007510Y002022D01*
X007528Y002022D02*
X008297Y002022D01*
X008315Y002022D02*
X009085Y002022D01*
X009102Y002022D02*
X009872Y002022D01*
X009890Y002022D02*
X010659Y002022D01*
X010677Y002022D02*
X011447Y002022D01*
X011447Y002028D02*
X011125Y002028D01*
X010677Y002028D01*
X010677Y002011D01*
X011125Y002011D01*
X011447Y002011D01*
X011447Y002028D01*
X011465Y002022D02*
X012593Y002022D01*
X012593Y002180D02*
X011884Y002180D01*
X011783Y002339D02*
X012593Y002339D01*
X012593Y002498D02*
X011821Y002498D01*
X011910Y002656D02*
X012593Y002656D01*
X012593Y002815D02*
X011933Y002815D01*
X011903Y002973D02*
X012593Y002973D01*
X012593Y003132D02*
X011806Y003132D01*
X011105Y003132D02*
X011019Y003132D01*
X010533Y003290D02*
X012593Y003290D01*
X012593Y003449D02*
X010561Y003449D01*
X010521Y003607D02*
X012593Y003607D01*
X012593Y003766D02*
X010521Y003766D01*
X010521Y003924D02*
X012593Y003924D01*
X012593Y004083D02*
X011306Y004083D01*
X011319Y004096D02*
X011223Y004000D01*
X011099Y003949D01*
X010963Y003949D01*
X010838Y004000D01*
X010743Y004096D01*
X010691Y004221D01*
X010691Y004356D01*
X010743Y004481D01*
X010838Y004577D01*
X010963Y004628D01*
X011094Y004628D01*
X011978Y005513D01*
X011978Y006173D01*
X011930Y006221D01*
X011879Y006346D01*
X011879Y006481D01*
X011930Y006606D01*
X012026Y006702D01*
X012151Y006753D01*
X012286Y006753D01*
X012411Y006702D01*
X012506Y006606D01*
X012558Y006481D01*
X012558Y006346D01*
X012506Y006221D01*
X012458Y006173D01*
X012458Y005461D01*
X012458Y005366D01*
X012422Y005278D01*
X011371Y004226D01*
X011371Y004221D01*
X011319Y004096D01*
X011386Y004241D02*
X012593Y004241D01*
X012593Y004400D02*
X011544Y004400D01*
X011703Y004559D02*
X012593Y004559D01*
X012593Y004717D02*
X011861Y004717D01*
X012020Y004876D02*
X012593Y004876D01*
X012593Y005034D02*
X012179Y005034D01*
X012337Y005193D02*
X012593Y005193D01*
X012593Y005351D02*
X012452Y005351D01*
X012458Y005510D02*
X012593Y005510D01*
X012593Y005668D02*
X012458Y005668D01*
X012458Y005827D02*
X012593Y005827D01*
X012593Y005985D02*
X012458Y005985D01*
X012458Y006144D02*
X012593Y006144D01*
X012607Y006303D02*
X012540Y006303D01*
X012558Y006461D02*
X012759Y006461D01*
X012911Y006620D02*
X012493Y006620D01*
X011944Y006620D02*
X011396Y006620D01*
X011396Y006778D02*
X013063Y006778D01*
X013216Y006937D02*
X011396Y006937D01*
X011396Y007095D02*
X013368Y007095D01*
X013520Y007254D02*
X011396Y007254D01*
X011396Y007412D02*
X013654Y007412D01*
X013495Y007571D02*
X011396Y007571D01*
X011396Y007729D02*
X013337Y007729D01*
X013178Y007888D02*
X011396Y007888D01*
X011396Y008047D02*
X013020Y008047D01*
X012908Y008205D02*
X011396Y008205D01*
X011396Y008364D02*
X012881Y008364D01*
X012881Y008522D02*
X012620Y008522D01*
X012631Y008534D02*
X012536Y008438D01*
X012411Y008386D01*
X012276Y008386D01*
X012151Y008438D01*
X012055Y008534D01*
X012004Y008658D01*
X012004Y008794D01*
X012055Y008919D01*
X012151Y009014D01*
X012276Y009066D01*
X012411Y009066D01*
X012536Y009014D01*
X012631Y008919D01*
X012683Y008794D01*
X012683Y008658D01*
X012631Y008534D01*
X012683Y008681D02*
X012881Y008681D01*
X012881Y008839D02*
X012664Y008839D01*
X012552Y008998D02*
X012881Y008998D01*
X012881Y009156D02*
X011396Y009156D01*
X011396Y008998D02*
X012135Y008998D01*
X012022Y008839D02*
X011396Y008839D01*
X011396Y008681D02*
X012004Y008681D01*
X012067Y008522D02*
X011396Y008522D01*
X011396Y009315D02*
X012881Y009315D01*
X012881Y009473D02*
X011396Y009473D01*
X011396Y009632D02*
X012881Y009632D01*
X012881Y009791D02*
X011396Y009791D01*
X011396Y009949D02*
X012881Y009949D01*
X012881Y010108D02*
X011396Y010108D01*
X011677Y010266D02*
X012881Y010266D01*
X012881Y010425D02*
X011746Y010425D01*
X011869Y010583D02*
X012881Y010583D01*
X012881Y010742D02*
X011933Y010742D01*
X011915Y010900D02*
X012881Y010900D01*
X012881Y011059D02*
X011804Y011059D01*
X011856Y011217D02*
X011396Y011217D01*
X011396Y011376D02*
X011668Y011376D01*
X011629Y011534D02*
X011396Y011534D01*
X011396Y011693D02*
X011665Y011693D01*
X011691Y011852D02*
X011496Y011852D01*
X011871Y012327D02*
X012881Y012327D01*
X012881Y012169D02*
X012256Y012169D01*
X012359Y012010D02*
X012881Y012010D01*
X012881Y011852D02*
X012371Y011852D01*
X012291Y011693D02*
X012881Y011693D01*
X012881Y011534D02*
X012308Y011534D01*
X012269Y011376D02*
X012881Y011376D01*
X012881Y011217D02*
X012081Y011217D01*
X011814Y012486D02*
X012881Y012486D01*
X012881Y012644D02*
X011246Y012644D01*
X011185Y012803D02*
X012613Y012803D01*
X012471Y012961D02*
X011082Y012961D01*
X011207Y013120D02*
X012441Y013120D01*
X012487Y013278D02*
X011243Y013278D01*
X011243Y013437D02*
X012704Y013437D01*
X012858Y013437D02*
X012881Y013437D01*
X012431Y013596D02*
X011243Y013596D01*
X011243Y013754D02*
X012379Y013754D01*
X012402Y013913D02*
X012073Y013913D01*
X012173Y014071D02*
X012521Y014071D01*
X012183Y014230D02*
X012881Y014230D01*
X012881Y014388D02*
X012099Y014388D01*
X011519Y014547D02*
X012881Y014547D01*
X012881Y014705D02*
X011582Y014705D01*
X011687Y014864D02*
X012881Y014864D01*
X012881Y015022D02*
X011703Y015022D01*
X011648Y015181D02*
X012881Y015181D01*
X012881Y015340D02*
X011243Y015340D01*
X011432Y015498D02*
X012881Y015498D01*
X012881Y015657D02*
X011653Y015657D01*
X011703Y015815D02*
X012881Y015815D01*
X012881Y015974D02*
X011682Y015974D01*
X011571Y016132D02*
X012881Y016132D01*
X012881Y016291D02*
X011448Y016291D01*
X011298Y016449D02*
X012881Y016449D01*
X012928Y016608D02*
X010396Y016608D01*
X010396Y016766D02*
X013068Y016766D01*
X013227Y016925D02*
X010396Y016925D01*
X010540Y017084D02*
X013390Y017084D01*
X013553Y017242D02*
X010699Y017242D01*
X010857Y017401D02*
X013715Y017401D01*
X013878Y017559D02*
X011766Y017559D01*
X011924Y017718D02*
X012918Y017718D01*
X013144Y017718D02*
X014041Y017718D01*
X013963Y017876D02*
X013849Y017876D01*
X013823Y018352D02*
X013989Y018352D01*
X014448Y018352D02*
X014691Y018352D01*
X014854Y018510D02*
X012415Y018510D01*
X012496Y018352D02*
X012899Y018352D01*
X012727Y018193D02*
X012484Y018193D01*
X012383Y018035D02*
X012691Y018035D01*
X012730Y017876D02*
X012083Y017876D01*
X011563Y018035D02*
X010095Y018035D01*
X010112Y018074D02*
X010069Y017971D01*
X009973Y017875D01*
X009849Y017824D01*
X009713Y017824D01*
X009588Y017875D01*
X009493Y017971D01*
X009441Y018096D01*
X009441Y018231D01*
X009493Y018356D01*
X009588Y018452D01*
X009713Y018503D01*
X009763Y018503D01*
X009805Y018606D01*
X009901Y018702D01*
X010026Y018753D01*
X010161Y018753D01*
X010286Y018702D01*
X010381Y018606D01*
X010433Y018481D01*
X010433Y018346D01*
X010381Y018221D01*
X010286Y018125D01*
X010161Y018074D01*
X010112Y018074D01*
X009974Y017876D02*
X010667Y017876D01*
X010496Y017718D02*
X009453Y017718D01*
X009453Y017654D02*
X009399Y017522D01*
X009297Y017421D01*
X009165Y017366D01*
X009076Y017366D01*
X009078Y017360D01*
X009078Y017217D01*
X009024Y017085D01*
X008922Y016983D01*
X008790Y016929D01*
X008647Y016929D01*
X008514Y016983D01*
X008413Y017085D01*
X008358Y017217D01*
X008358Y017360D01*
X008413Y017492D01*
X008430Y017509D01*
X008421Y017529D01*
X008421Y017673D01*
X008476Y017805D01*
X008577Y017906D01*
X008709Y017961D01*
X008819Y017961D01*
X008889Y018031D01*
X009022Y018086D01*
X009165Y018086D01*
X009297Y018031D01*
X009399Y017930D01*
X009453Y017798D01*
X009453Y017654D01*
X009414Y017559D02*
X010337Y017559D01*
X010179Y017401D02*
X009249Y017401D01*
X009078Y017242D02*
X010020Y017242D01*
X009916Y017084D02*
X009022Y017084D01*
X008414Y017084D02*
X007718Y017084D01*
X007718Y017242D02*
X008358Y017242D01*
X008375Y017401D02*
X007718Y017401D01*
X007718Y017559D02*
X008421Y017559D01*
X008440Y017718D02*
X007718Y017718D01*
X007718Y017876D02*
X008547Y017876D01*
X008468Y018035D02*
X008898Y018035D01*
X008838Y018074D02*
X008713Y018125D01*
X008646Y018193D01*
X008631Y018159D01*
X008536Y018063D01*
X008411Y018011D01*
X008276Y018011D01*
X008151Y018063D01*
X008055Y018159D01*
X008004Y018283D01*
X008004Y018419D01*
X008055Y018544D01*
X008151Y018639D01*
X008276Y018691D01*
X008411Y018691D01*
X008536Y018639D01*
X008604Y018571D01*
X008618Y018606D01*
X008713Y018702D01*
X008838Y018753D01*
X008974Y018753D01*
X009098Y018702D01*
X009194Y018606D01*
X009246Y018481D01*
X009246Y018346D01*
X009194Y018221D01*
X009098Y018125D01*
X008974Y018074D01*
X008838Y018074D01*
X009166Y018193D02*
X009441Y018193D01*
X009466Y018035D02*
X009289Y018035D01*
X009421Y017876D02*
X009588Y017876D01*
X009491Y018352D02*
X009246Y018352D01*
X009234Y018510D02*
X009766Y018510D01*
X009868Y018669D02*
X009131Y018669D01*
X008681Y018669D02*
X008464Y018669D01*
X008223Y018669D02*
X007718Y018669D01*
X007718Y018827D02*
X015179Y018827D01*
X015016Y018669D02*
X011194Y018669D01*
X011161Y018702D02*
X011256Y018606D01*
X011308Y018481D01*
X011308Y018346D01*
X011256Y018221D01*
X011161Y018125D01*
X011036Y018074D01*
X010901Y018074D01*
X010776Y018125D01*
X010680Y018221D01*
X010629Y018346D01*
X010629Y018481D01*
X010680Y018606D01*
X010776Y018702D01*
X010901Y018753D01*
X011036Y018753D01*
X011161Y018702D01*
X011296Y018510D02*
X011897Y018510D01*
X011816Y018352D02*
X011308Y018352D01*
X011229Y018193D02*
X011721Y018193D01*
X010708Y018193D02*
X010354Y018193D01*
X010433Y018352D02*
X010629Y018352D01*
X010641Y018510D02*
X010421Y018510D01*
X010319Y018669D02*
X010743Y018669D01*
X010591Y020062D02*
X010970Y020062D01*
X011175Y020267D01*
X011379Y020062D01*
X011758Y020062D01*
X011962Y020267D01*
X012166Y020062D01*
X012545Y020062D01*
X012749Y020267D01*
X012954Y020062D01*
X013333Y020062D01*
X013601Y020330D01*
X013601Y020709D01*
X013396Y020914D01*
X013601Y021118D01*
X013601Y021497D01*
X013333Y021765D01*
X012954Y021765D01*
X012735Y021546D01*
X012537Y021745D01*
X012356Y021745D01*
X012356Y021308D01*
X012356Y021308D01*
X012356Y021745D01*
X012175Y021745D01*
X011962Y021532D01*
X011750Y021745D01*
X011569Y021745D01*
X011569Y021308D01*
X011568Y021308D01*
X011568Y021745D01*
X011387Y021745D01*
X011175Y021532D01*
X010962Y021745D01*
X010781Y021745D01*
X010781Y021308D01*
X010781Y021308D01*
X010781Y021745D01*
X010600Y021745D01*
X010387Y021532D01*
X010175Y021745D01*
X009994Y021745D01*
X009994Y021308D01*
X009993Y021308D01*
X009993Y021745D01*
X009812Y021745D01*
X009600Y021532D01*
X009387Y021745D01*
X009206Y021745D01*
X009206Y021308D01*
X009206Y021308D01*
X009206Y021745D01*
X009025Y021745D01*
X008812Y021532D01*
X008600Y021745D01*
X008419Y021745D01*
X008419Y021308D01*
X008419Y021308D01*
X008419Y021745D01*
X008238Y021745D01*
X007981Y021488D01*
X007981Y021307D01*
X008418Y021307D01*
X008418Y021307D01*
X007981Y021307D01*
X007981Y021126D01*
X008180Y020928D01*
X007961Y020709D01*
X007961Y020330D01*
X008229Y020062D01*
X008608Y020062D01*
X008812Y020267D01*
X009017Y020062D01*
X009396Y020062D01*
X009600Y020267D01*
X009804Y020062D01*
X010183Y020062D01*
X010387Y020267D01*
X010591Y020062D01*
X010558Y020096D02*
X010216Y020096D01*
X010375Y020254D02*
X010399Y020254D01*
X011004Y020096D02*
X011345Y020096D01*
X011187Y020254D02*
X011162Y020254D01*
X011791Y020096D02*
X012133Y020096D01*
X011974Y020254D02*
X011950Y020254D01*
X012579Y020096D02*
X012920Y020096D01*
X012762Y020254D02*
X012737Y020254D01*
X013366Y020096D02*
X018335Y020096D01*
X018259Y019937D02*
X006800Y019937D01*
X006914Y019779D02*
X018256Y019779D01*
X018551Y020413D02*
X013601Y020413D01*
X013601Y020571D02*
X018451Y020571D01*
X018441Y020730D02*
X013580Y020730D01*
X013421Y020889D02*
X018525Y020889D01*
X019036Y020889D02*
X022099Y020889D01*
X021944Y021047D02*
X013530Y021047D01*
X013601Y021206D02*
X021790Y021206D01*
X021650Y021364D02*
X013601Y021364D01*
X013575Y021523D02*
X021608Y021523D01*
X021638Y021681D02*
X013416Y021681D01*
X012870Y021681D02*
X012600Y021681D01*
X012356Y021681D02*
X012356Y021681D01*
X012356Y021523D02*
X012356Y021523D01*
X012356Y021364D02*
X012356Y021364D01*
X012355Y021307D02*
X011918Y021307D01*
X012355Y021307D01*
X012355Y021307D01*
X011918Y021307D02*
X011569Y021307D01*
X011569Y021307D01*
X011918Y021307D01*
X011568Y021307D02*
X011131Y021307D01*
X010781Y021307D01*
X011218Y021307D01*
X011568Y021307D01*
X011568Y021307D01*
X011569Y021364D02*
X011568Y021364D01*
X011569Y021523D02*
X011568Y021523D01*
X011569Y021681D02*
X011568Y021681D01*
X011324Y021681D02*
X011025Y021681D01*
X010781Y021681D02*
X010781Y021681D01*
X010781Y021523D02*
X010781Y021523D01*
X010781Y021364D02*
X010781Y021364D01*
X010781Y021307D02*
X010781Y021307D01*
X010781Y021307D01*
X010431Y021307D01*
X009994Y021307D01*
X009994Y021307D01*
X010431Y021307D01*
X010781Y021307D01*
X010536Y021681D02*
X010238Y021681D01*
X009994Y021681D02*
X009993Y021681D01*
X009994Y021523D02*
X009993Y021523D01*
X009994Y021364D02*
X009993Y021364D01*
X009993Y021307D02*
X009556Y021307D01*
X009993Y021307D01*
X009993Y021307D01*
X009556Y021307D02*
X009207Y021307D01*
X009207Y021307D01*
X009556Y021307D01*
X009206Y021307D02*
X008769Y021307D01*
X009206Y021307D01*
X009206Y021307D01*
X009206Y021364D02*
X009206Y021364D01*
X009206Y021523D02*
X009206Y021523D01*
X009206Y021681D02*
X009206Y021681D01*
X008962Y021681D02*
X008663Y021681D01*
X008419Y021681D02*
X008419Y021681D01*
X008419Y021523D02*
X008419Y021523D01*
X008419Y021364D02*
X008419Y021364D01*
X008419Y021307D02*
X008419Y021307D01*
X008769Y021307D01*
X008419Y021307D01*
X007981Y021364D02*
X002866Y021364D01*
X002866Y021361D02*
X002416Y021361D01*
X002416Y021341D01*
X002866Y021341D01*
X002866Y021160D01*
X002596Y020891D01*
X002416Y020891D01*
X002416Y021341D01*
X002396Y021341D01*
X002396Y020891D01*
X002215Y020891D01*
X001946Y021160D01*
X001946Y021341D01*
X002396Y021341D01*
X002396Y021361D01*
X002416Y021361D01*
X002416Y021811D01*
X002596Y021811D01*
X002866Y021542D01*
X002866Y021361D01*
X002866Y021206D02*
X007981Y021206D01*
X008060Y021047D02*
X002753Y021047D01*
X002605Y020831D02*
X002886Y020550D01*
X002886Y020152D01*
X002605Y019871D01*
X002207Y019871D01*
X001926Y020152D01*
X001926Y020550D01*
X002207Y020831D01*
X002605Y020831D01*
X002706Y020730D02*
X007982Y020730D01*
X007961Y020571D02*
X002864Y020571D01*
X002886Y020413D02*
X007961Y020413D01*
X008037Y020254D02*
X002886Y020254D01*
X002830Y020096D02*
X008196Y020096D01*
X008642Y020096D02*
X008983Y020096D01*
X008825Y020254D02*
X008800Y020254D01*
X009429Y020096D02*
X009771Y020096D01*
X009612Y020254D02*
X009588Y020254D01*
X008141Y020889D02*
X000956Y020889D01*
X000955Y021047D02*
X001059Y021047D01*
X001106Y020730D02*
X000958Y020730D01*
X001396Y021047D02*
X001416Y021047D01*
X001416Y021206D02*
X001396Y021206D01*
X001396Y021364D02*
X001416Y021364D01*
X001416Y021523D02*
X001396Y021523D01*
X001396Y021681D02*
X001416Y021681D01*
X001726Y021681D02*
X002086Y021681D01*
X002215Y021811D02*
X002396Y021811D01*
X002396Y021361D01*
X001946Y021361D01*
X001946Y021542D01*
X002215Y021811D01*
X002396Y021681D02*
X002416Y021681D01*
X002416Y021523D02*
X002396Y021523D01*
X002396Y021364D02*
X002416Y021364D01*
X002416Y021206D02*
X002396Y021206D01*
X002396Y021047D02*
X002416Y021047D01*
X002059Y021047D02*
X001753Y021047D01*
X001866Y021206D02*
X001946Y021206D01*
X001946Y021364D02*
X001866Y021364D01*
X001866Y021523D02*
X001946Y021523D01*
X002726Y021681D02*
X008174Y021681D01*
X008016Y021523D02*
X002866Y021523D01*
X002106Y020730D02*
X001706Y020730D01*
X001864Y020571D02*
X001948Y020571D01*
X001926Y020413D02*
X001886Y020413D01*
X001886Y020254D02*
X001926Y020254D01*
X001982Y020096D02*
X001830Y020096D01*
X001671Y019937D02*
X002141Y019937D01*
X002155Y019779D02*
X001657Y019779D01*
X001155Y019779D02*
X000968Y019779D01*
X000966Y019937D02*
X001141Y019937D01*
X000982Y020096D02*
X000965Y020096D01*
X002671Y019937D02*
X004887Y019937D01*
X004816Y019779D02*
X002657Y019779D01*
X004777Y019620D02*
X004832Y019620D01*
X005480Y019620D02*
X006254Y019620D01*
X006273Y019779D02*
X005496Y019779D01*
X005425Y019937D02*
X006387Y019937D01*
X006933Y019620D02*
X016078Y019620D01*
X015882Y019462D02*
X007718Y019462D01*
X007718Y019303D02*
X015667Y019303D01*
X015504Y019145D02*
X007718Y019145D01*
X007718Y018986D02*
X015342Y018986D01*
X016461Y018035D02*
X018177Y018035D01*
X018129Y017876D02*
X016295Y017876D01*
X016129Y017718D02*
X018104Y017718D01*
X018010Y017559D02*
X015964Y017559D01*
X015798Y017401D02*
X018007Y017401D01*
X018097Y017242D02*
X015632Y017242D01*
X015466Y017084D02*
X019353Y017084D01*
X019353Y017242D02*
X018590Y017242D01*
X018680Y017401D02*
X019353Y017401D01*
X019353Y017559D02*
X018677Y017559D01*
X018781Y017718D02*
X019353Y017718D01*
X019353Y017876D02*
X018808Y017876D01*
X018820Y018035D02*
X019353Y018035D01*
X020396Y018193D02*
X020998Y018193D01*
X020843Y018035D02*
X020437Y018035D01*
X020521Y017876D02*
X020843Y017876D01*
X020843Y017718D02*
X020521Y017718D01*
X020521Y017559D02*
X020843Y017559D01*
X020843Y017401D02*
X020521Y017401D01*
X020521Y017242D02*
X020843Y017242D01*
X020843Y017084D02*
X020521Y017084D01*
X020521Y016925D02*
X020843Y016925D01*
X020843Y016766D02*
X020521Y016766D01*
X020521Y016608D02*
X020843Y016608D01*
X020843Y016449D02*
X020663Y016449D01*
X020746Y016291D02*
X020843Y016291D01*
X020843Y016132D02*
X020735Y016132D01*
X020634Y015974D02*
X020843Y015974D01*
X020843Y015815D02*
X020457Y015815D01*
X020273Y015657D02*
X020843Y015657D01*
X020843Y015498D02*
X019525Y015498D01*
X019506Y015544D02*
X019558Y015419D01*
X019558Y015283D01*
X019506Y015159D01*
X019411Y015063D01*
X019308Y015020D01*
X019308Y014971D01*
X019256Y014846D01*
X019161Y014750D01*
X019036Y014699D01*
X018901Y014699D01*
X018776Y014750D01*
X018680Y014846D01*
X018629Y014971D01*
X018629Y015106D01*
X018680Y015231D01*
X018707Y015257D01*
X018618Y015346D01*
X018566Y015471D01*
X018566Y015606D01*
X018618Y015731D01*
X018623Y015736D01*
X018588Y015750D01*
X018493Y015846D01*
X018441Y015971D01*
X018441Y016106D01*
X018493Y016231D01*
X018588Y016327D01*
X018713Y016378D01*
X018849Y016378D01*
X018973Y016327D01*
X019069Y016231D01*
X019121Y016106D01*
X019121Y015971D01*
X019069Y015846D01*
X019064Y015841D01*
X019098Y015827D01*
X019194Y015731D01*
X019211Y015691D01*
X019286Y015691D01*
X019411Y015639D01*
X019506Y015544D01*
X019557Y015657D02*
X019369Y015657D01*
X019454Y015815D02*
X019110Y015815D01*
X019121Y015974D02*
X019365Y015974D01*
X019264Y016132D02*
X019110Y016132D01*
X019009Y016291D02*
X019254Y016291D01*
X019336Y016449D02*
X016735Y016449D01*
X016703Y016291D02*
X018553Y016291D01*
X018452Y016132D02*
X016646Y016132D01*
X016646Y015974D02*
X018441Y015974D01*
X018524Y015815D02*
X017735Y015815D01*
X017756Y015794D02*
X017773Y015753D01*
X017849Y015753D01*
X017973Y015702D01*
X018069Y015606D01*
X018114Y015497D01*
X018223Y015452D01*
X018319Y015356D01*
X018364Y015247D01*
X018473Y015202D01*
X018569Y015106D01*
X018621Y014981D01*
X018621Y014846D01*
X018569Y014721D01*
X018476Y014628D01*
X018599Y014628D01*
X018723Y014577D01*
X018819Y014481D01*
X018862Y014378D01*
X018911Y014378D01*
X019036Y014327D01*
X019131Y014231D01*
X019183Y014106D01*
X019183Y013971D01*
X019131Y013846D01*
X019036Y013750D01*
X018911Y013699D01*
X018776Y013699D01*
X018651Y013750D01*
X018555Y013846D01*
X018513Y013949D01*
X018463Y013949D01*
X018338Y014000D01*
X018243Y014096D01*
X018191Y014221D01*
X018191Y014356D01*
X018243Y014481D01*
X018336Y014574D01*
X018213Y014574D01*
X018088Y014625D01*
X017993Y014721D01*
X017948Y014830D01*
X017838Y014875D01*
X017743Y014971D01*
X017698Y015080D01*
X017588Y015125D01*
X017493Y015221D01*
X017476Y015261D01*
X017401Y015261D01*
X017276Y015313D01*
X017180Y015409D01*
X017129Y015533D01*
X017129Y015669D01*
X017180Y015794D01*
X017276Y015889D01*
X017401Y015941D01*
X017536Y015941D01*
X017661Y015889D01*
X017756Y015794D01*
X018018Y015657D02*
X018587Y015657D01*
X018566Y015498D02*
X018114Y015498D01*
X018326Y015340D02*
X018624Y015340D01*
X018660Y015181D02*
X018494Y015181D01*
X018604Y015022D02*
X018629Y015022D01*
X018621Y014864D02*
X018673Y014864D01*
X018553Y014705D02*
X018885Y014705D01*
X019052Y014705D02*
X020843Y014705D01*
X020843Y014547D02*
X018753Y014547D01*
X018857Y014388D02*
X020843Y014388D01*
X020843Y014230D02*
X019132Y014230D01*
X019183Y014071D02*
X020843Y014071D01*
X020843Y013913D02*
X019159Y013913D01*
X019040Y013754D02*
X020843Y013754D01*
X020843Y013596D02*
X017095Y013596D01*
X017121Y013754D02*
X018647Y013754D01*
X018528Y013913D02*
X017196Y013913D01*
X017246Y014071D02*
X018268Y014071D01*
X018191Y014230D02*
X017220Y014230D01*
X017099Y014388D02*
X018204Y014388D01*
X018309Y014547D02*
X017372Y014547D01*
X017526Y014705D02*
X018009Y014705D01*
X017866Y014864D02*
X017558Y014864D01*
X017515Y015022D02*
X017722Y015022D01*
X017533Y015181D02*
X017310Y015181D01*
X017249Y015340D02*
X017183Y015340D01*
X017143Y015498D02*
X017114Y015498D01*
X017129Y015657D02*
X016646Y015657D01*
X016646Y015815D02*
X017202Y015815D01*
X016808Y016608D02*
X019353Y016608D01*
X019353Y016766D02*
X016794Y016766D01*
X016688Y016925D02*
X019353Y016925D01*
X020005Y015657D02*
X020039Y015657D01*
X019558Y015340D02*
X020843Y015340D01*
X020843Y015181D02*
X019516Y015181D01*
X019313Y015022D02*
X020843Y015022D01*
X020843Y014864D02*
X019264Y014864D01*
X018974Y013503D02*
X019098Y013452D01*
X019194Y013356D01*
X019246Y013231D01*
X019246Y013096D01*
X019194Y012971D01*
X019098Y012875D01*
X018974Y012824D01*
X018838Y012824D01*
X018713Y012875D01*
X018618Y012971D01*
X018566Y013096D01*
X018566Y013231D01*
X018618Y013356D01*
X018713Y013452D01*
X018838Y013503D01*
X018974Y013503D01*
X019113Y013437D02*
X020843Y013437D01*
X020843Y013278D02*
X019226Y013278D01*
X019246Y013120D02*
X020843Y013120D01*
X020843Y012961D02*
X019184Y012961D01*
X018627Y012961D02*
X017121Y012961D01*
X017122Y012803D02*
X020843Y012803D01*
X020843Y012644D02*
X017183Y012644D01*
X017164Y012486D02*
X020843Y012486D01*
X020843Y012327D02*
X017707Y012327D01*
X017865Y012169D02*
X020843Y012169D01*
X020843Y012010D02*
X018024Y012010D01*
X018182Y011852D02*
X020843Y011852D01*
X020843Y011693D02*
X018341Y011693D01*
X018396Y011534D02*
X020843Y011534D01*
X020843Y011376D02*
X018396Y011376D01*
X018396Y011217D02*
X020843Y011217D01*
X020843Y011059D02*
X018396Y011059D01*
X018396Y010900D02*
X020843Y010900D01*
X020843Y010742D02*
X018396Y010742D01*
X018396Y010583D02*
X020843Y010583D01*
X020843Y010425D02*
X018396Y010425D01*
X018396Y010266D02*
X020843Y010266D01*
X020787Y010108D02*
X018396Y010108D01*
X018396Y009949D02*
X020629Y009949D01*
X020470Y009791D02*
X018396Y009791D01*
X018434Y009632D02*
X021187Y009632D01*
X021029Y009791D02*
X018595Y009791D01*
X018656Y009851D02*
X018376Y009574D01*
X018376Y009572D01*
X018247Y009444D01*
X018244Y009444D01*
X017904Y009108D01*
X017907Y009108D01*
X018025Y009060D01*
X018115Y008970D01*
X018163Y008852D01*
X018163Y008725D01*
X018115Y008607D01*
X018108Y008601D01*
X018115Y008595D01*
X018163Y008477D01*
X018163Y008350D01*
X018115Y008232D01*
X018025Y008142D01*
X017907Y008094D01*
X017780Y008094D01*
X017662Y008142D01*
X017572Y008232D01*
X017524Y008350D01*
X017524Y008477D01*
X017572Y008595D01*
X017579Y008601D01*
X017572Y008607D01*
X017524Y008725D01*
X017524Y008732D01*
X017029Y008243D01*
X017052Y008220D01*
X017101Y008102D01*
X017101Y007975D01*
X017052Y007857D01*
X017033Y007839D01*
X019463Y007839D01*
X019583Y007839D01*
X019693Y007793D01*
X020255Y007230D01*
X020340Y007146D01*
X020386Y007036D01*
X020386Y006587D01*
X020411Y006577D01*
X020507Y006481D01*
X020558Y006356D01*
X020558Y006221D01*
X020507Y006096D01*
X020411Y006000D01*
X020286Y005949D01*
X020151Y005949D01*
X020026Y006000D01*
X019930Y006096D01*
X019890Y006192D01*
X019831Y006251D01*
X019786Y006362D01*
X019786Y006481D01*
X019786Y006852D01*
X019538Y007099D01*
X019490Y006982D01*
X019400Y006892D01*
X019282Y006844D01*
X019155Y006844D01*
X019116Y006860D01*
X019115Y006857D01*
X019025Y006767D01*
X019022Y006766D01*
X019038Y006727D01*
X019038Y006600D01*
X018990Y006482D01*
X018900Y006392D01*
X018782Y006344D01*
X018655Y006344D01*
X018638Y006351D01*
X018615Y006295D01*
X018530Y006210D01*
X018583Y006157D01*
X018712Y006028D01*
X018747Y005993D01*
X018788Y005964D01*
X018807Y005933D01*
X018833Y005907D01*
X018833Y005906D01*
X020612Y005906D01*
X020619Y005912D01*
X020812Y005976D01*
X020818Y005980D01*
X020865Y005994D01*
X020911Y006013D01*
X020912Y006013D01*
X020924Y006013D01*
X020934Y006017D01*
X020941Y006016D01*
X020947Y006018D01*
X020996Y006013D01*
X021046Y006013D01*
X021047Y006012D01*
X021642Y006009D01*
X021618Y006033D01*
X021566Y006158D01*
X021566Y006294D01*
X021583Y006336D01*
X021583Y006340D01*
X021623Y006436D01*
X021696Y006509D01*
X021792Y006549D01*
X021796Y006549D01*
X021838Y006566D01*
X021974Y006566D01*
X022016Y006549D01*
X022906Y006549D01*
X022906Y008351D01*
X022593Y008664D01*
X022226Y008664D01*
X022226Y008600D01*
X022177Y008482D01*
X022087Y008392D01*
X021970Y008344D01*
X021911Y008344D01*
X021865Y008232D01*
X021775Y008142D01*
X021657Y008094D01*
X021530Y008094D01*
X021412Y008142D01*
X021322Y008232D01*
X021274Y008350D01*
X021274Y008477D01*
X021322Y008595D01*
X021329Y008601D01*
X021260Y008670D01*
X021211Y008787D01*
X021211Y008915D01*
X021260Y009032D01*
X021350Y009122D01*
X021467Y009171D01*
X021595Y009171D01*
X021687Y009133D01*
X020968Y009851D01*
X018656Y009851D01*
X018277Y009473D02*
X021346Y009473D01*
X021505Y009315D02*
X019769Y009315D01*
X019802Y009282D02*
X019851Y009165D01*
X019851Y009037D01*
X019802Y008920D01*
X019712Y008830D01*
X019595Y008781D01*
X019467Y008781D01*
X019350Y008830D01*
X019260Y008920D01*
X019211Y009037D01*
X019211Y009165D01*
X019260Y009282D01*
X019350Y009372D01*
X019467Y009421D01*
X019595Y009421D01*
X019712Y009372D01*
X019802Y009282D01*
X019851Y009156D02*
X020009Y009156D01*
X020037Y009185D02*
X019947Y009095D01*
X019899Y008977D01*
X019899Y008850D01*
X019947Y008732D01*
X020037Y008642D01*
X020155Y008594D01*
X020282Y008594D01*
X020400Y008642D01*
X020490Y008732D01*
X020538Y008850D01*
X020538Y008977D01*
X020490Y009095D01*
X020400Y009185D01*
X020282Y009233D01*
X020155Y009233D01*
X020037Y009185D01*
X019907Y008998D02*
X019834Y008998D01*
X019903Y008839D02*
X019721Y008839D01*
X019999Y008681D02*
X018145Y008681D01*
X018145Y008522D02*
X018881Y008522D01*
X018885Y008532D02*
X018975Y008622D01*
X019092Y008671D01*
X019220Y008671D01*
X019337Y008622D01*
X019427Y008532D01*
X019476Y008415D01*
X019476Y008287D01*
X019427Y008170D01*
X019337Y008080D01*
X019220Y008031D01*
X019092Y008031D01*
X018975Y008080D01*
X018885Y008170D01*
X018836Y008287D01*
X018836Y008415D01*
X018885Y008532D01*
X018836Y008364D02*
X018163Y008364D01*
X018087Y008205D02*
X018870Y008205D01*
X019055Y008047D02*
X017101Y008047D01*
X017065Y007888D02*
X022906Y007888D01*
X022906Y007729D02*
X019756Y007729D01*
X019842Y007906D02*
X019725Y007955D01*
X019635Y008045D01*
X019586Y008162D01*
X019586Y008290D01*
X019635Y008407D01*
X019725Y008497D01*
X019842Y008546D01*
X019970Y008546D01*
X020087Y008497D01*
X020177Y008407D01*
X020226Y008290D01*
X020226Y008162D01*
X020177Y008045D01*
X020087Y007955D01*
X019970Y007906D01*
X019842Y007906D01*
X019634Y008047D02*
X019257Y008047D01*
X019442Y008205D02*
X019586Y008205D01*
X019617Y008364D02*
X019476Y008364D01*
X019431Y008522D02*
X019785Y008522D01*
X020027Y008522D02*
X020506Y008522D01*
X020510Y008532D02*
X020600Y008622D01*
X020717Y008671D01*
X020845Y008671D01*
X020962Y008622D01*
X021052Y008532D01*
X021101Y008415D01*
X021101Y008287D01*
X021052Y008170D01*
X020962Y008080D01*
X020845Y008031D01*
X020717Y008031D01*
X020600Y008080D01*
X020510Y008170D01*
X020461Y008287D01*
X020461Y008415D01*
X020510Y008532D01*
X020438Y008681D02*
X021255Y008681D01*
X021292Y008522D02*
X021056Y008522D01*
X021101Y008364D02*
X021274Y008364D01*
X021350Y008205D02*
X021067Y008205D01*
X020882Y008047D02*
X022906Y008047D01*
X022906Y008205D02*
X021837Y008205D01*
X022018Y008364D02*
X022893Y008364D01*
X022735Y008522D02*
X022194Y008522D01*
X021211Y008839D02*
X020534Y008839D01*
X020530Y008998D02*
X021246Y008998D01*
X021432Y009156D02*
X020428Y009156D01*
X020461Y008364D02*
X020195Y008364D01*
X020226Y008205D02*
X020495Y008205D01*
X020680Y008047D02*
X020178Y008047D01*
X019915Y007571D02*
X022906Y007571D01*
X022906Y007412D02*
X021552Y007412D01*
X021532Y007421D02*
X021650Y007372D01*
X021740Y007282D01*
X021788Y007165D01*
X021788Y007037D01*
X021740Y006920D01*
X021650Y006830D01*
X021532Y006781D01*
X021405Y006781D01*
X021287Y006830D01*
X021250Y006868D01*
X021212Y006830D01*
X021095Y006781D01*
X020967Y006781D01*
X020850Y006830D01*
X020760Y006920D01*
X020711Y007037D01*
X020711Y007165D01*
X020760Y007282D01*
X020850Y007372D01*
X020967Y007421D01*
X021095Y007421D01*
X021212Y007372D01*
X021250Y007335D01*
X021287Y007372D01*
X021405Y007421D01*
X021532Y007421D01*
X021384Y007412D02*
X021115Y007412D01*
X020947Y007412D02*
X020073Y007412D01*
X020232Y007254D02*
X020748Y007254D01*
X020711Y007095D02*
X020361Y007095D01*
X020386Y006937D02*
X020753Y006937D01*
X020386Y006778D02*
X022906Y006778D01*
X022906Y006620D02*
X020386Y006620D01*
X020515Y006461D02*
X021648Y006461D01*
X021570Y006303D02*
X020558Y006303D01*
X020527Y006144D02*
X021572Y006144D01*
X021843Y006289D02*
X023343Y006289D01*
X023656Y005976D01*
X022906Y006937D02*
X021747Y006937D01*
X021788Y007095D02*
X022906Y007095D01*
X022906Y007254D02*
X021751Y007254D01*
X021843Y006289D02*
X021906Y006226D01*
X020912Y006013D02*
X020912Y006013D01*
X020835Y005985D02*
X020375Y005985D01*
X020062Y005985D02*
X018757Y005985D01*
X018712Y006028D02*
X018712Y006028D01*
X018596Y006144D02*
X019910Y006144D01*
X019810Y006303D02*
X018618Y006303D01*
X018583Y006157D02*
X018583Y006157D01*
X018968Y006461D02*
X019786Y006461D01*
X019786Y006620D02*
X019038Y006620D01*
X019035Y006778D02*
X019786Y006778D01*
X019701Y006937D02*
X019444Y006937D01*
X019536Y007095D02*
X019542Y007095D01*
X017600Y008205D02*
X017058Y008205D01*
X017151Y008364D02*
X017524Y008364D01*
X017542Y008522D02*
X017311Y008522D01*
X017472Y008681D02*
X017542Y008681D01*
X017953Y009156D02*
X019211Y009156D01*
X019228Y008998D02*
X018086Y008998D01*
X018163Y008839D02*
X019340Y008839D01*
X019293Y009315D02*
X018113Y009315D01*
X015756Y008810D02*
X015756Y008075D01*
X015168Y008662D01*
X015168Y008815D01*
X015118Y008936D01*
X015118Y009181D01*
X015057Y009328D01*
X014945Y009440D01*
X014293Y010092D01*
X014293Y010665D01*
X014411Y010782D01*
X014532Y010903D01*
X014756Y010679D01*
X014756Y010334D01*
X014756Y009896D01*
X014817Y009749D01*
X014929Y009637D01*
X015756Y008810D01*
X015727Y008839D02*
X015159Y008839D01*
X015168Y008681D02*
X015756Y008681D01*
X015756Y008522D02*
X015309Y008522D01*
X015467Y008364D02*
X015756Y008364D01*
X015756Y008205D02*
X015626Y008205D01*
X015569Y008998D02*
X015118Y008998D01*
X015118Y009156D02*
X015410Y009156D01*
X015251Y009315D02*
X015063Y009315D01*
X015093Y009473D02*
X014912Y009473D01*
X014934Y009632D02*
X014753Y009632D01*
X014800Y009791D02*
X014595Y009791D01*
X014436Y009949D02*
X014756Y009949D01*
X014756Y010108D02*
X014293Y010108D01*
X014293Y010266D02*
X014756Y010266D01*
X014756Y010425D02*
X014293Y010425D01*
X014293Y010583D02*
X014756Y010583D01*
X014656Y010664D02*
X014718Y010726D01*
X014694Y010742D02*
X014371Y010742D01*
X014529Y010900D02*
X014535Y010900D01*
X014843Y011976D02*
X014843Y012101D01*
X016939Y013278D02*
X018586Y013278D01*
X018566Y013120D02*
X017089Y013120D01*
X016971Y013437D02*
X018699Y013437D01*
X017065Y014547D02*
X016997Y014547D01*
X016690Y014547D02*
X016646Y014547D01*
X016646Y014388D02*
X016713Y014388D01*
X015932Y016608D02*
X015898Y016608D01*
X015664Y016608D02*
X015306Y016608D01*
X015306Y016766D02*
X016143Y016766D01*
X016249Y016925D02*
X015306Y016925D01*
X013338Y017876D02*
X013332Y017876D01*
X013364Y018352D02*
X013162Y018352D01*
X013525Y020254D02*
X018851Y020254D01*
X019717Y020254D02*
X019728Y020254D01*
X019722Y020413D02*
X019754Y020413D01*
X019746Y020571D02*
X019791Y020571D01*
X019694Y020730D02*
X019969Y020730D01*
X020217Y020730D02*
X022253Y020730D01*
X022407Y020571D02*
X020729Y020571D01*
X020808Y020413D02*
X022561Y020413D01*
X022641Y020254D02*
X020796Y020254D01*
X020694Y020096D02*
X022566Y020096D01*
X022580Y019937D02*
X020396Y019937D01*
X020396Y019779D02*
X022584Y019779D01*
X022425Y019620D02*
X020396Y019620D01*
X020396Y019462D02*
X022266Y019462D01*
X022108Y019303D02*
X020396Y019303D01*
X020396Y019145D02*
X021949Y019145D01*
X021791Y018986D02*
X020396Y018986D01*
X020396Y018827D02*
X021632Y018827D01*
X021474Y018669D02*
X020396Y018669D01*
X020396Y018510D02*
X021315Y018510D01*
X021157Y018352D02*
X020396Y018352D01*
X023844Y021047D02*
X023852Y021047D01*
X024010Y021206D02*
X023685Y021206D01*
X023527Y021364D02*
X024169Y021364D01*
X024328Y021523D02*
X023368Y021523D01*
X023210Y021681D02*
X024486Y021681D01*
X024645Y021840D02*
X022178Y021840D01*
X022332Y021681D02*
X022602Y021681D01*
X022546Y021523D02*
X022486Y021523D01*
X021761Y021840D02*
X006250Y021840D01*
X006256Y021846D02*
X006161Y021750D01*
X006036Y021699D01*
X005901Y021699D01*
X005776Y021750D01*
X005680Y021846D01*
X005629Y021971D01*
X005629Y022106D01*
X005680Y022231D01*
X005776Y022327D01*
X005901Y022378D01*
X006036Y022378D01*
X006161Y022327D01*
X006256Y022231D01*
X006308Y022106D01*
X006308Y021971D01*
X006256Y021846D01*
X006308Y021998D02*
X024803Y021998D01*
X024962Y022157D02*
X006287Y022157D01*
X006172Y022315D02*
X025120Y022315D01*
X025218Y022474D02*
X000940Y022474D01*
X000938Y022633D02*
X025218Y022633D01*
X025218Y022791D02*
X000936Y022791D01*
X000935Y022950D02*
X025218Y022950D01*
X025218Y023108D02*
X000933Y023108D01*
X000931Y023267D02*
X003294Y023267D01*
X003327Y023233D02*
X003226Y023335D01*
X003182Y023440D01*
X003077Y023483D01*
X002976Y023585D01*
X002921Y023717D01*
X002921Y023860D01*
X002976Y023992D01*
X003077Y024094D01*
X003140Y024120D01*
X003123Y024127D01*
X002982Y024268D01*
X002906Y024452D01*
X002906Y025250D01*
X002982Y025434D01*
X003123Y025575D01*
X003306Y025651D01*
X003505Y025651D01*
X003689Y025575D01*
X003830Y025434D01*
X003906Y025250D01*
X003982Y025434D01*
X004123Y025575D01*
X004306Y025651D01*
X004505Y025651D01*
X004689Y025575D01*
X004830Y025434D01*
X004906Y025250D01*
X004906Y024452D01*
X004830Y024268D01*
X004689Y024127D01*
X004505Y024051D01*
X004306Y024051D01*
X004123Y024127D01*
X003982Y024268D01*
X003906Y024452D01*
X003906Y025250D01*
X003906Y024452D01*
X003830Y024268D01*
X003689Y024127D01*
X003521Y024058D01*
X003586Y023992D01*
X003630Y023887D01*
X003735Y023844D01*
X003836Y023742D01*
X013129Y023742D01*
X013151Y023764D02*
X013276Y023816D01*
X013411Y023816D01*
X013536Y023764D01*
X013631Y023669D01*
X013683Y023544D01*
X013683Y023408D01*
X013631Y023284D01*
X013536Y023188D01*
X013411Y023136D01*
X013276Y023136D01*
X013151Y023188D01*
X013055Y023284D01*
X013004Y023408D01*
X013004Y023544D01*
X013055Y023669D01*
X013151Y023764D01*
X013020Y023584D02*
X003891Y023584D01*
X003891Y023610D02*
X003891Y023467D01*
X003836Y023335D01*
X003735Y023233D01*
X003603Y023179D01*
X003459Y023179D01*
X003327Y023233D01*
X003188Y023425D02*
X000930Y023425D01*
X000928Y023584D02*
X002977Y023584D01*
X002921Y023742D02*
X000927Y023742D01*
X000925Y023901D02*
X002938Y023901D01*
X003043Y024059D02*
X001526Y024059D01*
X001286Y024059D02*
X000923Y024059D01*
X000922Y024218D02*
X001032Y024218D01*
X000937Y024376D02*
X000920Y024376D01*
X001780Y024218D02*
X002060Y024218D01*
X002040Y024238D02*
X001995Y024299D01*
X001961Y024367D01*
X001938Y024439D01*
X001926Y024513D01*
X001926Y024831D01*
X002386Y024831D01*
X002386Y024071D01*
X002368Y024071D01*
X002294Y024083D01*
X002222Y024106D01*
X002154Y024140D01*
X002093Y024185D01*
X002040Y024238D01*
X001958Y024376D02*
X001875Y024376D01*
X001906Y024535D02*
X001926Y024535D01*
X001926Y024694D02*
X001906Y024694D01*
X001906Y024852D02*
X002386Y024852D01*
X002386Y024871D02*
X002386Y024831D01*
X002426Y024831D01*
X002886Y024831D01*
X002886Y024513D01*
X002874Y024439D01*
X002851Y024367D01*
X002816Y024299D01*
X002772Y024238D01*
X002719Y024185D01*
X002657Y024140D01*
X002590Y024106D01*
X002518Y024083D01*
X002444Y024071D01*
X002426Y024071D01*
X002426Y024831D01*
X002426Y024871D01*
X002886Y024871D01*
X002886Y025189D01*
X002874Y025263D01*
X002851Y025335D01*
X002816Y025403D01*
X002772Y025464D01*
X002719Y025517D01*
X002657Y025562D01*
X002590Y025596D01*
X002518Y025619D01*
X002444Y025631D01*
X002426Y025631D01*
X002426Y024871D01*
X002386Y024871D01*
X002386Y025631D01*
X002368Y025631D01*
X002294Y025619D01*
X002222Y025596D01*
X002154Y025562D01*
X002093Y025517D01*
X002040Y025464D01*
X001995Y025403D01*
X001961Y025335D01*
X001938Y025263D01*
X001926Y025189D01*
X001926Y024871D01*
X002386Y024871D01*
X002426Y024852D02*
X002906Y024852D01*
X002906Y024694D02*
X002886Y024694D01*
X002886Y024535D02*
X002906Y024535D01*
X002937Y024376D02*
X002854Y024376D01*
X002752Y024218D02*
X003032Y024218D01*
X003526Y024059D02*
X004286Y024059D01*
X004526Y024059D02*
X025218Y024059D01*
X025218Y023901D02*
X003624Y023901D01*
X003836Y023742D02*
X003891Y023610D01*
X003874Y023425D02*
X013004Y023425D01*
X013072Y023267D02*
X003768Y023267D01*
X003780Y024218D02*
X004032Y024218D01*
X003937Y024376D02*
X003875Y024376D01*
X003906Y024535D02*
X003906Y024535D01*
X003906Y024694D02*
X003906Y024694D01*
X003906Y024852D02*
X003906Y024852D01*
X003906Y025011D02*
X003906Y025011D01*
X003906Y025169D02*
X003906Y025169D01*
X003938Y025328D02*
X003874Y025328D01*
X003778Y025486D02*
X004034Y025486D01*
X004292Y025645D02*
X003520Y025645D01*
X003292Y025645D02*
X001520Y025645D01*
X001292Y025645D02*
X000907Y025645D01*
X000908Y025486D02*
X001034Y025486D01*
X000938Y025328D02*
X000910Y025328D01*
X000983Y025803D02*
X025218Y025803D01*
X025218Y025645D02*
X004520Y025645D01*
X004778Y025486D02*
X025218Y025486D01*
X025218Y025328D02*
X004874Y025328D01*
X004906Y025169D02*
X024119Y025169D01*
X024118Y025169D02*
X024213Y025264D01*
X024338Y025316D01*
X024474Y025316D01*
X024598Y025264D01*
X024694Y025169D01*
X024746Y025044D01*
X024746Y024908D01*
X024694Y024784D01*
X024598Y024688D01*
X024474Y024636D01*
X024338Y024636D01*
X024213Y024688D01*
X024118Y024784D01*
X024066Y024908D01*
X024066Y025044D01*
X024118Y025169D01*
X024066Y025011D02*
X004906Y025011D01*
X004906Y024852D02*
X011648Y024852D01*
X011601Y024805D02*
X011702Y024906D01*
X011834Y024961D01*
X011978Y024961D01*
X012110Y024906D01*
X012144Y024872D01*
X012209Y024899D01*
X012353Y024899D01*
X012485Y024844D01*
X012586Y024742D01*
X012641Y024610D01*
X012641Y024467D01*
X012586Y024335D01*
X012485Y024233D01*
X012353Y024179D01*
X012209Y024179D01*
X012077Y024233D01*
X012042Y024268D01*
X011978Y024241D01*
X011834Y024241D01*
X011702Y024296D01*
X011601Y024397D01*
X011546Y024529D01*
X011546Y024673D01*
X011601Y024805D01*
X011555Y024694D02*
X004906Y024694D01*
X004906Y024535D02*
X011546Y024535D01*
X011621Y024376D02*
X004875Y024376D01*
X004780Y024218D02*
X012114Y024218D01*
X012448Y024218D02*
X015979Y024218D01*
X016026Y024199D02*
X015901Y024250D01*
X015805Y024346D01*
X015754Y024471D01*
X015754Y024606D01*
X015805Y024731D01*
X015901Y024827D01*
X016026Y024878D01*
X016161Y024878D01*
X016286Y024827D01*
X016381Y024731D01*
X016433Y024606D01*
X016433Y024471D01*
X016381Y024346D01*
X016286Y024250D01*
X016161Y024199D01*
X016026Y024199D01*
X016208Y024218D02*
X025218Y024218D01*
X025218Y024376D02*
X016394Y024376D01*
X016433Y024535D02*
X025218Y024535D01*
X025218Y024694D02*
X024604Y024694D01*
X024722Y024852D02*
X025218Y024852D01*
X025218Y025011D02*
X024746Y025011D01*
X024693Y025169D02*
X025218Y025169D01*
X025218Y025962D02*
X001142Y025962D01*
X001778Y025486D02*
X002062Y025486D01*
X001959Y025328D02*
X001874Y025328D01*
X001906Y025169D02*
X001926Y025169D01*
X001926Y025011D02*
X001906Y025011D01*
X002386Y025011D02*
X002426Y025011D01*
X002426Y025169D02*
X002386Y025169D01*
X002386Y025328D02*
X002426Y025328D01*
X002426Y025486D02*
X002386Y025486D01*
X002749Y025486D02*
X003034Y025486D01*
X002938Y025328D02*
X002853Y025328D01*
X002886Y025169D02*
X002906Y025169D01*
X002906Y025011D02*
X002886Y025011D01*
X002426Y024694D02*
X002386Y024694D01*
X002386Y024535D02*
X002426Y024535D01*
X002426Y024376D02*
X002386Y024376D01*
X002386Y024218D02*
X002426Y024218D01*
X000941Y022315D02*
X005765Y022315D01*
X005650Y022157D02*
X000943Y022157D01*
X000945Y021998D02*
X005629Y021998D01*
X005687Y021840D02*
X000946Y021840D01*
X000948Y021681D02*
X001086Y021681D01*
X007718Y018510D02*
X008042Y018510D01*
X008004Y018352D02*
X007718Y018352D01*
X007718Y018193D02*
X008041Y018193D01*
X008219Y018035D02*
X007718Y018035D01*
X007718Y016925D02*
X009916Y016925D01*
X009916Y016766D02*
X007718Y016766D01*
X007718Y016608D02*
X009916Y016608D01*
X009916Y016449D02*
X007718Y016449D01*
X007779Y016291D02*
X009916Y016291D01*
X009916Y016132D02*
X007937Y016132D01*
X008096Y015974D02*
X009916Y015974D01*
X009916Y015815D02*
X008254Y015815D01*
X008413Y015657D02*
X009916Y015657D01*
X009916Y015498D02*
X008571Y015498D01*
X008730Y015340D02*
X009916Y015340D01*
X009916Y015181D02*
X008888Y015181D01*
X009047Y015022D02*
X009916Y015022D01*
X009916Y014864D02*
X009206Y014864D01*
X009364Y014705D02*
X009916Y014705D01*
X009916Y014547D02*
X009523Y014547D01*
X009681Y014388D02*
X009829Y014388D01*
X010396Y014547D02*
X010443Y014547D01*
X010443Y014705D02*
X010396Y014705D01*
X010396Y014864D02*
X010443Y014864D01*
X010443Y015022D02*
X010396Y015022D01*
X010396Y015181D02*
X010443Y015181D01*
X010443Y015340D02*
X010396Y015340D01*
X010396Y015498D02*
X010443Y015498D01*
X010443Y015657D02*
X010396Y015657D01*
X010396Y015815D02*
X010473Y015815D01*
X010396Y015974D02*
X010588Y015974D01*
X010693Y016132D02*
X010396Y016132D01*
X010396Y016291D02*
X010739Y016291D01*
X010889Y016449D02*
X010396Y016449D01*
X011243Y014547D02*
X011292Y014547D01*
X011274Y013913D02*
X011243Y013913D01*
X011537Y013913D02*
X011614Y013913D01*
X021629Y009156D02*
X021663Y009156D01*
X024343Y007351D02*
X026031Y005601D01*
X029794Y001838D01*
X029822Y001907D01*
X029912Y001997D01*
X030030Y002046D01*
X030157Y002046D01*
X030275Y001997D01*
X030365Y001907D01*
X030413Y001790D01*
X030413Y001662D01*
X030365Y001545D01*
X030296Y001476D01*
X036156Y001476D01*
X036234Y001489D01*
X036234Y004083D01*
X035630Y004083D01*
X035632Y004083D02*
X035608Y004074D01*
X035504Y004074D01*
X035474Y004086D01*
X034974Y004086D01*
X034974Y004493D01*
X034838Y004493D01*
X034838Y004086D01*
X034338Y004086D01*
X034308Y004074D01*
X034204Y004074D01*
X034180Y004083D01*
X033952Y004083D01*
X033952Y004648D01*
X033793Y004648D01*
X033793Y004083D01*
X033485Y004083D01*
X033439Y004096D01*
X033398Y004119D01*
X033364Y004153D01*
X033341Y004194D01*
X033328Y004240D01*
X033328Y004649D01*
X033792Y004649D01*
X033792Y004808D01*
X033328Y004808D01*
X033328Y005217D01*
X033341Y005263D01*
X033364Y005304D01*
X033398Y005337D01*
X033439Y005361D01*
X033485Y005373D01*
X033793Y005373D01*
X033793Y004809D01*
X033952Y004809D01*
X033952Y005373D01*
X034257Y005373D01*
X034191Y005664D01*
X034257Y005954D01*
X033952Y005954D01*
X033952Y006518D01*
X033793Y006518D01*
X033793Y005954D01*
X033485Y005954D01*
X033439Y005966D01*
X033398Y005989D01*
X033364Y006023D01*
X033341Y006064D01*
X033328Y006110D01*
X033328Y006519D01*
X033792Y006519D01*
X033792Y006678D01*
X033328Y006678D01*
X033328Y007087D01*
X033341Y007133D01*
X033364Y007174D01*
X033398Y007208D01*
X033439Y007231D01*
X033485Y007244D01*
X033793Y007244D01*
X033793Y006679D01*
X033952Y006679D01*
X033952Y007244D01*
X034180Y007244D01*
X034204Y007253D01*
X034308Y007253D01*
X034338Y007241D01*
X034838Y007241D01*
X034838Y006834D01*
X034974Y006834D01*
X034974Y007241D01*
X035474Y007241D01*
X035504Y007253D01*
X035608Y007253D01*
X035632Y007244D01*
X035859Y007244D01*
X035859Y006679D01*
X036019Y006679D01*
X036019Y007244D01*
X036234Y007244D01*
X036234Y011161D01*
X029031Y011101D01*
X027593Y009664D01*
X031468Y005851D01*
X031468Y005360D01*
X031493Y005419D01*
X031588Y005514D01*
X031713Y005566D01*
X031849Y005566D01*
X031974Y005514D01*
X032069Y005419D01*
X032121Y005294D01*
X032121Y005158D01*
X032117Y005149D01*
X032162Y005194D01*
X032279Y005242D01*
X032407Y005242D01*
X032524Y005194D01*
X032614Y005104D01*
X032663Y004986D01*
X032663Y004859D01*
X032614Y004741D01*
X032524Y004651D01*
X032407Y004603D01*
X032279Y004603D01*
X032162Y004651D01*
X032072Y004741D01*
X032023Y004859D01*
X032023Y004986D01*
X032024Y004988D01*
X031974Y004938D01*
X031849Y004886D01*
X031713Y004886D01*
X031588Y004938D01*
X031493Y005033D01*
X031468Y005092D01*
X031468Y004351D01*
X031156Y004039D01*
X029343Y004039D01*
X026906Y006476D01*
X025719Y007621D01*
X025661Y007563D01*
X025536Y007511D01*
X025401Y007511D01*
X025276Y007563D01*
X025180Y007658D01*
X025128Y007783D01*
X025128Y007899D01*
X025047Y007817D01*
X025007Y007721D01*
X024911Y007625D01*
X024786Y007574D01*
X024651Y007574D01*
X024591Y007598D01*
X024343Y007351D01*
X024405Y007412D02*
X025935Y007412D01*
X026099Y007254D02*
X024437Y007254D01*
X024590Y007095D02*
X026264Y007095D01*
X026428Y006937D02*
X024743Y006937D01*
X024896Y006778D02*
X026593Y006778D01*
X026757Y006620D02*
X025049Y006620D01*
X025202Y006461D02*
X026921Y006461D01*
X027079Y006303D02*
X025354Y006303D01*
X025507Y006144D02*
X027238Y006144D01*
X027396Y005985D02*
X025660Y005985D01*
X025813Y005827D02*
X027555Y005827D01*
X027714Y005668D02*
X025966Y005668D01*
X026122Y005510D02*
X027872Y005510D01*
X028031Y005351D02*
X026281Y005351D01*
X026439Y005193D02*
X028189Y005193D01*
X028348Y005034D02*
X026598Y005034D01*
X026756Y004876D02*
X028506Y004876D01*
X028665Y004717D02*
X026915Y004717D01*
X027073Y004559D02*
X028823Y004559D01*
X028982Y004400D02*
X027232Y004400D01*
X027390Y004241D02*
X029140Y004241D01*
X029299Y004083D02*
X027549Y004083D01*
X027708Y003924D02*
X030173Y003924D01*
X030213Y003941D02*
X030349Y003941D01*
X030474Y003889D01*
X030569Y003794D01*
X030621Y003669D01*
X030621Y003533D01*
X030569Y003408D01*
X030474Y003313D01*
X030349Y003261D01*
X030213Y003261D01*
X030088Y003313D01*
X029993Y003408D01*
X029941Y003533D01*
X029941Y003669D01*
X029993Y003794D01*
X030088Y003889D01*
X030213Y003941D01*
X030389Y003924D02*
X036234Y003924D01*
X036234Y003766D02*
X030581Y003766D01*
X030621Y003607D02*
X036234Y003607D01*
X036234Y003449D02*
X030586Y003449D01*
X030419Y003290D02*
X036234Y003290D01*
X036234Y003132D02*
X028500Y003132D01*
X028537Y003205D02*
X028447Y003295D01*
X028399Y003412D01*
X028399Y003540D01*
X028447Y003657D01*
X028537Y003747D01*
X028655Y003796D01*
X028782Y003796D01*
X028900Y003747D01*
X028990Y003657D01*
X029038Y003540D01*
X029038Y003412D01*
X028990Y003295D01*
X028900Y003205D01*
X028782Y003156D01*
X028655Y003156D01*
X028537Y003205D01*
X028452Y003290D02*
X028342Y003290D01*
X028399Y003449D02*
X028183Y003449D01*
X028025Y003607D02*
X028427Y003607D01*
X028582Y003766D02*
X027866Y003766D01*
X028854Y003766D02*
X029981Y003766D01*
X029941Y003607D02*
X029010Y003607D01*
X029038Y003449D02*
X029976Y003449D01*
X030143Y003290D02*
X028985Y003290D01*
X028659Y002973D02*
X036234Y002973D01*
X036234Y002815D02*
X028817Y002815D01*
X028976Y002656D02*
X036234Y002656D01*
X036234Y002498D02*
X029134Y002498D01*
X029293Y002339D02*
X036234Y002339D01*
X036234Y002180D02*
X029451Y002180D01*
X029610Y002022D02*
X029972Y002022D01*
X029804Y001863D02*
X029769Y001863D01*
X030215Y002022D02*
X036234Y002022D01*
X036234Y001863D02*
X030383Y001863D01*
X030413Y001705D02*
X036234Y001705D01*
X036234Y001546D02*
X030365Y001546D01*
X031200Y004083D02*
X034181Y004083D01*
X034331Y004083D02*
X035481Y004083D01*
X035632Y004083D02*
X035859Y004083D01*
X035859Y004648D01*
X036019Y004648D01*
X036019Y004083D01*
X036234Y004083D01*
X036019Y004241D02*
X035859Y004241D01*
X035859Y004400D02*
X036019Y004400D01*
X036019Y004559D02*
X035859Y004559D01*
X035859Y004809D02*
X036019Y004809D01*
X036019Y005373D01*
X036234Y005373D01*
X036234Y005954D01*
X036019Y005954D01*
X036019Y006518D01*
X035859Y006518D01*
X035859Y005954D01*
X035555Y005954D01*
X035621Y005664D01*
X035621Y005663D01*
X035555Y005373D01*
X035859Y005373D01*
X035859Y004809D01*
X035859Y004876D02*
X036019Y004876D01*
X036019Y005034D02*
X035859Y005034D01*
X035859Y005193D02*
X036019Y005193D01*
X036019Y005351D02*
X035859Y005351D01*
X035586Y005510D02*
X036234Y005510D01*
X036234Y005668D02*
X035620Y005668D01*
X035584Y005827D02*
X036234Y005827D01*
X036019Y005985D02*
X035859Y005985D01*
X035859Y006144D02*
X036019Y006144D01*
X036019Y006303D02*
X035859Y006303D01*
X035859Y006461D02*
X036019Y006461D01*
X035859Y006519D02*
X035816Y006519D01*
X035816Y006678D01*
X035859Y006678D01*
X035859Y006519D01*
X035859Y006620D02*
X035816Y006620D01*
X035859Y006778D02*
X036019Y006778D01*
X036019Y006937D02*
X035859Y006937D01*
X035859Y007095D02*
X036019Y007095D01*
X036234Y007254D02*
X030043Y007254D01*
X030204Y007095D02*
X033330Y007095D01*
X033328Y006937D02*
X030365Y006937D01*
X030526Y006778D02*
X033328Y006778D01*
X033328Y006461D02*
X030848Y006461D01*
X030687Y006620D02*
X033792Y006620D01*
X033793Y006778D02*
X033952Y006778D01*
X033953Y006678D02*
X033996Y006678D01*
X033996Y006519D01*
X033953Y006519D01*
X033953Y006678D01*
X033953Y006620D02*
X033996Y006620D01*
X033952Y006461D02*
X033793Y006461D01*
X033793Y006303D02*
X033952Y006303D01*
X033952Y006144D02*
X033793Y006144D01*
X033793Y005985D02*
X033952Y005985D01*
X034228Y005827D02*
X031468Y005827D01*
X031468Y005668D02*
X034192Y005668D01*
X034226Y005510D02*
X031978Y005510D01*
X032097Y005351D02*
X033422Y005351D01*
X033328Y005193D02*
X032525Y005193D01*
X032643Y005034D02*
X033328Y005034D01*
X033328Y004876D02*
X032663Y004876D01*
X032590Y004717D02*
X033792Y004717D01*
X033793Y004559D02*
X033952Y004559D01*
X033953Y004649D02*
X033996Y004649D01*
X033996Y004808D01*
X033953Y004808D01*
X033953Y004649D01*
X033953Y004717D02*
X033996Y004717D01*
X033952Y004876D02*
X033793Y004876D01*
X033793Y005034D02*
X033952Y005034D01*
X033952Y005193D02*
X033793Y005193D01*
X033793Y005351D02*
X033952Y005351D01*
X033405Y005985D02*
X031332Y005985D01*
X031171Y006144D02*
X033328Y006144D01*
X033328Y006303D02*
X031009Y006303D01*
X031468Y005510D02*
X031584Y005510D01*
X032121Y005193D02*
X032161Y005193D01*
X032023Y004876D02*
X031468Y004876D01*
X031468Y005034D02*
X031492Y005034D01*
X031468Y004717D02*
X032096Y004717D01*
X031468Y004559D02*
X033328Y004559D01*
X033328Y004400D02*
X031468Y004400D01*
X031359Y004241D02*
X033328Y004241D01*
X033793Y004241D02*
X033952Y004241D01*
X033952Y004400D02*
X033793Y004400D01*
X034256Y004334D02*
X034256Y004784D01*
X034838Y004400D02*
X034974Y004400D01*
X034974Y004241D02*
X034838Y004241D01*
X035556Y004334D02*
X035556Y004784D01*
X034974Y006361D02*
X034974Y006698D01*
X035296Y006698D01*
X035296Y006834D01*
X034974Y006834D01*
X034974Y006698D01*
X034838Y006698D01*
X034516Y006698D01*
X034516Y006834D01*
X034838Y006834D01*
X034838Y006698D01*
X034838Y006361D01*
X034974Y006361D01*
X034974Y006461D02*
X034838Y006461D01*
X034838Y006620D02*
X034974Y006620D01*
X034974Y006778D02*
X035296Y006778D01*
X035556Y006994D02*
X035556Y006544D01*
X034974Y006937D02*
X034838Y006937D01*
X034838Y007095D02*
X034974Y007095D01*
X034838Y006778D02*
X034516Y006778D01*
X034256Y006994D02*
X034256Y006544D01*
X033952Y006937D02*
X033793Y006937D01*
X033793Y007095D02*
X033952Y007095D01*
X036234Y007412D02*
X029881Y007412D01*
X029720Y007571D02*
X036234Y007571D01*
X036234Y007729D02*
X029559Y007729D01*
X029398Y007888D02*
X036234Y007888D01*
X036234Y008047D02*
X029237Y008047D01*
X029076Y008205D02*
X036234Y008205D01*
X036234Y008364D02*
X028915Y008364D01*
X028753Y008522D02*
X036234Y008522D01*
X036234Y008681D02*
X028592Y008681D01*
X028431Y008839D02*
X036234Y008839D01*
X036234Y008998D02*
X028270Y008998D01*
X028109Y009156D02*
X036234Y009156D01*
X036234Y009315D02*
X027948Y009315D01*
X027787Y009473D02*
X036234Y009473D01*
X036234Y009632D02*
X027625Y009632D01*
X027720Y009791D02*
X036234Y009791D01*
X036234Y009949D02*
X027879Y009949D01*
X028037Y010108D02*
X036234Y010108D01*
X036234Y010266D02*
X028196Y010266D01*
X028355Y010425D02*
X036234Y010425D01*
X036234Y010583D02*
X028513Y010583D01*
X028672Y010742D02*
X036234Y010742D01*
X036234Y010900D02*
X028830Y010900D01*
X028989Y011059D02*
X036234Y011059D01*
X036234Y014164D02*
X036234Y023021D01*
X036019Y023021D01*
X036019Y023586D01*
X035859Y023586D01*
X035836Y023586D01*
X035836Y023746D01*
X035859Y023746D01*
X035859Y023586D01*
X035859Y023021D01*
X035684Y023021D01*
X035612Y022991D01*
X035500Y022991D01*
X035422Y023023D01*
X034974Y023023D01*
X034974Y023431D01*
X034838Y023431D01*
X034838Y023023D01*
X034390Y023023D01*
X034312Y022991D01*
X034200Y022991D01*
X034128Y023021D01*
X033952Y023021D01*
X033952Y023586D01*
X033793Y023586D01*
X033793Y023021D01*
X033485Y023021D01*
X033439Y023033D01*
X033398Y023057D01*
X033364Y023090D01*
X033341Y023131D01*
X033328Y023177D01*
X033328Y023586D01*
X033792Y023586D01*
X033792Y023746D01*
X033328Y023746D01*
X033328Y024155D01*
X033341Y024200D01*
X033364Y024241D01*
X033398Y024275D01*
X033439Y024299D01*
X033485Y024311D01*
X033793Y024311D01*
X033793Y023746D01*
X033952Y023746D01*
X033952Y024311D01*
X034237Y024311D01*
X034171Y024601D01*
X034237Y024891D01*
X033952Y024891D01*
X033952Y025456D01*
X033793Y025456D01*
X033793Y024891D01*
X033485Y024891D01*
X033439Y024903D01*
X033398Y024927D01*
X033364Y024961D01*
X033341Y025002D01*
X033328Y025047D01*
X033328Y025456D01*
X033792Y025456D01*
X033792Y025616D01*
X033328Y025616D01*
X033328Y026025D01*
X033335Y026051D01*
X031356Y026051D01*
X030281Y024976D01*
X030123Y024836D01*
X030228Y024836D01*
X030360Y024781D01*
X030461Y024680D01*
X030516Y024548D01*
X030516Y024404D01*
X030461Y024272D01*
X030360Y024171D01*
X030228Y024116D01*
X030118Y024116D01*
X030047Y024046D01*
X029915Y023991D01*
X029772Y023991D01*
X029639Y024046D01*
X029538Y024147D01*
X029487Y024270D01*
X029156Y023976D01*
X025035Y019856D01*
X025399Y019492D01*
X025453Y019360D01*
X025453Y019217D01*
X025453Y018841D01*
X025480Y018830D01*
X025550Y018760D01*
X025589Y018667D01*
X025589Y018615D01*
X025860Y018344D01*
X025961Y018242D01*
X026016Y018110D01*
X026016Y017956D01*
X026593Y017414D01*
X026593Y017601D01*
X028906Y019914D01*
X029218Y019914D01*
X030257Y020804D01*
X030147Y020804D01*
X030015Y020858D01*
X029913Y020960D01*
X029858Y021092D01*
X029858Y021235D01*
X029913Y021367D01*
X030015Y021469D01*
X030147Y021524D01*
X030290Y021524D01*
X030422Y021469D01*
X030524Y021367D01*
X030578Y021235D01*
X030578Y021092D01*
X030556Y021039D01*
X031968Y021039D01*
X032343Y020664D01*
X032343Y019524D01*
X032415Y019524D01*
X032547Y019469D01*
X032649Y019367D01*
X032703Y019235D01*
X032703Y019092D01*
X032649Y018960D01*
X032547Y018858D01*
X032415Y018804D01*
X032272Y018804D01*
X032139Y018858D01*
X032038Y018960D01*
X031983Y019092D01*
X031983Y019235D01*
X032015Y019312D01*
X031968Y019351D01*
X030968Y018351D01*
X030968Y017851D01*
X029531Y016414D01*
X028968Y016414D01*
X028343Y015789D01*
X028343Y015726D01*
X029906Y014164D01*
X033465Y014164D01*
X033493Y014231D01*
X033588Y014327D01*
X033713Y014378D01*
X033849Y014378D01*
X033973Y014327D01*
X034069Y014231D01*
X034097Y014164D01*
X035465Y014164D01*
X035493Y014231D01*
X035588Y014327D01*
X035713Y014378D01*
X035849Y014378D01*
X035973Y014327D01*
X036069Y014231D01*
X036097Y014164D01*
X036234Y014164D01*
X036234Y014230D02*
X036070Y014230D01*
X036234Y014388D02*
X029681Y014388D01*
X029840Y014230D02*
X033492Y014230D01*
X034070Y014230D02*
X035492Y014230D01*
X036234Y014547D02*
X029523Y014547D01*
X029364Y014705D02*
X036234Y014705D01*
X036234Y014864D02*
X029206Y014864D01*
X029047Y015022D02*
X036234Y015022D01*
X036234Y015181D02*
X028888Y015181D01*
X028730Y015340D02*
X036234Y015340D01*
X036234Y015498D02*
X028571Y015498D01*
X028413Y015657D02*
X036234Y015657D01*
X036234Y015815D02*
X028370Y015815D01*
X028529Y015974D02*
X036234Y015974D01*
X036234Y016132D02*
X028687Y016132D01*
X028846Y016291D02*
X036234Y016291D01*
X036234Y016449D02*
X029567Y016449D01*
X029725Y016608D02*
X036234Y016608D01*
X036234Y016766D02*
X029884Y016766D01*
X030042Y016925D02*
X035073Y016925D01*
X035077Y016921D02*
X034976Y017022D01*
X034921Y017154D01*
X034921Y017298D01*
X034976Y017430D01*
X035077Y017531D01*
X035209Y017586D01*
X035353Y017586D01*
X035485Y017531D01*
X035586Y017430D01*
X035641Y017298D01*
X035641Y017154D01*
X035586Y017022D01*
X035485Y016921D01*
X035353Y016866D01*
X035209Y016866D01*
X035077Y016921D01*
X034950Y017084D02*
X030201Y017084D01*
X030359Y017242D02*
X034921Y017242D01*
X034964Y017401D02*
X030518Y017401D01*
X030676Y017559D02*
X035144Y017559D01*
X035417Y017559D02*
X036234Y017559D01*
X036234Y017401D02*
X035598Y017401D01*
X035641Y017242D02*
X036234Y017242D01*
X036234Y017084D02*
X035611Y017084D01*
X035489Y016925D02*
X036234Y016925D01*
X036234Y017718D02*
X030835Y017718D01*
X030968Y017876D02*
X036234Y017876D01*
X036234Y018035D02*
X030968Y018035D01*
X030968Y018193D02*
X036234Y018193D01*
X036234Y018352D02*
X030969Y018352D01*
X031128Y018510D02*
X036234Y018510D01*
X036234Y018669D02*
X031286Y018669D01*
X031445Y018827D02*
X032214Y018827D01*
X032027Y018986D02*
X031603Y018986D01*
X031762Y019145D02*
X031983Y019145D01*
X032012Y019303D02*
X031920Y019303D01*
X032343Y019620D02*
X036234Y019620D01*
X036234Y019462D02*
X032554Y019462D01*
X032675Y019303D02*
X036234Y019303D01*
X036234Y019145D02*
X032703Y019145D01*
X032660Y018986D02*
X036234Y018986D01*
X036234Y018827D02*
X032473Y018827D01*
X032343Y019779D02*
X036234Y019779D01*
X036234Y019937D02*
X034285Y019937D01*
X034319Y019971D02*
X034223Y019875D01*
X034099Y019824D01*
X033963Y019824D01*
X033838Y019875D01*
X033743Y019971D01*
X033691Y020096D01*
X033691Y020231D01*
X033703Y020261D01*
X033618Y020346D01*
X033566Y020471D01*
X033566Y020511D01*
X033526Y020511D01*
X033401Y020563D01*
X033305Y020659D01*
X033254Y020783D01*
X033254Y020919D01*
X033305Y021044D01*
X033401Y021139D01*
X033526Y021191D01*
X033661Y021191D01*
X033786Y021139D01*
X033881Y021044D01*
X033933Y020919D01*
X033933Y020878D01*
X033974Y020878D01*
X034098Y020827D01*
X034194Y020731D01*
X034246Y020606D01*
X034246Y020471D01*
X034234Y020441D01*
X034319Y020356D01*
X034371Y020231D01*
X034371Y020096D01*
X034319Y019971D01*
X034371Y020096D02*
X036234Y020096D01*
X036234Y020254D02*
X034361Y020254D01*
X034262Y020413D02*
X036234Y020413D01*
X036234Y020571D02*
X034246Y020571D01*
X034194Y020730D02*
X036234Y020730D01*
X036234Y020889D02*
X033933Y020889D01*
X033878Y021047D02*
X036234Y021047D01*
X036234Y021206D02*
X030578Y021206D01*
X030560Y021047D02*
X033309Y021047D01*
X033254Y020889D02*
X032118Y020889D01*
X032277Y020730D02*
X033276Y020730D01*
X033392Y020571D02*
X032343Y020571D01*
X032343Y020413D02*
X033590Y020413D01*
X033701Y020254D02*
X032343Y020254D01*
X032343Y020096D02*
X033691Y020096D01*
X033777Y019937D02*
X032343Y019937D01*
X030525Y021364D02*
X036234Y021364D01*
X036234Y021523D02*
X031433Y021523D01*
X031411Y021500D02*
X031286Y021449D01*
X031151Y021449D01*
X031026Y021500D01*
X030930Y021596D01*
X030878Y021721D01*
X030878Y021856D01*
X030930Y021981D01*
X031026Y022077D01*
X031151Y022129D01*
X031286Y022129D01*
X031411Y022077D01*
X031507Y021981D01*
X031558Y021856D01*
X031558Y021721D01*
X031507Y021596D01*
X031411Y021500D01*
X031542Y021681D02*
X036234Y021681D01*
X036234Y021840D02*
X031558Y021840D01*
X031489Y021998D02*
X036234Y021998D01*
X036234Y022157D02*
X029555Y022157D01*
X029598Y022139D02*
X029694Y022044D01*
X029746Y021919D01*
X029746Y021783D01*
X029694Y021659D01*
X029598Y021563D01*
X029474Y021511D01*
X029338Y021511D01*
X029213Y021563D01*
X029118Y021659D01*
X029066Y021783D01*
X029066Y021919D01*
X029118Y022044D01*
X029213Y022139D01*
X029338Y022191D01*
X029474Y022191D01*
X029598Y022139D01*
X029713Y021998D02*
X030947Y021998D01*
X030878Y021840D02*
X029746Y021840D01*
X029703Y021681D02*
X030895Y021681D01*
X031003Y021523D02*
X030292Y021523D01*
X030145Y021523D02*
X029501Y021523D01*
X029310Y021523D02*
X028251Y021523D01*
X028224Y021511D02*
X028088Y021511D01*
X027963Y021563D01*
X027868Y021659D01*
X027816Y021783D01*
X027816Y021919D01*
X027868Y022044D01*
X027963Y022139D01*
X028088Y022191D01*
X028224Y022191D01*
X028348Y022139D01*
X028444Y022044D01*
X028496Y021919D01*
X028496Y021783D01*
X028444Y021659D01*
X028348Y021563D01*
X028224Y021511D01*
X028060Y021523D02*
X026703Y021523D01*
X026861Y021681D02*
X027858Y021681D01*
X027816Y021840D02*
X027020Y021840D01*
X027178Y021998D02*
X027849Y021998D01*
X028006Y022157D02*
X027337Y022157D01*
X027495Y022315D02*
X036234Y022315D01*
X036234Y022474D02*
X027654Y022474D01*
X027812Y022633D02*
X036234Y022633D01*
X036234Y022791D02*
X027971Y022791D01*
X028130Y022950D02*
X036234Y022950D01*
X036019Y023108D02*
X035859Y023108D01*
X035859Y023267D02*
X036019Y023267D01*
X036019Y023425D02*
X035859Y023425D01*
X035859Y023584D02*
X036019Y023584D01*
X036019Y023746D02*
X036019Y024311D01*
X036234Y024311D01*
X036234Y024891D01*
X036019Y024891D01*
X036019Y025456D01*
X035859Y025456D01*
X035836Y025456D01*
X035836Y025616D01*
X035859Y025616D01*
X035859Y025456D01*
X035859Y024891D01*
X035575Y024891D01*
X035641Y024601D01*
X035575Y024311D01*
X035859Y024311D01*
X035859Y023746D01*
X036019Y023746D01*
X036019Y023901D02*
X035859Y023901D01*
X035859Y024059D02*
X036019Y024059D01*
X036019Y024218D02*
X035859Y024218D01*
X035590Y024376D02*
X036234Y024376D01*
X036234Y024535D02*
X035626Y024535D01*
X035641Y024601D02*
X035641Y024601D01*
X035620Y024694D02*
X036234Y024694D01*
X036234Y024852D02*
X035584Y024852D01*
X035859Y025011D02*
X036019Y025011D01*
X036019Y025169D02*
X035859Y025169D01*
X035859Y025328D02*
X036019Y025328D01*
X035859Y025486D02*
X035836Y025486D01*
X035556Y025481D02*
X035556Y025931D01*
X035276Y025771D02*
X034974Y025771D01*
X034974Y025636D01*
X035276Y025636D01*
X035276Y025771D01*
X035276Y025645D02*
X034974Y025645D01*
X034974Y025635D02*
X034974Y025318D01*
X034838Y025318D01*
X034838Y025635D01*
X034974Y025635D01*
X034838Y025636D02*
X034838Y025771D01*
X034536Y025771D01*
X034536Y025636D01*
X034838Y025636D01*
X034838Y025645D02*
X034536Y025645D01*
X034256Y025481D02*
X034256Y025931D01*
X034838Y025962D02*
X034974Y025962D01*
X034974Y026051D02*
X034974Y025771D01*
X034838Y025771D01*
X034838Y026051D01*
X034974Y026051D01*
X034974Y025803D02*
X034838Y025803D01*
X034838Y025486D02*
X034974Y025486D01*
X034974Y025328D02*
X034838Y025328D01*
X034228Y024852D02*
X031808Y024852D01*
X031808Y024919D02*
X031808Y024783D01*
X031756Y024659D01*
X031661Y024563D01*
X031536Y024511D01*
X031401Y024511D01*
X031276Y024563D01*
X031180Y024659D01*
X031129Y024783D01*
X031129Y024919D01*
X031180Y025044D01*
X031276Y025139D01*
X031401Y025191D01*
X031536Y025191D01*
X031661Y025139D01*
X031756Y025044D01*
X031808Y024919D01*
X031770Y025011D02*
X033338Y025011D01*
X033328Y025169D02*
X031588Y025169D01*
X031349Y025169D02*
X030474Y025169D01*
X030316Y025011D02*
X031167Y025011D01*
X031129Y024852D02*
X030142Y024852D01*
X030447Y024694D02*
X031166Y024694D01*
X031343Y024535D02*
X030516Y024535D01*
X030504Y024376D02*
X034222Y024376D01*
X034186Y024535D02*
X031594Y024535D01*
X031771Y024694D02*
X034192Y024694D01*
X033952Y025011D02*
X033793Y025011D01*
X033793Y025169D02*
X033952Y025169D01*
X033952Y025328D02*
X033793Y025328D01*
X033792Y025486D02*
X030791Y025486D01*
X030633Y025328D02*
X033328Y025328D01*
X033328Y025645D02*
X030950Y025645D01*
X031108Y025803D02*
X033328Y025803D01*
X033328Y025962D02*
X031267Y025962D01*
X030407Y024218D02*
X033351Y024218D01*
X033328Y024059D02*
X030061Y024059D01*
X029626Y024059D02*
X029250Y024059D01*
X029081Y023901D02*
X033328Y023901D01*
X033328Y023584D02*
X028764Y023584D01*
X028922Y023742D02*
X033792Y023742D01*
X033793Y023584D02*
X033952Y023584D01*
X033952Y023425D02*
X033793Y023425D01*
X033793Y023267D02*
X033952Y023267D01*
X033952Y023108D02*
X033793Y023108D01*
X034256Y023271D02*
X034256Y023721D01*
X033952Y023901D02*
X033793Y023901D01*
X033793Y024059D02*
X033952Y024059D01*
X033952Y024218D02*
X033793Y024218D01*
X033328Y023425D02*
X028605Y023425D01*
X028447Y023267D02*
X033328Y023267D01*
X033354Y023108D02*
X028288Y023108D01*
X028305Y022157D02*
X029256Y022157D01*
X029099Y021998D02*
X028463Y021998D01*
X028496Y021840D02*
X029066Y021840D01*
X029108Y021681D02*
X028453Y021681D01*
X029858Y021206D02*
X026386Y021206D01*
X026544Y021364D02*
X029912Y021364D01*
X029877Y021047D02*
X026227Y021047D01*
X026068Y020889D02*
X029984Y020889D01*
X030171Y020730D02*
X025910Y020730D01*
X025751Y020571D02*
X029986Y020571D01*
X029801Y020413D02*
X025593Y020413D01*
X025434Y020254D02*
X029616Y020254D01*
X029431Y020096D02*
X025276Y020096D01*
X025117Y019937D02*
X029246Y019937D01*
X028771Y019779D02*
X025112Y019779D01*
X025271Y019620D02*
X028613Y019620D01*
X028454Y019462D02*
X025411Y019462D01*
X025453Y019303D02*
X028295Y019303D01*
X028137Y019145D02*
X025453Y019145D01*
X025453Y018986D02*
X027978Y018986D01*
X027820Y018827D02*
X025483Y018827D01*
X025588Y018669D02*
X027661Y018669D01*
X027503Y018510D02*
X025693Y018510D01*
X025852Y018352D02*
X027344Y018352D01*
X027186Y018193D02*
X025981Y018193D01*
X026016Y018035D02*
X027027Y018035D01*
X026869Y017876D02*
X026101Y017876D01*
X026270Y017718D02*
X026710Y017718D01*
X026593Y017559D02*
X026438Y017559D01*
X025860Y018344D02*
X025860Y018344D01*
X025218Y023267D02*
X013615Y023267D01*
X013683Y023425D02*
X025218Y023425D01*
X025218Y023584D02*
X013667Y023584D01*
X013558Y023742D02*
X025218Y023742D01*
X024208Y024694D02*
X016397Y024694D01*
X016224Y024852D02*
X024089Y024852D01*
X029428Y024218D02*
X029509Y024218D01*
X034838Y023425D02*
X034974Y023425D01*
X034974Y023267D02*
X034838Y023267D01*
X034838Y023108D02*
X034974Y023108D01*
X035556Y023271D02*
X035556Y023721D01*
X035836Y023742D02*
X035859Y023742D01*
X015962Y024852D02*
X012464Y024852D01*
X012606Y024694D02*
X015790Y024694D01*
X015754Y024535D02*
X012641Y024535D01*
X012603Y024376D02*
X015793Y024376D01*
X012111Y021681D02*
X011813Y021681D01*
X009749Y021681D02*
X009451Y021681D01*
X025117Y007888D02*
X025128Y007888D01*
X025151Y007729D02*
X025010Y007729D01*
X025268Y007571D02*
X024563Y007571D01*
X025669Y007571D02*
X025770Y007571D01*
X022906Y005062D02*
X022866Y005046D01*
X017450Y005046D01*
X017473Y004989D01*
X017473Y004838D01*
X017416Y004698D01*
X017309Y004591D01*
X017169Y004534D01*
X016794Y004534D01*
X016643Y004534D01*
X016503Y004591D01*
X016453Y004641D01*
X016396Y004698D01*
X015195Y005900D01*
X015177Y005857D01*
X015087Y005767D01*
X014970Y005719D01*
X014842Y005719D01*
X014725Y005767D01*
X014635Y005857D01*
X014629Y005871D01*
X013343Y004601D01*
X013343Y001601D01*
X013343Y001019D01*
X022906Y001019D01*
X022906Y005062D01*
X022906Y005034D02*
X017455Y005034D01*
X017473Y004876D02*
X022906Y004876D01*
X022906Y004717D02*
X017423Y004717D01*
X017229Y004559D02*
X022906Y004559D01*
X022906Y004400D02*
X013343Y004400D01*
X013343Y004241D02*
X013602Y004241D01*
X013610Y004244D02*
X013918Y004244D01*
X013918Y003679D01*
X014077Y003679D01*
X014077Y004244D01*
X014305Y004244D01*
X014329Y004254D01*
X014433Y004254D01*
X014462Y004241D01*
X014963Y004241D01*
X014963Y003834D01*
X015099Y003834D01*
X015099Y004241D01*
X015599Y004241D01*
X015629Y004254D01*
X015733Y004254D01*
X015757Y004244D01*
X015984Y004244D01*
X015984Y003679D01*
X016144Y003679D01*
X016144Y004244D01*
X016452Y004244D01*
X016498Y004231D01*
X016539Y004208D01*
X016573Y004174D01*
X016596Y004133D01*
X016609Y004087D01*
X016609Y003678D01*
X016144Y003678D01*
X016144Y003519D01*
X016609Y003519D01*
X016609Y003110D01*
X016596Y003064D01*
X016573Y003023D01*
X016539Y002990D01*
X016498Y002966D01*
X016452Y002954D01*
X016144Y002954D01*
X016144Y003518D01*
X015984Y003518D01*
X015984Y002954D01*
X015680Y002954D01*
X015746Y002664D01*
X015746Y002664D01*
X015680Y002373D01*
X015984Y002373D01*
X015984Y001809D01*
X016144Y001809D01*
X016144Y002373D01*
X016452Y002373D01*
X016498Y002361D01*
X016539Y002338D01*
X016573Y002304D01*
X016596Y002263D01*
X016609Y002217D01*
X016609Y001808D01*
X016144Y001808D01*
X016144Y001649D01*
X016609Y001649D01*
X016609Y001240D01*
X016596Y001194D01*
X016573Y001153D01*
X016539Y001119D01*
X016498Y001096D01*
X016452Y001084D01*
X016144Y001084D01*
X016144Y001648D01*
X015984Y001648D01*
X015984Y001084D01*
X015757Y001084D01*
X015733Y001074D01*
X015629Y001074D01*
X015599Y001086D01*
X015099Y001086D01*
X015099Y001493D01*
X014963Y001493D01*
X014963Y001086D01*
X014462Y001086D01*
X014433Y001074D01*
X014329Y001074D01*
X014305Y001084D01*
X014077Y001084D01*
X014077Y001648D01*
X013918Y001648D01*
X013918Y001084D01*
X013610Y001084D01*
X013564Y001096D01*
X013523Y001119D01*
X013489Y001153D01*
X013466Y001194D01*
X013453Y001240D01*
X013453Y001649D01*
X013917Y001649D01*
X013917Y001808D01*
X013453Y001808D01*
X013453Y002217D01*
X013466Y002263D01*
X013489Y002304D01*
X013523Y002338D01*
X013564Y002361D01*
X013610Y002373D01*
X013918Y002373D01*
X013918Y001809D01*
X014077Y001809D01*
X014077Y002373D01*
X014382Y002373D01*
X014315Y002664D01*
X014382Y002954D01*
X014077Y002954D01*
X014077Y003518D01*
X013918Y003518D01*
X013918Y002954D01*
X013610Y002954D01*
X013564Y002966D01*
X013523Y002990D01*
X013489Y003023D01*
X013466Y003064D01*
X013453Y003110D01*
X013453Y003519D01*
X013917Y003519D01*
X013917Y003678D01*
X013453Y003678D01*
X013453Y004087D01*
X013466Y004133D01*
X013489Y004174D01*
X013523Y004208D01*
X013564Y004231D01*
X013610Y004244D01*
X013453Y004083D02*
X013343Y004083D01*
X013343Y003924D02*
X013453Y003924D01*
X013453Y003766D02*
X013343Y003766D01*
X013343Y003607D02*
X013917Y003607D01*
X013918Y003449D02*
X014077Y003449D01*
X014078Y003519D02*
X014121Y003519D01*
X014121Y003678D01*
X014078Y003678D01*
X014078Y003519D01*
X014078Y003607D02*
X014121Y003607D01*
X014077Y003766D02*
X013918Y003766D01*
X013918Y003924D02*
X014077Y003924D01*
X014077Y004083D02*
X013918Y004083D01*
X013918Y004241D02*
X014077Y004241D01*
X014462Y004241D02*
X015600Y004241D01*
X015681Y003994D02*
X015681Y003544D01*
X015421Y003698D02*
X015421Y003834D01*
X015099Y003834D01*
X015099Y003698D01*
X015421Y003698D01*
X015421Y003766D02*
X015099Y003766D01*
X015099Y003698D02*
X015099Y003361D01*
X014963Y003361D01*
X014963Y003698D01*
X014641Y003698D01*
X014641Y003834D01*
X014963Y003834D01*
X014963Y003698D01*
X015099Y003698D01*
X015099Y003607D02*
X014963Y003607D01*
X014963Y003449D02*
X015099Y003449D01*
X014963Y003766D02*
X014641Y003766D01*
X014381Y003544D02*
X014381Y003994D01*
X014963Y003924D02*
X015099Y003924D01*
X015099Y004083D02*
X014963Y004083D01*
X015984Y004083D02*
X016144Y004083D01*
X016144Y004241D02*
X015984Y004241D01*
X015984Y003924D02*
X016144Y003924D01*
X016144Y003766D02*
X015984Y003766D01*
X016144Y003607D02*
X022906Y003607D01*
X022906Y003449D02*
X016609Y003449D01*
X016609Y003290D02*
X022906Y003290D01*
X022906Y003132D02*
X016609Y003132D01*
X016511Y002973D02*
X022906Y002973D01*
X022906Y002815D02*
X015712Y002815D01*
X015745Y002656D02*
X022906Y002656D01*
X022906Y002498D02*
X015708Y002498D01*
X015984Y002339D02*
X016144Y002339D01*
X016144Y002180D02*
X015984Y002180D01*
X015984Y002022D02*
X016144Y002022D01*
X016144Y001863D02*
X015984Y001863D01*
X016144Y001705D02*
X020456Y001705D01*
X020441Y001669D02*
X020493Y001794D01*
X020588Y001889D01*
X020713Y001941D01*
X020849Y001941D01*
X020974Y001889D01*
X021069Y001794D01*
X021121Y001669D01*
X021121Y001533D01*
X021069Y001408D01*
X020974Y001313D01*
X020849Y001261D01*
X020713Y001261D01*
X020588Y001313D01*
X020493Y001408D01*
X020441Y001533D01*
X020441Y001669D01*
X020441Y001546D02*
X016609Y001546D01*
X016609Y001388D02*
X020513Y001388D01*
X020562Y001863D02*
X016609Y001863D01*
X016609Y002022D02*
X022906Y002022D01*
X022906Y002180D02*
X016609Y002180D01*
X016536Y002339D02*
X022906Y002339D01*
X022906Y001863D02*
X020999Y001863D01*
X021106Y001705D02*
X022906Y001705D01*
X022906Y001546D02*
X021121Y001546D01*
X021048Y001388D02*
X022906Y001388D01*
X022906Y001229D02*
X016606Y001229D01*
X016144Y001229D02*
X015984Y001229D01*
X015984Y001388D02*
X016144Y001388D01*
X016144Y001546D02*
X015984Y001546D01*
X015681Y001334D02*
X015681Y001784D01*
X015421Y001629D02*
X015099Y001629D01*
X015099Y001493D01*
X015421Y001493D01*
X015421Y001629D01*
X015421Y001546D02*
X015099Y001546D01*
X015099Y001629D02*
X015099Y001966D01*
X014963Y001966D01*
X014963Y001629D01*
X014641Y001629D01*
X014641Y001493D01*
X014963Y001493D01*
X014963Y001629D01*
X015099Y001629D01*
X015099Y001705D02*
X014963Y001705D01*
X014963Y001863D02*
X015099Y001863D01*
X014963Y001546D02*
X014641Y001546D01*
X014381Y001334D02*
X014381Y001784D01*
X014121Y001808D02*
X014078Y001808D01*
X014078Y001649D01*
X014121Y001649D01*
X014121Y001808D01*
X014077Y001863D02*
X013918Y001863D01*
X013917Y001705D02*
X013343Y001705D01*
X013343Y001863D02*
X013453Y001863D01*
X013453Y002022D02*
X013343Y002022D01*
X013343Y002180D02*
X013453Y002180D01*
X013525Y002339D02*
X013343Y002339D01*
X013343Y002498D02*
X014353Y002498D01*
X014317Y002656D02*
X013343Y002656D01*
X013343Y002815D02*
X014350Y002815D01*
X014077Y002973D02*
X013918Y002973D01*
X013918Y003132D02*
X014077Y003132D01*
X014077Y003290D02*
X013918Y003290D01*
X013453Y003290D02*
X013343Y003290D01*
X013343Y003132D02*
X013453Y003132D01*
X013551Y002973D02*
X013343Y002973D01*
X013343Y003449D02*
X013453Y003449D01*
X013918Y002339D02*
X014077Y002339D01*
X014077Y002180D02*
X013918Y002180D01*
X013918Y002022D02*
X014077Y002022D01*
X014078Y001705D02*
X014121Y001705D01*
X014077Y001546D02*
X013918Y001546D01*
X013918Y001388D02*
X014077Y001388D01*
X014077Y001229D02*
X013918Y001229D01*
X013456Y001229D02*
X013343Y001229D01*
X013343Y001071D02*
X022906Y001071D01*
X022906Y003766D02*
X016609Y003766D01*
X016609Y003924D02*
X022906Y003924D01*
X022906Y004083D02*
X016609Y004083D01*
X016460Y004241D02*
X022906Y004241D01*
X016582Y004559D02*
X013343Y004559D01*
X013461Y004717D02*
X016377Y004717D01*
X016219Y004876D02*
X013621Y004876D01*
X013782Y005034D02*
X015083Y005034D01*
X015072Y005045D02*
X015024Y005162D01*
X015024Y005290D01*
X015072Y005407D01*
X015162Y005497D01*
X015280Y005546D01*
X015407Y005546D01*
X015525Y005497D01*
X015615Y005407D01*
X015663Y005290D01*
X015663Y005162D01*
X015615Y005045D01*
X015525Y004955D01*
X015407Y004906D01*
X015280Y004906D01*
X015162Y004955D01*
X015072Y005045D01*
X015024Y005193D02*
X013942Y005193D01*
X014103Y005351D02*
X015049Y005351D01*
X015193Y005510D02*
X014263Y005510D01*
X014423Y005668D02*
X015426Y005668D01*
X015494Y005510D02*
X015585Y005510D01*
X015638Y005351D02*
X015743Y005351D01*
X015663Y005193D02*
X015902Y005193D01*
X016060Y005034D02*
X015604Y005034D01*
X015268Y005827D02*
X015147Y005827D01*
X014665Y005827D02*
X014584Y005827D01*
X011978Y005827D02*
X011380Y005827D01*
X011396Y005985D02*
X011978Y005985D01*
X011978Y006144D02*
X011396Y006144D01*
X011396Y006303D02*
X011897Y006303D01*
X011879Y006461D02*
X011396Y006461D01*
X011250Y005668D02*
X011978Y005668D01*
X011975Y005510D02*
X011092Y005510D01*
X010933Y005351D02*
X011817Y005351D01*
X011658Y005193D02*
X010775Y005193D01*
X010616Y005034D02*
X011500Y005034D01*
X011341Y004876D02*
X010521Y004876D01*
X010521Y004717D02*
X011183Y004717D01*
X010820Y004559D02*
X010521Y004559D01*
X010521Y004400D02*
X010709Y004400D01*
X010691Y004241D02*
X010521Y004241D01*
X010521Y004083D02*
X010756Y004083D01*
X009853Y004083D02*
X006700Y004083D01*
X006542Y003924D02*
X009853Y003924D01*
X009653Y003766D02*
X006383Y003766D01*
X006225Y003607D02*
X009567Y003607D01*
X009575Y003449D02*
X006066Y003449D01*
X006381Y003132D02*
X005041Y003132D01*
X004883Y003290D02*
X009674Y003290D01*
X009531Y003132D02*
X009444Y003132D01*
X009906Y003039D02*
X010281Y003414D01*
X009853Y004241D02*
X009279Y004241D01*
X009482Y004400D02*
X009853Y004400D01*
X009853Y004559D02*
X009640Y004559D01*
X009799Y004717D02*
X009853Y004717D01*
X009437Y005034D02*
X007652Y005034D01*
X007722Y005193D02*
X009596Y005193D01*
X009754Y005351D02*
X007729Y005351D01*
X007736Y005510D02*
X009913Y005510D01*
X010071Y005668D02*
X007743Y005668D01*
X007750Y005827D02*
X010230Y005827D01*
X010388Y005985D02*
X007757Y005985D01*
X007764Y006144D02*
X010541Y006144D01*
X010541Y006303D02*
X007771Y006303D01*
X007778Y006461D02*
X010101Y006461D01*
X009279Y004876D02*
X007493Y004876D01*
X007334Y004717D02*
X008541Y004717D01*
X008447Y004559D02*
X007176Y004559D01*
X007017Y004400D02*
X008445Y004400D01*
X008535Y004241D02*
X006859Y004241D01*
X007082Y003132D02*
X007168Y003132D01*
X007869Y003132D02*
X007956Y003132D01*
X008656Y003132D02*
X008743Y003132D01*
X009085Y001863D02*
X009102Y001863D01*
X009102Y001705D02*
X009085Y001705D01*
X008762Y001705D02*
X008638Y001705D01*
X008315Y001705D02*
X008297Y001705D01*
X008297Y001863D02*
X008315Y001863D01*
X007975Y001705D02*
X007850Y001705D01*
X007527Y001705D02*
X007510Y001705D01*
X007527Y001863D02*
X007510Y001863D01*
X007187Y001705D02*
X007063Y001705D01*
X006740Y001705D02*
X006723Y001705D01*
X006656Y001546D02*
X012593Y001546D01*
X012593Y001388D02*
X006656Y001388D01*
X006656Y001229D02*
X012504Y001229D01*
X012593Y001705D02*
X011787Y001705D01*
X011886Y001863D02*
X012593Y001863D01*
X013343Y001546D02*
X013453Y001546D01*
X013453Y001388D02*
X013343Y001388D01*
X011464Y001705D02*
X011447Y001705D01*
X011464Y001863D02*
X011447Y001863D01*
X011124Y001705D02*
X011000Y001705D01*
X010677Y001705D02*
X010660Y001705D01*
X010677Y001863D02*
X010660Y001863D01*
X010337Y001705D02*
X010212Y001705D01*
X009890Y001705D02*
X009872Y001705D01*
X009872Y001863D02*
X009890Y001863D01*
X009549Y001705D02*
X009425Y001705D01*
X006284Y002973D02*
X005327Y002973D01*
X005425Y002815D02*
X006254Y002815D01*
X006277Y002656D02*
X005432Y002656D01*
X004493Y002973D02*
X002679Y002973D01*
X002837Y003132D02*
X004334Y003132D01*
X004176Y003290D02*
X002866Y003290D01*
X001191Y002815D02*
X000906Y002815D01*
X000906Y002656D02*
X001032Y002656D01*
X000926Y002498D02*
X000906Y002498D01*
X000906Y002339D02*
X000926Y002339D01*
X000926Y002180D02*
X000906Y002180D01*
X000906Y002022D02*
X001056Y002022D01*
X000906Y001546D02*
X003468Y001546D01*
X003468Y001388D02*
X000906Y001388D01*
X001028Y002973D02*
X001105Y002973D01*
X009020Y004717D02*
X009120Y004717D01*
X014963Y001388D02*
X015099Y001388D01*
X015099Y001229D02*
X014963Y001229D01*
X015984Y002973D02*
X016144Y002973D01*
X016144Y003132D02*
X015984Y003132D01*
X015984Y003290D02*
X016144Y003290D01*
X016144Y003449D02*
X015984Y003449D01*
D17*
X004406Y024551D02*
X004406Y025151D01*
X003406Y025151D02*
X003406Y024551D01*
X002406Y024551D02*
X002406Y025151D01*
X001406Y025151D02*
X001406Y024551D01*
D18*
X001406Y021351D03*
X002406Y021351D03*
X002406Y020351D03*
X001406Y020351D03*
X001406Y019351D03*
X002406Y019351D03*
X002406Y018351D03*
X001406Y018351D03*
X001406Y017351D03*
X002406Y017351D03*
X002406Y016351D03*
X001406Y016351D03*
X001406Y015351D03*
X002406Y015351D03*
X002406Y014351D03*
X001406Y014351D03*
X001406Y013351D03*
X002406Y013351D03*
X002406Y012351D03*
X001406Y012351D03*
X001406Y011351D03*
X002406Y011351D03*
X002406Y010351D03*
X001406Y010351D03*
X001406Y009351D03*
X002406Y009351D03*
X002406Y008351D03*
X001406Y008351D03*
X001406Y007351D03*
X002406Y007351D03*
X002406Y006351D03*
X002406Y005351D03*
X001406Y005351D03*
X001406Y006351D03*
X001406Y004351D03*
X002406Y004351D03*
X002406Y003351D03*
X001406Y003351D03*
X001406Y002351D03*
X002406Y002351D03*
D19*
X008419Y020520D03*
X009206Y020520D03*
X009994Y020520D03*
X010781Y020520D03*
X011568Y020520D03*
X012356Y020520D03*
X013143Y020520D03*
X013143Y021307D03*
X012356Y021307D03*
X011568Y021307D03*
X010781Y021307D03*
X009994Y021307D03*
X009206Y021307D03*
X008419Y021307D03*
D20*
X006593Y019664D03*
X005156Y019726D03*
X005156Y018539D03*
X005968Y018289D03*
X005031Y017851D03*
X007218Y015789D03*
X006781Y014101D03*
X006406Y013851D03*
X005656Y013664D03*
X007406Y012664D03*
X006406Y012414D03*
X005093Y012226D03*
X005218Y011039D03*
X006281Y011164D03*
X008968Y010414D03*
X008968Y010039D03*
X008843Y009664D03*
X009031Y009289D03*
X010531Y010289D03*
X011406Y010476D03*
X011593Y010789D03*
X011968Y011539D03*
X012031Y011914D03*
X011531Y012289D03*
X011093Y012289D03*
X010906Y012601D03*
X010406Y014039D03*
X010156Y014289D03*
X011406Y014226D03*
X011843Y014164D03*
X012718Y013789D03*
X012781Y013101D03*
X014156Y013164D03*
X015218Y012726D03*
X015406Y013039D03*
X015531Y013664D03*
X016781Y013726D03*
X016906Y014101D03*
X016843Y014851D03*
X017218Y014851D03*
X016843Y015289D03*
X017468Y015601D03*
X017781Y015414D03*
X018031Y015164D03*
X018281Y014914D03*
X018531Y014289D03*
X018843Y014039D03*
X018906Y013164D03*
X017218Y012039D03*
X017156Y011664D03*
X016781Y011539D03*
X016781Y011164D03*
X015531Y011101D03*
X014343Y010664D03*
X013781Y008664D03*
X012343Y008726D03*
X009718Y007664D03*
X009281Y007664D03*
X008843Y007789D03*
X008406Y007976D03*
X009656Y007164D03*
X012218Y006414D03*
X013343Y005851D03*
X014906Y006039D03*
X015343Y005226D03*
X018343Y006476D03*
X018718Y006664D03*
X018843Y007039D03*
X019218Y007164D03*
X018093Y007101D03*
X016781Y008039D03*
X017843Y008414D03*
X017843Y008789D03*
X019156Y008351D03*
X019906Y008226D03*
X020781Y008351D03*
X020218Y008914D03*
X019531Y009101D03*
X021531Y008851D03*
X021906Y008664D03*
X021593Y008414D03*
X021468Y007101D03*
X021031Y007101D03*
X024531Y010101D03*
X023968Y010351D03*
X025156Y009476D03*
X025156Y009164D03*
X027531Y011101D03*
X027468Y011476D03*
X027531Y011851D03*
X028968Y012476D03*
X029593Y012476D03*
X030531Y013851D03*
X031218Y013789D03*
X029343Y015226D03*
X028906Y014539D03*
X027656Y013789D03*
X027593Y013414D03*
X027656Y013039D03*
X028906Y010539D03*
X028906Y010039D03*
X028531Y009414D03*
X028968Y008601D03*
X029718Y009414D03*
X029843Y007789D03*
X031218Y007601D03*
X031718Y007601D03*
X032593Y007914D03*
X032781Y007289D03*
X033406Y006851D03*
X034093Y006539D03*
X033343Y006289D03*
X033281Y005789D03*
X033218Y005164D03*
X032343Y004923D03*
X031843Y004164D03*
X031968Y003851D03*
X031531Y003851D03*
X031656Y003539D03*
X032843Y004039D03*
X034093Y004726D03*
X034031Y005601D03*
X035343Y004726D03*
X036093Y004476D03*
X035781Y005601D03*
X035843Y006539D03*
X034906Y006726D03*
X035343Y007914D03*
X033468Y008851D03*
X032781Y008789D03*
X034718Y009539D03*
X035656Y009601D03*
X033593Y010601D03*
X033593Y010976D03*
X033781Y011664D03*
X033781Y014039D03*
X034281Y014789D03*
X034718Y014789D03*
X035781Y014039D03*
X033156Y015351D03*
X033343Y016414D03*
X031843Y017539D03*
X031218Y018414D03*
X031781Y018976D03*
X030718Y017476D03*
X029906Y016601D03*
X031156Y016539D03*
X028906Y015789D03*
X027031Y018039D03*
X026656Y018851D03*
X025718Y018851D03*
X024656Y018976D03*
X023781Y018476D03*
X023031Y018351D03*
X022968Y018726D03*
X022718Y018976D03*
X022343Y018726D03*
X022906Y020039D03*
X020468Y020351D03*
X020093Y020414D03*
X019406Y020539D03*
X018781Y020664D03*
X018781Y018476D03*
X018531Y018226D03*
X019156Y018414D03*
X018468Y017851D03*
X018343Y017476D03*
X018781Y016039D03*
X018906Y015539D03*
X019218Y015351D03*
X018968Y015039D03*
X019781Y015914D03*
X019593Y016226D03*
X020156Y015976D03*
X020406Y016226D03*
X022156Y016039D03*
X020781Y018164D03*
X024843Y017226D03*
X024906Y016914D03*
X025281Y017164D03*
X027718Y018789D03*
X028656Y019789D03*
X027656Y020289D03*
X026281Y020789D03*
X028156Y021851D03*
X027781Y022414D03*
X029406Y021851D03*
X031343Y023226D03*
X032406Y022539D03*
X032406Y021601D03*
X032218Y021351D03*
X032718Y021289D03*
X032593Y020976D03*
X033593Y020851D03*
X033906Y020539D03*
X034031Y020164D03*
X033843Y019539D03*
X033843Y018914D03*
X033843Y018289D03*
X033468Y017914D03*
X033968Y017664D03*
X035343Y019289D03*
X035968Y020101D03*
X035968Y021351D03*
X035031Y021601D03*
X035968Y022476D03*
X035718Y023726D03*
X034156Y023664D03*
X033093Y023539D03*
X032906Y024414D03*
X033843Y024664D03*
X034093Y025414D03*
X034843Y025664D03*
X035718Y025539D03*
X035906Y024601D03*
X031968Y025164D03*
X031468Y024851D03*
X030843Y025039D03*
X029406Y023289D03*
X024406Y024976D03*
X016093Y024539D03*
X013343Y023476D03*
X005968Y022039D03*
X008343Y018351D03*
X008906Y018414D03*
X009781Y018164D03*
X010093Y018414D03*
X010968Y018414D03*
X012156Y018289D03*
X013031Y018039D03*
X013593Y018101D03*
X014218Y018101D03*
X016468Y016664D03*
X016156Y016351D03*
X015781Y016289D03*
X015406Y016226D03*
X015468Y015539D03*
X016781Y012976D03*
X016843Y012601D03*
X024156Y012414D03*
X031468Y006289D03*
X028593Y004539D03*
X028718Y003476D03*
X029031Y002914D03*
X029593Y002476D03*
X030343Y002976D03*
X031718Y002226D03*
X030093Y001726D03*
X028531Y001664D03*
X027281Y004914D03*
X027093Y006039D03*
X034281Y002164D03*
X035406Y002664D03*
X011031Y004289D03*
X009906Y003539D03*
X008781Y004476D03*
X006656Y005039D03*
X005781Y004101D03*
X005218Y003914D03*
X005093Y002726D03*
X004968Y008539D03*
X004031Y008789D03*
X009031Y010789D03*
X009031Y011226D03*
D21*
X007656Y008851D03*
X005343Y007289D03*
X005343Y006414D03*
X005718Y005039D03*
X007156Y003789D03*
X008406Y006226D03*
X009468Y006226D03*
X010406Y006726D03*
X010343Y007101D03*
X011593Y006164D03*
X011906Y006039D03*
X011906Y006976D03*
X013093Y007164D03*
X014781Y008664D03*
X015531Y008664D03*
X015156Y010289D03*
X014656Y010664D03*
X013593Y011351D03*
X014843Y012101D03*
X015531Y011539D03*
X014343Y012914D03*
X013531Y013914D03*
X014156Y015039D03*
X013906Y015289D03*
X014218Y015414D03*
X013531Y015851D03*
X011968Y015351D03*
X011343Y014976D03*
X011343Y015851D03*
X011093Y016101D03*
X009656Y016601D03*
X008718Y017289D03*
X008781Y017601D03*
X009093Y017726D03*
X007656Y016914D03*
X007343Y017164D03*
X007343Y018164D03*
X007593Y018476D03*
X011468Y019789D03*
X012656Y022101D03*
X013593Y022101D03*
X015406Y022101D03*
X017031Y021726D03*
X017406Y021164D03*
X017843Y021164D03*
X017906Y021789D03*
X019093Y023351D03*
X019156Y023851D03*
X019906Y023851D03*
X019906Y023351D03*
X020843Y023851D03*
X022718Y024601D03*
X024156Y025914D03*
X025343Y024914D03*
X027218Y024414D03*
X027468Y024664D03*
X029843Y024351D03*
X030156Y024476D03*
X030218Y021164D03*
X032343Y019164D03*
X035281Y017226D03*
X026093Y017351D03*
X024156Y016289D03*
X024843Y015601D03*
X023781Y014914D03*
X022281Y014101D03*
X021093Y014664D03*
X020968Y015164D03*
X020031Y014851D03*
X020781Y012976D03*
X019281Y012351D03*
X020031Y010476D03*
X020531Y009601D03*
X021156Y009601D03*
X020843Y008914D03*
X024093Y008789D03*
X024718Y008539D03*
X024718Y007914D03*
X025468Y007851D03*
X024781Y007164D03*
X025843Y006101D03*
X023656Y005976D03*
X022968Y005851D03*
X022968Y005539D03*
X021906Y006226D03*
X020968Y005664D03*
X020718Y005476D03*
X020218Y006289D03*
X018968Y005976D03*
X018718Y006226D03*
X018156Y005976D03*
X017843Y005914D03*
X017093Y004914D03*
X014968Y003789D03*
X014093Y003539D03*
X012968Y004539D03*
X014406Y004914D03*
X016156Y002851D03*
X015906Y001664D03*
X015031Y001539D03*
X014093Y001789D03*
X014093Y002664D03*
X012468Y001601D03*
X010718Y004851D03*
X020281Y003226D03*
X020593Y003101D03*
X021531Y003601D03*
X020718Y004476D03*
X020781Y001601D03*
X026531Y004101D03*
X029218Y001851D03*
X030281Y003601D03*
X031781Y005226D03*
X025531Y011226D03*
X023781Y012414D03*
X022281Y012664D03*
X025406Y013351D03*
X022531Y016726D03*
X023718Y017726D03*
X020781Y018476D03*
X020531Y018726D03*
X018968Y019726D03*
X018656Y019851D03*
X018031Y019351D03*
X018093Y019039D03*
X016781Y017976D03*
X016656Y017601D03*
X021281Y021164D03*
X021968Y021539D03*
X022906Y021476D03*
X023781Y022101D03*
X024468Y021851D03*
X024406Y022601D03*
X025093Y022476D03*
X025031Y022976D03*
X017968Y024226D03*
X017343Y024539D03*
X016656Y024539D03*
X017968Y024914D03*
X014281Y024914D03*
X013718Y024476D03*
X012281Y024539D03*
X011906Y024601D03*
X011281Y024914D03*
X011968Y025914D03*
X010531Y024039D03*
X008843Y023976D03*
X006843Y023914D03*
X003968Y025851D03*
X001968Y025851D03*
X003281Y023789D03*
X003531Y023539D03*
X003343Y022164D03*
X000906Y023039D03*
X007093Y021539D03*
X009593Y015289D03*
X009593Y014914D03*
D22*
X010843Y015664D02*
X010843Y013289D01*
X010031Y012476D01*
X010031Y009601D01*
X009281Y008851D01*
X007656Y008851D01*
X010031Y009601D02*
X010406Y009226D01*
X010406Y006726D01*
X010343Y006851D01*
X013281Y008351D02*
X013281Y011164D01*
X013281Y016414D01*
X013531Y016664D01*
X013468Y016601D02*
X015968Y019039D01*
X016343Y018476D02*
X018156Y018476D01*
X018656Y018976D02*
X018656Y019851D01*
X018781Y019726D01*
X018968Y019726D01*
X020531Y018726D02*
X020843Y018726D01*
X022031Y017539D01*
X022906Y017539D01*
X023343Y017101D01*
X023343Y017101D01*
X023281Y016914D02*
X022968Y017226D01*
X022031Y017226D01*
X021843Y017414D01*
X021968Y017539D01*
X022031Y017539D01*
X021843Y017414D02*
X021093Y018164D01*
X020781Y018164D01*
X021843Y017101D01*
X022156Y017101D01*
X022281Y017226D01*
X023281Y016914D02*
X023406Y016850D01*
X024156Y016289D02*
X023281Y015351D01*
X024843Y015601D02*
X025656Y016414D01*
X025093Y017101D02*
X025093Y017665D01*
X024906Y017601D02*
X024906Y016914D01*
X025093Y017101D01*
X021093Y018164D02*
X020531Y018726D01*
X020531Y018414D01*
X020781Y018164D01*
X016343Y018476D02*
X014906Y017101D01*
X014906Y013039D01*
X014718Y012226D02*
X014843Y012101D01*
X015031Y011914D01*
X015031Y010976D01*
X015156Y010789D02*
X015156Y010414D01*
X015156Y009976D01*
X016156Y008976D01*
X016156Y009414D01*
X015156Y010414D01*
X013843Y009976D02*
X014718Y009101D01*
X014718Y008664D01*
X013593Y008039D02*
X016718Y004914D01*
X017093Y004914D01*
X016156Y007914D02*
X016156Y008976D01*
X013593Y008039D02*
X013281Y008351D01*
X013281Y011164D02*
X013468Y011351D01*
X013468Y011476D02*
X013468Y013851D01*
X013468Y015914D01*
X013468Y016601D01*
X013968Y015164D02*
X013968Y011789D01*
X014156Y011601D01*
X010843Y015664D02*
X011031Y015852D01*
X011093Y015914D01*
X011093Y016101D01*
D23*
X013468Y015914D02*
X013593Y015914D01*
X013531Y015851D01*
X013468Y014039D02*
X013468Y013851D01*
X013531Y013914D02*
X013468Y014039D01*
X014156Y013164D02*
X014218Y013101D01*
X014343Y013101D01*
X014343Y012914D01*
X013468Y011476D02*
X013531Y011351D01*
X013593Y011351D01*
X015031Y010976D02*
X015156Y010789D01*
X014718Y008726D02*
X014906Y008289D01*
X014843Y008539D01*
X014781Y008664D01*
X016531Y007539D02*
X019523Y007539D01*
X020086Y006976D01*
X020086Y006421D01*
X020218Y006289D01*
X024718Y007914D02*
X025156Y008351D01*
X025156Y008601D01*
X024031Y009726D01*
X021843Y009726D01*
X021531Y010039D01*
X021531Y014914D01*
X021968Y015351D01*
X023281Y015351D01*
X024156Y016726D02*
X024155Y016976D01*
X023407Y016976D02*
X023406Y016850D01*
X024906Y017601D02*
X025281Y017164D01*
X025282Y018413D02*
X025093Y018413D01*
D24*
X031218Y021789D03*
X032906Y025726D03*
X015218Y008726D03*
D25*
X016156Y007914D02*
X016531Y007539D01*
X018156Y005976D02*
X018218Y005914D01*
X018312Y005820D01*
X020790Y005610D02*
X020978Y005673D01*
X022781Y005476D01*
X022906Y005664D02*
X022968Y005726D01*
X022968Y005851D01*
X022906Y005664D02*
X022593Y005664D01*
X020978Y005673D01*
X020968Y005664D01*
X015156Y010289D02*
X015156Y010414D01*
X015093Y010851D02*
X014906Y012101D01*
X014718Y012289D01*
X014718Y012726D01*
X014906Y013039D01*
X014718Y012226D02*
X014718Y011226D01*
X015093Y010851D01*
X013468Y011351D02*
X013468Y011476D01*
X013593Y008039D02*
X013593Y008039D01*
X014156Y014851D02*
X013906Y015101D01*
X013906Y015289D01*
X014093Y015476D01*
X014343Y015476D01*
X014406Y015414D01*
X014406Y015289D01*
X011343Y015851D02*
X011093Y016101D01*
X011031Y015852D02*
X011343Y015852D01*
X011343Y015851D01*
X015968Y019039D02*
X016218Y019289D01*
X018031Y019289D01*
X018093Y019226D01*
X018093Y019101D01*
X018093Y019039D02*
X015968Y019039D01*
X018156Y018476D02*
X018656Y018976D01*
X021968Y021539D02*
X024218Y019226D01*
X024218Y018539D01*
X024218Y018289D01*
X024218Y016226D01*
X024218Y016914D01*
X024280Y016352D01*
X024155Y016976D01*
X024156Y016726D02*
X024156Y016289D01*
X025656Y016414D02*
X025656Y016476D01*
X025656Y018039D01*
X025282Y018413D01*
X025093Y018413D02*
X025093Y019289D01*
X022906Y021476D01*
D26*
X014218Y015414D02*
X014156Y015414D01*
X014343Y015226D01*
X014343Y013226D01*
X014156Y013039D01*
X014156Y013164D01*
X014156Y014851D01*
X014156Y015039D01*
X014156Y015351D01*
X014156Y013039D02*
X014156Y011601D01*
X014156Y011164D01*
X013843Y010851D01*
X013843Y009976D01*
X013843Y009601D01*
X014156Y009289D01*
X014281Y009164D01*
X014281Y008539D01*
X017156Y005664D01*
X018468Y005664D01*
X018312Y005820D01*
X018218Y005914D02*
X017281Y005914D01*
X014906Y008289D01*
X014718Y008726D02*
X014281Y009164D01*
X017343Y005476D02*
X018468Y005664D01*
X017343Y005476D02*
X022781Y005476D01*
D27*
X016781Y008039D02*
X016718Y008101D01*
X016718Y009664D01*
X015781Y010601D01*
X015781Y010601D01*
X015531Y010851D01*
X015531Y011101D01*
X015843Y011976D02*
X015843Y015789D01*
X015406Y016226D01*
X015781Y016289D02*
X016031Y016039D01*
X016031Y012164D01*
X016718Y011476D01*
X016843Y011476D01*
X016718Y011539D01*
X016781Y011539D01*
X016781Y011789D02*
X016968Y011789D01*
X017093Y011726D01*
X017156Y011664D01*
X016781Y011789D02*
X016218Y012351D01*
X016218Y016289D01*
X016156Y016351D01*
X016156Y016414D01*
X016406Y016289D02*
X016468Y016351D01*
X016468Y016664D01*
X016406Y016289D02*
X016406Y012414D01*
X016781Y012039D01*
X017218Y012039D01*
X016718Y011164D02*
X015843Y011976D01*
X016718Y011164D02*
X016781Y011164D01*
X011531Y012226D02*
X011218Y011914D01*
X011218Y011914D01*
X011156Y011851D01*
X011156Y005914D01*
X010281Y005039D01*
X010281Y003414D01*
X010093Y003726D02*
X009906Y003539D01*
X010093Y003726D02*
X010093Y005101D01*
X010968Y005976D01*
X010968Y012101D01*
X010968Y012164D01*
X011093Y012289D01*
X010906Y012539D02*
X010781Y012414D01*
X010781Y006039D01*
X009218Y004476D01*
X008781Y004476D01*
X007281Y005476D02*
X006843Y005039D01*
X006656Y005039D01*
X007281Y005476D02*
X007281Y011539D01*
X007406Y011664D01*
X007406Y012664D01*
X010156Y014289D02*
X010156Y016789D01*
X010156Y016851D01*
X010156Y017039D01*
X010781Y017664D01*
X011531Y017664D01*
X012156Y018289D01*
X018781Y020664D02*
X018781Y020664D01*
X019093Y020351D01*
X019093Y020164D01*
X019593Y019664D01*
X019593Y016226D01*
X019781Y015914D02*
X019843Y015914D01*
X019906Y015976D01*
X019906Y017726D01*
X019781Y017851D01*
X019781Y019851D01*
X019406Y020226D01*
X019406Y020539D01*
X019968Y020289D02*
X020093Y020414D01*
X019968Y020289D02*
X019968Y017914D01*
X020093Y017789D01*
X020093Y016101D01*
X020156Y016039D01*
X020156Y015976D01*
X020406Y016226D02*
X020281Y016351D01*
X020281Y017851D01*
X020156Y017976D01*
X020156Y020039D01*
X020468Y020351D01*
X010906Y012601D02*
X010906Y012539D01*
X011531Y012289D02*
X011531Y012226D01*
X012218Y006414D02*
X012218Y005414D01*
X011031Y004226D01*
X011031Y004289D01*
X009906Y003039D02*
X009906Y002832D01*
X009881Y002807D01*
D28*
X005093Y002726D02*
X004031Y003789D01*
X004031Y008789D01*
M02*
