G75*
G70*
%OFA0B0*%
%FSLAX24Y24*%
%IPPOS*%
%LPD*%
%AMOC8*
5,1,8,0,0,1.08239X$1,22.5*
%
%ADD10C,0.0080*%
%ADD11C,0.0100*%
%ADD12R,0.0787X0.0079*%
%ADD13R,0.0079X0.0787*%
%ADD14C,0.0050*%
%ADD15R,0.0571X0.0295*%
%ADD16C,0.0040*%
%ADD17R,0.0197X0.0374*%
%ADD18R,0.0160X0.0340*%
%ADD19C,0.0060*%
%ADD20R,0.0256X0.0197*%
%ADD21R,0.0374X0.0197*%
%ADD22R,0.0157X0.0118*%
%ADD23R,0.0118X0.0157*%
%ADD24R,0.0295X0.0571*%
%ADD25R,0.0340X0.0160*%
%ADD26R,0.0551X0.0256*%
%ADD27R,0.0197X0.0256*%
%ADD28R,0.0256X0.0551*%
%ADD29R,0.0295X0.0669*%
%ADD30R,0.0669X0.0295*%
%ADD31R,0.0173X0.0697*%
%ADD32R,0.0173X0.0697*%
%ADD33R,0.0173X0.0697*%
%ADD34R,0.0697X0.0173*%
%ADD35R,0.0697X0.0173*%
%ADD36R,0.0697X0.0173*%
%ADD37R,0.0193X0.0472*%
%ADD38R,0.0200X0.0200*%
%ADD39C,0.0004*%
%ADD40R,0.0295X0.0130*%
%ADD41C,0.0030*%
%ADD42R,0.0551X0.0079*%
%ADD43C,0.0030*%
%ADD44R,0.0197X0.0123*%
%ADD45R,0.0105X0.0053*%
%ADD46R,0.0069X0.0298*%
%ADD47R,0.0197X0.0128*%
%ADD48R,0.0098X0.0059*%
%ADD49R,0.0069X0.0157*%
%ADD50R,0.0079X0.0079*%
%ADD51C,0.0012*%
%ADD52R,0.0030X0.0128*%
%ADD53R,0.0123X0.0197*%
%ADD54R,0.0053X0.0105*%
%ADD55R,0.0298X0.0069*%
%ADD56R,0.0128X0.0197*%
%ADD57R,0.0059X0.0098*%
%ADD58R,0.0157X0.0069*%
%ADD59R,0.0128X0.0030*%
%ADD60C,0.0020*%
D10*
X016947Y008391D02*
X022380Y008391D01*
X022380Y016186D01*
X016947Y016186D01*
X016947Y008391D01*
X017081Y008525D02*
X017081Y016056D01*
X022246Y016056D01*
X022246Y008525D01*
X017081Y008525D01*
X019281Y003724D02*
X021171Y003724D01*
X021171Y002425D01*
X019281Y002425D01*
X019281Y003724D01*
X019281Y002425D02*
X019281Y002228D01*
X021171Y002228D01*
X021171Y002425D01*
X026918Y009043D02*
X030784Y009043D01*
X030784Y012909D01*
X026918Y012909D01*
X026918Y009043D01*
X026996Y009122D02*
X026996Y012830D01*
X030709Y012830D01*
X030709Y009122D01*
X026996Y009122D01*
D11*
X030130Y012452D02*
X030132Y012479D01*
X030138Y012506D01*
X030147Y012532D01*
X030160Y012556D01*
X030176Y012579D01*
X030195Y012598D01*
X030217Y012615D01*
X030241Y012629D01*
X030266Y012639D01*
X030293Y012646D01*
X030320Y012649D01*
X030348Y012648D01*
X030375Y012643D01*
X030401Y012635D01*
X030425Y012623D01*
X030448Y012607D01*
X030469Y012589D01*
X030486Y012568D01*
X030501Y012544D01*
X030512Y012519D01*
X030520Y012493D01*
X030524Y012466D01*
X030524Y012438D01*
X030520Y012411D01*
X030512Y012385D01*
X030501Y012360D01*
X030486Y012336D01*
X030469Y012315D01*
X030448Y012297D01*
X030426Y012281D01*
X030401Y012269D01*
X030375Y012261D01*
X030348Y012256D01*
X030320Y012255D01*
X030293Y012258D01*
X030266Y012265D01*
X030241Y012275D01*
X030217Y012289D01*
X030195Y012306D01*
X030176Y012325D01*
X030160Y012348D01*
X030147Y012372D01*
X030138Y012398D01*
X030132Y012425D01*
X030130Y012452D01*
X017242Y015655D02*
X017244Y015689D01*
X017250Y015723D01*
X017260Y015756D01*
X017273Y015787D01*
X017291Y015817D01*
X017311Y015845D01*
X017335Y015870D01*
X017361Y015892D01*
X017389Y015910D01*
X017420Y015926D01*
X017452Y015938D01*
X017486Y015946D01*
X017520Y015950D01*
X017554Y015950D01*
X017588Y015946D01*
X017622Y015938D01*
X017654Y015926D01*
X017684Y015910D01*
X017713Y015892D01*
X017739Y015870D01*
X017763Y015845D01*
X017783Y015817D01*
X017801Y015787D01*
X017814Y015756D01*
X017824Y015723D01*
X017830Y015689D01*
X017832Y015655D01*
X017830Y015621D01*
X017824Y015587D01*
X017814Y015554D01*
X017801Y015523D01*
X017783Y015493D01*
X017763Y015465D01*
X017739Y015440D01*
X017713Y015418D01*
X017685Y015400D01*
X017654Y015384D01*
X017622Y015372D01*
X017588Y015364D01*
X017554Y015360D01*
X017520Y015360D01*
X017486Y015364D01*
X017452Y015372D01*
X017420Y015384D01*
X017389Y015400D01*
X017361Y015418D01*
X017335Y015440D01*
X017311Y015465D01*
X017291Y015493D01*
X017273Y015523D01*
X017260Y015554D01*
X017250Y015587D01*
X017244Y015621D01*
X017242Y015655D01*
D12*
X016533Y015733D03*
X016533Y015537D03*
X016533Y015340D03*
X016533Y015143D03*
X016533Y014946D03*
X016533Y014749D03*
X016533Y014552D03*
X016533Y014355D03*
X016533Y014159D03*
X016533Y013962D03*
X016533Y013765D03*
X016533Y013568D03*
X016533Y013371D03*
X016533Y013174D03*
X016533Y012978D03*
X016533Y012781D03*
X016533Y012584D03*
X016533Y012387D03*
X016533Y012190D03*
X016533Y011993D03*
X016533Y011796D03*
X016533Y011600D03*
X016533Y011403D03*
X016533Y011206D03*
X016533Y011009D03*
X016533Y010812D03*
X016533Y010615D03*
X016533Y010418D03*
X016533Y010222D03*
X016533Y010025D03*
X016533Y009828D03*
X016533Y009631D03*
X016533Y009434D03*
X016533Y009237D03*
X016533Y009041D03*
X016533Y008844D03*
X016533Y008647D03*
X022793Y008647D03*
X022793Y008844D03*
X022793Y009041D03*
X022793Y009237D03*
X022793Y009434D03*
X022793Y009631D03*
X022793Y009828D03*
X022793Y010025D03*
X022793Y010222D03*
X022793Y010418D03*
X022793Y010615D03*
X022793Y010812D03*
X022793Y011009D03*
X022793Y011206D03*
X022793Y011403D03*
X022793Y011600D03*
X022793Y011796D03*
X022793Y011993D03*
X022793Y012190D03*
X022793Y012387D03*
X022793Y012584D03*
X022793Y012781D03*
X022793Y012978D03*
X022793Y013174D03*
X022793Y013371D03*
X022793Y013568D03*
X022793Y013765D03*
X022793Y013962D03*
X022793Y014159D03*
X022793Y014355D03*
X022793Y014552D03*
X022793Y014749D03*
X022793Y014946D03*
X022793Y015143D03*
X022793Y015340D03*
X022793Y015537D03*
X022793Y015733D03*
X022793Y015930D03*
X016533Y015930D03*
D13*
X017203Y016600D03*
X017400Y016600D03*
X017596Y016600D03*
X017793Y016600D03*
X017990Y016600D03*
X018187Y016600D03*
X018384Y016600D03*
X018581Y016600D03*
X018777Y016600D03*
X018974Y016600D03*
X019171Y016600D03*
X019368Y016600D03*
X019565Y016600D03*
X019762Y016600D03*
X019959Y016600D03*
X020155Y016600D03*
X020352Y016600D03*
X020549Y016600D03*
X020746Y016600D03*
X020943Y016600D03*
X021140Y016600D03*
X021337Y016600D03*
X021533Y016600D03*
X021730Y016600D03*
X021927Y016600D03*
X022124Y016600D03*
X022124Y007978D03*
X021927Y007978D03*
X021730Y007978D03*
X021533Y007978D03*
X021337Y007978D03*
X021140Y007978D03*
X020943Y007978D03*
X020746Y007978D03*
X020549Y007978D03*
X020352Y007978D03*
X020155Y007978D03*
X019959Y007978D03*
X019762Y007978D03*
X019565Y007978D03*
X019368Y007978D03*
X019171Y007978D03*
X018974Y007978D03*
X018777Y007978D03*
X018581Y007978D03*
X018384Y007978D03*
X018187Y007978D03*
X017990Y007978D03*
X017793Y007978D03*
X017596Y007978D03*
X017400Y007978D03*
X017203Y007978D03*
D14*
X008714Y003914D02*
X007601Y005027D01*
X006487Y003914D01*
X007601Y002800D01*
X008714Y003914D01*
X008131Y004444D02*
X008087Y004400D01*
X007115Y004400D01*
X007247Y004267D01*
X007954Y004267D01*
X008087Y004400D01*
X008043Y004532D02*
X007159Y004532D01*
X007070Y004444D02*
X007115Y004400D01*
X007247Y004267D02*
X007380Y004135D01*
X007822Y004135D01*
X007954Y004267D01*
X007822Y004135D02*
X007689Y004002D01*
X007512Y004002D01*
X007601Y003914D01*
X007689Y004002D01*
X007512Y004002D02*
X007380Y004135D01*
X007291Y004665D02*
X007910Y004665D01*
X007538Y004797D02*
X007540Y004812D01*
X007545Y004826D01*
X007554Y004839D01*
X007565Y004849D01*
X007579Y004856D01*
X007593Y004860D01*
X007609Y004860D01*
X007623Y004856D01*
X007637Y004849D01*
X007648Y004839D01*
X007657Y004826D01*
X007662Y004812D01*
X007664Y004797D01*
X007662Y004782D01*
X007657Y004768D01*
X007648Y004755D01*
X007637Y004745D01*
X007623Y004738D01*
X007609Y004734D01*
X007593Y004734D01*
X007579Y004738D01*
X007565Y004745D01*
X007554Y004755D01*
X007545Y004768D01*
X007540Y004782D01*
X007538Y004797D01*
X026379Y004498D02*
X026379Y003474D01*
X027093Y003474D01*
X027093Y004498D01*
X026379Y004498D01*
X026726Y004326D02*
X026726Y003626D01*
X036625Y001601D02*
X036625Y001451D01*
X036700Y001376D01*
X036625Y001601D02*
X036700Y001676D01*
X036776Y001676D01*
X037076Y001376D01*
X037076Y001676D01*
X037625Y001526D02*
X038076Y001526D01*
X038076Y001376D02*
X038076Y001676D01*
X037776Y001376D02*
X037625Y001526D01*
X038701Y011476D02*
X038701Y011776D01*
X038851Y011936D02*
X038550Y012237D01*
X038851Y012237D01*
X038926Y012162D01*
X038926Y012011D01*
X038851Y011936D01*
X038550Y011936D01*
X038475Y012011D01*
X038475Y012162D01*
X038550Y012237D01*
X038475Y011701D02*
X038701Y011476D01*
X038926Y011701D02*
X038475Y011701D01*
X032413Y020028D02*
X032413Y021799D01*
X029276Y021799D01*
X029276Y021701D02*
X029276Y022016D01*
X027676Y022016D01*
X027676Y021701D01*
X029276Y021701D01*
X029973Y022604D02*
X029973Y023723D01*
X030603Y023723D01*
X030603Y022604D01*
X029973Y022604D01*
X028416Y022605D02*
X028416Y023723D01*
X027786Y023723D01*
X027786Y022605D01*
X028416Y022605D01*
X027676Y021799D02*
X024539Y021799D01*
X024539Y020028D01*
X032413Y020028D01*
X031841Y020189D02*
X031540Y020189D01*
X031841Y020489D01*
X031841Y020564D01*
X031766Y020639D01*
X031615Y020639D01*
X031540Y020564D01*
X031540Y021189D02*
X031841Y021189D01*
X031691Y021189D02*
X031691Y021639D01*
X031540Y021489D01*
X023935Y019448D02*
X023935Y018734D01*
X022911Y018734D01*
X022911Y019448D01*
X023935Y019448D01*
X023764Y019101D02*
X023063Y019101D01*
X017968Y021787D02*
X017254Y021787D01*
X017254Y022811D01*
X017968Y022811D01*
X017968Y021787D01*
X017601Y021938D02*
X017601Y022639D01*
X016655Y022811D02*
X015941Y022811D01*
X015941Y021787D01*
X016655Y021787D01*
X016655Y022811D01*
X016288Y022639D02*
X016288Y021938D01*
X008027Y021226D02*
X006913Y022340D01*
X005800Y021226D01*
X006913Y020112D01*
X008027Y021226D01*
X007734Y021226D02*
X007736Y021241D01*
X007741Y021255D01*
X007750Y021268D01*
X007761Y021278D01*
X007775Y021285D01*
X007789Y021289D01*
X007805Y021289D01*
X007819Y021285D01*
X007833Y021278D01*
X007844Y021268D01*
X007853Y021255D01*
X007858Y021241D01*
X007860Y021226D01*
X007858Y021211D01*
X007853Y021197D01*
X007844Y021184D01*
X007833Y021174D01*
X007819Y021167D01*
X007805Y021163D01*
X007789Y021163D01*
X007775Y021167D01*
X007761Y021174D01*
X007750Y021184D01*
X007741Y021197D01*
X007736Y021211D01*
X007734Y021226D01*
X007665Y021535D02*
X007665Y020917D01*
X007532Y020784D02*
X007532Y021668D01*
X007444Y021756D02*
X007399Y021712D01*
X007399Y020740D01*
X007444Y020696D01*
X007399Y020740D02*
X007267Y020872D01*
X007267Y021580D01*
X007134Y021447D01*
X007134Y021005D01*
X007267Y020872D01*
X007134Y021005D02*
X007002Y021138D01*
X007002Y021314D01*
X006913Y021226D01*
X007002Y021138D01*
X007002Y021314D02*
X007134Y021447D01*
X007267Y021580D02*
X007399Y021712D01*
D15*
X010914Y013633D03*
X010914Y013063D03*
X010913Y011826D03*
X010913Y011256D03*
X021414Y019938D03*
X021414Y020508D03*
X023164Y018258D03*
X023164Y017688D03*
D16*
X023423Y017826D02*
X023423Y018126D01*
X022904Y018116D02*
X022904Y017826D01*
X021866Y017811D02*
X021586Y017811D01*
X021586Y018146D02*
X021866Y018146D01*
X019366Y017994D02*
X019086Y017994D01*
X019086Y018329D02*
X019366Y018329D01*
X021153Y020076D02*
X021153Y020366D01*
X021673Y020376D02*
X021673Y020076D01*
X024839Y022487D02*
X024844Y022509D01*
X024852Y022529D01*
X024863Y022547D01*
X024878Y022564D01*
X024894Y022578D01*
X024913Y022590D01*
X024933Y022598D01*
X024954Y022603D01*
X024976Y022605D01*
X024998Y022603D01*
X025019Y022598D01*
X025039Y022590D01*
X025058Y022578D01*
X025074Y022564D01*
X025089Y022547D01*
X025100Y022529D01*
X025108Y022509D01*
X025113Y022487D01*
X024886Y023132D02*
X024851Y023132D01*
X024851Y023164D01*
X022891Y023523D02*
X022891Y023804D01*
X022556Y023804D02*
X022556Y023523D01*
X021098Y023481D02*
X021098Y022721D01*
X020479Y022721D02*
X020479Y023481D01*
X020543Y024416D02*
X019783Y024416D01*
X019783Y025036D02*
X020543Y025036D01*
X017288Y023789D02*
X017257Y023789D01*
X017257Y023754D01*
X016611Y023801D02*
X016633Y023796D01*
X016653Y023788D01*
X016671Y023777D01*
X016688Y023762D01*
X016702Y023746D01*
X016714Y023727D01*
X016722Y023707D01*
X016727Y023686D01*
X016729Y023664D01*
X016727Y023642D01*
X016722Y023621D01*
X016714Y023601D01*
X016702Y023582D01*
X016688Y023566D01*
X016671Y023551D01*
X016653Y023540D01*
X016633Y023532D01*
X016611Y023527D01*
X013641Y023898D02*
X013641Y024179D01*
X013306Y024179D02*
X013306Y023898D01*
X008891Y022241D02*
X008891Y021961D01*
X008556Y021961D02*
X008556Y022241D01*
X005241Y022271D02*
X004961Y022271D01*
X004961Y022561D02*
X005241Y022561D01*
X005241Y022896D02*
X004961Y022896D01*
X004961Y021936D02*
X005241Y021936D01*
X006086Y019641D02*
X006366Y019641D01*
X006366Y019306D02*
X006086Y019306D01*
X006138Y018736D02*
X006428Y018736D01*
X006438Y018216D02*
X006138Y018216D01*
X005418Y017348D02*
X004658Y017348D01*
X004658Y016729D02*
X005418Y016729D01*
X004896Y015866D02*
X004896Y015586D01*
X004561Y015586D02*
X004561Y015866D01*
X007806Y014741D02*
X007806Y014461D01*
X008141Y014461D02*
X008141Y014741D01*
X007986Y015589D02*
X008008Y015594D01*
X008028Y015602D01*
X008046Y015613D01*
X008063Y015628D01*
X008077Y015644D01*
X008089Y015663D01*
X008097Y015683D01*
X008102Y015704D01*
X008104Y015726D01*
X008102Y015748D01*
X008097Y015769D01*
X008089Y015789D01*
X008077Y015808D01*
X008063Y015824D01*
X008046Y015839D01*
X008028Y015850D01*
X008008Y015858D01*
X007986Y015863D01*
X008632Y015851D02*
X008632Y015816D01*
X008632Y015851D02*
X008663Y015851D01*
X010557Y015380D02*
X010837Y015380D01*
X010837Y015045D02*
X010557Y015045D01*
X012273Y013896D02*
X012553Y013896D01*
X012553Y013561D02*
X012273Y013561D01*
X012273Y013271D02*
X012553Y013271D01*
X012553Y012936D02*
X012273Y012936D01*
X011173Y013201D02*
X011173Y013501D01*
X010653Y013491D02*
X010653Y013201D01*
X012398Y011959D02*
X012678Y011959D01*
X012678Y011624D02*
X012398Y011624D01*
X012398Y011334D02*
X012678Y011334D01*
X012678Y010999D02*
X012398Y010999D01*
X011173Y011398D02*
X011173Y011689D01*
X010653Y011689D02*
X010653Y011389D01*
X010961Y010209D02*
X011241Y010209D01*
X011241Y009874D02*
X010961Y009874D01*
X012073Y008410D02*
X012278Y008205D01*
X011918Y007831D02*
X011706Y008043D01*
X011486Y007883D02*
X011684Y007685D01*
X011448Y007448D02*
X011249Y007646D01*
X010517Y007254D02*
X010312Y007049D01*
X009938Y007409D02*
X010150Y007621D01*
X011081Y006628D02*
X010869Y006415D01*
X011244Y006055D02*
X011449Y006260D01*
X010226Y005410D02*
X010027Y005212D01*
X009790Y005449D02*
X009989Y005647D01*
X009482Y006165D02*
X009284Y005967D01*
X009047Y006204D02*
X009245Y006402D01*
X006876Y006404D02*
X006576Y006404D01*
X006586Y005891D02*
X006866Y005891D01*
X006866Y005556D02*
X006586Y005556D01*
X006576Y006923D02*
X006866Y006923D01*
X006931Y008273D02*
X006931Y008554D01*
X007266Y008554D02*
X007266Y008273D01*
X008413Y009539D02*
X008413Y009570D01*
X008378Y009570D01*
X008425Y010216D02*
X008420Y010194D01*
X008412Y010174D01*
X008401Y010156D01*
X008386Y010139D01*
X008370Y010125D01*
X008351Y010113D01*
X008331Y010105D01*
X008310Y010100D01*
X008288Y010098D01*
X008266Y010100D01*
X008245Y010105D01*
X008225Y010113D01*
X008206Y010125D01*
X008190Y010139D01*
X008175Y010156D01*
X008164Y010174D01*
X008156Y010194D01*
X008151Y010216D01*
X004991Y010936D02*
X004711Y010936D01*
X004711Y011271D02*
X004991Y011271D01*
X011405Y016699D02*
X011617Y016911D01*
X011243Y017271D02*
X011038Y017066D01*
X010810Y017256D02*
X011009Y017454D01*
X010772Y017691D02*
X010573Y017493D01*
X009757Y017907D02*
X009545Y018119D01*
X009184Y017745D02*
X009389Y017540D01*
X010284Y018434D02*
X010079Y018640D01*
X010439Y019014D02*
X010651Y018802D01*
X009453Y019759D02*
X009255Y019957D01*
X009018Y019720D02*
X009216Y019522D01*
X008673Y019041D02*
X008475Y019239D01*
X008238Y019002D02*
X008436Y018804D01*
X012873Y018116D02*
X012873Y017836D01*
X013208Y017836D02*
X013208Y018116D01*
X013931Y016429D02*
X013931Y016148D01*
X014266Y016148D02*
X014266Y016429D01*
X014998Y015741D02*
X014998Y015461D01*
X015333Y015461D02*
X015333Y015741D01*
X015936Y017211D02*
X015936Y017491D01*
X016271Y017491D02*
X016271Y017211D01*
X014366Y012579D02*
X014086Y012579D01*
X014086Y012243D02*
X014366Y012243D01*
X014648Y009641D02*
X014928Y009641D01*
X014928Y009306D02*
X014648Y009306D01*
X015056Y008241D02*
X015056Y007961D01*
X015391Y007961D02*
X015391Y008241D01*
X015931Y006866D02*
X015931Y006586D01*
X016266Y006586D02*
X016266Y006866D01*
X017836Y006521D02*
X018116Y006521D01*
X018116Y006186D02*
X017836Y006186D01*
X019523Y006249D02*
X019803Y006249D01*
X019803Y006584D02*
X019523Y006584D01*
X021711Y006579D02*
X021991Y006579D01*
X021991Y006243D02*
X021711Y006243D01*
X022961Y003959D02*
X023241Y003959D01*
X023241Y003624D02*
X022961Y003624D01*
X022896Y002054D02*
X022896Y001773D01*
X022561Y001773D02*
X022561Y002054D01*
X018896Y002211D02*
X018896Y002491D01*
X018561Y002491D02*
X018561Y002211D01*
X013703Y006961D02*
X013703Y007241D01*
X013368Y007241D02*
X013368Y006961D01*
X009771Y003304D02*
X009771Y003023D01*
X009436Y003023D02*
X009436Y003304D01*
X005803Y003459D02*
X005523Y003459D01*
X005523Y003124D02*
X005803Y003124D01*
X005803Y002834D02*
X005523Y002834D01*
X005523Y002499D02*
X005803Y002499D01*
X024243Y011211D02*
X024243Y011491D01*
X024578Y011491D02*
X024578Y011211D01*
X024646Y013523D02*
X024646Y013804D01*
X024311Y013804D02*
X024311Y013523D01*
X024311Y015398D02*
X024311Y015679D01*
X024646Y015679D02*
X024646Y015398D01*
X028783Y015729D02*
X029543Y015729D01*
X029116Y015329D02*
X028836Y015329D01*
X028836Y014993D02*
X029116Y014993D01*
X028783Y016348D02*
X029543Y016348D01*
X032743Y023023D02*
X032743Y023304D01*
X033078Y023304D02*
X033078Y023023D01*
X028241Y006959D02*
X027961Y006959D01*
X027961Y006624D02*
X028241Y006624D01*
X026891Y002491D02*
X026891Y002211D01*
X026556Y002211D02*
X026556Y002491D01*
D17*
X023329Y003791D03*
X022869Y003791D03*
X022082Y006412D03*
X021622Y006412D03*
X019892Y006416D03*
X019432Y006416D03*
X018204Y006353D03*
X017744Y006353D03*
X015020Y009474D03*
X014560Y009474D03*
X012767Y011166D03*
X012307Y011166D03*
X012307Y011791D03*
X012767Y011791D03*
X013997Y012412D03*
X014457Y012412D03*
X012642Y013103D03*
X012182Y013103D03*
X012182Y013728D03*
X012642Y013728D03*
X010926Y015212D03*
X010466Y015212D03*
G36*
X010829Y017247D02*
X010690Y017108D01*
X010427Y017371D01*
X010566Y017510D01*
X010829Y017247D01*
G37*
G36*
X011154Y017572D02*
X011015Y017433D01*
X010752Y017696D01*
X010891Y017835D01*
X011154Y017572D01*
G37*
G36*
X008555Y018659D02*
X008416Y018798D01*
X008679Y019061D01*
X008818Y018922D01*
X008555Y018659D01*
G37*
G36*
X008229Y018984D02*
X008090Y019123D01*
X008353Y019386D01*
X008492Y019247D01*
X008229Y018984D01*
G37*
G36*
X009010Y019702D02*
X008871Y019841D01*
X009134Y020104D01*
X009273Y019965D01*
X009010Y019702D01*
G37*
G36*
X009335Y019376D02*
X009196Y019515D01*
X009459Y019778D01*
X009598Y019639D01*
X009335Y019376D01*
G37*
X006457Y019474D03*
X005997Y019474D03*
X005329Y022103D03*
X004869Y022103D03*
X004869Y022728D03*
X005329Y022728D03*
X018997Y018162D03*
X019457Y018162D03*
X021494Y017978D03*
X021954Y017978D03*
X028747Y015162D03*
X029207Y015162D03*
X028329Y006791D03*
X027869Y006791D03*
G36*
X011566Y007302D02*
X011427Y007441D01*
X011690Y007704D01*
X011829Y007565D01*
X011566Y007302D01*
G37*
G36*
X011241Y007628D02*
X011102Y007767D01*
X011365Y008030D01*
X011504Y007891D01*
X011241Y007628D01*
G37*
G36*
X009627Y006283D02*
X009488Y006144D01*
X009225Y006407D01*
X009364Y006546D01*
X009627Y006283D01*
G37*
G36*
X009302Y005958D02*
X009163Y005819D01*
X008900Y006082D01*
X009039Y006221D01*
X009302Y005958D01*
G37*
G36*
X010371Y005529D02*
X010232Y005390D01*
X009969Y005653D01*
X010108Y005792D01*
X010371Y005529D01*
G37*
G36*
X010046Y005204D02*
X009907Y005065D01*
X009644Y005328D01*
X009783Y005467D01*
X010046Y005204D01*
G37*
X006957Y005724D03*
X006497Y005724D03*
X005892Y003291D03*
X005432Y003291D03*
X005432Y002666D03*
X005892Y002666D03*
X010869Y010041D03*
X011329Y010041D03*
X005079Y011103D03*
X004619Y011103D03*
D18*
G36*
X011778Y015386D02*
X011665Y015273D01*
X011426Y015512D01*
X011539Y015625D01*
X011778Y015386D01*
G37*
G36*
X012132Y015740D02*
X012019Y015627D01*
X011780Y015866D01*
X011893Y015979D01*
X012132Y015740D01*
G37*
G36*
X012398Y016485D02*
X012511Y016598D01*
X012750Y016359D01*
X012637Y016246D01*
X012398Y016485D01*
G37*
G36*
X012752Y016838D02*
X012865Y016951D01*
X013104Y016712D01*
X012991Y016599D01*
X012752Y016838D01*
G37*
X013476Y019789D03*
X013976Y019789D03*
X010538Y021164D03*
X010038Y021164D03*
X009976Y022226D03*
X010476Y022226D03*
X007726Y019726D03*
X007226Y019726D03*
X015288Y023414D03*
X015788Y023414D03*
X017476Y024351D03*
X017976Y024351D03*
X023663Y022851D03*
X024163Y022851D03*
X033226Y020289D03*
X033726Y020289D03*
X034663Y019851D03*
X035163Y019851D03*
X035163Y018726D03*
X034663Y018726D03*
X033663Y019101D03*
X033163Y019101D03*
X034663Y017851D03*
X035163Y017851D03*
X035163Y016914D03*
X034663Y016914D03*
X033601Y016351D03*
X033101Y016351D03*
X033101Y017539D03*
X033601Y017539D03*
X033601Y014289D03*
X033101Y014289D03*
X034538Y013789D03*
X035038Y013789D03*
X035038Y012601D03*
X034538Y012601D03*
X033538Y012914D03*
X033038Y012914D03*
X033038Y011664D03*
X033538Y011664D03*
X034538Y011164D03*
X035038Y011164D03*
X033538Y010289D03*
X033038Y010289D03*
X034476Y009664D03*
X034976Y009664D03*
X033413Y007226D03*
X032913Y007226D03*
X032913Y006414D03*
X033413Y006414D03*
X033413Y005539D03*
X032913Y005539D03*
X034663Y004101D03*
X035163Y004101D03*
X035163Y003226D03*
X034663Y003226D03*
X034663Y002226D03*
X035163Y002226D03*
X023351Y005476D03*
X022851Y005476D03*
X022851Y006289D03*
X023351Y006289D03*
X015351Y004851D03*
X014851Y004851D03*
X011601Y004101D03*
X011101Y004101D03*
X008413Y005601D03*
X007913Y005601D03*
G36*
X013096Y008754D02*
X013209Y008641D01*
X012970Y008402D01*
X012857Y008515D01*
X013096Y008754D01*
G37*
G36*
X013449Y008400D02*
X013562Y008287D01*
X013323Y008048D01*
X013210Y008161D01*
X013449Y008400D01*
G37*
G36*
X012426Y009008D02*
X012313Y009121D01*
X012552Y009360D01*
X012665Y009247D01*
X012426Y009008D01*
G37*
G36*
X012073Y009361D02*
X011960Y009474D01*
X012199Y009713D01*
X012312Y009600D01*
X012073Y009361D01*
G37*
X010038Y025351D03*
X009538Y025351D03*
D19*
X004461Y003146D02*
X004461Y002806D01*
X004741Y002806D02*
X004741Y003146D01*
X004741Y004181D02*
X004741Y004521D01*
X004461Y004521D02*
X004461Y004181D01*
X007993Y005461D02*
X008333Y005461D01*
X008333Y005741D02*
X007993Y005741D01*
X009148Y004584D02*
X009148Y004244D01*
X009428Y004244D02*
X009428Y004584D01*
X011181Y004241D02*
X011521Y004241D01*
X011521Y003961D02*
X011181Y003961D01*
X011116Y003396D02*
X011116Y003056D01*
X010836Y003056D02*
X010836Y003396D01*
X014931Y004711D02*
X015271Y004711D01*
X015271Y004991D02*
X014931Y004991D01*
X017523Y004646D02*
X017523Y004306D01*
X017804Y004306D02*
X017804Y004646D01*
X017601Y002575D02*
X017601Y002252D01*
X018101Y002252D02*
X018101Y002575D01*
X021601Y002075D02*
X021601Y001752D01*
X022101Y001752D02*
X022101Y002075D01*
X022101Y003190D02*
X022101Y003512D01*
X021601Y003512D02*
X021601Y003190D01*
X022931Y005336D02*
X023271Y005336D01*
X023271Y005616D02*
X022931Y005616D01*
X022931Y006148D02*
X023271Y006148D01*
X023271Y006429D02*
X022931Y006429D01*
X025086Y006306D02*
X025086Y006646D01*
X025366Y006646D02*
X025366Y006306D01*
X026648Y006994D02*
X026648Y007334D01*
X026928Y007334D02*
X026928Y006994D01*
X030773Y004334D02*
X030773Y003993D01*
X031053Y003993D02*
X031053Y004334D01*
X032993Y005398D02*
X033333Y005398D01*
X033333Y005679D02*
X032993Y005679D01*
X032993Y006273D02*
X033333Y006273D01*
X033333Y006554D02*
X032993Y006554D01*
X032993Y007086D02*
X033333Y007086D01*
X033333Y007366D02*
X032993Y007366D01*
X034556Y009523D02*
X034896Y009523D01*
X034896Y009804D02*
X034556Y009804D01*
X033458Y010148D02*
X033118Y010148D01*
X033118Y010429D02*
X033458Y010429D01*
X034618Y011023D02*
X034958Y011023D01*
X034958Y011304D02*
X034618Y011304D01*
X035501Y011601D02*
X035601Y011601D01*
X035601Y001351D01*
X035501Y001351D01*
X035501Y000851D01*
X035601Y000851D01*
X035601Y000351D01*
X039101Y000351D01*
X039101Y002051D01*
X039051Y002051D01*
X039051Y002651D01*
X039101Y002651D01*
X039101Y003201D01*
X038901Y003351D01*
X038901Y003551D01*
X038901Y004151D01*
X038901Y004351D01*
X039101Y004501D01*
X039101Y011051D01*
X038701Y011051D01*
X038601Y011051D01*
X038601Y004151D01*
X038601Y003551D01*
X038601Y000851D01*
X036101Y000851D01*
X036101Y022851D01*
X038601Y022851D01*
X038601Y021151D01*
X038601Y020551D01*
X038601Y012651D01*
X038701Y012651D01*
X039101Y012651D01*
X039101Y011051D01*
X038601Y011051D02*
X038301Y011051D01*
X038301Y012651D01*
X038601Y012651D01*
X039101Y012651D02*
X039101Y020201D01*
X038901Y020351D01*
X038901Y020551D01*
X038901Y021151D01*
X038701Y021151D01*
X038601Y021151D01*
X038901Y021151D02*
X038901Y021351D01*
X039101Y021501D01*
X039101Y023351D01*
X035601Y023351D01*
X035601Y022851D01*
X035501Y022851D01*
X035501Y022351D01*
X035601Y022351D01*
X035601Y012101D01*
X035501Y012101D01*
X035501Y011601D01*
X034958Y012461D02*
X034618Y012461D01*
X034618Y012741D02*
X034958Y012741D01*
X034958Y013648D02*
X034618Y013648D01*
X034618Y013929D02*
X034958Y013929D01*
X033521Y014148D02*
X033181Y014148D01*
X033181Y014429D02*
X033521Y014429D01*
X033458Y013054D02*
X033118Y013054D01*
X033118Y012773D02*
X033458Y012773D01*
X033458Y011804D02*
X033118Y011804D01*
X033118Y011523D02*
X033458Y011523D01*
X033521Y016211D02*
X033181Y016211D01*
X033181Y016491D02*
X033521Y016491D01*
X034743Y016773D02*
X035083Y016773D01*
X035083Y017054D02*
X034743Y017054D01*
X034743Y017711D02*
X035083Y017711D01*
X035083Y017991D02*
X034743Y017991D01*
X034743Y018586D02*
X035083Y018586D01*
X035083Y018866D02*
X034743Y018866D01*
X034743Y019711D02*
X035083Y019711D01*
X035083Y019991D02*
X034743Y019991D01*
X033646Y020148D02*
X033306Y020148D01*
X033306Y020429D02*
X033646Y020429D01*
X033583Y019241D02*
X033243Y019241D01*
X033243Y018961D02*
X033583Y018961D01*
X033521Y017679D02*
X033181Y017679D01*
X033181Y017398D02*
X033521Y017398D01*
X031512Y017414D02*
X031189Y017414D01*
X031189Y017914D02*
X031512Y017914D01*
X031178Y018931D02*
X031178Y019271D01*
X030898Y019271D02*
X030898Y018931D01*
X030366Y018931D02*
X030366Y019271D01*
X030086Y019271D02*
X030086Y018931D01*
X029553Y018931D02*
X029553Y019271D01*
X029273Y019271D02*
X029273Y018931D01*
X028741Y018931D02*
X028741Y019271D01*
X028461Y019271D02*
X028461Y018931D01*
X027928Y018868D02*
X027928Y019209D01*
X027648Y019209D02*
X027648Y018868D01*
X026804Y018806D02*
X026804Y019146D01*
X026523Y019146D02*
X026523Y018806D01*
X026116Y018806D02*
X026116Y019146D01*
X025836Y019146D02*
X025836Y018806D01*
X025429Y018806D02*
X025429Y019146D01*
X025148Y019146D02*
X025148Y018806D01*
X022972Y019791D02*
X022972Y019828D01*
X022972Y019791D02*
X022354Y019791D01*
X022354Y019828D01*
X022354Y019791D02*
X022354Y020911D01*
X022354Y020874D01*
X022354Y020911D02*
X022972Y020911D01*
X022972Y020874D01*
X022972Y020911D02*
X022972Y019791D01*
X022972Y020146D02*
X022972Y020183D01*
X022972Y020520D02*
X022972Y020557D01*
X022354Y020557D02*
X022354Y020146D01*
X020616Y021181D02*
X020616Y021521D01*
X020336Y021521D02*
X020336Y021181D01*
X019991Y021181D02*
X019991Y021521D01*
X019711Y021521D02*
X019711Y021181D01*
X019428Y021181D02*
X019428Y021521D01*
X019148Y021521D02*
X019148Y021181D01*
X018804Y021181D02*
X018804Y021521D01*
X018523Y021521D02*
X018523Y021181D01*
X018241Y020271D02*
X018241Y019931D01*
X017961Y019931D02*
X017961Y020271D01*
X017553Y019959D02*
X017553Y019618D01*
X017273Y019618D02*
X017273Y019959D01*
X013896Y019929D02*
X013556Y019929D01*
X013556Y019648D02*
X013896Y019648D01*
X010458Y021023D02*
X010118Y021023D01*
X010118Y021304D02*
X010458Y021304D01*
X010396Y022086D02*
X010056Y022086D01*
X010056Y022366D02*
X010396Y022366D01*
X008616Y020834D02*
X008616Y020493D01*
X008336Y020493D02*
X008336Y020834D01*
X007646Y019866D02*
X007306Y019866D01*
X007306Y019586D02*
X007646Y019586D01*
X004178Y022244D02*
X004178Y022584D01*
X003898Y022584D02*
X003898Y022244D01*
X004023Y023431D02*
X004023Y023771D01*
X004303Y023771D02*
X004303Y023431D01*
X009618Y025211D02*
X009958Y025211D01*
X009958Y025491D02*
X009618Y025491D01*
X010377Y024664D02*
X010700Y024664D01*
X010700Y024164D02*
X010377Y024164D01*
X013002Y023038D02*
X013325Y023038D01*
X013325Y022538D02*
X013002Y022538D01*
X014038Y023815D02*
X014038Y024137D01*
X014538Y024137D02*
X014538Y023815D01*
X014979Y024292D02*
X015016Y024292D01*
X014979Y024292D02*
X016098Y024292D01*
X016061Y024292D01*
X016098Y024292D02*
X016098Y024910D01*
X016061Y024910D01*
X016098Y024910D02*
X014979Y024910D01*
X015016Y024910D01*
X014979Y024910D02*
X014979Y024292D01*
X015333Y024292D02*
X015744Y024292D01*
X015708Y023554D02*
X015368Y023554D01*
X015368Y023273D02*
X015708Y023273D01*
X017556Y024211D02*
X017896Y024211D01*
X017896Y024491D02*
X017556Y024491D01*
X015744Y024910D02*
X015707Y024910D01*
X015370Y024910D02*
X015333Y024910D01*
X021663Y023887D02*
X021663Y023565D01*
X022163Y023565D02*
X022163Y023887D01*
X023354Y023729D02*
X023391Y023729D01*
X023354Y023729D02*
X024473Y023729D01*
X024436Y023729D01*
X024473Y023729D02*
X024473Y024348D01*
X024436Y024348D01*
X024473Y024348D02*
X023354Y024348D01*
X023391Y024348D01*
X023354Y024348D02*
X023354Y023729D01*
X023708Y023729D02*
X024119Y023729D01*
X024083Y022991D02*
X023743Y022991D01*
X023743Y022711D02*
X024083Y022711D01*
X024836Y023931D02*
X024836Y024271D01*
X025116Y024271D02*
X025116Y023931D01*
X024119Y024348D02*
X024082Y024348D01*
X023745Y024348D02*
X023708Y024348D01*
X026351Y023262D02*
X026351Y022940D01*
X026851Y022940D02*
X026851Y023262D01*
X028351Y024815D02*
X028351Y025137D01*
X028851Y025137D02*
X028851Y024815D01*
X029513Y024645D02*
X029513Y025432D01*
X030064Y025432D01*
X030064Y024645D01*
X029513Y024645D01*
X029631Y024999D02*
X029788Y025235D01*
X029946Y024999D01*
X029631Y024999D01*
X031961Y023334D02*
X031961Y022994D01*
X032241Y022994D02*
X032241Y023334D01*
X033898Y023396D02*
X033898Y023056D01*
X034178Y023056D02*
X034178Y023396D01*
X034601Y024351D02*
X034351Y024601D01*
X034351Y025101D01*
X034601Y025351D01*
X035101Y025351D01*
X035351Y025101D01*
X035601Y025351D01*
X036101Y025351D01*
X036351Y025101D01*
X036601Y025351D01*
X037101Y025351D01*
X037351Y025101D01*
X037601Y025351D01*
X038101Y025351D01*
X038351Y025101D01*
X038351Y024601D01*
X038101Y024351D01*
X037601Y024351D01*
X037351Y024601D01*
X037101Y024351D01*
X036601Y024351D01*
X036351Y024601D01*
X036351Y025101D01*
X036351Y024601D02*
X036101Y024351D01*
X035601Y024351D01*
X035351Y024601D01*
X035101Y024351D01*
X034601Y024351D01*
X035351Y024601D02*
X035351Y025101D01*
X037189Y024039D02*
X037512Y024039D01*
X037512Y023539D02*
X037189Y023539D01*
X037351Y024601D02*
X037351Y025101D01*
X038601Y020551D02*
X038701Y020551D01*
X038901Y020551D01*
X038901Y004151D02*
X038701Y004151D01*
X038601Y004151D01*
X038601Y003551D02*
X038701Y003551D01*
X038901Y003551D01*
X035083Y003366D02*
X034743Y003366D01*
X034743Y003086D02*
X035083Y003086D01*
X035083Y002366D02*
X034743Y002366D01*
X034743Y002086D02*
X035083Y002086D01*
X035083Y003961D02*
X034743Y003961D01*
X034743Y004241D02*
X035083Y004241D01*
X013429Y008380D02*
X013188Y008620D01*
X012990Y008422D02*
X013231Y008182D01*
X012334Y009141D02*
X012093Y009382D01*
X012291Y009580D02*
X012532Y009340D01*
X008178Y008584D02*
X008178Y008243D01*
X007898Y008243D02*
X007898Y008584D01*
X007241Y009556D02*
X007241Y009896D01*
X006961Y009896D02*
X006961Y009556D01*
X006160Y009521D02*
X006160Y009932D01*
X006160Y010249D02*
X006160Y010286D01*
X006160Y009166D01*
X006160Y009203D01*
X006160Y009166D02*
X005542Y009166D01*
X005542Y009203D01*
X005542Y009166D02*
X005542Y010286D01*
X005542Y010249D01*
X005542Y010286D02*
X006160Y010286D01*
X005542Y009932D02*
X005542Y009895D01*
X005542Y009558D02*
X005542Y009521D01*
X008586Y014431D02*
X008586Y014771D01*
X008866Y014771D02*
X008866Y014431D01*
X007366Y015118D02*
X007366Y015459D01*
X007086Y015459D02*
X007086Y015118D01*
X006410Y015146D02*
X006410Y015557D01*
X006410Y015874D02*
X006410Y015911D01*
X006410Y014791D01*
X006410Y014828D01*
X006410Y014791D02*
X005792Y014791D01*
X005792Y014828D01*
X005792Y014791D02*
X005792Y015911D01*
X005792Y015874D01*
X005792Y015911D02*
X006410Y015911D01*
X005792Y015557D02*
X005792Y015520D01*
X005792Y015183D02*
X005792Y015146D01*
X011560Y015605D02*
X011800Y015846D01*
X011998Y015647D02*
X011758Y015407D01*
X012730Y016379D02*
X012971Y016620D01*
X012772Y016818D02*
X012532Y016577D01*
D20*
X006563Y015725D03*
X006563Y014977D03*
X005638Y014977D03*
X005638Y015351D03*
X005638Y015725D03*
X005388Y010100D03*
X005388Y009726D03*
X005388Y009352D03*
X006313Y009352D03*
X006313Y010100D03*
X022201Y019977D03*
X023126Y019977D03*
X023126Y020351D03*
X023126Y020725D03*
X022201Y020725D03*
D21*
X022724Y023432D03*
X022724Y023892D03*
X013474Y023807D03*
X013474Y024267D03*
X008724Y022329D03*
X008724Y021869D03*
X013040Y018208D03*
X013040Y017748D03*
X014099Y016517D03*
X014099Y016057D03*
X015165Y015833D03*
X015165Y015373D03*
X016103Y017123D03*
X016103Y017583D03*
X024478Y015770D03*
X024478Y015310D03*
X024478Y013895D03*
X024478Y013435D03*
X024411Y011579D03*
X024411Y011119D03*
X016099Y006954D03*
X016099Y006494D03*
X015224Y007870D03*
X015224Y008330D03*
X013536Y007329D03*
X013536Y006869D03*
X009603Y003395D03*
X009603Y002935D03*
X007099Y008182D03*
X007099Y008642D03*
X007974Y014369D03*
X007974Y014829D03*
X004728Y015498D03*
X004728Y015958D03*
X018728Y002583D03*
X018728Y002123D03*
X022728Y002145D03*
X022728Y001685D03*
X026724Y002119D03*
X026724Y002579D03*
X032911Y022932D03*
X032911Y023392D03*
D22*
X023413Y019101D03*
D23*
X017601Y022289D03*
X016288Y022289D03*
X026726Y003976D03*
D24*
G36*
X012292Y008226D02*
X012500Y008018D01*
X012098Y007616D01*
X011890Y007824D01*
X012292Y008226D01*
G37*
G36*
X011889Y008629D02*
X012097Y008421D01*
X011695Y008019D01*
X011487Y008227D01*
X011889Y008629D01*
G37*
G36*
X010736Y007438D02*
X010528Y007230D01*
X010126Y007632D01*
X010334Y007840D01*
X010736Y007438D01*
G37*
G36*
X010333Y007035D02*
X010125Y006827D01*
X009723Y007229D01*
X009931Y007437D01*
X010333Y007035D01*
G37*
G36*
X011667Y006444D02*
X011459Y006236D01*
X011057Y006638D01*
X011265Y006846D01*
X011667Y006444D01*
G37*
G36*
X011264Y006041D02*
X011056Y005833D01*
X010654Y006235D01*
X010862Y006443D01*
X011264Y006041D01*
G37*
X007008Y006663D03*
X006438Y006663D03*
G36*
X010819Y016882D02*
X011027Y017090D01*
X011429Y016688D01*
X011221Y016480D01*
X010819Y016882D01*
G37*
G36*
X011222Y017285D02*
X011430Y017493D01*
X011832Y017091D01*
X011624Y016883D01*
X011222Y017285D01*
G37*
G36*
X009574Y017322D02*
X009366Y017530D01*
X009768Y017932D01*
X009976Y017724D01*
X009574Y017322D01*
G37*
G36*
X009171Y017725D02*
X008963Y017933D01*
X009365Y018335D01*
X009573Y018127D01*
X009171Y017725D01*
G37*
G36*
X010468Y018216D02*
X010260Y018424D01*
X010662Y018826D01*
X010870Y018618D01*
X010468Y018216D01*
G37*
G36*
X010065Y018619D02*
X009857Y018827D01*
X010259Y019229D01*
X010467Y019021D01*
X010065Y018619D01*
G37*
X006571Y018476D03*
X006001Y018476D03*
D25*
X008476Y020413D03*
X008476Y020913D03*
X004038Y022164D03*
X004038Y022664D03*
X004163Y023351D03*
X004163Y023851D03*
X007226Y015539D03*
X007226Y015039D03*
X008726Y014851D03*
X008726Y014351D03*
X007101Y009976D03*
X007101Y009476D03*
X008038Y008664D03*
X008038Y008164D03*
X009288Y004664D03*
X009288Y004164D03*
X010976Y003476D03*
X010976Y002976D03*
X004601Y002726D03*
X004601Y003226D03*
X004601Y004101D03*
X004601Y004601D03*
X017663Y004726D03*
X017663Y004226D03*
X025226Y006226D03*
X025226Y006726D03*
X026788Y006914D03*
X026788Y007414D03*
X030913Y004414D03*
X030913Y003914D03*
X031038Y018851D03*
X031038Y019351D03*
X030226Y019351D03*
X030226Y018851D03*
X029413Y018851D03*
X029413Y019351D03*
X028601Y019351D03*
X028601Y018851D03*
X027788Y018789D03*
X027788Y019289D03*
X026663Y019226D03*
X026663Y018726D03*
X025976Y018726D03*
X025976Y019226D03*
X025288Y019226D03*
X025288Y018726D03*
X020476Y021101D03*
X020476Y021601D03*
X019851Y021601D03*
X019288Y021601D03*
X019288Y021101D03*
X019851Y021101D03*
X018663Y021101D03*
X018663Y021601D03*
X018101Y020351D03*
X018101Y019851D03*
X017413Y020039D03*
X017413Y019539D03*
X024976Y023851D03*
X024976Y024351D03*
X032101Y023414D03*
X032101Y022914D03*
X034038Y022976D03*
X034038Y023476D03*
D26*
X028600Y024684D03*
X028600Y025264D03*
X026601Y023393D03*
X026601Y022813D03*
X021913Y023434D03*
X021913Y024014D03*
X014288Y024264D03*
X014288Y023684D03*
X021851Y003643D03*
X021851Y003063D03*
X021851Y002206D03*
X021851Y001626D03*
X017850Y002121D03*
X017850Y002701D03*
D27*
X023539Y023576D03*
X024287Y023576D03*
X024287Y024501D03*
X023913Y024501D03*
X023539Y024501D03*
X015912Y024138D03*
X015164Y024138D03*
X015164Y025064D03*
X015538Y025064D03*
X015912Y025064D03*
D28*
X013451Y022789D03*
X012871Y022789D03*
X010826Y024414D03*
X010246Y024414D03*
X031063Y017663D03*
X031643Y017663D03*
X037059Y023789D03*
X037639Y023789D03*
D29*
X029686Y016039D03*
X028641Y016038D03*
X020686Y024726D03*
X019641Y024726D03*
X005561Y017039D03*
X004516Y017038D03*
D30*
X020789Y022579D03*
X020788Y023623D03*
D31*
X027276Y013273D03*
X028851Y013273D03*
X030426Y013273D03*
X030426Y008679D03*
X028851Y008679D03*
X027276Y008679D03*
D32*
X027591Y008679D03*
X028536Y008679D03*
X029166Y008679D03*
X030111Y008679D03*
X030111Y013273D03*
X029166Y013273D03*
X028536Y013273D03*
X027591Y013273D03*
D33*
X027906Y013273D03*
X028221Y013273D03*
X029481Y013273D03*
X029796Y013273D03*
X029796Y008679D03*
X029481Y008679D03*
X028221Y008679D03*
X027906Y008679D03*
D34*
X026554Y009401D03*
X026554Y010976D03*
X026554Y012551D03*
X031148Y012551D03*
X031148Y010976D03*
X031148Y009401D03*
D35*
X031148Y009716D03*
X031148Y010661D03*
X031148Y011291D03*
X031148Y012236D03*
X026554Y012236D03*
X026554Y011291D03*
X026554Y010661D03*
X026554Y009716D03*
D36*
X026554Y010031D03*
X026554Y010346D03*
X026554Y011606D03*
X026554Y011921D03*
X031148Y011921D03*
X031148Y011606D03*
X031148Y010346D03*
X031148Y010031D03*
D37*
X020976Y004000D03*
X020476Y004000D03*
X019976Y004000D03*
X019476Y004000D03*
X019476Y001952D03*
X019976Y001952D03*
X020476Y001952D03*
X020976Y001952D03*
D38*
X036851Y002351D03*
X037851Y002351D03*
X037851Y003351D03*
X036851Y003351D03*
X036851Y004351D03*
X037851Y004351D03*
X037851Y005351D03*
X037851Y006351D03*
X036851Y006351D03*
X036851Y005351D03*
X036851Y007351D03*
X037851Y007351D03*
X037851Y008351D03*
X037851Y009351D03*
X036851Y009351D03*
X036851Y008351D03*
X036851Y010351D03*
X037851Y010351D03*
X037851Y011351D03*
X036851Y011351D03*
X036851Y012351D03*
X037851Y012351D03*
X037851Y013351D03*
X036851Y013351D03*
X036851Y014351D03*
X037851Y014351D03*
X037851Y015351D03*
X036851Y015351D03*
X036851Y016351D03*
X037851Y016351D03*
X037851Y017351D03*
X036851Y017351D03*
X036851Y018351D03*
X037851Y018351D03*
X037851Y019351D03*
X036851Y019351D03*
X036851Y020351D03*
X037851Y020351D03*
X037851Y021351D03*
X036851Y021351D03*
X036851Y024851D03*
X035851Y024851D03*
X034851Y024851D03*
X037851Y024851D03*
D39*
X030800Y023164D02*
X030796Y023164D01*
X028613Y023164D02*
X028609Y023164D01*
D40*
X028512Y023166D03*
X028512Y022792D03*
X027685Y022792D03*
X027689Y023540D03*
X028512Y023540D03*
X029877Y023539D03*
X030700Y023539D03*
X030700Y023165D03*
X030700Y022791D03*
X029873Y022791D03*
D41*
X030032Y022664D02*
X030548Y022664D01*
X030548Y023667D01*
X030032Y023667D01*
X030032Y022664D01*
X028361Y022664D02*
X028361Y023668D01*
X027845Y023668D01*
X027845Y022664D01*
X028361Y022664D01*
D42*
X029788Y025275D03*
D43*
X025206Y023058D02*
X025206Y022644D01*
X025101Y022726D02*
X025101Y022726D01*
X024976Y022914D01*
X025101Y022914D01*
X024976Y022914D02*
X024976Y022914D01*
X024851Y022726D01*
X025101Y022726D01*
X024976Y022914D02*
X024851Y022914D01*
X024695Y022882D02*
X024695Y022882D01*
X024632Y022820D01*
X024632Y022851D01*
X024632Y022820D02*
X024663Y022820D01*
X024695Y022789D02*
X024632Y022726D01*
X024663Y022726D01*
X024632Y022726D02*
X024632Y022757D01*
X024746Y022654D02*
X024746Y023215D01*
X024757Y023132D02*
X024851Y023132D01*
X024839Y023227D02*
X024844Y023205D01*
X024852Y023185D01*
X024863Y023167D01*
X024878Y023150D01*
X024894Y023136D01*
X024913Y023124D01*
X024933Y023116D01*
X024954Y023111D01*
X024976Y023109D01*
X024998Y023111D01*
X025019Y023116D01*
X025039Y023124D01*
X025058Y023136D01*
X025074Y023150D01*
X025089Y023167D01*
X025100Y023185D01*
X025108Y023205D01*
X025113Y023227D01*
X028289Y021899D02*
X028351Y021962D01*
X028351Y021775D01*
X028289Y021775D02*
X028413Y021775D01*
X028488Y021868D02*
X028613Y021868D01*
X028582Y021775D02*
X028582Y021962D01*
X028488Y021868D01*
X017352Y023527D02*
X017330Y023532D01*
X017310Y023540D01*
X017292Y023551D01*
X017275Y023566D01*
X017261Y023582D01*
X017249Y023601D01*
X017241Y023621D01*
X017236Y023642D01*
X017234Y023664D01*
X017236Y023686D01*
X017241Y023707D01*
X017249Y023727D01*
X017261Y023746D01*
X017275Y023762D01*
X017292Y023777D01*
X017310Y023788D01*
X017330Y023796D01*
X017352Y023801D01*
X017340Y023894D02*
X016779Y023894D01*
X016851Y023976D02*
X016851Y024007D01*
X016882Y024007D01*
X016851Y024007D02*
X016913Y023945D01*
X016945Y023976D02*
X016945Y024007D01*
X016976Y024007D01*
X016945Y024007D02*
X017007Y023945D01*
X017007Y023945D01*
X017038Y023789D02*
X017038Y023664D01*
X017038Y023539D01*
X017038Y023664D02*
X017038Y023664D01*
X016851Y023539D01*
X016851Y023539D01*
X016851Y023789D01*
X017038Y023664D01*
X017257Y023789D02*
X017257Y023882D01*
X017183Y023434D02*
X016769Y023434D01*
X008351Y016070D02*
X008320Y016070D01*
X008320Y016039D01*
X008320Y016070D02*
X008382Y016007D01*
X008382Y016007D01*
X008288Y016007D02*
X008226Y016070D01*
X008226Y016039D01*
X008226Y016070D02*
X008257Y016070D01*
X008154Y015956D02*
X008715Y015956D01*
X008632Y015945D02*
X008632Y015851D01*
X008727Y015863D02*
X008705Y015858D01*
X008685Y015850D01*
X008667Y015839D01*
X008650Y015824D01*
X008636Y015808D01*
X008624Y015789D01*
X008616Y015769D01*
X008611Y015748D01*
X008609Y015726D01*
X008611Y015704D01*
X008616Y015683D01*
X008624Y015663D01*
X008636Y015644D01*
X008650Y015628D01*
X008667Y015613D01*
X008685Y015602D01*
X008705Y015594D01*
X008727Y015589D01*
X008557Y015496D02*
X008144Y015496D01*
X008226Y015601D02*
X008413Y015726D01*
X008413Y015601D01*
X008413Y015726D02*
X008413Y015726D01*
X008413Y015851D01*
X008413Y015726D02*
X008226Y015851D01*
X008226Y015601D01*
X008226Y015601D01*
X008058Y010058D02*
X008058Y009644D01*
X008163Y009789D02*
X008288Y009789D01*
X008288Y009789D01*
X008413Y009976D01*
X008163Y009976D01*
X008163Y009976D01*
X008288Y009789D01*
X008413Y009789D01*
X008570Y009820D02*
X008570Y009820D01*
X008632Y009882D01*
X008632Y009851D01*
X008632Y009882D02*
X008601Y009882D01*
X008570Y009914D02*
X008632Y009976D01*
X008601Y009976D01*
X008632Y009976D02*
X008632Y009945D01*
X008518Y010048D02*
X008518Y009487D01*
X008507Y009570D02*
X008413Y009570D01*
X008425Y009475D02*
X008420Y009497D01*
X008412Y009517D01*
X008401Y009535D01*
X008386Y009552D01*
X008370Y009566D01*
X008351Y009578D01*
X008331Y009586D01*
X008310Y009591D01*
X008288Y009593D01*
X008266Y009591D01*
X008245Y009586D01*
X008225Y009578D01*
X008206Y009566D01*
X008190Y009552D01*
X008175Y009535D01*
X008164Y009517D01*
X008156Y009497D01*
X008151Y009475D01*
D44*
X008646Y015541D03*
X017271Y023479D03*
D45*
X017225Y023560D03*
X008600Y015623D03*
D46*
X008582Y015797D03*
X017207Y023734D03*
D47*
X016681Y023846D03*
X016681Y023481D03*
X008056Y015908D03*
X008056Y015544D03*
D48*
X008105Y015628D03*
X008105Y015824D03*
X016730Y023565D03*
X016730Y023762D03*
D49*
X016745Y023664D03*
X008119Y015726D03*
D50*
X008390Y015726D03*
X008288Y009812D03*
X024976Y022890D03*
X017015Y023664D03*
D51*
X017265Y023843D02*
X017267Y023855D01*
X017272Y023866D01*
X017280Y023875D01*
X017291Y023881D01*
X017303Y023884D01*
X017315Y023883D01*
X017327Y023879D01*
X017336Y023871D01*
X017343Y023861D01*
X017347Y023849D01*
X017347Y023837D01*
X017343Y023825D01*
X017336Y023815D01*
X017326Y023807D01*
X017315Y023803D01*
X017303Y023802D01*
X017291Y023805D01*
X017280Y023811D01*
X017272Y023820D01*
X017267Y023831D01*
X017265Y023843D01*
X024756Y023181D02*
X024758Y023193D01*
X024763Y023204D01*
X024771Y023213D01*
X024782Y023219D01*
X024794Y023222D01*
X024806Y023221D01*
X024818Y023217D01*
X024827Y023209D01*
X024834Y023199D01*
X024838Y023187D01*
X024838Y023175D01*
X024834Y023163D01*
X024827Y023153D01*
X024817Y023145D01*
X024806Y023141D01*
X024794Y023140D01*
X024782Y023143D01*
X024771Y023149D01*
X024763Y023158D01*
X024758Y023169D01*
X024756Y023181D01*
X008640Y015905D02*
X008642Y015917D01*
X008647Y015928D01*
X008655Y015937D01*
X008666Y015943D01*
X008678Y015946D01*
X008690Y015945D01*
X008702Y015941D01*
X008711Y015933D01*
X008718Y015923D01*
X008722Y015911D01*
X008722Y015899D01*
X008718Y015887D01*
X008711Y015877D01*
X008701Y015869D01*
X008690Y015865D01*
X008678Y015864D01*
X008666Y015867D01*
X008655Y015873D01*
X008647Y015882D01*
X008642Y015893D01*
X008640Y015905D01*
X008426Y009521D02*
X008428Y009533D01*
X008433Y009544D01*
X008441Y009553D01*
X008452Y009559D01*
X008464Y009562D01*
X008476Y009561D01*
X008488Y009557D01*
X008497Y009549D01*
X008504Y009539D01*
X008508Y009527D01*
X008508Y009515D01*
X008504Y009503D01*
X008497Y009493D01*
X008487Y009485D01*
X008476Y009481D01*
X008464Y009480D01*
X008452Y009483D01*
X008441Y009489D01*
X008433Y009498D01*
X008428Y009509D01*
X008426Y009521D01*
D52*
X008730Y015908D03*
X017355Y023846D03*
D53*
X025160Y023146D03*
X008104Y009556D03*
D54*
X008185Y009602D03*
X025079Y023100D03*
D55*
X024905Y023082D03*
X008359Y009620D03*
D56*
X008470Y010146D03*
X008106Y010146D03*
X024794Y022556D03*
X025158Y022556D03*
D57*
X025074Y022605D03*
X024877Y022605D03*
X008387Y010097D03*
X008190Y010097D03*
D58*
X008288Y010082D03*
X024976Y022620D03*
D59*
X024794Y023230D03*
X008470Y009472D03*
D60*
X024303Y019811D02*
X032649Y019811D01*
X032649Y022016D01*
X029276Y022016D01*
X027676Y022016D02*
X024303Y022016D01*
X024303Y019811D01*
X036001Y022951D02*
X036001Y000751D01*
X038701Y000751D01*
X038701Y003551D01*
X038701Y004151D02*
X038701Y011051D01*
X038701Y012651D02*
X038701Y020551D01*
X038701Y021151D02*
X038701Y022951D01*
X036001Y022951D01*
M02*
