G75*
G70*
%OFA0B0*%
%FSLAX24Y24*%
%IPPOS*%
%LPD*%
%AMOC8*
5,1,8,0,0,1.08239X$1,22.5*
%
%ADD10R,0.0295X0.0571*%
%ADD11C,0.0040*%
%ADD12R,0.0571X0.0295*%
%ADD13C,0.0080*%
%ADD14R,0.0197X0.0197*%
%ADD15C,0.0010*%
D10*
X023493Y016976D03*
X024063Y016976D03*
D11*
X023931Y016716D02*
X023631Y016716D01*
X023631Y017236D02*
X023921Y017236D01*
X024834Y017889D02*
X024834Y018179D01*
X025353Y018189D02*
X025353Y017889D01*
D12*
X025094Y017751D03*
X025094Y018321D03*
D13*
X011790Y001666D02*
X006397Y001666D01*
X006397Y002256D01*
X006397Y002257D02*
X006418Y002269D01*
X006437Y002284D01*
X006455Y002301D01*
X006469Y002321D01*
X006481Y002343D01*
X006489Y002366D01*
X006494Y002390D01*
X006496Y002414D01*
X006494Y002438D01*
X006489Y002462D01*
X006481Y002485D01*
X006469Y002507D01*
X006455Y002527D01*
X006437Y002544D01*
X006418Y002559D01*
X006397Y002571D01*
X006397Y003162D01*
X011790Y003162D01*
X011790Y002571D01*
X011769Y002559D01*
X011750Y002544D01*
X011732Y002527D01*
X011718Y002507D01*
X011706Y002485D01*
X011698Y002462D01*
X011693Y002438D01*
X011691Y002414D01*
X011693Y002390D01*
X011698Y002366D01*
X011706Y002343D01*
X011718Y002321D01*
X011732Y002301D01*
X011750Y002284D01*
X011769Y002269D01*
X011790Y002257D01*
X011790Y002256D02*
X011790Y001666D01*
X013820Y001453D02*
X016241Y001453D01*
X016241Y003874D01*
X013820Y003874D01*
X013820Y001453D01*
X013820Y002453D02*
X013820Y002874D01*
X014322Y002664D02*
X014324Y002717D01*
X014330Y002770D01*
X014340Y002822D01*
X014353Y002873D01*
X014371Y002923D01*
X014392Y002972D01*
X014417Y003019D01*
X014445Y003063D01*
X014477Y003106D01*
X014511Y003146D01*
X014549Y003184D01*
X014589Y003218D01*
X014632Y003250D01*
X014677Y003278D01*
X014723Y003303D01*
X014772Y003324D01*
X014822Y003342D01*
X014873Y003355D01*
X014925Y003365D01*
X014978Y003371D01*
X015031Y003373D01*
X015084Y003371D01*
X015137Y003365D01*
X015189Y003355D01*
X015240Y003342D01*
X015290Y003324D01*
X015339Y003303D01*
X015386Y003278D01*
X015430Y003250D01*
X015473Y003218D01*
X015513Y003184D01*
X015551Y003146D01*
X015585Y003106D01*
X015617Y003063D01*
X015645Y003018D01*
X015670Y002972D01*
X015691Y002923D01*
X015709Y002873D01*
X015722Y002822D01*
X015732Y002770D01*
X015738Y002717D01*
X015740Y002664D01*
X015738Y002611D01*
X015732Y002558D01*
X015722Y002506D01*
X015709Y002455D01*
X015691Y002405D01*
X015670Y002356D01*
X015645Y002309D01*
X015617Y002265D01*
X015585Y002222D01*
X015551Y002182D01*
X015513Y002144D01*
X015473Y002110D01*
X015430Y002078D01*
X015385Y002050D01*
X015339Y002025D01*
X015290Y002004D01*
X015240Y001986D01*
X015189Y001973D01*
X015137Y001963D01*
X015084Y001957D01*
X015031Y001955D01*
X014978Y001957D01*
X014925Y001963D01*
X014873Y001973D01*
X014822Y001986D01*
X014772Y002004D01*
X014723Y002025D01*
X014676Y002050D01*
X014632Y002078D01*
X014589Y002110D01*
X014549Y002144D01*
X014511Y002182D01*
X014477Y002222D01*
X014445Y002265D01*
X014417Y002310D01*
X014392Y002356D01*
X014371Y002405D01*
X014353Y002455D01*
X014340Y002506D01*
X014330Y002558D01*
X014324Y002611D01*
X014322Y002664D01*
X016241Y002874D02*
X016241Y002453D01*
X033695Y004453D02*
X033695Y006874D01*
X036117Y006874D01*
X036117Y004453D01*
X033695Y004453D01*
X033695Y005453D02*
X033695Y005874D01*
X034197Y005664D02*
X034199Y005717D01*
X034205Y005770D01*
X034215Y005822D01*
X034228Y005873D01*
X034246Y005923D01*
X034267Y005972D01*
X034292Y006019D01*
X034320Y006063D01*
X034352Y006106D01*
X034386Y006146D01*
X034424Y006184D01*
X034464Y006218D01*
X034507Y006250D01*
X034552Y006278D01*
X034598Y006303D01*
X034647Y006324D01*
X034697Y006342D01*
X034748Y006355D01*
X034800Y006365D01*
X034853Y006371D01*
X034906Y006373D01*
X034959Y006371D01*
X035012Y006365D01*
X035064Y006355D01*
X035115Y006342D01*
X035165Y006324D01*
X035214Y006303D01*
X035261Y006278D01*
X035305Y006250D01*
X035348Y006218D01*
X035388Y006184D01*
X035426Y006146D01*
X035460Y006106D01*
X035492Y006063D01*
X035520Y006018D01*
X035545Y005972D01*
X035566Y005923D01*
X035584Y005873D01*
X035597Y005822D01*
X035607Y005770D01*
X035613Y005717D01*
X035615Y005664D01*
X035613Y005611D01*
X035607Y005558D01*
X035597Y005506D01*
X035584Y005455D01*
X035566Y005405D01*
X035545Y005356D01*
X035520Y005309D01*
X035492Y005265D01*
X035460Y005222D01*
X035426Y005182D01*
X035388Y005144D01*
X035348Y005110D01*
X035305Y005078D01*
X035260Y005050D01*
X035214Y005025D01*
X035165Y005004D01*
X035115Y004986D01*
X035064Y004973D01*
X035012Y004963D01*
X034959Y004957D01*
X034906Y004955D01*
X034853Y004957D01*
X034800Y004963D01*
X034748Y004973D01*
X034697Y004986D01*
X034647Y005004D01*
X034598Y005025D01*
X034551Y005050D01*
X034507Y005078D01*
X034464Y005110D01*
X034424Y005144D01*
X034386Y005182D01*
X034352Y005222D01*
X034320Y005265D01*
X034292Y005310D01*
X034267Y005356D01*
X034246Y005405D01*
X034228Y005455D01*
X034215Y005506D01*
X034205Y005558D01*
X034199Y005611D01*
X034197Y005664D01*
X036117Y005874D02*
X036117Y005453D01*
X036117Y023390D02*
X033695Y023390D01*
X033695Y025812D01*
X036117Y025812D01*
X036117Y023390D01*
X036117Y024390D02*
X036117Y024812D01*
X034197Y024601D02*
X034199Y024654D01*
X034205Y024707D01*
X034215Y024759D01*
X034228Y024810D01*
X034246Y024860D01*
X034267Y024909D01*
X034292Y024956D01*
X034320Y025000D01*
X034352Y025043D01*
X034386Y025083D01*
X034424Y025121D01*
X034464Y025155D01*
X034507Y025187D01*
X034552Y025215D01*
X034598Y025240D01*
X034647Y025261D01*
X034697Y025279D01*
X034748Y025292D01*
X034800Y025302D01*
X034853Y025308D01*
X034906Y025310D01*
X034959Y025308D01*
X035012Y025302D01*
X035064Y025292D01*
X035115Y025279D01*
X035165Y025261D01*
X035214Y025240D01*
X035261Y025215D01*
X035305Y025187D01*
X035348Y025155D01*
X035388Y025121D01*
X035426Y025083D01*
X035460Y025043D01*
X035492Y025000D01*
X035520Y024955D01*
X035545Y024909D01*
X035566Y024860D01*
X035584Y024810D01*
X035597Y024759D01*
X035607Y024707D01*
X035613Y024654D01*
X035615Y024601D01*
X035613Y024548D01*
X035607Y024495D01*
X035597Y024443D01*
X035584Y024392D01*
X035566Y024342D01*
X035545Y024293D01*
X035520Y024246D01*
X035492Y024202D01*
X035460Y024159D01*
X035426Y024119D01*
X035388Y024081D01*
X035348Y024047D01*
X035305Y024015D01*
X035260Y023987D01*
X035214Y023962D01*
X035165Y023941D01*
X035115Y023923D01*
X035064Y023910D01*
X035012Y023900D01*
X034959Y023894D01*
X034906Y023892D01*
X034853Y023894D01*
X034800Y023900D01*
X034748Y023910D01*
X034697Y023923D01*
X034647Y023941D01*
X034598Y023962D01*
X034551Y023987D01*
X034507Y024015D01*
X034464Y024047D01*
X034424Y024081D01*
X034386Y024119D01*
X034352Y024159D01*
X034320Y024202D01*
X034292Y024247D01*
X034267Y024293D01*
X034246Y024342D01*
X034228Y024392D01*
X034215Y024443D01*
X034205Y024495D01*
X034199Y024548D01*
X034197Y024601D01*
X033695Y024390D02*
X033695Y024812D01*
D14*
X011456Y002807D03*
X010668Y002807D03*
X009881Y002807D03*
X009093Y002807D03*
X008306Y002807D03*
X007519Y002807D03*
X006731Y002807D03*
X006731Y002020D03*
X007519Y002020D03*
X008306Y002020D03*
X009093Y002020D03*
X009881Y002020D03*
X010668Y002020D03*
X011456Y002020D03*
D15*
X011606Y002988D02*
X011679Y002988D01*
X011643Y002988D02*
X011643Y003098D01*
X011606Y003061D01*
M02*
